<?xml version="1.0" encoding="utf-8"?>
<!-- Generator: Adobe Illustrator 19.0.0, SVG Export Plug-In . SVG Version: 6.00 Build 0)  -->
<svg version="1.1" id="Calque_1" xmlns="http://www.w3.org/2000/svg" xmlns:xlink="http://www.w3.org/1999/xlink" x="0px" y="0px"
	 viewBox="-11 340 589 114" style="enable-background:new -11 340 589 114;" xml:space="preserve">
<style type="text/css">
	.st0{display:none;}
	.st1{display:inline;}
	.st2{fill:#EBFFAA;}
	.st3{display:inline;fill:#E90052;}
	.st4{font-family:'DentonCondensedTest-BlackItalic';}
	.st5{font-size:90.7667px;}
	.st6{display:inline;fill:#3AF9BA;}
	.st7{font-family:'NexaSlabHeavyOblique';}
	.st8{font-size:70.1261px;}
	.st9{enable-background:new    ;}
	.st10{fill:#E90052;}
	.st11{fill:#3AF9BA;}
	.st12{clip-path:url(#SVGID_2_);fill:#231F20;}
	.st13{clip-path:url(#SVGID_4_);fill:#231F20;}
	.st14{clip-path:url(#SVGID_6_);fill:#231F20;}
	.st15{clip-path:url(#SVGID_8_);fill:#231F20;}
	.st16{clip-path:url(#SVGID_10_);fill:#231F20;}
	.st17{clip-path:url(#SVGID_12_);fill:#231F20;}
	.st18{clip-path:url(#SVGID_14_);fill:#231F20;}
	.st19{clip-path:url(#SVGID_16_);fill:#231F20;}
	.st20{clip-path:url(#SVGID_18_);fill:#231F20;}
	.st21{clip-path:url(#SVGID_20_);fill:#231F20;}
	.st22{clip-path:url(#SVGID_22_);fill:#231F20;}
</style>
<g id="Sauvegarde" class="st0">
	<g id="Calque_5" class="st1">
		<rect x="175.2" y="382" class="st2" width="392.1" height="1.8"/>
		<rect x="-2.9" y="418.7" class="st2" width="201.4" height="1.8"/>
	</g>
	<text transform="matrix(1 0 0 1 -0.3883 406.7443)" class="st3 st4 st5">Laser</text>
	<text transform="matrix(1 0 0 1 153.0542 435.3096)" class="st6 st7 st8">Welding</text>
</g>
<g id="Sauvegarde_1_">
	<g id="Calque_5_1_">
		<rect x="445.7" y="382" class="st2" width="121.6" height="1.8"/>
		<rect x="-2.9" y="418.7" class="st2" width="176.6" height="1.8"/>
	</g>
	<g class="st9">
		<path class="st10" d="M30.9,397l-0.5-11.8H14.2L7,397c-3.9,6.4-1.3,7.5,0.9,8.2l-0.5,1.5H-7.6l0.5-1.5c3.4-1,7.1-2.2,10.7-8.2
			l34-55.6h6.4l2.3,55.6c0.3,5.4,2.3,7.3,4.4,8.2l-0.5,1.5H24.4l0.5-1.5C27.3,404.6,31.3,403,30.9,397z M30.3,382.2l-0.8-21.9
			L16,382.2H30.3z"/>
		<path class="st10" d="M54.3,394.7l7.5-21c1.6-4.5,0.7-6.4-0.5-6.4c-1,0-3.2,1.5-7,8.1l-1-0.7c3.4-7.9,10.3-14.5,17.1-14.5
			c6.2,0,9.3,5.2,5.8,14.2l-6.4,17.3c-2.9,7.6-1.7,9-0.6,9c2.2,0,8.5-8.3,14.4-25.9l4.3-14.1h14.5l-10.1,32.9
			c-1.5,5-0.8,7.1,0.5,7.1c1,0,3.4-1.7,7.2-8.4l0.9,0.8c-3.5,8.2-9.8,14.8-16.5,14.8c-6.1,0-9.3-5.1-5.9-16l0.2-0.5
			c-6.1,11.8-11.5,16.5-17.4,16.5C55.3,407.8,51.3,402.6,54.3,394.7z"/>
		<path class="st10" d="M103.7,392.5l8.6-28.8h-5.4l0.3-1.3c7.3-2.5,16.2-7.9,22.9-15.6h1.8l-4.2,13.9h9l-0.9,3h-9l-8.8,29.4
			c-1.6,5.6-1,7.5,0.5,7.5c1.7,0,5-2.6,8.3-8.4l0.9,0.7c-4.1,8.2-10.4,14.9-17.2,14.9C104,407.8,100.7,402.5,103.7,392.5z"/>
		<path class="st10" d="M131.4,383.1c4.4-17.2,17.5-23.3,26.5-23.1c9,0.3,17.6,6.8,13.2,24.1c-4.4,17.2-17.9,23.9-26.6,23.6
			C135.6,407.7,126.9,400.3,131.4,383.1z M155.8,383.9c2-7.4,5.9-20.8,1.5-21c-4.3-0.2-7.9,11-10.5,20.5c-2.5,9.6-5.8,21.5-1.7,21.7
			C149.2,405.2,153.3,393.4,155.8,383.9z"/>
		<path class="st10" d="M196.8,392.6l6-17.7c2.1-6.3,1.3-7.5,0.2-7.5c-2.4,0-10.2,9.1-16,27.2l-3.7,12.2h-14.6l11.4-36.6
			c1.7-5.7-0.4-7.4-2.4-8l0.5-1.5h19.1l-4.9,15.9c6.5-11.8,12.8-16.5,18.6-16.5c6.1,0,9.4,5.4,6.8,13.2l-6.5,19.7
			c-1.8,5.6-1.2,7.7,0,7.7c1.1,0,3.4-1.6,7.2-8.4l1,0.8c-3.5,8.2-9.8,14.8-16.5,14.8C196.7,407.8,193.4,402.6,196.8,392.6z"/>
		<path class="st10" d="M222.7,383.1c4.4-17.2,17.5-23.3,26.5-23.1c9,0.3,17.6,6.8,13.2,24.1c-4.4,17.2-17.9,23.9-26.6,23.6
			C226.9,407.7,218.2,400.3,222.7,383.1z M247.1,383.9c2-7.4,5.9-20.8,1.5-21c-4.3-0.2-7.9,11-10.5,20.5c-2.5,9.6-5.8,21.5-1.7,21.7
			C240.5,405.2,244.6,393.4,247.1,383.9z"/>
		<path class="st10" d="M310.5,394l6.7-19.1c2.1-6,1.3-7.4,0.2-7.4c-2.3,0-8.9,8.2-14.6,25.3l-0.9,2.7c-0.1,0.2-0.1,0.4-0.2,0.5V396
			l-3.4,10.7h-14.7l10.5-31.9c2.1-6.3,0.9-7.5-0.2-7.5c-2.4,0-9.9,9-15.9,27.7l-3.5,11.7h-14.5l11.4-36.6c1.7-5.7-0.4-7.4-2.4-8
			l0.5-1.5h19.1l-4.4,14.6c6.2-11.2,12-15.2,17.6-15.2c6,0,9.9,5.5,7.2,13.8c5.7-10.4,11-13.6,16.1-13.6c6.5,0,10.3,5.4,7.7,13.2
			l-7,19.6c-2.2,6.3-1.3,7.8,0,7.8c1.1,0,3.4-1.8,7.2-8.4l1,0.8c-3.6,8.4-9.8,14.8-16.5,14.8C311.4,408,307.5,402.6,310.5,394z"/>
		<path class="st10" d="M337.1,383.1c4.4-17.2,17.5-23.3,26.5-23.1c9,0.3,17.6,6.8,13.2,24.1c-4.4,17.2-17.9,23.9-26.6,23.6
			C341.3,407.7,332.5,400.3,337.1,383.1z M361.5,383.9c2-7.4,5.9-20.8,1.5-21c-4.3-0.2-7.9,11-10.5,20.5c-2.5,9.6-5.8,21.5-1.7,21.7
			C354.9,405.2,359,393.4,361.5,383.9z"/>
		<path class="st10" d="M380.9,394.7l7.5-21c1.6-4.5,0.7-6.4-0.5-6.4c-1,0-3.2,1.5-7,8.1l-1-0.7c3.4-7.9,10.3-14.5,17.1-14.5
			c6.2,0,9.3,5.2,5.8,14.2l-6.4,17.3c-2.9,7.6-1.7,9-0.6,9c2.2,0,8.5-8.3,14.4-25.9l4.3-14.1h14.5l-10.1,32.9
			c-1.5,5-0.8,7.1,0.5,7.1c1,0,3.4-1.7,7.2-8.4l0.9,0.8c-3.5,8.2-9.8,14.8-16.5,14.8c-6.1,0-9.3-5.1-5.9-16l0.2-0.5
			c-6.1,11.8-11.5,16.5-17.4,16.5C381.9,407.8,378,402.6,380.9,394.7z"/>
		<path class="st10" d="M426.6,403.2l4.4-13h0.9c1.5,3.8,3,7.4,4.7,9.9c2.1,3.2,4.4,4.9,6.6,4.8c1.9,0,4-1.2,4.1-3.8
			c0.2-4.3-5.4-10.2-9-15.6c-3.4-5.2-4.4-8.2-4.2-11.6c0.3-8.2,7.4-13.8,16.9-13.8c4.2,0,9.1,1.1,13.7,3.7l-4.4,12.5h-0.8
			c-0.7-3-1.7-5.8-2.7-7.8c-1.9-3.5-4.2-5.6-6.7-5.6c-1.9,0-4.1,1.2-4.1,3.7c0,3.9,5.3,9.3,9,15.2c2.7,4.5,3.9,8,3.5,12.3
			c-0.7,7.5-6.4,13.7-16.2,13.7C436.7,407.8,431.1,405.8,426.6,403.2z"/>
	</g>
	<g class="st9">
		<path class="st11" d="M161.8,395.6H157l1.7-9.4H180l-1.7,9.4H173l5.9,27.4l15.7-27.4h-5.8l1.7-9.4H213l-1.7,9.4h-5l-23.8,39.8
			h-11.4L161.8,395.6z"/>
		<path class="st11" d="M237.8,430.8c-4.5,3.7-11,5.5-16.1,5.5c-11.6,0-16.3-6.6-16.3-15.1c0-12.8,9.3-21.7,22.3-21.7
			c10.9,0,17.8,6.1,13,21.8H215c-0.1,3.5,2,6.1,8.4,6.1c2.8,0,7-1.1,9.7-3L237.8,430.8z M232.9,413.9c0.9-4.3-2.4-6-6.7-6
			c-4.5,0-8.4,2-10,6H232.9z"/>
		<path class="st11" d="M254.2,394.4h-4.7l1.5-8.3h14.4l-3.3,18.5c3.2-3.2,7.4-4.4,10.9-4.4c10,0,14.2,5.7,12.3,16.9l-1.8,9.9h4.8
			l-1.5,8.3h-17.5l1.5-8.3h3.1l1.8-9.9c1.1-6-1.7-7.9-6.2-7.7c-5.7,0.2-8.9,4.1-9.7,9l-1.5,8.6h5l-1.5,8.3h-19.6l1.5-8.3h4.8
			L254.2,394.4z"/>
		<path class="st11" d="M311.5,400.5l-4.6,26.3h4l-1.5,8.6h-18.3l1.5-8.6h4.4l3.1-17.9h-4.3l1.5-8.4H311.5z M302.5,392.2
			c0-4.1,3.6-6.4,6.7-6.4c2.8,0,5,1.7,5,4.8c0,4-3.6,6.4-6.9,6.4C304.7,396.9,302.5,395.1,302.5,392.2z"/>
		<path class="st11" d="M348.3,430.5c-4.6,4.1-9.8,5.6-15,5.6c-9.5,0-16.5-5-16.5-15.1c0-16.1,12.8-21.4,22.7-21.4
			c4.7,0,8.8,0.8,12.1,2.9l-2.4,10.8h-8.4l0.8-4.6c-1.3-0.4-2.9-0.5-3.7-0.5c-8,0-11.2,6-11.2,11.3c0,5,3.2,7.4,8.3,7.4
			c2.5,0,5.5-0.6,8.5-3L348.3,430.5z"/>
		<path class="st11" d="M359.6,386.2h14.2l-7.1,40.5h4.2l-1.5,8.6h-18.7l1.5-8.6h4.8l5.6-32h-4.5L359.6,386.2z"/>
		<path class="st11" d="M409.2,430.8c-4.5,3.7-11,5.5-16.1,5.5c-11.6,0-16.3-6.6-16.3-15.1c0-12.8,9.3-21.7,22.3-21.7
			c10.9,0,17.8,6.1,13,21.8h-25.6c-0.1,3.5,2,6.1,8.4,6.1c2.8,0,7-1.1,9.7-3L409.2,430.8z M404.3,413.9c0.9-4.3-2.4-6-6.7-6
			c-4.5,0-8.4,2-10,6H404.3z"/>
		<path class="st11" d="M439.9,411.6l0.3-3.9c-0.9-0.6-3.2-1-5.2-1c-3.2,0-6.3,1.1-6.3,4.1c0,2.2,3.1,2.5,5,2.6
			c8.6,0.5,14.9,3.4,13.6,12.2c-1.4,6.8-6.7,10.9-17.5,10.9c-5.5,0-10.7-1.1-14.9-4.1l2-9.6h8.3l-0.3,3.9c1.1,0.6,3.5,1.2,6,1.3
			c3.4,0.1,6.8-0.6,6.8-3.4c0-1.6-1.9-2.9-6.1-3.1c-8.1-1-14.2-4-12.7-11.5c1.3-7.7,10.1-10.9,17.7-10.9c4.6,0,9.3,1,13,2.9
			l-1.8,9.5H439.9z"/>
	</g>
</g>
<g>
	<defs>
		<path id="SVGID_1_" d="M131.4,383.1c4.4-17.2,17.5-23.3,26.5-23.1c9,0.3,17.6,6.8,13.2,24.1c-4.4,17.2-17.9,23.9-26.6,23.6
			C135.6,407.7,126.9,400.3,131.4,383.1z M155.8,383.9c2-7.4,5.9-20.8,1.5-21c-4.3-0.2-7.9,11-10.5,20.5c-2.5,9.6-5.8,21.5-1.7,21.7
			C149.2,405.2,153.3,393.4,155.8,383.9z"/>
	</defs>
	<clipPath id="SVGID_2_">
		<use xlink:href="#SVGID_1_"  style="overflow:visible;"/>
	</clipPath>
	<path class="st12" d="M161.8,395.6H157l1.7-9.4H180l-1.7,9.4H173l5.9,27.4l15.7-27.4h-5.8l1.7-9.4H213l-1.7,9.4h-5l-23.8,39.8
		h-11.4L161.8,395.6z"/>
</g>
<g>
	<defs>
		<path id="SVGID_3_" d="M196.8,392.6l6-17.7c2.1-6.3,1.3-7.5,0.2-7.5c-2.4,0-10.2,9.1-16,27.2l-3.7,12.2h-14.6l11.4-36.6
			c1.7-5.7-0.4-7.4-2.4-8l0.5-1.5h19.1l-4.9,15.9c6.5-11.8,12.8-16.5,18.6-16.5c6.1,0,9.4,5.4,6.8,13.2l-6.5,19.7
			c-1.8,5.6-1.2,7.7,0,7.7c1.1,0,3.4-1.6,7.2-8.4l1,0.8c-3.5,8.2-9.8,14.8-16.5,14.8C196.7,407.8,193.4,402.6,196.8,392.6z"/>
	</defs>
	<clipPath id="SVGID_4_">
		<use xlink:href="#SVGID_3_"  style="overflow:visible;"/>
	</clipPath>
	<path class="st13" d="M161.8,395.6H157l1.7-9.4H180l-1.7,9.4H173l5.9,27.4l15.7-27.4h-5.8l1.7-9.4H213l-1.7,9.4h-5l-23.8,39.8
		h-11.4L161.8,395.6z"/>
</g>
<g id="Calque_2">
</g>
<g>
	<defs>
		<path id="SVGID_5_" d="M222.7,383.1c4.4-17.2,17.5-23.3,26.5-23.1c9,0.3,17.6,6.8,13.2,24.1c-4.4,17.2-17.9,23.9-26.6,23.6
			C226.9,407.7,218.2,400.3,222.7,383.1z M247.1,383.9c2-7.4,5.9-20.8,1.5-21c-4.3-0.2-7.9,11-10.5,20.5c-2.5,9.6-5.8,21.5-1.7,21.7
			C240.5,405.2,244.6,393.4,247.1,383.9z"/>
	</defs>
	<clipPath id="SVGID_6_">
		<use xlink:href="#SVGID_5_"  style="overflow:visible;"/>
	</clipPath>
	<path class="st14" d="M237.8,430.8c-4.5,3.7-11,5.5-16.1,5.5c-11.6,0-16.3-6.6-16.3-15.1c0-12.8,9.3-21.7,22.3-21.7
		c10.9,0,17.8,6.1,13,21.8H215c-0.1,3.5,2,6.1,8.4,6.1c2.8,0,7-1.1,9.7-3L237.8,430.8z M232.9,413.9c0.9-4.3-2.4-6-6.7-6
		c-4.5,0-8.4,2-10,6H232.9z"/>
</g>
<g>
	<defs>
		<path id="SVGID_7_" d="M222.7,383.1c4.4-17.2,17.5-23.3,26.5-23.1c9,0.3,17.6,6.8,13.2,24.1c-4.4,17.2-17.9,23.9-26.6,23.6
			C226.9,407.7,218.2,400.3,222.7,383.1z M247.1,383.9c2-7.4,5.9-20.8,1.5-21c-4.3-0.2-7.9,11-10.5,20.5c-2.5,9.6-5.8,21.5-1.7,21.7
			C240.5,405.2,244.6,393.4,247.1,383.9z"/>
	</defs>
	<clipPath id="SVGID_8_">
		<use xlink:href="#SVGID_7_"  style="overflow:visible;"/>
	</clipPath>
	<path class="st15" d="M254.2,394.4h-4.7l1.5-8.3h14.4l-3.3,18.5c3.2-3.2,7.4-4.4,10.9-4.4c10,0,14.2,5.7,12.3,16.9l-1.8,9.9h4.8
		l-1.5,8.3h-17.5l1.5-8.3h3.1l1.8-9.9c1.1-6-1.7-7.9-6.2-7.7c-5.7,0.2-8.9,4.1-9.7,9l-1.5,8.6h5l-1.5,8.3h-19.6l1.5-8.3h4.8
		L254.2,394.4z"/>
</g>
<g>
	<defs>
		<path id="SVGID_9_" d="M310.5,394l6.7-19.1c2.1-6,1.3-7.4,0.2-7.4c-2.3,0-8.9,8.2-14.6,25.3l-0.9,2.7c-0.1,0.2-0.1,0.4-0.2,0.5
			V396l-3.4,10.7h-14.7l10.5-31.9c2.1-6.3,0.9-7.5-0.2-7.5c-2.4,0-9.9,9-15.9,27.7l-3.5,11.7h-14.5l11.4-36.6c1.7-5.7-0.4-7.4-2.4-8
			l0.5-1.5h19.1l-4.4,14.6c6.2-11.2,12-15.2,17.6-15.2c6,0,9.9,5.5,7.2,13.8c5.7-10.4,11-13.6,16.1-13.6c6.5,0,10.3,5.4,7.7,13.2
			l-7,19.6c-2.2,6.3-1.3,7.8,0,7.8c1.1,0,3.4-1.8,7.2-8.4l1,0.8c-3.6,8.4-9.8,14.8-16.5,14.8C311.4,408,307.5,402.6,310.5,394z"/>
	</defs>
	<clipPath id="SVGID_10_">
		<use xlink:href="#SVGID_9_"  style="overflow:visible;"/>
	</clipPath>
	<path class="st16" d="M254.2,394.4h-4.7l1.5-8.3h14.4l-3.3,18.5c3.2-3.2,7.4-4.4,10.9-4.4c10,0,14.2,5.7,12.3,16.9l-1.8,9.9h4.8
		l-1.5,8.3h-17.5l1.5-8.3h3.1l1.8-9.9c1.1-6-1.7-7.9-6.2-7.7c-5.7,0.2-8.9,4.1-9.7,9l-1.5,8.6h5l-1.5,8.3h-19.6l1.5-8.3h4.8
		L254.2,394.4z"/>
</g>
<g>
	<defs>
		<path id="SVGID_11_" d="M310.5,394l6.7-19.1c2.1-6,1.3-7.4,0.2-7.4c-2.3,0-8.9,8.2-14.6,25.3l-0.9,2.7c-0.1,0.2-0.1,0.4-0.2,0.5
			V396l-3.4,10.7h-14.7l10.5-31.9c2.1-6.3,0.9-7.5-0.2-7.5c-2.4,0-9.9,9-15.9,27.7l-3.5,11.7h-14.5l11.4-36.6c1.7-5.7-0.4-7.4-2.4-8
			l0.5-1.5h19.1l-4.4,14.6c6.2-11.2,12-15.2,17.6-15.2c6,0,9.9,5.5,7.2,13.8c5.7-10.4,11-13.6,16.1-13.6c6.5,0,10.3,5.4,7.7,13.2
			l-7,19.6c-2.2,6.3-1.3,7.8,0,7.8c1.1,0,3.4-1.8,7.2-8.4l1,0.8c-3.6,8.4-9.8,14.8-16.5,14.8C311.4,408,307.5,402.6,310.5,394z"/>
	</defs>
	<clipPath id="SVGID_12_">
		<use xlink:href="#SVGID_11_"  style="overflow:visible;"/>
	</clipPath>
	<path class="st17" d="M311.5,400.5l-4.6,26.3h4l-1.5,8.6h-18.3l1.5-8.6h4.4l3.1-17.9h-4.3l1.5-8.4H311.5z M302.5,392.2
		c0-4.1,3.6-6.4,6.7-6.4c2.8,0,5,1.7,5,4.8c0,4-3.6,6.4-6.9,6.4C304.7,396.9,302.5,395.1,302.5,392.2z"/>
</g>
<g>
	<defs>
		<path id="SVGID_13_" d="M310.5,394l6.7-19.1c2.1-6,1.3-7.4,0.2-7.4c-2.3,0-8.9,8.2-14.6,25.3l-0.9,2.7c-0.1,0.2-0.1,0.4-0.2,0.5
			V396l-3.4,10.7h-14.7l10.5-31.9c2.1-6.3,0.9-7.5-0.2-7.5c-2.4,0-9.9,9-15.9,27.7l-3.5,11.7h-14.5l11.4-36.6c1.7-5.7-0.4-7.4-2.4-8
			l0.5-1.5h19.1l-4.4,14.6c6.2-11.2,12-15.2,17.6-15.2c6,0,9.9,5.5,7.2,13.8c5.7-10.4,11-13.6,16.1-13.6c6.5,0,10.3,5.4,7.7,13.2
			l-7,19.6c-2.2,6.3-1.3,7.8,0,7.8c1.1,0,3.4-1.8,7.2-8.4l1,0.8c-3.6,8.4-9.8,14.8-16.5,14.8C311.4,408,307.5,402.6,310.5,394z"/>
	</defs>
	<clipPath id="SVGID_14_">
		<use xlink:href="#SVGID_13_"  style="overflow:visible;"/>
	</clipPath>
	<path class="st18" d="M348.3,430.5c-4.6,4.1-9.8,5.6-15,5.6c-9.5,0-16.5-5-16.5-15.1c0-16.1,12.8-21.4,22.7-21.4
		c4.7,0,8.8,0.8,12.1,2.9l-2.4,10.8h-8.4l0.8-4.6c-1.3-0.4-2.9-0.5-3.7-0.5c-8,0-11.2,6-11.2,11.3c0,5,3.2,7.4,8.3,7.4
		c2.5,0,5.5-0.6,8.5-3L348.3,430.5z"/>
</g>
<g>
	<defs>
		<path id="SVGID_15_" d="M337.1,383.1c4.4-17.2,17.5-23.3,26.5-23.1c9,0.3,17.6,6.8,13.2,24.1c-4.4,17.2-17.9,23.9-26.6,23.6
			C341.3,407.7,332.5,400.3,337.1,383.1z M361.5,383.9c2-7.4,5.9-20.8,1.5-21c-4.3-0.2-7.9,11-10.5,20.5c-2.5,9.6-5.8,21.5-1.7,21.7
			C354.9,405.2,359,393.4,361.5,383.9z"/>
	</defs>
	<clipPath id="SVGID_16_">
		<use xlink:href="#SVGID_15_"  style="overflow:visible;"/>
	</clipPath>
	<path class="st19" d="M348.3,430.5c-4.6,4.1-9.8,5.6-15,5.6c-9.5,0-16.5-5-16.5-15.1c0-16.1,12.8-21.4,22.7-21.4
		c4.7,0,8.8,0.8,12.1,2.9l-2.4,10.8h-8.4l0.8-4.6c-1.3-0.4-2.9-0.5-3.7-0.5c-8,0-11.2,6-11.2,11.3c0,5,3.2,7.4,8.3,7.4
		c2.5,0,5.5-0.6,8.5-3L348.3,430.5z"/>
</g>
<g>
	<defs>
		<path id="SVGID_17_" d="M337.1,383.1c4.4-17.2,17.5-23.3,26.5-23.1c9,0.3,17.6,6.8,13.2,24.1c-4.4,17.2-17.9,23.9-26.6,23.6
			C341.3,407.7,332.5,400.3,337.1,383.1z M361.5,383.9c2-7.4,5.9-20.8,1.5-21c-4.3-0.2-7.9,11-10.5,20.5c-2.5,9.6-5.8,21.5-1.7,21.7
			C354.9,405.2,359,393.4,361.5,383.9z"/>
	</defs>
	<clipPath id="SVGID_18_">
		<use xlink:href="#SVGID_17_"  style="overflow:visible;"/>
	</clipPath>
	<path class="st20" d="M359.6,386.2h14.2l-7.1,40.5h4.2l-1.5,8.6h-18.7l1.5-8.6h4.8l5.6-32h-4.5L359.6,386.2z"/>
</g>
<g>
	<defs>
		<path id="SVGID_19_" d="M380.9,394.7l7.5-21c1.6-4.5,0.7-6.4-0.5-6.4c-1,0-3.2,1.5-7,8.1l-1-0.7c3.4-7.9,10.3-14.5,17.1-14.5
			c6.2,0,9.3,5.2,5.8,14.2l-6.4,17.3c-2.9,7.6-1.7,9-0.6,9c2.2,0,8.5-8.3,14.4-25.9l4.3-14.1h14.5l-10.1,32.9
			c-1.5,5-0.8,7.1,0.5,7.1c1,0,3.4-1.7,7.2-8.4l0.9,0.8c-3.5,8.2-9.8,14.8-16.5,14.8c-6.1,0-9.3-5.1-5.9-16l0.2-0.5
			c-6.1,11.8-11.5,16.5-17.4,16.5C381.9,407.8,378,402.6,380.9,394.7z"/>
	</defs>
	<clipPath id="SVGID_20_">
		<use xlink:href="#SVGID_19_"  style="overflow:visible;"/>
	</clipPath>
	<path class="st21" d="M409.2,430.8c-4.5,3.7-11,5.5-16.1,5.5c-11.6,0-16.3-6.6-16.3-15.1c0-12.8,9.3-21.7,22.3-21.7
		c10.9,0,17.8,6.1,13,21.8h-25.6c-0.1,3.5,2,6.1,8.4,6.1c2.8,0,7-1.1,9.7-3L409.2,430.8z M404.3,413.9c0.9-4.3-2.4-6-6.7-6
		c-4.5,0-8.4,2-10,6H404.3z"/>
</g>
<g>
	<defs>
		<path id="SVGID_21_" d="M426.6,403.2l4.4-13h0.9c1.5,3.8,3,7.4,4.7,9.9c2.1,3.2,4.4,4.9,6.6,4.8c1.9,0,4-1.2,4.1-3.8
			c0.2-4.3-5.4-10.2-9-15.6c-3.4-5.2-4.4-8.2-4.2-11.6c0.3-8.2,7.4-13.8,16.9-13.8c4.2,0,9.1,1.1,13.7,3.7l-4.4,12.5h-0.8
			c-0.7-3-1.7-5.8-2.7-7.8c-1.9-3.5-4.2-5.6-6.7-5.6c-1.9,0-4.1,1.2-4.1,3.7c0,3.9,5.3,9.3,9,15.2c2.7,4.5,3.9,8,3.5,12.3
			c-0.7,7.5-6.4,13.7-16.2,13.7C436.7,407.8,431.1,405.8,426.6,403.2z"/>
	</defs>
	<clipPath id="SVGID_22_">
		<use xlink:href="#SVGID_21_"  style="overflow:visible;"/>
	</clipPath>
	<path class="st22" d="M439.9,411.6l0.3-3.9c-0.9-0.6-3.2-1-5.2-1c-3.2,0-6.3,1.1-6.3,4.1c0,2.2,3.1,2.5,5,2.6
		c8.6,0.5,14.9,3.4,13.6,12.2c-1.4,6.8-6.7,10.9-17.5,10.9c-5.5,0-10.7-1.1-14.9-4.1l2-9.6h8.3l-0.3,3.9c1.1,0.6,3.5,1.2,6,1.3
		c3.4,0.1,6.8-0.6,6.8-3.4c0-1.6-1.9-2.9-6.1-3.1c-8.1-1-14.2-4-12.7-11.5c1.3-7.7,10.1-10.9,17.7-10.9c4.6,0,9.3,1,13,2.9l-1.8,9.5
		H439.9z"/>
</g>
</svg>
