<?xml version="1.0" encoding="utf-8"?>
<!-- Generator: Adobe Illustrator 19.0.0, SVG Export Plug-In . SVG Version: 6.00 Build 0)  -->
<svg version="1.1" id="Calque_1" xmlns="http://www.w3.org/2000/svg" xmlns:xlink="http://www.w3.org/1999/xlink" x="0px" y="0px"
	 viewBox="-11 340 589 114" style="enable-background:new -11 340 589 114;" xml:space="preserve">
<style type="text/css">
	.st0{display:none;}
	.st1{display:inline;}
	.st2{fill:#EBFFAA;}
	.st3{display:inline;fill:#E90052;}
	.st4{font-family:'DentonCondensedTest-BlackItalic';}
	.st5{font-size:70.1261px;}
	.st6{display:inline;fill:#3AF9BA;}
	.st7{font-family:'NexaSlabHeavyOblique';}
	.st8{enable-background:new    ;}
	.st9{fill:#E90052;}
	.st10{fill:#3AF9BA;}
	.st11{clip-path:url(#SVGID_2_);fill:#231F20;}
	.st12{clip-path:url(#SVGID_4_);fill:#231F20;}
	.st13{clip-path:url(#SVGID_6_);fill:#231F20;}
</style>
<g id="Sauvegarde" class="st0">
	<g id="Calque_5" class="st1">
		<rect x="207.2" y="382" class="st2" width="360.1" height="1.8"/>
		<rect x="-2.9" y="418.7" class="st2" width="201.4" height="1.8"/>
	</g>
	<text transform="matrix(1 0 0 1 -13.802 398.3268)" class="st3 st4 st5">Automotive</text>
	<text transform="matrix(1 0 0 1 113.8854 437.3264)" class="st6 st7 st5">Manufacturing</text>
</g>
<g id="Sauvegarde_1_">
	<g id="Calque_5_1_">
		<rect x="295.5" y="382" class="st2" width="271.8" height="1.8"/>
		<rect x="-2.9" y="418.7" class="st2" width="129.9" height="1.8"/>
	</g>
	<g class="st8">
		<path class="st9" d="M19.9,390.8l-0.4-9.1H7l-5.6,9.1c-3,4.9-1,5.8,0.7,6.3l-0.4,1.2H-9.9l0.4-1.2c2.7-0.8,5.5-1.7,8.3-6.3
			l26.3-43h4.9l1.8,43c0.2,4.2,1.8,5.6,3.4,6.3l-0.4,1.2H14.8l0.4-1.2C17.1,396.6,20.2,395.5,19.9,390.8z M19.4,379.4l-0.6-16.9
			L8.4,379.4H19.4z"/>
		<path class="st9" d="M37.9,389l5.8-16.2c1.3-3.5,0.6-5-0.4-5c-0.8,0-2.5,1.2-5.4,6.2l-0.8-0.6c2.7-6.1,7.9-11.2,13.2-11.2
			c4.8,0,7.2,4,4.5,11l-5,13.4c-2.2,5.9-1.3,6.9-0.5,6.9c1.7,0,6.6-6.4,11.2-20l3.3-10.9H75l-7.8,25.4c-1.2,3.9-0.6,5.5,0.4,5.5
			c0.8,0,2.6-1.3,5.5-6.5l0.7,0.6c-2.7,6.3-7.6,11.4-12.8,11.4c-4.7,0-7.2-3.9-4.6-12.3l0.1-0.4c-4.7,9.1-8.9,12.8-13.5,12.8
			C38.7,399.2,35.7,395.1,37.9,389z"/>
		<path class="st9" d="M76.1,387.3l6.7-22.2h-4.2l0.2-1c5.6-2,12.6-6.1,17.7-12.1h1.4l-3.2,10.7h6.9l-0.7,2.3h-6.9l-6.8,22.7
			c-1.3,4.3-0.8,5.8,0.4,5.8c1.3,0,3.9-2,6.4-6.5l0.7,0.6c-3.2,6.3-8.1,11.5-13.3,11.5C76.3,399.2,73.8,395,76.1,387.3z"/>
		<path class="st9" d="M97.5,380.1c3.4-13.3,13.5-18,20.5-17.8c6.9,0.2,13.6,5.3,10.2,18.7c-3.4,13.3-13.8,18.4-20.5,18.2
			C100.7,399,94,393.3,97.5,380.1z M116.4,380.7c1.5-5.7,4.6-16.1,1.1-16.2c-3.3-0.1-6.1,8.5-8.1,15.8c-2,7.4-4.5,16.6-1.3,16.8
			C111.3,397.1,114.4,388,116.4,380.7z"/>
		<path class="st9" d="M165.3,388.5l5.2-14.7c1.6-4.6,1-5.8,0.1-5.8c-1.8,0-6.9,6.3-11.3,19.6l-0.7,2.1c-0.1,0.1-0.1,0.3-0.1,0.4
			v-0.1l-2.7,8.3h-11.4l8.1-24.6c1.6-4.8,0.7-5.8-0.1-5.8c-1.8,0-7.6,6.9-12.3,21.4l-2.7,9h-11.2l8.8-28.3c1.3-4.4-0.3-5.8-1.8-6.2
			l0.4-1.1h14.7l-3.4,11.3c4.8-8.6,9.3-11.8,13.6-11.8c4.6,0,7.6,4.3,5.5,10.7c4.4-8.1,8.5-10.5,12.4-10.5c5,0,8,4.2,6,10.2
			l-5.4,15.1c-1.7,4.8-1,6,0,6c0.8,0,2.6-1.4,5.5-6.5l0.8,0.6c-2.8,6.5-7.6,11.4-12.8,11.4C166,399.3,163,395.1,165.3,388.5z"/>
		<path class="st9" d="M185.9,380.1c3.4-13.3,13.5-18,20.5-17.8c6.9,0.2,13.6,5.3,10.2,18.7c-3.4,13.3-13.8,18.4-20.5,18.2
			C189.1,399,182.4,393.3,185.9,380.1z M204.7,380.7c1.5-5.7,4.6-16.1,1.1-16.2c-3.3-0.1-6.1,8.5-8.1,15.8c-2,7.4-4.5,16.6-1.3,16.8
			C199.6,397.1,202.8,388,204.7,380.7z"/>
		<path class="st9" d="M218.2,387.3l6.7-22.2h-4.2l0.2-1c5.6-2,12.6-6.1,17.7-12.1h1.4l-3.2,10.7h6.9l-0.7,2.3H236l-6.8,22.7
			c-1.3,4.3-0.8,5.8,0.4,5.8c1.3,0,3.9-2,6.4-6.5l0.7,0.6c-3.2,6.3-8.1,11.5-13.3,11.5C218.4,399.2,215.9,395,218.2,387.3z"/>
		<path class="st9" d="M240.8,387.4l5.6-18c1.1-4.2-0.7-5-2-5.5l0.3-1.1h15.1l-7.8,24.9c-1.4,4.3-0.9,6,0,6c0.8,0,2.6-1.3,5.5-6.5
			l0.7,0.6c-2.7,6.3-7.4,11.4-12.7,11.4C240.7,399.2,238.3,395.1,240.8,387.4z M255.7,347.1c3.4,0,6.1,2.9,6,6.5
			c-0.1,3.5-2.7,6.4-6.2,6.4c-3.4,0-6-2.7-6-6.3C249.5,350.1,252.3,347.1,255.7,347.1z"/>
		<path class="st9" d="M261,365.5l0.3-1.1l13-2.5l2.2,25.9c1.9-2.4,3.5-4.6,4.3-6.4c3.4-6.7,2.6-12.1-0.4-14.8l0.1-0.6l11.4-4.6
			c1.4,6.2-2.5,11.6-7.9,19.5c-2.6,3.6-4.6,6.6-14.3,17.4H267l-2.6-27.2C263.8,366.6,263,365.7,261,365.5z"/>
		<path class="st9" d="M290.6,378.3c3.9-10.7,12.2-15.9,19.7-15.9c6.2,0,10.9,3.6,9.3,9.4c-1.8,6.5-9.9,9.3-18.9,10.4
			c-1.1,6.9,0.9,10.9,4.6,11.1c2.5,0.1,6.5-1.5,9.7-7.2l0.8,0.6c-4.2,9.3-10.9,12.6-15.9,12.6C291.3,399.2,286.2,390.1,290.6,378.3z
			 M310.8,369.9c0.8-2.5,1.3-5.4-0.6-5.4c-2.1,0-5.3,4.3-7.6,10.7c-0.7,1.9-1.2,3.6-1.5,5.3C307,378.9,309.5,374.1,310.8,369.9z"/>
	</g>
	<g class="st8">
		<path class="st10" d="M150,432.7l1.3-7.4h3.9l3.4-19.5l-15,14.5H142l-9.4-14.8l-3.5,19.9h3.8l-1.3,7.4h-16.4l1.3-7.4h4.4l4.3-24
			h-4.4l1.3-7.5h13.7l8.9,15.6l14.4-15.6h14l-1.3,7.5h-4.2l-4.3,24h4.1l-1.3,7.4H150z"/>
		<path class="st10" d="M205,425.9l-1.2,6.7h-10.5l0.1-3.1c-4.2,3.6-6.8,3.8-10.8,3.8c-6.7,0-10.9-4.7-10.9-11.8
			c0-8.8,6.3-16.6,16.3-17.1c3.8,0,7.1,0.4,9.2,3.5l0.8-2.8h10.5l-1.2,6.9h-3.5l-2.4,14H205z M179.6,420.5c0,3.6,2.1,6.1,6.1,6.1
			c4.8,0,8.6-3.2,9.4-7.4c0.8-4.3-1.4-7.6-6.3-7.6C183.6,411.6,179.6,415.7,179.6,420.5z"/>
		<path class="st10" d="M221.1,425.8h4.1l-1.2,6.9h-15.7l1.2-6.9h4.1l2.4-14h-3.8l1.2-6.7H224l0.1,2.8c3-2.6,6.2-3.2,8.3-3.2
			c7.5,0,11.1,3.6,9.4,13.4l-1.3,7.7h3.9l-1.2,6.9h-14.7l1.2-6.9h3.1l1.3-7.6c0.5-2.9,0.7-6.2-4.3-6.2c-3.8-0.1-6.7,2.5-7.5,6.7
			L221.1,425.8z"/>
		<path class="st10" d="M278.2,425.7h3.8l-1.2,7h-9.7l-0.2-3.4c-3.6,3.1-7.1,3.9-9.7,3.9c-10.1,0-11.4-6.2-10-14l1.3-7.6H249
			l1.2-6.6h11.2l-2.5,14.1c-0.7,3.8-0.4,6.6,5.3,6.6c3.8-0.1,6.8-3.2,7.5-7.1l1.2-7h-4.1l1.2-6.6h11.8L278.2,425.7z"/>
		<path class="st10" d="M302,426l-1.2,6.6H285l1.2-6.6h3.9l2.5-14.1h-5l1.1-6.2h5l0.3-1.5c1.6-8.6,7.3-11.1,12.8-11.1
			c1.9,0,3.6,0.3,5.3,1.3l-2.9,6c-0.9-0.4-1.9-0.6-2.9-0.6c-2.3,0-4.2,1.4-4.7,4.6l-0.2,1.4h5.8L306,412h-5.8l-2.5,14.1H302z"/>
		<path class="st10" d="M341,425.9l-1.2,6.7h-10.5l0.1-3.1c-4.2,3.6-6.8,3.8-10.8,3.8c-6.7,0-10.9-4.7-10.9-11.8
			c0-8.8,6.3-16.6,16.3-17.1c3.8,0,7.1,0.4,9.2,3.5l0.8-2.8h10.5l-1.2,6.9h-3.5l-2.4,14H341z M315.6,420.5c0,3.6,2.1,6.1,6.1,6.1
			c4.8,0,8.6-3.2,9.4-7.4c0.8-4.3-1.4-7.6-6.3-7.6C319.6,411.6,315.6,415.7,315.6,420.5z"/>
		<path class="st10" d="M370.9,428.9c-3.7,3.3-7.8,4.4-11.9,4.4c-7.5,0-13.1-4-13.1-12c0-12.8,10.2-17,18-17c3.7,0,7,0.7,9.6,2.3
			l-1.9,8.6H365l0.7-3.7c-1-0.3-2.3-0.4-2.9-0.4c-6.3,0-8.8,4.8-8.8,9c0,3.9,2.6,5.8,6.6,5.8c2,0,4.4-0.5,6.7-2.4L370.9,428.9z"/>
		<path class="st10" d="M390.2,397.7l-1.3,7.6h7.1l-1.2,6.6h-7.2l-1.9,10.8c-0.6,3.4,2.3,4.2,5.9,2.8l0.6,6.4
			c-2.9,1-4.4,1.2-6.8,1.2c-5-0.1-8.6-2.9-7.3-10.4l1.9-10.8h-4.8l1.2-6.6h4.8l1.2-6.8L390.2,397.7z"/>
		<path class="st10" d="M426.9,425.7h3.8l-1.2,7h-9.7l-0.2-3.4c-3.6,3.1-7.1,3.9-9.7,3.9c-10.1,0-11.4-6.2-10-14l1.3-7.6h-3.6
			l1.2-6.6h11.2l-2.5,14.1c-0.7,3.8-0.4,6.6,5.3,6.6c3.8-0.1,6.8-3.2,7.5-7.1l1.2-7h-4.1l1.2-6.6h11.8L426.9,425.7z"/>
		<path class="st10" d="M440.7,411.8h-3.6l1.2-6.7h10.2l0.2,2.6c2.6-2.4,5.4-3.3,8.3-3.3c2.4,0,5.2,0.8,7,2.7l-4.8,6.6
			c-1.2-1.2-3-1.7-4.8-1.7c-3.1,0-6.4,1.7-7.2,6.6l-1.3,7.6h3.8l-1.2,6.7h-15.8l1.2-6.7h4.2L440.7,411.8z"/>
		<path class="st10" d="M478.1,405l-3.7,20.9h3.2l-1.2,6.8h-14.5l1.2-6.8h3.5l2.4-14.2h-3.4l1.2-6.7H478.1z M471,398.5
			c0-3.2,2.8-5.1,5.3-5.1c2.2,0,4,1.3,4,3.8c0,3.2-2.8,5.1-5.5,5.1C472.7,402.2,471,400.8,471,398.5z"/>
		<path class="st10" d="M493.4,425.8h4.1l-1.2,6.9h-15.7l1.2-6.9h4.1l2.4-14h-3.8l1.2-6.7h10.7l0.1,2.8c3-2.6,6.2-3.2,8.3-3.2
			c7.5,0,11.1,3.6,9.4,13.4l-1.3,7.7h3.9l-1.2,6.9h-14.7l1.2-6.9h3.1l1.3-7.6c0.5-2.9,0.7-6.2-4.3-6.2c-3.8-0.1-6.7,2.5-7.5,6.7
			L493.4,425.8z"/>
		<path class="st10" d="M531.1,447.3c-8.6,0-13.6-4.1-12.1-11.5h7.8c-0.3,2.9,2.3,4.5,6,4.5c4.6,0,7.5-2.6,8.3-7.5l0.6-2.8
			c-2.6,2.9-6,3.4-9.1,3.6c-7.3,0-12.1-4.3-12.1-11.8c0-10.5,7.8-16.9,16.7-16.9c3.2,0,6.6,0.8,8.3,3.7l1.2-3.6h10.5l-1.2,6.7h-3.5
			l-3.7,21.2C547,443.5,540.9,447.3,531.1,447.3z M528.5,420.3c0,3.6,2.4,6.4,6.1,6.4c5.7,0,9.3-4.2,9.3-8.7c0-3.5-2.3-6-6.5-6
			C533.5,411.9,528.5,414.6,528.5,420.3z"/>
	</g>
</g>
<g id="Calque_2">
	<g>
		<defs>
			<path id="SVGID_1_" d="M290.6,378.3c3.9-10.7,12.2-15.9,19.7-15.9c6.2,0,10.9,3.6,9.3,9.4c-1.8,6.5-9.9,9.3-18.9,10.4
				c-1.1,6.9,0.9,10.9,4.6,11.1c2.5,0.1,6.5-1.5,9.7-7.2l0.8,0.6c-4.2,9.3-10.9,12.6-15.9,12.6C291.3,399.2,286.2,390.1,290.6,378.3
				z M310.8,369.9c0.8-2.5,1.3-5.4-0.6-5.4c-2.1,0-5.3,4.3-7.6,10.7c-0.7,1.9-1.2,3.6-1.5,5.3C307,378.9,309.5,374.1,310.8,369.9z"
				/>
		</defs>
		<clipPath id="SVGID_2_">
			<use xlink:href="#SVGID_1_"  style="overflow:visible;"/>
		</clipPath>
		<path class="st11" d="M302,426l-1.2,6.6H285l1.2-6.6h3.9l2.5-14.1h-5l1.1-6.2h5l0.3-1.5c1.6-8.6,7.3-11.1,12.8-11.1
			c1.9,0,3.6,0.3,5.3,1.3l-2.9,6c-0.9-0.4-1.9-0.6-2.9-0.6c-2.3,0-4.2,1.4-4.7,4.6l-0.2,1.4h5.8L306,412h-5.8l-2.5,14.1H302z"/>
	</g>
	<g>
		<defs>
			<path id="SVGID_3_" d="M165.3,388.5l5.2-14.7c1.6-4.6,1-5.8,0.1-5.8c-1.8,0-6.9,6.3-11.3,19.6l-0.7,2.1c-0.1,0.1-0.1,0.3-0.1,0.4
				v-0.1l-2.7,8.3h-11.4l8.1-24.6c1.6-4.8,0.7-5.8-0.1-5.8c-1.8,0-7.6,6.9-12.3,21.4l-2.7,9h-11.2l8.8-28.3c1.3-4.4-0.3-5.8-1.8-6.2
				l0.4-1.1h14.7l-3.4,11.3c4.8-8.6,9.3-11.8,13.6-11.8c4.6,0,7.6,4.3,5.5,10.7c4.4-8.1,8.5-10.5,12.4-10.5c5,0,8,4.2,6,10.2
				l-5.4,15.1c-1.7,4.8-1,6,0,6c0.8,0,2.6-1.4,5.5-6.5l0.8,0.6c-2.8,6.5-7.6,11.4-12.8,11.4C166,399.3,163,395.1,165.3,388.5z"/>
		</defs>
		<clipPath id="SVGID_4_">
			<use xlink:href="#SVGID_3_"  style="overflow:visible;"/>
		</clipPath>
		<path class="st12" d="M150,432.7l1.3-7.4h3.9l3.4-19.5l-15,14.5H142l-9.4-14.8l-3.5,19.9h3.8l-1.3,7.4h-16.4l1.3-7.4h4.4l4.3-24
			h-4.4l1.3-7.5h13.7l8.9,15.6l14.4-15.6h14l-1.3,7.5h-4.2l-4.3,24h4.1l-1.3,7.4H150z"/>
	</g>
</g>
<g id="Calque_3_1_" class="st0">
	<g id="Calque_5_-_copie" class="st1">
		<rect x="207.2" y="382" class="st2" width="360.1" height="1.8"/>
		<rect x="-2.9" y="418.7" class="st2" width="201.4" height="1.8"/>
	</g>
	<g class="st1">
		<path class="st9" d="M-4.5,349l0.3-1.2h19.5l-0.4,1.2c-2,0.6-4.8,1.6-4.9,6.4l-0.7,26.3l12-20.3l0.1-5.8c0.1-5-1.8-6.2-3.1-6.7
			l0.4-1.2h19.5l-0.3,1.2c-2,0.6-5,1.9-5,6.7l-0.8,26.2L47,355.5c2.7-4.8,0.9-6-0.9-6.5l0.3-1.1h11.7l-0.4,1.2
			c-2,0.5-5.3,1.5-8.1,6.5l-24.1,42.8H21l0.5-32.5L2.3,398.4h-4.5l0.7-42.9C-1.4,350.8-3.1,349.5-4.5,349z"/>
		<path class="st9" d="M43.6,378.3c3.9-10.7,12.2-15.9,19.7-15.9c6.2,0,10.9,3.6,9.3,9.4c-1.8,6.5-9.9,9.3-18.9,10.4
			c-1.1,6.9,0.9,10.9,4.6,11.1c2.5,0.1,6.5-1.5,9.7-7.2l0.8,0.6c-4.2,9.3-10.9,12.6-15.9,12.6C44.3,399.2,39.2,390.2,43.6,378.3z
			 M63.8,369.9c0.8-2.5,1.3-5.4-0.6-5.4c-2.1,0-5.3,4.3-7.6,10.7c-0.7,1.9-1.2,3.6-1.5,5.3C60,379,62.5,374,63.8,369.9z"/>
		<path class="st9" d="M72.1,387.4l10.1-31.8c1.3-4.1-0.8-5-2.1-5.3l0.3-1.1l15.7-2.4l-12.9,40.9c-1.4,4.3-0.9,6,0,6
			c0.8,0,2.6-1.3,5.5-6.5l0.8,0.6c-2.7,6.3-7.4,11.4-12.6,11.4C72.3,399.2,69.6,395.2,72.1,387.4z"/>
		<path class="st9" d="M107.7,391c-3,5.9-6.4,8.2-10,8.2c-6.8,0-8.8-8.8-5.3-19.2c4.3-12.9,13.5-18.4,19.4-17.6
			c2.2,0.3,3.4,1.3,4.1,2.4l3-9.2c1.1-4.2-0.8-5-2-5.3l0.2-1.1l15.8-2.4l-13.3,40.9c-1.3,4.3-0.9,6,0,6s2.7-1.5,5.5-6.5l0.8,0.6
			c-2.7,6.3-7.6,11.4-12.8,11.4C109.3,399.2,107,396.5,107.7,391z M110,383l5.4-16.4c-0.4-0.7-1-1-1.9-1c-2.5,0-5.4,3.2-8.8,13.3
			c-2.5,7.4-3.9,13.8-1.3,14.2C104.6,393.3,107,391.4,110,383z"/>
		<path class="st9" d="M128.1,387.4l5.6-18c1.1-4.2-0.7-5-2-5.5l0.3-1.1h15.1l-7.8,24.9c-1.4,4.3-0.9,6,0,6c0.8,0,2.6-1.3,5.5-6.5
			l0.7,0.6c-2.7,6.3-7.4,11.4-12.7,11.4C128,399.2,125.6,395.2,128.1,387.4z M143,347c3.4,0,6.1,2.9,6,6.5c-0.1,3.5-2.7,6.4-6.2,6.4
			c-3.4,0-6-2.7-6-6.3S139.6,347,143,347z"/>
		<path class="st9" d="M166.6,387.4l4.6-13.7c1.6-4.8,1-5.8,0.1-5.8c-1.8,0-7.9,7-12.3,21l-2.9,9.4h-11.3l8.8-28.3
			c1.3-4.4-0.3-5.8-1.8-6.2l0.4-1.1H167l-3.8,12.3c5-9.1,9.9-12.8,14.4-12.8c4.7,0,7.3,4.1,5.3,10.2l-5,15.2c-1.4,4.3-0.9,6,0,6
			c0.8,0,2.6-1.3,5.5-6.5l0.8,0.6c-2.7,6.3-7.6,11.4-12.8,11.4C166.6,399.2,164,395.2,166.6,387.4z"/>
		<path class="st9" d="M180.9,404.5c1.2-4.2,7.1-4.8,11.6-2l0.2,0.6c-1.8,0.6-2.8,1.8-3.1,3.1c-0.9,3.4,2.3,5.3,6.7,5.4
			c3.3,0.1,7.2-1.3,8.2-4.3c0.9-2.6-0.5-4.8-4.2-5.6l-9-1.9c-7.7-1.6-7.9-6-7.1-8.4c1.1-3.1,3.8-4.6,6.9-5.6
			c-2.9-2.2-4.4-6.2-2.9-11.3c2.4-8.1,10.4-12.1,16.8-12.1c4.1,0.1,7.6,1.7,9.5,4.5c1.8-3.3,5-5.6,8.5-4.3l-2.5,6.4
			c-1.3-0.8-3.2-1.3-5.1-0.3c0.8,2.1,0.9,4.6,0.1,7.4c-2.5,8.6-11.6,12-17.4,12c-2,0-3.7-0.4-5.3-1.2c-0.6,0.4-0.8,0.8-1,1.2
			c-0.3,1.1,0.5,1.9,3.4,2.5l9,1.9c8.3,1.8,9.5,7.6,7.8,12.3c-2.2,5.9-8.9,9.3-16.8,9.1C187.7,413.8,179.1,410.5,180.9,404.5z
			 M204.7,375.3c1.3-4.5,2.9-10.8,0.4-10.8s-4.8,5.9-6.2,10.7c-1.4,4.7-3,10.7-0.4,10.7C200.9,386,203.2,380.4,204.7,375.3z"/>
	</g>
	<g class="st1">
		<path class="st10" d="M218.1,427.7l1.8-7.3h9.1l-3,17h-42.3l1.7-9.5h5.5l5.3-30.3h-5.1l1.6-9.3h40.8l-2.9,16.6h-8.8l0.8-7.2h-16.3
			l-1.8,10.1h14.9l-1.6,9.3h-14.9l-1.9,10.6H218.1L218.1,427.7z"/>
		<path class="st10" d="M275.6,402.5l-7.4,42.1h4.1l-1.5,8.7h-18.6l1.5-8.7h5l1.9-10.6c-3.3,3-7.4,4.4-12.1,4.4
			c-9.6,0-14.6-6-14.6-14.7c0-12.3,8.3-21.5,20.8-21.6c5.3,0.1,8.4,1.6,10.4,5.1l1.3-4.7L275.6,402.5L275.6,402.5z M262.2,418.2
			c0-4.8-3.3-7.2-7.5-7.2c-6.2,0-10.5,5-10.5,10.7c0,4.5,2.7,7.3,7.5,7.3C255.7,429,262.2,425.7,262.2,418.2z"/>
		<path class="st10" d="M316.7,428.5h4.8l-1.5,8.8h-12.2l-0.2-4.3c-4.5,3.9-9,4.9-12.3,5c-12.7,0-14.4-7.8-12.6-17.6l1.7-9.5h-4.5
			l1.5-8.3h14.2l-3.2,17.7c-0.8,4.8-0.6,8.3,6.7,8.3c4.8-0.1,8.6-4.1,9.5-8.9l1.5-8.8h-5.2l1.5-8.3h14.9L316.7,428.5z"/>
		<path class="st10" d="M345.4,402.5l-4.6,26.3h4l-1.5,8.6H325l1.5-8.6h4.4l3.1-17.9h-4.3l1.5-8.4H345.4z M336.4,394.2
			c0-4.1,3.6-6.4,6.7-6.4c2.8,0,5,1.7,5,4.8c0,4-3.6,6.4-6.9,6.4C338.6,399,336.4,397.2,336.4,394.2z"/>
		<path class="st10" d="M352.1,411l1.5-8.5h13.8l-0.3,5.2c3.5-3.4,7.6-5.6,13-5.6c8.9,0,14,5.3,14,14.3c0,13.3-8.2,22-21.8,22
			c-3.5,0-7.4-1.1-10.1-4.6l-1.9,10.7h5l-1.5,8.8H345l1.5-8.8h4.3l5.9-33.4L352.1,411L352.1,411z M383.7,418.5c0-4.5-2.6-7-7.2-7
			c-6.7,0-10.6,5.5-10.6,10.4c0,3.7,2.1,7.6,7.1,7.6C379.3,429.5,383.7,425,383.7,418.5z"/>
		<path class="st10" d="M395.9,437.4l1.5-8.7h5l3.1-17.5h-4.6l1.5-8.6h13.7l0.4,3.7c2.5-3.2,6-4.3,9.3-4.3c4.8,0,7.9,2,8.6,6
			c3.4-4,7.4-5.9,12.6-5.9c11,0,13.2,5.9,11.4,16.1l-1.8,10.4h4.9l-1.5,8.7h-18.9l1.5-8.7h4.4l1.8-10.2c0.6-3.6,0.5-7.2-4.3-7.2
			c-4.7,0-7.2,3.9-7.9,7.6l-1.7,9.7h4.8l-1.5,8.7H419l1.5-8.7h4.8l1.7-9.7c0.8-5-1-7.7-4.7-7.7c-4.1,0-7.1,2.6-8,7.7l-1.7,9.7h4.8
			l-1.5,8.7h-20V437.4z"/>
		<path class="st10" d="M498.7,432.9c-4.5,3.7-11,5.5-16.1,5.5c-11.6,0-16.3-6.6-16.3-15.1c0-12.8,9.3-21.7,22.3-21.7
			c10.9,0,17.8,6.1,13,21.8H476c-0.1,3.5,2,6.1,8.4,6.1c2.8,0,7-1.1,9.7-3L498.7,432.9z M493.9,416c0.9-4.3-2.4-6-6.7-6
			c-4.5,0-8.4,2-10,6H493.9z"/>
		<path class="st10" d="M520.4,428.7h5.1l-1.5,8.7h-19.8l1.5-8.7h5.1l3.1-17.7h-4.8l1.5-8.5h13.5l0.1,3.6c3.8-3.2,7.8-4,10.5-4
			c9.5,0,14,4.5,11.9,16.9l-1.7,9.7h5l-1.5,8.7h-18.6l1.5-8.7h3.9l1.7-9.6c0.6-3.7,0.8-7.9-5.4-7.9c-4.8-0.1-8.5,3.2-9.4,8.5
			L520.4,428.7z"/>
		<path class="st10" d="M573.5,393.3l-1.7,9.6h9l-1.5,8.3h-9.1l-2.4,13.6c-0.7,4.3,2.9,5.3,7.4,3.6l0.8,8.1
			c-3.6,1.3-5.5,1.5-8.6,1.5c-6.3-0.1-10.9-3.7-9.2-13.1l2.4-13.6h-6l1.5-8.3h6l1.5-8.6L573.5,393.3z"/>
	</g>
	<g id="Calque_4" class="st1">
		<g>
			<g>
				<defs>
					<path id="SVGID_5_" d="M180.9,404.5c1.2-4.2,7.1-4.8,11.6-2l0.2,0.6c-1.8,0.6-2.8,1.8-3.1,3.1c-0.9,3.4,2.3,5.3,6.7,5.4
						c3.3,0.1,7.2-1.3,8.2-4.3c0.9-2.6-0.5-4.8-4.2-5.6l-9-1.9c-7.7-1.6-7.9-6-7.1-8.4c1.1-3.1,3.8-4.6,6.9-5.6
						c-2.9-2.2-4.4-6.2-2.9-11.3c2.4-8.1,10.4-12.1,16.8-12.1c4.1,0.1,7.6,1.7,9.5,4.5c1.8-3.3,5-5.6,8.5-4.3l-2.5,6.4
						c-1.3-0.8-3.2-1.3-5.1-0.3c0.8,2.1,0.9,4.6,0.1,7.4c-2.5,8.6-11.6,12-17.4,12c-2,0-3.7-0.4-5.3-1.2c-0.6,0.4-0.8,0.8-1,1.2
						c-0.3,1.1,0.5,1.9,3.4,2.5l9,1.9c8.3,1.8,9.5,7.6,7.8,12.3c-2.2,5.9-8.9,9.3-16.8,9.1C187.7,413.8,179.1,410.5,180.9,404.5z
						 M204.7,375.3c1.3-4.5,2.9-10.8,0.4-10.8s-4.8,5.9-6.2,10.7c-1.4,4.7-3,10.7-0.4,10.7C200.9,386,203.2,380.4,204.7,375.3z"/>
				</defs>
				<clipPath id="SVGID_6_">
					<use xlink:href="#SVGID_5_"  style="overflow:visible;"/>
				</clipPath>
				<path class="st13" d="M218.1,427.7l1.8-7.3h9.1l-3,17h-42.3l1.7-9.5h5.5l5.3-30.3h-5.1l1.6-9.3h40.8l-2.9,16.6h-8.8l0.8-7.2
					h-16.3l-1.8,10.1h14.9l-1.6,9.3h-14.9l-1.9,10.6H218.1L218.1,427.7z"/>
			</g>
		</g>
	</g>
</g>
</svg>
