<?xml version="1.0" encoding="utf-8"?>
<!-- Generator: Adobe Illustrator 19.0.0, SVG Export Plug-In . SVG Version: 6.00 Build 0)  -->
<svg version="1.1" id="Calque_1" xmlns="http://www.w3.org/2000/svg" xmlns:xlink="http://www.w3.org/1999/xlink" x="0px" y="0px"
	 viewBox="-11 340 589 114" style="enable-background:new -11 340 589 114;" xml:space="preserve">
<style type="text/css">
	.st0{display:none;}
	.st1{display:inline;}
	.st2{fill:#EBFFAA;}
	.st3{display:inline;fill:#E90052;}
	.st4{font-family:'DentonCondensedTest-BlackItalic';}
	.st5{font-size:90.7667px;}
	.st6{display:inline;fill:#3AF9BA;}
	.st7{font-family:'NexaSlabHeavyOblique';}
	.st8{font-size:70.1261px;}
	.st9{enable-background:new    ;}
	.st10{fill:#E90052;}
	.st11{fill:#3AF9BA;}
	.st12{clip-path:url(#SVGID_2_);fill:#231F20;}
	.st13{clip-path:url(#SVGID_4_);fill:#231F20;}
	.st14{clip-path:url(#SVGID_6_);fill:#231F20;}
	.st15{clip-path:url(#SVGID_8_);fill:#231F20;}
	.st16{clip-path:url(#SVGID_10_);fill:#231F20;}
	.st17{clip-path:url(#SVGID_12_);fill:#231F20;}
	.st18{clip-path:url(#SVGID_14_);fill:#231F20;}
	.st19{clip-path:url(#SVGID_16_);fill:#231F20;}
</style>
<g id="Sauvegarde" class="st0">
	<g id="Calque_5" class="st1">
		<rect x="175.2" y="382" class="st2" width="392.1" height="1.8"/>
		<rect x="-2.9" y="418.7" class="st2" width="201.4" height="1.8"/>
	</g>
	<text transform="matrix(1 0 0 1 -0.3883 406.7443)" class="st3 st4 st5">Conclusion</text>
	<text transform="matrix(1 0 0 1 153.0542 435.3096)" class="st6 st7 st8">Conclusion</text>
</g>
<g id="Sauvegarde_1_">
	<g id="Calque_5_1_">
		<rect x="388" y="382" class="st2" width="179.3" height="1.8"/>
		<rect x="-2.9" y="418.7" class="st2" width="162.7" height="1.8"/>
	</g>
	<g class="st9">
		<path class="st10" d="M5.4,371.3c6.1-19.9,19.2-30.9,35.6-30.8c4.8,0,9.2,1.1,16,3.9l-5.9,19.2h-1.2c0.5-9.3-0.7-20-8.9-20
			c-8.1,0-14.3,11.3-18.8,25.9c-6.2,20.6-1.7,29.8,5.4,30c6.5,0.3,14.1-5.6,18.3-10.7l0.6,1.2c-5.7,8.5-14.2,18-25.8,17.9
			C6.2,407.8-1.1,392.6,5.4,371.3z"/>
		<path class="st10" d="M50.3,383.1c4.4-17.2,17.5-23.3,26.5-23.1c9,0.3,17.6,6.8,13.2,24.1c-4.4,17.2-17.9,23.9-26.6,23.6
			C54.4,407.7,45.7,400.3,50.3,383.1z M74.7,383.9c2-7.4,5.9-20.8,1.5-21c-4.3-0.2-7.9,11-10.5,20.5c-2.5,9.6-5.8,21.5-1.7,21.7
			C68,405.2,72.1,393.4,74.7,383.9z"/>
		<path class="st10" d="M115.6,392.6l6-17.7c2.1-6.3,1.3-7.5,0.2-7.5c-2.4,0-10.2,9.1-16,27.2l-3.7,12.2H87.5l11.4-36.6
			c1.7-5.7-0.4-7.4-2.4-8l0.5-1.5h19.1l-4.9,15.9c6.5-11.8,12.8-16.5,18.6-16.5c6.1,0,9.4,5.4,6.8,13.2l-6.5,19.7
			c-1.8,5.6-1.2,7.7,0,7.7c1.1,0,3.4-1.6,7.2-8.4l1,0.8c-3.5,8.2-9.8,14.8-16.5,14.8C115.5,407.8,112.3,402.6,115.6,392.6z"/>
		<path class="st10" d="M142.3,380.7c5.3-14.5,15.9-20.5,25.4-20.5c4.4,0,8.2,1.2,11.8,3.1l-4.4,14.1H174
			c-2.3-10.5-3.6-14.2-6.3-14.2c-3.2,0-7.5,5.2-10.9,15.3c-4.2,12.7-2.8,21.4,3.2,21.7c3.5,0.1,7.8-2.6,12.2-9.3l0.9,0.7
			c-5.4,12.1-13.7,16.3-20.3,16.3C141.3,407.8,136.9,395.5,142.3,380.7z"/>
		<path class="st10" d="M176.8,392.5l13.1-41.1c1.6-5.4-1-6.4-2.7-6.8l0.4-1.5l20.3-3.1l-16.7,52.9c-1.8,5.6-1.2,7.7,0,7.7
			c1.1,0,3.4-1.6,7.2-8.4l1,0.8c-3.5,8.2-9.6,14.8-16.3,14.8C177.1,407.8,173.5,402.7,176.8,392.5z"/>
		<path class="st10" d="M202.4,394.7l7.5-21c1.6-4.5,0.7-6.4-0.5-6.4c-1,0-3.2,1.5-7,8.1l-1-0.7c3.4-7.9,10.3-14.5,17.1-14.5
			c6.2,0,9.3,5.2,5.8,14.2l-6.4,17.3c-2.9,7.6-1.7,9-0.6,9c2.2,0,8.5-8.3,14.4-25.9l4.3-14.1h14.5l-10.1,32.9
			c-1.5,5-0.8,7.1,0.5,7.1c1,0,3.4-1.7,7.2-8.4l0.9,0.8c-3.5,8.2-9.8,14.8-16.5,14.8c-6.1,0-9.3-5.1-5.9-16l0.2-0.5
			c-6.1,11.8-11.5,16.5-17.4,16.5C203.4,407.8,199.5,402.6,202.4,394.7z"/>
		<path class="st10" d="M248,403.2l4.4-13h0.9c1.5,3.8,3,7.4,4.7,9.9c2.1,3.2,4.4,4.9,6.6,4.8c1.9,0,4-1.2,4.1-3.8
			c0.2-4.3-5.4-10.2-9-15.6c-3.4-5.2-4.4-8.2-4.2-11.6c0.3-8.2,7.4-13.8,16.9-13.8c4.2,0,9.1,1.1,13.7,3.7l-4.4,12.5h-0.8
			c-0.7-3-1.7-5.8-2.7-7.8c-1.9-3.5-4.2-5.6-6.7-5.6c-1.9,0-4.1,1.2-4.1,3.7c0,3.9,5.3,9.3,9,15.2c2.7,4.5,3.9,8,3.5,12.3
			c-0.7,7.5-6.4,13.7-16.2,13.7C258.2,407.8,252.6,405.8,248,403.2z"/>
		<path class="st10" d="M285.1,392.6l7.3-23.3c1.4-5.4-0.9-6.5-2.6-7.1l0.4-1.5h19.5l-10.1,32.2c-1.8,5.6-1.2,7.7,0,7.7
			c1.1,0,3.4-1.6,7.2-8.4l0.9,0.8c-3.5,8.2-9.6,14.8-16.4,14.8C285,407.8,281.9,402.6,285.1,392.6z M304.4,340.4
			c4.4,0,7.9,3.7,7.8,8.4c-0.1,4.5-3.5,8.3-8.1,8.3c-4.4,0-7.8-3.5-7.8-8.2C296.3,344.3,300,340.4,304.4,340.4z"/>
		<path class="st10" d="M311.2,383.1c4.4-17.2,17.5-23.3,26.5-23.1c9,0.3,17.6,6.8,13.2,24.1c-4.4,17.2-17.9,23.9-26.6,23.6
			C315.4,407.7,306.7,400.3,311.2,383.1z M335.6,383.9c2-7.4,5.9-20.8,1.5-21c-4.3-0.2-7.9,11-10.5,20.5c-2.5,9.6-5.8,21.5-1.7,21.7
			C329,405.2,333.1,393.4,335.6,383.9z"/>
		<path class="st10" d="M376.6,392.6l6-17.7c2.1-6.3,1.3-7.5,0.2-7.5c-2.4,0-10.2,9.1-16,27.2l-3.7,12.2h-14.6l11.4-36.6
			c1.7-5.7-0.4-7.4-2.4-8l0.5-1.5h19.2l-4.9,15.9c6.5-11.8,12.8-16.5,18.6-16.5c6.1,0,9.4,5.4,6.8,13.2l-6.5,19.7
			c-1.8,5.6-1.2,7.7,0,7.7c1.1,0,3.4-1.6,7.2-8.4l1,0.8c-3.5,8.2-9.8,14.8-16.5,14.8C376.5,407.8,373.2,402.6,376.6,392.6z"/>
	</g>
	<g class="st9">
		<path class="st11" d="M202.3,390.1c-0.7,3.7-1.6,7.9-2.3,11.4h-9.3l0.7-6.2c-2-0.5-3.7-0.7-5.8-0.7c-11.4,0-17.6,8.5-18.8,16.2
			c-1.3,7.4,0.3,15.6,13.2,15.6c3.7,0,9.6-1.9,12.9-4.8l4.9,7.6c-6.1,4.9-12.4,7-19.5,7c-18.7,0-24.3-12-22-25.6
			c2-12.6,13-25.5,30.9-25.5C192.9,385.2,198.1,386.9,202.3,390.1z"/>
		<path class="st11" d="M223.4,399.6c10.3,0,15.7,6.2,15.7,15c0,11.6-8.6,21.5-22.1,21.5c-10.1,0-15.6-6.3-15.6-15
			C201.4,409,210.6,399.6,223.4,399.6z M222.3,408.4c-6.9,0-10.9,5.3-11.1,11.3c-0.1,4,2,7.4,7,7.4c6.1,0,9.6-4.2,10.8-9
			C230.2,412.4,227.7,408.4,222.3,408.4z"/>
		<path class="st11" d="M256.9,426.6h5.1l-1.5,8.7h-19.8l1.5-8.7h5.1l3.1-17.7h-4.8l1.5-8.5h13.5l0.1,3.6c3.8-3.2,7.8-4,10.5-4
			c9.5,0,14,4.5,11.9,16.9l-1.7,9.7h5l-1.5,8.7h-18.6l1.5-8.7h3.9l1.7-9.6c0.6-3.7,0.8-7.9-5.4-7.9c-4.8-0.1-8.5,3.2-9.4,8.5
			L256.9,426.6z"/>
		<path class="st11" d="M322.6,430.5c-4.6,4.1-9.8,5.6-15,5.6c-9.5,0-16.5-5-16.5-15.1c0-16.1,12.8-21.4,22.7-21.4
			c4.7,0,8.8,0.8,12.1,2.9l-2.4,10.8h-8.4l0.8-4.6c-1.3-0.4-2.9-0.5-3.7-0.5c-8,0-11.2,6-11.2,11.3c0,5,3.2,7.4,8.3,7.4
			c2.5,0,5.5-0.6,8.5-3L322.6,430.5z"/>
		<path class="st11" d="M334,386.2h14.2l-7.1,40.5h4.2l-1.5,8.6h-18.7l1.5-8.6h4.8l5.6-32h-4.5L334,386.2z"/>
		<path class="st11" d="M388.9,426.5h4.8l-1.5,8.8H380l-0.2-4.3c-4.5,3.9-9,4.9-12.3,5c-12.7,0-14.4-7.8-12.6-17.6l1.7-9.5h-4.5
			l1.5-8.3h14.2l-3.2,17.7c-0.8,4.8-0.6,8.3,6.7,8.3c4.8-0.1,8.6-4.1,9.5-8.9l1.5-8.8h-5.2l1.5-8.3h14.9L388.9,426.5z"/>
		<path class="st11" d="M422.2,411.6l0.3-3.9c-0.9-0.6-3.2-1-5.2-1c-3.2,0-6.3,1.1-6.3,4.1c0,2.2,3.1,2.5,5,2.6
			c8.6,0.5,14.9,3.4,13.6,12.2c-1.4,6.8-6.7,10.9-17.5,10.9c-5.5,0-10.7-1.1-14.9-4.1l2-9.6h8.3l-0.3,3.9c1.1,0.6,3.5,1.2,6,1.3
			c3.4,0.1,6.8-0.6,6.8-3.4c0-1.6-1.9-2.9-6.1-3.1c-8.1-1-14.2-4-12.7-11.5c1.3-7.7,10.1-10.9,17.7-10.9c4.6,0,9.3,1,13,2.9
			l-1.8,9.5H422.2z"/>
		<path class="st11" d="M453.5,400.5l-4.6,26.3h4l-1.5,8.6h-18.3l1.5-8.6h4.4l3.1-17.9h-4.3l1.5-8.4H453.5z M444.5,392.2
			c0-4.1,3.6-6.4,6.7-6.4c2.8,0,5,1.7,5,4.8c0,4-3.6,6.4-6.9,6.4C446.7,396.9,444.5,395.1,444.5,392.2z"/>
		<path class="st11" d="M480.7,399.6c10.3,0,15.7,6.2,15.7,15c0,11.6-8.6,21.5-22.1,21.5c-10.1,0-15.6-6.3-15.6-15
			C458.7,409,467.8,399.6,480.7,399.6z M479.6,408.4c-6.9,0-10.9,5.3-11.1,11.3c-0.1,4,2,7.4,7,7.4c6.1,0,9.6-4.2,10.8-9
			C487.5,412.4,485,408.4,479.6,408.4z"/>
		<path class="st11" d="M514.2,426.6h5.1l-1.5,8.7H498l1.5-8.7h5.1l3.1-17.7h-4.8l1.5-8.5h13.5l0.1,3.6c3.8-3.2,7.8-4,10.5-4
			c9.5,0,14,4.5,11.9,16.9l-1.7,9.7h5l-1.5,8.7h-18.6l1.5-8.7h3.9l1.7-9.6c0.6-3.7,0.8-7.9-5.4-7.9c-4.8-0.1-8.5,3.2-9.4,8.5
			L514.2,426.6z"/>
	</g>
</g>
<g id="Calque_2">
	<g>
		<defs>
			<path id="SVGID_1_" d="M142.3,380.7c5.3-14.5,15.9-20.5,25.4-20.5c4.4,0,8.2,1.2,11.8,3.1l-4.4,14.1H174
				c-2.3-10.5-3.6-14.2-6.3-14.2c-3.2,0-7.5,5.2-10.9,15.3c-4.2,12.7-2.8,21.4,3.2,21.7c3.5,0.1,7.8-2.6,12.2-9.3l0.9,0.7
				c-5.4,12.1-13.7,16.3-20.3,16.3C141.3,407.8,136.9,395.5,142.3,380.7z"/>
		</defs>
		<clipPath id="SVGID_2_">
			<use xlink:href="#SVGID_1_"  style="overflow:visible;"/>
		</clipPath>
		<path class="st12" d="M202.3,390.1c-0.7,3.7-1.6,7.9-2.3,11.4h-9.3l0.7-6.2c-2-0.5-3.7-0.7-5.8-0.7c-11.4,0-17.6,8.5-18.8,16.2
			c-1.3,7.4,0.3,15.6,13.2,15.6c3.7,0,9.6-1.9,12.9-4.8l4.9,7.6c-6.1,4.9-12.4,7-19.5,7c-18.7,0-24.3-12-22-25.6
			c2-12.6,13-25.5,30.9-25.5C192.9,385.2,198.1,386.9,202.3,390.1z"/>
	</g>
	<g>
		<defs>
			<path id="SVGID_3_" d="M176.8,392.5l13.1-41.1c1.6-5.4-1-6.4-2.7-6.8l0.4-1.5l20.3-3.1l-16.7,52.9c-1.8,5.6-1.2,7.7,0,7.7
				c1.1,0,3.4-1.6,7.2-8.4l1,0.8c-3.5,8.2-9.6,14.8-16.3,14.8C177.1,407.8,173.5,402.7,176.8,392.5z"/>
		</defs>
		<clipPath id="SVGID_4_">
			<use xlink:href="#SVGID_3_"  style="overflow:visible;"/>
		</clipPath>
		<path class="st13" d="M202.3,390.1c-0.7,3.7-1.6,7.9-2.3,11.4h-9.3l0.7-6.2c-2-0.5-3.7-0.7-5.8-0.7c-11.4,0-17.6,8.5-18.8,16.2
			c-1.3,7.4,0.3,15.6,13.2,15.6c3.7,0,9.6-1.9,12.9-4.8l4.9,7.6c-6.1,4.9-12.4,7-19.5,7c-18.7,0-24.3-12-22-25.6
			c2-12.6,13-25.5,30.9-25.5C192.9,385.2,198.1,386.9,202.3,390.1z"/>
	</g>
	<g>
		<defs>
			<path id="SVGID_5_" d="M202.4,394.7l7.5-21c1.6-4.5,0.7-6.4-0.5-6.4c-1,0-3.2,1.5-7,8.1l-1-0.7c3.4-7.9,10.3-14.5,17.1-14.5
				c6.2,0,9.3,5.2,5.8,14.2l-6.4,17.3c-2.9,7.6-1.7,9-0.6,9c2.2,0,8.5-8.3,14.4-25.9l4.3-14.1h14.5l-10.1,32.9
				c-1.5,5-0.8,7.1,0.5,7.1c1,0,3.4-1.7,7.2-8.4l0.9,0.8c-3.5,8.2-9.8,14.8-16.5,14.8c-6.1,0-9.3-5.1-5.9-16l0.2-0.5
				c-6.1,11.8-11.5,16.5-17.4,16.5C203.4,407.8,199.5,402.6,202.4,394.7z"/>
		</defs>
		<clipPath id="SVGID_6_">
			<use xlink:href="#SVGID_5_"  style="overflow:visible;"/>
		</clipPath>
		<path class="st14" d="M223.4,399.6c10.3,0,15.7,6.2,15.7,15c0,11.6-8.6,21.5-22.1,21.5c-10.1,0-15.6-6.3-15.6-15
			C201.4,409,210.6,399.6,223.4,399.6z M222.3,408.4c-6.9,0-10.9,5.3-11.1,11.3c-0.1,4,2,7.4,7,7.4c6.1,0,9.6-4.2,10.8-9
			C230.2,412.4,227.7,408.4,222.3,408.4z"/>
	</g>
	<g>
		<defs>
			<path id="SVGID_7_" d="M248,403.2l4.4-13h0.9c1.5,3.8,3,7.4,4.7,9.9c2.1,3.2,4.4,4.9,6.6,4.8c1.9,0,4-1.2,4.1-3.8
				c0.2-4.3-5.4-10.2-9-15.6c-3.4-5.2-4.4-8.2-4.2-11.6c0.3-8.2,7.4-13.8,16.9-13.8c4.2,0,9.1,1.1,13.7,3.7l-4.4,12.5h-0.8
				c-0.7-3-1.7-5.8-2.7-7.8c-1.9-3.5-4.2-5.6-6.7-5.6c-1.9,0-4.1,1.2-4.1,3.7c0,3.9,5.3,9.3,9,15.2c2.7,4.5,3.9,8,3.5,12.3
				c-0.7,7.5-6.4,13.7-16.2,13.7C258.2,407.8,252.6,405.8,248,403.2z"/>
		</defs>
		<clipPath id="SVGID_8_">
			<use xlink:href="#SVGID_7_"  style="overflow:visible;"/>
		</clipPath>
		<path class="st15" d="M256.9,426.6h5.1l-1.5,8.7h-19.8l1.5-8.7h5.1l3.1-17.7h-4.8l1.5-8.5h13.5l0.1,3.6c3.8-3.2,7.8-4,10.5-4
			c9.5,0,14,4.5,11.9,16.9l-1.7,9.7h5l-1.5,8.7h-18.6l1.5-8.7h3.9l1.7-9.6c0.6-3.7,0.8-7.9-5.4-7.9c-4.8-0.1-8.5,3.2-9.4,8.5
			L256.9,426.6z"/>
	</g>
	<g>
		<defs>
			<path id="SVGID_9_" d="M285.1,392.6l7.3-23.3c1.4-5.4-0.9-6.5-2.6-7.1l0.4-1.5h19.5l-10.1,32.2c-1.8,5.6-1.2,7.7,0,7.7
				c1.1,0,3.4-1.6,7.2-8.4l0.9,0.8c-3.5,8.2-9.6,14.8-16.4,14.8C285,407.8,281.9,402.6,285.1,392.6z M304.4,340.4
				c4.4,0,7.9,3.7,7.8,8.4c-0.1,4.5-3.5,8.3-8.1,8.3c-4.4,0-7.8-3.5-7.8-8.2C296.3,344.3,300,340.4,304.4,340.4z"/>
		</defs>
		<clipPath id="SVGID_10_">
			<use xlink:href="#SVGID_9_"  style="overflow:visible;"/>
		</clipPath>
		<path class="st16" d="M322.6,430.5c-4.6,4.1-9.8,5.6-15,5.6c-9.5,0-16.5-5-16.5-15.1c0-16.1,12.8-21.4,22.7-21.4
			c4.7,0,8.8,0.8,12.1,2.9l-2.4,10.8h-8.4l0.8-4.6c-1.3-0.4-2.9-0.5-3.7-0.5c-8,0-11.2,6-11.2,11.3c0,5,3.2,7.4,8.3,7.4
			c2.5,0,5.5-0.6,8.5-3L322.6,430.5z"/>
	</g>
	<g>
		<defs>
			<path id="SVGID_11_" d="M311.2,383.1c4.4-17.2,17.5-23.3,26.5-23.1c9,0.3,17.6,6.8,13.2,24.1c-4.4,17.2-17.9,23.9-26.6,23.6
				C315.4,407.7,306.7,400.3,311.2,383.1z M335.6,383.9c2-7.4,5.9-20.8,1.5-21c-4.3-0.2-7.9,11-10.5,20.5
				c-2.5,9.6-5.8,21.5-1.7,21.7C329,405.2,333.1,393.4,335.6,383.9z"/>
		</defs>
		<clipPath id="SVGID_12_">
			<use xlink:href="#SVGID_11_"  style="overflow:visible;"/>
		</clipPath>
		<path class="st17" d="M322.6,430.5c-4.6,4.1-9.8,5.6-15,5.6c-9.5,0-16.5-5-16.5-15.1c0-16.1,12.8-21.4,22.7-21.4
			c4.7,0,8.8,0.8,12.1,2.9l-2.4,10.8h-8.4l0.8-4.6c-1.3-0.4-2.9-0.5-3.7-0.5c-8,0-11.2,6-11.2,11.3c0,5,3.2,7.4,8.3,7.4
			c2.5,0,5.5-0.6,8.5-3L322.6,430.5z"/>
	</g>
	<g>
		<defs>
			<path id="SVGID_13_" d="M311.2,383.1c4.4-17.2,17.5-23.3,26.5-23.1c9,0.3,17.6,6.8,13.2,24.1c-4.4,17.2-17.9,23.9-26.6,23.6
				C315.4,407.7,306.7,400.3,311.2,383.1z M335.6,383.9c2-7.4,5.9-20.8,1.5-21c-4.3-0.2-7.9,11-10.5,20.5
				c-2.5,9.6-5.8,21.5-1.7,21.7C329,405.2,333.1,393.4,335.6,383.9z"/>
		</defs>
		<clipPath id="SVGID_14_">
			<use xlink:href="#SVGID_13_"  style="overflow:visible;"/>
		</clipPath>
		<path class="st18" d="M334,386.2h14.2l-7.1,40.5h4.2l-1.5,8.6h-18.7l1.5-8.6h4.8l5.6-32h-4.5L334,386.2z"/>
	</g>
	<g>
		<defs>
			<path id="SVGID_15_" d="M376.6,392.6l6-17.7c2.1-6.3,1.3-7.5,0.2-7.5c-2.4,0-10.2,9.1-16,27.2l-3.7,12.2h-14.6l11.4-36.6
				c1.7-5.7-0.4-7.4-2.4-8l0.5-1.5h19.2l-4.9,15.9c6.5-11.8,12.8-16.5,18.6-16.5c6.1,0,9.4,5.4,6.8,13.2l-6.5,19.7
				c-1.8,5.6-1.2,7.7,0,7.7c1.1,0,3.4-1.6,7.2-8.4l1,0.8c-3.5,8.2-9.8,14.8-16.5,14.8C376.5,407.8,373.2,402.6,376.6,392.6z"/>
		</defs>
		<clipPath id="SVGID_16_">
			<use xlink:href="#SVGID_15_"  style="overflow:visible;"/>
		</clipPath>
		<path class="st19" d="M388.9,426.5h4.8l-1.5,8.8H380l-0.2-4.3c-4.5,3.9-9,4.9-12.3,5c-12.7,0-14.4-7.8-12.6-17.6l1.7-9.5h-4.5
			l1.5-8.3h14.2l-3.2,17.7c-0.8,4.8-0.6,8.3,6.7,8.3c4.8-0.1,8.6-4.1,9.5-8.9l1.5-8.8h-5.2l1.5-8.3h14.9L388.9,426.5z"/>
	</g>
</g>
</svg>
