<?xml version="1.0" encoding="utf-8"?>
<!-- Generator: Adobe Illustrator 19.0.0, SVG Export Plug-In . SVG Version: 6.00 Build 0)  -->
<svg version="1.1" id="Calque_1" xmlns="http://www.w3.org/2000/svg" xmlns:xlink="http://www.w3.org/1999/xlink" x="0px" y="0px"
	 viewBox="-11 340 589 114" style="enable-background:new -11 340 589 114;" xml:space="preserve">
<style type="text/css">
	.st0{display:none;}
	.st1{display:inline;}
	.st2{fill:#EBFFAA;}
	.st3{display:inline;fill:#E90052;}
	.st4{font-family:'DentonCondensedTest-BlackItalic';}
	.st5{font-size:90.7667px;}
	.st6{display:inline;fill:#3AF9BA;}
	.st7{font-family:'NexaSlabHeavyOblique';}
	.st8{font-size:70.1261px;}
	.st9{enable-background:new    ;}
	.st10{fill:#E90052;}
	.st11{fill:#3AF9BA;}
	.st12{clip-path:url(#SVGID_2_);fill:#231F20;}
	.st13{clip-path:url(#SVGID_4_);fill:#231F20;}
</style>
<g id="Sauvegarde" class="st0">
	<g id="Calque_5" class="st1">
		<rect x="175.2" y="382" class="st2" width="392.1" height="1.8"/>
		<rect x="-2.9" y="418.7" class="st2" width="201.4" height="1.8"/>
	</g>
	<text transform="matrix(1 0 0 1 -0.3883 406.7443)" class="st3 st4 st5">Laser</text>
	<text transform="matrix(1 0 0 1 153.0542 435.3096)" class="st6 st7 st8">Welding</text>
</g>
<g id="Sauvegarde_1_">
	<g id="Calque_5_1_">
		<rect x="175.2" y="382" class="st2" width="392.1" height="1.8"/>
		<rect x="-2.9" y="418.7" class="st2" width="176.1" height="1.8"/>
	</g>
	<g class="st9">
		<path class="st10" d="M2.4,396.8l13.9-45.4c2-6.5-1.2-7.8-3.4-8.4l0.5-1.5h26.8l-0.5,1.5c-2.4,0.7-6,2.2-7.9,8.4l-16.1,52.5
			l2.6-0.1c12-0.5,19.3-8.7,23.1-14.9l1.5,0.6l-6,15.6l-0.6,1.6H-5.6l0.5-1.5C-3,404.5,0.4,403.2,2.4,396.8z"/>
		<path class="st10" d="M44.9,395.3c0-15,11.3-35.3,25.1-35.2c4.1,0,6.3,1.8,7.4,3.7l12-3.1h3.1L82,392.9c-0.9,3-2.1,7.7,0,7.7
			c1.2,0,3.5-2,7.2-8.4l1,0.8c-3.5,8.2-9.8,14.8-16.5,14.8c-6,0-8-4.7-7.3-10.7c-3.9,7.7-8.2,10.7-12.8,10.7
			C48,407.8,44.9,402.9,44.9,395.3z M69.9,385.3l0.8-2.5l0.1-0.4l4.6-14.3c0.6-2.7-0.4-4-1.9-4c-3,0-6.7,4.5-11,17.6
			c-1.9,5.9-5.8,18.4-1.5,18.4C62.7,400.1,65.9,397,69.9,385.3z"/>
		<path class="st10" d="M88.5,403.2l4.4-13h0.9c1.5,3.8,3,7.4,4.7,9.9c2.1,3.2,4.4,4.9,6.6,4.8c1.9,0,4-1.2,4.1-3.8
			c0.2-4.3-5.4-10.2-9-15.6c-3.4-5.2-4.4-8.2-4.2-11.6c0.3-8.2,7.4-13.8,16.9-13.8c4.2,0,9.1,1.1,13.7,3.7l-4.4,12.5h-0.8
			c-0.7-3-1.7-5.8-2.7-7.8c-1.9-3.5-4.2-5.6-6.7-5.6c-1.9,0-4.1,1.2-4.1,3.7c0,3.9,5.3,9.3,9,15.2c2.7,4.5,3.9,8,3.5,12.3
			c-0.7,7.5-6.4,13.7-16.2,13.7C98.6,407.8,93,405.8,88.5,403.2z"/>
		<path class="st10" d="M126.6,380.8c5.1-13.9,15.8-20.6,25.5-20.6c8,0,14.2,4.7,12,12.2c-2.4,8.4-12.8,12-24.4,13.4
			c-1.5,9,1.2,14.2,6,14.3c3.2,0.2,8.3-1.9,12.6-9.3l1,0.7c-5.4,12.1-14.1,16.3-20.6,16.3C127.4,407.8,120.9,396.1,126.6,380.8z
			 M152.6,369.9c1-3.2,1.6-7-0.8-7c-2.7,0-6.8,5.5-9.8,13.8c-0.9,2.5-1.5,4.7-2,6.8C147.7,381.6,151,375.3,152.6,369.9z"/>
		<path class="st10" d="M167.7,362.2l0.5-1.5h19.1l-5.2,17.1c5.4-12.7,12.4-19.6,20.8-17.3l-6.2,13.5h-0.8
			c-5.1-3.4-12.8,1.5-18.7,19.8l-4,13h-14.5l11.4-36.6C171.8,364.5,169.7,362.7,167.7,362.2z"/>
	</g>
	<g class="st9">
		<path class="st11" d="M210.4,435.3h-10.9l-3.6-15.7l-2.2-11.4l-5.9,11.4l-8.9,15.6h-10.7l-6.3-39.7h-5l1.7-9.4h21.8l-1.7,9.4h-5.1
			l3.2,24.9l17.1-32.3h7l5.9,32.3l11.6-24.9h-5.8l1.7-9.4h22.1l-1.7,9.4h-4.6L210.4,435.3z"/>
		<path class="st11" d="M262.3,430.8c-4.5,3.7-11,5.5-16.1,5.5c-11.6,0-16.3-6.6-16.3-15.1c0-12.8,9.3-21.7,22.3-21.7
			c10.9,0,17.8,6.1,13,21.8h-25.6c-0.1,3.5,2,6.1,8.4,6.1c2.8,0,7-1.1,9.7-3L262.3,430.8z M257.5,413.9c0.9-4.3-2.4-6-6.7-6
			c-4.5,0-8.4,2-10,6H257.5z"/>
		<path class="st11" d="M275.9,386.2h14.2l-7.1,40.5h4.2l-1.5,8.6H267l1.5-8.6h4.8l5.6-32h-4.5L275.9,386.2z"/>
		<path class="st11" d="M334.7,426.6l-1.5,8.7h-12.9l-0.6-4.6c-3.6,3.4-7.4,5.2-12.6,5.2c-8.6,0-14.1-5-14.1-14.3
			c0-14.4,10-21.8,21.2-21.8c3.9,0,7.9,1,9.9,4.2l1.7-9.4H321l1.5-8.3h14.7l-7.2,40.3H334.7z M303.2,419.5c0,4.6,3,7.2,7.3,7.2
			c5,0,11.2-3,11.2-10.9c0-6-4.5-7.2-7.6-7.2C308.6,408.6,303.2,411.9,303.2,419.5z"/>
		<path class="st11" d="M358.4,400.5l-4.6,26.3h4l-1.5,8.6h-18.3l1.5-8.6h4.4l3.1-17.9h-4.3l1.5-8.4H358.4z M349.3,392.2
			c0-4.1,3.6-6.4,6.7-6.4c2.8,0,5,1.7,5,4.8c0,4-3.6,6.4-6.9,6.4C351.6,396.9,349.3,395.1,349.3,392.2z"/>
		<path class="st11" d="M377.6,426.6h5.1l-1.5,8.7h-19.8l1.5-8.7h5.1l3.1-17.7h-4.8l1.5-8.5h13.5l0.1,3.6c3.8-3.2,7.8-4,10.5-4
			c9.5,0,14,4.5,11.9,16.9l-1.7,9.7h5l-1.5,8.7h-18.6l1.5-8.7h3.9l1.7-9.6c0.6-3.7,0.8-7.9-5.4-7.9c-4.8-0.1-8.5,3.2-9.4,8.5
			L377.6,426.6z"/>
		<path class="st11" d="M425.2,453.8c-10.8,0-17.1-5.1-15.3-14.5h9.8c-0.4,3.7,2.9,5.7,7.5,5.7c5.8,0,9.4-3.2,10.5-9.4l0.7-3.6
			c-3.3,3.7-7.5,4.3-11.4,4.5c-9.2,0-15.3-5.5-15.3-14.9c0-13.2,9.8-21.3,21.1-21.3c4.1,0,8.3,1.1,10.5,4.7l1.5-4.5h13.3l-1.5,8.5
			h-4.4l-4.7,26.7C445.2,448.9,437.5,453.8,425.2,453.8z M421.8,419.7c0,4.5,3,8.1,7.7,8.1c7.2,0,11.7-5.3,11.7-11
			c0-4.4-2.9-7.6-8.2-7.6C428.2,409.2,421.8,412.5,421.8,419.7z"/>
	</g>
</g>
<g id="Calque_2">
	<g>
		<defs>
			<path id="SVGID_1_" d="M167.7,362.2l0.5-1.5h19.1l-5.2,17.1c5.4-12.7,12.4-19.6,20.8-17.3l-6.2,13.5h-0.8
				c-5.1-3.4-12.8,1.5-18.7,19.8l-4,13h-14.5l11.4-36.6C171.8,364.5,169.7,362.7,167.7,362.2z"/>
		</defs>
		<clipPath id="SVGID_2_">
			<use xlink:href="#SVGID_1_"  style="overflow:visible;"/>
		</clipPath>
		<path class="st12" d="M210.4,435.3h-10.9l-3.6-15.7l-2.2-11.4l-5.9,11.4l-8.9,15.6h-10.7l-6.3-39.7h-5l1.7-9.4h21.8l-1.7,9.4h-5.1
			l3.2,24.9l17.1-32.3h7l5.9,32.3l11.6-24.9h-5.8l1.7-9.4h22.1l-1.7,9.4h-4.6L210.4,435.3z"/>
	</g>
	<g>
		<defs>
			<path id="SVGID_3_" d="M126.6,380.8c5.1-13.9,15.8-20.6,25.5-20.6c8,0,14.2,4.7,12,12.2c-2.4,8.4-12.8,12-24.4,13.4
				c-1.5,9,1.2,14.2,6,14.3c3.2,0.2,8.3-1.9,12.6-9.3l1,0.7c-5.4,12.1-14.1,16.3-20.6,16.3C127.4,407.8,120.9,396.1,126.6,380.8z
				 M152.6,369.9c1-3.2,1.6-7-0.8-7c-2.7,0-6.8,5.5-9.8,13.8c-0.9,2.5-1.5,4.7-2,6.8C147.7,381.6,151,375.3,152.6,369.9z"/>
		</defs>
		<clipPath id="SVGID_4_">
			<use xlink:href="#SVGID_3_"  style="overflow:visible;"/>
		</clipPath>
		<path class="st13" d="M210.4,435.3h-10.9l-3.6-15.7l-2.2-11.4l-5.9,11.4l-8.9,15.6h-10.7l-6.3-39.7h-5l1.7-9.4h21.8l-1.7,9.4h-5.1
			l3.2,24.9l17.1-32.3h7l5.9,32.3l11.6-24.9h-5.8l1.7-9.4h22.1l-1.7,9.4h-4.6L210.4,435.3z"/>
	</g>
</g>
</svg>
