<?xml version="1.0" encoding="utf-8"?>
<!-- Generator: Adobe Illustrator 19.0.0, SVG Export Plug-In . SVG Version: 6.00 Build 0)  -->
<svg version="1.1" xmlns="http://www.w3.org/2000/svg" xmlns:xlink="http://www.w3.org/1999/xlink" x="0px" y="0px"
	 viewBox="-3 363.9 589 114" style="enable-background:new -3 363.9 589 114;" xml:space="preserve">
<style type="text/css">
	.st0{display:none;}
	.st1{display:inline;}
	.st2{fill:#EBFFAA;}
	.st3{fill:#3AF9BA;}
	.st4{fill:#E90052;}
	.st5{clip-path:url(#SVGID_2_);}
	.st6{display:none;fill:#E90052;}
	.st7{display:inline;fill:#E90052;}
	.st8{font-family:'DentonCondensedTest-BlackItalic';}
	.st9{font-size:70.1261px;}
	.st10{display:inline;fill:#3AF9BA;}
	.st11{font-family:'NexaSlabHeavyOblique';}
	.st12{clip-path:url(#SVGID_4_);fill:#231F20;}
	.st13{clip-path:url(#SVGID_6_);fill:#231F20;}
</style>
<g id="Calque_1">
	<g id="Calque_1_2_" class="st0">
		<g id="Calque_1_1_" class="st1">
			<g id="XMLID_783_">
				<g id="XMLID_849_">
					<path id="XMLID_850_" class="st2" d="M444,1134.2c1.8-3.6,5.7-3.7,8.4-2.3c2.8,1.4,4.9,4.5,3,8.2c-1.8,3.6-5.7,3.9-8.4,2.5
						C444.1,1141.1,442,1137.9,444,1134.2z M446.4,1102c4.8-9.1,15.6-9.5,25.4-4.4c8.9,4.6,15.1,13.9,9.9,23.3
						c-4.7,9.1-14.5,5.5-18.7,6.6c-1.6,0.5-2.9,0.7-4.3,3.7l-9.3-4.8c4.1-8,8.5-8,13.8-7.7c4.1,0.2,7.8,0.1,9.3-2.8
						c2.6-4.9-1.7-8.2-5.4-10.2c-6.3-3.3-10-2-11.6,1L446.4,1102z"/>
				</g>
			</g>
			<g id="XMLID_634_">
				<path id="XMLID_744_" class="st3" d="M178.1,1101.2v-1.2h24.5v1.2c-1.7,0.5-5.5,1.2-3.8,6.7l8.4,25.6l7.4-20l-1.7-5.5
					c-1.6-5-4.3-6.1-6.2-6.7v-1.2h24.6v1.2c-2.2,0.6-5.4,1.4-3.8,6.7l8.1,25.6l9.1-25.6c1.7-4.7-1.2-6.1-3.6-6.6v-1.2h14.5v1.2
					c-2.6,0.6-6.1,1.6-7.8,6.6l-15.3,43h-5.7l-10.8-33.3l-12.1,33.3h-5.7l-14-43C182.6,1102.9,180,1101.9,178.1,1101.2z"/>
				<path id="XMLID_746_" class="st3" d="M246,1133c0-11.9,7-18.6,17.8-18.6c12.7,0,17.2,9.8,17,18.1h-21.1
					c0.7,9.2,5.2,12.6,10,12.6c3.2,0,6.5-1.4,9.9-4.9l1,0.2c-1.4,4.5-7,11.5-16.3,11.5C255.8,1151.8,246,1146.2,246,1133z
					 M267.9,1130c0.1-4.4-0.2-13-4-13c-4,0-4.2,9.6-4.2,13H267.9z"/>
				<path id="XMLID_749_" class="st3" d="M284.7,1143.6v-35.4c0-4.8-2.9-5.3-4.6-5.5l-0.1-1.1l18.1-2.9v45c0,4.8,2.9,5.8,4.6,6.3
					v1.1h-22.5v-1.3C281.9,1149.3,284.7,1148.4,284.7,1143.6z"/>
				<path id="XMLID_751_" class="st3" d="M325,1146.8c-2.2,2.6-5.5,4.5-9.8,4.5c-7,0-13.5-5.3-13.5-18.1c0-12.8,7.7-19.2,16.5-19.2
					c2.2,0,4.4,0.4,6.5,1.2v-7.2c0-4.8-2.9-5.3-4.6-5.5l-0.1-1.1l18.3-2.9v45c0,4.8,2.9,5.8,4.6,6.3v1.1h-14.5
					C326.5,1149.7,325.4,1148.4,325,1146.8z M321.5,1145.8c1.2,0,2.4-0.6,3.3-1.5v-17.6c0-6.1-0.8-9.8-4.1-9.8
					c-2.7,0-4.9,2.5-4.9,11.8C315.8,1138.6,316.9,1145.8,321.5,1145.8z"/>
				<path id="XMLID_760_" class="st3" d="M347,1143.6v-21.4c0-4.8-2.9-5.8-4.6-6.3v-1.1h17.8v28.7c0,4.8,2.9,5.8,4.6,6.3v1.1h-22.4
					v-1.1C344.2,1149.3,347,1148.4,347,1143.6z M352.5,1096.7c4,0,7.4,3.2,7.4,7.2s-3.4,7.2-7.4,7.2c-3.9,0-7.4-3.2-7.4-7.2
					S348.4,1096.7,352.5,1096.7z"/>
				<path id="XMLID_763_" class="st3" d="M391.1,1143.6v-15.5c0-4.2-2-5.5-4.4-5.5c-1.7-0.1-3.4,0.5-4.8,1.2v19.8
					c0,4.8,2.2,5.8,3.5,6.3v1.1H364v-1.2c1.7-0.5,4.6-1.4,4.6-6.3v-21.4c0-4.8-2.9-5.8-4.6-6.3v-1h17.9v6.6c1.5-3.4,5.2-7,11.1-7
					c6.3,0,11.4,4.2,11.4,11.7v17.4c0,4.8,2.9,5.8,4.6,6.3v1.1h-21.4v-1.1C388.9,1149.3,391.1,1148.4,391.1,1143.6z"/>
				<path id="XMLID_765_" class="st3" d="M409.5,1159.6c0-3.3,3.2-5.3,6.3-6c-5.5-1.7-6.5-5.2-6.5-7.3c0-3.9,3.3-6.8,8.3-8.3
					c-4.1-2.2-7.2-5.8-7.2-10.8c0-8.7,8.8-12.8,16.4-12.8c2.9,0,6.1,0.6,8.8,2c2-5.3,7.2-7.3,11.6-6.3l-1.1,8h-0.5
					c-2.6-1.6-5.1-1.7-7.8-0.5c3.3,2.2,5.5,5.3,5.5,9.7c0,8.7-9,13-16.6,13c-2.4,0-4.7-0.4-7.1-1.2c-1.2,0.8-2.2,1.7-2.2,2.8
					c0,1.6,2.4,2.4,6.5,2.5l10.8,0.1c6.2,0.1,11.3,3.8,11.3,10.2c0,8-7.7,12.5-19.6,12.5C419.6,1167,409.5,1165.6,409.5,1159.6z
					 M429,1164c5.7,0,9.7-2.2,9.7-5.4c0-2.9-3.1-3.7-6.8-3.7l-8.7-0.1c-1.4,0-2.8-0.1-4-0.3c-1,0.8-1.2,2.1-1.2,2.9
					C417.8,1161.1,422.3,1164,429,1164z M426.7,1137.7c3.1,0,3.6-6.3,3.6-10.4c0-4.2-0.5-10.4-3.6-10.4s-3.5,6.3-3.5,10.4
					C423.1,1131.3,423.6,1137.7,426.7,1137.7z"/>
			</g>
			<g>
				<path class="st4" d="M126.9,1099.2l-3.3,18.8H112l0.8-7.2h-4.6l-4.6,26.1h5.7l-1.9,10.8H82.1l1.9-10.8h5.8l4.6-26.1h-4.7
					L88,1118H76.4l3.3-18.8L126.9,1099.2L126.9,1099.2z"/>
				<path class="st4" d="M129.6,1122.9h-4.8l1.7-9.5H144l-3.7,21.1c-0.7,4.2,2,4,5.1,3.4l-1.7,9.4c-11.4,3.1-18.7,0.8-16.3-12.6
					L129.6,1122.9z M140.7,1097.3c3.1,0,6,1.9,6,5.6c0,4.9-4.5,7.6-8.3,7.6c-3.4,0-6.3-1.9-6.3-5.6
					C132.1,1100,136.5,1097.3,140.7,1097.3z"/>
				<path class="st4" d="M194.7,1122.7H190l-4.4,24.8c-2.1,11.8-9.9,17.4-21.9,17.4c-10.7,0-18.2-4.6-16.9-14.7l12.7,0.1
					c0,2.9,2.4,4.2,5.4,4.2c4.2,0,7.4-2.6,8.2-6.7l0.8-4.5c-3.4,3.7-8.5,4.6-12.3,4.4c-8.5-0.5-13-5.9-13-13.9
					c0-11.9,8.7-21.2,20.2-21.2c4.9,0,8.1,1.7,9.3,4.4l1.3-3.7c5.6,0,11.1,0,16.7,0L194.7,1122.7z M161.7,1131.7c0,3.7,2.4,6,5.7,6
					c4.9,0,8.6-4,8.6-8.7c0-3.7-2-6-6-6C165.7,1122.9,161.7,1126.2,161.7,1131.7z"/>
			</g>
		</g>
		<g id="Calque_2" class="st1">
			<g>
				<g>
					<g>
						<defs>
							<path id="SVGID_1_" d="M178.1,1101.2v-1.2h24.5v1.2c-1.7,0.5-5.5,1.2-3.8,6.7l8.4,25.6l7.4-20l-1.7-5.5
								c-1.6-5-4.3-6.1-6.2-6.7v-1.2h24.6v1.2c-2.2,0.6-5.4,1.4-3.8,6.7l8.1,25.6l9.1-25.6c1.7-4.7-1.2-6.1-3.6-6.6v-1.2h14.5v1.2
								c-2.6,0.6-6.1,1.6-7.8,6.6l-15.3,43h-5.7l-10.8-33.3l-12.1,33.3h-5.7l-14-43C182.6,1102.9,180,1101.9,178.1,1101.2z"/>
						</defs>
						<clipPath id="SVGID_2_">
							<use xlink:href="#SVGID_1_"  style="overflow:visible;"/>
						</clipPath>
						<path class="st5" d="M194.7,1122.7H190l-4.4,24.8c-2.1,11.8-9.9,17.4-21.9,17.4c-10.7,0-18.2-4.6-16.9-14.7l12.7,0.1
							c0,2.9,2.4,4.2,5.4,4.2c4.2,0,7.4-2.6,8.2-6.7l0.8-4.5c-3.4,3.7-8.5,4.6-12.3,4.4c-8.5-0.5-13-5.9-13-13.9
							c0-11.9,8.7-21.2,20.2-21.2c4.9,0,8.1,1.7,9.3,4.4l1.3-3.7c5.6,0,11.1,0,16.7,0L194.7,1122.7z M161.7,1131.7
							c0,3.7,2.4,6,5.7,6c4.9,0,8.6-4,8.6-8.7c0-3.7-2-6-6-6C165.7,1122.9,161.7,1126.2,161.7,1131.7z"/>
					</g>
				</g>
			</g>
		</g>
	</g>
	<g id="Calque_3">
		<path class="st6" d="M236.6,779.1l5.3-15.7c1.9-5.6,1.1-6.7,0.2-6.7c-2.1,0-9,8.1-14.2,24.2l-3.3,10.8h-13l10.2-32.5
			c1.5-5.1-0.3-6.6-2.1-7.1l0.4-1.3h17l-4.4,14.1c5.8-10.5,11.4-14.7,16.5-14.7c5.4,0,8.4,4.8,6,11.7l-5.8,17.5c-1.6,5-1,6.9,0,6.9
			s3-1.5,6.4-7.5l0.9,0.7c-3.1,7.3-8.7,13.1-14.7,13.1C236.5,792.7,233.6,788,236.6,779.1z"/>
	</g>
</g>
<g id="Sauvegarde" class="st0">
	<g id="Calque_5" class="st1">
		<rect x="211.9" y="400.8" class="st2" width="360.1" height="1.8"/>
		<rect x="1.8" y="437.5" class="st2" width="201.4" height="1.8"/>
	</g>
	<text transform="matrix(1 0 0 1 -9.1041 417.1768)" class="st7 st8 st9">Welding</text>
	<text transform="matrix(1 0 0 1 188.3333 456.1768)" class="st10 st11 st9">Equipment</text>
</g>
<g id="Calque_3_1_" class="st0">
	<g id="Calque_5_-_copie" class="st1">
		<rect x="211.9" y="400.8" class="st2" width="360.1" height="1.8"/>
		<rect x="1.8" y="437.5" class="st2" width="201.4" height="1.8"/>
	</g>
	<g class="st1">
		<path class="st4" d="M0.2,367.9l0.3-1.2H20l-0.4,1.2c-2,0.6-4.8,1.6-4.9,6.4L14,400.6l12-20.3l0.1-5.8c0.1-5-1.8-6.2-3.1-6.7
			l0.4-1.2h19.5l-0.3,1.2c-2,0.6-5,1.9-5,6.7l-0.8,26.2l14.9-26.4c2.7-4.8,0.9-6-0.9-6.5l0.3-1.1h11.7l-0.4,1.2
			c-2,0.5-5.3,1.5-8.1,6.5l-24.1,42.8h-4.5l0.5-32.5L7,417.2H2.5l0.7-42.9C3.3,369.6,1.6,368.3,0.2,367.9z"/>
		<path class="st4" d="M48.3,397.1c3.9-10.7,12.2-15.9,19.7-15.9c6.2,0,10.9,3.6,9.3,9.4c-1.8,6.5-9.9,9.3-18.9,10.4
			c-1.1,6.9,0.9,10.9,4.6,11.1c2.5,0.1,6.5-1.5,9.7-7.2l0.8,0.6c-4.2,9.3-10.9,12.6-15.9,12.6C49,418,43.9,409,48.3,397.1z
			 M68.5,388.7c0.8-2.5,1.3-5.4-0.6-5.4c-2.1,0-5.3,4.3-7.6,10.7c-0.7,1.9-1.2,3.6-1.5,5.3C64.7,397.8,67.2,392.9,68.5,388.7z"/>
		<path class="st4" d="M76.8,406.2l10.1-31.8c1.3-4.1-0.8-5-2.1-5.3l0.3-1.1l15.7-2.4l-12.9,40.9c-1.4,4.3-0.9,6,0,6
			c0.8,0,2.6-1.3,5.5-6.5l0.8,0.6c-2.7,6.3-7.4,11.4-12.6,11.4C77,418,74.3,414,76.8,406.2z"/>
		<path class="st4" d="M112.4,409.8c-3,5.9-6.4,8.2-10,8.2c-6.8,0-8.8-8.8-5.3-19.2c4.3-12.9,13.5-18.4,19.4-17.6
			c2.2,0.3,3.4,1.3,4.1,2.4l3-9.2c1.1-4.2-0.8-5-2-5.3l0.2-1.1l15.8-2.4l-13.3,40.9c-1.3,4.3-0.9,6,0,6s2.7-1.5,5.5-6.5l0.8,0.6
			c-2.7,6.3-7.6,11.4-12.8,11.4C114,418,111.7,415.3,112.4,409.8z M114.7,401.9l5.4-16.4c-0.4-0.7-1-1-1.9-1
			c-2.5,0-5.4,3.2-8.8,13.3c-2.5,7.4-3.9,13.8-1.3,14.2C109.3,412.1,111.7,410.2,114.7,401.9z"/>
		<path class="st4" d="M132.8,406.2l5.6-18c1.1-4.2-0.7-5-2-5.5l0.3-1.1h15.1l-7.8,24.9c-1.4,4.3-0.9,6,0,6c0.8,0,2.6-1.3,5.5-6.5
			l0.7,0.6c-2.7,6.3-7.4,11.4-12.7,11.4C132.7,418,130.3,414,132.8,406.2z M147.7,365.9c3.4,0,6.1,2.9,6,6.5
			c-0.1,3.5-2.7,6.4-6.2,6.4c-3.4,0-6-2.7-6-6.3S144.3,365.9,147.7,365.9z"/>
		<path class="st4" d="M171.3,406.2l4.6-13.7c1.6-4.8,1-5.8,0.1-5.8c-1.8,0-7.9,7-12.3,21l-2.9,9.4h-11.3l8.8-28.3
			c1.3-4.4-0.3-5.8-1.8-6.2l0.4-1.1h14.8l-3.8,12.3c5-9.1,9.9-12.8,14.4-12.8c4.7,0,7.3,4.1,5.3,10.2l-5,15.2c-1.4,4.3-0.9,6,0,6
			c0.8,0,2.6-1.3,5.5-6.5l0.8,0.6c-2.7,6.3-7.6,11.4-12.8,11.4C171.3,418,168.7,414,171.3,406.2z"/>
		<path class="st4" d="M185.6,423.3c1.2-4.2,7.1-4.8,11.6-2l0.2,0.6c-1.8,0.6-2.8,1.8-3.1,3.1c-0.9,3.4,2.3,5.3,6.7,5.4
			c3.3,0.1,7.2-1.3,8.2-4.3c0.9-2.6-0.5-4.8-4.2-5.6l-9-1.9c-7.7-1.6-7.9-6-7.1-8.4c1.1-3.1,3.8-4.6,6.9-5.6
			c-2.9-2.2-4.4-6.2-2.9-11.3c2.4-8.1,10.4-12.1,16.8-12.1c4.1,0.1,7.6,1.7,9.5,4.5c1.8-3.3,5-5.6,8.5-4.3l-2.5,6.4
			c-1.3-0.8-3.2-1.3-5.1-0.3c0.8,2.1,0.9,4.6,0.1,7.4c-2.5,8.6-11.6,12-17.4,12c-2,0-3.7-0.4-5.3-1.2c-0.6,0.4-0.8,0.8-1,1.2
			c-0.3,1.1,0.5,1.9,3.4,2.5l9,1.9c8.3,1.8,9.5,7.6,7.8,12.3c-2.2,5.9-8.9,9.3-16.8,9.1C192.4,432.6,183.8,429.4,185.6,423.3z
			 M209.4,394.1c1.3-4.5,2.9-10.8,0.4-10.8c-2.5,0-4.8,5.9-6.2,10.7c-1.4,4.7-3,10.7-0.4,10.7C205.6,404.8,207.9,399.2,209.4,394.1z
			"/>
	</g>
	<g class="st1">
		<path class="st3" d="M222.8,446.5l1.8-7.3h9.1l-3,17h-42.3l1.7-9.5h5.5l5.3-30.3h-5.1l1.6-9.3h40.8l-2.9,16.6h-8.8l0.8-7.2h-16.3
			l-1.8,10.1h14.9l-1.6,9.3h-14.9l-1.9,10.6H222.8z"/>
		<path class="st3" d="M280.3,421.3l-7.4,42.1h4.1l-1.5,8.7h-18.6l1.5-8.7h5l1.9-10.6c-3.3,3-7.4,4.4-12.1,4.4
			c-9.6,0-14.6-6-14.6-14.7c0-12.3,8.3-21.5,20.8-21.6c5.3,0.1,8.4,1.6,10.4,5.1l1.3-4.7H280.3z M266.9,437c0-4.8-3.3-7.2-7.5-7.2
			c-6.2,0-10.5,5-10.5,10.7c0,4.5,2.7,7.3,7.5,7.3C260.4,447.8,266.9,444.5,266.9,437z"/>
		<path class="st3" d="M321.4,447.4h4.8l-1.5,8.8h-12.2l-0.2-4.3c-4.5,3.9-9,4.9-12.3,5c-12.7,0-14.4-7.8-12.6-17.6l1.7-9.5h-4.5
			l1.5-8.3h14.2l-3.2,17.7c-0.8,4.8-0.6,8.3,6.7,8.3c4.8-0.1,8.6-4.1,9.5-8.9l1.5-8.8h-5.2l1.5-8.3h14.9L321.4,447.4z"/>
		<path class="st3" d="M350.1,421.3l-4.6,26.3h4l-1.5,8.6h-18.3l1.5-8.6h4.4l3.1-17.9h-4.3l1.5-8.4H350.1z M341.1,413
			c0-4.1,3.6-6.4,6.7-6.4c2.8,0,5,1.7,5,4.8c0,4-3.6,6.4-6.9,6.4C343.3,417.8,341.1,416,341.1,413z"/>
		<path class="st3" d="M356.8,429.8l1.5-8.5h13.8l-0.3,5.2c3.5-3.4,7.6-5.6,13-5.6c8.9,0,14,5.3,14,14.3c0,13.3-8.2,22-21.8,22
			c-3.5,0-7.4-1.1-10.1-4.6l-1.9,10.7h5l-1.5,8.8h-18.8l1.5-8.8h4.3l5.9-33.4H356.8z M388.4,437.4c0-4.5-2.6-7-7.2-7
			c-6.7,0-10.6,5.5-10.6,10.4c0,3.7,2.1,7.6,7.1,7.6C384,448.4,388.4,443.9,388.4,437.4z"/>
		<path class="st3" d="M400.6,456.2l1.5-8.7h5l3.1-17.5h-4.6l1.5-8.6h13.7l0.4,3.7c2.5-3.2,6-4.3,9.3-4.3c4.8,0,7.9,2,8.6,6
			c3.4-4,7.4-5.9,12.6-5.9c11,0,13.2,5.9,11.4,16.1l-1.8,10.4h4.9l-1.5,8.7h-18.9l1.5-8.7h4.4l1.8-10.2c0.6-3.6,0.5-7.2-4.3-7.2
			c-4.7,0-7.2,3.9-7.9,7.6l-1.7,9.7h4.8l-1.5,8.7h-19.2l1.5-8.7h4.8l1.7-9.7c0.8-5-1-7.7-4.7-7.7c-4.1,0-7.1,2.6-8,7.7l-1.7,9.7h4.8
			l-1.5,8.7H400.6z"/>
		<path class="st3" d="M503.4,451.7c-4.5,3.7-11,5.5-16.1,5.5c-11.6,0-16.3-6.6-16.3-15.1c0-12.8,9.3-21.7,22.3-21.7
			c10.9,0,17.8,6.1,13,21.8h-25.6c-0.1,3.5,2,6.1,8.4,6.1c2.8,0,7-1.1,9.7-3L503.4,451.7z M498.6,434.8c0.9-4.3-2.4-6-6.7-6
			c-4.5,0-8.4,2-10,6H498.6z"/>
		<path class="st3" d="M525.1,447.5h5.1l-1.5,8.7h-19.8l1.5-8.7h5.1l3.1-17.7h-4.8l1.5-8.5h13.5l0.1,3.6c3.8-3.2,7.8-4,10.5-4
			c9.5,0,14,4.5,11.9,16.9l-1.7,9.7h5l-1.5,8.7h-18.6l1.5-8.7h3.9l1.7-9.6c0.6-3.7,0.8-7.9-5.4-7.9c-4.8-0.1-8.5,3.2-9.4,8.5
			L525.1,447.5z"/>
		<path class="st3" d="M578.2,412.1l-1.7,9.6h9L584,430h-9.1l-2.4,13.6c-0.7,4.3,2.9,5.3,7.4,3.6l0.8,8.1c-3.6,1.3-5.5,1.5-8.6,1.5
			c-6.3-0.1-10.9-3.7-9.2-13.1l2.4-13.6h-6l1.5-8.3h6l1.5-8.6L578.2,412.1z"/>
	</g>
	<g id="Calque_4" class="st1">
		<g>
			<defs>
				<path id="SVGID_3_" d="M185.6,423.3c1.2-4.2,7.1-4.8,11.6-2l0.2,0.6c-1.8,0.6-2.8,1.8-3.1,3.1c-0.9,3.4,2.3,5.3,6.7,5.4
					c3.3,0.1,7.2-1.3,8.2-4.3c0.9-2.6-0.5-4.8-4.2-5.6l-9-1.9c-7.7-1.6-7.9-6-7.1-8.4c1.1-3.1,3.8-4.6,6.9-5.6
					c-2.9-2.2-4.4-6.2-2.9-11.3c2.4-8.1,10.4-12.1,16.8-12.1c4.1,0.1,7.6,1.7,9.5,4.5c1.8-3.3,5-5.6,8.5-4.3l-2.5,6.4
					c-1.3-0.8-3.2-1.3-5.1-0.3c0.8,2.1,0.9,4.6,0.1,7.4c-2.5,8.6-11.6,12-17.4,12c-2,0-3.7-0.4-5.3-1.2c-0.6,0.4-0.8,0.8-1,1.2
					c-0.3,1.1,0.5,1.9,3.4,2.5l9,1.9c8.3,1.8,9.5,7.6,7.8,12.3c-2.2,5.9-8.9,9.3-16.8,9.1C192.4,432.6,183.8,429.4,185.6,423.3z
					 M209.4,394.1c1.3-4.5,2.9-10.8,0.4-10.8c-2.5,0-4.8,5.9-6.2,10.7c-1.4,4.7-3,10.7-0.4,10.7
					C205.6,404.8,207.9,399.2,209.4,394.1z"/>
			</defs>
			<clipPath id="SVGID_4_">
				<use xlink:href="#SVGID_3_"  style="overflow:visible;"/>
			</clipPath>
			<path class="st12" d="M222.8,446.5l1.8-7.3h9.1l-3,17h-42.3l1.7-9.5h5.5l5.3-30.3h-5.1l1.6-9.3h40.8l-2.9,16.6h-8.8l0.8-7.2
				h-16.3l-1.8,10.1h14.9l-1.6,9.3h-14.9l-1.9,10.6H222.8z"/>
		</g>
	</g>
</g>
<g id="Calque_7">
	<g id="Calque_5_-_copie_2">
		<rect x="211.9" y="400.8" class="st2" width="360.1" height="1.8"/>
		<rect x="1.8" y="437.5" class="st2" width="197.5" height="1.8"/>
	</g>
	<g>
		<path class="st4" d="M0.2,367.9l0.3-1.2H20l-0.4,1.2c-2,0.6-4.8,1.6-4.9,6.4L14,400.6l12-20.3l0.1-5.8c0.1-5-1.8-6.2-3.1-6.7
			l0.4-1.2h19.5l-0.3,1.2c-2,0.6-5,1.9-5,6.7l-0.8,26.2l14.9-26.4c2.7-4.8,0.9-6-0.9-6.5l0.3-1.1h11.7l-0.4,1.2
			c-2,0.5-5.3,1.5-8.1,6.5l-24.1,42.8h-4.5l0.5-32.5L7,417.2H2.5l0.7-42.9C3.3,369.6,1.6,368.3,0.2,367.9z"/>
		<path class="st4" d="M48.3,397.1c3.9-10.7,12.2-15.9,19.7-15.9c6.2,0,10.9,3.6,9.3,9.4c-1.8,6.5-9.9,9.3-18.9,10.4
			c-1.1,6.9,0.9,10.9,4.6,11.1c2.5,0.1,6.5-1.5,9.7-7.2l0.8,0.6c-4.2,9.3-10.9,12.6-15.9,12.6C49,418,43.9,409,48.3,397.1z
			 M68.5,388.7c0.8-2.5,1.3-5.4-0.6-5.4c-2.1,0-5.3,4.3-7.6,10.7c-0.7,1.9-1.2,3.6-1.5,5.3C64.7,397.8,67.2,392.9,68.5,388.7z"/>
		<path class="st4" d="M76.8,406.2l10.1-31.8c1.3-4.1-0.8-5-2.1-5.3l0.3-1.1l15.7-2.4l-12.9,40.9c-1.4,4.3-0.9,6,0,6
			c0.8,0,2.6-1.3,5.5-6.5l0.8,0.6c-2.7,6.3-7.4,11.4-12.6,11.4C77,418,74.3,414,76.8,406.2z"/>
		<path class="st4" d="M112.4,409.8c-3,5.9-6.4,8.2-10,8.2c-6.8,0-8.8-8.8-5.3-19.2c4.3-12.9,13.5-18.4,19.4-17.6
			c2.2,0.3,3.4,1.3,4.1,2.4l3-9.2c1.1-4.2-0.8-5-2-5.3l0.2-1.1l15.8-2.4l-13.3,40.9c-1.3,4.3-0.9,6,0,6s2.7-1.5,5.5-6.5l0.8,0.6
			c-2.7,6.3-7.6,11.4-12.8,11.4C114,418,111.7,415.3,112.4,409.8z M114.7,401.9l5.4-16.4c-0.4-0.7-1-1-1.9-1
			c-2.5,0-5.4,3.2-8.8,13.3c-2.5,7.4-3.9,13.8-1.3,14.2C109.3,412.1,111.7,410.2,114.7,401.9z"/>
		<path class="st4" d="M132.8,406.2l5.6-18c1.1-4.2-0.7-5-2-5.5l0.3-1.1h15.1l-7.8,24.9c-1.4,4.3-0.9,6,0,6c0.8,0,2.6-1.3,5.5-6.5
			l0.7,0.6c-2.7,6.3-7.4,11.4-12.7,11.4C132.7,418,130.3,414,132.8,406.2z M147.7,365.9c3.4,0,6.1,2.9,6,6.5
			c-0.1,3.5-2.7,6.4-6.2,6.4c-3.4,0-6-2.7-6-6.3S144.3,365.9,147.7,365.9z"/>
		<path class="st4" d="M171.3,406.2l4.6-13.7c1.6-4.8,1-5.8,0.1-5.8c-1.8,0-7.9,7-12.3,21l-2.9,9.4h-11.3l8.8-28.3
			c1.3-4.4-0.3-5.8-1.8-6.2l0.4-1.1h14.8l-3.8,12.3c5-9.1,9.9-12.8,14.4-12.8c4.7,0,7.3,4.1,5.3,10.2l-5,15.2c-1.4,4.3-0.9,6,0,6
			c0.8,0,2.6-1.3,5.5-6.5l0.8,0.6c-2.7,6.3-7.6,11.4-12.8,11.4C171.3,418,168.7,414,171.3,406.2z"/>
		<path class="st4" d="M185.6,423.3c1.2-4.2,7.1-4.8,11.6-2l0.2,0.6c-1.8,0.6-2.8,1.8-3.1,3.1c-0.9,3.4,2.3,5.3,6.7,5.4
			c3.3,0.1,7.2-1.3,8.2-4.3c0.9-2.6-0.5-4.8-4.2-5.6l-9-1.9c-7.7-1.6-7.9-6-7.1-8.4c1.1-3.1,3.8-4.6,6.9-5.6
			c-2.9-2.2-4.4-6.2-2.9-11.3c2.4-8.1,10.4-12.1,16.8-12.1c4.1,0.1,7.6,1.7,9.5,4.5c1.8-3.3,5-5.6,8.5-4.3l-2.5,6.4
			c-1.3-0.8-3.2-1.3-5.1-0.3c0.8,2.1,0.9,4.6,0.1,7.4c-2.5,8.6-11.6,12-17.4,12c-2,0-3.7-0.4-5.3-1.2c-0.6,0.4-0.8,0.8-1,1.2
			c-0.3,1.1,0.5,1.9,3.4,2.5l9,1.9c8.3,1.8,9.5,7.6,7.8,12.3c-2.2,5.9-8.9,9.3-16.8,9.1C192.4,432.6,183.8,429.4,185.6,423.3z
			 M209.4,394.1c1.3-4.5,2.9-10.8,0.4-10.8c-2.5,0-4.8,5.9-6.2,10.7c-1.4,4.7-3,10.7-0.4,10.7C205.6,404.8,207.9,399.2,209.4,394.1z
			"/>
	</g>
	<g>
		<path class="st3" d="M241,431c-2.3,12.4-11.5,24.9-29,24.9c-15,0-20.9-9.7-20.9-20.3c0-18.7,13.9-29.8,30-29.8
			C237.8,406,243.4,418.3,241,431z M219.6,415.1c-9.6,0-16,6.6-17.8,16c-1.5,8,1.6,15.2,12.1,15.2c10.2,0,15.6-8.1,16.9-15.3
			C232.2,423.7,230.2,415.1,219.6,415.1z"/>
		<path class="st3" d="M245.7,428.9l1.4-8.3h13.5l-0.3,5.1c3.4-3.3,7.4-5.5,12.7-5.5c8.7,0,13.7,5.2,13.7,13.9
			c0,13-8,21.4-21.2,21.4c-3.4,0-7.2-1.1-9.8-4.5l-1.8,10.4h4.9l-1.5,8.5h-18.3l1.5-8.5h4.2l5.7-32.5H245.7z M276.5,436.3
			c0-4.4-2.5-6.8-7-6.8c-6.5,0-10.3,5.4-10.3,10.2c0,3.6,2,7.4,6.9,7.4C272.2,447,276.5,442.7,276.5,436.3z"/>
		<path class="st3" d="M322.2,450.2c-4.4,3.6-10.7,5.3-15.7,5.3c-11.3,0-15.9-6.4-15.9-14.7c0-12.5,9-21.1,21.7-21.1
			c10.7,0,17.3,5.9,12.6,21.2H300c-0.1,3.4,1.9,5.9,8.2,5.9c2.7,0,6.8-1,9.5-2.9L322.2,450.2z M317.5,433.8c0.9-4.2-2.3-5.9-6.6-5.9
			c-4.4,0-8.2,1.9-9.7,5.9H317.5z"/>
		<path class="st3" d="M336.7,428.9h-4.4l1.5-8.3h12.5l0.3,3.2c3.1-2.9,6.6-4.1,10.2-4.1c3,0,6.4,1,8.6,3.3l-5.9,8.1
			c-1.4-1.4-3.7-2.1-5.9-2.1c-3.8,0-7.9,2.1-8.9,8.1l-1.6,9.3h4.7l-1.4,8.2H327l1.4-8.2h5.2L336.7,428.9z"/>
		<path class="st3" d="M404.6,446.4l-1.5,8.3h-12.9l0.1-3.8c-5.2,4.4-8.3,4.7-13.2,4.7c-8.3,0-13.4-5.7-13.4-14.5
			c0-10.9,7.8-20.4,20-21c4.7,0,8.7,0.5,11.3,4.3l1-3.5h12.8l-1.5,8.5H403l-3,17.1H404.6z M373.4,439.7c0,4.4,2.5,7.5,7.4,7.5
			c5.9,0,10.6-4,11.5-9.1c1-5.3-1.8-9.3-7.7-9.3C378.3,428.8,373.4,433.8,373.4,439.7z"/>
		<path class="st3" d="M429,411.7l-1.6,9.4h8.7l-1.4,8.1h-8.9l-2.3,13.2c-0.7,4.2,2.9,5.2,7.2,3.5l0.8,7.9c-3.6,1.2-5.4,1.4-8.4,1.4
			c-6.1-0.1-10.6-3.6-8.9-12.8l2.3-13.2h-5.9l1.4-8.1h5.9l1.4-8.3L429,411.7z"/>
		<path class="st3" d="M455.2,420.7l-4.5,25.6h3.9l-1.5,8.3h-17.8l1.5-8.3h4.3l3-17.4h-4.2l1.5-8.2H455.2z M446.4,412.6
			c0-4,3.5-6.2,6.6-6.2c2.7,0,4.9,1.6,4.9,4.6c0,3.9-3.5,6.2-6.7,6.2C448.6,417.3,446.4,415.5,446.4,412.6z"/>
		<path class="st3" d="M481.6,419.9c10,0,15.3,6.1,15.3,14.6c0,11.3-8.4,21-21.5,21c-9.8,0-15.2-6.1-15.2-14.6
			C460.3,429,469.1,419.9,481.6,419.9z M480.6,428.4c-6.8,0-10.7,5.1-10.8,11c-0.1,3.9,1.9,7.2,6.8,7.2c5.9,0,9.4-4.1,10.5-8.8
			C488.3,432.4,485.8,428.4,480.6,428.4z"/>
		<path class="st3" d="M514.3,446.1h5l-1.5,8.5h-19.3l1.5-8.5h5l3-17.2h-4.7l1.5-8.3h13.1l0.1,3.5c3.7-3.1,7.6-3.9,10.2-3.9
			c9.2,0,13.7,4.4,11.5,16.5l-1.6,9.4h4.8l-1.5,8.5h-18.1l1.5-8.5h3.8l1.6-9.4c0.6-3.6,0.8-7.6-5.3-7.6c-4.6-0.1-8.3,3.1-9.2,8.3
			L514.3,446.1z"/>
		<path class="st3" d="M570.1,431.5l0.3-3.8c-0.9-0.5-3.1-1-5.1-1c-3.1,0-6.1,1.1-6.1,4c0,2.1,3,2.4,4.9,2.5
			c8.3,0.5,14.5,3.3,13.2,11.9c-1.4,6.6-6.6,10.7-17,10.7c-5.3,0-10.4-1-14.5-4l1.9-9.4h8.1l-0.3,3.8c1,0.6,3.4,1.2,5.9,1.2
			c3.3,0.1,6.6-0.6,6.6-3.3c0-1.6-1.8-2.8-5.9-3c-7.9-1-13.8-3.9-12.4-11.2c1.3-7.5,9.8-10.6,17.2-10.6c4.4,0,9.1,1,12.7,2.9
			l-1.8,9.3H570.1z"/>
	</g>
	<g id="Calque_9">
		<g>
			<defs>
				<path id="SVGID_5_" d="M185.6,423.3c1.2-4.2,7.1-4.8,11.6-2l0.2,0.6c-1.8,0.6-2.8,1.8-3.1,3.1c-0.9,3.4,2.3,5.3,6.7,5.4
					c3.3,0.1,7.2-1.3,8.2-4.3c0.9-2.6-0.5-4.8-4.2-5.6l-9-1.9c-7.7-1.6-7.9-6-7.1-8.4c1.1-3.1,3.8-4.6,6.9-5.6
					c-2.9-2.2-4.4-6.2-2.9-11.3c2.4-8.1,10.4-12.1,16.8-12.1c4.1,0.1,7.6,1.7,9.5,4.5c1.8-3.3,5-5.6,8.5-4.3l-2.5,6.4
					c-1.3-0.8-3.2-1.3-5.1-0.3c0.8,2.1,0.9,4.6,0.1,7.4c-2.5,8.6-11.6,12-17.4,12c-2,0-3.7-0.4-5.3-1.2c-0.6,0.4-0.8,0.8-1,1.2
					c-0.3,1.1,0.5,1.9,3.4,2.5l9,1.9c8.3,1.8,9.5,7.6,7.8,12.3c-2.2,5.9-8.9,9.3-16.8,9.1C192.4,432.6,183.8,429.4,185.6,423.3z
					 M209.4,394.1c1.3-4.5,2.9-10.8,0.4-10.8c-2.5,0-4.8,5.9-6.2,10.7c-1.4,4.7-3,10.7-0.4,10.7
					C205.6,404.8,207.9,399.2,209.4,394.1z"/>
			</defs>
			<clipPath id="SVGID_6_">
				<use xlink:href="#SVGID_5_"  style="overflow:visible;"/>
			</clipPath>
			<path class="st13" d="M241,431c-2.3,12.4-11.5,24.9-29,24.9c-15,0-20.9-9.7-20.9-20.3c0-18.7,13.9-29.8,30-29.8
				C237.8,406,243.4,418.3,241,431z M219.6,415.1c-9.6,0-16,6.6-17.8,16c-1.5,8,1.6,15.2,12.1,15.2c10.2,0,15.6-8.1,16.9-15.3
				C232.2,423.7,230.2,415.1,219.6,415.1z"/>
		</g>
	</g>
</g>
</svg>
