<?xml version="1.0" encoding="utf-8"?>
<!-- Generator: Adobe Illustrator 19.0.0, SVG Export Plug-In . SVG Version: 6.00 Build 0)  -->
<svg version="1.1" xmlns="http://www.w3.org/2000/svg" xmlns:xlink="http://www.w3.org/1999/xlink" x="0px" y="0px"
	 viewBox="-147 363.9 300 114" style="enable-background:new -147 363.9 300 114;" xml:space="preserve">
<style type="text/css">
	.st0{display:none;}
	.st1{display:inline;fill:#E90052;}
	.st2{font-family:'DentonItalicVariableTest-Regular';}
	.st3{font-size:43.7764px;}
	.st4{display:inline;fill:#3AF9BA;}
	.st5{font-family:'NexaSlabxBoldOblique';}
	.st6{font-size:56.7717px;}
	.st7{display:inline;}
	.st8{fill:#E90052;}
	.st9{fill:#3AF9BA;}
	.st10{clip-path:url(#SVGID_2_);fill:#231F20;}
	.st11{clip-path:url(#SVGID_4_);fill:#231F20;}
	.st12{clip-path:url(#SVGID_6_);fill:#231F20;}
	.st13{clip-path:url(#SVGID_8_);fill:#231F20;}
	.st14{clip-path:url(#SVGID_10_);fill:#231F20;}
	.st15{clip-path:url(#SVGID_12_);fill:#231F20;}
</style>
<g id="Textes" class="st0">
	<text id="XMLID_6_" transform="matrix(1 0 0 1 -140.1793 416.0312)" class="st1 st2 st3">Efficiency And</text>
	<text id="XMLID_5_" transform="matrix(1 0 0 1 -137.2829 454.5213)" class="st4 st5 st6">Accuarcy</text>
</g>
<g id="Efficiency_and_Accuarcy" class="st0">
	<g class="st7">
		<path class="st8" d="M-142.7,415.2C-142.7,415.2-142.7,415.2-142.7,415.2c0.9-0.3,1.7-0.7,2.4-1.3c0.7-0.6,1.3-1.5,1.7-2.8
			l6.7-21.7c0.3-1,0.4-1.7,0.2-2.3c-0.1-0.6-0.4-1-0.7-1.2c-0.4-0.2-0.8-0.4-1.3-0.6c0,0-0.1,0-0.1,0s0,0-0.1,0l0.2-0.8h11.9
			l-9.6,31.5H-143L-142.7,415.2C-142.8,415.2-142.8,415.2-142.7,415.2z M-132.4,414.7l3.2-0.1c2.9-0.1,5.4-0.8,7.3-2.3
			c2-1.4,3.6-3.1,4.9-5l0.8,0.3l-3.3,8.4H-133L-132.4,414.7z M-121.1,402.5c-0.1-0.5-0.4-0.9-0.9-1.2c-0.5-0.4-1.3-0.5-2.3-0.5h-3.9
			l0.4-1.5h3.9c1.5,0,2.6-0.3,3.3-0.9c0.8-0.6,1.4-1.3,1.9-2.3v0h0.8l-2.4,8.1h-0.8C-121,403.5-121,403-121.1,402.5z M-114.3,388.2
			c-0.9-1.4-2.7-2.1-5.4-2.2l-4.2-0.1l0.5-1.3h13.3l-2.1,8.2l-0.8-0.1C-112.9,391-113.4,389.6-114.3,388.2z"/>
		<path class="st8" d="M-119.4,421.6c1.2-1.3,2.1-2.7,2.9-4.3c0.7-1.6,1.5-3.7,2.3-6.3l5.3-17.1c1-3.3,2.6-5.8,4.8-7.5
			c2.1-1.6,4.5-2.5,7.2-2.5c1.1,0,2.2,0.1,3.2,0.4c1,0.2,2.1,0.6,3.1,1l-2.8,6.6h-0.5c-0.5-2.1-1.1-3.7-1.7-4.8
			c-0.6-1.1-1.1-1.6-1.6-1.6c-0.3,0-0.6,0.2-0.8,0.7c-0.3,0.4-0.6,1.2-1,2.4c-0.4,1.2-0.8,2.6-1.3,4.2c-0.1,0.2-0.1,0.5-0.2,0.7
			l-5.4,17.6c-1,3.3-2.5,6.1-4.5,8.2c-2,2.2-4.1,3.7-6.5,4.7s-4.8,1.6-7.2,1.7v-0.3C-122.1,424.1-120.5,422.8-119.4,421.6z
			 M-111.8,393.7h15.6l-0.5,1.5h-15.7L-111.8,393.7z"/>
		<path class="st8" d="M-103.4,421.6c1.2-1.3,2.1-2.7,2.9-4.3c0.7-1.6,1.5-3.7,2.3-6.3l5.3-17.1c1-3.3,2.6-5.8,4.8-7.5
			c2.1-1.6,4.5-2.5,7.2-2.5c1.1,0,2.2,0.1,3.2,0.4c1,0.2,2.1,0.6,3.1,1l-2.8,6.6h-0.5c-0.5-2.1-1.1-3.7-1.7-4.8
			c-0.6-1.1-1.1-1.6-1.6-1.6c-0.3,0-0.6,0.2-0.8,0.7c-0.3,0.4-0.6,1.2-1,2.4c-0.4,1.2-0.8,2.6-1.3,4.2c-0.1,0.2-0.1,0.5-0.2,0.7
			l-5.4,17.6c-1,3.3-2.5,6.1-4.5,8.2c-2,2.2-4.1,3.7-6.5,4.7s-4.8,1.6-7.2,1.7v-0.3C-106.1,424.1-104.6,422.8-103.4,421.6z
			 M-95.8,393.7h15.6l-0.5,1.5h-15.7L-95.8,393.7z"/>
		<path class="st8" d="M-81.4,415.7c-0.7-0.6-1.2-1.5-1.3-2.7c-0.2-1.2,0-2.6,0.5-4.3l3.5-10.9c0.2-0.7,0.2-1.3,0.1-1.8
			c-0.1-0.4-0.3-0.8-0.5-1c-0.3-0.2-0.6-0.4-0.9-0.5c-0.1,0-0.1-0.1-0.2-0.1l0.2-0.7h10.9l-4.9,15.4c-0.4,1.2-0.5,2.1-0.5,2.7
			c0.1,0.6,0.3,0.9,0.7,0.9c0.4,0,0.9-0.3,1.5-0.9c0.6-0.6,1.3-1.6,2.3-3.1l0.5,0.4c-1,2.2-2.2,4-3.8,5.4c-1.6,1.4-3.3,2.1-5.1,2.1
			C-79.7,416.6-80.7,416.3-81.4,415.7z M-75.6,391.1c-0.8-0.8-1.3-1.9-1.3-3.1c0-1.2,0.4-2.3,1.3-3.1c0.8-0.8,1.9-1.3,3.1-1.3
			c1.2,0,2.2,0.4,3.1,1.3c0.9,0.8,1.3,1.9,1.3,3.1c0,1.2-0.4,2.3-1.3,3.1c-0.8,0.8-1.9,1.3-3.1,1.3
			C-73.7,392.3-74.7,391.9-75.6,391.1z"/>
		<path class="st8" d="M-66.5,414.7c-1.3-1.2-2-2.8-2.3-4.9c-0.2-2,0.1-4.2,1-6.6c0.8-2.2,1.9-4.1,3.4-5.6c1.4-1.5,3-2.5,4.8-3.2
			c1.8-0.7,3.6-1,5.5-1c1.1,0,2.1,0.1,3.2,0.3c1,0.2,2,0.5,3,1l0.4,0.2l-2.3,7.1h-0.6c-0.7-2.7-1.4-4.5-1.9-5.6
			c-0.5-1-1.1-1.5-1.8-1.5c-0.6,0-1.2,0.3-1.9,0.8c-0.7,0.5-1.3,1.3-1.9,2.4c-0.6,1.1-1.2,2.4-1.7,4c-0.7,2-1,3.8-1.1,5.3
			c0,1.5,0.2,2.8,0.8,3.6c0.6,0.9,1.4,1.3,2.5,1.3c1,0.1,2.1-0.3,3.2-1c1.1-0.7,2.2-1.9,3.3-3.5l0.5,0.4c-1.3,2.9-3,5-5,6.3
			c-2,1.3-4,1.9-6.1,1.9C-63.6,416.6-65.3,416-66.5,414.7z"/>
		<path class="st8" d="M-47.3,415.7c-0.7-0.6-1.2-1.5-1.3-2.7c-0.2-1.2,0-2.6,0.5-4.3l3.5-10.9c0.2-0.7,0.2-1.3,0.1-1.8
			c-0.1-0.4-0.3-0.8-0.5-1c-0.3-0.2-0.6-0.4-0.9-0.5c-0.1,0-0.1-0.1-0.2-0.1l0.2-0.7h10.9l-4.9,15.4c-0.4,1.2-0.5,2.1-0.5,2.7
			c0.1,0.6,0.3,0.9,0.7,0.9c0.4,0,0.9-0.3,1.5-0.9c0.6-0.6,1.3-1.6,2.3-3.1l0.5,0.4c-1,2.2-2.2,4-3.8,5.4c-1.6,1.4-3.3,2.1-5.1,2.1
			C-45.6,416.6-46.6,416.3-47.3,415.7z M-41.5,391.1c-0.8-0.8-1.3-1.9-1.3-3.1c0-1.2,0.4-2.3,1.3-3.1c0.8-0.8,1.9-1.3,3.1-1.3
			c1.2,0,2.2,0.4,3.1,1.3c0.9,0.8,1.3,1.9,1.3,3.1c0,1.2-0.4,2.3-1.3,3.1c-0.8,0.8-1.9,1.3-3.1,1.3
			C-39.6,392.3-40.6,391.9-41.5,391.1z"/>
		<path class="st8" d="M-31.8,414.8c-1.4-1.2-2.4-2.8-2.8-4.8c-0.4-2-0.1-4.3,0.8-6.7c0.8-2.1,1.9-3.9,3.4-5.4
			c1.4-1.5,3.1-2.6,4.8-3.3c1.8-0.7,3.6-1.1,5.4-1.1c1.5,0,2.9,0.2,4,0.7c1.2,0.5,2,1.2,2.6,2.1c0.5,0.9,0.6,2,0.3,3.2
			c-0.4,1.4-1.2,2.5-2.5,3.3c-1.3,0.9-2.8,1.5-4.6,2c-1.8,0.5-4,0.9-6.5,1.2l-1.1-1c1.7-0.2,3.1-0.6,4.2-1.3c1.1-0.7,2-1.5,2.6-2.5
			c0.6-0.9,1.1-2,1.5-3.1c0.3-0.9,0.4-1.7,0.3-2.3s-0.4-0.9-0.9-0.9c-0.5,0-1,0.3-1.6,0.8c-0.6,0.5-1.2,1.3-1.8,2.2
			c-0.6,0.9-1.1,2-1.6,3.3c-0.8,2.3-1.3,4.3-1.3,6c0,1.7,0.3,3,1,3.9c0.7,0.9,1.6,1.4,2.8,1.4c1.1,0.1,2.2-0.3,3.4-0.9
			c1.2-0.7,2.3-1.9,3.3-3.6l0.5,0.4c-1.3,2.9-3,5-5,6.3c-2,1.3-4,2-6.1,2C-28.6,416.6-30.3,416-31.8,414.8z"/>
		<path class="st8" d="M-10.1,396.2c-0.1-0.5-0.2-0.9-0.5-1.1s-0.6-0.4-1-0.6c-0.1,0-0.2-0.1-0.3-0.1l0.2-0.7h10.7L-7.8,416h-8.2
			l5.6-17.8C-10.1,397.4-10,396.7-10.1,396.2z M0.1,415.7c-0.7-0.6-1.2-1.5-1.3-2.7c-0.1-1.2,0.1-2.6,0.6-4.3l2.7-7.9
			c0.5-1.3,0.7-2.3,0.6-2.8c-0.1-0.5-0.3-0.8-0.6-0.8c-0.5,0-1.2,0.5-2.2,1.6c-1,1.1-2,2.6-3.1,4.6c-1.1,2-2,4.3-2.8,6.9l1.1-6
			c1.2-2.4,2.4-4.5,3.7-6.1c1.3-1.6,2.6-2.9,3.9-3.7c1.3-0.8,2.6-1.2,4-1.2c1.1,0,2.1,0.3,2.8,0.9c0.8,0.6,1.3,1.4,1.5,2.3
			s0.1,2.1-0.3,3.4l-3.1,9.1c-0.4,1.2-0.6,2.1-0.5,2.7c0.1,0.6,0.3,0.9,0.7,0.9c0.4,0,0.9-0.3,1.5-0.9c0.6-0.6,1.3-1.6,2.3-3.1
			l0.5,0.4c-1,2.2-2.2,4-3.8,5.4c-1.6,1.4-3.3,2.1-5.1,2.1C1.9,416.6,0.9,416.3,0.1,415.7z"/>
		<path class="st8" d="M15.1,414.7c-1.3-1.2-2-2.8-2.3-4.9c-0.2-2,0.1-4.2,1-6.6c0.8-2.2,1.9-4.1,3.4-5.6c1.4-1.5,3-2.5,4.8-3.2
			c1.8-0.7,3.6-1,5.5-1c1.1,0,2.1,0.1,3.2,0.3c1,0.2,2,0.5,3,1l0.4,0.2l-2.3,7.1h-0.6c-0.7-2.7-1.4-4.5-1.9-5.6
			c-0.5-1-1.1-1.5-1.8-1.5c-0.6,0-1.2,0.3-1.9,0.8c-0.7,0.5-1.3,1.3-1.9,2.4c-0.6,1.1-1.2,2.4-1.7,4c-0.7,2-1,3.8-1.1,5.3
			c0,1.5,0.2,2.8,0.8,3.6c0.6,0.9,1.4,1.3,2.5,1.3c1,0.1,2.1-0.3,3.2-1c1.1-0.7,2.2-1.9,3.3-3.5l0.5,0.4c-1.3,2.9-3,5-5,6.3
			c-2,1.3-4,1.9-6.1,1.9S16.3,416,15.1,414.7z"/>
		<path class="st8" d="M29.6,417.3h0.5c0.9,1.2,1.8,2.2,2.9,2.9c1,0.7,2.1,1.1,3.3,1.1s2.3-0.5,3.5-1.5l4.7-2.8
			c2.2-2.8,3.7-5.5,4.5-8.1c0.8-2.6,1-5,0.6-7.1c-0.4-2.1-1.4-3.9-2.8-5.4l0.1-0.5l9.1-2.9c0.2,2.5-0.1,5-0.8,7.5
			c-0.7,2.6-1.8,5-3.1,7.4c-1.3,2.4-2.9,4.7-4.6,6.9c-2.8,3.6-6,6.3-9.4,8.2c-3.4,1.9-7.4,2.3-11.8,1.4L29.6,417.3z M35.4,397.1
			c-0.2-0.5-0.4-0.8-0.7-1.1c-0.3-0.2-0.6-0.3-0.9-0.4c0,0-0.1,0-0.2,0l0.2-0.7l9.2-1.8l3.3,21.7l-4.9,6h-2L36,399.1
			C35.8,398.3,35.6,397.6,35.4,397.1z"/>
		<path class="st8" d="M58.6,415.2c1.3-0.4,2.4-0.9,3.2-1.4c0.8-0.5,1.7-1.4,2.5-2.6l17.5-26.7h1.7l-0.7,1.4l-16.6,25.3
			c-0.6,1-1,1.7-1,2.3c0,0.6,0.1,0.9,0.4,1.2c0.3,0.2,0.7,0.4,1.2,0.6l-0.2,0.8h-8.3l0.2-0.8L58.6,415.2z M69.4,404.4h14.8l-0.5,1.5
			H68.3L69.4,404.4z M76.4,415.2c0.6-0.1,1.1-0.4,1.5-0.6c0.4-0.3,0.8-0.7,1.1-1.2c0.3-0.5,0.3-1.2,0.3-2.1l-2-18.3l5.9-8.4h2.3
			l2.5,26.7c0.1,0.9,0.3,1.6,0.5,2.1c0.2,0.5,0.5,0.9,0.9,1.2s0.7,0.5,1.2,0.7l-0.3,0.8H75.9l0.3-0.8
			C76.2,415.2,76.3,415.2,76.4,415.2z"/>
		<path class="st8" d="M96.8,396.2c-0.1-0.5-0.2-0.9-0.5-1.1s-0.6-0.4-1-0.6c-0.1,0-0.2-0.1-0.3-0.1l0.2-0.7H106L99.2,416H91
			l5.6-17.8C96.8,397.4,96.9,396.7,96.8,396.2z M107.1,415.7c-0.7-0.6-1.2-1.5-1.3-2.7c-0.1-1.2,0.1-2.6,0.6-4.3l2.7-7.9
			c0.5-1.3,0.7-2.3,0.6-2.8c-0.1-0.5-0.3-0.8-0.6-0.8c-0.5,0-1.2,0.5-2.2,1.6s-2,2.6-3.1,4.6c-1.1,2-2,4.3-2.8,6.9l1.1-6
			c1.2-2.4,2.4-4.5,3.7-6.1c1.3-1.6,2.6-2.9,3.9-3.7c1.3-0.8,2.6-1.2,4-1.2c1.1,0,2.1,0.3,2.8,0.9c0.8,0.6,1.3,1.4,1.5,2.3
			c0.2,1,0.1,2.1-0.3,3.4l-3.1,9.1c-0.4,1.2-0.6,2.1-0.5,2.7c0.1,0.6,0.3,0.9,0.7,0.9s0.9-0.3,1.5-0.9c0.6-0.6,1.3-1.6,2.3-3.1
			l0.5,0.4c-1,2.2-2.2,4-3.8,5.4c-1.6,1.4-3.3,2.1-5.1,2.1C108.8,416.6,107.8,416.3,107.1,415.7z"/>
		<path class="st8" d="M121.3,414.9c-0.9-1.1-1.4-2.6-1.5-4.4c-0.1-1.9,0.3-4,1.1-6.4c0.9-2.6,2.1-4.7,3.6-6.3s3.1-2.8,4.8-3.5
			c1.7-0.7,3.2-1,4.6-0.8c1.4,0.2,2.3,0.6,2.8,1.3c0.5,0.7,0.8,1.5,0.9,2.3l-0.2,0.5c0-0.1-0.1-0.2-0.1-0.3
			c-0.3-0.6-0.6-0.9-0.9-1.2c-0.3-0.2-0.7-0.3-1.2-0.3c-1,0-1.9,0.6-2.8,1.7c-0.9,1.1-1.8,3.2-2.8,6.2c-0.6,1.6-1,3.1-1.2,4.3
			c-0.3,1.3-0.4,2.3-0.3,3.1c0.1,0.8,0.4,1.2,0.9,1.3c0.4,0.1,0.8-0.1,1.2-0.5c0.5-0.4,1-1.1,1.6-2.1c0.6-1,1.1-2.3,1.6-3.9
			c0-0.1,0.1-0.2,0.1-0.3v1.5c-0.6,2.1-1.4,3.9-2.3,5.3c-0.9,1.4-1.8,2.4-2.8,3.1c-1,0.7-2.2,1-3.4,1
			C123.4,416.6,122.2,416,121.3,414.9z M134.3,416.6c0,0-0.4-0.3-1.1-0.9s-1.2-1.5-1.4-2.7c-0.2-1.2,0-2.6,0.6-4.3l6.4-19.2
			c0.2-0.8,0.2-1.4,0.1-1.8c-0.1-0.5-0.3-0.8-0.6-1c-0.3-0.2-0.6-0.4-1-0.5h0l0.2-0.7l11.4-1.5l-8.3,25.2c-0.4,1.2-0.5,2.1-0.5,2.7
			c0.1,0.6,0.3,0.9,0.7,0.9s0.9-0.3,1.5-0.9c0.6-0.6,1.3-1.6,2.3-3.1l0.5,0.4c-1,2.2-2.2,4-3.8,5.4c-1.6,1.4-3.3,2.1-5.1,2.1
			C134.8,416.6,134.3,416.6,134.3,416.6z"/>
	</g>
	<g class="st7">
		<path class="st9" d="M-116.9,421.1h-4.1l1-6.4h14.8l8.7,33.3h3.9l-1.1,6.4h-15.9l1.1-6.4h4.7l-1.2-4.9h-18.7l-3.1,4.9h4.6
			l-1.1,6.4h-16l1.1-6.4h3.8L-116.9,421.1z M-106.6,437.2l-3.6-15.5l-9.8,15.5H-106.6z"/>
		<path class="st9" d="M-64.8,450.7c-3.7,3.2-7.7,4.4-11.8,4.4c-7.5,0-13.3-3.8-13.3-11.9c0-12.2,9.8-17.4,18.1-17.4
			c3.7,0,6.9,0.6,9.9,1.9l-1.8,8.7h-5.8l0.8-4.5c-1.2-0.3-2.5-0.5-3.7-0.4c-5.7,0.3-10.4,4-10.4,10.5c0,4.7,2.8,6.9,7.4,6.9
			c2.6,0,5.2-1,7.2-2.7L-64.8,450.7z"/>
		<path class="st9" d="M-34.8,450.7c-3.7,3.2-7.7,4.4-11.8,4.4c-7.5,0-13.3-3.8-13.3-11.9c0-12.2,9.8-17.4,18.1-17.4
			c3.7,0,6.9,0.6,9.9,1.9l-1.8,8.7h-5.8l0.8-4.5c-1.2-0.3-2.5-0.5-3.7-0.4c-5.7,0.3-10.4,4-10.4,10.5c0,4.7,2.8,6.9,7.4,6.9
			c2.6,0,5.2-1,7.2-2.7L-34.8,450.7z"/>
		<path class="st9" d="M-0.5,448.6h4.3l-1.1,6h-9.3L-7,451c-3.5,3.1-6.5,3.9-9.9,3.9c-9.1,0-11.5-5.6-10.1-13.7l1.6-9.1h-3.9l1-5.7
			h10.5l-2.6,14.8c-0.8,4.7-0.2,7.5,5.5,7.5c4.8,0,8.4-3.2,9.1-7.3l1.6-9.4h-4.4l1-5.7h11L-0.5,448.6z"/>
		<path class="st9" d="M41.9,448.7l-1,5.8h-9.8l-0.3-3.1c-2.7,2.6-6.2,3.9-10,3.9c-7.3-0.1-12.3-4.3-12.3-11.9
			c0-10.7,8.5-17.7,17.8-17.7c3.7,0,6.9,1.6,8.4,4.3l1-3.7h10.1l-1,6h-4l-2.9,16.4H41.9z M15.3,442.2c0,5,2.7,7.2,6.8,7.2
			c4.5,0,9.7-3,10.9-7.9c1.3-5.3-2-9.3-7.8-9.3C19.9,432.2,15.3,436.5,15.3,442.2z"/>
		<path class="st9" d="M53.5,432.2h-4l1-5.8h9.5l0.3,3c3-3.4,6.1-3.7,8.9-3.7c3.1,0,5.2,1.1,7,2.6l-4.1,5.7
			c-1.5-1.2-3.3-1.8-5.2-1.8c-3.6,0-7.2,2.4-8.1,7.5l-1.6,9.1h4l-1,5.7H45.1l1-5.7h4.5L53.5,432.2z"/>
		<path class="st9" d="M100.1,450.7c-3.7,3.2-7.7,4.4-11.8,4.4c-7.5,0-13.3-3.8-13.3-11.9c0-12.2,9.8-17.4,18.1-17.4
			c3.7,0,6.9,0.6,9.9,1.9l-1.8,8.7h-5.8l0.8-4.5c-1.2-0.3-2.5-0.5-3.7-0.4c-5.7,0.3-10.4,4-10.4,10.5c0,4.7,2.8,6.9,7.4,6.9
			c2.6,0,5.2-1,7.2-2.7L100.1,450.7z"/>
		<path class="st9" d="M127.4,451.3c-3.1,2.9-6,3.6-9.6,3.6c-8.4,0-11.4-5.2-9.9-13.7l1.6-9h-4.3l1-5.8h10.8l-2.6,14.8
			c-0.7,4.1-0.3,7.7,6,7.7c4.5-0.1,7.6-3.3,8.4-8l1.5-8.7H126l1-5.8h11l-5,28.3c-2,11.4-8.7,14.2-16,14.2c-7.7,0-12.4-3.2-11.5-11.1
			h6.4c-0.3,4,2.6,4.8,5.9,4.8c3.6,0,7.8-1.2,9-7.9L127.4,451.3z"/>
	</g>
	<g id="Calque_3" class="st7">
		<g>
			<defs>
				<path id="SVGID_1_" d="M-119.4,421.6c1.2-1.3,2.1-2.7,2.9-4.3c0.7-1.6,1.5-3.7,2.3-6.3l5.3-17.1c1-3.3,2.6-5.8,4.8-7.5
					c2.1-1.6,4.5-2.5,7.2-2.5c1.1,0,2.2,0.1,3.2,0.4c1,0.2,2.1,0.6,3.1,1l-2.8,6.6h-0.5c-0.5-2.1-1.1-3.7-1.7-4.8
					c-0.6-1.1-1.1-1.6-1.6-1.6c-0.3,0-0.6,0.2-0.8,0.7c-0.3,0.4-0.6,1.2-1,2.4c-0.4,1.2-0.8,2.6-1.3,4.2c-0.1,0.2-0.1,0.5-0.2,0.7
					l-5.4,17.6c-1,3.3-2.5,6.1-4.5,8.2c-2,2.2-4.1,3.7-6.5,4.7s-4.8,1.6-7.2,1.7v-0.3C-122.1,424.1-120.5,422.8-119.4,421.6z
					 M-111.8,393.7h15.6l-0.5,1.5h-15.7L-111.8,393.7z"/>
			</defs>
			<clipPath id="SVGID_2_">
				<use xlink:href="#SVGID_1_"  style="overflow:visible;"/>
			</clipPath>
			<path class="st10" d="M-116.9,421.1h-4.1l1-6.4h14.8l8.7,33.3h3.9l-1.1,6.4h-15.9l1.1-6.4h4.7l-1.2-4.9h-18.7l-3.1,4.9h4.6
				l-1.1,6.4h-16l1.1-6.4h3.8L-116.9,421.1z M-106.6,437.2l-3.6-15.5l-9.8,15.5H-106.6z"/>
		</g>
		<g>
			<defs>
				<path id="SVGID_3_" d="M-103.4,421.6c1.2-1.3,2.1-2.7,2.9-4.3c0.7-1.6,1.5-3.7,2.3-6.3l5.3-17.1c1-3.3,2.6-5.8,4.8-7.5
					c2.1-1.6,4.5-2.5,7.2-2.5c1.1,0,2.2,0.1,3.2,0.4c1,0.2,2.1,0.6,3.1,1l-2.8,6.6h-0.5c-0.5-2.1-1.1-3.7-1.7-4.8
					c-0.6-1.1-1.1-1.6-1.6-1.6c-0.3,0-0.6,0.2-0.8,0.7c-0.3,0.4-0.6,1.2-1,2.4c-0.4,1.2-0.8,2.6-1.3,4.2c-0.1,0.2-0.1,0.5-0.2,0.7
					l-5.4,17.6c-1,3.3-2.5,6.1-4.5,8.2c-2,2.2-4.1,3.7-6.5,4.7s-4.8,1.6-7.2,1.7v-0.3C-106.1,424.1-104.6,422.8-103.4,421.6z
					 M-95.8,393.7h15.6l-0.5,1.5h-15.7L-95.8,393.7z"/>
			</defs>
			<clipPath id="SVGID_4_">
				<use xlink:href="#SVGID_3_"  style="overflow:visible;"/>
			</clipPath>
			<path class="st11" d="M-116.9,421.1h-4.1l1-6.4h14.8l8.7,33.3h3.9l-1.1,6.4h-15.9l1.1-6.4h4.7l-1.2-4.9h-18.7l-3.1,4.9h4.6
				l-1.1,6.4h-16l1.1-6.4h3.8L-116.9,421.1z M-106.6,437.2l-3.6-15.5l-9.8,15.5H-106.6z"/>
		</g>
	</g>
</g>
<g id="Calque_4">
	<g>
		<path class="st8" d="M-143.5,415.2c1.3-0.4,2.4-0.9,3.2-1.4c0.8-0.5,1.7-1.4,2.5-2.6l17.5-26.7h1.7l-0.7,1.4l-16.6,25.3
			c-0.6,1-1,1.7-1,2.3c0,0.6,0.1,0.9,0.4,1.2c0.3,0.2,0.7,0.4,1.2,0.6l-0.2,0.8h-8.3l0.2-0.8L-143.5,415.2z M-132.7,404.4h14.8
			l-0.5,1.5h-15.4L-132.7,404.4z M-125.7,415.2c0.6-0.1,1.1-0.4,1.5-0.6c0.4-0.3,0.8-0.7,1.1-1.2c0.3-0.5,0.4-1.2,0.3-2.1l-2-18.3
			l5.9-8.4h2.3l2.5,26.7c0.1,0.9,0.3,1.6,0.5,2.1c0.2,0.5,0.5,0.9,0.9,1.2s0.7,0.5,1.2,0.7l-0.3,0.8h-14.3l0.3-0.8
			C-125.9,415.2-125.8,415.2-125.7,415.2z"/>
		<path class="st8" d="M-109.6,414.9c-0.9-1.1-1.4-2.6-1.5-4.4s0.3-4,1.1-6.4c0.9-2.6,2.1-4.7,3.6-6.3c1.5-1.7,3.1-2.8,4.8-3.5
			c1.7-0.7,3.2-1,4.6-0.8c1.4,0.2,2.3,0.6,2.8,1.3c0.5,0.7,0.8,1.5,0.9,2.3l-0.2,0.5c0-0.1-0.1-0.2-0.1-0.3
			c-0.3-0.6-0.6-0.9-0.9-1.2c-0.3-0.2-0.7-0.3-1.2-0.3c-1,0-1.9,0.6-2.8,1.7c-0.9,1.1-1.8,3.2-2.8,6.2c-0.6,1.6-1,3.1-1.2,4.3
			c-0.3,1.3-0.4,2.3-0.3,3.1s0.4,1.2,0.9,1.3c0.4,0.1,0.8-0.1,1.2-0.5s1-1.1,1.6-2.1c0.6-1,1.1-2.3,1.6-3.9c0-0.1,0.1-0.2,0.1-0.3
			v1.5c-0.6,2.1-1.4,3.9-2.3,5.3c-0.9,1.4-1.8,2.4-2.8,3.1c-1,0.7-2.2,1-3.4,1C-107.5,416.6-108.7,416-109.6,414.9z M-96.6,416.6
			c0,0-0.4-0.3-1.1-0.9s-1.2-1.5-1.4-2.7c-0.2-1.2,0-2.6,0.6-4.3l6.4-19.2c0.2-0.8,0.2-1.4,0.1-1.8c-0.1-0.5-0.3-0.8-0.6-1
			c-0.3-0.2-0.6-0.4-1-0.5h0l0.2-0.7l11.4-1.5l-8.3,25.2c-0.4,1.2-0.5,2.1-0.5,2.7c0.1,0.6,0.3,0.9,0.7,0.9c0.4,0,0.9-0.3,1.5-0.9
			c0.6-0.6,1.3-1.6,2.3-3.1l0.5,0.4c-1,2.2-2.2,4-3.8,5.4c-1.6,1.4-3.3,2.1-5.1,2.1C-96,416.6-96.6,416.6-96.6,416.6z"/>
		<path class="st8" d="M-83.6,414.9c-0.9-1.1-1.4-2.6-1.5-4.4s0.3-4,1.1-6.4c0.9-2.6,2.1-4.7,3.6-6.3c1.5-1.7,3.1-2.8,4.8-3.5
			c1.7-0.7,3.2-1,4.6-0.8c1.4,0.2,2.3,0.6,2.8,1.3c0.5,0.7,0.8,1.5,0.9,2.3l-0.2,0.5c0-0.1-0.1-0.2-0.1-0.3
			c-0.3-0.6-0.6-0.9-0.9-1.2c-0.3-0.2-0.7-0.3-1.2-0.3c-1,0-1.9,0.6-2.8,1.7c-0.9,1.1-1.8,3.2-2.8,6.2c-0.6,1.6-1,3.1-1.2,4.3
			c-0.3,1.3-0.4,2.3-0.3,3.1s0.4,1.2,0.9,1.3c0.4,0.1,0.8-0.1,1.2-0.5s1-1.1,1.6-2.1c0.6-1,1.1-2.3,1.6-3.9c0-0.1,0.1-0.2,0.1-0.3
			v1.5c-0.6,2.1-1.4,3.9-2.3,5.3c-0.9,1.4-1.8,2.4-2.8,3.1c-1,0.7-2.2,1-3.4,1C-81.5,416.6-82.7,416-83.6,414.9z M-70.7,416.6
			c0,0-0.4-0.3-1.1-0.9s-1.2-1.5-1.4-2.7c-0.2-1.2,0-2.6,0.6-4.3l6.4-19.2c0.2-0.8,0.2-1.4,0.1-1.8c-0.1-0.5-0.3-0.8-0.6-1
			c-0.3-0.2-0.6-0.4-1-0.5h0l0.2-0.7l11.4-1.5l-8.3,25.2c-0.4,1.2-0.5,2.1-0.5,2.7c0.1,0.6,0.3,0.9,0.7,0.9c0.4,0,0.9-0.3,1.5-0.9
			c0.6-0.6,1.3-1.6,2.3-3.1l0.5,0.4c-1,2.2-2.2,4-3.8,5.4c-1.6,1.4-3.3,2.1-5.1,2.1C-70.1,416.6-70.7,416.6-70.7,416.6z"/>
		<path class="st8" d="M-58,415.7c-0.7-0.6-1.2-1.5-1.3-2.7c-0.2-1.2,0-2.6,0.5-4.3l3.5-10.9c0.2-0.7,0.2-1.3,0.1-1.8
			c-0.1-0.4-0.3-0.8-0.5-1c-0.3-0.2-0.6-0.4-0.9-0.5c-0.1,0-0.1-0.1-0.2-0.1l0.2-0.7h10.9l-4.9,15.4c-0.4,1.2-0.5,2.1-0.5,2.7
			c0.1,0.6,0.3,0.9,0.7,0.9c0.4,0,0.9-0.3,1.5-0.9c0.6-0.6,1.3-1.6,2.3-3.1l0.5,0.4c-1,2.2-2.2,4-3.8,5.4c-1.6,1.4-3.3,2.1-5.1,2.1
			C-56.3,416.6-57.2,416.3-58,415.7z M-52.1,391.1c-0.8-0.8-1.3-1.9-1.3-3.1c0-1.2,0.4-2.3,1.3-3.1c0.8-0.8,1.9-1.3,3.1-1.3
			c1.2,0,2.2,0.4,3.1,1.3c0.9,0.8,1.3,1.9,1.3,3.1c0,1.2-0.4,2.3-1.3,3.1c-0.8,0.8-1.9,1.3-3.1,1.3
			C-50.3,392.3-51.3,391.9-52.1,391.1z"/>
		<path class="st8" d="M-43.6,415.7c-0.8-0.6-1.2-1.5-1.4-2.7c-0.2-1.2,0-2.6,0.5-4.3l4-13.5h-3l0.1-0.6c2.2-0.8,4.5-1.8,6.7-3.2
			c2.2-1.4,4.2-2.9,5.9-4.7h1l-6.7,22.5c-0.4,1.2-0.5,2.1-0.4,2.6c0.1,0.6,0.4,0.8,0.8,0.8c0.5,0,1.2-0.3,2-1s1.6-1.7,2.4-3l0.5,0.4
			c-1.1,2.2-2.5,4-4.1,5.4c-1.6,1.4-3.4,2.1-5.2,2.1C-41.9,416.6-42.9,416.3-43.6,415.7z M-43.4,394.6l4.4-0.9h12l-0.4,1.5h-16.1
			L-43.4,394.6z"/>
		<path class="st8" d="M-27.9,415.7c-0.7-0.6-1.2-1.5-1.3-2.7c-0.2-1.2,0-2.6,0.5-4.3l3.5-10.9c0.2-0.7,0.2-1.3,0.1-1.8
			c-0.1-0.4-0.3-0.8-0.5-1c-0.3-0.2-0.6-0.4-0.9-0.5c-0.1,0-0.1-0.1-0.2-0.1l0.2-0.7h10.9l-4.9,15.4c-0.4,1.2-0.5,2.1-0.5,2.7
			c0.1,0.6,0.3,0.9,0.7,0.9c0.4,0,0.9-0.3,1.5-0.9c0.6-0.6,1.3-1.6,2.3-3.1l0.5,0.4c-1,2.2-2.2,4-3.8,5.4c-1.6,1.4-3.3,2.1-5.1,2.1
			C-26.2,416.6-27.2,416.3-27.9,415.7z M-22.1,391.1c-0.8-0.8-1.3-1.9-1.3-3.1c0-1.2,0.4-2.3,1.3-3.1c0.8-0.8,1.9-1.3,3.1-1.3
			c1.2,0,2.2,0.4,3.1,1.3c0.9,0.8,1.3,1.9,1.3,3.1c0,1.2-0.4,2.3-1.3,3.1c-0.8,0.8-1.9,1.3-3.1,1.3
			C-20.2,392.3-21.2,391.9-22.1,391.1z"/>
		<path class="st8" d="M-13.1,397c-0.2-0.5-0.5-0.8-0.8-1c-0.3-0.2-0.7-0.3-1.2-0.4l0.2-0.7l9.4-1.8l2.5,16.9l-4.9,6h-2l-2.6-16.9
			C-12.7,398.2-12.9,397.5-13.1,397z M-2.3,408c1-1.2,1.7-2.2,2.1-2.9c1-1.8,1.3-3.5,1.1-5c-0.2-1.5-0.9-2.7-2.1-3.6l0.1-0.4
			l8.3-3.3c0.3,1.4,0.3,2.7,0,3.9c-0.4,1.2-0.9,2.4-1.6,3.5c-0.7,1.1-1.8,2.5-3.2,4.2c-0.1,0.1-0.1,0.2-0.2,0.3
			C2,404.9,1.9,405,1.8,405c-1.1,1.4-2.2,2.8-3.5,4.2c-1.2,1.4-3.3,3.7-6.2,6.8l2.4-4.6C-4.4,410.3-3.3,409.2-2.3,408z"/>
		<path class="st8" d="M8,414.8c-1.4-1.2-2.4-2.8-2.8-4.8c-0.4-2-0.1-4.3,0.8-6.7c0.8-2.1,1.9-3.9,3.4-5.4c1.4-1.5,3.1-2.6,4.8-3.3
			c1.8-0.7,3.6-1.1,5.4-1.1c1.5,0,2.9,0.2,4,0.7c1.2,0.5,2,1.2,2.6,2.1c0.5,0.9,0.6,2,0.3,3.2c-0.4,1.4-1.2,2.5-2.5,3.3
			c-1.3,0.9-2.8,1.5-4.6,2c-1.8,0.5-4,0.9-6.5,1.2l-1.1-1c1.7-0.2,3.1-0.6,4.2-1.3c1.1-0.7,2-1.5,2.6-2.5c0.6-0.9,1.1-2,1.5-3.1
			c0.3-0.9,0.4-1.7,0.3-2.3c0-0.6-0.4-0.9-0.9-0.9c-0.5,0-1,0.3-1.6,0.8c-0.6,0.5-1.2,1.3-1.8,2.2c-0.6,0.9-1.1,2-1.6,3.3
			c-0.8,2.3-1.3,4.3-1.3,6c0,1.7,0.3,3,1,3.9c0.7,0.9,1.6,1.4,2.8,1.4c1.1,0.1,2.2-0.3,3.4-0.9c1.2-0.7,2.3-1.9,3.3-3.6l0.5,0.4
			c-1.3,2.9-3,5-5,6.3c-2,1.3-4,2-6.1,2C11.2,416.6,9.4,416,8,414.8z"/>
	</g>
	<g>
		<path class="st9" d="M-131,419v25c0,3.4,2.2,4.1,4.1,4.4v0.8h-10v-0.8c1.9-0.3,4.1-1,4.1-4.4V418c0-3.5-2.3-4.1-4.2-4.4v-0.8h11
			l8.6,24.4l7.8-24.4H-99v0.8c-1.7,0.3-3.6,1-3.6,4.4v25.9c0,3.5,2,4.1,3.6,4.4v0.8h-14.2v-0.8c1.7-0.3,3.7-1,3.7-4.4v-25.8l-10,31
			h-1L-131,419z"/>
		<path class="st9" d="M-99.3,442.7c0-5.4,4.9-8.9,12.2-7.4V432c0-3.6-2.2-5.1-4.7-5.1c-2,0-4.3,1.1-6.1,4.2l-0.7-0.2
			c1-3.8,4.2-7.3,9.3-7.4c5.2-0.1,8.6,3.4,8.6,8.2v12.1c0,1.2,0.2,2.4,1,2.4c0.2,0,0.5-0.1,0.7-0.2l0.3,0.3
			c-0.7,1.6-2.2,3.2-4.4,3.2c-2.1,0-3.5-1.5-3.8-3.4c-1.2,1.8-3.1,3.4-5.8,3.4C-96.4,449.6-99.3,446.7-99.3,442.7z M-90.2,446.7
			c1.3,0,2.4-0.9,3.1-2.1v-8.1c-3.8-0.5-6.2,1.8-6.2,5.5C-93.3,444.4-92.3,446.7-90.2,446.7z"/>
		<path class="st9" d="M-61.8,444.3v-11.8c0-3.4-1.6-4.8-3.4-4.9c-1.4,0-2.8,0.8-4,2.2v14.5c0,3.2,1.3,3.8,2.6,4.1v0.8h-12.1v-0.8
			c1.5-0.3,3.1-0.9,3.1-4.1v-15.7c0-3.2-1.6-3.8-3.1-4.1v-0.8h9.5v4.5c1.4-2.8,3.7-4.8,6.9-4.8c3.7,0,7,2.7,7,8.1v12.7
			c0,3.2,1.6,3.8,3,4.1v0.8h-12.1v-0.8C-63.1,448.2-61.8,447.5-61.8,444.3z"/>
		<path class="st9" d="M-51.5,441.3v-12.7c0-3.2-1.6-3.8-3.1-4.1v-0.8h9.6v16.7c0,3.4,1.6,4.8,3.4,4.9c1.4,0,2.9-0.8,4.1-2.3v-14.4
			c0-3.2-1.4-3.8-2.6-4.1v-0.8h9v20.5c0,3.2,1.6,3.8,3.1,4.1v0.8h-7.7c-0.8-1.3-1.4-2.8-1.7-4.3c-1.5,2.7-4,4.6-7.1,4.6
			C-48.2,449.5-51.5,446.7-51.5,441.3z"/>
		<path class="st9" d="M-24.6,444.3v-18.8h-3.3v-1.7h3.3c0.3-7.8,4.5-11.6,9.5-11.6c1.9,0,5.4,0.7,7.6,4.5l-4.2,2.9l-0.4-0.2
			c-0.7-3.8-1.9-5.7-3.4-5.7c-1.7,0.1-2.7,2.5-2.7,5.7v4.4h5.8l-0.1,1.7h-5.7v18.8c0,3.2,1.8,3.8,3.4,4.1v0.8h-12.8v-0.8
			C-26.1,448.2-24.6,447.5-24.6,444.3z"/>
		<path class="st9" d="M-13.4,442.7c0-5.4,4.9-8.9,12.2-7.4V432c0-3.6-2.2-5.1-4.7-5.1c-2,0-4.3,1.1-6.1,4.2l-0.7-0.2
			c1-3.8,4.2-7.3,9.3-7.4c5.2-0.1,8.6,3.4,8.6,8.2v12.1c0,1.2,0.2,2.4,1,2.4c0.2,0,0.5-0.1,0.7-0.2l0.3,0.3
			c-0.7,1.6-2.2,3.2-4.4,3.2c-2.1,0-3.5-1.5-3.8-3.4c-1.2,1.8-3.1,3.4-5.8,3.4C-10.5,449.6-13.4,446.7-13.4,442.7z M-4.2,446.7
			c1.3,0,2.4-0.9,3.1-2.1v-8.1c-3.8-0.5-6.2,1.8-6.2,5.5C-7.4,444.4-6.4,446.7-4.2,446.7z"/>
		<path class="st9" d="M7.7,436.5c0-8,4.8-13,11.3-13c2.5,0,5.2,0.8,7.6,2.1l0.1,7.1H26c-2-5.2-3.9-7.4-6.3-7.4
			c-3.5,0-5.2,4.6-5.2,10c0.1,6.2,2.5,10.8,6.6,10.8c2.6,0,4.7-1.9,6-4l0.6,0.2c-1.1,3.5-4.2,7.5-9.4,7.5
			C13.1,449.7,7.7,445.2,7.7,436.5z"/>
		<path class="st9" d="M30.7,441.9v-16.3h-3.2v-0.8c3.4-1.3,6.7-4,8.8-8.3h0.9v7.3h6v1.8h-6v15.6c0,2.7,1,4.6,2.9,4.6
			c0.9,0,1.8-0.4,2.8-1.5l0.6,0.2c-1.2,2.8-3.3,5.2-6.7,5.2C32.8,449.7,30.7,446.7,30.7,441.9z"/>
		<path class="st9" d="M46.4,441.3v-12.7c0-3.2-1.6-3.8-3.1-4.1v-0.8h9.6v16.7c0,3.4,1.6,4.8,3.4,4.9c1.4,0,2.9-0.8,4.1-2.3v-14.4
			c0-3.2-1.4-3.8-2.6-4.1v-0.8h9v20.5c0,3.2,1.6,3.8,3.1,4.1v0.8h-7.7c-0.8-1.3-1.4-2.8-1.7-4.3c-1.5,2.7-4,4.6-7.1,4.6
			C49.7,449.5,46.4,446.7,46.4,441.3z"/>
		<path class="st9" d="M72.9,444.3v-15.7c0-3.2-1.7-3.8-3.1-4.1v-0.8h9.6v8c1.1-5.1,4.6-9,9-8.1l-1,6.3h-0.5
			c-3.7-1.9-7.1,0.9-7.6,6.5v7.8c0,3.2,1.7,3.8,3.1,4.1v0.8H69.8v-0.8C71.3,448.2,72.9,447.5,72.9,444.3z"/>
		<path class="st9" d="M91.8,444.3v-15.7c0-3.2-1.7-3.8-3.2-4.1v-0.8h9.6v20.5c0,3.2,1.7,3.8,3.2,4.1v0.8H88.6v-0.8
			C90.1,448.2,91.8,447.5,91.8,444.3z M94.4,412.5c2.2,0,3.9,1.8,3.9,4s-1.8,4-3.9,4c-2,0-3.9-1.8-3.9-4S92.2,412.5,94.4,412.5z"/>
		<path class="st9" d="M117.9,444.3v-11.8c0-3.4-1.6-4.8-3.4-4.9c-1.4,0-2.8,0.8-4,2.2v14.5c0,3.2,1.3,3.8,2.6,4.1v0.8H101v-0.8
			c1.5-0.3,3.1-0.9,3.1-4.1v-15.7c0-3.2-1.6-3.8-3.1-4.1v-0.8h9.5v4.5c1.4-2.8,3.7-4.8,6.9-4.8c3.7,0,7,2.7,7,8.1v12.7
			c0,3.2,1.6,3.8,3,4.1v0.8h-12.1v-0.8C116.6,448.2,117.9,447.5,117.9,444.3z"/>
		<path class="st9" d="M128.1,454.7c0-2.4,2.1-4,4.3-4.7c-3.4-1-4.3-3.2-4.3-4.9c0-2.4,2-4.3,4.6-5.4c-2.3-1.5-4-4-4-7.3
			c0-5.8,5.1-8.9,9.6-8.9c1.8,0,3.7,0.5,5.4,1.4c1.1-3,4-4.3,6.6-3.7l-0.6,4.4h-0.3c-1.6-1-3.2-0.9-4.8,0c2,1.5,3.3,3.8,3.3,6.8
			c0,5.8-5.2,9-9.8,9c-1.5,0-3.1-0.4-4.5-1.1c-0.9,0.6-1.5,1.4-1.5,2.2c0,1.3,1.5,2.2,4.4,2.3l5.8,0.2c4.6,0.2,7.4,3,7.4,7
			c0,5.1-4.3,8.5-11.4,8.5C133.5,460.5,128.1,458.7,128.1,454.7z M139.7,458.7c4,0,6.3-2.1,6.3-4.5c0-2.3-2.1-3.4-5-3.5l-5.4-0.3
			c-0.7,0-1.3-0.1-1.8-0.2c-1,1-1.3,2.2-1.3,3.2C132.6,456.5,135.5,458.7,139.7,458.7z M138.3,439.8c2.3,0,3.3-3.7,3.3-7.4
			c0-3.7-1-7.3-3.3-7.3c-2.3,0-3.2,3.6-3.2,7.3C135.1,436.1,136,439.8,138.3,439.8z"/>
	</g>
	<g id="Calque_5">
		<g>
			<defs>
				<path id="SVGID_5_" d="M-13.1,397c-0.2-0.5-0.5-0.8-0.8-1c-0.3-0.2-0.7-0.3-1.2-0.4l0.2-0.7l9.4-1.8l2.5,16.9l-4.9,6h-2
					l-2.6-16.9C-12.7,398.2-12.9,397.5-13.1,397z M-2.3,408c1-1.2,1.7-2.2,2.1-2.9c1-1.8,1.3-3.5,1.1-5c-0.2-1.5-0.9-2.7-2.1-3.6
					l0.1-0.4l8.3-3.3c0.3,1.4,0.3,2.7,0,3.9c-0.4,1.2-0.9,2.4-1.6,3.5c-0.7,1.1-1.8,2.5-3.2,4.2c-0.1,0.1-0.1,0.2-0.2,0.3
					C2,404.9,1.9,405,1.8,405c-1.1,1.4-2.2,2.8-3.5,4.2c-1.2,1.4-3.3,3.7-6.2,6.8l2.4-4.6C-4.4,410.3-3.3,409.2-2.3,408z"/>
			</defs>
			<clipPath id="SVGID_6_">
				<use xlink:href="#SVGID_5_"  style="overflow:visible;"/>
			</clipPath>
			<path class="st12" d="M-24.6,444.3v-18.8h-3.3v-1.7h3.3c0.3-7.8,4.5-11.6,9.5-11.6c1.9,0,5.4,0.7,7.6,4.5l-4.2,2.9l-0.4-0.2
				c-0.7-3.8-1.9-5.7-3.4-5.7c-1.7,0.1-2.7,2.5-2.7,5.7v4.4h5.8l-0.1,1.7h-5.7v18.8c0,3.2,1.8,3.8,3.4,4.1v0.8h-12.8v-0.8
				C-26.1,448.2-24.6,447.5-24.6,444.3z"/>
		</g>
		<g>
			<defs>
				<path id="SVGID_7_" d="M-27.9,415.7c-0.7-0.6-1.2-1.5-1.3-2.7c-0.2-1.2,0-2.6,0.5-4.3l3.5-10.9c0.2-0.7,0.2-1.3,0.1-1.8
					c-0.1-0.4-0.3-0.8-0.5-1c-0.3-0.2-0.6-0.4-0.9-0.5c-0.1,0-0.1-0.1-0.2-0.1l0.2-0.7h10.9l-4.9,15.4c-0.4,1.2-0.5,2.1-0.5,2.7
					c0.1,0.6,0.3,0.9,0.7,0.9c0.4,0,0.9-0.3,1.5-0.9c0.6-0.6,1.3-1.6,2.3-3.1l0.5,0.4c-1,2.2-2.2,4-3.8,5.4
					c-1.6,1.4-3.3,2.1-5.1,2.1C-26.2,416.6-27.2,416.3-27.9,415.7z M-22.1,391.1c-0.8-0.8-1.3-1.9-1.3-3.1c0-1.2,0.4-2.3,1.3-3.1
					c0.8-0.8,1.9-1.3,3.1-1.3c1.2,0,2.2,0.4,3.1,1.3c0.9,0.8,1.3,1.9,1.3,3.1c0,1.2-0.4,2.3-1.3,3.1c-0.8,0.8-1.9,1.3-3.1,1.3
					C-20.2,392.3-21.2,391.9-22.1,391.1z"/>
			</defs>
			<clipPath id="SVGID_8_">
				<use xlink:href="#SVGID_7_"  style="overflow:visible;"/>
			</clipPath>
			<path class="st13" d="M-24.6,444.3v-18.8h-3.3v-1.7h3.3c0.3-7.8,4.5-11.6,9.5-11.6c1.9,0,5.4,0.7,7.6,4.5l-4.2,2.9l-0.4-0.2
				c-0.7-3.8-1.9-5.7-3.4-5.7c-1.7,0.1-2.7,2.5-2.7,5.7v4.4h5.8l-0.1,1.7h-5.7v18.8c0,3.2,1.8,3.8,3.4,4.1v0.8h-12.8v-0.8
				C-26.1,448.2-24.6,447.5-24.6,444.3z"/>
		</g>
		<g>
			<defs>
				<path id="SVGID_9_" d="M-143.5,415.2c1.3-0.4,2.4-0.9,3.2-1.4c0.8-0.5,1.7-1.4,2.5-2.6l17.5-26.7h1.7l-0.7,1.4l-16.6,25.3
					c-0.6,1-1,1.7-1,2.3c0,0.6,0.1,0.9,0.4,1.2c0.3,0.2,0.7,0.4,1.2,0.6l-0.2,0.8h-8.3l0.2-0.8L-143.5,415.2z M-132.7,404.4h14.8
					l-0.5,1.5h-15.4L-132.7,404.4z M-125.7,415.2c0.6-0.1,1.1-0.4,1.5-0.6c0.4-0.3,0.8-0.7,1.1-1.2c0.3-0.5,0.4-1.2,0.3-2.1l-2-18.3
					l5.9-8.4h2.3l2.5,26.7c0.1,0.9,0.3,1.6,0.5,2.1c0.2,0.5,0.5,0.9,0.9,1.2s0.7,0.5,1.2,0.7l-0.3,0.8h-14.3l0.3-0.8
					C-125.9,415.2-125.8,415.2-125.7,415.2z"/>
			</defs>
			<clipPath id="SVGID_10_">
				<use xlink:href="#SVGID_9_"  style="overflow:visible;"/>
			</clipPath>
			<path class="st14" d="M-131,419v25c0,3.4,2.2,4.1,4.1,4.4v0.8h-10v-0.8c1.9-0.3,4.1-1,4.1-4.4V418c0-3.5-2.3-4.1-4.2-4.4v-0.8h11
				l8.6,24.4l7.8-24.4H-99v0.8c-1.7,0.3-3.6,1-3.6,4.4v25.9c0,3.5,2,4.1,3.6,4.4v0.8h-14.2v-0.8c1.7-0.3,3.7-1,3.7-4.4v-25.8l-10,31
				h-1L-131,419z"/>
		</g>
		<g>
			<defs>
				<path id="SVGID_11_" d="M-109.6,414.9c-0.9-1.1-1.4-2.6-1.5-4.4s0.3-4,1.1-6.4c0.9-2.6,2.1-4.7,3.6-6.3c1.5-1.7,3.1-2.8,4.8-3.5
					c1.7-0.7,3.2-1,4.6-0.8c1.4,0.2,2.3,0.6,2.8,1.3c0.5,0.7,0.8,1.5,0.9,2.3l-0.2,0.5c0-0.1-0.1-0.2-0.1-0.3
					c-0.3-0.6-0.6-0.9-0.9-1.2c-0.3-0.2-0.7-0.3-1.2-0.3c-1,0-1.9,0.6-2.8,1.7c-0.9,1.1-1.8,3.2-2.8,6.2c-0.6,1.6-1,3.1-1.2,4.3
					c-0.3,1.3-0.4,2.3-0.3,3.1s0.4,1.2,0.9,1.3c0.4,0.1,0.8-0.1,1.2-0.5s1-1.1,1.6-2.1c0.6-1,1.1-2.3,1.6-3.9c0-0.1,0.1-0.2,0.1-0.3
					v1.5c-0.6,2.1-1.4,3.9-2.3,5.3c-0.9,1.4-1.8,2.4-2.8,3.1c-1,0.7-2.2,1-3.4,1C-107.5,416.6-108.7,416-109.6,414.9z M-96.6,416.6
					c0,0-0.4-0.3-1.1-0.9s-1.2-1.5-1.4-2.7c-0.2-1.2,0-2.6,0.6-4.3l6.4-19.2c0.2-0.8,0.2-1.4,0.1-1.8c-0.1-0.5-0.3-0.8-0.6-1
					c-0.3-0.2-0.6-0.4-1-0.5h0l0.2-0.7l11.4-1.5l-8.3,25.2c-0.4,1.2-0.5,2.1-0.5,2.7c0.1,0.6,0.3,0.9,0.7,0.9c0.4,0,0.9-0.3,1.5-0.9
					c0.6-0.6,1.3-1.6,2.3-3.1l0.5,0.4c-1,2.2-2.2,4-3.8,5.4c-1.6,1.4-3.3,2.1-5.1,2.1C-96,416.6-96.6,416.6-96.6,416.6z"/>
			</defs>
			<clipPath id="SVGID_12_">
				<use xlink:href="#SVGID_11_"  style="overflow:visible;"/>
			</clipPath>
			<path class="st15" d="M-131,419v25c0,3.4,2.2,4.1,4.1,4.4v0.8h-10v-0.8c1.9-0.3,4.1-1,4.1-4.4V418c0-3.5-2.3-4.1-4.2-4.4v-0.8h11
				l8.6,24.4l7.8-24.4H-99v0.8c-1.7,0.3-3.6,1-3.6,4.4v25.9c0,3.5,2,4.1,3.6,4.4v0.8h-14.2v-0.8c1.7-0.3,3.7-1,3.7-4.4v-25.8l-10,31
				h-1L-131,419z"/>
		</g>
	</g>
</g>
</svg>
