<?xml version="1.0" encoding="utf-8"?>
<!-- Generator: Adobe Illustrator 19.0.0, SVG Export Plug-In . SVG Version: 6.00 Build 0)  -->
<svg version="1.1" xmlns="http://www.w3.org/2000/svg" xmlns:xlink="http://www.w3.org/1999/xlink" x="0px" y="0px"
	 viewBox="0 0 1000 1000" style="enable-background:new 0 0 1000 1000;" xml:space="preserve">
<style type="text/css">
	.st0{display:none;fill:url(#XMLID_3_);}
	.st1{display:none;fill:url(#XMLID_5_);}
	.st2{fill:#E5E5E5;}
	.st3{display:none;}
	.st4{display:inline;fill:#E5E5E5;}
	.st5{display:inline;}
	.st6{fill:#969696;}
</style>
<g id="Calque_1">
	
		<radialGradient id="XMLID_3_" cx="107.5733" cy="-291.1876" r="1648.0541" gradientTransform="matrix(0.743 0 0 -0.743 0.257 744.7513)" gradientUnits="userSpaceOnUse">
		<stop  offset="9.000000e-002" style="stop-color:#FA8F21"/>
		<stop  offset="0.78" style="stop-color:#D82D7E"/>
	</radialGradient>
	<path id="XMLID_9_" class="st0" d="M262.3,978.8c-57.4-2.6-88.5-12.2-109.2-20.2c-27.5-10.7-47-23.4-67.6-44
		c-20.6-20.6-33.4-40.2-44-67.6c-8.1-20.7-17.6-51.9-20.2-109.2c-2.9-62-3.4-80.6-3.4-237.7s0.6-175.7,3.4-237.7
		c2.6-57.4,12.2-88.5,20.2-109.2c10.7-27.5,23.4-47,44-67.7c20.6-20.6,40.2-33.4,67.6-44c20.7-8.1,51.9-17.6,109.2-20.2
		c62-2.8,80.7-3.4,237.7-3.4c157.1,0,175.7,0.6,237.7,3.4c57.4,2.6,88.5,12.2,109.2,20.2c27.5,10.6,47,23.4,67.6,44
		s33.3,40.2,44,67.6c8.1,20.7,17.6,51.9,20.2,109.2c2.8,62.1,3.4,80.6,3.4,237.7c0,157-0.6,175.7-3.4,237.7
		c-2.6,57.4-12.2,88.5-20.2,109.2c-10.7,27.5-23.4,47-44,67.6s-40.2,33.3-67.6,44c-20.7,8.1-51.9,17.6-109.2,20.2
		c-62,2.8-80.6,3.4-237.7,3.4C343,982.2,324.3,981.7,262.3,978.8"/>
	
		<radialGradient id="XMLID_5_" cx="922.6848" cy="-249.5071" r="1450.3032" gradientTransform="matrix(0.743 0 0 -0.743 0.257 744.7513)" gradientUnits="userSpaceOnUse">
		<stop  offset="0.64" style="stop-color:#8C3AAA;stop-opacity:0"/>
		<stop  offset="1" style="stop-color:#8C3AAA"/>
	</radialGradient>
	<path id="XMLID_8_" class="st1" d="M262.3,978.8c-57.4-2.6-88.5-12.2-109.2-20.2c-27.5-10.7-47-23.4-67.6-44
		c-20.6-20.6-33.4-40.2-44-67.6c-8.1-20.7-17.6-51.9-20.2-109.2c-2.9-62-3.4-80.6-3.4-237.7s0.6-175.7,3.4-237.7
		c2.6-57.4,12.2-88.5,20.2-109.2c10.7-27.5,23.4-47,44-67.7c20.6-20.6,40.2-33.4,67.6-44c20.7-8.1,51.9-17.6,109.2-20.2
		c62-2.8,80.7-3.4,237.7-3.4c157.1,0,175.7,0.6,237.7,3.4c57.4,2.6,88.5,12.2,109.2,20.2c27.5,10.6,47,23.4,67.6,44
		s33.3,40.2,44,67.6c8.1,20.7,17.6,51.9,20.2,109.2c2.8,62.1,3.4,80.6,3.4,237.7c0,157-0.6,175.7-3.4,237.7
		c-2.6,57.4-12.2,88.5-20.2,109.2c-10.7,27.5-23.4,47-44,67.6s-40.2,33.3-67.6,44c-20.7,8.1-51.9,17.6-109.2,20.2
		c-62,2.8-80.6,3.4-237.7,3.4C343,982.2,324.3,981.7,262.3,978.8"/>
	<g id="XMLID_12_">
		<path id="XMLID_15_" class="st2" d="M780.4,290.7c-6.5-16.7-14.3-28.7-26.8-41.2s-24.5-20.3-41.2-26.8
			c-12.6-4.9-31.6-10.7-66.5-12.3c-37.8-1.7-49.2-2.1-144.8-2.1s-107,0.3-144.8,2.1c-34.9,1.6-53.9,7.4-66.5,12.3
			c-16.8,6.5-28.7,14.3-41.2,26.8s-20.3,24.5-26.8,41.2c-4.9,12.6-10.7,31.6-12.3,66.5c-1.7,37.8-2.1,49.1-2.1,144.8
			s0.3,107,2.1,144.8c1.6,34.9,7.4,53.9,12.3,66.5c6.5,16.7,14.3,28.7,26.8,41.2s24.4,20.3,41.1,26.8c12.6,4.9,31.4,10.7,66.4,12.3
			v0c38,1.7,49.2,2.1,144.9,2.1s107.1-0.3,144.9-2.1c34.9-1.6,54-7.4,66.6-12.3c16.7-6.5,28.7-14.3,41.2-26.8s20.3-24.5,26.8-41.2
			c4.9-12.6,10.7-31.6,12.3-66.5c1.7-37.8,2.1-49.1,2.1-144.8s-0.3-107-2.1-144.8C791.1,322.3,785.3,303.3,780.4,290.7z M501,686
			c-101.6,0-184-82-184-184h0c0-102,82.4-184,184-184s184,82.4,184,184S602.6,686,501,686z M692.3,353.8c-23.7,0-43-19.2-43-42.9
			c0-23.7,19.3-42.9,43-42.9h0c23.7,0,43,19.2,43,42.9S716,353.8,692.3,353.8z"/>
		<path id="XMLID_17_" class="st2" d="M501,382.6c-66,0-119.4,53.5-119.4,119.4S435,621.5,501,621.5S620.4,568,620.4,502.1
			S567,382.6,501,382.6z"/>
		<path id="XMLID_25_" class="st2" d="M978.8,262.3c-2.6-57.4-12.2-88.5-20.2-109.2c-10.7-27.5-23.4-47.1-44-67.6
			s-40.2-33.4-67.6-44c-20.8-8-51.9-17.6-109.2-20.2c-62.1-2.8-80.6-3.4-237.7-3.4c-157,0-175.7,0.6-237.7,3.4
			c-57.4,2.6-88.5,12.2-109.2,20.2C125.6,52,106,64.8,85.4,85.4c-20.6,20.6-33.3,40.2-44,67.7c-8,20.8-17.6,51.9-20.2,109.2
			c-2.8,62.1-3.4,80.6-3.4,237.7s0.6,175.7,3.4,237.7c2.6,57.4,12.2,88.5,20.2,109.2c10.6,27.5,23.4,47,44,67.6
			c20.6,20.6,40.2,33.3,67.6,44c20.7,8.1,51.9,17.6,109.2,20.2h0c62,2.9,80.6,3.4,237.7,3.4c157.1,0,175.7-0.6,237.7-3.4
			c57.4-2.6,88.5-12.2,109.2-20.2c27.5-10.7,47.1-23.4,67.6-44s33.3-40.2,44-67.6c8-20.7,17.6-51.9,20.2-109.2
			c2.8-62.1,3.4-80.7,3.4-237.7C982.2,342.9,981.7,324.4,978.8,262.3z M857.1,649.8c-1.7,38.1-7.8,64.2-16.6,87
			c-9.2,23.6-21.4,43.6-41.3,63.5c-19.9,19.9-39.9,32.2-63.5,41.3c-22.8,8.9-48.8,14.9-87,16.6c-38.2,1.8-50.4,2.2-147.7,2.2
			s-109.5-0.4-147.7-2.2c-38.1-1.7-64.2-7.8-87-16.6c-23.6-9.2-43.5-21.4-63.5-41.3c-19.9-19.9-32.2-39.9-41.3-63.5
			c-8.9-22.8-14.9-48.8-16.6-87c-1.8-38.2-2.2-50.4-2.2-147.7s0.4-109.5,2.2-147.7c1.7-38.1,7.8-64.2,16.6-87
			c9.1-23.6,21.4-43.6,41.3-63.5c19.9-19.9,39.9-32.1,63.5-41.3c22.8-8.9,48.8-14.6,87-16.6h0c38.2-2,50.5-2.2,147.8-2.2
			s109.5,0.4,147.7,2.2c38.1,1.7,64.2,7.8,87,16.6c23.5,9.1,43.5,21.4,63.4,41.3c19.9,19.9,32.2,39.9,41.3,63.5
			c8.9,22.8,14.9,48.8,16.6,87c1.7,38.2,2.1,50.4,2.1,147.7S858.9,611.5,857.1,649.8z"/>
	</g>
</g>
<g id="Calque_2" class="st3">
	<path id="XMLID_10_" class="st4" d="M312.6,913c383.4,0,593.1-317.8,593.1-593.3c0-9-0.2-18-0.6-27c40.8-29.5,76-66.1,104-108
		c-37.3,16.6-77.5,27.8-119.7,32.8c43-25.8,76.1-66.7,91.7-115.3c-40.9,24.3-85.7,41.4-132.4,50.6c-38-40.5-92.2-65.9-152.2-65.9
		C581.3,87,488,180.4,488,295.5c0,16.4,1.8,32.3,5.4,47.5c-173.2-8.7-326.9-91.7-429.7-217.9C45.2,157,35.5,193.2,35.5,230
		c0,72.3,36.8,136.2,92.8,173.6c-33.1-1-65.5-10-94.4-26.1c0,0.9,0,1.7,0,2.7c0,101,71.8,185.3,167.2,204.4
		c-17.9,4.9-36.4,7.3-55,7.3c-13.4,0-26.5-1.3-39.2-3.8C133.5,671,210.4,731.3,301.6,733c-71.3,55.9-161.2,89.3-258.9,89.3
		c-16.6,0-33.2-1-49.7-2.9C85.3,878.5,194.8,913,312.6,913"/>
</g>
<g id="Calque_3" class="st3">
	<path id="XMLID_19_" class="st4" d="M501,18.8C235.3,18.8,19.8,234.3,19.8,500c0,201.1,123.5,373.5,298.7,445.4
		c-20.3-157,37-276.4,63.9-402.8c-46.7-74.9,5.8-226.2,104.3-188.9c121.3,45.8-105.1,278.9,46.9,308
		C692.4,692.2,757.1,399.3,658.9,304c-142.5-137.3-414-3-380.5,193.5c4.1,24.4,44.2,62.9,44.2,62.9s-1.9,23.3-12.4,66.4
		c-91.1-19.2-129.3-87.6-125.7-178.7c5.5-149.3,140.5-253.6,276.2-268.2l0,0c171.3-18.4,332.2,59.8,354.7,213.6
		c25,173.5-77.4,361.3-260.8,347.8c-49.7-3.6-70.5-27.2-109.5-49.7c-20.7,103.3-45.7,202.5-117.2,257.5
		c53.8,20.8,112.2,32.1,173.2,32.1c265.7,0,481.2-215.5,481.2-481.2S766.7,18.8,501,18.8z"/>
</g>
<g id="Calque_4" class="st3">
	<path id="XMLID_20_" class="st4" d="M903.1,27H96.9C58.3,27,27,57.4,27,94.8v810.5c0,37.4,31.3,67.7,69.9,67.7h806.2
		c38.6,0,69.9-30.3,69.9-67.8V94.8C973,57.4,941.7,27,903.1,27z M173,819V393h141v426H173z M243.7,334.8l0,0.2h-0.9
		c-47.5,0-78.2-32.9-78.2-73.8c0-41.8,31.6-73.7,80.1-73.7c48.4,0,78.2,31.8,79.1,73.6C323.8,302.1,293.1,334.8,243.7,334.8z
		 M825,819H683V590.9c0-57.3-20.3-96.3-71.5-96.3c-39.1,0-62.5,26.3-72.7,51.8c-3.7,9.1-4.8,21.8-4.8,34.5V819H392.8l0,0
		c0,0,1.9-386,0-426H534v60.1c19-29,52.7-70.3,127.8-70.3c93.1,0,163.2,60.9,163.2,191.7V819z"/>
</g>
<g id="Calque_5" class="st3">
	<g id="XMLID_4_" class="st5">
		<path id="XMLID_26_" class="st2" d="M738.7,153H261.3C0,153,0,227.5,0,410.5v178.9C0,763.5,37,847,261.3,847h477.4
			c202.6,0,261.3-48.8,261.3-257.5V410.5C1000,217.9,990.1,153,738.7,153z M398,636V355.1l269.5,140L398,636z"/>
		<polygon id="XMLID_2_" class="st6" points="634.4,512.4 397.8,355.1 667.4,495.1 		"/>
	</g>
</g>
<g id="Calque_6">
</g>
</svg>
