<?xml version="1.0" encoding="utf-8"?>
<!-- Generator: Adobe Illustrator 19.0.0, SVG Export Plug-In . SVG Version: 6.00 Build 0)  -->
<svg version="1.1" id="Calque_1" xmlns="http://www.w3.org/2000/svg" xmlns:xlink="http://www.w3.org/1999/xlink" x="0px" y="0px"
	 viewBox="-99 -163 1000 1000" style="enable-background:new -99 -163 1000 1000;" xml:space="preserve">
<style type="text/css">
	.st0{display:none;}
	.st1{fill:url(#XMLID_3_);}
	.st2{fill:url(#XMLID_5_);}
	.st3{display:inline;}
	.st4{fill:#E5E5E5;}
	.st5{display:inline;fill:#E5E5E5;}
	.st6{fill:#969696;}
</style>
<g id="Calque_1_1_" class="st0">
	
		<radialGradient id="XMLID_3_" cx="42.8169" cy="747.1526" r="1648.0541" gradientTransform="matrix(0.743 0 0 0.743 -50.629 242.9693)" gradientUnits="userSpaceOnUse">
		<stop  offset="9.000000e-002" style="stop-color:#FA8F21"/>
		<stop  offset="0.78" style="stop-color:#D82D7E"/>
	</radialGradient>
	<path id="XMLID_9_" class="st1" d="M163.3,815.8c-57.4-2.6-88.5-12.2-109.2-20.2c-27.5-10.7-47-23.4-67.6-44s-33.4-40.2-44-67.6
		c-8.1-20.7-17.6-51.9-20.2-109.2c-2.9-62-3.4-80.6-3.4-237.7s0.6-175.7,3.4-237.7C-75.1,42-65.5,10.9-57.5-9.8
		c10.7-27.5,23.4-47,44-67.7c20.6-20.6,40.2-33.4,67.6-44c20.7-8.1,51.9-17.6,109.2-20.2c62-2.8,80.7-3.4,237.7-3.4
		c157.1,0,175.7,0.6,237.7,3.4c57.4,2.6,88.5,12.2,109.2,20.2c27.5,10.6,47,23.4,67.6,44s33.3,40.2,44,67.6
		c8.1,20.7,17.6,51.9,20.2,109.2c2.8,62.1,3.4,80.6,3.4,237.7c0,157-0.6,175.7-3.4,237.7c-2.6,57.4-12.2,88.5-20.2,109.2
		c-10.7,27.5-23.4,47-44,67.6s-40.2,33.3-67.6,44c-20.7,8.1-51.9,17.6-109.2,20.2c-62,2.8-80.6,3.4-237.7,3.4
		C244,819.2,225.3,818.7,163.3,815.8"/>
	
		<radialGradient id="XMLID_5_" cx="857.9284" cy="705.4721" r="1450.3032" gradientTransform="matrix(0.743 0 0 0.743 -50.629 242.9693)" gradientUnits="userSpaceOnUse">
		<stop  offset="0.64" style="stop-color:#8C3AAA;stop-opacity:0"/>
		<stop  offset="1" style="stop-color:#8C3AAA"/>
	</radialGradient>
	<path id="XMLID_8_" class="st2" d="M163.3,815.8c-57.4-2.6-88.5-12.2-109.2-20.2c-27.5-10.7-47-23.4-67.6-44s-33.4-40.2-44-67.6
		c-8.1-20.7-17.6-51.9-20.2-109.2c-2.9-62-3.4-80.6-3.4-237.7s0.6-175.7,3.4-237.7C-75.1,42-65.5,10.9-57.5-9.8
		c10.7-27.5,23.4-47,44-67.7c20.6-20.6,40.2-33.4,67.6-44c20.7-8.1,51.9-17.6,109.2-20.2c62-2.8,80.7-3.4,237.7-3.4
		c157.1,0,175.7,0.6,237.7,3.4c57.4,2.6,88.5,12.2,109.2,20.2c27.5,10.6,47,23.4,67.6,44s33.3,40.2,44,67.6
		c8.1,20.7,17.6,51.9,20.2,109.2c2.8,62.1,3.4,80.6,3.4,237.7c0,157-0.6,175.7-3.4,237.7c-2.6,57.4-12.2,88.5-20.2,109.2
		c-10.7,27.5-23.4,47-44,67.6s-40.2,33.3-67.6,44c-20.7,8.1-51.9,17.6-109.2,20.2c-62,2.8-80.6,3.4-237.7,3.4
		C244,819.2,225.3,818.7,163.3,815.8"/>
	<g id="XMLID_12_" class="st3">
		<path id="XMLID_15_" class="st4" d="M681.4,127.7c-6.5-16.7-14.3-28.7-26.8-41.2s-24.5-20.3-41.2-26.8
			c-12.6-4.9-31.6-10.7-66.5-12.3c-37.8-1.7-49.2-2.1-144.8-2.1s-107,0.3-144.8,2.1c-34.9,1.6-53.9,7.4-66.5,12.3
			C174,66.2,162.1,74,149.6,86.5c-12.5,12.5-20.3,24.5-26.8,41.2c-4.9,12.6-10.7,31.6-12.3,66.5c-1.7,37.8-2.1,49.1-2.1,144.8
			s0.3,107,2.1,144.8c1.6,34.9,7.4,53.9,12.3,66.5c6.5,16.7,14.3,28.7,26.8,41.2c12.5,12.5,24.4,20.3,41.1,26.8
			c12.6,4.9,31.4,10.7,66.4,12.3l0,0c38,1.7,49.2,2.1,144.9,2.1s107.1-0.3,144.9-2.1c34.9-1.6,54-7.4,66.6-12.3
			c16.7-6.5,28.7-14.3,41.2-26.8s20.3-24.5,26.8-41.2c4.9-12.6,10.7-31.6,12.3-66.5c1.7-37.8,2.1-49.1,2.1-144.8s-0.3-107-2.1-144.8
			C692.1,159.3,686.3,140.3,681.4,127.7z M402,523c-101.6,0-184-82-184-184l0,0c0-102,82.4-184,184-184s184,82.4,184,184
			S503.6,523,402,523z M593.3,190.8c-23.7,0-43-19.2-43-42.9c0-23.7,19.3-42.9,43-42.9l0,0c23.7,0,43,19.2,43,42.9
			S617,190.8,593.3,190.8z"/>
		<path id="XMLID_17_" class="st4" d="M402,219.6c-66,0-119.4,53.5-119.4,119.4S336,458.5,402,458.5S521.4,405,521.4,339.1
			S468,219.6,402,219.6z"/>
		<path id="XMLID_25_" class="st4" d="M879.8,99.3c-2.6-57.4-12.2-88.5-20.2-109.2c-10.7-27.5-23.4-47.1-44-67.6s-40.2-33.4-67.6-44
			c-20.8-8-51.9-17.6-109.2-20.2c-62.1-2.8-80.6-3.4-237.7-3.4c-157,0-175.7,0.6-237.7,3.4c-57.4,2.6-88.5,12.2-109.2,20.2
			C26.6-111,7-98.2-13.6-77.6s-33.3,40.2-44,67.7c-8,20.8-17.6,51.9-20.2,109.2c-2.8,62.1-3.4,80.6-3.4,237.7s0.6,175.7,3.4,237.7
			c2.6,57.4,12.2,88.5,20.2,109.2c10.6,27.5,23.4,47,44,67.6s40.2,33.3,67.6,44c20.7,8.1,51.9,17.6,109.2,20.2l0,0
			c62,2.9,80.6,3.4,237.7,3.4s175.7-0.6,237.7-3.4c57.4-2.6,88.5-12.2,109.2-20.2c27.5-10.7,47.1-23.4,67.6-44s33.3-40.2,44-67.6
			c8-20.7,17.6-51.9,20.2-109.2c2.8-62.1,3.4-80.7,3.4-237.7C883.2,179.9,882.7,161.4,879.8,99.3z M758.1,486.8
			c-1.7,38.1-7.8,64.2-16.6,87c-9.2,23.6-21.4,43.6-41.3,63.5c-19.9,19.9-39.9,32.2-63.5,41.3c-22.8,8.9-48.8,14.9-87,16.6
			c-38.2,1.8-50.4,2.2-147.7,2.2s-109.5-0.4-147.7-2.2c-38.1-1.7-64.2-7.8-87-16.6c-23.6-9.2-43.5-21.4-63.5-41.3
			c-19.9-19.9-32.2-39.9-41.3-63.5c-8.9-22.8-14.9-48.8-16.6-87c-1.8-38.2-2.2-50.4-2.2-147.7s0.4-109.5,2.2-147.7
			c1.7-38.1,7.8-64.2,16.6-87c9.1-23.6,21.4-43.6,41.3-63.5s39.9-32.1,63.5-41.3c22.8-8.9,48.8-14.6,87-16.6l0,0
			c38.2-2,50.5-2.2,147.8-2.2s109.5,0.4,147.7,2.2c38.1,1.7,64.2,7.8,87,16.6c23.5,9.1,43.5,21.4,63.4,41.3s32.2,39.9,41.3,63.5
			c8.9,22.8,14.9,48.8,16.6,87c1.7,38.2,2.1,50.4,2.1,147.7S759.9,448.5,758.1,486.8z"/>
	</g>
</g>
<g id="Calque_2" class="st0">
	<path id="XMLID_10_" class="st5" d="M213.6,750c383.4,0,593.1-317.8,593.1-593.3c0-9-0.2-18-0.6-27c40.8-29.5,76-66.1,104-108
		c-37.3,16.6-77.5,27.8-119.7,32.8c43-25.8,76.1-66.7,91.7-115.3c-40.9,24.3-85.7,41.4-132.4,50.6c-38-40.5-92.2-65.9-152.2-65.9
		C482.3-76,389,17.4,389,132.5c0,16.4,1.8,32.3,5.4,47.5C221.2,171.3,67.5,88.3-35.3-37.9C-53.8-6-63.5,30.2-63.5,67
		c0,72.3,36.8,136.2,92.8,173.6c-33.1-1-65.5-10-94.4-26.1c0,0.9,0,1.7,0,2.7c0,101,71.8,185.3,167.2,204.4
		c-17.9,4.9-36.4,7.3-55,7.3c-13.4,0-26.5-1.3-39.2-3.8C34.5,508,111.4,568.3,202.6,570c-71.3,55.9-161.2,89.3-258.9,89.3
		c-16.6,0-33.2-1-49.7-2.9C-13.7,715.5,95.8,750,213.6,750"/>
</g>
<g id="Calque_3" class="st0">
	<path id="XMLID_19_" class="st5" d="M402-144.2C136.3-144.2-79.2,71.3-79.2,337c0,201.1,123.5,373.5,298.7,445.4
		c-20.3-157,37-276.4,63.9-402.8c-46.7-74.9,5.8-226.2,104.3-188.9c121.3,45.8-105.1,278.9,46.9,308
		C593.4,529.2,658.1,236.3,559.9,141c-142.5-137.3-414-3-380.5,193.5c4.1,24.4,44.2,62.9,44.2,62.9s-1.9,23.3-12.4,66.4
		c-91.1-19.2-129.3-87.6-125.7-178.7C91,135.8,226,31.5,361.7,16.9l0,0C533-1.5,693.9,76.7,716.4,230.5
		c25,173.5-77.4,361.3-260.8,347.8c-49.7-3.6-70.5-27.2-109.5-49.7c-20.7,103.3-45.7,202.5-117.2,257.5
		c53.8,20.8,112.2,32.1,173.2,32.1c265.7,0,481.2-215.5,481.2-481.2S667.7-144.2,402-144.2z"/>
</g>
<g id="Calque_4" class="st0">
	<path id="XMLID_20_" class="st5" d="M804.1-136H-2.1C-40.7-136-72-105.6-72-68.2v810.5c0,37.4,31.3,67.7,69.9,67.7h806.2
		c38.6,0,69.9-30.3,69.9-67.8V-68.2C874-105.6,842.7-136,804.1-136z M74,656V230h141v426H74z M144.7,171.8v0.2h-0.9
		c-47.5,0-78.2-32.9-78.2-73.8c0-41.8,31.6-73.7,80.1-73.7c48.4,0,78.2,31.8,79.1,73.6C224.8,139.1,194.1,171.8,144.7,171.8z
		 M726,656H584V427.9c0-57.3-20.3-96.3-71.5-96.3c-39.1,0-62.5,26.3-72.7,51.8c-3.7,9.1-4.8,21.8-4.8,34.5V656H293.8l0,0
		c0,0,1.9-386,0-426H435v60.1c19-29,52.7-70.3,127.8-70.3c93.1,0,163.2,60.9,163.2,191.7V656z"/>
</g>
<g id="Calque_5" class="st0">
	<g id="XMLID_4_" class="st3">
		<path id="XMLID_26_" class="st4" d="M639.7-10H162.3C-99-10-99,64.5-99,247.5v178.9C-99,600.5-62,684,162.3,684h477.4
			C842.3,684,901,635.2,901,426.5v-179C901,54.9,891.1-10,639.7-10z M299,473V192.1l269.5,140L299,473z"/>
		<polygon id="XMLID_2_" class="st6" points="535.4,349.4 298.8,192.1 568.4,332.1 		"/>
	</g>
</g>
<g id="Calque_6" class="st0">
</g>
<g>
	<g>
		<path class="st4" d="M402.1-159.5c-275.7,0-498.9,223.2-498.9,498.9c0,211.2,131.1,391.8,316.9,464.4
			c-4.5-39.7-8.2-99.6,1.5-143.1c9-39,58.4-248,58.4-248s-15-30-15-74.2c0-69.7,40.5-121.4,89.9-121.4c42.7,0,62.9,32.2,62.9,70.4
			c0,42.7-27,107.1-41.2,166.3c-12,49.4,24.7,89.9,74.2,89.9c88.4,0,156.6-93.6,156.6-228.5c0-119.1-86.1-203-208.3-203
			c-141.6,0-225.5,106.4-225.5,216.5c0,42.7,16.5,89.1,37.5,113.9c3.7,5.2,4.5,9,3.7,14.2c-3.7,15.7-12,49.4-13.5,56.2
			c-2.2,9-7.5,11.2-16.5,6.7C122.7,490.7,83.8,400.1,83.8,326.6c0-157.3,114.6-301.9,329.6-301.9c173,0,307.1,123.6,307.1,287.7
			c0,171.5-108.6,310.1-258.4,310.1c-50.2,0-98.1-26.2-114.6-56.9c0,0-24.7,95.1-30.7,118.4c-11.2,43.4-41.9,97.4-62.2,131.1
			c46.4,14.2,95.9,22.5,147.6,22.5c275.7,0,498.9-223.2,498.9-498.9C901.1,63.7,677.8-159.5,402.1-159.5z"/>
	</g>
</g>
</svg>
