<?xml version="1.0" encoding="utf-8"?>
<!-- Generator: Adobe Illustrator 19.0.0, SVG Export Plug-In . SVG Version: 6.00 Build 0)  -->
<svg version="1.1" xmlns="http://www.w3.org/2000/svg" xmlns:xlink="http://www.w3.org/1999/xlink" x="0px" y="0px"
	 viewBox="-185 224 589 114" style="enable-background:new -185 224 589 114;" xml:space="preserve">
<style type="text/css">
	.st0{display:none;}
	.st1{display:inline;}
	.st2{fill:#EBFFAA;}
	.st3{fill:#E90052;}
	.st4{font-family:'DentonCondensedTest-BlackItalic';}
	.st5{font-size:93.7594px;}
	.st6{fill:#3AF9BA;}
	.st7{font-family:'NexaSlabHeavyOblique';}
	.st8{font-size:72.4382px;}
	.st9{enable-background:new    ;}
	.st10{clip-path:url(#SVGID_2_);}
	.st11{clip-path:url(#SVGID_4_);}
	.st12{clip-path:url(#SVGID_6_);}
	.st13{clip-path:url(#SVGID_8_);}
	.st14{clip-path:url(#SVGID_10_);}
	.st15{clip-path:url(#SVGID_12_);}
	.st16{clip-path:url(#SVGID_14_);}
	.st17{clip-path:url(#SVGID_16_);}
	.st18{clip-path:url(#SVGID_18_);}
	.st19{clip-path:url(#SVGID_20_);}
	.st20{clip-path:url(#SVGID_22_);}
	.st21{clip-path:url(#SVGID_24_);}
</style>
<g id="Calque_1">
	<g id="Calque_1_1_" class="st0">
		<g id="Sauvegarde" class="st1">
			<g id="Calque_5">
				<rect x="-1" y="269.7" class="st2" width="405" height="1.9"/>
				<rect x="-185" y="307.7" class="st2" width="208" height="1.9"/>
			</g>
			<text transform="matrix(1 0 0 1 -177.0725 295.2568)" class="st3 st4 st5">Marine</text>
			<text transform="matrix(1 0 0 1 -23.9038 318.7645)" class="st6 st7 st8">Industry</text>
		</g>
		<g id="Calque_4" class="st1">
		</g>
	</g>
	<g id="Calque_1_2_">
		<g id="Sauvegarde_1_">
			<g id="Calque_5_1_">
				<rect x="-136.7" y="269.7" class="st2" width="540.7" height="1.9"/>
				<rect x="-185" y="307.7" class="st2" width="582.3" height="1.9"/>
			</g>
			<g class="st9">
				<path class="st3" d="M-144.7,285.2l-0.5-12.2H-162l-7.5,12.2c-4,6.6-1.3,7.8,0.9,8.4l-0.5,1.6h-15.6l0.5-1.6
					c3.6-1,7.3-2.3,11.1-8.4l35.2-57.5h6.6l2.3,57.5c0.3,5.6,2.3,7.5,4.6,8.4l-0.6,1.6h-26.5l0.5-1.6
					C-148.5,293-144.3,291.4-144.7,285.2z M-145.4,269.9l-0.8-22.6l-13.9,22.6H-145.4z"/>
				<path class="st3" d="M-99.2,285.4c-4,7.9-8.5,11-13.3,11c-9.1,0-11.7-11.8-7.1-25.7c5.8-17.3,18.1-24.6,26-23.5
					c2.9,0.4,4.6,1.7,5.5,3.2l4-12.3c1.4-5.6-1-6.7-2.7-7l0.3-1.5l21.2-3.2L-83,281c-1.8,5.8-1.2,8,0,8s3.7-2.1,7.4-8.7l1,0.8
					c-3.7,8.4-10.1,15.3-17.1,15.3C-97,296.4-100.2,292.7-99.2,285.4z M-96.2,274.8l7.2-21.9c-0.6-0.9-1.3-1.3-2.5-1.3
					c-3.4,0-7.2,4.2-11.7,17.8c-3.3,9.9-5.3,18.5-1.8,18.9C-103.4,288.5-100.2,285.9-96.2,274.8z"/>
				<path class="st3" d="M-50.2,285.4c-4,7.9-8.5,11-13.3,11c-9.1,0-11.7-11.8-7.1-25.7c5.8-17.3,18.1-24.6,26-23.5
					c2.9,0.4,4.6,1.7,5.5,3.2l4-12.3c1.4-5.6-1-6.7-2.7-7l0.3-1.5l21.2-3.2L-34.1,281c-1.8,5.8-1.2,8,0,8s3.7-2.1,7.4-8.7l1,0.8
					c-3.7,8.4-10.1,15.3-17.1,15.3C-48.1,296.4-51.2,292.7-50.2,285.4z M-47.2,274.8l7.2-21.9c-0.6-0.9-1.3-1.3-2.5-1.3
					c-3.4,0-7.2,4.2-11.7,17.8c-3.3,9.9-5.3,18.5-1.8,18.9C-54.4,288.5-51.2,285.9-47.2,274.8z"/>
				<path class="st3" d="M-17.3,249.2l0.5-1.5H2.9l-5.3,17.6C3,252.2,10.4,245.1,19,247.4l-6.4,14h-0.8c-5.3-3.5-13.2,1.5-19.3,20.4
					l-4.1,13.4h-15l11.8-37.8C-13.1,251.6-15.2,249.8-17.3,249.2z"/>
				<path class="st3" d="M14.1,268.4c5.3-14.3,16.3-21.3,26.3-21.3c8.3,0,14.6,4.9,12.4,12.6c-2.4,8.7-13.2,12.4-25.2,13.9
					c-1.5,9.3,1.2,14.6,6.2,14.8c3.3,0.2,8.6-2,13-9.7l1,0.8c-5.6,12.5-14.5,16.9-21.3,16.9C14.9,296.4,8.2,284.3,14.1,268.4z
					 M41,257.2c1-3.3,1.7-7.2-0.8-7.2c-2.8,0-7,5.7-10.1,14.3c-0.9,2.5-1.6,4.9-2.1,7C35.9,269.3,39.3,262.8,41,257.2z"/>
				<path class="st3" d="M48.7,291.6l4.6-13.4h0.9c1.5,3.9,3.1,7.6,4.9,10.2c2.2,3.3,4.5,5.1,6.8,5c2,0,4.1-1.2,4.2-3.9
					c0.2-4.4-5.5-10.5-9.3-16.1c-3.6-5.3-4.5-8.4-4.3-12c0.3-8.4,7.6-14.3,17.4-14.3c4.3,0,9.4,1.1,14.2,3.8l-4.5,12.9h-0.8
					c-0.8-3.1-1.8-6-2.8-8.1c-2-3.7-4.3-5.8-6.9-5.8c-2,0-4.2,1.2-4.2,3.8c0,4,5.4,9.7,9.3,15.7c2.8,4.7,4,8.3,3.7,12.8
					C81,290,75.1,296.4,65,296.4C59.2,296.4,53.4,294.3,48.7,291.6z"/>
				<path class="st3" d="M83.1,291.6l4.6-13.4h0.9c1.5,3.9,3.1,7.6,4.9,10.2c2.2,3.3,4.5,5.1,6.8,5c2,0,4.1-1.2,4.2-3.9
					c0.2-4.4-5.5-10.5-9.3-16.1c-3.6-5.3-4.5-8.4-4.3-12c0.3-8.4,7.6-14.3,17.4-14.3c4.3,0,9.4,1.1,14.2,3.8l-4.5,12.9h-0.8
					c-0.8-3.1-1.8-6-2.8-8.1c-2-3.7-4.3-5.8-6.9-5.8c-2,0-4.2,1.2-4.2,3.8c0,4,5.4,9.7,9.3,15.7c2.8,4.7,4,8.3,3.7,12.8
					c-0.8,7.8-6.7,14.2-16.8,14.2C93.6,296.4,87.8,294.3,83.1,291.6z"/>
				<path class="st3" d="M121.4,280.6l7.5-24.1c1.4-5.6-0.9-6.8-2.7-7.3l0.4-1.5h20.2L136.3,281c-1.9,5.8-1.2,8,0,8
					c1.1,0,3.5-1.7,7.4-8.7l0.9,0.8c-3.7,8.4-9.9,15.3-17,15.3C121.3,296.4,118.1,290.9,121.4,280.6z M141.3,226.7
					c4.5,0,8.2,3.8,8.1,8.7c-0.1,4.7-3.7,8.5-8.3,8.5c-4.5,0-8.1-3.7-8.1-8.4S136.7,226.7,141.3,226.7z"/>
				<path class="st3" d="M172.9,280.6l6.2-18.3c2.2-6.5,1.3-7.8,0.2-7.8c-2.4,0-10.5,9.4-16.5,28.1l-3.8,12.6h-15.1l11.8-37.8
					c1.8-5.9-0.4-7.7-2.4-8.3l0.5-1.5h19.8l-5.1,16.4c6.8-12.2,13.2-17.1,19.2-17.1c6.3,0,9.8,5.5,7,13.6l-6.8,20.3
					c-1.9,5.8-1.2,8,0,8c1.1,0,3.5-1.7,7.4-8.7l1,0.8c-3.7,8.4-10.1,15.3-17.1,15.3C172.8,296.4,169.5,290.9,172.9,280.6z"/>
				<path class="st3" d="M192,303.5c1.6-5.6,9.5-6.4,15.5-2.6l0.3,0.8c-2.4,0.8-3.8,2.4-4.1,4.1c-1.2,4.5,3.1,7.1,8.9,7.2
					c4.4,0.1,9.7-1.7,11-5.8c1.2-3.5-0.7-6.5-5.6-7.5l-12.1-2.5c-10.3-2.2-10.6-8.1-9.5-11.3c1.4-4.1,5.1-6.1,9.2-7.5
					c-3.9-3-5.9-8.3-3.9-15.1c3.2-10.9,13.9-16.2,22.5-16.2c5.5,0.1,10.2,2.3,12.8,6c2.3-4.4,6.8-7.5,11.3-5.8l-3.3,8.5
					c-1.7-1-4.2-1.7-6.8-0.4c1,2.8,1.2,6.2,0.1,9.9c-3.4,11.4-15.5,16-23.3,16c-2.6,0-5-0.6-7-1.6c-0.8,0.5-1.1,1-1.3,1.6
					c-0.4,1.4,0.7,2.5,4.5,3.4l12,2.5c11.2,2.4,12.7,10.2,10.4,16.4c-2.9,7.9-11.9,12.4-22.4,12.2
					C201.2,315.9,189.6,311.6,192,303.5z M223.8,264.4c1.8-6,3.9-14.4,0.5-14.4c-3.4,0-6.4,7.9-8.3,14.3c-1.9,6.3-4,14.3-0.6,14.3
					C218.8,278.7,221.9,271.3,223.8,264.4z"/>
			</g>
			<g class="st9">
				<path class="st6" d="M-123.7,311.7l2.2-12.5h9.6l-0.7,7.2c1.9,0.9,5.4,1.7,9.3,1.7c6,0,12.2-1.4,12.2-7.2c0-4.9-7.2-5-10.4-5.6
					c-10.1-1.2-18.1-4.8-16.3-15.8c1.9-10.1,11.9-14.7,23.3-14.7c9.2,0,13.8,2.7,16.7,5.8c-0.9,4.3-1.4,6.6-2.1,10.8h-9.3l0.5-6
					c-2-0.9-4-1.4-7.6-1.4c-5.1,0-9.8,1.5-10.6,5.8c-0.7,3.6,2.3,5.1,8.3,5.8c10.8,1.3,20.2,4.8,18.7,16.3
					c-1,10.1-8.6,15.9-24.9,15.9C-114.2,317.7-119.8,315.7-123.7,311.7z"/>
				<path class="st6" d="M-36.4,307.7h5l-1.6,9.1h-12.6l-0.2-4.5c-4.6,4-9.3,5.1-12.7,5.1c-13.1,0-14.8-8-13-18.2l1.7-9.9h-4.6
					l1.5-8.5h14.6l-3.3,18.3c-0.9,5-0.6,8.5,7,8.5c4.9-0.1,8.9-4.2,9.8-9.2l1.6-9.1h-5.4l1.5-8.5h15.4L-36.4,307.7z"/>
				<path class="st6" d="M-2,292.3l0.3-4.1c-0.9-0.6-3.3-1-5.4-1c-3.3,0-6.5,1.2-6.5,4.3c0,2.2,3.2,2.5,5.2,2.7
					c8.8,0.5,15.4,3.5,14.1,12.6c-1.4,7-7,11.3-18,11.3c-5.6,0-11-1.1-15.4-4.2l2-9.9h8.5l-0.3,4c1.1,0.7,3.6,1.2,6.2,1.3
					c3.5,0.1,7-0.7,7-3.5c0-1.7-2-3-6.3-3.2c-8.3-1-14.6-4.1-13.1-11.9c1.4-8,10.4-11.2,18.3-11.2c4.7,0,9.6,1,13.5,3l-1.9,9.9H-2z"
					/>
				<path class="st6" d="M30.9,271.2l-1.7,9.9h9.3l-1.5,8.6h-9.4L25,303.8c-0.7,4.4,3,5.5,7.7,3.7l0.8,8.3c-3.8,1.3-5.7,1.5-8.9,1.5
					c-6.5-0.1-11.2-3.8-9.5-13.5l2.5-14.1h-6.2l1.5-8.6H19l1.5-8.8L30.9,271.2z"/>
				<path class="st6" d="M82.9,308l-1.6,8.8H67.6l0.1-4.1c-5.5,4.7-8.8,5-14.1,5c-8.8,0-14.2-6.1-14.2-15.4
					c0-11.5,8.3-21.7,21.2-22.3c5,0,9.2,0.6,12,4.6l1.1-3.7h13.6l-1.6,9h-4.6L78,308H82.9z M49.8,300.9c0,4.6,2.7,8,7.9,8
					c6.3,0,11.2-4.2,12.2-9.6c1-5.6-1.9-9.9-8.2-9.9C55,289.4,49.8,294.7,49.8,300.9z"/>
				<path class="st6" d="M108.4,280.8l-4.8,27.2h4.1l-1.6,8.8H87.2l1.6-8.8h4.6l3.2-18.5h-4.5l1.6-8.7H108.4z M99,272.2
					c0-4.2,3.7-6.6,7-6.6c2.9,0,5.2,1.7,5.2,4.9c0,4.1-3.7,6.6-7.1,6.6C101.3,277.1,99,275.3,99,272.2z"/>
				<path class="st6" d="M128.2,307.8h5.3l-1.6,9h-20.4l1.6-9h5.3l3.2-18.3h-5l1.6-8.8H132l0.1,3.7c3.9-3.3,8-4.1,10.9-4.1
					c9.8,0,14.5,4.6,12.2,17.5l-1.7,10h5.1l-1.6,9h-19.2l1.6-9h4l1.7-9.9c0.7-3.8,0.9-8.1-5.6-8.1c-4.9-0.1-8.8,3.3-9.7,8.8
					L128.2,307.8z"/>
				<path class="st6" d="M206.9,308l-1.6,8.8h-13.7l0.1-4.1c-5.5,4.7-8.8,5-14.1,5c-8.8,0-14.2-6.1-14.2-15.4
					c0-11.5,8.3-21.7,21.2-22.3c5,0,9.2,0.6,12,4.6l1.1-3.7h13.6l-1.6,9h-4.6L202,308H206.9z M173.8,300.9c0,4.6,2.7,8,7.9,8
					c6.3,0,11.2-4.2,12.2-9.6c1-5.6-1.9-9.9-8.2-9.9C179,289.4,173.8,294.7,173.8,300.9z"/>
				<path class="st6" d="M210.1,316.8l1.6-9h5l5.8-32.9h-4.8l1.5-8.8H234l-3.3,18.7c2.9-3,7.8-4.9,12.7-4.9
					c8.9,0,14.6,4.9,14.6,14.8c0,14.9-9.7,22.8-22.3,22.7c-3.8,0-8.3-1.4-9.9-4.7l-1.4,4.1H210.1z M229,298.6
					c-1.3,7.3,3.9,9.5,7.5,9.5c5.7,0,10.9-4.2,10.9-11.2c0-5.2-3.4-7.6-7.9-7.6C236.7,289.3,230.4,291.3,229,298.6z"/>
				<path class="st6" d="M281.3,280.8l-4.8,27.2h4.1l-1.6,8.8h-18.9l1.6-8.8h4.6l3.2-18.5H265l1.6-8.7H281.3z M271.9,272.2
					c0-4.2,3.7-6.6,7-6.6c2.9,0,5.2,1.7,5.2,4.9c0,4.1-3.7,6.6-7.1,6.6C274.2,277.1,271.9,275.3,271.9,272.2z"/>
				<path class="st6" d="M292.8,266.1h14.6l-7.3,41.9h4.3l-1.6,8.8h-19.3l1.6-8.8h4.9l5.8-33.1h-4.6L292.8,266.1z"/>
				<path class="st6" d="M329.5,280.8l-4.8,27.2h4.1l-1.6,8.8h-18.9l1.6-8.8h4.6l3.2-18.5h-4.5l1.6-8.7H329.5z M320.2,272.2
					c0-4.2,3.7-6.6,7-6.6c2.9,0,5.2,1.7,5.2,4.9c0,4.1-3.7,6.6-7.1,6.6C322.5,277.1,320.2,275.3,320.2,272.2z"/>
				<path class="st6" d="M354.4,271.2l-1.7,9.9h9.3l-1.5,8.6H351l-2.5,14.1c-0.7,4.4,3,5.5,7.7,3.7l0.8,8.3
					c-3.8,1.3-5.7,1.5-8.9,1.5c-6.5-0.1-11.2-3.8-9.5-13.5l2.5-14.1h-6.2l1.5-8.6h6.2l1.5-8.8L354.4,271.2z"/>
				<path class="st6" d="M379.5,317.1c-8.5,0-15-4.2-12.6-18l1.7-9.6h-5.2l1.5-8.8h15.2l-3.3,18.4c-0.8,4.3-0.9,8.9,6.7,8.9
					c5.3-0.1,8.3-4.1,9.3-9.3l1.7-9.3h-5.4l1.5-8.8h15.4l-6.3,35.9c-2.5,13.8-11.1,18.5-21.3,18.5c-9.9,0-16.7-4.2-15.2-15h9.9
					c-0.4,3.9,2.3,5.7,6.6,5.7c4.9,0,9.4-3.2,10.4-9.1l0.7-4C387.5,316.2,384.3,317.1,379.5,317.1z"/>
			</g>
		</g>
		<g id="Calque_4_1_">
		</g>
	</g>
	<g id="Calque_1_3_">
		<g id="Sauvegarde_2_">
			<g class="st9">
				<g>
					<defs>
						<path id="SVGID_1_" d="M-99.2,285.4c-4,7.9-8.5,11-13.3,11c-9.1,0-11.7-11.8-7.1-25.7c5.8-17.3,18.1-24.6,26-23.5
							c2.9,0.4,4.6,1.7,5.5,3.2l4-12.3c1.4-5.6-1-6.7-2.7-7l0.3-1.5l21.2-3.2L-83,281c-1.8,5.8-1.2,8,0,8s3.7-2.1,7.4-8.7l1,0.8
							c-3.7,8.4-10.1,15.3-17.1,15.3C-97,296.4-100.2,292.7-99.2,285.4z M-96.2,274.8l7.2-21.9c-0.6-0.9-1.3-1.3-2.5-1.3
							c-3.4,0-7.2,4.2-11.7,17.8c-3.3,9.9-5.3,18.5-1.8,18.9C-103.4,288.5-100.2,285.9-96.2,274.8z"/>
					</defs>
					<clipPath id="SVGID_2_">
						<use xlink:href="#SVGID_1_"  style="overflow:visible;"/>
					</clipPath>
					<path class="st10" d="M-123.7,311.7l2.2-12.5h9.6l-0.7,7.2c1.9,0.9,5.4,1.7,9.3,1.7c6,0,12.2-1.4,12.2-7.2
						c0-4.9-7.2-5-10.4-5.6c-10.1-1.2-18.1-4.8-16.3-15.8c1.9-10.1,11.9-14.7,23.3-14.7c9.2,0,13.8,2.7,16.7,5.8
						c-0.9,4.3-1.4,6.6-2.1,10.8h-9.3l0.5-6c-2-0.9-4-1.4-7.6-1.4c-5.1,0-9.8,1.5-10.6,5.8c-0.7,3.6,2.3,5.1,8.3,5.8
						c10.8,1.3,20.2,4.8,18.7,16.3c-1,10.1-8.6,15.9-24.9,15.9C-114.2,317.7-119.8,315.7-123.7,311.7z"/>
				</g>
				<g>
					<defs>
						<path id="SVGID_3_" d="M-50.2,285.4c-4,7.9-8.5,11-13.3,11c-9.1,0-11.7-11.8-7.1-25.7c5.8-17.3,18.1-24.6,26-23.5
							c2.9,0.4,4.6,1.7,5.5,3.2l4-12.3c1.4-5.6-1-6.7-2.7-7l0.3-1.5l21.2-3.2L-34.1,281c-1.8,5.8-1.2,8,0,8s3.7-2.1,7.4-8.7l1,0.8
							c-3.7,8.4-10.1,15.3-17.1,15.3C-48.1,296.4-51.2,292.7-50.2,285.4z M-47.2,274.8l7.2-21.9c-0.6-0.9-1.3-1.3-2.5-1.3
							c-3.4,0-7.2,4.2-11.7,17.8c-3.3,9.9-5.3,18.5-1.8,18.9C-54.4,288.5-51.2,285.9-47.2,274.8z"/>
					</defs>
					<clipPath id="SVGID_4_">
						<use xlink:href="#SVGID_3_"  style="overflow:visible;"/>
					</clipPath>
					<path class="st11" d="M-36.4,307.7h5l-1.6,9.1h-12.6l-0.2-4.5c-4.6,4-9.3,5.1-12.7,5.1c-13.1,0-14.8-8-13-18.2l1.7-9.9h-4.6
						l1.5-8.5h14.6l-3.3,18.3c-0.9,5-0.6,8.5,7,8.5c4.9-0.1,8.9-4.2,9.8-9.2l1.6-9.1h-5.4l1.5-8.5h15.4L-36.4,307.7z"/>
				</g>
				<g>
					<defs>
						<path id="SVGID_5_" d="M-17.3,249.2l0.5-1.5H2.9l-5.3,17.6C3,252.2,10.4,245.1,19,247.4l-6.4,14h-0.8
							c-5.3-3.5-13.2,1.5-19.3,20.4l-4.1,13.4h-15l11.8-37.8C-13.1,251.6-15.2,249.8-17.3,249.2z"/>
					</defs>
					<clipPath id="SVGID_6_">
						<use xlink:href="#SVGID_5_"  style="overflow:visible;"/>
					</clipPath>
					<path class="st12" d="M-2,292.3l0.3-4.1c-0.9-0.6-3.3-1-5.4-1c-3.3,0-6.5,1.2-6.5,4.3c0,2.2,3.2,2.5,5.2,2.7
						c8.8,0.5,15.4,3.5,14.1,12.6c-1.4,7-7,11.3-18,11.3c-5.6,0-11-1.1-15.4-4.2l2-9.9h8.5l-0.3,4c1.1,0.7,3.6,1.2,6.2,1.3
						c3.5,0.1,7-0.7,7-3.5c0-1.7-2-3-6.3-3.2c-8.3-1-14.6-4.1-13.1-11.9c1.4-8,10.4-11.2,18.3-11.2c4.7,0,9.6,1,13.5,3l-1.9,9.9H-2z
						"/>
				</g>
				<g>
					<defs>
						<path id="SVGID_7_" d="M14.1,268.4c5.3-14.3,16.3-21.3,26.3-21.3c8.3,0,14.6,4.9,12.4,12.6c-2.4,8.7-13.2,12.4-25.2,13.9
							c-1.5,9.3,1.2,14.6,6.2,14.8c3.3,0.2,8.6-2,13-9.7l1,0.8c-5.6,12.5-14.5,16.9-21.3,16.9C14.9,296.4,8.2,284.3,14.1,268.4z
							 M41,257.2c1-3.3,1.7-7.2-0.8-7.2c-2.8,0-7,5.7-10.1,14.3c-0.9,2.5-1.6,4.9-2.1,7C35.9,269.3,39.3,262.8,41,257.2z"/>
					</defs>
					<clipPath id="SVGID_8_">
						<use xlink:href="#SVGID_7_"  style="overflow:visible;"/>
					</clipPath>
					<path class="st13" d="M30.9,271.2l-1.7,9.9h9.3l-1.5,8.6h-9.4L25,303.8c-0.7,4.4,3,5.5,7.7,3.7l0.8,8.3
						c-3.8,1.3-5.7,1.5-8.9,1.5c-6.5-0.1-11.2-3.8-9.5-13.5l2.5-14.1h-6.2l1.5-8.6H19l1.5-8.8L30.9,271.2z"/>
				</g>
				<g>
					<defs>
						<path id="SVGID_9_" d="M48.7,291.6l4.6-13.4h0.9c1.5,3.9,3.1,7.6,4.9,10.2c2.2,3.3,4.5,5.1,6.8,5c2,0,4.1-1.2,4.2-3.9
							c0.2-4.4-5.5-10.5-9.3-16.1c-3.6-5.3-4.5-8.4-4.3-12c0.3-8.4,7.6-14.3,17.4-14.3c4.3,0,9.4,1.1,14.2,3.8l-4.5,12.9h-0.8
							c-0.8-3.1-1.8-6-2.8-8.1c-2-3.7-4.3-5.8-6.9-5.8c-2,0-4.2,1.2-4.2,3.8c0,4,5.4,9.7,9.3,15.7c2.8,4.7,4,8.3,3.7,12.8
							C81,290,75.1,296.4,65,296.4C59.2,296.4,53.4,294.3,48.7,291.6z"/>
					</defs>
					<clipPath id="SVGID_10_">
						<use xlink:href="#SVGID_9_"  style="overflow:visible;"/>
					</clipPath>
					<path class="st14" d="M82.9,308l-1.6,8.8H67.6l0.1-4.1c-5.5,4.7-8.8,5-14.1,5c-8.8,0-14.2-6.1-14.2-15.4
						c0-11.5,8.3-21.7,21.2-22.3c5,0,9.2,0.6,12,4.6l1.1-3.7h13.6l-1.6,9h-4.6L78,308H82.9z M49.8,300.9c0,4.6,2.7,8,7.9,8
						c6.3,0,11.2-4.2,12.2-9.6c1-5.6-1.9-9.9-8.2-9.9C55,289.4,49.8,294.7,49.8,300.9z"/>
				</g>
				<g>
					<defs>
						<path id="SVGID_11_" d="M83.1,291.6l4.6-13.4h0.9c1.5,3.9,3.1,7.6,4.9,10.2c2.2,3.3,4.5,5.1,6.8,5c2,0,4.1-1.2,4.2-3.9
							c0.2-4.4-5.5-10.5-9.3-16.1c-3.6-5.3-4.5-8.4-4.3-12c0.3-8.4,7.6-14.3,17.4-14.3c4.3,0,9.4,1.1,14.2,3.8l-4.5,12.9h-0.8
							c-0.8-3.1-1.8-6-2.8-8.1c-2-3.7-4.3-5.8-6.9-5.8c-2,0-4.2,1.2-4.2,3.8c0,4,5.4,9.7,9.3,15.7c2.8,4.7,4,8.3,3.7,12.8
							c-0.8,7.8-6.7,14.2-16.8,14.2C93.6,296.4,87.8,294.3,83.1,291.6z"/>
					</defs>
					<clipPath id="SVGID_12_">
						<use xlink:href="#SVGID_11_"  style="overflow:visible;"/>
					</clipPath>
					<path class="st15" d="M82.9,308l-1.6,8.8H67.6l0.1-4.1c-5.5,4.7-8.8,5-14.1,5c-8.8,0-14.2-6.1-14.2-15.4
						c0-11.5,8.3-21.7,21.2-22.3c5,0,9.2,0.6,12,4.6l1.1-3.7h13.6l-1.6,9h-4.6L78,308H82.9z M49.8,300.9c0,4.6,2.7,8,7.9,8
						c6.3,0,11.2-4.2,12.2-9.6c1-5.6-1.9-9.9-8.2-9.9C55,289.4,49.8,294.7,49.8,300.9z"/>
				</g>
				<g>
					<defs>
						<path id="SVGID_13_" d="M83.1,291.6l4.6-13.4h0.9c1.5,3.9,3.1,7.6,4.9,10.2c2.2,3.3,4.5,5.1,6.8,5c2,0,4.1-1.2,4.2-3.9
							c0.2-4.4-5.5-10.5-9.3-16.1c-3.6-5.3-4.5-8.4-4.3-12c0.3-8.4,7.6-14.3,17.4-14.3c4.3,0,9.4,1.1,14.2,3.8l-4.5,12.9h-0.8
							c-0.8-3.1-1.8-6-2.8-8.1c-2-3.7-4.3-5.8-6.9-5.8c-2,0-4.2,1.2-4.2,3.8c0,4,5.4,9.7,9.3,15.7c2.8,4.7,4,8.3,3.7,12.8
							c-0.8,7.8-6.7,14.2-16.8,14.2C93.6,296.4,87.8,294.3,83.1,291.6z"/>
					</defs>
					<clipPath id="SVGID_14_">
						<use xlink:href="#SVGID_13_"  style="overflow:visible;"/>
					</clipPath>
					<path class="st16" d="M108.4,280.8l-4.8,27.2h4.1l-1.6,8.8H87.2l1.6-8.8h4.6l3.2-18.5h-4.5l1.6-8.7H108.4z M99,272.2
						c0-4.2,3.7-6.6,7-6.6c2.9,0,5.2,1.7,5.2,4.9c0,4.1-3.7,6.6-7.1,6.6C101.3,277.1,99,275.3,99,272.2z"/>
				</g>
				<g>
					<defs>
						<path id="SVGID_15_" d="M121.4,280.6l7.5-24.1c1.4-5.6-0.9-6.8-2.7-7.3l0.4-1.5h20.2L136.3,281c-1.9,5.8-1.2,8,0,8
							c1.1,0,3.5-1.7,7.4-8.7l0.9,0.8c-3.7,8.4-9.9,15.3-17,15.3C121.3,296.4,118.1,290.9,121.4,280.6z M141.3,226.7
							c4.5,0,8.2,3.8,8.1,8.7c-0.1,4.7-3.7,8.5-8.3,8.5c-4.5,0-8.1-3.7-8.1-8.4S136.7,226.7,141.3,226.7z"/>
					</defs>
					<clipPath id="SVGID_16_">
						<use xlink:href="#SVGID_15_"  style="overflow:visible;"/>
					</clipPath>
					<path class="st17" d="M128.2,307.8h5.3l-1.6,9h-20.4l1.6-9h5.3l3.2-18.3h-5l1.6-8.8H132l0.1,3.7c3.9-3.3,8-4.1,10.9-4.1
						c9.8,0,14.5,4.6,12.2,17.5l-1.7,10h5.1l-1.6,9h-19.2l1.6-9h4l1.7-9.9c0.7-3.8,0.9-8.1-5.6-8.1c-4.9-0.1-8.8,3.3-9.7,8.8
						L128.2,307.8z"/>
				</g>
				<g>
					<defs>
						<path id="SVGID_17_" d="M172.9,280.6l6.2-18.3c2.2-6.5,1.3-7.8,0.2-7.8c-2.4,0-10.5,9.4-16.5,28.1l-3.8,12.6h-15.1l11.8-37.8
							c1.8-5.9-0.4-7.7-2.4-8.3l0.5-1.5h19.8l-5.1,16.4c6.8-12.2,13.2-17.1,19.2-17.1c6.3,0,9.8,5.5,7,13.6l-6.8,20.3
							c-1.9,5.8-1.2,8,0,8c1.1,0,3.5-1.7,7.4-8.7l1,0.8c-3.7,8.4-10.1,15.3-17.1,15.3C172.8,296.4,169.5,290.9,172.9,280.6z"/>
					</defs>
					<clipPath id="SVGID_18_">
						<use xlink:href="#SVGID_17_"  style="overflow:visible;"/>
					</clipPath>
					<path class="st18" d="M128.2,307.8h5.3l-1.6,9h-20.4l1.6-9h5.3l3.2-18.3h-5l1.6-8.8H132l0.1,3.7c3.9-3.3,8-4.1,10.9-4.1
						c9.8,0,14.5,4.6,12.2,17.5l-1.7,10h5.1l-1.6,9h-19.2l1.6-9h4l1.7-9.9c0.7-3.8,0.9-8.1-5.6-8.1c-4.9-0.1-8.8,3.3-9.7,8.8
						L128.2,307.8z"/>
				</g>
				<g>
					<defs>
						<path id="SVGID_19_" d="M172.9,280.6l6.2-18.3c2.2-6.5,1.3-7.8,0.2-7.8c-2.4,0-10.5,9.4-16.5,28.1l-3.8,12.6h-15.1l11.8-37.8
							c1.8-5.9-0.4-7.7-2.4-8.3l0.5-1.5h19.8l-5.1,16.4c6.8-12.2,13.2-17.1,19.2-17.1c6.3,0,9.8,5.5,7,13.6l-6.8,20.3
							c-1.9,5.8-1.2,8,0,8c1.1,0,3.5-1.7,7.4-8.7l1,0.8c-3.7,8.4-10.1,15.3-17.1,15.3C172.8,296.4,169.5,290.9,172.9,280.6z"/>
					</defs>
					<clipPath id="SVGID_20_">
						<use xlink:href="#SVGID_19_"  style="overflow:visible;"/>
					</clipPath>
					<path class="st19" d="M206.9,308l-1.6,8.8h-13.7l0.1-4.1c-5.5,4.7-8.8,5-14.1,5c-8.8,0-14.2-6.1-14.2-15.4
						c0-11.5,8.3-21.7,21.2-22.3c5,0,9.2,0.6,12,4.6l1.1-3.7h13.6l-1.6,9h-4.6L202,308H206.9z M173.8,300.9c0,4.6,2.7,8,7.9,8
						c6.3,0,11.2-4.2,12.2-9.6c1-5.6-1.9-9.9-8.2-9.9C179,289.4,173.8,294.7,173.8,300.9z"/>
				</g>
				<g>
					<defs>
						<path id="SVGID_21_" d="M192,303.5c1.6-5.6,9.5-6.4,15.5-2.6l0.3,0.8c-2.4,0.8-3.8,2.4-4.1,4.1c-1.2,4.5,3.1,7.1,8.9,7.2
							c4.4,0.1,9.7-1.7,11-5.8c1.2-3.5-0.7-6.5-5.6-7.5l-12.1-2.5c-10.3-2.2-10.6-8.1-9.5-11.3c1.4-4.1,5.1-6.1,9.2-7.5
							c-3.9-3-5.9-8.3-3.9-15.1c3.2-10.9,13.9-16.2,22.5-16.2c5.5,0.1,10.2,2.3,12.8,6c2.3-4.4,6.8-7.5,11.3-5.8l-3.3,8.5
							c-1.7-1-4.2-1.7-6.8-0.4c1,2.8,1.2,6.2,0.1,9.9c-3.4,11.4-15.5,16-23.3,16c-2.6,0-5-0.6-7-1.6c-0.8,0.5-1.1,1-1.3,1.6
							c-0.4,1.4,0.7,2.5,4.5,3.4l12,2.5c11.2,2.4,12.7,10.2,10.4,16.4c-2.9,7.9-11.9,12.4-22.4,12.2
							C201.2,315.9,189.6,311.6,192,303.5z M223.8,264.4c1.8-6,3.9-14.4,0.5-14.4c-3.4,0-6.4,7.9-8.3,14.3c-1.9,6.3-4,14.3-0.6,14.3
							C218.8,278.7,221.9,271.3,223.8,264.4z"/>
					</defs>
					<clipPath id="SVGID_22_">
						<use xlink:href="#SVGID_21_"  style="overflow:visible;"/>
					</clipPath>
					<path class="st20" d="M206.9,308l-1.6,8.8h-13.7l0.1-4.1c-5.5,4.7-8.8,5-14.1,5c-8.8,0-14.2-6.1-14.2-15.4
						c0-11.5,8.3-21.7,21.2-22.3c5,0,9.2,0.6,12,4.6l1.1-3.7h13.6l-1.6,9h-4.6L202,308H206.9z M173.8,300.9c0,4.6,2.7,8,7.9,8
						c6.3,0,11.2-4.2,12.2-9.6c1-5.6-1.9-9.9-8.2-9.9C179,289.4,173.8,294.7,173.8,300.9z"/>
				</g>
				<g>
					<defs>
						<path id="SVGID_23_" d="M192,303.5c1.6-5.6,9.5-6.4,15.5-2.6l0.3,0.8c-2.4,0.8-3.8,2.4-4.1,4.1c-1.2,4.5,3.1,7.1,8.9,7.2
							c4.4,0.1,9.7-1.7,11-5.8c1.2-3.5-0.7-6.5-5.6-7.5l-12.1-2.5c-10.3-2.2-10.6-8.1-9.5-11.3c1.4-4.1,5.1-6.1,9.2-7.5
							c-3.9-3-5.9-8.3-3.9-15.1c3.2-10.9,13.9-16.2,22.5-16.2c5.5,0.1,10.2,2.3,12.8,6c2.3-4.4,6.8-7.5,11.3-5.8l-3.3,8.5
							c-1.7-1-4.2-1.7-6.8-0.4c1,2.8,1.2,6.2,0.1,9.9c-3.4,11.4-15.5,16-23.3,16c-2.6,0-5-0.6-7-1.6c-0.8,0.5-1.1,1-1.3,1.6
							c-0.4,1.4,0.7,2.5,4.5,3.4l12,2.5c11.2,2.4,12.7,10.2,10.4,16.4c-2.9,7.9-11.9,12.4-22.4,12.2
							C201.2,315.9,189.6,311.6,192,303.5z M223.8,264.4c1.8-6,3.9-14.4,0.5-14.4c-3.4,0-6.4,7.9-8.3,14.3c-1.9,6.3-4,14.3-0.6,14.3
							C218.8,278.7,221.9,271.3,223.8,264.4z"/>
					</defs>
					<clipPath id="SVGID_24_">
						<use xlink:href="#SVGID_23_"  style="overflow:visible;"/>
					</clipPath>
					<path class="st21" d="M210.1,316.8l1.6-9h5l5.8-32.9h-4.8l1.5-8.8H234l-3.3,18.7c2.9-3,7.8-4.9,12.7-4.9
						c8.9,0,14.6,4.9,14.6,14.8c0,14.9-9.7,22.8-22.3,22.7c-3.8,0-8.3-1.4-9.9-4.7l-1.4,4.1H210.1z M229,298.6
						c-1.3,7.3,3.9,9.5,7.5,9.5c5.7,0,10.9-4.2,10.9-11.2c0-5.2-3.4-7.6-7.9-7.6C236.7,289.3,230.4,291.3,229,298.6z"/>
				</g>
			</g>
		</g>
		<g id="Calque_4_2_">
		</g>
	</g>
	<g id="Calque_3">
	</g>
</g>
<g id="Calque_2_1_">
</g>
</svg>
