<?xml version="1.0" encoding="utf-8"?>
<!-- Generator: Adobe Illustrator 19.0.0, SVG Export Plug-In . SVG Version: 6.00 Build 0)  -->
<svg version="1.1" xmlns="http://www.w3.org/2000/svg" xmlns:xlink="http://www.w3.org/1999/xlink" x="0px" y="0px"
	 viewBox="-185 224 589 114" style="enable-background:new -185 224 589 114;" xml:space="preserve">
<style type="text/css">
	.st0{display:none;}
	.st1{display:inline;}
	.st2{fill:#EBFFAA;}
	.st3{display:inline;fill:#E90052;}
	.st4{font-family:'DentonCondensedTest-BlackItalic';}
	.st5{font-size:93.7594px;}
	.st6{display:inline;fill:#3AF9BA;}
	.st7{font-family:'NexaSlabHeavyOblique';}
	.st8{font-size:72.4382px;}
	.st9{enable-background:new    ;}
	.st10{fill:#E90052;}
	.st11{fill:#3AF9BA;}
	.st12{clip-path:url(#SVGID_2_);}
	.st13{clip-path:url(#SVGID_4_);}
	.st14{clip-path:url(#SVGID_6_);}
	.st15{clip-path:url(#SVGID_8_);}
	.st16{clip-path:url(#SVGID_10_);}
	.st17{clip-path:url(#SVGID_12_);}
</style>
<g id="Calque_1">
	<g id="Sauvegarde" class="st0">
		<g id="Calque_5" class="st1">
			<rect x="-1" y="272.7" class="st2" width="405" height="1.9"/>
			<rect x="-185" y="310.7" class="st2" width="208" height="1.9"/>
		</g>
		<text transform="matrix(1 0 0 1 -182.4058 298.3066)" class="st3 st4 st5">Conclusion</text>
		<text transform="matrix(1 0 0 1 -23.9038 327.8145)" class="st6 st7 st8">Conclusion</text>
	</g>
	<g id="Calque_3">
		<g id="Calque_5_1_">
			<rect x="-139.2" y="272.7" class="st2" width="543.2" height="1.9"/>
			<rect x="-185" y="310.7" class="st2" width="574.3" height="1.9"/>
		</g>
		<g class="st9">
			<path class="st10" d="M-142.1,285.8l-0.5-12.2h-16.8l-7.5,12.2c-4,6.6-1.3,7.8,0.9,8.4l-0.5,1.6h-15.6l0.5-1.6
				c3.6-1,7.3-2.3,11.1-8.4l35.2-57.5h6.6l2.3,57.5c0.3,5.6,2.3,7.5,4.6,8.4l-0.6,1.6h-26.5l0.5-1.6
				C-145.8,293.6-141.7,292-142.1,285.8z M-142.7,270.5l-0.8-22.6l-13.9,22.6H-142.7z"/>
			<path class="st10" d="M-96.5,286c-4,7.9-8.5,11-13.3,11c-9.1,0-11.7-11.8-7.1-25.7c5.8-17.3,18.1-24.6,26-23.5
				c2.9,0.4,4.6,1.7,5.5,3.2l4-12.3c1.4-5.6-1-6.7-2.7-7l0.3-1.5l21.2-3.2l-17.7,54.7c-1.8,5.8-1.2,8,0,8s3.7-2.1,7.4-8.7l1,0.8
				c-3.7,8.4-10.1,15.3-17.1,15.3C-94.3,296.9-97.5,293.3-96.5,286z M-93.5,275.4l7.2-21.9c-0.6-0.9-1.3-1.3-2.5-1.3
				c-3.4,0-7.2,4.2-11.7,17.8c-3.3,9.9-5.3,18.5-1.8,18.9C-100.7,289.1-97.5,286.4-93.5,275.4z"/>
			<path class="st10" d="M-67.7,251.9l0.4-1.5l17.4-3.3l2.9,34.6c2.5-3.2,4.7-6.2,5.8-8.5c4.6-8.9,3.5-16.1-0.6-19.8l0.2-0.8
				l15.3-6.2c1.9,8.3-3.4,15.6-10.6,26.1c-3.5,4.9-6.2,8.8-19.1,23.3h-3.7l-3.5-36.4C-64,253.4-65,252.2-67.7,251.9z"/>
			<path class="st10" d="M-31.3,284c0-15.5,11.7-36.5,26-36.4c4.2,0,6.5,1.9,7.6,3.8l12.4-3.2h3.2L7,281.6c-0.9,3.1-2.2,8,0,8
				c1.2,0,3.7-2.1,7.4-8.7l1,0.8c-3.7,8.4-10.1,15.3-17.1,15.3c-6.2,0-8.3-4.9-7.5-11.1c-4,8-8.4,11.1-13.2,11.1
				C-28.1,296.9-31.3,291.9-31.3,284z M-5.5,273.7l0.8-2.6l0.1-0.4l4.8-14.8c0.7-2.8-0.4-4.1-2-4.1c-3.1,0-6.9,4.7-11.3,18.2
				c-2,6.1-6,19-1.6,19C-13,289-9.7,285.8-5.5,273.7z"/>
			<path class="st10" d="M43.1,281.2l6.2-18.3c2.2-6.5,1.3-7.8,0.2-7.8c-2.4,0-10.5,9.4-16.5,28.1l-3.8,12.6H14L25.9,258
				c1.8-5.9-0.4-7.7-2.4-8.3l0.5-1.5h19.8l-5.1,16.4c6.8-12.2,13.2-17.1,19.2-17.1c6.3,0,9.8,5.5,7,13.6l-6.8,20.3
				c-1.9,5.8-1.2,8,0,8c1.1,0,3.5-1.7,7.4-8.7l1,0.8c-3.7,8.4-10.1,15.3-17.1,15.3C43,296.9,39.6,291.5,43.1,281.2z"/>
			<path class="st10" d="M70.7,268.9c5.4-15,16.4-21.2,26.3-21.2c4.5,0,8.4,1.2,12.2,3.2l-4.6,14.5h-1.1
				c-2.3-10.9-3.8-14.7-6.5-14.7c-3.3,0-7.8,5.3-11.3,15.8c-4.3,13.1-2.9,22.1,3.3,22.4c3.7,0.1,8.1-2.7,12.6-9.7l0.9,0.8
				c-5.6,12.5-14.2,16.9-21,16.9C69.6,296.9,65.1,284.2,70.7,268.9z"/>
			<path class="st10" d="M108.3,269c5.3-14.3,16.3-21.3,26.3-21.3c8.3,0,14.6,4.9,12.4,12.6c-2.4,8.7-13.2,12.4-25.2,13.9
				c-1.5,9.3,1.2,14.6,6.2,14.8c3.3,0.2,8.6-2,13-9.7l1,0.8c-5.6,12.5-14.5,16.9-21.3,16.9C109.1,296.9,102.4,284.8,108.3,269z
				 M135.2,257.7c1-3.3,1.7-7.2-0.8-7.2c-2.8,0-7,5.7-10.1,14.3c-0.9,2.5-1.6,4.9-2.1,7C130.1,269.8,133.5,263.4,135.2,257.7z"/>
			<path class="st10" d="M168.2,286c-4,7.9-8.5,11-13.3,11c-9.1,0-11.7-11.8-7.1-25.7c5.8-17.3,18.1-24.6,26-23.5
				c2.9,0.4,4.6,1.7,5.5,3.2l4-12.3c1.4-5.6-1-6.7-2.7-7l0.3-1.5l21.2-3.2l-17.7,54.7c-1.8,5.8-1.2,8,0,8c1.2,0,3.7-2.1,7.4-8.7
				l1,0.8c-3.7,8.4-10.1,15.3-17.1,15.3C170.3,296.9,167.2,293.3,168.2,286z M171.2,275.4l7.2-21.9c-0.6-0.9-1.3-1.3-2.5-1.3
				c-3.4,0-7.2,4.2-11.7,17.8c-3.3,9.9-5.3,18.5-1.8,18.9C164,289.1,167.2,286.4,171.2,275.4z"/>
		</g>
		<g class="st9">
			<path class="st11" d="M-13.1,319.5l1.7-9.7h6.1l5.6-31.7h-7.7l-1.7,7.2h-9.2l2.9-16.5h45.1l-2.9,16.6h-9.2l0.6-7.2h-7.5
				l-5.6,31.7h6.1l-1.7,9.7H-13.1z"/>
			<path class="st11" d="M57.7,314.8c-4.6,3.8-11.4,5.6-16.7,5.6c-12,0-16.9-6.8-16.9-15.6c0-13.3,9.6-22.4,23-22.4
				c11.3,0,18.4,6.3,13.4,22.5H34.2c-0.1,3.6,2,6.3,8.7,6.3c2.9,0,7.2-1.1,10.1-3.1L57.7,314.8z M52.7,297.4c0.9-4.4-2.5-6.2-7-6.2
				c-4.6,0-8.7,2-10.3,6.2H52.7z"/>
			<path class="st11" d="M98.2,314.6c-4.8,4.3-10.1,5.8-15.5,5.8c-9.8,0-17-5.2-17-15.6c0-16.7,13.3-22.1,23.5-22.1
				c4.9,0,9.1,0.9,12.5,3l-2.5,11.2h-8.7l0.9-4.8c-1.3-0.4-3-0.5-3.8-0.5c-8.3,0-11.5,6.2-11.5,11.7c0,5.1,3.3,7.6,8.6,7.6
				c2.6,0,5.7-0.7,8.8-3.1L98.2,314.6z"/>
			<path class="st11" d="M112.9,277.3H108l1.5-8.5h14.9l-3.4,19.1c3.3-3.3,7.6-4.6,11.3-4.6c10.4,0,14.7,5.9,12.7,17.5l-1.8,10.2h5
				l-1.5,8.5h-18l1.5-8.5h3.2l1.8-10.2c1.1-6.2-1.7-8.2-6.4-8c-5.9,0.2-9.2,4.2-10.1,9.3l-1.6,8.9h5.1l-1.5,8.5h-20.3l1.5-8.5h5
				L112.9,277.3z"/>
			<path class="st11" d="M167.4,310.5h5.3l-1.6,9h-20.4l1.6-9h5.3l3.2-18.3h-5l1.6-8.8h13.9l0.1,3.7c3.9-3.3,8-4.1,10.9-4.1
				c9.8,0,14.5,4.6,12.2,17.5l-1.7,10h5.1l-1.6,9h-19.2l1.6-9h4l1.7-9.9c0.7-3.8,0.9-8.1-5.6-8.1c-4.9-0.1-8.8,3.3-9.7,8.8
				L167.4,310.5z"/>
			<path class="st11" d="M221.8,283.5l-4.8,27.2h4.1l-1.6,8.8h-18.9l1.6-8.8h4.6l3.2-18.5h-4.5l1.6-8.7H221.8z M212.5,274.9
				c0-4.2,3.7-6.6,7-6.6c2.9,0,5.2,1.7,5.2,4.9c0,4.1-3.7,6.6-7.1,6.6C214.8,279.9,212.5,278,212.5,274.9z"/>
			<path class="st11" d="M270.2,283.5l-7.7,43.5h4.3l-1.6,9H246l1.6-9h5.1l2-10.9c-3.4,3.1-7.6,4.6-12.5,4.6
				c-9.9,0-15.1-6.2-15.1-15.2c0-12.7,8.6-22.2,21.4-22.3c5.4,0.1,8.7,1.7,10.7,5.3l1.3-4.9H270.2z M256.4,299.7
				c0-5-3.4-7.4-7.8-7.4c-6.4,0-10.9,5.1-10.9,11c0,4.6,2.8,7.5,7.8,7.5C249.7,310.9,256.4,307.5,256.4,299.7z"/>
			<path class="st11" d="M312.8,310.4h5l-1.6,9.1h-12.6l-0.2-4.5c-4.6,4-9.3,5.1-12.7,5.1c-13.1,0-14.8-8-13-18.2l1.7-9.8h-4.6
				l1.5-8.5h14.6l-3.3,18.3c-0.9,5-0.6,8.5,7,8.5c4.9-0.1,8.9-4.2,9.8-9.2l1.6-9.1h-5.4l1.5-8.5h15.4L312.8,310.4z"/>
			<path class="st11" d="M356.8,314.8c-4.6,3.8-11.4,5.6-16.7,5.6c-12,0-16.9-6.8-16.9-15.6c0-13.3,9.6-22.4,23-22.4
				c11.3,0,18.4,6.3,13.4,22.5h-26.4c-0.1,3.6,2,6.3,8.7,6.3c2.9,0,7.2-1.1,10.1-3.1L356.8,314.8z M351.8,297.4
				c0.9-4.4-2.5-6.2-7-6.2c-4.6,0-8.7,2-10.3,6.2H351.8z"/>
			<path class="st11" d="M388.6,295l0.3-4.1c-0.9-0.6-3.3-1-5.4-1c-3.3,0-6.5,1.2-6.5,4.3c0,2.2,3.2,2.5,5.2,2.7
				c8.8,0.5,15.4,3.6,14.1,12.6c-1.4,7-7,11.3-18,11.3c-5.6,0-11-1.1-15.4-4.2l2-9.9h8.5l-0.3,4c1.1,0.7,3.6,1.2,6.2,1.3
				c3.5,0.1,7-0.7,7-3.5c0-1.7-2-3-6.3-3.2c-8.3-1-14.6-4.1-13.1-11.9c1.4-8,10.4-11.2,18.3-11.2c4.7,0,9.6,1,13.5,3l-1.9,9.8H388.6
				z"/>
		</g>
	</g>
	<g id="Calque_4">
		<g>
			<defs>
				<path id="SVGID_1_" d="M168.2,286c-4,7.9-8.5,11-13.3,11c-9.1,0-11.7-11.8-7.1-25.7c5.8-17.3,18.1-24.6,26-23.5
					c2.9,0.4,4.6,1.7,5.5,3.2l4-12.3c1.4-5.6-1-6.7-2.7-7l0.3-1.5l21.2-3.2l-17.7,54.7c-1.8,5.8-1.2,8,0,8c1.2,0,3.7-2.1,7.4-8.7
					l1,0.8c-3.7,8.4-10.1,15.3-17.1,15.3C170.3,296.9,167.2,293.3,168.2,286z M171.2,275.4l7.2-21.9c-0.6-0.9-1.3-1.3-2.5-1.3
					c-3.4,0-7.2,4.2-11.7,17.8c-3.3,9.9-5.3,18.5-1.8,18.9C164,289.1,167.2,286.4,171.2,275.4z"/>
			</defs>
			<clipPath id="SVGID_2_">
				<use xlink:href="#SVGID_1_"  style="overflow:visible;"/>
			</clipPath>
			<path class="st12" d="M167.4,310.5h5.3l-1.6,9h-20.4l1.6-9h5.3l3.2-18.3h-5l1.6-8.8h13.9l0.1,3.7c3.9-3.3,8-4.1,10.9-4.1
				c9.8,0,14.5,4.6,12.2,17.5l-1.7,10h5.1l-1.6,9h-19.2l1.6-9h4l1.7-9.9c0.7-3.8,0.9-8.1-5.6-8.1c-4.9-0.1-8.8,3.3-9.7,8.8
				L167.4,310.5z"/>
		</g>
		<g>
			<defs>
				<path id="SVGID_3_" d="M108.3,269c5.3-14.3,16.3-21.3,26.3-21.3c8.3,0,14.6,4.9,12.4,12.6c-2.4,8.7-13.2,12.4-25.2,13.9
					c-1.5,9.3,1.2,14.6,6.2,14.8c3.3,0.2,8.6-2,13-9.7l1,0.8c-5.6,12.5-14.5,16.9-21.3,16.9C109.1,296.9,102.4,284.8,108.3,269z
					 M135.2,257.7c1-3.3,1.7-7.2-0.8-7.2c-2.8,0-7,5.7-10.1,14.3c-0.9,2.5-1.6,4.9-2.1,7C130.1,269.8,133.5,263.4,135.2,257.7z"/>
			</defs>
			<clipPath id="SVGID_4_">
				<use xlink:href="#SVGID_3_"  style="overflow:visible;"/>
			</clipPath>
			<path class="st13" d="M112.9,277.3H108l1.5-8.5h14.9l-3.4,19.1c3.3-3.3,7.6-4.6,11.3-4.6c10.4,0,14.7,5.9,12.7,17.5l-1.8,10.2h5
				l-1.5,8.5h-18l1.5-8.5h3.2l1.8-10.2c1.1-6.2-1.7-8.2-6.4-8c-5.9,0.2-9.2,4.2-10.1,9.3l-1.6,8.9h5.1l-1.5,8.5h-20.3l1.5-8.5h5
				L112.9,277.3z"/>
		</g>
		<g>
			<defs>
				<path id="SVGID_5_" d="M70.7,268.9c5.4-15,16.4-21.2,26.3-21.2c4.5,0,8.4,1.2,12.2,3.2l-4.6,14.5h-1.1
					c-2.3-10.9-3.8-14.7-6.5-14.7c-3.3,0-7.8,5.3-11.3,15.8c-4.3,13.1-2.9,22.1,3.3,22.4c3.7,0.1,8.1-2.7,12.6-9.7l0.9,0.8
					c-5.6,12.5-14.2,16.9-21,16.9C69.6,296.9,65.1,284.2,70.7,268.9z"/>
			</defs>
			<clipPath id="SVGID_6_">
				<use xlink:href="#SVGID_5_"  style="overflow:visible;"/>
			</clipPath>
			<path class="st14" d="M98.2,314.6c-4.8,4.3-10.1,5.8-15.5,5.8c-9.8,0-17-5.2-17-15.6c0-16.7,13.3-22.1,23.5-22.1
				c4.9,0,9.1,0.9,12.5,3l-2.5,11.2h-8.7l0.9-4.8c-1.3-0.4-3-0.5-3.8-0.5c-8.3,0-11.5,6.2-11.5,11.7c0,5.1,3.3,7.6,8.6,7.6
				c2.6,0,5.7-0.7,8.8-3.1L98.2,314.6z"/>
		</g>
		<g>
			<defs>
				<path id="SVGID_7_" d="M43.1,281.2l6.2-18.3c2.2-6.5,1.3-7.8,0.2-7.8c-2.4,0-10.5,9.4-16.5,28.1l-3.8,12.6H14L25.9,258
					c1.8-5.9-0.4-7.7-2.4-8.3l0.5-1.5h19.8l-5.1,16.4c6.8-12.2,13.2-17.1,19.2-17.1c6.3,0,9.8,5.5,7,13.6l-6.8,20.3
					c-1.9,5.8-1.2,8,0,8c1.1,0,3.5-1.7,7.4-8.7l1,0.8c-3.7,8.4-10.1,15.3-17.1,15.3C43,296.9,39.6,291.5,43.1,281.2z"/>
			</defs>
			<clipPath id="SVGID_8_">
				<use xlink:href="#SVGID_7_"  style="overflow:visible;"/>
			</clipPath>
			<path class="st15" d="M57.7,314.8c-4.6,3.8-11.4,5.6-16.7,5.6c-12,0-16.9-6.8-16.9-15.6c0-13.3,9.6-22.4,23-22.4
				c11.3,0,18.4,6.3,13.4,22.5H34.2c-0.1,3.6,2,6.3,8.7,6.3c2.9,0,7.2-1.1,10.1-3.1L57.7,314.8z M52.7,297.4c0.9-4.4-2.5-6.2-7-6.2
				c-4.6,0-8.7,2-10.3,6.2H52.7z"/>
		</g>
		<g>
			<defs>
				<path id="SVGID_9_" d="M-31.3,284c0-15.5,11.7-36.5,26-36.4c4.2,0,6.5,1.9,7.6,3.8l12.4-3.2h3.2L7,281.6c-0.9,3.1-2.2,8,0,8
					c1.2,0,3.7-2.1,7.4-8.7l1,0.8c-3.7,8.4-10.1,15.3-17.1,15.3c-6.2,0-8.3-4.9-7.5-11.1c-4,8-8.4,11.1-13.2,11.1
					C-28.1,296.9-31.3,291.9-31.3,284z M-5.5,273.7l0.8-2.6l0.1-0.4l4.8-14.8c0.7-2.8-0.4-4.1-2-4.1c-3.1,0-6.9,4.7-11.3,18.2
					c-2,6.1-6,19-1.6,19C-13,289-9.7,285.8-5.5,273.7z"/>
			</defs>
			<clipPath id="SVGID_10_">
				<use xlink:href="#SVGID_9_"  style="overflow:visible;"/>
			</clipPath>
			<path class="st16" d="M-13.1,319.5l1.7-9.7h6.1l5.6-31.7h-7.7l-1.7,7.2h-9.2l2.9-16.5h45.1l-2.9,16.6h-9.2l0.6-7.2h-7.5
				l-5.6,31.7h6.1l-1.7,9.7H-13.1z"/>
		</g>
		<g>
			<defs>
				<path id="SVGID_11_" d="M43.1,281.2l6.2-18.3c2.2-6.5,1.3-7.8,0.2-7.8c-2.4,0-10.5,9.4-16.5,28.1l-3.8,12.6H14L25.9,258
					c1.8-5.9-0.4-7.7-2.4-8.3l0.5-1.5h19.8l-5.1,16.4c6.8-12.2,13.2-17.1,19.2-17.1c6.3,0,9.8,5.5,7,13.6l-6.8,20.3
					c-1.9,5.8-1.2,8,0,8c1.1,0,3.5-1.7,7.4-8.7l1,0.8c-3.7,8.4-10.1,15.3-17.1,15.3C43,296.9,39.6,291.5,43.1,281.2z"/>
			</defs>
			<clipPath id="SVGID_12_">
				<use xlink:href="#SVGID_11_"  style="overflow:visible;"/>
			</clipPath>
			<path class="st17" d="M-13.1,319.5l1.7-9.7h6.1l5.6-31.7h-7.7l-1.7,7.2h-9.2l2.9-16.5h45.1l-2.9,16.6h-9.2l0.6-7.2h-7.5
				l-5.6,31.7h6.1l-1.7,9.7H-13.1z"/>
		</g>
	</g>
</g>
<g id="Calque_2">
</g>
</svg>
