<?xml version="1.0" encoding="utf-8"?>
<!-- Generator: Adobe Illustrator 19.0.0, SVG Export Plug-In . SVG Version: 6.00 Build 0)  -->
<svg version="1.1" xmlns="http://www.w3.org/2000/svg" xmlns:xlink="http://www.w3.org/1999/xlink" x="0px" y="0px"
	 viewBox="-185 224 589 114" style="enable-background:new -185 224 589 114;" xml:space="preserve">
<style type="text/css">
	.st0{display:none;}
	.st1{display:inline;}
	.st2{fill:#EBFFAA;}
	.st3{display:inline;fill:#E90052;}
	.st4{font-family:'DentonCondensedTest-BlackItalic';}
	.st5{font-size:93.7594px;}
	.st6{display:inline;fill:#3AF9BA;}
	.st7{font-family:'NexaSlabHeavyOblique';}
	.st8{font-size:72.4382px;}
	.st9{enable-background:new    ;}
	.st10{fill:#E90052;}
	.st11{fill:#3AF9BA;}
	.st12{clip-path:url(#SVGID_2_);}
</style>
<g id="Calque_1">
	<g id="Sauvegarde" class="st0">
		<g id="Calque_5" class="st1">
			<rect x="-1" y="272.7" class="st2" width="405" height="1.9"/>
			<rect x="-185" y="310.7" class="st2" width="208" height="1.9"/>
		</g>
		<text transform="matrix(1 0 0 1 -182.4058 298.3066)" class="st3 st4 st5">Conclusion</text>
		<text transform="matrix(1 0 0 1 -23.9038 327.8145)" class="st6 st7 st8">Conclusion</text>
	</g>
	<g id="Sauvegarde_1_">
		<g id="Calque_5_1_">
			<rect x="-5.3" y="272.7" class="st2" width="409.3" height="1.9"/>
			<rect x="-185" y="310.7" class="st2" width="176.2" height="1.9"/>
		</g>
		<g class="st9">
			<path class="st10" d="M-155.6,296.7c2.3-0.7,6.6-2,8.7-9l14.2-46.3c2-6.7-0.8-8.3-3.2-9l0.5-1.6h30.5c10.2,0,16.8,7.3,13.4,18.1
				c-2.9,9.8-11.3,13.2-19.2,15c8.7,1.8,14.8,6.6,12.3,17.3c-2.8,12.2-13.6,17.1-25.7,17.1h-31.9L-155.6,296.7z M-128.3,295.2
				c5.8,0,10.6-5.3,13.1-13.8c2.7-8.8,1.4-15.3-5.1-15.3h-4.2l-8.9,29.1H-128.3z M-119.5,262.3c5,0,9.4-5.3,12-13.8
				c2.4-8,1.7-14.7-3.5-14.7h-3.5l-7.9,25.6l-0.8,2.9H-119.5z M-114.5,233.8L-114.5,233.8l-4,13L-114.5,233.8z"/>
			<path class="st10" d="M-91.9,271.5c5.3-14.3,16.3-21.3,26.3-21.3c8.3,0,14.6,4.9,12.4,12.6c-2.4,8.7-13.2,12.4-25.2,13.9
				c-1.5,9.3,1.2,14.6,6.2,14.8c3.3,0.2,8.6-2,13-9.7l1,0.8c-5.6,12.5-14.5,16.9-21.3,16.9C-91,299.4-97.8,287.3-91.9,271.5z
				 M-65,260.2c1-3.3,1.7-7.2-0.8-7.2c-2.8,0-7,5.7-10.1,14.3c-0.9,2.5-1.6,4.9-2.1,7C-70,272.3-66.7,265.9-65,260.2z"/>
			<path class="st10" d="M-57.3,294.6l4.6-13.4h0.9c1.5,3.9,3.1,7.6,4.9,10.2c2.2,3.3,4.5,5.1,6.8,5c2,0,4.1-1.2,4.2-3.9
				c0.2-4.4-5.5-10.5-9.3-16.1c-3.6-5.3-4.5-8.4-4.3-12c0.3-8.4,7.6-14.3,17.4-14.3c4.3,0,9.4,1.1,14.2,3.8l-4.5,12.9h-0.8
				c-0.8-3.1-1.8-6-2.8-8.1c-2-3.7-4.3-5.8-6.9-5.8c-2,0-4.2,1.2-4.2,3.8c0,4,5.4,9.7,9.3,15.7c2.8,4.7,4,8.3,3.7,12.8
				c-0.8,7.8-6.7,14.2-16.8,14.2C-46.8,299.4-52.6,297.4-57.3,294.6z"/>
			<path class="st10" d="M-18.5,283.6l8.9-29.7h-5.6l0.3-1.3c7.5-2.6,16.8-8.2,23.6-16.1h1.9l-4.3,14.3h9.3l-0.9,3.1H5.3l-9.1,30.4
				c-1.7,5.8-1,7.8,0.5,7.8c1.8,0,5.2-2.7,8.5-8.7l0.9,0.8c-4.2,8.4-10.8,15.4-17.8,15.4C-18.2,299.4-21.6,293.9-18.5,283.6z"/>
		</g>
		<g class="st9">
			<path class="st11" d="M-11,286.8h-5.6l1.7-9.7h29c12.7,0,17.3,8.3,16.2,16.8c-1.1,8.7-7.8,17-22.2,17H-4.7l-1.3,7.3h5.7l-1.7,9.6
				h-21.3l1.7-9.6h5L-11,286.8z M9.7,301.5c11.2,0,14-14.7,2.6-14.7H-0.4L-3,301.5H9.7z"/>
			<path class="st11" d="M38.4,300.6h-4.6l1.6-8.8h13.3l0.3,3.4c3.3-3.1,7-4.3,10.9-4.3c3.2,0,6.8,1,9.1,3.5l-6.2,8.6
				c-1.5-1.5-3.9-2.2-6.3-2.2c-4,0-8.3,2.2-9.4,8.5l-1.7,9.9h5l-1.5,8.7H28.1l1.5-8.7h5.5L38.4,300.6z"/>
			<path class="st11" d="M110.5,319l-1.6,8.8H95.2l0.1-4.1c-5.5,4.7-8.8,5-14.1,5c-8.8,0-14.2-6.1-14.2-15.4
				c0-11.5,8.3-21.7,21.2-22.3c5,0,9.2,0.6,12,4.6l1.1-3.7H115l-1.6,9h-4.6l-3.2,18.2H110.5z M77.4,312c0,4.6,2.7,8,7.9,8
				c6.3,0,11.2-4.2,12.2-9.6c1-5.6-1.9-9.9-8.2-9.9C82.6,300.4,77.4,305.7,77.4,312z"/>
			<path class="st11" d="M149.4,322.9c-4.8,4.3-10.1,5.8-15.5,5.8c-9.8,0-17-5.2-17-15.6c0-16.7,13.3-22.1,23.5-22.1
				c4.9,0,9.1,0.9,12.5,3l-2.5,11.2h-8.7l0.9-4.8c-1.3-0.4-3-0.5-3.8-0.5c-8.3,0-11.5,6.2-11.5,11.7c0,5.1,3.3,7.6,8.6,7.6
				c2.6,0,5.7-0.7,8.8-3.1L149.4,322.9z"/>
			<path class="st11" d="M174.6,282.3l-1.7,9.9h9.3l-1.5,8.6h-9.4l-2.5,14.1c-0.7,4.4,3,5.5,7.7,3.7l0.8,8.3
				c-3.8,1.3-5.7,1.5-8.9,1.5c-6.5-0.1-11.2-3.8-9.5-13.5l2.5-14.1H155l1.5-8.6h6.2l1.5-8.8L174.6,282.3z"/>
			<path class="st11" d="M202.3,291.8l-4.8,27.2h4.1l-1.6,8.8h-18.9l1.6-8.8h4.6l3.2-18.5H186l1.6-8.7H202.3z M193,283.3
				c0-4.2,3.7-6.6,7-6.6c2.9,0,5.2,1.7,5.2,4.9c0,4.1-3.7,6.6-7.1,6.6C195.3,288.2,193,286.3,193,283.3z"/>
			<path class="st11" d="M240.3,322.9c-4.8,4.3-10.1,5.8-15.5,5.8c-9.8,0-17-5.2-17-15.6c0-16.7,13.3-22.1,23.5-22.1
				c4.9,0,9.1,0.9,12.5,3l-2.5,11.2h-8.7l0.9-4.8c-1.3-0.4-3-0.5-3.8-0.5c-8.3,0-11.5,6.2-11.5,11.7c0,5.1,3.3,7.6,8.6,7.6
				c2.6,0,5.7-0.7,8.8-3.1L240.3,322.9z"/>
			<path class="st11" d="M279.1,323.2c-4.6,3.8-11.4,5.6-16.7,5.6c-12,0-16.9-6.8-16.9-15.6c0-13.3,9.6-22.4,23-22.4
				c11.3,0,18.4,6.3,13.4,22.5h-26.4c-0.1,3.6,2,6.3,8.7,6.3c2.9,0,7.2-1.1,10.1-3.1L279.1,323.2z M274.1,305.7
				c0.9-4.4-2.5-6.2-7-6.2c-4.6,0-8.7,2-10.3,6.2H274.1z"/>
			<path class="st11" d="M310.9,303.3l0.3-4.1c-0.9-0.6-3.3-1-5.4-1c-3.3,0-6.5,1.2-6.5,4.3c0,2.2,3.2,2.5,5.2,2.7
				c8.8,0.5,15.4,3.5,14.1,12.6c-1.4,7-7,11.3-18,11.3c-5.6,0-11-1.1-15.4-4.2l2-9.9h8.5l-0.3,4c1.1,0.7,3.6,1.2,6.2,1.3
				c3.5,0.1,7-0.7,7-3.5c0-1.7-2-3-6.3-3.2c-8.3-1-14.6-4.1-13.1-11.9c1.4-8,10.4-11.2,18.3-11.2c4.7,0,9.6,1,13.5,3l-1.9,9.9H310.9
				z"/>
		</g>
	</g>
	<g id="Calque_3">
		<g>
			<defs>
				<path id="SVGID_1_" d="M-18.5,283.6l8.9-29.7h-5.6l0.3-1.3c7.5-2.6,16.8-8.2,23.6-16.1h1.9l-4.3,14.3h9.3l-0.9,3.1H5.3
					l-9.1,30.4c-1.7,5.8-1,7.8,0.5,7.8c1.8,0,5.2-2.7,8.5-8.7l0.9,0.8c-4.2,8.4-10.8,15.4-17.8,15.4
					C-18.2,299.4-21.6,293.9-18.5,283.6z"/>
			</defs>
			<clipPath id="SVGID_2_">
				<use xlink:href="#SVGID_1_"  style="overflow:visible;"/>
			</clipPath>
			<path class="st12" d="M-11,286.8h-5.6l1.7-9.7h29c12.7,0,17.3,8.3,16.2,16.8c-1.1,8.7-7.8,17-22.2,17H-4.7l-1.3,7.3h5.7l-1.7,9.6
				h-21.3l1.7-9.6h5L-11,286.8z M9.7,301.5c11.2,0,14-14.7,2.6-14.7H-0.4L-3,301.5H9.7z"/>
		</g>
	</g>
</g>
<g id="Calque_2">
</g>
</svg>
