<?xml version="1.0" encoding="utf-8"?>
<!-- Generator: Adobe Illustrator 19.0.0, SVG Export Plug-In . SVG Version: 6.00 Build 0)  -->
<svg version="1.1" xmlns="http://www.w3.org/2000/svg" xmlns:xlink="http://www.w3.org/1999/xlink" x="0px" y="0px"
	 viewBox="-185 224 589 114" style="enable-background:new -185 224 589 114;" xml:space="preserve">
<style type="text/css">
	.st0{display:none;}
	.st1{display:inline;}
	.st2{fill:#EBFFAA;}
	.st3{fill:#E90052;}
	.st4{font-family:'DentonCondensedTest-BlackItalic';}
	.st5{font-size:93.7594px;}
	.st6{fill:#3AF9BA;}
	.st7{font-family:'NexaSlabHeavyOblique';}
	.st8{font-size:72.4382px;}
	.st9{enable-background:new    ;}
	.st10{clip-path:url(#SVGID_2_);}
	.st11{clip-path:url(#SVGID_4_);}
	.st12{clip-path:url(#SVGID_6_);}
	.st13{clip-path:url(#SVGID_8_);}
	.st14{clip-path:url(#SVGID_10_);}
	.st15{clip-path:url(#SVGID_12_);}
	.st16{clip-path:url(#SVGID_14_);}
	.st17{clip-path:url(#SVGID_16_);}
	.st18{clip-path:url(#SVGID_18_);}
</style>
<g id="Calque_1">
	<g id="Calque_1_1_" class="st0">
		<g id="Sauvegarde" class="st1">
			<g id="Calque_5">
				<rect x="-1" y="269.7" class="st2" width="405" height="1.9"/>
				<rect x="-185" y="307.7" class="st2" width="208" height="1.9"/>
			</g>
			<text transform="matrix(1 0 0 1 -177.0725 295.2568)" class="st3 st4 st5">Material</text>
			<text transform="matrix(1 0 0 1 -23.9038 324.7645)" class="st6 st7 st8">Selection</text>
		</g>
		<g id="Calque_4" class="st1">
		</g>
	</g>
	<g id="Calque_1_2_">
		<g id="Sauvegarde_1_">
			<g id="Calque_5_1_">
				<rect x="-1" y="269.7" class="st2" width="405" height="1.9"/>
				<rect x="-185" y="307.7" class="st2" width="246.8" height="1.9"/>
			</g>
			<g class="st9">
				<path class="st3" d="M-183,293.7c2.3-0.8,6.6-2.2,8.6-9l14.2-46.3c2.2-7-1-8.3-3.1-9l0.5-1.6h27.3c14.3,0,23,14.6,16.4,36.3
					c-6.4,21.5-22.7,31.2-37,31.2h-27.3L-183,293.7z M-159.4,292.1c10.6,0,18.9-12.6,23.5-28c4.6-15.7,6.3-33.1-5.1-33.1h-0.9
					l-18.8,61.1H-159.4z"/>
				<path class="st3" d="M-115.4,268.4c5.3-14.3,16.3-21.3,26.3-21.3c8.3,0,14.6,4.9,12.4,12.6c-2.4,8.7-13.2,12.4-25.2,13.9
					c-1.5,9.3,1.2,14.6,6.2,14.8c3.3,0.2,8.6-2,13-9.7l1,0.8c-5.6,12.5-14.5,16.9-21.3,16.9C-114.5,296.4-121.3,284.3-115.4,268.4z
					 M-88.5,257.2c1-3.3,1.7-7.2-0.8-7.2c-2.8,0-7,5.7-10.1,14.3c-0.9,2.5-1.6,4.9-2.1,7C-93.5,269.3-90.2,262.8-88.5,257.2z"/>
				<path class="st3" d="M-74.7,251.4l0.4-1.5l17.4-3.3l2.9,34.6c2.5-3.2,4.7-6.2,5.8-8.5c4.6-8.9,3.5-16.1-0.6-19.8l0.2-0.8
					l15.3-6.2c1.9,8.3-3.4,15.6-10.6,26.1c-3.5,4.9-6.2,8.8-19.1,23.3h-3.7l-3.5-36.4C-70.9,252.9-72,251.7-74.7,251.4z"/>
				<path class="st3" d="M-35,280.6l7.5-24.1c1.4-5.6-0.9-6.8-2.7-7.3l0.4-1.5h20.2L-20.1,281c-1.9,5.8-1.2,8,0,8
					c1.1,0,3.5-1.7,7.4-8.7l0.9,0.8c-3.7,8.4-9.9,15.3-17,15.3C-35.1,296.4-38.3,290.9-35,280.6z M-15.1,226.7
					c4.5,0,8.2,3.8,8.1,8.7c-0.1,4.7-3.7,8.5-8.3,8.5c-4.5,0-8.1-3.7-8.1-8.4S-19.7,226.7-15.1,226.7z"/>
				<path class="st3" d="M-7.3,268.3c5.4-15,16.4-21.2,26.3-21.2c4.5,0,8.4,1.2,12.2,3.2l-4.6,14.5h-1.1
					c-2.3-10.9-3.8-14.7-6.5-14.7c-3.3,0-7.8,5.3-11.3,15.8c-4.3,13.1-2.9,22.1,3.3,22.4c3.7,0.1,8.1-2.7,12.6-9.7l0.9,0.8
					c-5.6,12.5-14.2,16.9-21,16.9C-8.3,296.4-12.8,283.6-7.3,268.3z"/>
				<path class="st3" d="M30.3,268.4c5.3-14.3,16.3-21.3,26.3-21.3c8.3,0,14.6,4.9,12.4,12.6c-2.4,8.7-13.2,12.4-25.2,13.9
					c-1.5,9.3,1.2,14.6,6.2,14.8c3.3,0.2,8.6-2,13-9.7l1,0.8c-5.6,12.5-14.5,16.9-21.3,16.9C31.2,296.4,24.4,284.3,30.3,268.4z
					 M57.2,257.2c1-3.3,1.7-7.2-0.8-7.2c-2.8,0-7,5.7-10.1,14.3c-0.9,2.5-1.6,4.9-2.1,7C52.2,269.3,55.5,262.8,57.2,257.2z"/>
			</g>
			<g class="st9">
				<path class="st6" d="M-126.6,318.4l1.7-9.6h5.1l4.5-25.4l-19.5,18.9h-2.2l-12.2-19.3l-4.6,25.9h4.9l-1.7,9.6h-21.4l1.7-9.6h5.8
					l5.6-31.3h-5.8l1.7-9.8h17.9l11.6,20.3l18.8-20.3h18.3l-1.7,9.8h-5.5l-5.6,31.3h5.4l-1.7,9.6H-126.6z"/>
				<path class="st6" d="M-54.9,309.7l-1.6,8.8h-13.7l0.1-4.1c-5.5,4.7-8.8,5-14.1,5c-8.8,0-14.2-6.1-14.2-15.4
					c0-11.5,8.3-21.7,21.2-22.3c5,0,9.2,0.6,12,4.6l1.1-3.7h13.6l-1.6,9h-4.6l-3.2,18.2H-54.9z M-88,302.6c0,4.6,2.7,8,7.9,8
					c6.3,0,11.2-4.2,12.2-9.6c1-5.6-1.9-9.9-8.2-9.9C-82.8,291.1-88,296.3-88,302.6z"/>
				<path class="st6" d="M-34.1,309.5h5.3l-1.6,9h-20.4l1.6-9h5.3l3.2-18.3h-5l1.6-8.8h13.9l0.1,3.7c3.9-3.3,8-4.1,10.9-4.1
					c9.8,0,14.5,4.6,12.2,17.5l-1.7,10h5.1l-1.6,9h-19.2l1.6-9h4l1.7-9.9c0.7-3.8,0.9-8.1-5.6-8.1c-4.9-0.1-8.8,3.3-9.7,8.8
					L-34.1,309.5z"/>
				<path class="st6" d="M40.3,309.4h5l-1.6,9.1H31.1l-0.2-4.5c-4.6,4-9.3,5.1-12.7,5.1c-13.1,0-14.8-8-13-18.2l1.7-9.9H2.3l1.5-8.5
					h14.6l-3.3,18.3c-0.9,5-0.6,8.5,7,8.5c4.9-0.1,8.9-4.2,9.8-9.2l1.6-9.1h-5.4l1.5-8.5h15.4L40.3,309.4z"/>
				<path class="st6" d="M71.3,309.8l-1.5,8.6H49.2l1.5-8.6h5.1l3.3-18.3h-6.5l1.4-8h6.5l0.4-2c2-11.2,9.5-14.5,16.7-14.5
					c2.5,0,4.6,0.4,7,1.7l-3.8,7.8c-1.2-0.6-2.5-0.8-3.8-0.8c-3,0-5.5,1.9-6.2,5.9l-0.3,1.8h7.5l-1.4,8H69l-3.3,18.3H71.3z"/>
				<path class="st6" d="M122.1,309.7l-1.6,8.8h-13.7l0.1-4.1c-5.5,4.7-8.8,5-14.1,5c-8.8,0-14.2-6.1-14.2-15.4
					c0-11.5,8.3-21.7,21.2-22.3c5,0,9.2,0.6,12,4.6l1.1-3.7h13.6l-1.6,9h-4.6l-3.2,18.2H122.1z M89,302.6c0,4.6,2.7,8,7.9,8
					c6.3,0,11.2-4.2,12.2-9.6c1-5.6-1.9-9.9-8.2-9.9C94.2,291.1,89,296.3,89,302.6z"/>
				<path class="st6" d="M161.1,313.5c-4.8,4.3-10.1,5.8-15.5,5.8c-9.8,0-17-5.2-17-15.6c0-16.7,13.3-22.1,23.5-22.1
					c4.9,0,9.1,0.9,12.5,3l-2.5,11.2h-8.7l0.9-4.8c-1.3-0.4-3-0.5-3.8-0.5c-8.3,0-11.5,6.2-11.5,11.7c0,5.1,3.3,7.6,8.6,7.6
					c2.6,0,5.7-0.7,8.8-3.1L161.1,313.5z"/>
				<path class="st6" d="M186.2,272.9l-1.7,9.9h9.3l-1.5,8.6h-9.4l-2.5,14.1c-0.7,4.4,3,5.5,7.7,3.7l0.8,8.3
					c-3.8,1.3-5.7,1.5-8.9,1.5c-6.5-0.1-11.2-3.8-9.5-13.5l2.5-14.1h-6.2l1.5-8.6h6.2l1.5-8.8L186.2,272.9z"/>
				<path class="st6" d="M234,309.4h5l-1.6,9.1h-12.6l-0.2-4.5c-4.6,4-9.3,5.1-12.7,5.1c-13.1,0-14.8-8-13-18.2l1.7-9.9h-4.6
					l1.5-8.5h14.6l-3.3,18.3c-0.9,5-0.6,8.5,7,8.5c4.9-0.1,8.9-4.2,9.8-9.2l1.6-9.1h-5.4l1.5-8.5h15.4L234,309.4z"/>
				<path class="st6" d="M251.9,291.2h-4.6l1.6-8.8h13.3l0.3,3.4c3.3-3.1,7-4.3,10.9-4.3c3.2,0,6.8,1,9.1,3.5l-6.2,8.6
					c-1.5-1.5-3.9-2.2-6.3-2.2c-4,0-8.3,2.2-9.4,8.5l-1.7,9.9h5l-1.5,8.7h-20.6l1.5-8.7h5.5L251.9,291.2z"/>
				<path class="st6" d="M300.8,282.4l-4.8,27.2h4.1l-1.6,8.8h-18.9l1.6-8.8h4.6l3.2-18.5h-4.5l1.6-8.7H300.8z M291.4,273.9
					c0-4.2,3.7-6.6,7-6.6c2.9,0,5.2,1.7,5.2,4.9c0,4.1-3.7,6.6-7.1,6.6C293.7,278.8,291.4,276.9,291.4,273.9z"/>
				<path class="st6" d="M320.6,309.5h5.3l-1.6,9h-20.4l1.6-9h5.3l3.2-18.3h-5l1.6-8.8h13.9l0.1,3.7c3.9-3.3,8-4.1,10.9-4.1
					c9.8,0,14.5,4.6,12.2,17.5l-1.7,10h5.1l-1.6,9h-19.2l1.6-9h4l1.7-9.9c0.7-3.8,0.9-8.1-5.6-8.1c-4.9-0.1-8.8,3.3-9.7,8.8
					L320.6,309.5z"/>
				<path class="st6" d="M369.8,337.6c-11.2,0-17.7-5.3-15.8-15h10.1c-0.4,3.8,3,5.9,7.8,5.9c6,0,9.7-3.3,10.9-9.7l0.7-3.7
					c-3.4,3.8-7.8,4.5-11.8,4.6c-9.5,0-15.8-5.6-15.8-15.4c0-13.6,10.1-22,21.8-22c4.2,0,8.5,1.1,10.9,4.9l1.6-4.6h13.7l-1.5,8.8
					h-4.6l-4.9,27.6C390.4,332.5,382.5,337.6,369.8,337.6z M366.3,302.3c0,4.6,3.1,8.3,8,8.3c7.5,0,12.1-5.4,12.1-11.4
					c0-4.6-3-7.8-8.5-7.8C372.9,291.4,366.3,294.9,366.3,302.3z"/>
			</g>
			<g class="st9">
				<g>
					<defs>
						<path id="SVGID_1_" d="M-183,293.7c2.3-0.8,6.6-2.2,8.6-9l14.2-46.3c2.2-7-1-8.3-3.1-9l0.5-1.6h27.3c14.3,0,23,14.6,16.4,36.3
							c-6.4,21.5-22.7,31.2-37,31.2h-27.3L-183,293.7z M-159.4,292.1c10.6,0,18.9-12.6,23.5-28c4.6-15.7,6.3-33.1-5.1-33.1h-0.9
							l-18.8,61.1H-159.4z"/>
					</defs>
					<clipPath id="SVGID_2_">
						<use xlink:href="#SVGID_1_"  style="overflow:visible;"/>
					</clipPath>
					<path class="st10" d="M-126.6,318.4l1.7-9.6h5.1l4.5-25.4l-19.5,18.9h-2.2l-12.2-19.3l-4.6,25.9h4.9l-1.7,9.6h-21.4l1.7-9.6
						h5.8l5.6-31.3h-5.8l1.7-9.8h17.9l11.6,20.3l18.8-20.3h18.3l-1.7,9.8h-5.5l-5.6,31.3h5.4l-1.7,9.6H-126.6z"/>
				</g>
				<g>
					<defs>
						<path id="SVGID_3_" d="M-115.4,268.4c5.3-14.3,16.3-21.3,26.3-21.3c8.3,0,14.6,4.9,12.4,12.6c-2.4,8.7-13.2,12.4-25.2,13.9
							c-1.5,9.3,1.2,14.6,6.2,14.8c3.3,0.2,8.6-2,13-9.7l1,0.8c-5.6,12.5-14.5,16.9-21.3,16.9C-114.5,296.4-121.3,284.3-115.4,268.4
							z M-88.5,257.2c1-3.3,1.7-7.2-0.8-7.2c-2.8,0-7,5.7-10.1,14.3c-0.9,2.5-1.6,4.9-2.1,7C-93.5,269.3-90.2,262.8-88.5,257.2z"/>
					</defs>
					<clipPath id="SVGID_4_">
						<use xlink:href="#SVGID_3_"  style="overflow:visible;"/>
					</clipPath>
					<path class="st11" d="M-126.6,318.4l1.7-9.6h5.1l4.5-25.4l-19.5,18.9h-2.2l-12.2-19.3l-4.6,25.9h4.9l-1.7,9.6h-21.4l1.7-9.6
						h5.8l5.6-31.3h-5.8l1.7-9.8h17.9l11.6,20.3l18.8-20.3h18.3l-1.7,9.8h-5.5l-5.6,31.3h5.4l-1.7,9.6H-126.6z"/>
				</g>
				<g>
					<defs>
						<path id="SVGID_5_" d="M-115.4,268.4c5.3-14.3,16.3-21.3,26.3-21.3c8.3,0,14.6,4.9,12.4,12.6c-2.4,8.7-13.2,12.4-25.2,13.9
							c-1.5,9.3,1.2,14.6,6.2,14.8c3.3,0.2,8.6-2,13-9.7l1,0.8c-5.6,12.5-14.5,16.9-21.3,16.9C-114.5,296.4-121.3,284.3-115.4,268.4
							z M-88.5,257.2c1-3.3,1.7-7.2-0.8-7.2c-2.8,0-7,5.7-10.1,14.3c-0.9,2.5-1.6,4.9-2.1,7C-93.5,269.3-90.2,262.8-88.5,257.2z"/>
					</defs>
					<clipPath id="SVGID_6_">
						<use xlink:href="#SVGID_5_"  style="overflow:visible;"/>
					</clipPath>
					<path class="st12" d="M-54.9,309.7l-1.6,8.8h-13.7l0.1-4.1c-5.5,4.7-8.8,5-14.1,5c-8.8,0-14.2-6.1-14.2-15.4
						c0-11.5,8.3-21.7,21.2-22.3c5,0,9.2,0.6,12,4.6l1.1-3.7h13.6l-1.6,9h-4.6l-3.2,18.2H-54.9z M-88,302.6c0,4.6,2.7,8,7.9,8
						c6.3,0,11.2-4.2,12.2-9.6c1-5.6-1.9-9.9-8.2-9.9C-82.8,291.1-88,296.3-88,302.6z"/>
				</g>
				<g>
					<defs>
						<path id="SVGID_7_" d="M-74.7,251.4l0.4-1.5l17.4-3.3l2.9,34.6c2.5-3.2,4.7-6.2,5.8-8.5c4.6-8.9,3.5-16.1-0.6-19.8l0.2-0.8
							l15.3-6.2c1.9,8.3-3.4,15.6-10.6,26.1c-3.5,4.9-6.2,8.8-19.1,23.3h-3.7l-3.5-36.4C-70.9,252.9-72,251.7-74.7,251.4z"/>
					</defs>
					<clipPath id="SVGID_8_">
						<use xlink:href="#SVGID_7_"  style="overflow:visible;"/>
					</clipPath>
					<path class="st13" d="M-54.9,309.7l-1.6,8.8h-13.7l0.1-4.1c-5.5,4.7-8.8,5-14.1,5c-8.8,0-14.2-6.1-14.2-15.4
						c0-11.5,8.3-21.7,21.2-22.3c5,0,9.2,0.6,12,4.6l1.1-3.7h13.6l-1.6,9h-4.6l-3.2,18.2H-54.9z M-88,302.6c0,4.6,2.7,8,7.9,8
						c6.3,0,11.2-4.2,12.2-9.6c1-5.6-1.9-9.9-8.2-9.9C-82.8,291.1-88,296.3-88,302.6z"/>
				</g>
				<g>
					<defs>
						<path id="SVGID_9_" d="M-35,280.6l7.5-24.1c1.4-5.6-0.9-6.8-2.7-7.3l0.4-1.5h20.2L-20.1,281c-1.9,5.8-1.2,8,0,8
							c1.1,0,3.5-1.7,7.4-8.7l0.9,0.8c-3.7,8.4-9.9,15.3-17,15.3C-35.1,296.4-38.3,290.9-35,280.6z M-15.1,226.7
							c4.5,0,8.2,3.8,8.1,8.7c-0.1,4.7-3.7,8.5-8.3,8.5c-4.5,0-8.1-3.7-8.1-8.4S-19.7,226.7-15.1,226.7z"/>
					</defs>
					<clipPath id="SVGID_10_">
						<use xlink:href="#SVGID_9_"  style="overflow:visible;"/>
					</clipPath>
					<path class="st14" d="M-34.1,309.5h5.3l-1.6,9h-20.4l1.6-9h5.3l3.2-18.3h-5l1.6-8.8h13.9l0.1,3.7c3.9-3.3,8-4.1,10.9-4.1
						c9.8,0,14.5,4.6,12.2,17.5l-1.7,10h5.1l-1.6,9h-19.2l1.6-9h4l1.7-9.9c0.7-3.8,0.9-8.1-5.6-8.1c-4.9-0.1-8.8,3.3-9.7,8.8
						L-34.1,309.5z"/>
				</g>
				<g>
					<defs>
						<path id="SVGID_11_" d="M-7.3,268.3c5.4-15,16.4-21.2,26.3-21.2c4.5,0,8.4,1.2,12.2,3.2l-4.6,14.5h-1.1
							c-2.3-10.9-3.8-14.7-6.5-14.7c-3.3,0-7.8,5.3-11.3,15.8c-4.3,13.1-2.9,22.1,3.3,22.4c3.7,0.1,8.1-2.7,12.6-9.7l0.9,0.8
							c-5.6,12.5-14.2,16.9-21,16.9C-8.3,296.4-12.8,283.6-7.3,268.3z"/>
					</defs>
					<clipPath id="SVGID_12_">
						<use xlink:href="#SVGID_11_"  style="overflow:visible;"/>
					</clipPath>
					<path class="st15" d="M-34.1,309.5h5.3l-1.6,9h-20.4l1.6-9h5.3l3.2-18.3h-5l1.6-8.8h13.9l0.1,3.7c3.9-3.3,8-4.1,10.9-4.1
						c9.8,0,14.5,4.6,12.2,17.5l-1.7,10h5.1l-1.6,9h-19.2l1.6-9h4l1.7-9.9c0.7-3.8,0.9-8.1-5.6-8.1c-4.9-0.1-8.8,3.3-9.7,8.8
						L-34.1,309.5z"/>
				</g>
				<g>
					<defs>
						<path id="SVGID_13_" d="M-7.3,268.3c5.4-15,16.4-21.2,26.3-21.2c4.5,0,8.4,1.2,12.2,3.2l-4.6,14.5h-1.1
							c-2.3-10.9-3.8-14.7-6.5-14.7c-3.3,0-7.8,5.3-11.3,15.8c-4.3,13.1-2.9,22.1,3.3,22.4c3.7,0.1,8.1-2.7,12.6-9.7l0.9,0.8
							c-5.6,12.5-14.2,16.9-21,16.9C-8.3,296.4-12.8,283.6-7.3,268.3z"/>
					</defs>
					<clipPath id="SVGID_14_">
						<use xlink:href="#SVGID_13_"  style="overflow:visible;"/>
					</clipPath>
					<path class="st16" d="M40.3,309.4h5l-1.6,9.1H31.1l-0.2-4.5c-4.6,4-9.3,5.1-12.7,5.1c-13.1,0-14.8-8-13-18.2l1.7-9.9H2.3
						l1.5-8.5h14.6l-3.3,18.3c-0.9,5-0.6,8.5,7,8.5c4.9-0.1,8.9-4.2,9.8-9.2l1.6-9.1h-5.4l1.5-8.5h15.4L40.3,309.4z"/>
				</g>
				<g>
					<defs>
						<path id="SVGID_15_" d="M30.3,268.4c5.3-14.3,16.3-21.3,26.3-21.3c8.3,0,14.6,4.9,12.4,12.6c-2.4,8.7-13.2,12.4-25.2,13.9
							c-1.5,9.3,1.2,14.6,6.2,14.8c3.3,0.2,8.6-2,13-9.7l1,0.8c-5.6,12.5-14.5,16.9-21.3,16.9C31.2,296.4,24.4,284.3,30.3,268.4z
							 M57.2,257.2c1-3.3,1.7-7.2-0.8-7.2c-2.8,0-7,5.7-10.1,14.3c-0.9,2.5-1.6,4.9-2.1,7C52.2,269.3,55.5,262.8,57.2,257.2z"/>
					</defs>
					<clipPath id="SVGID_16_">
						<use xlink:href="#SVGID_15_"  style="overflow:visible;"/>
					</clipPath>
					<path class="st17" d="M71.3,309.8l-1.5,8.6H49.2l1.5-8.6h5.1l3.3-18.3h-6.5l1.4-8h6.5l0.4-2c2-11.2,9.5-14.5,16.7-14.5
						c2.5,0,4.6,0.4,7,1.7l-3.8,7.8c-1.2-0.6-2.5-0.8-3.8-0.8c-3,0-5.5,1.9-6.2,5.9l-0.3,1.8h7.5l-1.4,8H69l-3.3,18.3H71.3z"/>
				</g>
				<g>
					<defs>
						<path id="SVGID_17_" d="M30.3,268.4c5.3-14.3,16.3-21.3,26.3-21.3c8.3,0,14.6,4.9,12.4,12.6c-2.4,8.7-13.2,12.4-25.2,13.9
							c-1.5,9.3,1.2,14.6,6.2,14.8c3.3,0.2,8.6-2,13-9.7l1,0.8c-5.6,12.5-14.5,16.9-21.3,16.9C31.2,296.4,24.4,284.3,30.3,268.4z
							 M57.2,257.2c1-3.3,1.7-7.2-0.8-7.2c-2.8,0-7,5.7-10.1,14.3c-0.9,2.5-1.6,4.9-2.1,7C52.2,269.3,55.5,262.8,57.2,257.2z"/>
					</defs>
					<clipPath id="SVGID_18_">
						<use xlink:href="#SVGID_17_"  style="overflow:visible;"/>
					</clipPath>
					<path class="st18" d="M40.3,309.4h5l-1.6,9.1H31.1l-0.2-4.5c-4.6,4-9.3,5.1-12.7,5.1c-13.1,0-14.8-8-13-18.2l1.7-9.9H2.3
						l1.5-8.5h14.6l-3.3,18.3c-0.9,5-0.6,8.5,7,8.5c4.9-0.1,8.9-4.2,9.8-9.2l1.6-9.1h-5.4l1.5-8.5h15.4L40.3,309.4z"/>
				</g>
			</g>
		</g>
		<g id="Calque_4_1_">
		</g>
	</g>
	<g id="Calque_3">
	</g>
</g>
<g id="Calque_2_1_">
</g>
</svg>
