<?xml version="1.0" encoding="utf-8"?>
<!-- Generator: Adobe Illustrator 19.0.0, SVG Export Plug-In . SVG Version: 6.00 Build 0)  -->
<svg version="1.1" xmlns="http://www.w3.org/2000/svg" xmlns:xlink="http://www.w3.org/1999/xlink" x="0px" y="0px"
	 viewBox="-185 224 589 114" style="enable-background:new -185 224 589 114;" xml:space="preserve">
<style type="text/css">
	.st0{display:none;}
	.st1{display:inline;}
	.st2{fill:#EBFFAA;}
	.st3{display:inline;fill:#E90052;}
	.st4{font-family:'DentonCondensedTest-BlackItalic';}
	.st5{font-size:93.7594px;}
	.st6{display:inline;fill:#3AF9BA;}
	.st7{font-family:'NexaSlabHeavyOblique';}
	.st8{font-size:72.4382px;}
	.st9{enable-background:new    ;}
	.st10{fill:#E90052;}
	.st11{fill:#3AF9BA;}
	.st12{clip-path:url(#SVGID_2_);}
	.st13{clip-path:url(#SVGID_4_);}
</style>
<g id="Calque_1">
	<g id="Sauvegarde" class="st0">
		<g id="Calque_5" class="st1">
			<rect x="-1" y="272.7" class="st2" width="405" height="1.9"/>
			<rect x="-185" y="310.7" class="st2" width="208" height="1.9"/>
		</g>
		<text transform="matrix(1 0 0 1 -182.4058 298.3066)" class="st3 st4 st5">Conclusion</text>
		<text transform="matrix(1 0 0 1 -23.9038 327.8145)" class="st6 st7 st8">Conclusion</text>
	</g>
	<g id="Calque_3">
		<g id="Sauvegarde_1_">
			<g id="Calque_5_1_">
				<rect x="9.3" y="272.7" class="st2" width="394.7" height="1.9"/>
				<rect x="-185" y="310.7" class="st2" width="293" height="1.9"/>
			</g>
			<g class="st9">
				<path class="st10" d="M-171.7,286.2l14.3-46.9c2.1-6.8-1.1-8.1-3.6-8.7l0.5-1.6h27.8l-0.5,1.6c-2.8,0.8-6.4,2.4-8.3,8.7
					l-14.3,46.9c-2.1,6.7,1,8.1,3.6,8.7l-0.5,1.6h-27.8l0.6-1.6C-177.8,294.3-173.7,293-171.7,286.2z"/>
				<path class="st10" d="M-96.3,283.4l6.9-19.7c2.2-6.2,1.3-7.7,0.2-7.7c-2.3,0-9.2,8.4-15.1,26.2l-0.9,2.8
					c-0.1,0.2-0.1,0.4-0.2,0.6v-0.1l-3.6,11.1h-15.2l10.9-32.9c2.2-6.5,0.9-7.8-0.2-7.8c-2.4,0-10.2,9.3-16.4,28.6l-3.7,12.1h-15
					l11.8-37.8c1.8-5.9-0.4-7.7-2.4-8.3l0.5-1.5h19.7l-4.6,15.1c6.4-11.5,12.4-15.8,18.2-15.8c6.2,0,10.2,5.7,7.4,14.3
					c5.9-10.8,11.3-14.1,16.6-14.1c6.8,0,10.7,5.6,8,13.6l-7.2,20.3c-2.3,6.5-1.3,8.1,0,8.1c1.1,0,3.5-1.9,7.4-8.7l1,0.8
					c-3.8,8.6-10.1,15.3-17.1,15.3C-95.4,297.9-99.4,292.2-96.3,283.4z"/>
				<path class="st10" d="M-75.3,305.7l13.5-41.7c1.9-5.8,1.3-8.1,0-8.1c-1.1,0-3.5,1.7-7.4,8.7l-0.9-0.8
					c3.7-8.5,10.1-15.3,17.1-15.3c5.3,0,8.5,3.7,7.5,10.9c4-8.1,8.5-11.2,13.4-11.2c10.7,0.1,10.9,14.4,7,25.7
					c-5.6,16.6-16.9,24-24.8,23.5c-3.4-0.1-5.4-1.5-6.6-3.2l-4.3,13.2c-1.3,4.2-0.3,6.1,3.8,7.2l-0.6,1.6h-27.1l0.5-1.6
					C-81.6,313.9-77.6,312.7-75.3,305.7z M-53.2,293.5c3.4,0,7.2-4.7,11.6-18.3c2.3-6.9,6-18.8,1.7-18.8c-1.8-0.1-5.6,3.3-10.2,18.1
					v-0.1l-5.7,17.7C-55.1,293-54.3,293.5-53.2,293.5z"/>
				<path class="st10" d="M-22.4,284.7c0-15.5,11.7-36.5,26-36.4c4.2,0,6.5,1.9,7.6,3.8l12.4-3.2h3.2l-10.8,33.3c-0.9,3.1-2.2,8,0,8
					c1.2,0,3.7-2.1,7.4-8.7l1,0.8c-3.7,8.4-10.1,15.3-17.1,15.3c-6.2,0-8.3-4.9-7.5-11.1c-4,8-8.4,11.1-13.2,11.1
					C-19.2,297.7-22.4,292.6-22.4,284.7z M3.4,274.4l0.8-2.6l0.1-0.4l4.8-14.8c0.7-2.8-0.4-4.1-2-4.1c-3.1,0-6.9,4.7-11.3,18.2
					c-2,6.1-6,19-1.6,19C-4,289.7-0.8,286.5,3.4,274.4z"/>
				<path class="st10" d="M28.3,269.6c5.4-15,16.4-21.2,26.3-21.2c4.5,0,8.4,1.2,12.2,3.2l-4.6,14.5H61c-2.3-10.9-3.8-14.7-6.5-14.7
					c-3.3,0-7.8,5.3-11.3,15.8c-4.3,13.1-2.9,22.1,3.3,22.4c3.7,0.1,8.1-2.7,12.6-9.7l0.9,0.8c-5.6,12.5-14.2,16.9-21,16.9
					C27.3,297.7,22.8,284.9,28.3,269.6z"/>
				<path class="st10" d="M65.9,281.8l8.9-29.7h-5.6l0.3-1.3c7.5-2.6,16.8-8.2,23.6-16.1H95L90.6,249h9.3l-0.9,3.1h-9.3l-9.1,30.4
					c-1.7,5.8-1,7.8,0.5,7.8c1.8,0,5.2-2.7,8.5-8.7l0.9,0.8c-4.2,8.4-10.8,15.4-17.8,15.4C66.2,297.7,62.8,292.1,65.9,281.8z"/>
				<path class="st10" d="M110.5,272.2c4.6-17.8,18.1-24.1,27.4-23.8c9.3,0.3,18.2,7,13.6,24.9c-4.6,17.8-18.5,24.7-27.5,24.4
					C114.8,297.5,105.8,289.9,110.5,272.2z M135.7,272.9c2.1-7.6,6.1-21.5,1.5-21.7c-4.4-0.2-8.2,11.3-10.9,21.2
					c-2.6,9.9-6,22.2-1.8,22.4C128.9,295,133.1,282.8,135.7,272.9z"/>
				<path class="st10" d="M153.9,285.1l10.2-33h-5.8l1.1-3.1h5.6c4.9-15.2,14-21.2,23-21.2c4.7,0,8.7,1.6,11.6,2.9l-5.4,13.3h-0.9
					c-1.8-8.8-3.9-13.1-5.8-13.1c-1.7,0-3.2,4.4-6.8,16.4l-0.5,1.7h8.3l-1,3.1h-8.3L169,285.5c-6.9,22.6-22.5,30.7-35.2,31.6
					l0.1-0.8C145.3,308.7,149.2,300.4,153.9,285.1z"/>
			</g>
			<g class="st9">
				<path class="st11" d="M145.5,317.3h-11.2l-3.7-16.2l-2.2-11.7l-6.1,11.8l-9.2,16.2H102l-6.5-41h-5.1l1.7-9.7h22.5l-1.7,9.7h-5.3
					l3.3,25.7l17.7-33.3h7.2l6.1,33.3l12-25.7h-6l1.7-9.7h22.8l-1.7,9.7H166L145.5,317.3z"/>
				<path class="st11" d="M199.2,312.7c-4.6,3.8-11.4,5.6-16.7,5.6c-12,0-16.9-6.8-16.9-15.6c0-13.3,9.6-22.4,23-22.4
					c11.3,0,18.4,6.3,13.4,22.5h-26.4c-0.1,3.6,2,6.3,8.7,6.3c2.9,0,7.2-1.1,10.1-3.1L199.2,312.7z M194.2,295.2
					c0.9-4.4-2.5-6.2-7-6.2c-4.6,0-8.7,2-10.3,6.2H194.2z"/>
				<path class="st11" d="M213.3,266.6h14.6l-7.3,41.9h4.3l-1.6,8.8h-19.3l1.6-8.8h4.9l5.8-33.1h-4.6L213.3,266.6z"/>
				<path class="st11" d="M274,308.3l-1.6,9H259l-0.6-4.7c-3.7,3.5-7.7,5.4-13,5.4c-8.8,0-14.6-5.2-14.6-14.8
					c0-14.8,10.3-22.5,21.9-22.5c4.1,0,8.1,1,10.2,4.3l1.7-9.7h-5l1.5-8.6h15.1l-7.4,41.6H274z M241.4,301c0,4.8,3.1,7.5,7.5,7.5
					c5.2,0,11.5-3.1,11.5-11.3c0-6.2-4.6-7.5-7.8-7.5C247,289.7,241.4,293.1,241.4,301z"/>
				<path class="st11" d="M298.4,281.3l-4.8,27.2h4.1l-1.6,8.8h-18.9l1.6-8.8h4.6l3.2-18.5h-4.5l1.6-8.7H298.4z M289.1,272.8
					c0-4.2,3.7-6.6,7-6.6c2.9,0,5.2,1.7,5.2,4.9c0,4.1-3.7,6.6-7.1,6.6C291.4,277.7,289.1,275.8,289.1,272.8z"/>
				<path class="st11" d="M318.3,308.3h5.3l-1.6,9h-20.4l1.6-9h5.3l3.2-18.3h-5l1.6-8.8h13.9l0.1,3.7c3.9-3.3,8-4.1,10.9-4.1
					c9.8,0,14.5,4.6,12.2,17.5l-1.7,10h5.1l-1.6,9h-19.2l1.6-9h4l1.7-9.9c0.7-3.8,0.9-8.1-5.6-8.1c-4.9-0.1-8.8,3.3-9.7,8.8
					L318.3,308.3z"/>
				<path class="st11" d="M367.5,336.4c-11.2,0-17.7-5.3-15.8-15h10.1c-0.4,3.8,3,5.9,7.8,5.9c6,0,9.7-3.3,10.9-9.7l0.7-3.7
					c-3.4,3.8-7.8,4.5-11.8,4.6c-9.5,0-15.8-5.6-15.8-15.4c0-13.6,10.1-22,21.8-22c4.2,0,8.5,1.1,10.9,4.9l1.6-4.6h13.7l-1.5,8.8
					h-4.6l-4.9,27.6C388.1,331.4,380.2,336.4,367.5,336.4z M364,301.2c0,4.6,3.1,8.3,8,8.3c7.5,0,12.1-5.4,12.1-11.4
					c0-4.6-3-7.8-8.5-7.8C370.6,290.3,364,293.8,364,301.2z"/>
			</g>
		</g>
	</g>
	<g id="Calque_4">
		<g>
			<defs>
				<path id="SVGID_1_" d="M110.5,272.2c4.6-17.8,18.1-24.1,27.4-23.8c9.3,0.3,18.2,7,13.6,24.9c-4.6,17.8-18.5,24.7-27.5,24.4
					C114.8,297.5,105.8,289.9,110.5,272.2z M135.7,272.9c2.1-7.6,6.1-21.5,1.5-21.7c-4.4-0.2-8.2,11.3-10.9,21.2
					c-2.6,9.9-6,22.2-1.8,22.4C128.9,295,133.1,282.8,135.7,272.9z"/>
			</defs>
			<clipPath id="SVGID_2_">
				<use xlink:href="#SVGID_1_"  style="overflow:visible;"/>
			</clipPath>
			<path class="st12" d="M145.5,317.3h-11.2l-3.7-16.2l-2.2-11.7l-6.1,11.8l-9.2,16.2H102l-6.5-41h-5.1l1.7-9.7h22.5l-1.7,9.7h-5.3
				l3.3,25.7l17.7-33.3h7.2l6.1,33.3l12-25.7h-6l1.7-9.7h22.8l-1.7,9.7H166L145.5,317.3z"/>
		</g>
		<g>
			<defs>
				<path id="SVGID_3_" d="M153.9,285.1l10.2-33h-5.8l1.1-3.1h5.6c4.9-15.2,14-21.2,23-21.2c4.7,0,8.7,1.6,11.6,2.9l-5.4,13.3h-0.9
					c-1.8-8.8-3.9-13.1-5.8-13.1c-1.7,0-3.2,4.4-6.8,16.4l-0.5,1.7h8.3l-1,3.1h-8.3L169,285.5c-6.9,22.6-22.5,30.7-35.2,31.6
					l0.1-0.8C145.3,308.7,149.2,300.4,153.9,285.1z"/>
			</defs>
			<clipPath id="SVGID_4_">
				<use xlink:href="#SVGID_3_"  style="overflow:visible;"/>
			</clipPath>
			<path class="st13" d="M145.5,317.3h-11.2l-3.7-16.2l-2.2-11.7l-6.1,11.8l-9.2,16.2H102l-6.5-41h-5.1l1.7-9.7h22.5l-1.7,9.7h-5.3
				l3.3,25.7l17.7-33.3h7.2l6.1,33.3l12-25.7h-6l1.7-9.7h22.8l-1.7,9.7H166L145.5,317.3z"/>
		</g>
	</g>
</g>
<g id="Calque_2">
</g>
</svg>
