<?xml version="1.0" encoding="utf-8"?>
<!-- Generator: Adobe Illustrator 19.0.0, SVG Export Plug-In . SVG Version: 6.00 Build 0)  -->
<svg version="1.1" xmlns="http://www.w3.org/2000/svg" xmlns:xlink="http://www.w3.org/1999/xlink" x="0px" y="0px"
	 viewBox="-185 224 589 114" style="enable-background:new -185 224 589 114;" xml:space="preserve">
<style type="text/css">
	.st0{display:none;}
	.st1{display:inline;}
	.st2{fill:#EBFFAA;}
	.st3{display:inline;fill:#E90052;}
	.st4{font-family:'DentonCondensedTest-BlackItalic';}
	.st5{font-size:93.7594px;}
	.st6{display:inline;fill:#3AF9BA;}
	.st7{font-family:'NexaSlabHeavyOblique';}
	.st8{font-size:72.4382px;}
	.st9{enable-background:new    ;}
	.st10{fill:#E90052;}
	.st11{fill:#3AF9BA;}
	.st12{clip-path:url(#SVGID_2_);}
	.st13{clip-path:url(#SVGID_4_);}
</style>
<g id="Calque_1">
	<g id="Sauvegarde" class="st0">
		<g id="Calque_5" class="st1">
			<rect x="-1" y="272.7" class="st2" width="405" height="1.9"/>
			<rect x="-185" y="310.7" class="st2" width="208" height="1.9"/>
		</g>
		<text transform="matrix(1 0 0 1 -182.4058 298.3066)" class="st3 st4 st5">Conclusion</text>
		<text transform="matrix(1 0 0 1 -23.9038 327.8145)" class="st6 st7 st8">Conclusion</text>
	</g>
	<g id="Sauvegarde_1_">
		<g id="Calque_5_1_">
			<rect x="-1" y="272.7" class="st2" width="405" height="1.9"/>
			<rect x="-185" y="310.7" class="st2" width="211.8" height="1.9"/>
		</g>
		<g class="st9">
			<path class="st10" d="M-174.8,288l14.3-46.9c2.1-6.8-1.2-8.1-3.5-8.7l0.5-1.6h27.7l-0.5,1.6c-2.4,0.8-6.2,2.3-8.2,8.7l-16.6,54.2
				l2.7-0.1c12.4-0.5,20-9,23.8-15.4l1.5,0.7l-6.2,16.1l-0.7,1.7h-43.2l0.5-1.6C-180.5,296-176.9,294.6-174.8,288z"/>
			<path class="st10" d="M-131,286.5c0-15.5,11.7-36.5,26-36.4c4.2,0,6.5,1.9,7.6,3.8l12.4-3.2h3.2l-10.8,33.3c-0.9,3.1-2.2,8,0,8
				c1.2,0,3.7-2.1,7.4-8.7l1,0.8c-3.7,8.4-10.1,15.3-17.1,15.3c-6.2,0-8.3-4.9-7.5-11.1c-4,8-8.4,11.1-13.2,11.1
				C-127.8,299.4-131,294.4-131,286.5z M-105.2,276.2l0.8-2.6l0.1-0.4l4.8-14.8c0.7-2.8-0.4-4.1-2-4.1c-3.1,0-6.9,4.7-11.3,18.2
				c-2,6.1-6,19-1.6,19C-112.6,291.5-109.3,288.3-105.2,276.2z"/>
			<path class="st10" d="M-85.9,294.6l4.6-13.4h0.9c1.5,3.9,3.1,7.6,4.9,10.2c2.2,3.3,4.5,5.1,6.8,5c2,0,4.1-1.2,4.2-3.9
				c0.2-4.4-5.5-10.5-9.3-16.1c-3.6-5.3-4.5-8.4-4.3-12c0.3-8.4,7.6-14.3,17.4-14.3c4.3,0,9.4,1.1,14.2,3.8l-4.5,12.9h-0.8
				c-0.8-3.1-1.8-6-2.8-8.1c-2-3.7-4.3-5.8-6.9-5.8c-2,0-4.2,1.2-4.2,3.8c0,4,5.4,9.7,9.3,15.7c2.8,4.7,4,8.3,3.7,12.8
				c-0.8,7.8-6.7,14.2-16.8,14.2C-75.4,299.4-81.3,297.4-85.9,294.6z"/>
			<path class="st10" d="M-46.6,271.5c5.3-14.3,16.3-21.3,26.3-21.3c8.3,0,14.6,4.9,12.4,12.6c-2.4,8.7-13.2,12.4-25.2,13.9
				c-1.5,9.3,1.2,14.6,6.2,14.8c3.3,0.2,8.6-2,13-9.7l1,0.8c-5.6,12.5-14.5,16.9-21.3,16.9C-45.7,299.4-52.5,287.3-46.6,271.5z
				 M-19.7,260.2c1-3.3,1.7-7.2-0.8-7.2c-2.8,0-7,5.7-10.1,14.3c-0.9,2.5-1.6,4.9-2.1,7C-24.7,272.3-21.3,265.9-19.7,260.2z"/>
			<path class="st10" d="M-4.1,252.3l0.5-1.5h19.7l-5.3,17.6c5.5-13.1,12.8-20.3,21.5-17.9l-6.4,14H25c-5.3-3.5-13.2,1.5-19.3,20.4
				l-4.1,13.4h-15l11.8-37.8C0.1,254.6-2,252.8-4.1,252.3z"/>
		</g>
		<g class="st9">
			<path class="st11" d="M35.3,317.1H24l-3.7-16.2l-2.2-11.7L12,301l-9.2,16.2H-8.3l-6.5-41h-5.1l1.7-9.7H4.3l-1.7,9.7h-5.3
				l3.3,25.7l17.7-33.3h7.2l6.1,33.3l12-25.7h-6l1.7-9.7h22.8l-1.7,9.7h-4.8L35.3,317.1z"/>
			<path class="st11" d="M89,312.5c-4.6,3.8-11.4,5.6-16.7,5.6c-12,0-16.9-6.8-16.9-15.6c0-13.3,9.6-22.4,23-22.4
				c11.3,0,18.4,6.3,13.4,22.5H65.4c-0.1,3.6,2,6.3,8.7,6.3c2.9,0,7.2-1.1,10.1-3.1L89,312.5z M84,295.1c0.9-4.4-2.5-6.2-7-6.2
				c-4.6,0-8.7,2-10.3,6.2H84z"/>
			<path class="st11" d="M103,266.4h14.6l-7.3,41.9h4.3l-1.6,8.8H93.8l1.6-8.8h4.9l5.8-33.1h-4.6L103,266.4z"/>
			<path class="st11" d="M163.7,308.2l-1.6,9h-13.3l-0.6-4.7c-3.7,3.5-7.7,5.4-13,5.4c-8.8,0-14.6-5.2-14.6-14.8
				c0-14.8,10.3-22.5,21.9-22.5c4.1,0,8.1,1,10.2,4.3l1.7-9.7h-5l1.5-8.6h15.1l-7.4,41.6H163.7z M131.2,300.9c0,4.8,3.1,7.5,7.5,7.5
				c5.2,0,11.5-3.1,11.5-11.3c0-6.2-4.6-7.5-7.8-7.5C136.8,289.6,131.2,293,131.2,300.9z"/>
			<path class="st11" d="M188.2,281.1l-4.8,27.2h4.1l-1.6,8.8H167l1.6-8.8h4.6l3.2-18.5h-4.5l1.6-8.7H188.2z M178.8,272.6
				c0-4.2,3.7-6.6,7-6.6c2.9,0,5.2,1.7,5.2,4.9c0,4.1-3.7,6.6-7.1,6.6C181.2,277.5,178.8,275.6,178.8,272.6z"/>
			<path class="st11" d="M208,308.2h5.3l-1.6,9h-20.4l1.6-9h5.3l3.2-18.3h-5l1.6-8.8h13.9l0.1,3.7c3.9-3.3,8-4.1,10.9-4.1
				c9.8,0,14.5,4.6,12.2,17.5l-1.7,10h5.1l-1.6,9h-19.2l1.6-9h4l1.7-9.9c0.7-3.8,0.9-8.1-5.6-8.1c-4.9-0.1-8.8,3.3-9.7,8.8
				L208,308.2z"/>
			<path class="st11" d="M257.2,336.3c-11.2,0-17.7-5.3-15.8-15h10.1c-0.4,3.8,3,5.9,7.8,5.9c6,0,9.7-3.3,10.9-9.7l0.7-3.7
				c-3.4,3.8-7.8,4.5-11.8,4.6c-9.5,0-15.8-5.6-15.8-15.4c0-13.6,10.1-22,21.8-22c4.2,0,8.5,1.1,10.9,4.9l1.6-4.6h13.7l-1.5,8.8
				h-4.6l-4.9,27.6C277.9,331.2,269.9,336.3,257.2,336.3z M253.7,301c0,4.6,3.1,8.3,8,8.3c7.5,0,12.1-5.4,12.1-11.4
				c0-4.6-3-7.8-8.5-7.8C260.3,290.1,253.7,293.6,253.7,301z"/>
		</g>
	</g>
	<g>
		<defs>
			<path id="SVGID_1_" d="M-46.6,271.5c5.3-14.3,16.3-21.3,26.3-21.3c8.3,0,14.6,4.9,12.4,12.6c-2.4,8.7-13.2,12.4-25.2,13.9
				c-1.5,9.3,1.2,14.6,6.2,14.8c3.3,0.2,8.6-2,13-9.7l1,0.8c-5.6,12.5-14.5,16.9-21.3,16.9C-45.7,299.4-52.5,287.3-46.6,271.5z
				 M-19.7,260.2c1-3.3,1.7-7.2-0.8-7.2c-2.8,0-7,5.7-10.1,14.3c-0.9,2.5-1.6,4.9-2.1,7C-24.7,272.3-21.3,265.9-19.7,260.2z"/>
		</defs>
		<clipPath id="SVGID_2_">
			<use xlink:href="#SVGID_1_"  style="overflow:visible;"/>
		</clipPath>
		<path class="st12" d="M35.3,317.1H24l-3.7-16.2l-2.2-11.7L12,301l-9.2,16.2H-8.3l-6.5-41h-5.1l1.7-9.7H4.3l-1.7,9.7h-5.3l3.3,25.7
			l17.7-33.3h7.2l6.1,33.3l12-25.7h-6l1.7-9.7h22.8l-1.7,9.7h-4.8L35.3,317.1z"/>
	</g>
	<g>
		<defs>
			<path id="SVGID_3_" d="M-4.1,252.3l0.5-1.5h19.7l-5.3,17.6c5.5-13.1,12.8-20.3,21.5-17.9l-6.4,14H25c-5.3-3.5-13.2,1.5-19.3,20.4
				l-4.1,13.4h-15l11.8-37.8C0.1,254.6-2,252.8-4.1,252.3z"/>
		</defs>
		<clipPath id="SVGID_4_">
			<use xlink:href="#SVGID_3_"  style="overflow:visible;"/>
		</clipPath>
		<path class="st13" d="M35.3,317.1H24l-3.7-16.2l-2.2-11.7L12,301l-9.2,16.2H-8.3l-6.5-41h-5.1l1.7-9.7H4.3l-1.7,9.7h-5.3l3.3,25.7
			l17.7-33.3h7.2l6.1,33.3l12-25.7h-6l1.7-9.7h22.8l-1.7,9.7h-4.8L35.3,317.1z"/>
	</g>
	<g id="Calque_3">
	</g>
</g>
<g id="Calque_2">
</g>
</svg>
