<?xml version="1.0" encoding="utf-8"?>
<!-- Generator: Adobe Illustrator 19.0.0, SVG Export Plug-In . SVG Version: 6.00 Build 0)  -->
<svg version="1.1" id="Calque_1" xmlns="http://www.w3.org/2000/svg" xmlns:xlink="http://www.w3.org/1999/xlink" x="0px" y="0px"
	 viewBox="-185 224 589 114" style="enable-background:new -185 224 589 114;" xml:space="preserve">
<style type="text/css">
	.st0{fill:#E90052;}
	.st1{fill:#3AF9BA;}
	.st2{fill:#EBFFAA;}
	.st3{clip-path:url(#SVGID_2_);}
	.st4{clip-path:url(#SVGID_4_);}
	.st5{clip-path:url(#SVGID_6_);}
	.st6{clip-path:url(#SVGID_8_);}
</style>
<g id="Calque_2_1_">
</g>
<g>
	<path class="st0" d="M-106,249.7l1.5-8.7h19.1l-1.5,8.7h-4.6l-4.9,27.7h14.1l1.5-6.6h8.4l-2.7,15.2h-36.6l1.5-8.6h4.2l5-27.8H-106z
		"/>
	<path class="st0" d="M-30.5,278.3l-1.4,7.8h-12.2l0.1-3.6c-4.9,4.2-7.8,4.4-12.5,4.4c-7.8,0-12.6-5.4-12.6-13.7
		c0-10.2,7.3-19.2,18.8-19.8c4.4,0,8.2,0.5,10.6,4.1l1-3.3h12.1l-1.4,8H-32l-2.8,16.1H-30.5z M-59.9,272c0,4.1,2.4,7.1,7,7.1
		c5.6,0,10-3.7,10.9-8.6c0.9-5-1.7-8.7-7.3-8.7C-55.3,261.7-59.9,266.4-59.9,272z"/>
	<path class="st0" d="M-7.5,245.6l-1.5,8.8h8.2l-1.4,7.7h-8.4l-2.2,12.5c-0.6,3.9,2.7,4.9,6.8,3.3l0.7,7.4c-3.3,1.2-5.1,1.4-7.9,1.4
		c-5.8-0.1-10-3.4-8.4-12l2.2-12.5h-5.5l1.4-7.7h5.5l1.4-7.8L-7.5,245.6z"/>
	<path class="st0" d="M30,281.9c-4.1,3.4-10.1,5-14.8,5c-10.6,0-15-6-15-13.8c0-11.8,8.5-19.9,20.5-19.9c10,0,16.3,5.6,11.9,20H9
		c-0.1,3.2,1.8,5.6,7.7,5.6c2.6,0,6.4-1,8.9-2.8L30,281.9z M25.5,266.4c0.8-3.9-2.2-5.5-6.2-5.5c-4.1,0-7.7,1.8-9.1,5.5H25.5z"/>
	<path class="st0" d="M58.2,264.3l0.3-3.6c-0.8-0.5-2.9-0.9-4.8-0.9c-2.9,0-5.8,1-5.8,3.8c0,2,2.8,2.3,4.6,2.4
		c7.8,0.5,13.6,3.2,12.5,11.2c-1.3,6.2-6.2,10-16,10c-5,0-9.8-1-13.6-3.7l1.8-8.8h7.6l-0.3,3.5c1,0.6,3.2,1.1,5.5,1.2
		c3.1,0.1,6.2-0.6,6.2-3.2c0-1.5-1.7-2.6-5.6-2.8c-7.4-0.9-13-3.7-11.6-10.5c1.2-7.1,9.3-10,16.2-10c4.2,0,8.6,0.9,12,2.7l-1.7,8.7
		H58.2z"/>
	<path class="st0" d="M87.3,245.6l-1.5,8.8H94l-1.4,7.7h-8.4l-2.2,12.5c-0.6,3.9,2.7,4.9,6.8,3.3l0.7,7.4c-3.3,1.2-5.1,1.4-7.9,1.4
		c-5.8-0.1-10-3.4-8.4-12l2.2-12.5H70l1.4-7.7h5.5l1.4-7.8L87.3,245.6z"/>
</g>
<g>
	<path class="st1" d="M-48.3,323.7l1.5-8.6h5.4l5-28.1h-6.8l-1.5,6.4h-8.2l2.6-14.7h40.1l-2.6,14.7H-21l0.5-6.4h-6.7l-5,28.1h5.4
		l-1.5,8.6H-48.3z"/>
	<path class="st1" d="M-5.4,299.5h-4.1l1.4-7.8H3.7l0.3,3c3-2.8,6.2-3.9,9.7-3.9c2.8,0,6,0.9,8.1,3.1l-5.5,7.7c-1.4-1.4-3.5-2-5.6-2
		c-3.5,0-7.4,2-8.4,7.6l-1.5,8.7h4.4l-1.4,7.7h-18.3l1.4-7.7h4.9L-5.4,299.5z"/>
	<path class="st1" d="M49.9,319.5c-4.1,3.4-10.1,5-14.8,5c-10.6,0-15-6-15-13.8c0-11.8,8.5-19.9,20.5-19.9c10,0,16.3,5.6,11.9,20H29
		c-0.1,3.2,1.8,5.6,7.7,5.6c2.6,0,6.4-1,8.9-2.8L49.9,319.5z M45.5,304c0.8-3.9-2.2-5.5-6.2-5.5c-4.1,0-7.7,1.8-9.1,5.5H45.5z"/>
	<path class="st1" d="M69.8,315.7h4.7l-1.4,8H54.9l1.4-8H61l2.8-16.2h-4.4l1.4-7.8h12.4l0.1,3.3c3.5-3,7.1-3.7,9.6-3.7
		c8.7,0,12.9,4.1,10.9,15.5l-1.5,8.9h4.6l-1.4,8h-17l1.4-8h3.5l1.5-8.8c0.6-3.4,0.8-7.2-5-7.2c-4.4-0.1-7.8,2.9-8.6,7.8L69.8,315.7z
		"/>
	<path class="st1" d="M139.4,315.7l-1.4,8h-11.8l-0.5-4.2c-3.3,3.2-6.8,4.8-11.5,4.8c-7.8,0-12.9-4.6-12.9-13.1
		c0-13.2,9.1-20,19.5-20c3.6,0,7.2,0.9,9.1,3.9l1.5-8.6h-4.4l1.4-7.7h13.4l-6.6,37H139.4z M110.5,309.2c0,4.2,2.8,6.6,6.7,6.6
		c4.6,0,10.2-2.8,10.2-10c0-5.5-4.1-6.6-6.9-6.6C115.5,299.1,110.5,302.2,110.5,309.2z"/>
	<path class="st1" d="M165.4,301.9l0.3-3.6c-0.8-0.5-2.9-0.9-4.8-0.9c-2.9,0-5.8,1-5.8,3.8c0,2,2.8,2.3,4.6,2.4
		c7.8,0.5,13.6,3.2,12.5,11.2c-1.3,6.2-6.2,10-16,10c-5,0-9.8-1-13.6-3.7l1.8-8.8h7.6l-0.3,3.5c1,0.6,3.2,1.1,5.5,1.2
		c3.1,0.1,6.2-0.6,6.2-3.2c0-1.5-1.7-2.6-5.6-2.8c-7.4-0.9-13-3.7-11.6-10.5c1.2-7.1,9.3-10,16.2-10c4.2,0,8.6,0.9,12,2.7l-1.7,8.7
		H165.4z"/>
</g>
<g>
	<path class="st2" d="M173,242.1c-0.4,0.4-0.6,0.9-0.6,1.4v8.6c0,0.5,0.2,1,0.6,1.4c0.4,0.4,0.9,0.6,1.4,0.6c0.5,0,1-0.2,1.4-0.6
		c0.4-0.4,0.6-0.9,0.6-1.4v-8.6c0-0.5-0.2-1-0.6-1.4c-0.4-0.4-0.9-0.6-1.4-0.6C173.9,241.6,173.4,241.7,173,242.1z"/>
	<path class="st2" d="M163.3,273.3c-0.5,0-1,0.1-1.4,0.5l-6,5.3c-0.4,0.4-0.6,0.8-0.7,1.4c0,0.5,0.1,1,0.5,1.4
		c0.4,0.4,0.8,0.6,1.4,0.7c0.5,0,1-0.1,1.4-0.5l6-5.3c0.4-0.4,0.6-0.8,0.7-1.4c0-0.5-0.1-1-0.5-1.4
		C164.3,273.5,163.9,273.3,163.3,273.3L163.3,273.3z"/>
	<path class="st2" d="M162,266.1c0.4-0.4,0.6-0.9,0.6-1.4c0-0.5-0.2-1-0.6-1.4c-0.4-0.4-0.9-0.6-1.4-0.6h-7.3c-0.5,0-1,0.2-1.4,0.6
		c-0.4,0.4-0.6,0.9-0.6,1.4c0,0.5,0.2,1,0.6,1.4c0.4,0.4,0.9,0.6,1.4,0.6h7.3C161.1,266.7,161.6,266.5,162,266.1L162,266.1z"/>
	<path class="st2" d="M160.2,245.7c-0.3-0.5-0.7-0.7-1.3-0.8c-0.5-0.1-1,0-1.5,0.3c-0.5,0.3-0.7,0.7-0.9,1.3c-0.1,0.5,0,1,0.3,1.5
		l5.3,7.9c0.3,0.5,0.7,0.7,1.3,0.8c0.5,0.1,1,0,1.5-0.3c0.5-0.3,0.7-0.7,0.9-1.3c0.1-0.5,0-1-0.3-1.5L160.2,245.7z"/>
	<path class="st2" d="M233.3,287.9c-1.7-1.8-3.1-3-4.2-3.6c-0.4-0.2-0.7-0.3-1-0.4c-0.1-0.6-0.1-1.2-0.2-1.8c-0.1-1-0.5-2.3-1-3.9
		c-1.2-3.7-2.6-6.8-4.2-9.3l0,0c-0.9-1.4-1.9-2.6-3-3.7c-0.3-0.3-0.7-0.6-1-0.9v0c-2.9-2.7-5.7-4.6-8.4-5.5c-4.3-1.5-8-0.8-11,2.3
		c-0.2,0.2-0.5,0.5-0.7,0.8c-0.2,0-0.3,0-0.5,0c-2.2,0-3.9,0.7-5.2,2.1c-0.5,0.5-1,1.3-1.5,2.5l0-0.1c-0.2,0.5-0.4,0.9-0.4,1.4
		c-1.5,0.3-2.6,1-3.5,1.9c-0.3,0.3-0.5,0.6-0.8,0.9c-0.8-0.7-1.6-1.4-2.2-2.1c0,0,0,0,0,0c-1.1-1.1-2.1-2.3-3-3.5
		c-3.9-5.7-7.7-7.5-11.3-5.4c-3.7,1.8-4.9,4.9-3.7,9.2c1,3.6,3.1,7,6.5,10.1v0c3.1,2.9,6.7,5.6,10.8,7.9h0c2.6,1.5,4.7,2.9,6.4,4.2
		c-4.8-0.9-9.1-0.7-12.9,0.5c-4.6,1.4-6.6,4.4-6,9c0,0.2,0,0.3,0.1,0.5l0,0c0.4,2.6,1.7,4.4,3.8,5.3c1.7,0.8,4.1,0.9,7.3,0.1h0
		c4.6-1.1,9.2-0.4,13.6,1.9h0c4.4,2.4,8.8,3.3,13.2,2.8c1.7,2.4,4.1,3.8,7.1,4.3c0,0,0,0,0.1,0c3.9,0.8,8.6-2.6,14.1-10.2v0
		C236.3,297.6,237.2,291.8,233.3,287.9L233.3,287.9z M227.4,303.1L227.4,303.1c-4.3,5.8-7.7,8.7-10.3,8.5l0.1,0
		c-1.5-0.3-2.7-0.9-3.8-1.8c3-1.6,5.4-3.8,7.1-6.5c0.3-0.5,0.4-1,0.3-1.5c-0.1-0.5-0.4-1-0.9-1.3c-0.5-0.3-1-0.4-1.5-0.3
		c-0.5,0.1-1,0.4-1.3,0.9c-1.7,2.7-4.2,4.7-7.4,6c-3.9,0.6-7.8-0.1-11.8-2.2h0c-5.4-2.9-10.8-3.6-16.4-2.3c-2,0.5-3.6,0.5-4.8,0.1
		c-0.7-0.4-1.2-1.1-1.4-2.1c0,0,0-0.1,0-0.1l0,0c-0.4-2.6,0.7-4.3,3.2-5.1c3.3-1,7-1.1,11.1-0.3c2.8,0.5,4.6,0.6,5.4,0.1
		c1.4-0.6,1.9-1.6,1.4-3.1c-0.1-0.5-0.6-1.2-1.4-2l0,0c-2.1-2.1-5.2-4.3-9.3-6.6h0c-3.8-2.2-7.1-4.6-10.1-7.4v0
		c-2.8-2.6-4.6-5.3-5.4-8.3c-0.6-2.2,0-3.7,1.7-4.6c1.8-0.7,3.9,0.7,6.2,4.1l0,0c1,1.4,2.2,2.8,3.4,4.1l0,0c1.6,1.7,3.4,3.2,5.4,4.5
		c0,0,0.1,0,0.1,0.1c1.6,1.1,3.7,2.4,6.2,3.9c0.5,0.3,1,0.4,1.5,0.2c0.5-0.1,0.9-0.4,1.2-0.9c0.3-0.5,0.4-1,0.2-1.5
		c-0.1-0.5-0.4-0.9-0.9-1.2c-2.1-1.2-3.9-2.4-5.4-3.3c0.1-0.2,0.2-0.3,0.3-0.4c0.8-0.7,1.9-1,3.4-1c1.1,0.1,2.5,0.7,4.4,1.8
		c0.9,0.5,1.8,1.1,2.9,1.8c0.5,0.3,1,0.4,1.5,0.3c0.5-0.1,1-0.4,1.3-0.9c0.3-0.5,0.4-1,0.3-1.5c-0.1-0.5-0.4-1-0.9-1.3
		c-1.9-1.3-3.6-2.3-5.1-3c-1.1-0.5-2.1-0.9-2.9-1.1c0.2-0.4,0.4-0.7,0.5-0.9c0.6-0.6,1.4-0.9,2.4-0.9c0.5,0,1,0,1.6,0.1h0
		c0,0,0,0,0,0h0c0,0,0,0,0,0c1.5,0.4,3.8,1.7,6.9,4c0.4,0.3,0.9,0.4,1.5,0.4c0.5-0.1,1-0.3,1.3-0.8c0.3-0.4,0.5-0.9,0.4-1.5
		c-0.1-0.5-0.3-1-0.8-1.3c-2.4-1.7-4.4-3-6-3.8c1.7-1.1,3.6-1.3,5.9-0.5c2.2,0.8,4.6,2.4,7,4.7v0c0.3,0.3,0.6,0.6,0.9,0.8
		c0.9,0.9,1.7,1.9,2.5,3.1l0,0c1.4,2.3,2.7,5,3.8,8.3c0.4,1.3,0.7,2.4,0.8,3.2v0c0.2,1.2,0.3,2.4,0.3,3.5v0.1c0,1.9-0.2,3.7-0.6,5.5
		c0,0,0,0,0,0.1c-0.1,0.4-0.2,0.7-0.3,1.1c-0.1,0.5-0.1,1,0.2,1.5c0.3,0.5,0.7,0.8,1.2,0.9c0.5,0.1,1,0.1,1.5-0.2
		c0.5-0.3,0.8-0.7,0.9-1.2c0.1-0.3,0.2-0.7,0.3-1c0,0,0,0,0-0.1c0.4-1.4,0.6-2.8,0.7-4.3c0.6,0.5,1.4,1.2,2.2,2.1l0,0
		C232.5,293.3,231.5,297.4,227.4,303.1L227.4,303.1z"/>
	<path class="st2" d="M185,258.3l6-5.3c0.4-0.4,0.6-0.8,0.7-1.4c0-0.5-0.1-1-0.5-1.4c-0.4-0.4-0.8-0.6-1.4-0.7c-0.5,0-1,0.1-1.4,0.5
		l-6,5.3c-0.4,0.4-0.6,0.8-0.7,1.4c0,0.5,0.1,1,0.5,1.4c0.4,0.4,0.8,0.6,1.4,0.7C184.1,258.8,184.6,258.6,185,258.3L185,258.3z"/>
</g>
<g>
	<g>
		<defs>
			<path id="SVGID_1_" d="M-7.5,245.6l-1.5,8.8h8.2l-1.4,7.7h-8.4l-2.2,12.5c-0.6,3.9,2.7,4.9,6.8,3.3l0.7,7.4
				c-3.3,1.2-5.1,1.4-7.9,1.4c-5.8-0.1-10-3.4-8.4-12l2.2-12.5h-5.5l1.4-7.7h5.5l1.4-7.8L-7.5,245.6z"/>
		</defs>
		<clipPath id="SVGID_2_">
			<use xlink:href="#SVGID_1_"  style="overflow:visible;"/>
		</clipPath>
		<path class="st3" d="M-48.3,323.7l1.5-8.6h5.4l5-28.1h-6.8l-1.5,6.4h-8.2l2.6-14.7h40.1l-2.6,14.7H-21l0.5-6.4h-6.7l-5,28.1h5.4
			l-1.5,8.6H-48.3z"/>
	</g>
	<g>
		<defs>
			<path id="SVGID_3_" d="M233.3,287.9c-1.7-1.8-3.1-3-4.2-3.6c-0.4-0.2-0.7-0.3-1-0.4c-0.1-0.6-0.1-1.2-0.2-1.8
				c-0.1-1-0.5-2.3-1-3.9c-1.2-3.7-2.6-6.8-4.2-9.3l0,0c-0.9-1.4-1.9-2.6-3-3.7c-0.3-0.3-0.7-0.6-1-0.9v0c-2.9-2.7-5.7-4.6-8.4-5.5
				c-4.3-1.5-8-0.8-11,2.3c-0.2,0.2-0.5,0.5-0.7,0.8c-0.2,0-0.3,0-0.5,0c-2.2,0-3.9,0.7-5.2,2.1c-0.5,0.5-1,1.3-1.5,2.5l0-0.1
				c-0.2,0.5-0.4,0.9-0.4,1.4c-1.5,0.3-2.6,1-3.5,1.9c-0.3,0.3-0.5,0.6-0.8,0.9c-0.8-0.7-1.6-1.4-2.2-2.1c0,0,0,0,0,0
				c-1.1-1.1-2.1-2.3-3-3.5c-3.9-5.7-7.7-7.5-11.3-5.4c-3.7,1.8-4.9,4.9-3.7,9.2c1,3.6,3.1,7,6.5,10.1v0c3.1,2.9,6.7,5.6,10.8,7.9h0
				c2.6,1.5,4.7,2.9,6.4,4.2c-4.8-0.9-9.1-0.7-12.9,0.5c-4.6,1.4-6.6,4.4-6,9c0,0.2,0,0.3,0.1,0.5l0,0c0.4,2.6,1.7,4.4,3.8,5.3
				c1.7,0.8,4.1,0.9,7.3,0.1h0c4.6-1.1,9.2-0.4,13.6,1.9h0c4.4,2.4,8.8,3.3,13.2,2.8c1.7,2.4,4.1,3.8,7.1,4.3c0,0,0,0,0.1,0
				c3.9,0.8,8.6-2.6,14.1-10.2v0C236.3,297.6,237.2,291.8,233.3,287.9L233.3,287.9z M227.4,303.1L227.4,303.1
				c-4.3,5.8-7.7,8.7-10.3,8.5l0.1,0c-1.5-0.3-2.7-0.9-3.8-1.8c3-1.6,5.4-3.8,7.1-6.5c0.3-0.5,0.4-1,0.3-1.5c-0.1-0.5-0.4-1-0.9-1.3
				c-0.5-0.3-1-0.4-1.5-0.3c-0.5,0.1-1,0.4-1.3,0.9c-1.7,2.7-4.2,4.7-7.4,6c-3.9,0.6-7.8-0.1-11.8-2.2h0c-5.4-2.9-10.8-3.6-16.4-2.3
				c-2,0.5-3.6,0.5-4.8,0.1c-0.7-0.4-1.2-1.1-1.4-2.1c0,0,0-0.1,0-0.1l0,0c-0.4-2.6,0.7-4.3,3.2-5.1c3.3-1,7-1.1,11.1-0.3
				c2.8,0.5,4.6,0.6,5.4,0.1c1.4-0.6,1.9-1.6,1.4-3.1c-0.1-0.5-0.6-1.2-1.4-2l0,0c-2.1-2.1-5.2-4.3-9.3-6.6h0
				c-3.8-2.2-7.1-4.6-10.1-7.4v0c-2.8-2.6-4.6-5.3-5.4-8.3c-0.6-2.2,0-3.7,1.7-4.6c1.8-0.7,3.9,0.7,6.2,4.1l0,0
				c1,1.4,2.2,2.8,3.4,4.1l0,0c1.6,1.7,3.4,3.2,5.4,4.5c0,0,0.1,0,0.1,0.1c1.6,1.1,3.7,2.4,6.2,3.9c0.5,0.3,1,0.4,1.5,0.2
				c0.5-0.1,0.9-0.4,1.2-0.9c0.3-0.5,0.4-1,0.2-1.5c-0.1-0.5-0.4-0.9-0.9-1.2c-2.1-1.2-3.9-2.4-5.4-3.3c0.1-0.2,0.2-0.3,0.3-0.4
				c0.8-0.7,1.9-1,3.4-1c1.1,0.1,2.5,0.7,4.4,1.8c0.9,0.5,1.8,1.1,2.9,1.8c0.5,0.3,1,0.4,1.5,0.3c0.5-0.1,1-0.4,1.3-0.9
				c0.3-0.5,0.4-1,0.3-1.5c-0.1-0.5-0.4-1-0.9-1.3c-1.9-1.3-3.6-2.3-5.1-3c-1.1-0.5-2.1-0.9-2.9-1.1c0.2-0.4,0.4-0.7,0.5-0.9
				c0.6-0.6,1.4-0.9,2.4-0.9c0.5,0,1,0,1.6,0.1h0c0,0,0,0,0,0h0c0,0,0,0,0,0c1.5,0.4,3.8,1.7,6.9,4c0.4,0.3,0.9,0.4,1.5,0.4
				c0.5-0.1,1-0.3,1.3-0.8c0.3-0.4,0.5-0.9,0.4-1.5c-0.1-0.5-0.3-1-0.8-1.3c-2.4-1.7-4.4-3-6-3.8c1.7-1.1,3.6-1.3,5.9-0.5
				c2.2,0.8,4.6,2.4,7,4.7v0c0.3,0.3,0.6,0.6,0.9,0.8c0.9,0.9,1.7,1.9,2.5,3.1l0,0c1.4,2.3,2.7,5,3.8,8.3c0.4,1.3,0.7,2.4,0.8,3.2v0
				c0.2,1.2,0.3,2.4,0.3,3.5v0.1c0,1.9-0.2,3.7-0.6,5.5c0,0,0,0,0,0.1c-0.1,0.4-0.2,0.7-0.3,1.1c-0.1,0.5-0.1,1,0.2,1.5
				c0.3,0.5,0.7,0.8,1.2,0.9c0.5,0.1,1,0.1,1.5-0.2c0.5-0.3,0.8-0.7,0.9-1.2c0.1-0.3,0.2-0.7,0.3-1c0,0,0,0,0-0.1
				c0.4-1.4,0.6-2.8,0.7-4.3c0.6,0.5,1.4,1.2,2.2,2.1l0,0C232.5,293.3,231.5,297.4,227.4,303.1L227.4,303.1z"/>
		</defs>
		<clipPath id="SVGID_4_">
			<use xlink:href="#SVGID_3_"  style="overflow:visible;"/>
		</clipPath>
		<path class="st4" d="M165.4,301.9l0.3-3.6c-0.8-0.5-2.9-0.9-4.8-0.9c-2.9,0-5.8,1-5.8,3.8c0,2,2.8,2.3,4.6,2.4
			c7.8,0.5,13.6,3.2,12.5,11.2c-1.3,6.2-6.2,10-16,10c-5,0-9.8-1-13.6-3.7l1.8-8.8h7.6l-0.3,3.5c1,0.6,3.2,1.1,5.5,1.2
			c3.1,0.1,6.2-0.6,6.2-3.2c0-1.5-1.7-2.6-5.6-2.8c-7.4-0.9-13-3.7-11.6-10.5c1.2-7.1,9.3-10,16.2-10c4.2,0,8.6,0.9,12,2.7l-1.7,8.7
			H165.4z"/>
	</g>
	<g>
		<defs>
			<path id="SVGID_5_" d="M-30.5,278.3l-1.4,7.8h-12.2l0.1-3.6c-4.9,4.2-7.8,4.4-12.5,4.4c-7.8,0-12.6-5.4-12.6-13.7
				c0-10.2,7.3-19.2,18.8-19.8c4.4,0,8.2,0.5,10.6,4.1l1-3.3h12.1l-1.4,8H-32l-2.8,16.1H-30.5z M-59.9,272c0,4.1,2.4,7.1,7,7.1
				c5.6,0,10-3.7,10.9-8.6c0.9-5-1.7-8.7-7.3-8.7C-55.3,261.7-59.9,266.4-59.9,272z"/>
		</defs>
		<clipPath id="SVGID_6_">
			<use xlink:href="#SVGID_5_"  style="overflow:visible;"/>
		</clipPath>
		<path class="st5" d="M-48.3,323.7l1.5-8.6h5.4l5-28.1h-6.8l-1.5,6.4h-8.2l2.6-14.7h40.1l-2.6,14.7H-21l0.5-6.4h-6.7l-5,28.1h5.4
			l-1.5,8.6H-48.3z"/>
	</g>
	<g>
		<defs>
			<path id="SVGID_7_" d="M-7.5,245.6l-1.5,8.8h8.2l-1.4,7.7h-8.4l-2.2,12.5c-0.6,3.9,2.7,4.9,6.8,3.3l0.7,7.4
				c-3.3,1.2-5.1,1.4-7.9,1.4c-5.8-0.1-10-3.4-8.4-12l2.2-12.5h-5.5l1.4-7.7h5.5l1.4-7.8L-7.5,245.6z"/>
		</defs>
		<clipPath id="SVGID_8_">
			<use xlink:href="#SVGID_7_"  style="overflow:visible;"/>
		</clipPath>
		<path class="st6" d="M165.4,301.9l0.3-3.6c-0.8-0.5-2.9-0.9-4.8-0.9c-2.9,0-5.8,1-5.8,3.8c0,2,2.8,2.3,4.6,2.4
			c7.8,0.5,13.6,3.2,12.5,11.2c-1.3,6.2-6.2,10-16,10c-5,0-9.8-1-13.6-3.7l1.8-8.8h7.6l-0.3,3.5c1,0.6,3.2,1.1,5.5,1.2
			c3.1,0.1,6.2-0.6,6.2-3.2c0-1.5-1.7-2.6-5.6-2.8c-7.4-0.9-13-3.7-11.6-10.5c1.2-7.1,9.3-10,16.2-10c4.2,0,8.6,0.9,12,2.7l-1.7,8.7
			H165.4z"/>
	</g>
</g>
<g id="Calque_2">
</g>
</svg>
