<?xml version="1.0" encoding="utf-8"?>
<!-- Generator: Adobe Illustrator 19.0.0, SVG Export Plug-In . SVG Version: 6.00 Build 0)  -->
<svg version="1.1" xmlns="http://www.w3.org/2000/svg" xmlns:xlink="http://www.w3.org/1999/xlink" x="0px" y="0px"
	 viewBox="-185 224 589 114" style="enable-background:new -185 224 589 114;" xml:space="preserve">
<style type="text/css">
	.st0{display:none;}
	.st1{display:inline;}
	.st2{fill:#EBFFAA;}
	.st3{fill:#E90052;}
	.st4{font-family:'DentonCondensedTest-BlackItalic';}
	.st5{font-size:93.7594px;}
	.st6{fill:#3AF9BA;}
	.st7{font-family:'NexaSlabHeavyOblique';}
	.st8{font-size:72.4382px;}
	.st9{enable-background:new    ;}
	.st10{clip-path:url(#SVGID_2_);}
	.st11{clip-path:url(#SVGID_4_);}
	.st12{clip-path:url(#SVGID_6_);}
</style>
<g id="Calque_1">
	<g id="Calque_1_1_" class="st0">
		<g id="Sauvegarde" class="st1">
			<g id="Calque_5">
				<rect x="-1" y="269.7" class="st2" width="405" height="1.9"/>
				<rect x="-185" y="307.7" class="st2" width="208" height="1.9"/>
			</g>
			<text transform="matrix(1 0 0 1 -177.0725 295.2568)" class="st3 st4 st5">Marine</text>
			<text transform="matrix(1 0 0 1 -23.9038 318.7645)" class="st6 st7 st8">Industry</text>
		</g>
		<g id="Calque_4" class="st1">
		</g>
	</g>
	<g id="Calque_1_2_">
		<g id="Sauvegarde_1_">
			<g id="Calque_5_1_">
				<rect x="-1" y="269.7" class="st2" width="405" height="1.9"/>
				<rect x="-185" y="307.7" class="st2" width="208" height="1.9"/>
			</g>
			<g class="st9">
				<path class="st3" d="M-156.9,240.7l-13.5,44c-2.2,7,1.7,8.3,4.1,9l-0.6,1.6h-16.6l0.6-1.6c2.2-0.7,7.3-2.1,9.5-9l14.2-46.3
					c2.1-6.8-1.4-8.3-4-9l0.5-1.6h20.6l0.7,42.2l25.4-42.2h22.3l-0.6,1.6c-2.5,0.9-7,2.6-8.9,9l-14.2,46.3c-2.1,7,1.2,8.3,3.4,9
					l-0.5,1.6h-28.1l0.6-1.6c3.2-0.9,7-2.7,8.9-9l14.1-46l-34.3,56.6h-2.1L-156.9,240.7z"/>
				<path class="st3" d="M-108.3,283.4c0-15.5,11.7-36.5,26-36.4c4.2,0,6.5,1.9,7.6,3.8l12.4-3.2h3.2L-69.9,281c-0.9,3.1-2.2,8,0,8
					c1.2,0,3.7-2.1,7.4-8.7l1,0.8c-3.7,8.4-10.1,15.3-17.1,15.3c-6.2,0-8.3-4.9-7.5-11.1c-4,8-8.4,11.1-13.2,11.1
					C-105.1,296.4-108.3,291.3-108.3,283.4z M-82.5,273.1l0.8-2.6l0.1-0.4l4.8-14.8c0.7-2.8-0.4-4.1-2-4.1c-3.1,0-6.9,4.7-11.3,18.2
					c-2,6.1-6,19-1.6,19C-89.9,288.4-86.6,285.2-82.5,273.1z"/>
				<path class="st3" d="M-53.5,249.2l0.5-1.5h19.7l-5.3,17.6c5.5-13.1,12.8-20.3,21.5-17.9l-6.4,14h-0.8
					c-5.3-3.5-13.2,1.5-19.3,20.4l-4.1,13.4h-15l11.8-37.8C-49.3,251.6-51.4,249.8-53.5,249.2z"/>
				<path class="st3" d="M-21.1,280.6l7.5-24.1c1.4-5.6-0.9-6.8-2.7-7.3l0.4-1.5H4.2L-6.2,281c-1.9,5.8-1.2,8,0,8
					c1.1,0,3.5-1.7,7.4-8.7l0.9,0.8c-3.7,8.4-9.9,15.3-17,15.3C-21.2,296.4-24.4,290.9-21.1,280.6z M-1.2,226.7
					c4.5,0,8.2,3.8,8.1,8.7c-0.1,4.7-3.7,8.5-8.3,8.5c-4.5,0-8.1-3.7-8.1-8.4S-5.8,226.7-1.2,226.7z"/>
				<path class="st3" d="M30.4,280.6l6.2-18.3c2.2-6.5,1.3-7.8,0.2-7.8c-2.4,0-10.5,9.4-16.5,28.1l-3.8,12.6H1.4l11.8-37.8
					c1.8-5.9-0.4-7.7-2.4-8.3l0.5-1.5H31l-5.1,16.4c6.8-12.2,13.2-17.1,19.2-17.1c6.3,0,9.8,5.5,7,13.6L45.4,281c-1.9,5.8-1.2,8,0,8
					c1.1,0,3.5-1.7,7.4-8.7l1,0.8c-3.7,8.4-10.1,15.3-17.1,15.3C30.3,296.4,27,290.9,30.4,280.6z"/>
				<path class="st3" d="M58,268.4c5.3-14.3,16.3-21.3,26.3-21.3c8.3,0,14.6,4.9,12.4,12.6c-2.4,8.7-13.2,12.4-25.2,13.9
					c-1.5,9.3,1.2,14.6,6.2,14.8c3.3,0.2,8.6-2,13-9.7l1,0.8c-5.6,12.5-14.5,16.9-21.3,16.9C58.8,296.4,52.1,284.3,58,268.4z
					 M84.9,257.2c1-3.3,1.7-7.2-0.8-7.2c-2.8,0-7,5.7-10.1,14.3c-0.9,2.5-1.6,4.9-2.1,7C79.8,269.3,83.2,262.8,84.9,257.2z"/>
			</g>
			<g class="st9">
				<path class="st6" d="M0.1,309l-1.7,9.8h-22.3l1.7-9.8h5.8l5.5-31.1h-5.6l1.7-9.8h22l-1.7,9.8h-5.8L-5.7,309H0.1z"/>
				<path class="st6" d="M21.2,309.8h5.3l-1.6,9H4.4l1.6-9h5.3l3.2-18.3h-5l1.6-8.8H25l0.1,3.7c3.9-3.3,8-4.1,10.9-4.1
					c9.8,0,14.5,4.6,12.2,17.5l-1.7,10h5.1l-1.6,9H30.8l1.6-9h4l1.7-9.9c0.7-3.8,0.9-8.1-5.6-8.1c-4.9-0.1-8.8,3.3-9.7,8.8
					L21.2,309.8z"/>
				<path class="st6" d="M99.5,309.8l-1.6,9H84.6l-0.6-4.7c-3.7,3.5-7.7,5.4-13,5.4c-8.8,0-14.6-5.2-14.6-14.8
					c0-14.8,10.3-22.5,21.9-22.5c4.1,0,8.1,1,10.2,4.3l1.7-9.7h-5l1.5-8.6h15.1l-7.4,41.6H99.5z M67,302.5c0,4.8,3.1,7.5,7.5,7.5
					c5.2,0,11.5-3.1,11.5-11.3c0-6.2-4.6-7.5-7.8-7.5C72.6,291.2,67,294.6,67,302.5z"/>
				<path class="st6" d="M144,309.7h5l-1.6,9.1h-12.6l-0.2-4.5c-4.6,4-9.3,5.1-12.7,5.1c-13.1,0-14.8-8-13-18.2l1.7-9.9H106l1.5-8.5
					h14.6l-3.3,18.3c-0.9,5-0.6,8.5,7,8.5c4.9-0.1,8.9-4.2,9.8-9.2l1.6-9.1h-5.4l1.5-8.5h15.4L144,309.7z"/>
				<path class="st6" d="M178.4,294.3l0.3-4.1c-0.9-0.6-3.3-1-5.4-1c-3.3,0-6.5,1.2-6.5,4.3c0,2.2,3.2,2.5,5.2,2.7
					c8.8,0.5,15.4,3.5,14.1,12.6c-1.4,7-7,11.3-18,11.3c-5.6,0-11-1.1-15.4-4.2l2-9.9h8.5l-0.3,4c1.1,0.7,3.6,1.2,6.2,1.3
					c3.5,0.1,7-0.7,7-3.5c0-1.7-2-3-6.3-3.2c-8.3-1-14.6-4.1-13.1-11.9c1.4-8,10.4-11.2,18.3-11.2c4.7,0,9.6,1,13.5,3l-1.9,9.9
					H178.4z"/>
				<path class="st6" d="M211.2,273.2l-1.7,9.9h9.3l-1.5,8.6h-9.4l-2.5,14.1c-0.7,4.4,3,5.5,7.7,3.7l0.8,8.3
					c-3.8,1.3-5.7,1.5-8.9,1.5c-6.5-0.1-11.2-3.8-9.5-13.5l2.5-14.1h-6.2l1.5-8.6h6.2l1.5-8.8L211.2,273.2z"/>
				<path class="st6" d="M227.3,291.5h-4.6l1.6-8.8h13.3l0.3,3.4c3.3-3.1,7-4.3,10.9-4.3c3.2,0,6.8,1,9.1,3.5l-6.2,8.6
					c-1.5-1.5-3.9-2.2-6.3-2.2c-4,0-8.3,2.2-9.4,8.5l-1.7,9.9h5l-1.5,8.7H217l1.5-8.7h5.5L227.3,291.5z"/>
				<path class="st6" d="M273.5,319.1c-8.5,0-15-4.2-12.6-18l1.7-9.6h-5.2l1.5-8.8H274l-3.3,18.4c-0.8,4.3-0.9,8.9,6.7,8.9
					c5.3-0.1,8.3-4.1,9.3-9.3l1.7-9.3h-5.4l1.5-8.8H300l-6.3,35.9c-2.5,13.8-11.1,18.5-21.3,18.5c-9.9,0-16.7-4.2-15.2-15h9.9
					c-0.4,3.9,2.3,5.7,6.6,5.7c4.9,0,9.4-3.2,10.4-9.1l0.7-4C281.5,318.2,278.3,319.1,273.5,319.1z"/>
			</g>
		</g>
		<g id="Calque_4_1_">
		</g>
	</g>
	<g id="Calque_1_3_">
		<g id="Sauvegarde_2_">
			<g class="st9">
				<g>
					<defs>
						<path id="SVGID_1_" d="M-21.1,280.6l7.5-24.1c1.4-5.6-0.9-6.8-2.7-7.3l0.4-1.5H4.2L-6.2,281c-1.9,5.8-1.2,8,0,8
							c1.1,0,3.5-1.7,7.4-8.7l0.9,0.8c-3.7,8.4-9.9,15.3-17,15.3C-21.2,296.4-24.4,290.9-21.1,280.6z M-1.2,226.7
							c4.5,0,8.2,3.8,8.1,8.7c-0.1,4.7-3.7,8.5-8.3,8.5c-4.5,0-8.1-3.7-8.1-8.4S-5.8,226.7-1.2,226.7z"/>
					</defs>
					<clipPath id="SVGID_2_">
						<use xlink:href="#SVGID_1_"  style="overflow:visible;"/>
					</clipPath>
					<path class="st10" d="M0.1,309l-1.7,9.8h-22.3l1.7-9.8h5.8l5.5-31.1h-5.6l1.7-9.8h22l-1.7,9.8h-5.8L-5.7,309H0.1z"/>
				</g>
				<g>
					<defs>
						<path id="SVGID_3_" d="M30.4,280.6l6.2-18.3c2.2-6.5,1.3-7.8,0.2-7.8c-2.4,0-10.5,9.4-16.5,28.1l-3.8,12.6H1.4l11.8-37.8
							c1.8-5.9-0.4-7.7-2.4-8.3l0.5-1.5H31l-5.1,16.4c6.8-12.2,13.2-17.1,19.2-17.1c6.3,0,9.8,5.5,7,13.6L45.4,281
							c-1.9,5.8-1.2,8,0,8c1.1,0,3.5-1.7,7.4-8.7l1,0.8c-3.7,8.4-10.1,15.3-17.1,15.3C30.3,296.4,27,290.9,30.4,280.6z"/>
					</defs>
					<clipPath id="SVGID_4_">
						<use xlink:href="#SVGID_3_"  style="overflow:visible;"/>
					</clipPath>
					<path class="st11" d="M21.2,309.8h5.3l-1.6,9H4.4l1.6-9h5.3l3.2-18.3h-5l1.6-8.8H25l0.1,3.7c3.9-3.3,8-4.1,10.9-4.1
						c9.8,0,14.5,4.6,12.2,17.5l-1.7,10h5.1l-1.6,9H30.8l1.6-9h4l1.7-9.9c0.7-3.8,0.9-8.1-5.6-8.1c-4.9-0.1-8.8,3.3-9.7,8.8
						L21.2,309.8z"/>
				</g>
				<g>
					<defs>
						<path id="SVGID_5_" d="M58,268.4c5.3-14.3,16.3-21.3,26.3-21.3c8.3,0,14.6,4.9,12.4,12.6c-2.4,8.7-13.2,12.4-25.2,13.9
							c-1.5,9.3,1.2,14.6,6.2,14.8c3.3,0.2,8.6-2,13-9.7l1,0.8c-5.6,12.5-14.5,16.9-21.3,16.9C58.8,296.4,52.1,284.3,58,268.4z
							 M84.9,257.2c1-3.3,1.7-7.2-0.8-7.2c-2.8,0-7,5.7-10.1,14.3c-0.9,2.5-1.6,4.9-2.1,7C79.8,269.3,83.2,262.8,84.9,257.2z"/>
					</defs>
					<clipPath id="SVGID_6_">
						<use xlink:href="#SVGID_5_"  style="overflow:visible;"/>
					</clipPath>
					<path class="st12" d="M99.5,309.8l-1.6,9H84.6l-0.6-4.7c-3.7,3.5-7.7,5.4-13,5.4c-8.8,0-14.6-5.2-14.6-14.8
						c0-14.8,10.3-22.5,21.9-22.5c4.1,0,8.1,1,10.2,4.3l1.7-9.7h-5l1.5-8.6h15.1l-7.4,41.6H99.5z M67,302.5c0,4.8,3.1,7.5,7.5,7.5
						c5.2,0,11.5-3.1,11.5-11.3c0-6.2-4.6-7.5-7.8-7.5C72.6,291.2,67,294.6,67,302.5z"/>
				</g>
			</g>
		</g>
	</g>
	<g id="Calque_3">
	</g>
</g>
<g id="Calque_2_1_">
</g>
</svg>
