<?xml version="1.0" encoding="utf-8"?>
<!-- Generator: Adobe Illustrator 19.0.0, SVG Export Plug-In . SVG Version: 6.00 Build 0)  -->
<svg version="1.1" xmlns="http://www.w3.org/2000/svg" xmlns:xlink="http://www.w3.org/1999/xlink" x="0px" y="0px"
	 viewBox="-185 224 589 114" style="enable-background:new -185 224 589 114;" xml:space="preserve">
<style type="text/css">
	.st0{display:none;}
	.st1{display:inline;}
	.st2{fill:#EBFFAA;}
	.st3{fill:#E90052;}
	.st4{font-family:'DentonCondensedTest-BlackItalic';}
	.st5{font-size:93.7594px;}
	.st6{fill:#3AF9BA;}
	.st7{font-family:'NexaSlabHeavyOblique';}
	.st8{font-size:72.4382px;}
	.st9{enable-background:new    ;}
	.st10{clip-path:url(#SVGID_2_);}
	.st11{clip-path:url(#SVGID_4_);}
	.st12{clip-path:url(#SVGID_6_);}
	.st13{clip-path:url(#SVGID_8_);}
	.st14{clip-path:url(#SVGID_10_);}
	.st15{clip-path:url(#SVGID_12_);}
</style>
<g id="Calque_1">
	<g id="Calque_1_1_" class="st0">
		<g id="Sauvegarde" class="st1">
			<g id="Calque_5">
				<rect x="-1" y="269.7" class="st2" width="405" height="1.9"/>
				<rect x="-185" y="307.7" class="st2" width="208" height="1.9"/>
			</g>
			<text transform="matrix(1 0 0 1 -177.0725 295.2568)" class="st3 st4 st5">Material</text>
			<text transform="matrix(1 0 0 1 -23.9038 324.7645)" class="st6 st7 st8">Selection</text>
		</g>
		<g id="Calque_4" class="st1">
		</g>
	</g>
	<g id="Sauvegarde_1_">
		<g id="Calque_5_1_">
			<rect x="-27.2" y="269.7" class="st2" width="431.2" height="1.9"/>
			<rect x="-185" y="307.7" class="st2" width="322.2" height="1.9"/>
		</g>
		<g class="st9">
			<path class="st3" d="M-156.9,240.7l-13.5,44c-2.2,7,1.7,8.3,4.1,9l-0.6,1.6h-16.6l0.6-1.6c2.2-0.7,7.3-2.1,9.5-9l14.2-46.3
				c2.1-6.8-1.4-8.3-4-9l0.5-1.6h20.6l0.7,42.2l25.4-42.2h22.3l-0.6,1.6c-2.5,0.9-7,2.6-8.9,9l-14.2,46.3c-2.1,7,1.2,8.3,3.4,9
				l-0.5,1.6h-28.1l0.6-1.6c3.2-0.9,7-2.7,8.9-9l14.1-46l-34.3,56.6h-2.1L-156.9,240.7z"/>
			<path class="st3" d="M-108.3,283.4c0-15.5,11.7-36.5,26-36.4c4.2,0,6.5,1.9,7.6,3.8l12.4-3.2h3.2L-69.9,281c-0.9,3.1-2.2,8,0,8
				c1.2,0,3.7-2.1,7.4-8.7l1,0.8c-3.7,8.4-10.1,15.3-17.1,15.3c-6.2,0-8.3-4.9-7.5-11.1c-4,8-8.4,11.1-13.2,11.1
				C-105.1,296.4-108.3,291.3-108.3,283.4z M-82.5,273.1l0.8-2.6l0.1-0.4l4.8-14.8c0.7-2.8-0.4-4.1-2-4.1c-3.1,0-6.9,4.7-11.3,18.2
				c-2,6.1-6,19-1.6,19C-89.9,288.4-86.6,285.2-82.5,273.1z"/>
			<path class="st3" d="M-58.5,280.5l8.9-29.7h-5.6l0.3-1.3c7.5-2.6,16.8-8.2,23.6-16.1h1.9l-4.3,14.3h9.3l-0.9,3.1h-9.3l-9.1,30.4
				c-1.7,5.8-1,7.8,0.5,7.8c1.8,0,5.2-2.7,8.5-8.7l0.9,0.8c-4.2,8.4-10.8,15.4-17.8,15.4C-58.2,296.4-61.6,290.8-58.5,280.5z"/>
			<path class="st3" d="M-29.1,268.4c5.3-14.3,16.3-21.3,26.3-21.3c8.3,0,14.6,4.9,12.4,12.6c-2.4,8.7-13.2,12.4-25.2,13.9
				c-1.5,9.3,1.2,14.6,6.2,14.8c3.3,0.2,8.6-2,13-9.7l1,0.8C-1,292-9.9,296.4-16.6,296.4C-28.3,296.4-35,284.3-29.1,268.4z
				 M-2.2,257.2c1-3.3,1.7-7.2-0.8-7.2c-2.8,0-7,5.7-10.1,14.3c-0.9,2.5-1.6,4.9-2.1,7C-7.3,269.3-3.9,262.8-2.2,257.2z"/>
			<path class="st3" d="M13.4,249.2l0.5-1.5h19.7l-5.3,17.6c5.5-13.1,12.8-20.3,21.5-17.9l-6.4,14h-0.8c-5.3-3.5-13.2,1.5-19.3,20.4
				L19,295.3H4l11.8-37.8C17.6,251.6,15.4,249.8,13.4,249.2z"/>
			<path class="st3" d="M45.7,280.6l7.5-24.1c1.4-5.6-0.9-6.8-2.7-7.3l0.4-1.5H71L60.6,281c-1.9,5.8-1.2,8,0,8
				c1.1,0,3.5-1.7,7.4-8.7l0.9,0.8c-3.7,8.4-9.9,15.3-17,15.3C45.6,296.4,42.4,290.9,45.7,280.6z M65.7,226.7c4.5,0,8.2,3.8,8.1,8.7
				c-0.1,4.7-3.7,8.5-8.3,8.5c-4.5,0-8.1-3.7-8.1-8.4S61.1,226.7,65.7,226.7z"/>
			<path class="st3" d="M70.6,283.4c0-15.5,11.7-36.5,26-36.4c4.2,0,6.5,1.9,7.6,3.8l12.4-3.2h3.2L109,281c-0.9,3.1-2.2,8,0,8
				c1.2,0,3.7-2.1,7.4-8.7l1,0.8c-3.7,8.4-10.1,15.3-17.1,15.3c-6.2,0-8.3-4.9-7.5-11.1c-4,8-8.4,11.1-13.2,11.1
				C73.8,296.4,70.6,291.3,70.6,283.4z M96.4,273.1l0.8-2.6l0.1-0.4l4.8-14.8c0.7-2.8-0.4-4.1-2-4.1c-3.1,0-6.9,4.7-11.3,18.2
				c-2,6.1-6,19-1.6,19C89,288.4,92.3,285.2,96.4,273.1z"/>
			<path class="st3" d="M120.7,280.5l13.5-42.5c1.7-5.5-1-6.7-2.8-7l0.4-1.5l21-3.2L135.5,281c-1.9,5.8-1.2,8,0,8
				c1.1,0,3.5-1.7,7.4-8.7l1,0.8c-3.7,8.4-9.9,15.3-16.9,15.3C121,296.4,117.3,291,120.7,280.5z"/>
		</g>
		<g class="st9">
			<path class="st6" d="M-23.4,319.7l2.2-12.5h9.6l-0.7,7.2c1.9,0.9,5.4,1.7,9.3,1.7c6,0,12.2-1.4,12.2-7.2c0-4.9-7.2-5-10.4-5.6
				c-10.1-1.2-18.1-4.8-16.3-15.8c1.9-10.1,11.9-14.7,23.3-14.7c9.2,0,13.8,2.7,16.7,5.8c-0.9,4.3-1.4,6.6-2.1,10.8h-9.3l0.5-6
				c-2-0.9-4-1.4-7.6-1.4c-5.1,0-9.8,1.5-10.6,5.8c-0.7,3.6,2.3,5.1,8.3,5.8C12.6,295,22,298.5,20.5,310c-1,10.1-8.6,15.9-24.9,15.9
				C-13.8,325.7-19.5,323.7-23.4,319.7z"/>
			<path class="st6" d="M58.9,320.1c-4.6,3.8-11.4,5.6-16.7,5.6c-12,0-16.9-6.8-16.9-15.6c0-13.3,9.6-22.4,23-22.4
				c11.3,0,18.4,6.3,13.4,22.5H35.3c-0.1,3.6,2,6.3,8.7,6.3c2.9,0,7.2-1.1,10.1-3.1L58.9,320.1z M53.9,302.7c0.9-4.4-2.5-6.2-7-6.2
				c-4.6,0-8.7,2-10.3,6.2H53.9z"/>
			<path class="st6" d="M72.9,274.1h14.6l-7.3,41.9h4.3l-1.6,8.8H63.7l1.6-8.8h4.9l5.8-33.1h-4.6L72.9,274.1z"/>
			<path class="st6" d="M124.1,320.1c-4.6,3.8-11.4,5.6-16.7,5.6c-12,0-16.9-6.8-16.9-15.6c0-13.3,9.6-22.4,23-22.4
				c11.3,0,18.4,6.3,13.4,22.5h-26.4c-0.1,3.6,2,6.3,8.7,6.3c2.9,0,7.2-1.1,10.1-3.1L124.1,320.1z M119.1,302.7
				c0.9-4.4-2.5-6.2-7-6.2c-4.6,0-8.7,2-10.3,6.2H119.1z"/>
			<path class="st6" d="M164.6,319.8c-4.8,4.3-10.1,5.8-15.5,5.8c-9.8,0-17-5.2-17-15.6c0-16.7,13.3-22.1,23.5-22.1
				c4.9,0,9.1,0.9,12.5,3l-2.5,11.2h-8.7l0.9-4.8c-1.3-0.4-3-0.5-3.8-0.5c-8.3,0-11.5,6.2-11.5,11.7c0,5.1,3.3,7.6,8.6,7.6
				c2.6,0,5.7-0.7,8.8-3.1L164.6,319.8z"/>
			<path class="st6" d="M189.7,279.2l-1.7,9.9h9.3l-1.5,8.6h-9.4l-2.5,14.1c-0.7,4.4,3,5.5,7.7,3.7l0.8,8.3
				c-3.8,1.3-5.7,1.5-8.9,1.5c-6.5-0.1-11.2-3.8-9.5-13.5l2.5-14.1h-6.2l1.5-8.6h6.2l1.5-8.8L189.7,279.2z"/>
			<path class="st6" d="M217.5,288.8l-4.8,27.2h4.1l-1.6,8.8h-18.9l1.6-8.8h4.6l3.2-18.5h-4.5l1.6-8.7H217.5z M208.1,280.2
				c0-4.2,3.7-6.6,7-6.6c2.9,0,5.2,1.7,5.2,4.9c0,4.1-3.7,6.6-7.1,6.6C210.4,285.1,208.1,283.3,208.1,280.2z"/>
			<path class="st6" d="M245.5,287.9c10.6,0,16.2,6.4,16.2,15.5c0,12-8.9,22.2-22.8,22.2c-10.4,0-16.1-6.5-16.1-15.5
				C222.8,297.6,232.2,287.9,245.5,287.9z M244.4,297c-7.2,0-11.3,5.4-11.4,11.7c-0.1,4.1,2,7.6,7.2,7.6c6.3,0,9.9-4.3,11.2-9.3
				C252.5,301.2,249.9,297,244.4,297z"/>
			<path class="st6" d="M280.1,315.8h5.3l-1.6,9h-20.4l1.6-9h5.3l3.2-18.3h-5l1.6-8.8H284l0.1,3.7c3.9-3.3,8-4.1,10.9-4.1
				c9.8,0,14.5,4.6,12.2,17.5l-1.7,10h5.1l-1.6,9h-19.2l1.6-9h4l1.7-9.9c0.7-3.8,0.9-8.1-5.6-8.1c-4.9-0.1-8.8,3.3-9.7,8.8
				L280.1,315.8z"/>
		</g>
	</g>
	<g>
		<defs>
			<path id="SVGID_1_" d="M120.7,280.5l13.5-42.5c1.7-5.5-1-6.7-2.8-7l0.4-1.5l21-3.2L135.5,281c-1.9,5.8-1.2,8,0,8
				c1.1,0,3.5-1.7,7.4-8.7l1,0.8c-3.7,8.4-9.9,15.3-16.9,15.3C121,296.4,117.3,291,120.7,280.5z"/>
		</defs>
		<clipPath id="SVGID_2_">
			<use xlink:href="#SVGID_1_"  style="overflow:visible;"/>
		</clipPath>
		<path class="st10" d="M124.1,320.1c-4.6,3.8-11.4,5.6-16.7,5.6c-12,0-16.9-6.8-16.9-15.6c0-13.3,9.6-22.4,23-22.4
			c11.3,0,18.4,6.3,13.4,22.5h-26.4c-0.1,3.6,2,6.3,8.7,6.3c2.9,0,7.2-1.1,10.1-3.1L124.1,320.1z M119.1,302.7
			c0.9-4.4-2.5-6.2-7-6.2c-4.6,0-8.7,2-10.3,6.2H119.1z"/>
	</g>
	<g>
		<defs>
			<path id="SVGID_3_" d="M70.6,283.4c0-15.5,11.7-36.5,26-36.4c4.2,0,6.5,1.9,7.6,3.8l12.4-3.2h3.2L109,281c-0.9,3.1-2.2,8,0,8
				c1.2,0,3.7-2.1,7.4-8.7l1,0.8c-3.7,8.4-10.1,15.3-17.1,15.3c-6.2,0-8.3-4.9-7.5-11.1c-4,8-8.4,11.1-13.2,11.1
				C73.8,296.4,70.6,291.3,70.6,283.4z M96.4,273.1l0.8-2.6l0.1-0.4l4.8-14.8c0.7-2.8-0.4-4.1-2-4.1c-3.1,0-6.9,4.7-11.3,18.2
				c-2,6.1-6,19-1.6,19C89,288.4,92.3,285.2,96.4,273.1z"/>
		</defs>
		<clipPath id="SVGID_4_">
			<use xlink:href="#SVGID_3_"  style="overflow:visible;"/>
		</clipPath>
		<path class="st11" d="M72.9,274.1h14.6l-7.3,41.9h4.3l-1.6,8.8H63.7l1.6-8.8h4.9l5.8-33.1h-4.6L72.9,274.1z"/>
	</g>
	<g>
		<defs>
			<path id="SVGID_5_" d="M70.6,283.4c0-15.5,11.7-36.5,26-36.4c4.2,0,6.5,1.9,7.6,3.8l12.4-3.2h3.2L109,281c-0.9,3.1-2.2,8,0,8
				c1.2,0,3.7-2.1,7.4-8.7l1,0.8c-3.7,8.4-10.1,15.3-17.1,15.3c-6.2,0-8.3-4.9-7.5-11.1c-4,8-8.4,11.1-13.2,11.1
				C73.8,296.4,70.6,291.3,70.6,283.4z M96.4,273.1l0.8-2.6l0.1-0.4l4.8-14.8c0.7-2.8-0.4-4.1-2-4.1c-3.1,0-6.9,4.7-11.3,18.2
				c-2,6.1-6,19-1.6,19C89,288.4,92.3,285.2,96.4,273.1z"/>
		</defs>
		<clipPath id="SVGID_6_">
			<use xlink:href="#SVGID_5_"  style="overflow:visible;"/>
		</clipPath>
		<path class="st12" d="M124.1,320.1c-4.6,3.8-11.4,5.6-16.7,5.6c-12,0-16.9-6.8-16.9-15.6c0-13.3,9.6-22.4,23-22.4
			c11.3,0,18.4,6.3,13.4,22.5h-26.4c-0.1,3.6,2,6.3,8.7,6.3c2.9,0,7.2-1.1,10.1-3.1L124.1,320.1z M119.1,302.7
			c0.9-4.4-2.5-6.2-7-6.2c-4.6,0-8.7,2-10.3,6.2H119.1z"/>
	</g>
	<g>
		<defs>
			<path id="SVGID_7_" d="M45.7,280.6l7.5-24.1c1.4-5.6-0.9-6.8-2.7-7.3l0.4-1.5H71L60.6,281c-1.9,5.8-1.2,8,0,8
				c1.1,0,3.5-1.7,7.4-8.7l0.9,0.8c-3.7,8.4-9.9,15.3-17,15.3C45.6,296.4,42.4,290.9,45.7,280.6z M65.7,226.7c4.5,0,8.2,3.8,8.1,8.7
				c-0.1,4.7-3.7,8.5-8.3,8.5c-4.5,0-8.1-3.7-8.1-8.4S61.1,226.7,65.7,226.7z"/>
		</defs>
		<clipPath id="SVGID_8_">
			<use xlink:href="#SVGID_7_"  style="overflow:visible;"/>
		</clipPath>
		<path class="st13" d="M58.9,320.1c-4.6,3.8-11.4,5.6-16.7,5.6c-12,0-16.9-6.8-16.9-15.6c0-13.3,9.6-22.4,23-22.4
			c11.3,0,18.4,6.3,13.4,22.5H35.3c-0.1,3.6,2,6.3,8.7,6.3c2.9,0,7.2-1.1,10.1-3.1L58.9,320.1z M53.9,302.7c0.9-4.4-2.5-6.2-7-6.2
			c-4.6,0-8.7,2-10.3,6.2H53.9z"/>
	</g>
	<g>
		<defs>
			<path id="SVGID_9_" d="M-29.1,268.4c5.3-14.3,16.3-21.3,26.3-21.3c8.3,0,14.6,4.9,12.4,12.6c-2.4,8.7-13.2,12.4-25.2,13.9
				c-1.5,9.3,1.2,14.6,6.2,14.8c3.3,0.2,8.6-2,13-9.7l1,0.8C-1,292-9.9,296.4-16.6,296.4C-28.3,296.4-35,284.3-29.1,268.4z
				 M-2.2,257.2c1-3.3,1.7-7.2-0.8-7.2c-2.8,0-7,5.7-10.1,14.3c-0.9,2.5-1.6,4.9-2.1,7C-7.3,269.3-3.9,262.8-2.2,257.2z"/>
		</defs>
		<clipPath id="SVGID_10_">
			<use xlink:href="#SVGID_9_"  style="overflow:visible;"/>
		</clipPath>
		<path class="st14" d="M-23.4,319.7l2.2-12.5h9.6l-0.7,7.2c1.9,0.9,5.4,1.7,9.3,1.7c6,0,12.2-1.4,12.2-7.2c0-4.9-7.2-5-10.4-5.6
			c-10.1-1.2-18.1-4.8-16.3-15.8c1.9-10.1,11.9-14.7,23.3-14.7c9.2,0,13.8,2.7,16.7,5.8c-0.9,4.3-1.4,6.6-2.1,10.8h-9.3l0.5-6
			c-2-0.9-4-1.4-7.6-1.4c-5.1,0-9.8,1.5-10.6,5.8c-0.7,3.6,2.3,5.1,8.3,5.8C12.6,295,22,298.5,20.5,310c-1,10.1-8.6,15.9-24.9,15.9
			C-13.8,325.7-19.5,323.7-23.4,319.7z"/>
	</g>
	<g>
		<defs>
			<path id="SVGID_11_" d="M13.4,249.2l0.5-1.5h19.7l-5.3,17.6c5.5-13.1,12.8-20.3,21.5-17.9l-6.4,14h-0.8
				c-5.3-3.5-13.2,1.5-19.3,20.4L19,295.3H4l11.8-37.8C17.6,251.6,15.4,249.8,13.4,249.2z"/>
		</defs>
		<clipPath id="SVGID_12_">
			<use xlink:href="#SVGID_11_"  style="overflow:visible;"/>
		</clipPath>
		<path class="st15" d="M-23.4,319.7l2.2-12.5h9.6l-0.7,7.2c1.9,0.9,5.4,1.7,9.3,1.7c6,0,12.2-1.4,12.2-7.2c0-4.9-7.2-5-10.4-5.6
			c-10.1-1.2-18.1-4.8-16.3-15.8c1.9-10.1,11.9-14.7,23.3-14.7c9.2,0,13.8,2.7,16.7,5.8c-0.9,4.3-1.4,6.6-2.1,10.8h-9.3l0.5-6
			c-2-0.9-4-1.4-7.6-1.4c-5.1,0-9.8,1.5-10.6,5.8c-0.7,3.6,2.3,5.1,8.3,5.8C12.6,295,22,298.5,20.5,310c-1,10.1-8.6,15.9-24.9,15.9
			C-13.8,325.7-19.5,323.7-23.4,319.7z"/>
	</g>
</g>
<g id="Calque_2_1_">
</g>
</svg>
