<?xml version="1.0" encoding="utf-8"?>
<!-- Generator: Adobe Illustrator 19.0.0, SVG Export Plug-In . SVG Version: 6.00 Build 0)  -->
<svg version="1.1" xmlns="http://www.w3.org/2000/svg" xmlns:xlink="http://www.w3.org/1999/xlink" x="0px" y="0px"
	 viewBox="-185 224 589 114" style="enable-background:new -185 224 589 114;" xml:space="preserve">
<style type="text/css">
	.st0{display:none;}
	.st1{display:inline;}
	.st2{fill:#EBFFAA;}
	.st3{fill:#E90052;}
	.st4{font-family:'DentonCondensedTest-BlackItalic';}
	.st5{font-size:93.7594px;}
	.st6{fill:#3AF9BA;}
	.st7{font-family:'NexaSlabHeavyOblique';}
	.st8{font-size:72.4382px;}
	.st9{enable-background:new    ;}
	.st10{clip-path:url(#SVGID_2_);}
	.st11{clip-path:url(#SVGID_4_);}
	.st12{clip-path:url(#SVGID_6_);}
	.st13{clip-path:url(#SVGID_8_);}
	.st14{clip-path:url(#SVGID_10_);}
	.st15{clip-path:url(#SVGID_12_);}
	.st16{clip-path:url(#SVGID_14_);}
	.st17{clip-path:url(#SVGID_16_);}
	.st18{clip-path:url(#SVGID_18_);}
</style>
<g id="Calque_1">
	<g id="Calque_1_1_" class="st0">
		<g id="Sauvegarde" class="st1">
			<g id="Calque_5">
				<rect x="-1" y="269.7" class="st2" width="405" height="1.9"/>
				<rect x="-185" y="307.7" class="st2" width="208" height="1.9"/>
			</g>
			<text transform="matrix(1 0 0 1 -177.0725 295.2568)" class="st3 st4 st5">Marine</text>
			<text transform="matrix(1 0 0 1 -23.9038 318.7645)" class="st6 st7 st8">Industry</text>
		</g>
		<g id="Calque_4" class="st1">
		</g>
	</g>
	<g id="Calque_1_2_">
		<g id="Sauvegarde_1_">
			<g id="Calque_5_1_">
				<rect x="-148" y="269.7" class="st2" width="552" height="1.9"/>
				<rect x="-185" y="307.7" class="st2" width="559.5" height="1.9"/>
			</g>
			<g class="st9">
				<path class="st3" d="M-156.9,240.7l-13.5,44c-2.2,7,1.7,8.3,4.1,9l-0.6,1.6h-16.6l0.6-1.6c2.2-0.7,7.3-2.1,9.5-9l14.2-46.3
					c2.1-6.8-1.4-8.3-4-9l0.5-1.6h20.6l0.7,42.2l25.4-42.2h22.3l-0.6,1.6c-2.5,0.9-7,2.6-8.9,9l-14.2,46.3c-2.1,7,1.2,8.3,3.4,9
					l-0.5,1.6h-28.1l0.6-1.6c3.2-0.9,7-2.7,8.9-9l14.1-46l-34.3,56.6h-2.1L-156.9,240.7z"/>
				<path class="st3" d="M-104.1,280.6l7.5-24.1c1.4-5.6-0.9-6.8-2.7-7.3l0.4-1.5h20.2L-89.2,281c-1.9,5.8-1.2,8,0,8
					c1.1,0,3.5-1.7,7.4-8.7l0.9,0.8c-3.7,8.4-9.9,15.3-17,15.3C-104.2,296.4-107.4,290.9-104.1,280.6z M-84.2,226.7
					c4.5,0,8.2,3.8,8.1,8.7c-0.1,4.7-3.7,8.5-8.3,8.5c-4.5,0-8.1-3.7-8.1-8.4S-88.7,226.7-84.2,226.7z"/>
				<path class="st3" d="M-77.3,280.5l13.5-42.5c1.7-5.5-1-6.7-2.8-7l0.4-1.5l21-3.2L-62.5,281c-1.9,5.8-1.2,8,0,8
					c1.1,0,3.5-1.7,7.4-8.7l1,0.8c-3.7,8.4-9.9,15.3-16.9,15.3C-77,296.4-80.7,291-77.3,280.5z"/>
				<path class="st3" d="M-50.4,280.6l7.5-24.1c1.4-5.6-0.9-6.8-2.7-7.3l0.4-1.5h20.2L-35.5,281c-1.9,5.8-1.2,8,0,8
					c1.1,0,3.5-1.7,7.4-8.7l0.9,0.8c-3.7,8.4-9.9,15.3-17,15.3C-50.5,296.4-53.7,290.9-50.4,280.6z M-30.4,226.7
					c4.5,0,8.2,3.8,8.1,8.7c-0.1,4.7-3.7,8.5-8.3,8.5c-4.5,0-8.1-3.7-8.1-8.4S-35,226.7-30.4,226.7z"/>
				<path class="st3" d="M-23.8,280.5l8.9-29.7h-5.6l0.3-1.3c7.5-2.6,16.8-8.2,23.6-16.1h1.9L1,247.7h9.3l-0.9,3.1H0l-9.1,30.4
					c-1.7,5.8-1,7.8,0.5,7.8c1.8,0,5.2-2.7,8.5-8.7l0.9,0.8c-4.2,8.4-10.8,15.4-17.8,15.4C-23.5,296.4-26.9,290.8-23.8,280.5z"/>
				<path class="st3" d="M2.8,283.4c0-15.5,11.7-36.5,26-36.4c4.2,0,6.5,1.9,7.6,3.8l12.4-3.2h3.2L41.1,281c-0.9,3.1-2.2,8,0,8
					c1.2,0,3.7-2.1,7.4-8.7l1,0.8c-3.7,8.4-10.1,15.3-17.1,15.3c-6.2,0-8.3-4.9-7.5-11.1c-4,8-8.4,11.1-13.2,11.1
					C5.9,296.4,2.8,291.3,2.8,283.4z M28.5,273.1l0.8-2.6l0.1-0.4l4.8-14.8c0.7-2.8-0.4-4.1-2-4.1c-3.1,0-6.9,4.7-11.3,18.2
					c-2,6.1-6,19-1.6,19C21.1,288.4,24.4,285.2,28.5,273.1z"/>
				<path class="st3" d="M57.5,249.2l0.5-1.5h19.7l-5.3,17.6c5.5-13.1,12.8-20.3,21.5-17.9l-6.4,14h-0.8
					c-5.3-3.5-13.2,1.5-19.3,20.4l-4.1,13.4h-15L60,257.5C61.7,251.6,59.6,249.8,57.5,249.2z"/>
				<path class="st3" d="M82,299.3l0.9-0.1c4.4,6.3,11.3,10.4,18.1,4.7l-5.2-45c-0.8-6.1-2.2-7.2-4.1-7.5l0.4-1.5l17.1-3.3l4.6,45.2
					c9.6-15.8,9-30.1,2.5-39.1l0.2-0.8l16.9-5.5c0.6,16.8-8.3,34.4-17.8,47.3c-8.9,12-21.8,23.5-39.9,19.3L82,299.3z"/>
			</g>
			<g class="st9">
				<path class="st6" d="M-30.2,303.3h-21.4l-3.5,5.7h5.2l-1.7,9.8h-21.2l1.7-9.8h4.5l20.1-31.3h-4.7l1.7-9.6h21.2l10.6,40.9h4.6
					l-1.7,9.8h-21.2l1.7-9.8h5.6L-30.2,303.3z M-41.3,286.7l-4.6,7.4h13.5l-1.8-7.4l-1.7-9L-41.3,286.7z"/>
				<path class="st6" d="M-8.7,291.5l1.5-8.8H7.1l-0.3,5.4c3.6-3.5,7.9-5.8,13.5-5.8c9.2,0,14.5,5.5,14.5,14.8
					c0,13.8-8.5,22.7-22.5,22.7c-3.6,0-7.7-1.2-10.4-4.8l-2,11H5l-1.6,9.1H-16l1.6-9.1h4.5l6.1-34.5H-8.7z M23.9,299.4
					c0-4.6-2.7-7.2-7.5-7.2c-6.9,0-10.9,5.7-10.9,10.8c0,3.8,2.2,7.8,7.3,7.8C19.4,310.7,23.9,306.1,23.9,299.4z"/>
				<path class="st6" d="M40.4,291.5l1.5-8.8h14.3l-0.3,5.4c3.6-3.5,7.9-5.8,13.5-5.8c9.2,0,14.5,5.5,14.5,14.8
					c0,13.8-8.5,22.7-22.5,22.7c-3.6,0-7.7-1.2-10.4-4.8l-2,11h5.2l-1.6,9.1H33.1l1.6-9.1h4.5l6.1-34.5H40.4z M73,299.4
					c0-4.6-2.7-7.2-7.5-7.2c-6.9,0-10.9,5.7-10.9,10.8c0,3.8,2.2,7.8,7.3,7.8C68.5,310.7,73,306.1,73,299.4z"/>
				<path class="st6" d="M94.1,268.1h14.6l-7.3,41.9h4.3l-1.6,8.8H84.9l1.6-8.8h4.9l5.8-33.1h-4.6L94.1,268.1z"/>
				<path class="st6" d="M130.8,282.8l-4.8,27.2h4.1l-1.6,8.8h-18.9l1.6-8.8h4.6l3.2-18.5h-4.5l1.6-8.7H130.8z M121.5,274.2
					c0-4.2,3.7-6.6,7-6.6c2.9,0,5.2,1.7,5.2,4.9c0,4.1-3.7,6.6-7.1,6.6C123.8,279.1,121.5,277.3,121.5,274.2z"/>
				<path class="st6" d="M168.8,313.8c-4.8,4.3-10.1,5.8-15.5,5.8c-9.8,0-17-5.2-17-15.6c0-16.7,13.3-22.1,23.5-22.1
					c4.9,0,9.1,0.9,12.5,3l-2.5,11.2h-8.7l0.9-4.8c-1.3-0.4-3-0.5-3.8-0.5c-8.3,0-11.5,6.2-11.5,11.7c0,5.1,3.3,7.6,8.6,7.6
					c2.6,0,5.7-0.7,8.8-3.1L168.8,313.8z"/>
				<path class="st6" d="M217.5,310l-1.6,8.8h-13.7l0.1-4.1c-5.5,4.7-8.8,5-14.1,5c-8.8,0-14.2-6.1-14.2-15.4
					c0-11.5,8.3-21.7,21.2-22.3c5,0,9.2,0.6,12,4.6l1.1-3.7H222l-1.6,9h-4.6l-3.2,18.2H217.5z M184.4,302.9c0,4.6,2.7,8,7.9,8
					c6.3,0,11.2-4.2,12.2-9.6c1-5.6-1.9-9.9-8.2-9.9C189.6,291.4,184.4,296.7,184.4,302.9z"/>
				<path class="st6" d="M243.4,273.2l-1.7,9.9h9.3l-1.5,8.6H240l-2.5,14.1c-0.7,4.4,3,5.5,7.7,3.7l0.8,8.3
					c-3.8,1.3-5.7,1.5-8.9,1.5c-6.5-0.1-11.2-3.8-9.5-13.5l2.5-14.1h-6.2l1.5-8.6h6.2l1.5-8.8L243.4,273.2z"/>
				<path class="st6" d="M271.2,282.8l-4.8,27.2h4.1l-1.6,8.8H250l1.6-8.8h4.6l3.2-18.5h-4.5l1.6-8.7H271.2z M261.8,274.2
					c0-4.2,3.7-6.6,7-6.6c2.9,0,5.2,1.7,5.2,4.9c0,4.1-3.7,6.6-7.1,6.6C264.1,279.1,261.8,277.3,261.8,274.2z"/>
				<path class="st6" d="M299.2,281.9c10.6,0,16.2,6.4,16.2,15.5c0,12-8.9,22.2-22.8,22.2c-10.4,0-16.1-6.5-16.1-15.5
					C276.5,291.6,285.9,281.9,299.2,281.9z M298.1,291c-7.2,0-11.3,5.4-11.4,11.7c-0.1,4.1,2,7.6,7.2,7.6c6.3,0,9.9-4.3,11.2-9.3
					C306.2,295.2,303.6,291,298.1,291z"/>
				<path class="st6" d="M333.8,309.8h5.3l-1.6,9h-20.4l1.6-9h5.3l3.2-18.3h-5l1.6-8.8h13.9l0.1,3.7c3.9-3.3,8-4.1,10.9-4.1
					c9.8,0,14.5,4.6,12.2,17.5l-1.7,10h5.1l-1.6,9h-19.2l1.6-9h4l1.7-9.9c0.7-3.8,0.9-8.1-5.6-8.1c-4.9-0.1-8.8,3.3-9.7,8.8
					L333.8,309.8z"/>
				<path class="st6" d="M393,294.3l0.3-4.1c-0.9-0.6-3.3-1-5.4-1c-3.3,0-6.5,1.2-6.5,4.3c0,2.2,3.2,2.5,5.2,2.7
					c8.8,0.5,15.4,3.5,14.1,12.6c-1.4,7-7,11.3-18,11.3c-5.6,0-11-1.1-15.4-4.2l2-9.9h8.5l-0.3,4c1.1,0.7,3.6,1.2,6.2,1.3
					c3.5,0.1,7-0.7,7-3.5c0-1.7-2-3-6.3-3.2c-8.3-1-14.6-4.1-13.1-11.9c1.4-8,10.4-11.2,18.3-11.2c4.7,0,9.6,1,13.5,3l-1.9,9.9H393z
					"/>
			</g>
		</g>
		<g id="Calque_4_1_">
		</g>
	</g>
	<g id="Calque_1_3_">
		<g id="Sauvegarde_2_">
			<g class="st9">
				<g>
					<defs>
						<path id="SVGID_1_" d="M-50.4,280.6l7.5-24.1c1.4-5.6-0.9-6.8-2.7-7.3l0.4-1.5h20.2L-35.5,281c-1.9,5.8-1.2,8,0,8
							c1.1,0,3.5-1.7,7.4-8.7l0.9,0.8c-3.7,8.4-9.9,15.3-17,15.3C-50.5,296.4-53.7,290.9-50.4,280.6z M-30.4,226.7
							c4.5,0,8.2,3.8,8.1,8.7c-0.1,4.7-3.7,8.5-8.3,8.5c-4.5,0-8.1-3.7-8.1-8.4S-35,226.7-30.4,226.7z"/>
					</defs>
					<clipPath id="SVGID_2_">
						<use xlink:href="#SVGID_1_"  style="overflow:visible;"/>
					</clipPath>
					<path class="st10" d="M-30.2,303.3h-21.4l-3.5,5.7h5.2l-1.7,9.8h-21.2l1.7-9.8h4.5l20.1-31.3h-4.7l1.7-9.6h21.2l10.6,40.9h4.6
						l-1.7,9.8h-21.2l1.7-9.8h5.6L-30.2,303.3z M-41.3,286.7l-4.6,7.4h13.5l-1.8-7.4l-1.7-9L-41.3,286.7z"/>
				</g>
				<g>
					<defs>
						<path id="SVGID_3_" d="M-23.8,280.5l8.9-29.7h-5.6l0.3-1.3c7.5-2.6,16.8-8.2,23.6-16.1h1.9L1,247.7h9.3l-0.9,3.1H0l-9.1,30.4
							c-1.7,5.8-1,7.8,0.5,7.8c1.8,0,5.2-2.7,8.5-8.7l0.9,0.8c-4.2,8.4-10.8,15.4-17.8,15.4C-23.5,296.4-26.9,290.8-23.8,280.5z"/>
					</defs>
					<clipPath id="SVGID_4_">
						<use xlink:href="#SVGID_3_"  style="overflow:visible;"/>
					</clipPath>
					<path class="st11" d="M-30.2,303.3h-21.4l-3.5,5.7h5.2l-1.7,9.8h-21.2l1.7-9.8h4.5l20.1-31.3h-4.7l1.7-9.6h21.2l10.6,40.9h4.6
						l-1.7,9.8h-21.2l1.7-9.8h5.6L-30.2,303.3z M-41.3,286.7l-4.6,7.4h13.5l-1.8-7.4l-1.7-9L-41.3,286.7z"/>
				</g>
				<g>
					<defs>
						<path id="SVGID_5_" d="M-23.8,280.5l8.9-29.7h-5.6l0.3-1.3c7.5-2.6,16.8-8.2,23.6-16.1h1.9L1,247.7h9.3l-0.9,3.1H0l-9.1,30.4
							c-1.7,5.8-1,7.8,0.5,7.8c1.8,0,5.2-2.7,8.5-8.7l0.9,0.8c-4.2,8.4-10.8,15.4-17.8,15.4C-23.5,296.4-26.9,290.8-23.8,280.5z"/>
					</defs>
					<clipPath id="SVGID_6_">
						<use xlink:href="#SVGID_5_"  style="overflow:visible;"/>
					</clipPath>
					<path class="st12" d="M-8.7,291.5l1.5-8.8H7.1l-0.3,5.4c3.6-3.5,7.9-5.8,13.5-5.8c9.2,0,14.5,5.5,14.5,14.8
						c0,13.8-8.5,22.7-22.5,22.7c-3.6,0-7.7-1.2-10.4-4.8l-2,11H5l-1.6,9.1H-16l1.6-9.1h4.5l6.1-34.5H-8.7z M23.9,299.4
						c0-4.6-2.7-7.2-7.5-7.2c-6.9,0-10.9,5.7-10.9,10.8c0,3.8,2.2,7.8,7.3,7.8C19.4,310.7,23.9,306.1,23.9,299.4z"/>
				</g>
				<g>
					<defs>
						<path id="SVGID_7_" d="M2.8,283.4c0-15.5,11.7-36.5,26-36.4c4.2,0,6.5,1.9,7.6,3.8l12.4-3.2h3.2L41.1,281c-0.9,3.1-2.2,8,0,8
							c1.2,0,3.7-2.1,7.4-8.7l1,0.8c-3.7,8.4-10.1,15.3-17.1,15.3c-6.2,0-8.3-4.9-7.5-11.1c-4,8-8.4,11.1-13.2,11.1
							C5.9,296.4,2.8,291.3,2.8,283.4z M28.5,273.1l0.8-2.6l0.1-0.4l4.8-14.8c0.7-2.8-0.4-4.1-2-4.1c-3.1,0-6.9,4.7-11.3,18.2
							c-2,6.1-6,19-1.6,19C21.1,288.4,24.4,285.2,28.5,273.1z"/>
					</defs>
					<clipPath id="SVGID_8_">
						<use xlink:href="#SVGID_7_"  style="overflow:visible;"/>
					</clipPath>
					<path class="st13" d="M-8.7,291.5l1.5-8.8H7.1l-0.3,5.4c3.6-3.5,7.9-5.8,13.5-5.8c9.2,0,14.5,5.5,14.5,14.8
						c0,13.8-8.5,22.7-22.5,22.7c-3.6,0-7.7-1.2-10.4-4.8l-2,11H5l-1.6,9.1H-16l1.6-9.1h4.5l6.1-34.5H-8.7z M23.9,299.4
						c0-4.6-2.7-7.2-7.5-7.2c-6.9,0-10.9,5.7-10.9,10.8c0,3.8,2.2,7.8,7.3,7.8C19.4,310.7,23.9,306.1,23.9,299.4z"/>
				</g>
				<g>
					<defs>
						<path id="SVGID_9_" d="M2.8,283.4c0-15.5,11.7-36.5,26-36.4c4.2,0,6.5,1.9,7.6,3.8l12.4-3.2h3.2L41.1,281c-0.9,3.1-2.2,8,0,8
							c1.2,0,3.7-2.1,7.4-8.7l1,0.8c-3.7,8.4-10.1,15.3-17.1,15.3c-6.2,0-8.3-4.9-7.5-11.1c-4,8-8.4,11.1-13.2,11.1
							C5.9,296.4,2.8,291.3,2.8,283.4z M28.5,273.1l0.8-2.6l0.1-0.4l4.8-14.8c0.7-2.8-0.4-4.1-2-4.1c-3.1,0-6.9,4.7-11.3,18.2
							c-2,6.1-6,19-1.6,19C21.1,288.4,24.4,285.2,28.5,273.1z"/>
					</defs>
					<clipPath id="SVGID_10_">
						<use xlink:href="#SVGID_9_"  style="overflow:visible;"/>
					</clipPath>
					<path class="st14" d="M40.4,291.5l1.5-8.8h14.3l-0.3,5.4c3.6-3.5,7.9-5.8,13.5-5.8c9.2,0,14.5,5.5,14.5,14.8
						c0,13.8-8.5,22.7-22.5,22.7c-3.6,0-7.7-1.2-10.4-4.8l-2,11h5.2l-1.6,9.1H33.1l1.6-9.1h4.5l6.1-34.5H40.4z M73,299.4
						c0-4.6-2.7-7.2-7.5-7.2c-6.9,0-10.9,5.7-10.9,10.8c0,3.8,2.2,7.8,7.3,7.8C68.5,310.7,73,306.1,73,299.4z"/>
				</g>
				<g>
					<defs>
						<path id="SVGID_11_" d="M57.5,249.2l0.5-1.5h19.7l-5.3,17.6c5.5-13.1,12.8-20.3,21.5-17.9l-6.4,14h-0.8
							c-5.3-3.5-13.2,1.5-19.3,20.4l-4.1,13.4h-15L60,257.5C61.7,251.6,59.6,249.8,57.5,249.2z"/>
					</defs>
					<clipPath id="SVGID_12_">
						<use xlink:href="#SVGID_11_"  style="overflow:visible;"/>
					</clipPath>
					<path class="st15" d="M40.4,291.5l1.5-8.8h14.3l-0.3,5.4c3.6-3.5,7.9-5.8,13.5-5.8c9.2,0,14.5,5.5,14.5,14.8
						c0,13.8-8.5,22.7-22.5,22.7c-3.6,0-7.7-1.2-10.4-4.8l-2,11h5.2l-1.6,9.1H33.1l1.6-9.1h4.5l6.1-34.5H40.4z M73,299.4
						c0-4.6-2.7-7.2-7.5-7.2c-6.9,0-10.9,5.7-10.9,10.8c0,3.8,2.2,7.8,7.3,7.8C68.5,310.7,73,306.1,73,299.4z"/>
				</g>
				<g>
					<defs>
						<path id="SVGID_13_" d="M82,299.3l0.9-0.1c4.4,6.3,11.3,10.4,18.1,4.7l-5.2-45c-0.8-6.1-2.2-7.2-4.1-7.5l0.4-1.5l17.1-3.3
							l4.6,45.2c9.6-15.8,9-30.1,2.5-39.1l0.2-0.8l16.9-5.5c0.6,16.8-8.3,34.4-17.8,47.3c-8.9,12-21.8,23.5-39.9,19.3L82,299.3z"/>
					</defs>
					<clipPath id="SVGID_14_">
						<use xlink:href="#SVGID_13_"  style="overflow:visible;"/>
					</clipPath>
					<path class="st16" d="M40.4,291.5l1.5-8.8h14.3l-0.3,5.4c3.6-3.5,7.9-5.8,13.5-5.8c9.2,0,14.5,5.5,14.5,14.8
						c0,13.8-8.5,22.7-22.5,22.7c-3.6,0-7.7-1.2-10.4-4.8l-2,11h5.2l-1.6,9.1H33.1l1.6-9.1h4.5l6.1-34.5H40.4z M73,299.4
						c0-4.6-2.7-7.2-7.5-7.2c-6.9,0-10.9,5.7-10.9,10.8c0,3.8,2.2,7.8,7.3,7.8C68.5,310.7,73,306.1,73,299.4z"/>
				</g>
				<g>
					<defs>
						<path id="SVGID_15_" d="M82,299.3l0.9-0.1c4.4,6.3,11.3,10.4,18.1,4.7l-5.2-45c-0.8-6.1-2.2-7.2-4.1-7.5l0.4-1.5l17.1-3.3
							l4.6,45.2c9.6-15.8,9-30.1,2.5-39.1l0.2-0.8l16.9-5.5c0.6,16.8-8.3,34.4-17.8,47.3c-8.9,12-21.8,23.5-39.9,19.3L82,299.3z"/>
					</defs>
					<clipPath id="SVGID_16_">
						<use xlink:href="#SVGID_15_"  style="overflow:visible;"/>
					</clipPath>
					<path class="st17" d="M94.1,268.1h14.6l-7.3,41.9h4.3l-1.6,8.8H84.9l1.6-8.8h4.9l5.8-33.1h-4.6L94.1,268.1z"/>
				</g>
				<g>
					<defs>
						<path id="SVGID_17_" d="M82,299.3l0.9-0.1c4.4,6.3,11.3,10.4,18.1,4.7l-5.2-45c-0.8-6.1-2.2-7.2-4.1-7.5l0.4-1.5l17.1-3.3
							l4.6,45.2c9.6-15.8,9-30.1,2.5-39.1l0.2-0.8l16.9-5.5c0.6,16.8-8.3,34.4-17.8,47.3c-8.9,12-21.8,23.5-39.9,19.3L82,299.3z"/>
					</defs>
					<clipPath id="SVGID_18_">
						<use xlink:href="#SVGID_17_"  style="overflow:visible;"/>
					</clipPath>
					<path class="st18" d="M130.8,282.8l-4.8,27.2h4.1l-1.6,8.8h-18.9l1.6-8.8h4.6l3.2-18.5h-4.5l1.6-8.7H130.8z M121.5,274.2
						c0-4.2,3.7-6.6,7-6.6c2.9,0,5.2,1.7,5.2,4.9c0,4.1-3.7,6.6-7.1,6.6C123.8,279.1,121.5,277.3,121.5,274.2z"/>
				</g>
			</g>
		</g>
	</g>
	<g id="Calque_3">
	</g>
</g>
<g id="Calque_2_1_">
</g>
</svg>
