<?xml version="1.0" encoding="utf-8"?>
<!-- Generator: Adobe Illustrator 19.0.0, SVG Export Plug-In . SVG Version: 6.00 Build 0)  -->
<svg version="1.1" xmlns="http://www.w3.org/2000/svg" xmlns:xlink="http://www.w3.org/1999/xlink" x="0px" y="0px"
	 viewBox="-185 224 589 114" style="enable-background:new -185 224 589 114;" xml:space="preserve">
<style type="text/css">
	.st0{display:none;}
	.st1{display:inline;}
	.st2{fill:#EBFFAA;}
	.st3{fill:#E90052;}
	.st4{font-family:'DentonCondensedTest-BlackItalic';}
	.st5{font-size:93.7594px;}
	.st6{fill:#3AF9BA;}
	.st7{font-family:'NexaSlabHeavyOblique';}
	.st8{font-size:72.4382px;}
	.st9{enable-background:new    ;}
	.st10{clip-path:url(#SVGID_2_);}
	.st11{clip-path:url(#SVGID_4_);}
	.st12{clip-path:url(#SVGID_6_);}
</style>
<g id="Calque_1">
	<g id="Calque_1_1_" class="st0">
		<g id="Sauvegarde" class="st1">
			<g id="Calque_5">
				<rect x="-1" y="269.7" class="st2" width="405" height="1.9"/>
				<rect x="-185" y="307.7" class="st2" width="208" height="1.9"/>
			</g>
			<text transform="matrix(1 0 0 1 -177.0725 295.2568)" class="st3 st4 st5">Oil Gas</text>
			<text transform="matrix(1 0 0 1 -23.9038 318.7645)" class="st6 st7 st8">Industry</text>
		</g>
		<g id="Calque_4" class="st1">
		</g>
	</g>
	<g id="Calque_1_3_">
		<g id="Sauvegarde_2_">
			<g id="Calque_5_2_">
				<rect x="-166.3" y="269.7" class="st2" width="570.3" height="1.9"/>
				<rect x="-185" y="307.7" class="st2" width="473.3" height="1.9"/>
			</g>
			<g class="st9">
				<path class="st3" d="M-171.4,259.7c6-22.3,20.4-33.6,35.6-33.1c15.3,0.5,23.5,14.1,17.7,35.6c-6.2,22.9-21.8,34.7-36,34.1
					C-169.1,295.8-177.2,281.3-171.4,259.7z M-153.9,293.4c8.4,0.3,14.6-15.8,18.9-31.7c4.1-15.3,7-31.8-1.2-32.1
					c-8.4-0.3-14.4,16.3-18.7,31.7C-159,276.7-162.1,293.1-153.9,293.4z"/>
				<path class="st3" d="M-116.3,280.6l7.5-24.1c1.4-5.6-0.9-6.8-2.7-7.3l0.4-1.5H-91l-10.4,33.3c-1.9,5.8-1.2,8,0,8
					c1.1,0,3.5-1.7,7.4-8.7l0.9,0.8c-3.7,8.4-9.9,15.3-17,15.3C-116.4,296.4-119.6,290.9-116.3,280.6z M-96.3,226.7
					c4.5,0,8.2,3.8,8.1,8.7c-0.1,4.7-3.7,8.5-8.3,8.5c-4.5,0-8.1-3.7-8.1-8.4S-100.9,226.7-96.3,226.7z"/>
				<path class="st3" d="M-89.5,280.5l13.5-42.5c1.7-5.5-1-6.7-2.8-7l0.4-1.5l21-3.2L-74.7,281c-1.9,5.8-1.2,8,0,8
					c1.1,0,3.5-1.7,7.4-8.7l1,0.8c-3.7,8.4-9.9,15.3-16.9,15.3C-89.2,296.4-92.9,291-89.5,280.5z"/>
				<path class="st3" d="M-16.2,262.3l0.5-1.7h27.2l-0.5,1.7c-2.6,0.8-5.4,2.2-7.5,9l-5.4,17.8c-7.6,4.9-14.9,7.2-21.7,7.2
					c-17.8,0-27.4-15.6-19.2-38.6c7.3-20.3,22.7-30.9,40.2-30.9c5.3,0,11.1,1.1,17,3.8l-6,19.7H7.3c0.3-9.5-1.9-20.5-10.2-20.5
					c-8.1,0-17.8,11.5-23.2,29.1c-5.8,19.1-5.3,34.3,4.7,34.3c1.9,0,3.8-0.6,5.5-1.4l6-20.4C-7.9,264.7-11.9,263.1-16.2,262.3z"/>
				<path class="st3" d="M8.6,283.4c0-15.5,11.7-36.5,26-36.4c4.2,0,6.5,1.9,7.6,3.8l12.4-3.2h3.2L46.9,281c-0.9,3.1-2.2,8,0,8
					c1.2,0,3.7-2.1,7.4-8.7l1,0.8c-3.7,8.4-10.1,15.3-17.1,15.3c-6.2,0-8.3-4.9-7.5-11.1c-4,8-8.4,11.1-13.2,11.1
					C11.8,296.4,8.6,291.3,8.6,283.4z M34.4,273.1l0.8-2.6l0.1-0.4l4.8-14.8c0.7-2.8-0.4-4.1-2-4.1c-3.1,0-6.9,4.7-11.3,18.2
					c-2,6.1-6,19-1.6,19C26.9,288.4,30.2,285.2,34.4,273.1z"/>
				<path class="st3" d="M53.6,291.6l4.6-13.4h0.9c1.5,3.9,3.1,7.6,4.9,10.2c2.2,3.3,4.5,5.1,6.8,5c2,0,4.1-1.2,4.2-3.9
					c0.2-4.4-5.5-10.5-9.3-16.1c-3.6-5.3-4.5-8.4-4.3-12c0.3-8.4,7.6-14.3,17.4-14.3c4.3,0,9.4,1.1,14.2,3.8l-4.5,12.9h-0.8
					c-0.8-3.1-1.8-6-2.8-8.1c-2-3.7-4.3-5.8-6.9-5.8c-2,0-4.2,1.2-4.2,3.8c0,4,5.4,9.7,9.3,15.7c2.8,4.7,4,8.3,3.7,12.8
					c-0.8,7.8-6.7,14.2-16.8,14.2C64.1,296.4,58.3,294.3,53.6,291.6z"/>
			</g>
			<g class="st9">
				<path class="st6" d="M-1.9,309l-1.7,9.8h-22.3l1.7-9.8h5.8l5.5-31.1h-5.6l1.7-9.8h22l-1.7,9.8h-5.8L-7.7,309H-1.9z"/>
				<path class="st6" d="M19.2,309.8h5.3l-1.6,9H2.4l1.6-9h5.3l3.2-18.3h-5l1.6-8.8H23l0.1,3.7c3.9-3.3,8-4.1,10.9-4.1
					c9.8,0,14.5,4.6,12.2,17.5l-1.7,10h5.1l-1.6,9H28.8l1.6-9h4l1.7-9.9c0.7-3.8,0.9-8.1-5.6-8.1c-4.9-0.1-8.8,3.3-9.7,8.8
					L19.2,309.8z"/>
				<path class="st6" d="M97.5,309.8l-1.6,9H82.6l-0.6-4.7c-3.7,3.5-7.7,5.4-13,5.4c-8.8,0-14.6-5.2-14.6-14.8
					c0-14.8,10.3-22.5,21.9-22.5c4.1,0,8.1,1,10.2,4.3l1.7-9.7h-5l1.5-8.6h15.1l-7.4,41.6H97.5z M65,302.5c0,4.8,3.1,7.5,7.5,7.5
					c5.2,0,11.5-3.1,11.5-11.3c0-6.2-4.6-7.5-7.8-7.5C70.6,291.2,65,294.6,65,302.5z"/>
				<path class="st6" d="M142,309.7h5l-1.6,9.1h-12.6l-0.2-4.5c-4.6,4-9.3,5.1-12.7,5.1c-13.1,0-14.8-8-13-18.2l1.7-9.8H104l1.5-8.5
					h14.6l-3.3,18.3c-0.9,5-0.6,8.5,7,8.5c4.9-0.1,8.9-4.2,9.8-9.2l1.6-9.1h-5.4l1.5-8.5h15.4L142,309.7z"/>
				<path class="st6" d="M176.4,294.3l0.3-4.1c-0.9-0.6-3.3-1-5.4-1c-3.3,0-6.5,1.2-6.5,4.3c0,2.2,3.2,2.5,5.2,2.7
					c8.8,0.5,15.4,3.6,14.1,12.6c-1.4,7-7,11.3-18,11.3c-5.6,0-11-1.1-15.4-4.2l2-9.9h8.5l-0.3,4c1.1,0.7,3.6,1.2,6.2,1.3
					c3.5,0.1,7-0.7,7-3.5c0-1.7-2-3-6.3-3.2c-8.3-1-14.6-4.1-13.1-11.9c1.4-8,10.4-11.2,18.3-11.2c4.7,0,9.6,1,13.5,3l-1.9,9.8
					H176.4z"/>
				<path class="st6" d="M209.2,273.2l-1.7,9.9h9.3l-1.5,8.6h-9.4l-2.5,14.1c-0.7,4.4,3,5.5,7.7,3.7l0.8,8.3
					c-3.8,1.3-5.7,1.5-8.9,1.5c-6.5-0.1-11.2-3.8-9.5-13.5l2.5-14.1h-6.2l1.5-8.6h6.2l1.5-8.8L209.2,273.2z"/>
				<path class="st6" d="M225.3,291.5h-4.6l1.6-8.8h13.3l0.3,3.4c3.3-3.1,7-4.3,10.9-4.3c3.2,0,6.8,1,9.1,3.5l-6.2,8.6
					c-1.5-1.5-3.9-2.2-6.3-2.2c-4,0-8.3,2.2-9.4,8.5l-1.7,9.9h5l-1.5,8.7H215l1.5-8.7h5.5L225.3,291.5z"/>
				<path class="st6" d="M271.5,319.1c-8.5,0-15-4.2-12.6-18l1.7-9.6h-5.2l1.5-8.8H272l-3.3,18.4c-0.8,4.3-0.9,8.9,6.7,8.9
					c5.3-0.1,8.3-4.1,9.3-9.3l1.7-9.3h-5.4l1.5-8.8H298l-6.3,35.9c-2.5,13.8-11.1,18.5-21.3,18.5c-9.9,0-16.7-4.2-15.2-15h9.9
					c-0.4,3.9,2.3,5.7,6.6,5.7c4.9,0,9.4-3.2,10.4-9.1l0.7-4C279.5,318.2,276.3,319.1,271.5,319.1z"/>
			</g>
			<g class="st9">
				<g>
					<defs>
						<path id="SVGID_1_" d="M-16.2,262.3l0.5-1.7h27.2l-0.5,1.7c-2.6,0.8-5.4,2.2-7.5,9l-5.4,17.8c-7.6,4.9-14.9,7.2-21.7,7.2
							c-17.8,0-27.4-15.6-19.2-38.6c7.3-20.3,22.7-30.9,40.2-30.9c5.3,0,11.1,1.1,17,3.8l-6,19.7H7.3c0.3-9.5-1.9-20.5-10.2-20.5
							c-8.1,0-17.8,11.5-23.2,29.1c-5.8,19.1-5.3,34.3,4.7,34.3c1.9,0,3.8-0.6,5.5-1.4l6-20.4C-7.9,264.7-11.9,263.1-16.2,262.3z"/>
					</defs>
					<clipPath id="SVGID_2_">
						<use xlink:href="#SVGID_1_"  style="overflow:visible;"/>
					</clipPath>
					<path class="st10" d="M-1.9,309l-1.7,9.8h-22.3l1.7-9.8h5.8l5.5-31.1h-5.6l1.7-9.8h22l-1.7,9.8h-5.8L-7.7,309H-1.9z"/>
				</g>
				<g>
					<defs>
						<path id="SVGID_3_" d="M8.6,283.4c0-15.5,11.7-36.5,26-36.4c4.2,0,6.5,1.9,7.6,3.8l12.4-3.2h3.2L46.9,281c-0.9,3.1-2.2,8,0,8
							c1.2,0,3.7-2.1,7.4-8.7l1,0.8c-3.7,8.4-10.1,15.3-17.1,15.3c-6.2,0-8.3-4.9-7.5-11.1c-4,8-8.4,11.1-13.2,11.1
							C11.8,296.4,8.6,291.3,8.6,283.4z M34.4,273.1l0.8-2.6l0.1-0.4l4.8-14.8c0.7-2.8-0.4-4.1-2-4.1c-3.1,0-6.9,4.7-11.3,18.2
							c-2,6.1-6,19-1.6,19C26.9,288.4,30.2,285.2,34.4,273.1z"/>
					</defs>
					<clipPath id="SVGID_4_">
						<use xlink:href="#SVGID_3_"  style="overflow:visible;"/>
					</clipPath>
					<path class="st11" d="M19.2,309.8h5.3l-1.6,9H2.4l1.6-9h5.3l3.2-18.3h-5l1.6-8.8H23l0.1,3.7c3.9-3.3,8-4.1,10.9-4.1
						c9.8,0,14.5,4.6,12.2,17.5l-1.7,10h5.1l-1.6,9H28.8l1.6-9h4l1.7-9.9c0.7-3.8,0.9-8.1-5.6-8.1c-4.9-0.1-8.8,3.3-9.7,8.8
						L19.2,309.8z"/>
				</g>
				<g>
					<defs>
						<path id="SVGID_5_" d="M53.6,291.6l4.6-13.4h0.9c1.5,3.9,3.1,7.6,4.9,10.2c2.2,3.3,4.5,5.1,6.8,5c2,0,4.1-1.2,4.2-3.9
							c0.2-4.4-5.5-10.5-9.3-16.1c-3.6-5.3-4.5-8.4-4.3-12c0.3-8.4,7.6-14.3,17.4-14.3c4.3,0,9.4,1.1,14.2,3.8l-4.5,12.9h-0.8
							c-0.8-3.1-1.8-6-2.8-8.1c-2-3.7-4.3-5.8-6.9-5.8c-2,0-4.2,1.2-4.2,3.8c0,4,5.4,9.7,9.3,15.7c2.8,4.7,4,8.3,3.7,12.8
							c-0.8,7.8-6.7,14.2-16.8,14.2C64.1,296.4,58.3,294.3,53.6,291.6z"/>
					</defs>
					<clipPath id="SVGID_6_">
						<use xlink:href="#SVGID_5_"  style="overflow:visible;"/>
					</clipPath>
					<path class="st12" d="M97.5,309.8l-1.6,9H82.6l-0.6-4.7c-3.7,3.5-7.7,5.4-13,5.4c-8.8,0-14.6-5.2-14.6-14.8
						c0-14.8,10.3-22.5,21.9-22.5c4.1,0,8.1,1,10.2,4.3l1.7-9.7h-5l1.5-8.6h15.1l-7.4,41.6H97.5z M65,302.5c0,4.8,3.1,7.5,7.5,7.5
						c5.2,0,11.5-3.1,11.5-11.3c0-6.2-4.6-7.5-7.8-7.5C70.6,291.2,65,294.6,65,302.5z"/>
				</g>
			</g>
		</g>
		<g id="Calque_4_2_">
		</g>
	</g>
	<g id="Calque_3">
	</g>
</g>
<g id="Calque_2_1_">
</g>
</svg>
