<?xml version="1.0" encoding="utf-8"?>
<!-- Generator: Adobe Illustrator 19.0.0, SVG Export Plug-In . SVG Version: 6.00 Build 0)  -->
<svg version="1.1" xmlns="http://www.w3.org/2000/svg" xmlns:xlink="http://www.w3.org/1999/xlink" x="0px" y="0px"
	 viewBox="-185 224 589 114" style="enable-background:new -185 224 589 114;" xml:space="preserve">
<style type="text/css">
	.st0{display:none;}
	.st1{display:inline;}
	.st2{fill:#EBFFAA;}
	.st3{fill:#E90052;}
	.st4{font-family:'DentonCondensedTest-BlackItalic';}
	.st5{font-size:93.7594px;}
	.st6{fill:#3AF9BA;}
	.st7{font-family:'NexaSlabHeavyOblique';}
	.st8{font-size:72.4382px;}
	.st9{enable-background:new    ;}
	.st10{clip-path:url(#SVGID_2_);}
	.st11{clip-path:url(#SVGID_4_);}
	.st12{clip-path:url(#SVGID_6_);}
	.st13{clip-path:url(#SVGID_8_);}
	.st14{clip-path:url(#SVGID_10_);}
	.st15{clip-path:url(#SVGID_12_);}
</style>
<g id="Calque_1">
	<g id="Calque_1_1_" class="st0">
		<g id="Sauvegarde" class="st1">
			<g id="Calque_5">
				<rect x="-1" y="269.7" class="st2" width="405" height="1.9"/>
				<rect x="-185" y="307.7" class="st2" width="208" height="1.9"/>
			</g>
			<text transform="matrix(1 0 0 1 -177.0725 295.2568)" class="st3 st4 st5">Oil Gas</text>
			<text transform="matrix(1 0 0 1 -23.9038 318.7645)" class="st6 st7 st8">Industry</text>
		</g>
		<g id="Calque_4" class="st1">
		</g>
	</g>
	<g id="Calque_1_2_">
		<g id="Sauvegarde_1_">
			<g id="Calque_5_1_">
				<rect x="-1" y="269.7" class="st2" width="405" height="1.9"/>
				<rect x="-185" y="307.7" class="st2" width="208" height="1.9"/>
			</g>
			<g class="st9">
				<path class="st3" d="M-164.7,229.3l0.4-1.6h26.2l-0.6,1.6c-2.7,0.8-6.4,2.2-6.6,8.5l-0.9,35.3l16-27.2l0.1-7.7
					c0.1-6.8-2.3-8.3-4.1-8.9l0.5-1.6h26.1l-0.4,1.6c-2.6,0.8-6.7,2.5-6.8,8.9l-1.1,35.1l19.9-35.3c3.7-6.4,1.2-8.1-1.2-8.7l0.4-1.5
					h15.7l-0.6,1.6c-2.6,0.7-7,2-10.9,8.6l-32.3,57.3h-6l0.7-43.5l-25.2,43.5h-6l0.9-57.4C-160.5,231.7-162.8,229.9-164.7,229.3z"/>
				<path class="st3" d="M-100.3,268.4c5.3-14.3,16.3-21.3,26.3-21.3c8.3,0,14.6,4.9,12.4,12.6c-2.4,8.7-13.2,12.4-25.2,13.9
					c-1.5,9.3,1.2,14.6,6.2,14.8c3.3,0.2,8.6-2,13-9.7l1,0.8c-5.6,12.5-14.5,16.9-21.3,16.9C-99.4,296.4-106.2,284.3-100.3,268.4z
					 M-73.4,257.2c1-3.3,1.7-7.2-0.8-7.2c-2.8,0-7,5.7-10.1,14.3c-0.9,2.5-1.6,4.9-2.1,7C-78.4,269.3-75.1,262.8-73.4,257.2z"/>
				<path class="st3" d="M-62.2,280.5l13.5-42.5c1.7-5.5-1-6.7-2.8-7l0.4-1.5l21-3.2L-47.4,281c-1.9,5.8-1.2,8,0,8
					c1.1,0,3.5-1.7,7.4-8.7l1,0.8c-3.7,8.4-9.9,15.3-16.9,15.3C-61.9,296.4-65.6,291-62.2,280.5z"/>
				<path class="st3" d="M-14.6,285.4c-4,7.9-8.5,11-13.3,11c-9.1,0-11.7-11.8-7.1-25.7c5.8-17.3,18.1-24.6,26-23.5
					c2.9,0.4,4.6,1.7,5.5,3.2l4-12.3c1.4-5.6-1-6.7-2.7-7l0.3-1.5l21.2-3.2L1.5,281c-1.8,5.8-1.2,8,0,8s3.7-2.1,7.4-8.7l1,0.8
					c-3.7,8.4-10.1,15.3-17.1,15.3C-12.4,296.4-15.6,292.7-14.6,285.4z M-11.6,274.8l7.2-21.9c-0.6-0.9-1.3-1.3-2.5-1.3
					c-3.4,0-7.2,4.2-11.7,17.8c-3.3,9.9-5.3,18.5-1.8,18.9C-18.8,288.5-15.6,285.9-11.6,274.8z"/>
				<path class="st3" d="M12.6,280.6l7.5-24.1c1.4-5.6-0.9-6.8-2.7-7.3l0.4-1.5h20.2L27.5,281c-1.9,5.8-1.2,8,0,8
					c1.1,0,3.5-1.7,7.4-8.7l0.9,0.8c-3.7,8.4-9.9,15.3-17,15.3C12.5,296.4,9.3,290.9,12.6,280.6z M32.6,226.7c4.5,0,8.2,3.8,8.1,8.7
					c-0.1,4.7-3.7,8.5-8.3,8.5c-4.5,0-8.1-3.7-8.1-8.4S28,226.7,32.6,226.7z"/>
				<path class="st3" d="M64.2,280.6l6.2-18.3c2.2-6.5,1.3-7.8,0.2-7.8c-2.4,0-10.5,9.4-16.5,28.1l-3.8,12.6H35.1l11.8-37.8
					c1.8-5.9-0.4-7.7-2.4-8.3l0.5-1.5h19.8l-5.1,16.4c6.8-12.2,13.2-17.1,19.2-17.1c6.3,0,9.8,5.5,7,13.6L79.2,281
					c-1.9,5.8-1.2,8,0,8c1.1,0,3.5-1.7,7.4-8.7l1,0.8c-3.7,8.4-10.1,15.3-17.1,15.3C64.1,296.4,60.7,290.9,64.2,280.6z"/>
				<path class="st3" d="M83.2,303.5c1.6-5.6,9.5-6.4,15.5-2.6l0.3,0.8c-2.4,0.8-3.8,2.4-4.1,4.1c-1.2,4.5,3.1,7.1,8.9,7.2
					c4.4,0.1,9.7-1.7,11-5.8c1.2-3.5-0.7-6.5-5.6-7.5L97,297.2c-10.3-2.2-10.6-8.1-9.5-11.3c1.4-4.1,5.1-6.1,9.2-7.5
					c-3.9-3-5.9-8.3-3.9-15.1c3.2-10.9,13.9-16.2,22.5-16.2c5.5,0.1,10.2,2.3,12.8,6c2.3-4.4,6.8-7.5,11.3-5.8l-3.3,8.5
					c-1.7-1-4.2-1.7-6.8-0.4c1,2.8,1.2,6.2,0.1,9.9c-3.4,11.4-15.5,16-23.3,16c-2.6,0-5-0.6-7-1.6c-0.8,0.5-1.1,1-1.3,1.6
					c-0.4,1.4,0.7,2.5,4.5,3.4l12,2.5c11.2,2.4,12.7,10.2,10.4,16.4c-2.9,7.9-11.9,12.4-22.4,12.2C92.4,315.9,80.9,311.6,83.2,303.5
					z M115.1,264.4c1.8-6,3.9-14.4,0.5-14.4c-3.4,0-6.4,7.9-8.3,14.3c-1.9,6.3-4,14.3-0.6,14.3C110,278.7,113.1,271.3,115.1,264.4z"
					/>
			</g>
			<g class="st9">
				<path class="st6" d="M16.2,303.3H-5.3l-3.5,5.7h5.2l-1.7,9.8h-21.2l1.7-9.8h4.5l20.1-31.3h-4.7l1.7-9.6h21.2L28.5,309h4.6
					l-1.7,9.8H10.2L12,309h5.6L16.2,303.3z M5.1,286.7l-4.6,7.4h13.5l-1.8-7.4l-1.7-9L5.1,286.7z"/>
				<path class="st6" d="M43,268.1h14.6l-7.3,41.9h4.3l-1.6,8.8H33.8l1.6-8.8h4.9l5.8-33.1h-4.6L43,268.1z"/>
				<path class="st6" d="M99.7,309.7h5l-1.6,9.1H90.5l-0.2-4.5c-4.6,4-9.3,5.1-12.7,5.1c-13.1,0-14.8-8-13-18.2l1.7-9.9h-4.6
					l1.5-8.5h14.6l-3.3,18.3c-0.9,5-0.6,8.5,7,8.5c4.9-0.1,8.9-4.2,9.8-9.2l1.6-9.1h-5.4l1.5-8.5h15.4L99.7,309.7z"/>
				<path class="st6" d="M107.9,318.8l1.6-9h5.1l3.2-18.1h-4.8l1.5-8.8h14.1l0.4,3.8c2.6-3.3,6.2-4.5,9.6-4.5c5,0,8.1,2,8.9,6.2
					c3.5-4.1,7.6-6.1,13-6.1c11.4,0,13.6,6.1,11.7,16.7l-1.9,10.8h5.1l-1.6,9h-19.6l1.6-9h4.6l1.9-10.5c0.7-3.8,0.5-7.4-4.5-7.4
					c-4.9,0-7.4,4-8.1,7.9l-1.7,10h4.9l-1.6,9h-19.8l1.6-9h4.9l1.7-10c0.9-5.1-1-8-4.9-8c-4.3,0-7.3,2.7-8.3,8l-1.7,10h5l-1.6,9
					H107.9z"/>
				<path class="st6" d="M199.7,282.8l-4.8,27.2h4.1l-1.6,8.8h-18.9l1.6-8.8h4.6l3.2-18.5h-4.5l1.6-8.7H199.7z M190.4,274.2
					c0-4.2,3.7-6.6,7-6.6c2.9,0,5.2,1.7,5.2,4.9c0,4.1-3.7,6.6-7.1,6.6C192.7,279.1,190.4,277.3,190.4,274.2z"/>
				<path class="st6" d="M219.6,309.8h5.3l-1.6,9h-20.4l1.6-9h5.3l3.2-18.3h-5l1.6-8.8h13.9l0.1,3.7c3.9-3.3,8-4.1,10.9-4.1
					c9.8,0,14.5,4.6,12.2,17.5l-1.7,10h5.1l-1.6,9h-19.2l1.6-9h4l1.7-9.9c0.7-3.8,0.9-8.1-5.6-8.1c-4.9-0.1-8.8,3.3-9.7,8.8
					L219.6,309.8z"/>
				<path class="st6" d="M293.9,309.7h5l-1.6,9.1h-12.6l-0.2-4.5c-4.6,4-9.3,5.1-12.7,5.1c-13.1,0-14.8-8-13-18.2l1.7-9.9h-4.6
					l1.5-8.5h14.6l-3.3,18.3c-0.9,5-0.6,8.5,7,8.5c4.9-0.1,8.9-4.2,9.8-9.2l1.6-9.1h-5.4l1.5-8.5h15.4L293.9,309.7z"/>
				<path class="st6" d="M302.1,318.8l1.6-9h5.1l3.2-18.1h-4.8l1.5-8.8h14.1l0.4,3.8c2.6-3.3,6.2-4.5,9.6-4.5c5,0,8.1,2,8.9,6.2
					c3.5-4.1,7.6-6.1,13-6.1c11.4,0,13.6,6.1,11.7,16.7l-1.9,10.8h5.1l-1.6,9h-19.6l1.6-9h4.6l1.9-10.5c0.7-3.8,0.5-7.4-4.5-7.4
					c-4.9,0-7.4,4-8.1,7.9l-1.7,10h4.9l-1.6,9h-19.8l1.6-9h4.9l1.7-10c0.9-5.1-1-8-4.9-8c-4.3,0-7.3,2.7-8.3,8l-1.7,10h5l-1.6,9
					H302.1z"/>
			</g>
		</g>
		<g id="Sauvegarde_2_">
			<g class="st9">
				<g>
					<defs>
						<path id="SVGID_1_" d="M-14.6,285.4c-4,7.9-8.5,11-13.3,11c-9.1,0-11.7-11.8-7.1-25.7c5.8-17.3,18.1-24.6,26-23.5
							c2.9,0.4,4.6,1.7,5.5,3.2l4-12.3c1.4-5.6-1-6.7-2.7-7l0.3-1.5l21.2-3.2L1.5,281c-1.8,5.8-1.2,8,0,8s3.7-2.1,7.4-8.7l1,0.8
							c-3.7,8.4-10.1,15.3-17.1,15.3C-12.4,296.4-15.6,292.7-14.6,285.4z M-11.6,274.8l7.2-21.9c-0.6-0.9-1.3-1.3-2.5-1.3
							c-3.4,0-7.2,4.2-11.7,17.8c-3.3,9.9-5.3,18.5-1.8,18.9C-18.8,288.5-15.6,285.9-11.6,274.8z"/>
					</defs>
					<clipPath id="SVGID_2_">
						<use xlink:href="#SVGID_1_"  style="overflow:visible;"/>
					</clipPath>
					<path class="st10" d="M16.2,303.3H-5.3l-3.5,5.7h5.2l-1.7,9.8h-21.2l1.7-9.8h4.5l20.1-31.3h-4.7l1.7-9.6h21.2L28.5,309h4.6
						l-1.7,9.8H10.2L12,309h5.6L16.2,303.3z M5.1,286.7l-4.6,7.4h13.5l-1.8-7.4l-1.7-9L5.1,286.7z"/>
				</g>
				<g>
					<defs>
						<path id="SVGID_3_" d="M12.6,280.6l7.5-24.1c1.4-5.6-0.9-6.8-2.7-7.3l0.4-1.5h20.2L27.5,281c-1.9,5.8-1.2,8,0,8
							c1.1,0,3.5-1.7,7.4-8.7l0.9,0.8c-3.7,8.4-9.9,15.3-17,15.3C12.5,296.4,9.3,290.9,12.6,280.6z M32.6,226.7
							c4.5,0,8.2,3.8,8.1,8.7c-0.1,4.7-3.7,8.5-8.3,8.5c-4.5,0-8.1-3.7-8.1-8.4S28,226.7,32.6,226.7z"/>
					</defs>
					<clipPath id="SVGID_4_">
						<use xlink:href="#SVGID_3_"  style="overflow:visible;"/>
					</clipPath>
					<path class="st11" d="M16.2,303.3H-5.3l-3.5,5.7h5.2l-1.7,9.8h-21.2l1.7-9.8h4.5l20.1-31.3h-4.7l1.7-9.6h21.2L28.5,309h4.6
						l-1.7,9.8H10.2L12,309h5.6L16.2,303.3z M5.1,286.7l-4.6,7.4h13.5l-1.8-7.4l-1.7-9L5.1,286.7z"/>
				</g>
				<g>
					<defs>
						<path id="SVGID_5_" d="M64.2,280.6l6.2-18.3c2.2-6.5,1.3-7.8,0.2-7.8c-2.4,0-10.5,9.4-16.5,28.1l-3.8,12.6H35.1l11.8-37.8
							c1.8-5.9-0.4-7.7-2.4-8.3l0.5-1.5h19.8l-5.1,16.4c6.8-12.2,13.2-17.1,19.2-17.1c6.3,0,9.8,5.5,7,13.6L79.2,281
							c-1.9,5.8-1.2,8,0,8c1.1,0,3.5-1.7,7.4-8.7l1,0.8c-3.7,8.4-10.1,15.3-17.1,15.3C64.1,296.4,60.7,290.9,64.2,280.6z"/>
					</defs>
					<clipPath id="SVGID_6_">
						<use xlink:href="#SVGID_5_"  style="overflow:visible;"/>
					</clipPath>
					<path class="st12" d="M43,268.1h14.6l-7.3,41.9h4.3l-1.6,8.8H33.8l1.6-8.8h4.9l5.8-33.1h-4.6L43,268.1z"/>
				</g>
				<g>
					<defs>
						<path id="SVGID_7_" d="M64.2,280.6l6.2-18.3c2.2-6.5,1.3-7.8,0.2-7.8c-2.4,0-10.5,9.4-16.5,28.1l-3.8,12.6H35.1l11.8-37.8
							c1.8-5.9-0.4-7.7-2.4-8.3l0.5-1.5h19.8l-5.1,16.4c6.8-12.2,13.2-17.1,19.2-17.1c6.3,0,9.8,5.5,7,13.6L79.2,281
							c-1.9,5.8-1.2,8,0,8c1.1,0,3.5-1.7,7.4-8.7l1,0.8c-3.7,8.4-10.1,15.3-17.1,15.3C64.1,296.4,60.7,290.9,64.2,280.6z"/>
					</defs>
					<clipPath id="SVGID_8_">
						<use xlink:href="#SVGID_7_"  style="overflow:visible;"/>
					</clipPath>
					<path class="st13" d="M99.7,309.7h5l-1.6,9.1H90.5l-0.2-4.5c-4.6,4-9.3,5.1-12.7,5.1c-13.1,0-14.8-8-13-18.2l1.7-9.9h-4.6
						l1.5-8.5h14.6l-3.3,18.3c-0.9,5-0.6,8.5,7,8.5c4.9-0.1,8.9-4.2,9.8-9.2l1.6-9.1h-5.4l1.5-8.5h15.4L99.7,309.7z"/>
				</g>
				<g>
					<defs>
						<path id="SVGID_9_" d="M83.2,303.5c1.6-5.6,9.5-6.4,15.5-2.6l0.3,0.8c-2.4,0.8-3.8,2.4-4.1,4.1c-1.2,4.5,3.1,7.1,8.9,7.2
							c4.4,0.1,9.7-1.7,11-5.8c1.2-3.5-0.7-6.5-5.6-7.5L97,297.2c-10.3-2.2-10.6-8.1-9.5-11.3c1.4-4.1,5.1-6.1,9.2-7.5
							c-3.9-3-5.9-8.3-3.9-15.1c3.2-10.9,13.9-16.2,22.5-16.2c5.5,0.1,10.2,2.3,12.8,6c2.3-4.4,6.8-7.5,11.3-5.8l-3.3,8.5
							c-1.7-1-4.2-1.7-6.8-0.4c1,2.8,1.2,6.2,0.1,9.9c-3.4,11.4-15.5,16-23.3,16c-2.6,0-5-0.6-7-1.6c-0.8,0.5-1.1,1-1.3,1.6
							c-0.4,1.4,0.7,2.5,4.5,3.4l12,2.5c11.2,2.4,12.7,10.2,10.4,16.4c-2.9,7.9-11.9,12.4-22.4,12.2
							C92.4,315.9,80.9,311.6,83.2,303.5z M115.1,264.4c1.8-6,3.9-14.4,0.5-14.4c-3.4,0-6.4,7.9-8.3,14.3c-1.9,6.3-4,14.3-0.6,14.3
							C110,278.7,113.1,271.3,115.1,264.4z"/>
					</defs>
					<clipPath id="SVGID_10_">
						<use xlink:href="#SVGID_9_"  style="overflow:visible;"/>
					</clipPath>
					<path class="st14" d="M107.9,318.8l1.6-9h5.1l3.2-18.1h-4.8l1.5-8.8h14.1l0.4,3.8c2.6-3.3,6.2-4.5,9.6-4.5c5,0,8.1,2,8.9,6.2
						c3.5-4.1,7.6-6.1,13-6.1c11.4,0,13.6,6.1,11.7,16.7l-1.9,10.8h5.1l-1.6,9h-19.6l1.6-9h4.6l1.9-10.5c0.7-3.8,0.5-7.4-4.5-7.4
						c-4.9,0-7.4,4-8.1,7.9l-1.7,10h4.9l-1.6,9h-19.8l1.6-9h4.9l1.7-10c0.9-5.1-1-8-4.9-8c-4.3,0-7.3,2.7-8.3,8l-1.7,10h5l-1.6,9
						H107.9z"/>
				</g>
				<g>
					<defs>
						<path id="SVGID_11_" d="M83.2,303.5c1.6-5.6,9.5-6.4,15.5-2.6l0.3,0.8c-2.4,0.8-3.8,2.4-4.1,4.1c-1.2,4.5,3.1,7.1,8.9,7.2
							c4.4,0.1,9.7-1.7,11-5.8c1.2-3.5-0.7-6.5-5.6-7.5L97,297.2c-10.3-2.2-10.6-8.1-9.5-11.3c1.4-4.1,5.1-6.1,9.2-7.5
							c-3.9-3-5.9-8.3-3.9-15.1c3.2-10.9,13.9-16.2,22.5-16.2c5.5,0.1,10.2,2.3,12.8,6c2.3-4.4,6.8-7.5,11.3-5.8l-3.3,8.5
							c-1.7-1-4.2-1.7-6.8-0.4c1,2.8,1.2,6.2,0.1,9.9c-3.4,11.4-15.5,16-23.3,16c-2.6,0-5-0.6-7-1.6c-0.8,0.5-1.1,1-1.3,1.6
							c-0.4,1.4,0.7,2.5,4.5,3.4l12,2.5c11.2,2.4,12.7,10.2,10.4,16.4c-2.9,7.9-11.9,12.4-22.4,12.2
							C92.4,315.9,80.9,311.6,83.2,303.5z M115.1,264.4c1.8-6,3.9-14.4,0.5-14.4c-3.4,0-6.4,7.9-8.3,14.3c-1.9,6.3-4,14.3-0.6,14.3
							C110,278.7,113.1,271.3,115.1,264.4z"/>
					</defs>
					<clipPath id="SVGID_12_">
						<use xlink:href="#SVGID_11_"  style="overflow:visible;"/>
					</clipPath>
					<path class="st15" d="M99.7,309.7h5l-1.6,9.1H90.5l-0.2-4.5c-4.6,4-9.3,5.1-12.7,5.1c-13.1,0-14.8-8-13-18.2l1.7-9.9h-4.6
						l1.5-8.5h14.6l-3.3,18.3c-0.9,5-0.6,8.5,7,8.5c4.9-0.1,8.9-4.2,9.8-9.2l1.6-9.1h-5.4l1.5-8.5h15.4L99.7,309.7z"/>
				</g>
			</g>
		</g>
		<g id="Calque_4_1_">
		</g>
	</g>
	<g id="Calque_3">
	</g>
</g>
<g id="Calque_2_1_">
</g>
</svg>
