<?xml version="1.0" encoding="utf-8"?>
<!-- Generator: Adobe Illustrator 19.0.0, SVG Export Plug-In . SVG Version: 6.00 Build 0)  -->
<svg version="1.1" xmlns="http://www.w3.org/2000/svg" xmlns:xlink="http://www.w3.org/1999/xlink" x="0px" y="0px"
	 viewBox="-185 224 589 114" style="enable-background:new -185 224 589 114;" xml:space="preserve">
<style type="text/css">
	.st0{display:none;}
	.st1{display:inline;}
	.st2{fill:#EBFFAA;}
	.st3{display:inline;fill:#E90052;}
	.st4{font-family:'DentonCondensedTest-BlackItalic';}
	.st5{font-size:93.7594px;}
	.st6{display:inline;fill:#3AF9BA;}
	.st7{font-family:'NexaSlabHeavyOblique';}
	.st8{font-size:72.4382px;}
	.st9{enable-background:new    ;}
	.st10{fill:#E90052;}
	.st11{fill:#3AF9BA;}
</style>
<g id="Calque_1">
	<g id="Sauvegarde" class="st0">
		<g id="Calque_5" class="st1">
			<rect x="-1" y="272.7" class="st2" width="405" height="1.9"/>
			<rect x="-185" y="310.7" class="st2" width="208" height="1.9"/>
		</g>
		<text transform="matrix(1 0 0 1 -182.4058 298.3066)" class="st3 st4 st5">Conclusion</text>
		<text transform="matrix(1 0 0 1 -23.9038 327.8145)" class="st6 st7 st8">Conclusion</text>
	</g>
	<g id="Calque_3">
		<g class="st9">
			<path d="M-173.4,232.4l0.4-1.6h26.2l-0.6,1.6c-2.7,0.8-6.4,2.2-6.6,8.5l-0.9,35.3l16-27.2l0.1-7.7c0.1-6.8-2.3-8.3-4.1-8.9
				l0.5-1.6h26.1l-0.4,1.6c-2.6,0.8-6.7,2.5-6.8,8.9l-1.1,35.1l19.9-35.3c3.7-6.4,1.2-8.1-1.2-8.7l0.4-1.5h15.7l-0.6,1.6
				c-2.6,0.7-7,2-10.9,8.6l-32.3,57.3h-6l0.7-43.5l-25.2,43.5h-6l0.9-57.4C-169.1,234.7-171.5,233-173.4,232.4z"/>
			<path d="M-109,271.5c5.3-14.3,16.3-21.3,26.3-21.3c8.3,0,14.6,4.9,12.4,12.6c-2.4,8.7-13.2,12.4-25.2,13.9
				c-1.5,9.3,1.2,14.6,6.2,14.8c3.3,0.2,8.6-2,13-9.7l1,0.8c-5.6,12.5-14.5,16.9-21.3,16.9C-108.1,299.4-114.9,287.3-109,271.5z
				 M-82,260.2c1-3.3,1.7-7.2-0.8-7.2c-2.8,0-7,5.7-10.1,14.3c-0.9,2.5-1.6,4.9-2.1,7C-87.1,272.3-83.7,265.9-82,260.2z"/>
			<path d="M-70.9,283.6l13.5-42.5c1.7-5.5-1-6.7-2.8-7l0.4-1.5l21-3.2l-17.3,54.7c-1.9,5.8-1.2,8,0,8c1.1,0,3.5-1.7,7.4-8.7l1,0.8
				c-3.7,8.4-9.9,15.3-16.9,15.3C-70.6,299.4-74.3,294.1-70.9,283.6z"/>
			<path d="M-23.3,288.5c-4,7.9-8.5,11-13.3,11c-9.1,0-11.7-11.8-7.1-25.7c5.8-17.3,18.1-24.6,26-23.5c2.9,0.4,4.6,1.7,5.5,3.2
				l4-12.3c1.4-5.6-1-6.7-2.7-7l0.3-1.5l21.2-3.2l-17.7,54.7c-1.8,5.8-1.2,8,0,8s3.7-2.1,7.4-8.7l1,0.8
				c-3.7,8.4-10.1,15.3-17.1,15.3C-21.1,299.4-24.3,295.8-23.3,288.5z M-20.3,277.9l7.2-21.9c-0.6-0.9-1.3-1.3-2.5-1.3
				c-3.4,0-7.2,4.2-11.7,17.8c-3.3,9.9-5.3,18.5-1.8,18.9C-27.5,291.6-24.3,288.9-20.3,277.9z"/>
			<path d="M3.9,283.7l7.5-24.1c1.4-5.6-0.9-6.8-2.7-7.3l0.4-1.5h20.2l-10.4,33.3c-1.9,5.8-1.2,8,0,8c1.1,0,3.5-1.7,7.4-8.7l0.9,0.8
				c-3.7,8.4-9.9,15.3-17,15.3C3.8,299.4,0.7,294,3.9,283.7z M23.9,229.8c4.5,0,8.2,3.8,8.1,8.7c-0.1,4.7-3.7,8.5-8.3,8.5
				c-4.5,0-8.1-3.7-8.1-8.4S19.3,229.8,23.9,229.8z"/>
			<path d="M55.5,283.7l6.2-18.3c2.2-6.5,1.3-7.8,0.2-7.8c-2.4,0-10.5,9.4-16.5,28.1l-3.8,12.6H26.4l11.8-37.8
				c1.8-5.9-0.4-7.7-2.4-8.3l0.5-1.5h19.8L51,267.2c6.8-12.2,13.2-17.1,19.2-17.1c6.3,0,9.8,5.5,7,13.6l-6.8,20.3
				c-1.9,5.8-1.2,8,0,8c1.1,0,3.5-1.7,7.4-8.7l1,0.8c-3.7,8.4-10.1,15.3-17.1,15.3C55.4,299.4,52,294,55.5,283.7z"/>
			<path d="M74.5,306.6c1.6-5.6,9.5-6.4,15.5-2.6l0.3,0.8c-2.4,0.8-3.8,2.4-4.1,4.1c-1.2,4.5,3.1,7.1,8.9,7.2
				c4.4,0.1,9.7-1.7,11-5.8c1.2-3.5-0.7-6.5-5.6-7.5l-12.1-2.5c-10.3-2.2-10.6-8.1-9.5-11.3c1.4-4.1,5.1-6.1,9.2-7.5
				c-3.9-3-5.9-8.3-3.9-15.1c3.2-10.9,13.9-16.2,22.5-16.2c5.5,0.1,10.2,2.3,12.8,6c2.3-4.4,6.8-7.5,11.3-5.8l-3.3,8.5
				c-1.7-1-4.2-1.7-6.8-0.4c1,2.8,1.2,6.2,0.1,9.9c-3.4,11.4-15.5,16-23.3,16c-2.6,0-5-0.6-7-1.6c-0.8,0.5-1.1,1-1.3,1.6
				c-0.4,1.4,0.7,2.5,4.5,3.4l12,2.5c11.2,2.4,12.7,10.2,10.4,16.4c-2.9,7.9-11.9,12.4-22.4,12.2C83.7,318.9,72.2,314.6,74.5,306.6z
				 M106.4,267.5c1.8-6,3.9-14.4,0.5-14.4c-3.4,0-6.4,7.9-8.3,14.3c-1.9,6.3-4,14.3-0.6,14.3C101.4,281.7,104.4,274.3,106.4,267.5z"
				/>
			<path d="M142.1,283.7l7.5-24.1c1.4-5.6-0.9-6.8-2.7-7.3l0.4-1.5h20.2L157,284.1c-1.9,5.8-1.2,8,0,8c1.1,0,3.5-1.7,7.4-8.7
				l0.9,0.8c-3.7,8.4-9.9,15.3-17,15.3C142,299.4,138.9,294,142.1,283.7z M162.1,229.8c4.5,0,8.2,3.8,8.1,8.7
				c-0.1,4.7-3.7,8.5-8.3,8.5c-4.5,0-8.1-3.7-8.1-8.4S157.5,229.8,162.1,229.8z"/>
			<path d="M193.7,283.7l6.2-18.3c2.2-6.5,1.3-7.8,0.2-7.8c-2.4,0-10.5,9.4-16.5,28.1l-3.8,12.6h-15.1l11.8-37.8
				c1.8-5.9-0.4-7.7-2.4-8.3l0.5-1.5h19.8l-5.1,16.4c6.8-12.2,13.2-17.1,19.2-17.1c6.3,0,9.8,5.5,7,13.6l-6.8,20.3
				c-1.9,5.8-1.2,8,0,8c1.1,0,3.5-1.7,7.4-8.7l1,0.8c-3.7,8.4-10.1,15.3-17.1,15.3C193.6,299.4,190.2,294,193.7,283.7z"/>
		</g>
		<g class="st9">
			<path class="st10" d="M-170,232.4l0.4-1.6h26.2l-0.6,1.6c-2.7,0.8-6.4,2.2-6.6,8.5l-0.9,35.3l16-27.2l0.1-7.7
				c0.1-6.8-2.3-8.3-4.1-8.9l0.5-1.6h26.1l-0.4,1.6c-2.6,0.8-6.7,2.5-6.8,8.9l-1.1,35.1l19.9-35.3c3.7-6.4,1.2-8.1-1.2-8.7l0.4-1.5
				h15.7l-0.6,1.6c-2.6,0.7-7,2-10.9,8.6l-32.3,57.3h-6l0.7-43.5l-25.2,43.5h-6l0.9-57.4C-165.8,234.7-168.2,233-170,232.4z"/>
			<path class="st10" d="M-105.6,271.5c5.3-14.3,16.3-21.3,26.3-21.3c8.3,0,14.6,4.9,12.4,12.6c-2.4,8.7-13.2,12.4-25.2,13.9
				c-1.5,9.3,1.2,14.6,6.2,14.8c3.3,0.2,8.6-2,13-9.7l1,0.8c-5.6,12.5-14.5,16.9-21.3,16.9C-104.8,299.4-111.5,287.3-105.6,271.5z
				 M-78.7,260.2c1-3.3,1.7-7.2-0.8-7.2c-2.8,0-7,5.7-10.1,14.3c-0.9,2.5-1.6,4.9-2.1,7C-83.8,272.3-80.4,265.9-78.7,260.2z"/>
			<path class="st10" d="M-67.6,283.6l13.5-42.5c1.7-5.5-1-6.7-2.8-7l0.4-1.5l21-3.2l-17.3,54.7c-1.9,5.8-1.2,8,0,8
				c1.1,0,3.5-1.7,7.4-8.7l1,0.8c-3.7,8.4-9.9,15.3-16.9,15.3C-67.3,299.4-70.9,294.1-67.6,283.6z"/>
			<path class="st10" d="M-19.9,288.5c-4,7.9-8.5,11-13.3,11c-9.1,0-11.7-11.8-7.1-25.7c5.8-17.3,18.1-24.6,26-23.5
				c2.9,0.4,4.6,1.7,5.5,3.2l4-12.3c1.4-5.6-1-6.7-2.7-7l0.3-1.5l21.2-3.2l-17.7,54.7c-1.8,5.8-1.2,8,0,8s3.7-2.1,7.4-8.7l1,0.8
				c-3.7,8.4-10.1,15.3-17.1,15.3C-17.8,299.4-21,295.8-19.9,288.5z M-16.9,277.9l7.2-21.9c-0.6-0.9-1.3-1.3-2.5-1.3
				c-3.4,0-7.2,4.2-11.7,17.8c-3.3,9.9-5.3,18.5-1.8,18.9C-24.1,291.6-21,288.9-16.9,277.9z"/>
			<path class="st10" d="M7.3,283.7l7.5-24.1c1.4-5.6-0.9-6.8-2.7-7.3l0.4-1.5h20.2l-10.4,33.3c-1.9,5.8-1.2,8,0,8
				c1.1,0,3.5-1.7,7.4-8.7l0.9,0.8c-3.7,8.4-9.9,15.3-17,15.3C7.2,299.4,4,294,7.3,283.7z M27.2,229.8c4.5,0,8.2,3.8,8.1,8.7
				c-0.1,4.7-3.7,8.5-8.3,8.5c-4.5,0-8.1-3.7-8.1-8.4S22.6,229.8,27.2,229.8z"/>
			<path class="st10" d="M58.8,283.7l6.2-18.3c2.2-6.5,1.3-7.8,0.2-7.8c-2.4,0-10.5,9.4-16.5,28.1l-3.8,12.6H29.8l11.8-37.8
				c1.8-5.9-0.4-7.7-2.4-8.3l0.5-1.5h19.8l-5.1,16.4c6.8-12.2,13.2-17.1,19.2-17.1c6.3,0,9.8,5.5,7,13.6l-6.8,20.3
				c-1.9,5.8-1.2,8,0,8c1.1,0,3.5-1.7,7.4-8.7l1,0.8c-3.7,8.4-10.1,15.3-17.1,15.3C58.7,299.4,55.4,294,58.8,283.7z"/>
			<path class="st10" d="M77.9,306.6c1.6-5.6,9.5-6.4,15.5-2.6l0.3,0.8c-2.4,0.8-3.8,2.4-4.1,4.1c-1.2,4.5,3.1,7.1,8.9,7.2
				c4.4,0.1,9.7-1.7,11-5.8c1.2-3.5-0.7-6.5-5.6-7.5l-12.1-2.5c-10.3-2.2-10.6-8.1-9.5-11.3c1.4-4.1,5.1-6.1,9.2-7.5
				c-3.9-3-5.9-8.3-3.9-15.1c3.2-10.9,13.9-16.2,22.5-16.2c5.5,0.1,10.2,2.3,12.8,6c2.3-4.4,6.8-7.5,11.3-5.8l-3.3,8.5
				c-1.7-1-4.2-1.7-6.8-0.4c1,2.8,1.2,6.2,0.1,9.9c-3.4,11.4-15.5,16-23.3,16c-2.6,0-5-0.6-7-1.6c-0.8,0.5-1.1,1-1.3,1.6
				c-0.4,1.4,0.7,2.5,4.5,3.4l12,2.5c11.2,2.4,12.7,10.2,10.4,16.4c-2.9,7.9-11.9,12.4-22.4,12.2C87.1,318.9,75.5,314.6,77.9,306.6z
				 M109.7,267.5c1.8-6,3.9-14.4,0.5-14.4c-3.4,0-6.4,7.9-8.3,14.3c-1.9,6.3-4,14.3-0.6,14.3C104.7,281.7,107.8,274.3,109.7,267.5z"
				/>
			<path class="st10" d="M145.5,283.7l7.5-24.1c1.4-5.6-0.9-6.8-2.7-7.3l0.4-1.5h20.2l-10.4,33.3c-1.9,5.8-1.2,8,0,8
				c1.1,0,3.5-1.7,7.4-8.7l0.9,0.8c-3.7,8.4-9.9,15.3-17,15.3C145.4,299.4,142.2,294,145.5,283.7z M165.4,229.8
				c4.5,0,8.2,3.8,8.1,8.7c-0.1,4.7-3.7,8.5-8.3,8.5c-4.5,0-8.1-3.7-8.1-8.4S160.8,229.8,165.4,229.8z"/>
			<path class="st10" d="M197,283.7l6.2-18.3c2.2-6.5,1.3-7.8,0.2-7.8c-2.4,0-10.5,9.4-16.5,28.1l-3.8,12.6H168l11.8-37.8
				c1.8-5.9-0.4-7.7-2.4-8.3l0.5-1.5h19.8l-5.1,16.4c6.8-12.2,13.2-17.1,19.2-17.1c6.3,0,9.8,5.5,7,13.6l-6.8,20.3
				c-1.9,5.8-1.2,8,0,8c1.1,0,3.5-1.7,7.4-8.7l1,0.8c-3.7,8.4-10.1,15.3-17.1,15.3C196.9,299.4,193.6,294,197,283.7z"/>
		</g>
		<g class="st9">
			<path d="M25.6,304H4.1l-3.5,5.7h5.2l-1.7,9.8h-21.2l1.7-9.8h4.5l20.1-31.3H4.5l1.7-9.6h21.2L38,309.7h4.6l-1.7,9.8H19.6l1.7-9.8
				h5.6L25.6,304z M14.5,287.5l-4.6,7.4h13.5l-1.8-7.4l-1.7-9L14.5,287.5z"/>
			<path d="M79,314.8c-4.6,3.8-11.4,5.6-16.7,5.6c-12,0-16.9-6.8-16.9-15.6c0-13.3,9.6-22.4,23-22.4c11.3,0,18.4,6.3,13.4,22.5H55.5
				c-0.1,3.6,2,6.3,8.7,6.3c2.9,0,7.2-1.1,10.1-3.1L79,314.8z M74,297.4c0.9-4.4-2.5-6.2-7-6.2c-4.6,0-8.7,2-10.3,6.2H74z"/>
			<path d="M94.4,292.2h-4.6l1.6-8.8h13.3l0.3,3.4c3.3-3.1,7-4.3,10.9-4.3c3.2,0,6.8,1,9.1,3.5l-6.2,8.6c-1.5-1.5-3.9-2.2-6.3-2.2
				c-4,0-8.3,2.2-9.4,8.5l-1.7,9.9h5l-1.5,8.7H84.1l1.5-8.7h5.5L94.4,292.2z"/>
			<path d="M145.7,282.6c10.6,0,16.2,6.4,16.2,15.5c0,12-8.9,22.2-22.8,22.2c-10.4,0-16.1-6.5-16.1-15.5
				C123.1,292.3,132.5,282.6,145.7,282.6z M144.7,291.7c-7.2,0-11.3,5.4-11.4,11.7c-0.1,4.1,2,7.6,7.2,7.6c6.3,0,9.9-4.3,11.2-9.3
				C152.8,295.9,150.2,291.7,144.7,291.7z"/>
			<path d="M189.8,295l0.3-4.1c-0.9-0.6-3.3-1-5.4-1c-3.3,0-6.5,1.2-6.5,4.3c0,2.2,3.2,2.5,5.2,2.7c8.8,0.5,15.4,3.5,14.1,12.6
				c-1.4,7-7,11.3-18,11.3c-5.6,0-11-1.1-15.4-4.2l2-9.9h8.5l-0.3,4c1.1,0.7,3.6,1.2,6.2,1.3c3.5,0.1,7-0.7,7-3.5c0-1.7-2-3-6.3-3.2
				c-8.3-1-14.6-4.1-13.1-11.9c1.4-8,10.4-11.2,18.3-11.2c4.7,0,9.6,1,13.5,3L198,295H189.8z"/>
			<path d="M204.6,292.2l1.5-8.8h14.3l-0.3,5.4c3.6-3.5,7.9-5.8,13.5-5.8c9.2,0,14.5,5.5,14.5,14.8c0,13.8-8.5,22.7-22.5,22.7
				c-3.6,0-7.7-1.2-10.4-4.8l-2,11h5.2l-1.6,9.1h-19.4l1.6-9.1h4.5l6.1-34.5H204.6z M237.2,300.1c0-4.6-2.7-7.2-7.5-7.2
				c-6.9,0-10.9,5.7-10.9,10.8c0,3.8,2.2,7.8,7.3,7.8C232.7,311.4,237.2,306.8,237.2,300.1z"/>
			<path d="M295.5,310.7l-1.6,8.8h-13.7l0.1-4.1c-5.5,4.7-8.8,5-14.1,5c-8.8,0-14.2-6.1-14.2-15.4c0-11.5,8.3-21.7,21.2-22.3
				c5,0,9.2,0.6,12,4.6l1.1-3.7H300l-1.6,9h-4.6l-3.2,18.2H295.5z M262.4,303.6c0,4.6,2.7,8,7.9,8c6.3,0,11.2-4.2,12.2-9.6
				c1-5.6-1.9-9.9-8.2-9.9C267.7,292.1,262.4,297.4,262.4,303.6z"/>
			<path d="M334.5,314.6c-4.8,4.3-10.1,5.8-15.5,5.8c-9.8,0-17-5.2-17-15.6c0-16.7,13.3-22.1,23.5-22.1c4.9,0,9.1,0.9,12.5,3
				l-2.5,11.2h-8.7l0.9-4.8c-1.3-0.4-3-0.5-3.8-0.5c-8.3,0-11.5,6.2-11.5,11.7c0,5.1,3.3,7.6,8.6,7.6c2.6,0,5.7-0.7,8.8-3.1
				L334.5,314.6z"/>
			<path d="M373.3,314.8c-4.6,3.8-11.4,5.6-16.7,5.6c-12,0-16.9-6.8-16.9-15.6c0-13.3,9.6-22.4,23-22.4c11.3,0,18.4,6.3,13.4,22.5
				h-26.4c-0.1,3.6,2,6.3,8.7,6.3c2.9,0,7.2-1.1,10.1-3.1L373.3,314.8z M368.3,297.4c0.9-4.4-2.5-6.2-7-6.2c-4.6,0-8.7,2-10.3,6.2
				H368.3z"/>
		</g>
		<g class="st9">
			<path class="st11" d="M31.1,304H9.6l-3.5,5.7h5.2l-1.7,9.8h-21.2l1.7-9.8h4.5l20.1-31.3H10l1.7-9.6h21.2l10.6,40.9h4.6l-1.7,9.8
				H25.1l1.7-9.8h5.6L31.1,304z M20,287.5l-4.6,7.4h13.5l-1.8-7.4l-1.7-9L20,287.5z"/>
			<path class="st11" d="M84.5,314.8c-4.6,3.8-11.4,5.6-16.7,5.6c-12,0-16.9-6.8-16.9-15.6c0-13.3,9.6-22.4,23-22.4
				c11.3,0,18.4,6.3,13.4,22.5H61c-0.1,3.6,2,6.3,8.7,6.3c2.9,0,7.2-1.1,10.1-3.1L84.5,314.8z M79.5,297.4c0.9-4.4-2.5-6.2-7-6.2
				c-4.6,0-8.7,2-10.3,6.2H79.5z"/>
			<path class="st11" d="M99.9,292.2h-4.6l1.6-8.8h13.3l0.3,3.4c3.3-3.1,7-4.3,10.9-4.3c3.2,0,6.8,1,9.1,3.5l-6.2,8.6
				c-1.5-1.5-3.9-2.2-6.3-2.2c-4,0-8.3,2.2-9.4,8.5l-1.7,9.9h5l-1.5,8.7H89.6l1.5-8.7h5.5L99.9,292.2z"/>
			<path class="st11" d="M151.2,282.6c10.6,0,16.2,6.4,16.2,15.5c0,12-8.9,22.2-22.8,22.2c-10.4,0-16.1-6.5-16.1-15.5
				C128.6,292.3,138,282.6,151.2,282.6z M150.2,291.7c-7.2,0-11.3,5.4-11.4,11.7c-0.1,4.1,2,7.6,7.2,7.6c6.3,0,9.9-4.3,11.2-9.3
				C158.3,295.9,155.7,291.7,150.2,291.7z"/>
			<path class="st11" d="M195.3,295l0.3-4.1c-0.9-0.6-3.3-1-5.4-1c-3.3,0-6.5,1.2-6.5,4.3c0,2.2,3.2,2.5,5.2,2.7
				c8.8,0.5,15.4,3.5,14.1,12.6c-1.4,7-7,11.3-18,11.3c-5.6,0-11-1.1-15.4-4.2l2-9.9h8.5l-0.3,4c1.1,0.7,3.6,1.2,6.2,1.3
				c3.5,0.1,7-0.7,7-3.5c0-1.7-2-3-6.3-3.2c-8.3-1-14.6-4.1-13.1-11.9c1.4-8,10.4-11.2,18.3-11.2c4.7,0,9.6,1,13.5,3l-1.9,9.9H195.3
				z"/>
			<path class="st11" d="M210.1,292.2l1.5-8.8h14.3l-0.3,5.4c3.6-3.5,7.9-5.8,13.5-5.8c9.2,0,14.5,5.5,14.5,14.8
				c0,13.8-8.5,22.7-22.5,22.7c-3.6,0-7.7-1.2-10.4-4.8l-2,11h5.2l-1.6,9.1h-19.4l1.6-9.1h4.5l6.1-34.5H210.1z M242.7,300.1
				c0-4.6-2.7-7.2-7.5-7.2c-6.9,0-10.9,5.7-10.9,10.8c0,3.8,2.2,7.8,7.3,7.8C238.2,311.4,242.7,306.8,242.7,300.1z"/>
			<path class="st11" d="M301,310.7l-1.6,8.8h-13.7l0.1-4.1c-5.5,4.7-8.8,5-14.1,5c-8.8,0-14.2-6.1-14.2-15.4
				c0-11.5,8.3-21.7,21.2-22.3c5,0,9.2,0.6,12,4.6l1.1-3.7h13.6l-1.6,9h-4.6l-3.2,18.2H301z M267.9,303.6c0,4.6,2.7,8,7.9,8
				c6.3,0,11.2-4.2,12.2-9.6c1-5.6-1.9-9.9-8.2-9.9C273.2,292.1,267.9,297.4,267.9,303.6z"/>
			<path class="st11" d="M340,314.6c-4.8,4.3-10.1,5.8-15.5,5.8c-9.8,0-17-5.2-17-15.6c0-16.7,13.3-22.1,23.5-22.1
				c4.9,0,9.1,0.9,12.5,3l-2.5,11.2h-8.7l0.9-4.8c-1.3-0.4-3-0.5-3.8-0.5c-8.3,0-11.5,6.2-11.5,11.7c0,5.1,3.3,7.6,8.6,7.6
				c2.6,0,5.7-0.7,8.8-3.1L340,314.6z"/>
			<path class="st11" d="M378.8,314.8c-4.6,3.8-11.4,5.6-16.7,5.6c-12,0-16.9-6.8-16.9-15.6c0-13.3,9.6-22.4,23-22.4
				c11.3,0,18.4,6.3,13.4,22.5h-26.4c-0.1,3.6,2,6.3,8.7,6.3c2.9,0,7.2-1.1,10.1-3.1L378.8,314.8z M373.8,297.4
				c0.9-4.4-2.5-6.2-7-6.2c-4.6,0-8.7,2-10.3,6.2H373.8z"/>
		</g>
	</g>
	<g id="Calque_4">
	</g>
</g>
<g id="Calque_2">
</g>
</svg>
