<?xml version="1.0" encoding="utf-8"?>
<!-- Generator: Adobe Illustrator 19.0.0, SVG Export Plug-In . SVG Version: 6.00 Build 0)  -->
<svg version="1.1" id="Calque_1" xmlns="http://www.w3.org/2000/svg" xmlns:xlink="http://www.w3.org/1999/xlink" x="0px" y="0px"
	 viewBox="-11 340 589 114" style="enable-background:new -11 340 589 114;" xml:space="preserve">
<style type="text/css">
	.st0{display:none;}
	.st1{display:inline;}
	.st2{fill:#EBFFAA;}
	.st3{display:inline;fill:#E90052;}
	.st4{font-family:'DentonCondensedTest-BlackItalic';}
	.st5{font-size:90.7667px;}
	.st6{display:inline;fill:#3AF9BA;}
	.st7{font-family:'NexaSlabHeavyOblique';}
	.st8{font-size:70.1261px;}
	.st9{enable-background:new    ;}
	.st10{fill:#E90052;}
	.st11{fill:#3AF9BA;}
	.st12{clip-path:url(#SVGID_2_);fill:#231F20;}
	.st13{clip-path:url(#SVGID_4_);fill:#231F20;}
</style>
<g id="Sauvegarde" class="st0">
	<g id="Calque_5" class="st1">
		<rect x="175.2" y="382" class="st2" width="392.1" height="1.8"/>
		<rect x="-2.9" y="418.7" class="st2" width="201.4" height="1.8"/>
	</g>
	<text transform="matrix(1 0 0 1 -0.3883 406.7443)" class="st3 st4 st5">Conclusion</text>
	<text transform="matrix(1 0 0 1 153.0542 435.3096)" class="st6 st7 st8">Conclusion</text>
</g>
<g id="Sauvegarde_2_">
	<g id="Calque_5_2_">
		<rect x="286.2" y="382" class="st2" width="281.1" height="1.8"/>
		<rect x="-2.9" y="418.7" class="st2" width="262.6" height="1.8"/>
	</g>
	<g class="st9">
		<path class="st10" d="M11.6,342.9l0.4-1.5h25.3l-0.5,1.5c-2.6,0.7-6.2,2.1-6.4,8.3l-0.9,34.1L45,359l0.1-7.4
			c0.1-6.5-2.3-8.1-4-8.6l0.5-1.5h25.2l-0.4,1.5c-2.5,0.7-6.4,2.5-6.5,8.6l-1.1,33.9L78,351.3c3.5-6.2,1.2-7.8-1.2-8.4l0.4-1.5h15.2
			l-0.5,1.5c-2.5,0.6-6.8,1.9-10.5,8.3l-31.2,55.5h-5.8l0.6-42.1l-24.4,42.1h-5.8l0.9-55.5C15.7,345.2,13.4,343.5,11.6,342.9z"/>
		<path class="st10" d="M73.9,380.8c5.1-13.9,15.8-20.6,25.5-20.6c8,0,14.2,4.7,12,12.2c-2.4,8.4-12.8,12-24.4,13.4
			c-1.5,9,1.2,14.2,6,14.3c3.2,0.2,8.3-1.9,12.6-9.3l1,0.7c-5.4,12.1-14.1,16.3-20.6,16.3C74.8,407.8,68.2,396.1,73.9,380.8z
			 M100,369.9c1-3.2,1.6-7-0.8-7c-2.7,0-6.8,5.5-9.8,13.8c-0.9,2.5-1.5,4.7-2,6.8C95.1,381.6,98.4,375.3,100,369.9z"/>
		<path class="st10" d="M110.8,392.5l13.1-41.1c1.6-5.4-1-6.4-2.7-6.8l0.4-1.5l20.3-3.1l-16.7,52.9c-1.8,5.6-1.2,7.7,0,7.7
			c1.1,0,3.4-1.6,7.2-8.4l1,0.8c-3.5,8.2-9.6,14.8-16.3,14.8C111.1,407.8,107.5,402.7,110.8,392.5z"/>
		<path class="st10" d="M156.9,397.2c-3.9,7.6-8.3,10.6-12.9,10.6c-8.8,0-11.3-11.4-6.9-24.9c5.6-16.7,17.5-23.8,25.1-22.8
			c2.8,0.4,4.4,1.6,5.4,3.1l3.9-11.9c1.4-5.4-1-6.4-2.6-6.8l0.3-1.5l20.5-3.1l-17.2,52.9c-1.7,5.6-1.2,7.7,0,7.7
			c1.2,0,3.5-2,7.2-8.4l1,0.8c-3.5,8.2-9.8,14.8-16.5,14.8C159,407.8,155.9,404.3,156.9,397.2z M159.8,387l7-21.2
			c-0.5-0.9-1.3-1.3-2.5-1.3c-3.3,0-7,4.1-11.3,17.2c-3.2,9.6-5.1,17.9-1.7,18.3C152.8,400.2,155.9,397.7,159.8,387z"/>
		<path class="st10" d="M183.2,392.6l7.3-23.3c1.4-5.4-0.9-6.5-2.6-7.1l0.4-1.5h19.5l-10.1,32.2c-1.8,5.6-1.2,7.7,0,7.7
			c1.1,0,3.4-1.6,7.2-8.4l0.9,0.8c-3.5,8.2-9.6,14.8-16.4,14.8C183.1,407.8,180.1,402.6,183.2,392.6z M202.6,340.4
			c4.4,0,7.9,3.7,7.8,8.4c-0.1,4.5-3.5,8.3-8.1,8.3c-4.4,0-7.8-3.5-7.8-8.2C194.5,344.3,198.1,340.4,202.6,340.4z"/>
		<path class="st10" d="M233.2,392.6l6-17.7c2.1-6.3,1.3-7.5,0.2-7.5c-2.4,0-10.2,9.1-16,27.2l-3.7,12.2H205l11.4-36.6
			c1.7-5.7-0.4-7.4-2.4-8l0.5-1.5h19.1l-4.9,15.9c6.5-11.8,12.8-16.5,18.6-16.5c6.1,0,9.4,5.4,6.8,13.2l-6.5,19.7
			c-1.8,5.6-1.2,7.7,0,7.7c1.1,0,3.4-1.6,7.2-8.4l1,0.8c-3.5,8.2-9.8,14.8-16.5,14.8C233.1,407.8,229.8,402.6,233.2,392.6z"/>
		<path class="st10" d="M251.6,414.7c1.5-5.4,9.2-6.2,15-2.5l0.3,0.8c-2.4,0.8-3.6,2.4-4,4c-1.2,4.4,3,6.9,8.6,7
			c4.3,0.1,9.3-1.6,10.6-5.6c1.2-3.4-0.6-6.3-5.4-7.3l-11.7-2.5c-10-2.1-10.3-7.8-9.2-10.9c1.4-4,4.9-5.9,8.9-7.3
			c-3.8-2.9-5.7-8.1-3.8-14.6c3.1-10.5,13.4-15.7,21.8-15.7c5.4,0.1,9.9,2.2,12.3,5.8c2.3-4.3,6.5-7.3,11-5.6l-3.2,8.3
			c-1.6-1-4.1-1.6-6.6-0.4c1,2.7,1.2,6,0.1,9.6c-3.3,11.1-15,15.5-22.5,15.5c-2.5,0-4.8-0.5-6.8-1.5c-0.7,0.5-1.1,1-1.3,1.5
			c-0.4,1.4,0.6,2.5,4.4,3.3l11.6,2.5c10.8,2.4,12.3,9.9,10.1,15.9c-2.8,7.6-11.5,12-21.7,11.8C260.5,426.7,249.3,422.5,251.6,414.7
			z M282.4,376.9c1.7-5.8,3.8-14,0.5-14c-3.3,0-6.2,7.6-8,13.9c-1.8,6.1-3.9,13.9-0.5,13.9C277.5,390.7,280.5,383.5,282.4,376.9z"/>
	</g>
	<g class="st9">
		<path class="st11" d="M271.6,425.8l-1.7,9.5h-21.6l1.7-9.5h5.6l5.3-30.2h-5.4l1.6-9.5h21.3l-1.6,9.5h-5.6l-5.3,30.2H271.6z"/>
		<path class="st11" d="M291.9,426.6h5.1l-1.5,8.7h-19.8l1.5-8.7h5.1l3.1-17.7h-4.8l1.5-8.5h13.5l0.1,3.6c3.8-3.2,7.8-4,10.5-4
			c9.5,0,14,4.5,11.9,16.9l-1.7,9.7h5l-1.5,8.7h-18.6l1.5-8.7h3.9l1.7-9.6c0.6-3.7,0.8-7.9-5.4-7.9c-4.8-0.1-8.5,3.2-9.4,8.5
			L291.9,426.6z"/>
		<path class="st11" d="M376.6,420.3h-20.8l-3.4,5.5h5l-1.7,9.5h-20.5l1.7-9.5h4.3l19.4-30.3h-4.6l1.6-9.3h20.5l10.3,39.6h4.5
			l-1.7,9.5h-20.5l1.7-9.5h5.4L376.6,420.3z M365.8,404.3l-4.5,7.2h13l-1.8-7.2l-1.7-8.7L365.8,404.3z"/>
		<path class="st11" d="M403.8,408.9h-4.5l1.5-8.5h12.8l0.3,3.3c3.2-3,6.8-4.2,10.5-4.2c3.1,0,6.6,1,8.8,3.4l-6,8.3
			c-1.5-1.5-3.8-2.2-6.1-2.2c-3.9,0-8.1,2.2-9.1,8.3l-1.7,9.5h4.8l-1.5,8.4h-19.9l1.5-8.4h5.3L403.8,408.9z"/>
		<path class="st11" d="M451.5,391.2l-1.7,9.6h9l-1.5,8.3h-9.1l-2.4,13.6c-0.7,4.3,2.9,5.3,7.4,3.6l0.8,8.1
			c-3.6,1.3-5.5,1.5-8.6,1.5c-6.3-0.1-10.9-3.7-9.2-13.1l2.4-13.6h-6l1.5-8.3h6l1.5-8.6L451.5,391.2z"/>
	</g>
</g>
<g id="Calque_2">
	<g>
		<defs>
			<path id="SVGID_1_" d="M251.6,414.7c1.5-5.4,9.2-6.2,15-2.5l0.3,0.8c-2.4,0.8-3.6,2.4-4,4c-1.2,4.4,3,6.9,8.6,7
				c4.3,0.1,9.3-1.6,10.6-5.6c1.2-3.4-0.6-6.3-5.4-7.3l-11.7-2.5c-10-2.1-10.3-7.8-9.2-10.9c1.4-4,4.9-5.9,8.9-7.3
				c-3.8-2.9-5.7-8.1-3.8-14.6c3.1-10.5,13.4-15.7,21.8-15.7c5.4,0.1,9.9,2.2,12.3,5.8c2.3-4.3,6.5-7.3,11-5.6l-3.2,8.3
				c-1.6-1-4.1-1.6-6.6-0.4c1,2.7,1.2,6,0.1,9.6c-3.3,11.1-15,15.5-22.5,15.5c-2.5,0-4.8-0.5-6.8-1.5c-0.7,0.5-1.1,1-1.3,1.5
				c-0.4,1.4,0.6,2.5,4.4,3.3l11.6,2.5c10.8,2.4,12.3,9.9,10.1,15.9c-2.8,7.6-11.5,12-21.7,11.8
				C260.5,426.7,249.3,422.5,251.6,414.7z M282.4,376.9c1.7-5.8,3.8-14,0.5-14c-3.3,0-6.2,7.6-8,13.9c-1.8,6.1-3.9,13.9-0.5,13.9
				C277.5,390.7,280.5,383.5,282.4,376.9z"/>
		</defs>
		<clipPath id="SVGID_2_">
			<use xlink:href="#SVGID_1_"  style="overflow:visible;"/>
		</clipPath>
		<path class="st12" d="M271.6,425.8l-1.7,9.5h-21.6l1.7-9.5h5.6l5.3-30.2h-5.4l1.6-9.5h21.3l-1.6,9.5h-5.6l-5.3,30.2H271.6z"/>
	</g>
	<g>
		<defs>
			<path id="SVGID_3_" d="M251.6,414.7c1.5-5.4,9.2-6.2,15-2.5l0.3,0.8c-2.4,0.8-3.6,2.4-4,4c-1.2,4.4,3,6.9,8.6,7
				c4.3,0.1,9.3-1.6,10.6-5.6c1.2-3.4-0.6-6.3-5.4-7.3l-11.7-2.5c-10-2.1-10.3-7.8-9.2-10.9c1.4-4,4.9-5.9,8.9-7.3
				c-3.8-2.9-5.7-8.1-3.8-14.6c3.1-10.5,13.4-15.7,21.8-15.7c5.4,0.1,9.9,2.2,12.3,5.8c2.3-4.3,6.5-7.3,11-5.6l-3.2,8.3
				c-1.6-1-4.1-1.6-6.6-0.4c1,2.7,1.2,6,0.1,9.6c-3.3,11.1-15,15.5-22.5,15.5c-2.5,0-4.8-0.5-6.8-1.5c-0.7,0.5-1.1,1-1.3,1.5
				c-0.4,1.4,0.6,2.5,4.4,3.3l11.6,2.5c10.8,2.4,12.3,9.9,10.1,15.9c-2.8,7.6-11.5,12-21.7,11.8
				C260.5,426.7,249.3,422.5,251.6,414.7z M282.4,376.9c1.7-5.8,3.8-14,0.5-14c-3.3,0-6.2,7.6-8,13.9c-1.8,6.1-3.9,13.9-0.5,13.9
				C277.5,390.7,280.5,383.5,282.4,376.9z"/>
		</defs>
		<clipPath id="SVGID_4_">
			<use xlink:href="#SVGID_3_"  style="overflow:visible;"/>
		</clipPath>
		<path class="st13" d="M291.9,426.6h5.1l-1.5,8.7h-19.8l1.5-8.7h5.1l3.1-17.7h-4.8l1.5-8.5h13.5l0.1,3.6c3.8-3.2,7.8-4,10.5-4
			c9.5,0,14,4.5,11.9,16.9l-1.7,9.7h5l-1.5,8.7h-18.6l1.5-8.7h3.9l1.7-9.6c0.6-3.7,0.8-7.9-5.4-7.9c-4.8-0.1-8.5,3.2-9.4,8.5
			L291.9,426.6z"/>
	</g>
</g>
</svg>
