<?xml version="1.0" encoding="utf-8"?>
<!-- Generator: Adobe Illustrator 19.0.0, SVG Export Plug-In . SVG Version: 6.00 Build 0)  -->
<svg version="1.1" xmlns="http://www.w3.org/2000/svg" xmlns:xlink="http://www.w3.org/1999/xlink" x="0px" y="0px"
	 viewBox="-11 340 589 114" style="enable-background:new -11 340 589 114;" xml:space="preserve">
<style type="text/css">
	.st0{display:none;}
	.st1{display:inline;}
	.st2{fill:#EBFFAA;}
	.st3{fill:#3AF9BA;}
	.st4{fill:#E90052;}
	.st5{clip-path:url(#SVGID_2_);}
	.st6{display:none;fill:#E90052;}
	.st7{font-family:'DentonCondensedTest-BlackItalic';}
	.st8{font-size:70.1261px;}
	.st9{font-family:'NexaSlabHeavyOblique';}
	.st10{display:inline;enable-background:new    ;}
	.st11{clip-path:url(#SVGID_4_);fill:#231F20;}
	.st12{clip-path:url(#SVGID_6_);fill:#231F20;}
	.st13{clip-path:url(#SVGID_8_);}
	.st14{enable-background:new    ;}
	.st15{clip-path:url(#SVGID_10_);fill:#231F20;}
	.st16{clip-path:url(#SVGID_12_);fill:#231F20;}
</style>
<g id="Calque_1" class="st0">
	<g id="Calque_1_3_" class="st1">
		<g id="Calque_1_2_" class="st0">
			<g id="Calque_1_1_" class="st1">
				<g id="XMLID_783_">
					<g id="XMLID_849_">
						<path id="XMLID_850_" class="st2" d="M433,1474.2c1.8-3.6,5.7-3.7,8.4-2.3c2.8,1.4,4.9,4.5,3,8.2c-1.8,3.6-5.7,3.9-8.4,2.5
							C433.1,1481.1,431,1477.9,433,1474.2z M435.4,1442c4.8-9.1,15.6-9.5,25.4-4.4c8.9,4.6,15.1,13.9,9.9,23.3
							c-4.7,9.1-14.5,5.5-18.7,6.6c-1.6,0.5-2.9,0.7-4.3,3.7l-9.3-4.8c4.1-8,8.5-8,13.8-7.7c4.1,0.2,7.8,0.1,9.3-2.8
							c2.6-4.9-1.7-8.2-5.4-10.2c-6.3-3.3-10-2-11.6,1L435.4,1442z"/>
					</g>
				</g>
				<g id="XMLID_634_">
					<path id="XMLID_744_" class="st3" d="M167.1,1441.2v-1.2h24.5v1.2c-1.7,0.5-5.5,1.2-3.8,6.7l8.4,25.6l7.4-20l-1.7-5.5
						c-1.6-5-4.3-6.1-6.2-6.7v-1.2h24.6v1.2c-2.2,0.6-5.4,1.4-3.8,6.7l8.1,25.6l9.1-25.6c1.7-4.7-1.2-6.1-3.6-6.6v-1.2h14.5v1.2
						c-2.6,0.6-6.1,1.6-7.8,6.6l-15.3,43h-5.7l-10.8-33.3l-12.1,33.3h-5.7l-14-43C171.6,1442.9,169,1441.9,167.1,1441.2z"/>
					<path id="XMLID_746_" class="st3" d="M235,1473c0-11.9,7-18.6,17.8-18.6c12.7,0,17.2,9.8,17,18.1h-21.1
						c0.7,9.2,5.2,12.6,10,12.6c3.2,0,6.5-1.4,9.9-4.9l1,0.2c-1.4,4.5-7,11.5-16.3,11.5C244.8,1491.8,235,1486.2,235,1473z
						 M256.9,1470c0.1-4.4-0.2-13-4-13c-4,0-4.2,9.6-4.2,13H256.9z"/>
					<path id="XMLID_749_" class="st3" d="M273.7,1483.6v-35.4c0-4.8-2.9-5.3-4.6-5.5l-0.1-1.1l18.1-2.9v45c0,4.8,2.9,5.8,4.6,6.3
						v1.1h-22.5v-1.3C270.9,1489.3,273.7,1488.4,273.7,1483.6z"/>
					<path id="XMLID_751_" class="st3" d="M314,1486.8c-2.2,2.6-5.5,4.5-9.8,4.5c-7,0-13.5-5.3-13.5-18.1c0-12.8,7.7-19.2,16.5-19.2
						c2.2,0,4.4,0.4,6.5,1.2v-7.2c0-4.8-2.9-5.3-4.6-5.5l-0.1-1.1l18.3-2.9v45c0,4.8,2.9,5.8,4.6,6.3v1.1h-14.5
						C315.5,1489.7,314.4,1488.4,314,1486.8z M310.5,1485.8c1.2,0,2.4-0.6,3.3-1.5v-17.6c0-6.1-0.8-9.8-4.1-9.8
						c-2.7,0-4.9,2.5-4.9,11.8C304.8,1478.6,305.9,1485.8,310.5,1485.8z"/>
					<path id="XMLID_760_" class="st3" d="M336,1483.6v-21.4c0-4.8-2.9-5.8-4.6-6.3v-1.1h17.8v28.7c0,4.8,2.9,5.8,4.6,6.3v1.1h-22.4
						v-1.1C333.2,1489.3,336,1488.4,336,1483.6z M341.5,1436.7c4,0,7.4,3.2,7.4,7.2s-3.4,7.2-7.4,7.2c-3.9,0-7.4-3.2-7.4-7.2
						S337.4,1436.7,341.5,1436.7z"/>
					<path id="XMLID_763_" class="st3" d="M380.1,1483.6v-15.5c0-4.2-2-5.5-4.4-5.5c-1.7-0.1-3.4,0.5-4.8,1.2v19.8
						c0,4.8,2.2,5.8,3.5,6.3v1.1H353v-1.2c1.7-0.5,4.6-1.4,4.6-6.3v-21.4c0-4.8-2.9-5.8-4.6-6.3v-1h17.9v6.6c1.5-3.4,5.2-7,11.1-7
						c6.3,0,11.4,4.2,11.4,11.7v17.4c0,4.8,2.9,5.8,4.6,6.3v1.1h-21.4v-1.1C377.9,1489.3,380.1,1488.4,380.1,1483.6z"/>
					<path id="XMLID_765_" class="st3" d="M398.5,1499.6c0-3.3,3.2-5.3,6.3-6c-5.5-1.7-6.5-5.2-6.5-7.3c0-3.9,3.3-6.8,8.3-8.3
						c-4.1-2.2-7.2-5.8-7.2-10.8c0-8.7,8.8-12.8,16.4-12.8c2.9,0,6.1,0.6,8.8,2c2-5.3,7.2-7.3,11.6-6.3l-1.1,8h-0.5
						c-2.6-1.6-5.1-1.7-7.8-0.5c3.3,2.2,5.5,5.3,5.5,9.7c0,8.7-9,13-16.6,13c-2.4,0-4.7-0.4-7.1-1.2c-1.2,0.8-2.2,1.7-2.2,2.8
						c0,1.6,2.4,2.4,6.5,2.5l10.8,0.1c6.2,0.1,11.3,3.8,11.3,10.2c0,8-7.7,12.5-19.6,12.5C408.6,1507,398.5,1505.6,398.5,1499.6z
						 M418,1504c5.7,0,9.7-2.2,9.7-5.4c0-2.9-3.1-3.7-6.8-3.7l-8.7-0.1c-1.4,0-2.8-0.1-4-0.3c-1,0.8-1.2,2.1-1.2,2.9
						C406.8,1501.1,411.3,1504,418,1504z M415.7,1477.7c3.1,0,3.6-6.3,3.6-10.4c0-4.2-0.5-10.4-3.6-10.4s-3.5,6.3-3.5,10.4
						C412.1,1471.3,412.6,1477.7,415.7,1477.7z"/>
				</g>
				<g>
					<path class="st4" d="M115.9,1439.2l-3.3,18.8H101l0.8-7.2h-4.6l-4.6,26.1h5.7l-1.9,10.8H71.1l1.9-10.8h5.8l4.6-26.1h-4.7
						L77,1458H65.4l3.3-18.8H115.9L115.9,1439.2z"/>
					<path class="st4" d="M118.6,1462.9h-4.8l1.7-9.5H133l-3.7,21.1c-0.7,4.2,2,4,5.1,3.4l-1.7,9.4c-11.4,3.1-18.7,0.8-16.3-12.6
						L118.6,1462.9z M129.7,1437.3c3.1,0,6,1.9,6,5.6c0,4.9-4.5,7.6-8.3,7.6c-3.4,0-6.3-1.9-6.3-5.6
						C121.1,1440,125.5,1437.3,129.7,1437.3z"/>
					<path class="st4" d="M183.7,1462.7H179l-4.4,24.8c-2.1,11.8-9.9,17.4-21.9,17.4c-10.7,0-18.2-4.6-16.9-14.7l12.7,0.1
						c0,2.9,2.4,4.2,5.4,4.2c4.2,0,7.4-2.6,8.2-6.7l0.8-4.5c-3.4,3.7-8.5,4.6-12.3,4.4c-8.5-0.5-13-5.9-13-13.9
						c0-11.9,8.7-21.2,20.2-21.2c4.9,0,8.1,1.7,9.3,4.4l1.3-3.7c5.6,0,11.1,0,16.7,0L183.7,1462.7z M150.7,1471.7c0,3.7,2.4,6,5.7,6
						c4.9,0,8.6-4,8.6-8.7c0-3.7-2-6-6-6C154.7,1462.9,150.7,1466.2,150.7,1471.7z"/>
				</g>
			</g>
			<g id="Calque_2" class="st1">
				<g>
					<g>
						<g>
							<g>
								<defs>
									<path id="SVGID_1_" d="M167.1,1441.2v-1.2h24.5v1.2c-1.7,0.5-5.5,1.2-3.8,6.7l8.4,25.6l7.4-20l-1.7-5.5
										c-1.6-5-4.3-6.1-6.2-6.7v-1.2h24.6v1.2c-2.2,0.6-5.4,1.4-3.8,6.7l8.1,25.6l9.1-25.6c1.7-4.7-1.2-6.1-3.6-6.6v-1.2h14.5v1.2
										c-2.6,0.6-6.1,1.6-7.8,6.6l-15.3,43h-5.7l-10.8-33.3l-12.1,33.3h-5.7l-14-43C171.6,1442.9,169,1441.9,167.1,1441.2z"/>
								</defs>
								<clipPath id="SVGID_2_">
									<use xlink:href="#SVGID_1_"  style="overflow:visible;"/>
								</clipPath>
								<path class="st5" d="M183.7,1462.7H179l-4.4,24.8c-2.1,11.8-9.9,17.4-21.9,17.4c-10.7,0-18.2-4.6-16.9-14.7l12.7,0.1
									c0,2.9,2.4,4.2,5.4,4.2c4.2,0,7.4-2.6,8.2-6.7l0.8-4.5c-3.4,3.7-8.5,4.6-12.3,4.4c-8.5-0.5-13-5.9-13-13.9
									c0-11.9,8.7-21.2,20.2-21.2c4.9,0,8.1,1.7,9.3,4.4l1.3-3.7c5.6,0,11.1,0,16.7,0L183.7,1462.7z M150.7,1471.7
									c0,3.7,2.4,6,5.7,6c4.9,0,8.6-4,8.6-8.7c0-3.7-2-6-6-6C154.7,1462.9,150.7,1466.2,150.7,1471.7z"/>
							</g>
						</g>
					</g>
				</g>
			</g>
		</g>
		<g id="Calque_3">
			<path class="st6" d="M225.6,1119.1l5.3-15.7c1.9-5.6,1.1-6.7,0.2-6.7c-2.1,0-9,8.1-14.2,24.2l-3.3,10.8h-13l10.2-32.5
				c1.5-5.1-0.3-6.6-2.1-7.1l0.4-1.3h17l-4.4,14.1c5.8-10.5,11.4-14.7,16.5-14.7c5.4,0,8.4,4.8,6,11.7l-5.8,17.5c-1.6,5-1,6.9,0,6.9
				s3-1.5,6.4-7.5l0.9,0.7c-3.1,7.3-8.7,13.1-14.7,13.1C225.5,1132.7,222.6,1128,225.6,1119.1z"/>
		</g>
	</g>
	<g id="Sauvegarde" class="st1">
		<g id="Calque_5">
			<rect x="210" y="379.5" class="st2" width="360.1" height="1.8"/>
			<rect x="-4.6" y="420.4" class="st2" width="201.4" height="1.8"/>
		</g>
		<text transform="matrix(1 0 0 1 -11.0001 395.8652)" class="st4 st7 st8">Welding</text>
		<text transform="matrix(1 0 0 1 186.4373 434.8652)" class="st3 st9 st8">Beginner’s</text>
	</g>
	<g id="Sauvegarde_1_">
		<g id="Calque_5_1_" class="st1">
			<rect x="210" y="379.5" class="st2" width="208.3" height="1.8"/>
			<rect x="-4.6" y="420.4" class="st2" width="201.4" height="1.8"/>
		</g>
		<g class="st10">
			<path class="st4" d="M-1.7,346.6l0.3-1.2h19.6l-0.4,1.2c-2,0.6-4.8,1.6-4.9,6.4l-0.7,26.4l12-20.3l0.1-5.8c0.1-5-1.8-6.2-3.1-6.7
				l0.4-1.2h19.5l-0.3,1.2c-2,0.6-5,1.9-5,6.7l-0.8,26.2L49.6,353c2.7-4.8,0.9-6-0.9-6.5l0.3-1.1h11.7l-0.4,1.2
				c-2,0.5-5.3,1.5-8.1,6.5L28,395.9h-4.5l0.5-32.5L5.1,395.9H0.6l0.7-42.9C1.4,348.3-0.3,347-1.7,346.6z"/>
			<path class="st4" d="M46.4,375.8c3.9-10.7,12.2-15.9,19.7-15.9c6.2,0,10.9,3.6,9.3,9.4c-1.8,6.5-9.9,9.3-18.9,10.4
				c-1.1,6.9,0.9,10.9,4.6,11.1c2.5,0.1,6.5-1.5,9.7-7.2l0.8,0.6c-4.2,9.3-10.9,12.6-15.9,12.6C47.1,396.7,42,387.7,46.4,375.8z
				 M66.6,367.4c0.8-2.5,1.3-5.4-0.6-5.4c-2.1,0-5.3,4.3-7.6,10.7c-0.7,1.9-1.2,3.6-1.5,5.3C62.8,376.4,65.3,371.6,66.6,367.4z"/>
			<path class="st4" d="M74.9,384.9L85,353.1c1.3-4.1-0.8-5-2.1-5.3l0.3-1.1l15.7-2.4L86,385.2c-1.4,4.3-0.9,6,0,6
				c0.8,0,2.6-1.3,5.5-6.5l0.8,0.6c-2.7,6.3-7.4,11.4-12.6,11.4C75.1,396.7,72.4,392.7,74.9,384.9z"/>
			<path class="st4" d="M110.5,388.5c-3,5.9-6.4,8.2-10,8.2c-6.8,0-8.8-8.8-5.3-19.2c4.3-12.9,13.5-18.4,19.4-17.6
				c2.2,0.3,3.4,1.3,4.1,2.4l3-9.2c1.1-4.2-0.8-5-2-5.3l0.2-1.1l15.8-2.4l-13.3,40.9c-1.3,4.3-0.9,6,0,6c0.9,0,2.7-1.5,5.5-6.5
				l0.8,0.6c-2.7,6.3-7.6,11.4-12.8,11.4C112.1,396.7,109.8,394,110.5,388.5z M112.8,380.6l5.4-16.4c-0.4-0.7-1-1-1.9-1
				c-2.5,0-5.4,3.2-8.8,13.3c-2.5,7.4-3.9,13.8-1.3,14.2C107.4,390.8,109.8,388.9,112.8,380.6z"/>
			<path class="st4" d="M130.9,384.9l5.6-18c1.1-4.2-0.7-5-2-5.5l0.3-1.1h15.1l-7.8,24.9c-1.4,4.3-0.9,6,0,6c0.8,0,2.6-1.3,5.5-6.5
				l0.7,0.6c-2.7,6.3-7.4,11.4-12.7,11.4C130.8,396.7,128.4,392.6,130.9,384.9z M145.8,344.6c3.4,0,6.1,2.9,6,6.5
				c-0.1,3.5-2.7,6.4-6.2,6.4c-3.4,0-6-2.7-6-6.3C139.6,347.6,142.4,344.6,145.8,344.6z"/>
			<path class="st4" d="M169.4,384.9l4.6-13.7c1.6-4.8,1-5.8,0.1-5.8c-1.8,0-7.9,7-12.3,21l-2.9,9.4h-11.3l8.8-28.3
				c1.3-4.4-0.3-5.8-1.8-6.2l0.4-1.1h14.8l-3.8,12.3c5-9.1,9.9-12.8,14.4-12.8c4.7,0,7.3,4.1,5.3,10.2l-5,15.2c-1.4,4.3-0.9,6,0,6
				c0.8,0,2.6-1.3,5.5-6.5l0.8,0.6c-2.7,6.3-7.6,11.4-12.8,11.4C169.4,396.7,166.8,392.6,169.4,384.9z"/>
			<path class="st4" d="M183.7,402c1.2-4.2,7.1-4.8,11.6-2l0.2,0.6c-1.8,0.6-2.8,1.8-3.1,3.1c-0.9,3.4,2.3,5.3,6.7,5.4
				c3.3,0.1,7.2-1.3,8.2-4.3c0.9-2.6-0.5-4.8-4.2-5.6l-9-1.9c-7.7-1.6-7.9-6-7.1-8.4c1.1-3.1,3.8-4.6,6.9-5.6
				c-2.9-2.2-4.4-6.2-2.9-11.3c2.4-8.1,10.4-12.1,16.8-12.1c4.1,0.1,7.6,1.7,9.5,4.5c1.8-3.3,5-5.6,8.5-4.3l-2.5,6.4
				c-1.3-0.8-3.2-1.3-5.1-0.3c0.8,2.1,0.9,4.6,0.1,7.4c-2.5,8.6-11.6,12-17.4,12c-2,0-3.7-0.4-5.3-1.2c-0.6,0.4-0.8,0.8-1,1.2
				c-0.3,1.1,0.5,1.9,3.4,2.5l9,1.9c8.3,1.8,9.5,7.6,7.8,12.3c-2.2,5.9-8.9,9.3-16.8,9.1C190.5,411.3,181.9,408.1,183.7,402z
				 M207.5,372.8c1.3-4.5,2.9-10.8,0.4-10.8c-2.5,0-4.8,5.9-6.2,10.7c-1.4,4.7-3,10.7-0.4,10.7C203.7,383.5,206,377.9,207.5,372.8z"
				/>
		</g>
		<g class="st10">
			<path class="st3" d="M186.9,430l2.2-12.1h9.3l-0.6,7c1.8,0.8,5.2,1.7,9,1.7c5.8,0,11.9-1.4,11.9-7c0-4.7-6.9-4.8-10-5.4
				c-9.8-1.1-17.5-4.6-15.8-15.3c1.8-9.7,11.5-14.2,22.6-14.2c8.9,0,13.4,2.6,16.1,5.6c-0.8,4.1-1.3,6.4-2,10.4h-9l0.5-5.8
				c-1.9-0.9-3.9-1.3-7.4-1.3c-4.9,0-9.5,1.5-10.2,5.6c-0.7,3.5,2.2,4.9,8,5.6c10.4,1.3,19.6,4.6,18.1,15.8
				c-1,9.7-8.3,15.4-24.1,15.4C196.2,435.8,190.7,433.8,186.9,430z"/>
			<path class="st3" d="M276.1,426.4l-1.5,8.5h-13.3l0.1-3.9c-5.3,4.6-8.6,4.8-13.6,4.8c-8.5,0-13.7-5.9-13.7-14.9
				c0-11.2,8-21,20.5-21.6c4.8,0,8.9,0.6,11.6,4.4l1.1-3.6h13.2l-1.5,8.7h-4.4l-3.1,17.6H276.1z M244.1,419.5c0,4.5,2.6,7.7,7.6,7.7
				c6.1,0,10.9-4.1,11.9-9.3c1-5.5-1.8-9.5-7.9-9.5C249.1,408.4,244.1,413.5,244.1,419.5z"/>
			<path class="st3" d="M302.1,426.5l-1.5,8.3h-20l1.5-8.3h4.9l3.2-17.7h-6.3l1.3-7.8h6.3l0.4-1.9c2-10.8,9.2-14,16.1-14
				c2.4,0,4.5,0.4,6.7,1.7l-3.6,7.5c-1.1-0.6-2.5-0.8-3.6-0.8c-2.9,0-5.3,1.8-6,5.8l-0.3,1.8h7.3l-1.3,7.8h-7.4l-3.2,17.7H302.1z"/>
			<path class="st3" d="M341.8,430.4c-4.5,3.7-11,5.5-16.1,5.5c-11.6,0-16.3-6.6-16.3-15.1c0-12.8,9.3-21.7,22.3-21.7
				c10.9,0,17.8,6.1,13,21.8H319c-0.1,3.5,2,6.1,8.4,6.1c2.8,0,7-1.1,9.7-3L341.8,430.4z M336.9,413.5c0.9-4.3-2.4-6-6.7-6
				c-4.5,0-8.4,2-10,6H336.9z"/>
			<path class="st3" d="M368.3,390.8l-1.7,9.6h9l-1.5,8.3H365l-2.4,13.6c-0.7,4.3,2.9,5.3,7.4,3.6l0.8,8.1c-3.6,1.3-5.5,1.5-8.6,1.5
				c-6.3-0.1-10.9-3.7-9.2-13.1l2.4-13.6h-6l1.5-8.3h6l1.5-8.6L368.3,390.8z"/>
			<path class="st3" d="M392.6,435.2c-8.2,0-14.5-4.1-12.2-17.4l1.6-9.3h-5l1.5-8.5h14.7l-3.2,17.8c-0.8,4.2-0.9,8.6,6.5,8.6
				c5.1-0.1,8.1-4,9-9l1.6-9h-5.2l1.5-8.5h14.9l-6.1,34.7c-2.4,13.4-10.7,18-20.6,18c-9.5,0-16.2-4.1-14.7-14.5h9.6
				c-0.4,3.8,2.2,5.5,6.4,5.5c4.7,0,9.1-3.1,10.1-8.8l0.7-3.9C400.4,434.3,397.3,435.2,392.6,435.2z"/>
		</g>
	</g>
	<g id="Calque_2_1_">
		<g class="st1">
			<defs>
				<path id="SVGID_3_" d="M183.7,402c1.2-4.2,7.1-4.8,11.6-2l0.2,0.6c-1.8,0.6-2.8,1.8-3.1,3.1c-0.9,3.4,2.3,5.3,6.7,5.4
					c3.3,0.1,7.2-1.3,8.2-4.3c0.9-2.6-0.5-4.8-4.2-5.6l-9-1.9c-7.7-1.6-7.9-6-7.1-8.4c1.1-3.1,3.8-4.6,6.9-5.6
					c-2.9-2.2-4.4-6.2-2.9-11.3c2.4-8.1,10.4-12.1,16.8-12.1c4.1,0.1,7.6,1.7,9.5,4.5c1.8-3.3,5-5.6,8.5-4.3l-2.5,6.4
					c-1.3-0.8-3.2-1.3-5.1-0.3c0.8,2.1,0.9,4.6,0.1,7.4c-2.5,8.6-11.6,12-17.4,12c-2,0-3.7-0.4-5.3-1.2c-0.6,0.4-0.8,0.8-1,1.2
					c-0.3,1.1,0.5,1.9,3.4,2.5l9,1.9c8.3,1.8,9.5,7.6,7.8,12.3c-2.2,5.9-8.9,9.3-16.8,9.1C190.5,411.3,181.9,408.1,183.7,402z
					 M207.5,372.8c1.3-4.5,2.9-10.8,0.4-10.8c-2.5,0-4.8,5.9-6.2,10.7c-1.4,4.7-3,10.7-0.4,10.7C203.7,383.5,206,377.9,207.5,372.8z
					"/>
			</defs>
			<clipPath id="SVGID_4_">
				<use xlink:href="#SVGID_3_"  style="overflow:visible;"/>
			</clipPath>
			<path class="st11" d="M186.9,430l2.2-12.1h9.3l-0.6,7c1.8,0.8,5.2,1.7,9,1.7c5.8,0,11.9-1.4,11.9-7c0-4.7-6.9-4.8-10-5.4
				c-9.8-1.1-17.5-4.6-15.8-15.3c1.8-9.7,11.5-14.2,22.6-14.2c8.9,0,13.4,2.6,16.1,5.6c-0.8,4.1-1.3,6.4-2,10.4h-9l0.5-5.8
				c-1.9-0.9-3.9-1.3-7.4-1.3c-4.9,0-9.5,1.5-10.2,5.6c-0.7,3.5,2.2,4.9,8,5.6c10.4,1.3,19.6,4.6,18.1,15.8
				c-1,9.7-8.3,15.4-24.1,15.4C196.2,435.8,190.7,433.8,186.9,430z"/>
		</g>
	</g>
	<g id="Calque_3_1_">
		<g id="Calque_5_-_copie" class="st1">
			<rect x="200.9" y="740.8" class="st2" width="360.1" height="1.8"/>
			<rect x="-9.2" y="777.5" class="st2" width="201.4" height="1.8"/>
		</g>
		<g class="st1">
			<path class="st4" d="M-10.8,707.9l0.3-1.2H9l-0.4,1.2c-2,0.6-4.8,1.6-4.9,6.4L3,740.6l12-20.3l0.1-5.8c0.1-5-1.8-6.2-3.1-6.7
				l0.4-1.2h19.5l-0.3,1.2c-2,0.6-5,1.9-5,6.7l-0.8,26.2l14.9-26.4c2.7-4.8,0.9-6-0.9-6.5l0.3-1.1h11.7l-0.4,1.2
				c-2,0.5-5.3,1.5-8.1,6.5l-24.1,42.8h-4.5l0.5-32.5L-4,757.2h-4.5l0.7-42.9C-7.7,709.6-9.4,708.3-10.8,707.9z"/>
			<path class="st4" d="M37.3,737.1c3.9-10.7,12.2-15.9,19.7-15.9c6.2,0,10.9,3.6,9.3,9.4c-1.8,6.5-9.9,9.3-18.9,10.4
				c-1.1,6.9,0.9,10.9,4.6,11.1c2.5,0.1,6.5-1.5,9.7-7.2l0.8,0.6c-4.2,9.3-10.9,12.6-15.9,12.6C38,758,32.9,749,37.3,737.1z
				 M57.5,728.7c0.8-2.5,1.3-5.4-0.6-5.4c-2.1,0-5.3,4.3-7.6,10.7c-0.7,1.9-1.2,3.6-1.5,5.3C53.7,737.8,56.2,732.9,57.5,728.7z"/>
			<path class="st4" d="M65.8,746.2l10.1-31.8c1.3-4.1-0.8-5-2.1-5.3l0.3-1.1l15.7-2.4l-12.9,40.9c-1.4,4.3-0.9,6,0,6
				c0.8,0,2.6-1.3,5.5-6.5l0.8,0.6c-2.7,6.3-7.4,11.4-12.6,11.4C66,758,63.3,754,65.8,746.2z"/>
			<path class="st4" d="M101.4,749.8c-3,5.9-6.4,8.2-10,8.2c-6.8,0-8.8-8.8-5.3-19.2c4.3-12.9,13.5-18.4,19.4-17.6
				c2.2,0.3,3.4,1.3,4.1,2.4l3-9.2c1.1-4.2-0.8-5-2-5.3l0.2-1.1l15.8-2.4l-13.3,40.9c-1.3,4.3-0.9,6,0,6s2.7-1.5,5.5-6.5l0.8,0.6
				c-2.7,6.3-7.6,11.4-12.8,11.4C103,758,100.7,755.3,101.4,749.8z M103.7,741.9l5.4-16.4c-0.4-0.7-1-1-1.9-1
				c-2.5,0-5.4,3.2-8.8,13.3c-2.5,7.4-3.9,13.8-1.3,14.2C98.3,752.1,100.7,750.2,103.7,741.9z"/>
			<path class="st4" d="M121.8,746.2l5.6-18c1.1-4.2-0.7-5-2-5.5l0.3-1.1h15.1l-7.8,24.9c-1.4,4.3-0.9,6,0,6c0.8,0,2.6-1.3,5.5-6.5
				l0.7,0.6c-2.7,6.3-7.4,11.4-12.7,11.4C121.7,758,119.3,754,121.8,746.2z M136.7,705.9c3.4,0,6.1,2.9,6,6.5
				c-0.1,3.5-2.7,6.4-6.2,6.4c-3.4,0-6-2.7-6-6.3S133.3,705.9,136.7,705.9z"/>
			<path class="st4" d="M160.3,746.2l4.6-13.7c1.6-4.8,1-5.8,0.1-5.8c-1.8,0-7.9,7-12.3,21l-2.9,9.4h-11.3l8.8-28.3
				c1.3-4.4-0.3-5.8-1.8-6.2l0.4-1.1h14.8l-3.8,12.3c5-9.1,9.9-12.8,14.4-12.8c4.7,0,7.3,4.1,5.3,10.2l-5,15.2c-1.4,4.3-0.9,6,0,6
				c0.8,0,2.6-1.3,5.5-6.5l0.8,0.6c-2.7,6.3-7.6,11.4-12.8,11.4C160.3,758,157.7,754,160.3,746.2z"/>
			<path class="st4" d="M174.6,763.3c1.2-4.2,7.1-4.8,11.6-2l0.2,0.6c-1.8,0.6-2.8,1.8-3.1,3.1c-0.9,3.4,2.3,5.3,6.7,5.4
				c3.3,0.1,7.2-1.3,8.2-4.3c0.9-2.6-0.5-4.8-4.2-5.6l-9-1.9c-7.7-1.6-7.9-6-7.1-8.4c1.1-3.1,3.8-4.6,6.9-5.6
				c-2.9-2.2-4.4-6.2-2.9-11.3c2.4-8.1,10.4-12.1,16.8-12.1c4.1,0.1,7.6,1.7,9.5,4.5c1.8-3.3,5-5.6,8.5-4.3l-2.5,6.4
				c-1.3-0.8-3.2-1.3-5.1-0.3c0.8,2.1,0.9,4.6,0.1,7.4c-2.5,8.6-11.6,12-17.4,12c-2,0-3.7-0.4-5.3-1.2c-0.6,0.4-0.8,0.8-1,1.2
				c-0.3,1.1,0.5,1.9,3.4,2.5l9,1.9c8.3,1.8,9.5,7.6,7.8,12.3c-2.2,5.9-8.9,9.3-16.8,9.1C181.4,772.6,172.8,769.4,174.6,763.3z
				 M198.4,734.1c1.3-4.5,2.9-10.8,0.4-10.8s-4.8,5.9-6.2,10.7c-1.4,4.7-3,10.7-0.4,10.7C194.6,744.8,196.9,739.2,198.4,734.1z"/>
		</g>
		<g class="st1">
			<path class="st3" d="M211.8,786.5l1.8-7.3h9.1l-3,17h-42.3l1.7-9.5h5.5l5.3-30.3h-5.1l1.6-9.3h40.8l-2.9,16.6h-8.8l0.8-7.2H200
				l-1.8,10.1h14.9l-1.6,9.3h-14.9l-1.9,10.6H211.8L211.8,786.5z"/>
			<path class="st3" d="M269.3,761.3l-7.4,42.1h4.1l-1.5,8.7h-18.6l1.5-8.7h5l1.9-10.6c-3.3,3-7.4,4.4-12.1,4.4
				c-9.6,0-14.6-6-14.6-14.7c0-12.3,8.3-21.5,20.8-21.6c5.3,0.1,8.4,1.6,10.4,5.1l1.3-4.7L269.3,761.3L269.3,761.3z M255.9,777
				c0-4.8-3.3-7.2-7.5-7.2c-6.2,0-10.5,5-10.5,10.7c0,4.5,2.7,7.3,7.5,7.3C249.4,787.8,255.9,784.5,255.9,777z"/>
			<path class="st3" d="M310.4,787.4h4.8l-1.5,8.8h-12.2l-0.2-4.3c-4.5,3.9-9,4.9-12.3,5c-12.7,0-14.4-7.8-12.6-17.6l1.7-9.5h-4.5
				l1.5-8.3h14.2l-3.2,17.7c-0.8,4.8-0.6,8.3,6.7,8.3c4.8-0.1,8.6-4.1,9.5-8.9l1.5-8.8h-5.2l1.5-8.3H315L310.4,787.4z"/>
			<path class="st3" d="M339.1,761.3l-4.6,26.3h4l-1.5,8.6h-18.3l1.5-8.6h4.4l3.1-17.9h-4.3l1.5-8.4H339.1z M330.1,753
				c0-4.1,3.6-6.4,6.7-6.4c2.8,0,5,1.7,5,4.8c0,4-3.6,6.4-6.9,6.4C332.3,757.8,330.1,756,330.1,753z"/>
			<path class="st3" d="M345.8,769.8l1.5-8.5h13.8l-0.3,5.2c3.5-3.4,7.6-5.6,13-5.6c8.9,0,14,5.3,14,14.3c0,13.3-8.2,22-21.8,22
				c-3.5,0-7.4-1.1-10.1-4.6l-1.9,10.7h5l-1.5,8.8h-18.8l1.5-8.8h4.3l5.9-33.4h-4.6V769.8z M377.4,777.4c0-4.5-2.6-7-7.2-7
				c-6.7,0-10.6,5.5-10.6,10.4c0,3.7,2.1,7.6,7.1,7.6C373,788.4,377.4,783.9,377.4,777.4z"/>
			<path class="st3" d="M389.6,796.2l1.5-8.7h5l3.1-17.5h-4.6l1.5-8.6h13.7l0.4,3.7c2.5-3.2,6-4.3,9.3-4.3c4.8,0,7.9,2,8.6,6
				c3.4-4,7.4-5.9,12.6-5.9c11,0,13.2,5.9,11.4,16.1l-1.8,10.4h4.9l-1.5,8.7h-18.9l1.5-8.7h4.4l1.8-10.2c0.6-3.6,0.5-7.2-4.3-7.2
				c-4.7,0-7.2,3.9-7.9,7.6l-1.7,9.7h4.8l-1.5,8.7h-19.2l1.5-8.7h4.8l1.7-9.7c0.8-5-1-7.7-4.7-7.7c-4.1,0-7.1,2.6-8,7.7l-1.7,9.7
				h4.8l-1.5,8.7h-20V796.2z"/>
			<path class="st3" d="M492.4,791.7c-4.5,3.7-11,5.5-16.1,5.5c-11.6,0-16.3-6.6-16.3-15.1c0-12.8,9.3-21.7,22.3-21.7
				c10.9,0,17.8,6.1,13,21.8h-25.6c-0.1,3.5,2,6.1,8.4,6.1c2.8,0,7-1.1,9.7-3L492.4,791.7z M487.6,774.8c0.9-4.3-2.4-6-6.7-6
				c-4.5,0-8.4,2-10,6H487.6z"/>
			<path class="st3" d="M514.1,787.5h5.1l-1.5,8.7h-19.8l1.5-8.7h5.1l3.1-17.7h-4.8l1.5-8.5h13.5l0.1,3.6c3.8-3.2,7.8-4,10.5-4
				c9.5,0,14,4.5,11.9,16.9l-1.7,9.7h5l-1.5,8.7h-18.6l1.5-8.7h3.9l1.7-9.6c0.6-3.7,0.8-7.9-5.4-7.9c-4.8-0.1-8.5,3.2-9.4,8.5
				L514.1,787.5z"/>
			<path class="st3" d="M567.2,752.1l-1.7,9.6h9L573,770h-9.1l-2.4,13.6c-0.7,4.3,2.9,5.3,7.4,3.6l0.8,8.1c-3.6,1.3-5.5,1.5-8.6,1.5
				c-6.3-0.1-10.9-3.7-9.2-13.1l2.4-13.6h-6l1.5-8.3h6l1.5-8.6L567.2,752.1z"/>
		</g>
		<g id="Calque_4" class="st1">
			<g>
				<g>
					<defs>
						<path id="SVGID_5_" d="M174.6,763.3c1.2-4.2,7.1-4.8,11.6-2l0.2,0.6c-1.8,0.6-2.8,1.8-3.1,3.1c-0.9,3.4,2.3,5.3,6.7,5.4
							c3.3,0.1,7.2-1.3,8.2-4.3c0.9-2.6-0.5-4.8-4.2-5.6l-9-1.9c-7.7-1.6-7.9-6-7.1-8.4c1.1-3.1,3.8-4.6,6.9-5.6
							c-2.9-2.2-4.4-6.2-2.9-11.3c2.4-8.1,10.4-12.1,16.8-12.1c4.1,0.1,7.6,1.7,9.5,4.5c1.8-3.3,5-5.6,8.5-4.3l-2.5,6.4
							c-1.3-0.8-3.2-1.3-5.1-0.3c0.8,2.1,0.9,4.6,0.1,7.4c-2.5,8.6-11.6,12-17.4,12c-2,0-3.7-0.4-5.3-1.2c-0.6,0.4-0.8,0.8-1,1.2
							c-0.3,1.1,0.5,1.9,3.4,2.5l9,1.9c8.3,1.8,9.5,7.6,7.8,12.3c-2.2,5.9-8.9,9.3-16.8,9.1C181.4,772.6,172.8,769.4,174.6,763.3z
							 M198.4,734.1c1.3-4.5,2.9-10.8,0.4-10.8s-4.8,5.9-6.2,10.7c-1.4,4.7-3,10.7-0.4,10.7C194.6,744.8,196.9,739.2,198.4,734.1z"
							/>
					</defs>
					<clipPath id="SVGID_6_">
						<use xlink:href="#SVGID_5_"  style="overflow:visible;"/>
					</clipPath>
					<path class="st12" d="M211.8,786.5l1.8-7.3h9.1l-3,17h-42.3l1.7-9.5h5.5l5.3-30.3h-5.1l1.6-9.3h40.8l-2.9,16.6h-8.8l0.8-7.2
						H200l-1.8,10.1h14.9l-1.6,9.3h-14.9l-1.9,10.6H211.8L211.8,786.5z"/>
				</g>
			</g>
		</g>
	</g>
</g>
<g id="Calque_5_3_">
	<g id="Calque_1_-_copie">
		<g id="Calque_1_5_">
			<g id="Calque_1_6_" class="st0">
				<g id="Calque_1_7_" class="st1">
					<g id="XMLID_9_">
						<g id="XMLID_10_">
							<path id="XMLID_11_" class="st2" d="M433,1474.2c1.8-3.6,5.7-3.7,8.4-2.3c2.8,1.4,4.9,4.5,3,8.2c-1.8,3.6-5.7,3.9-8.4,2.5
								C433.1,1481.1,431,1477.9,433,1474.2z M435.4,1442c4.8-9.1,15.6-9.5,25.4-4.4c8.9,4.6,15.1,13.9,9.9,23.3
								c-4.7,9.1-14.5,5.5-18.7,6.6c-1.6,0.5-2.9,0.7-4.3,3.7l-9.3-4.8c4.1-8,8.5-8,13.8-7.7c4.1,0.2,7.8,0.1,9.3-2.8
								c2.6-4.9-1.7-8.2-5.4-10.2c-6.3-3.3-10-2-11.6,1L435.4,1442z"/>
						</g>
					</g>
					<g id="XMLID_1_">
						<path id="XMLID_8_" class="st3" d="M167.1,1441.2v-1.2h24.5v1.2c-1.7,0.5-5.5,1.2-3.8,6.7l8.4,25.6l7.4-20l-1.7-5.5
							c-1.6-5-4.3-6.1-6.2-6.7v-1.2h24.6v1.2c-2.2,0.6-5.4,1.4-3.8,6.7l8.1,25.6l9.1-25.6c1.7-4.7-1.2-6.1-3.6-6.6v-1.2h14.5v1.2
							c-2.6,0.6-6.1,1.6-7.8,6.6l-15.3,43h-5.7l-10.8-33.3l-12.1,33.3h-5.7l-14-43C171.6,1442.9,169,1441.9,167.1,1441.2z"/>
						<path id="XMLID_7_" class="st3" d="M235,1473c0-11.9,7-18.6,17.8-18.6c12.7,0,17.2,9.8,17,18.1h-21.1
							c0.7,9.2,5.2,12.6,10,12.6c3.2,0,6.5-1.4,9.9-4.9l1,0.2c-1.4,4.5-7,11.5-16.3,11.5C244.8,1491.8,235,1486.2,235,1473z
							 M256.9,1470c0.1-4.4-0.2-13-4-13c-4,0-4.2,9.6-4.2,13H256.9z"/>
						<path id="XMLID_6_" class="st3" d="M273.7,1483.6v-35.4c0-4.8-2.9-5.3-4.6-5.5l-0.1-1.1l18.1-2.9v45c0,4.8,2.9,5.8,4.6,6.3
							v1.1h-22.5v-1.3C270.9,1489.3,273.7,1488.4,273.7,1483.6z"/>
						<path id="XMLID_5_" class="st3" d="M314,1486.8c-2.2,2.6-5.5,4.5-9.8,4.5c-7,0-13.5-5.3-13.5-18.1c0-12.8,7.7-19.2,16.5-19.2
							c2.2,0,4.4,0.4,6.5,1.2v-7.2c0-4.8-2.9-5.3-4.6-5.5l-0.1-1.1l18.3-2.9v45c0,4.8,2.9,5.8,4.6,6.3v1.1h-14.5
							C315.5,1489.7,314.4,1488.4,314,1486.8z M310.5,1485.8c1.2,0,2.4-0.6,3.3-1.5v-17.6c0-6.1-0.8-9.8-4.1-9.8
							c-2.7,0-4.9,2.5-4.9,11.8C304.8,1478.6,305.9,1485.8,310.5,1485.8z"/>
						<path id="XMLID_4_" class="st3" d="M336,1483.6v-21.4c0-4.8-2.9-5.8-4.6-6.3v-1.1h17.8v28.7c0,4.8,2.9,5.8,4.6,6.3v1.1h-22.4
							v-1.1C333.2,1489.3,336,1488.4,336,1483.6z M341.5,1436.7c4,0,7.4,3.2,7.4,7.2s-3.4,7.2-7.4,7.2c-3.9,0-7.4-3.2-7.4-7.2
							S337.4,1436.7,341.5,1436.7z"/>
						<path id="XMLID_3_" class="st3" d="M380.1,1483.6v-15.5c0-4.2-2-5.5-4.4-5.5c-1.7-0.1-3.4,0.5-4.8,1.2v19.8
							c0,4.8,2.2,5.8,3.5,6.3v1.1H353v-1.2c1.7-0.5,4.6-1.4,4.6-6.3v-21.4c0-4.8-2.9-5.8-4.6-6.3v-1h17.9v6.6c1.5-3.4,5.2-7,11.1-7
							c6.3,0,11.4,4.2,11.4,11.7v17.4c0,4.8,2.9,5.8,4.6,6.3v1.1h-21.4v-1.1C377.9,1489.3,380.1,1488.4,380.1,1483.6z"/>
						<path id="XMLID_2_" class="st3" d="M398.5,1499.6c0-3.3,3.2-5.3,6.3-6c-5.5-1.7-6.5-5.2-6.5-7.3c0-3.9,3.3-6.8,8.3-8.3
							c-4.1-2.2-7.2-5.8-7.2-10.8c0-8.7,8.8-12.8,16.4-12.8c2.9,0,6.1,0.6,8.8,2c2-5.3,7.2-7.3,11.6-6.3l-1.1,8h-0.5
							c-2.6-1.6-5.1-1.7-7.8-0.5c3.3,2.2,5.5,5.3,5.5,9.7c0,8.7-9,13-16.6,13c-2.4,0-4.7-0.4-7.1-1.2c-1.2,0.8-2.2,1.7-2.2,2.8
							c0,1.6,2.4,2.4,6.5,2.5l10.8,0.1c6.2,0.1,11.3,3.8,11.3,10.2c0,8-7.7,12.5-19.6,12.5C408.6,1507,398.5,1505.6,398.5,1499.6z
							 M418,1504c5.7,0,9.7-2.2,9.7-5.4c0-2.9-3.1-3.7-6.8-3.7l-8.7-0.1c-1.4,0-2.8-0.1-4-0.3c-1,0.8-1.2,2.1-1.2,2.9
							C406.8,1501.1,411.3,1504,418,1504z M415.7,1477.7c3.1,0,3.6-6.3,3.6-10.4c0-4.2-0.5-10.4-3.6-10.4s-3.5,6.3-3.5,10.4
							C412.1,1471.3,412.6,1477.7,415.7,1477.7z"/>
					</g>
					<g>
						<path class="st4" d="M115.9,1439.2l-3.3,18.8H101l0.8-7.2h-4.6l-4.6,26.1h5.7l-1.9,10.8H71.1l1.9-10.8h5.8l4.6-26.1h-4.7
							L77,1458H65.4l3.3-18.8H115.9L115.9,1439.2z"/>
						<path class="st4" d="M118.6,1462.9h-4.8l1.7-9.5H133l-3.7,21.1c-0.7,4.2,2,4,5.1,3.4l-1.7,9.4c-11.4,3.1-18.7,0.8-16.3-12.6
							L118.6,1462.9z M129.7,1437.3c3.1,0,6,1.9,6,5.6c0,4.9-4.5,7.6-8.3,7.6c-3.4,0-6.3-1.9-6.3-5.6
							C121.1,1440,125.5,1437.3,129.7,1437.3z"/>
						<path class="st4" d="M183.7,1462.7H179l-4.4,24.8c-2.1,11.8-9.9,17.4-21.9,17.4c-10.7,0-18.2-4.6-16.9-14.7l12.7,0.1
							c0,2.9,2.4,4.2,5.4,4.2c4.2,0,7.4-2.6,8.2-6.7l0.8-4.5c-3.4,3.7-8.5,4.6-12.3,4.4c-8.5-0.5-13-5.9-13-13.9
							c0-11.9,8.7-21.2,20.2-21.2c4.9,0,8.1,1.7,9.3,4.4l1.3-3.7c5.6,0,11.1,0,16.7,0L183.7,1462.7z M150.7,1471.7
							c0,3.7,2.4,6,5.7,6c4.9,0,8.6-4,8.6-8.7c0-3.7-2-6-6-6C154.7,1462.9,150.7,1466.2,150.7,1471.7z"/>
					</g>
				</g>
				<g id="Calque_2_3_" class="st1">
					<g>
						<g>
							<g>
								<g>
									<defs>
										<path id="SVGID_7_" d="M167.1,1441.2v-1.2h24.5v1.2c-1.7,0.5-5.5,1.2-3.8,6.7l8.4,25.6l7.4-20l-1.7-5.5
											c-1.6-5-4.3-6.1-6.2-6.7v-1.2h24.6v1.2c-2.2,0.6-5.4,1.4-3.8,6.7l8.1,25.6l9.1-25.6c1.7-4.7-1.2-6.1-3.6-6.6v-1.2h14.5
											v1.2c-2.6,0.6-6.1,1.6-7.8,6.6l-15.3,43h-5.7l-10.8-33.3l-12.1,33.3h-5.7l-14-43C171.6,1442.9,169,1441.9,167.1,1441.2z"
											/>
									</defs>
									<clipPath id="SVGID_8_">
										<use xlink:href="#SVGID_7_"  style="overflow:visible;"/>
									</clipPath>
									<path class="st13" d="M183.7,1462.7H179l-4.4,24.8c-2.1,11.8-9.9,17.4-21.9,17.4c-10.7,0-18.2-4.6-16.9-14.7l12.7,0.1
										c0,2.9,2.4,4.2,5.4,4.2c4.2,0,7.4-2.6,8.2-6.7l0.8-4.5c-3.4,3.7-8.5,4.6-12.3,4.4c-8.5-0.5-13-5.9-13-13.9
										c0-11.9,8.7-21.2,20.2-21.2c4.9,0,8.1,1.7,9.3,4.4l1.3-3.7c5.6,0,11.1,0,16.7,0L183.7,1462.7z M150.7,1471.7
										c0,3.7,2.4,6,5.7,6c4.9,0,8.6-4,8.6-8.7c0-3.7-2-6-6-6C154.7,1462.9,150.7,1466.2,150.7,1471.7z"/>
								</g>
							</g>
						</g>
					</g>
				</g>
			</g>
			<g id="Calque_3_4_">
				<path class="st6" d="M225.6,1119.1l5.3-15.7c1.9-5.6,1.1-6.7,0.2-6.7c-2.1,0-9,8.1-14.2,24.2l-3.3,10.8h-13l10.2-32.5
					c1.5-5.1-0.3-6.6-2.1-7.1l0.4-1.3h17l-4.4,14.1c5.8-10.5,11.4-14.7,16.5-14.7c5.4,0,8.4,4.8,6,11.7l-5.8,17.5
					c-1.6,5-1,6.9,0,6.9s3-1.5,6.4-7.5l0.9,0.7c-3.1,7.3-8.7,13.1-14.7,13.1C225.5,1132.7,222.6,1128,225.6,1119.1z"/>
			</g>
		</g>
		<g id="Sauvegarde_4_">
			<g id="Calque_5_5_">
				<rect x="210" y="379.5" class="st2" width="360.1" height="1.8"/>
				<rect x="-4.6" y="420.4" class="st2" width="201.4" height="1.8"/>
			</g>
			<g class="st14">
				<path class="st4" d="M-1.7,346.6l0.3-1.2h19.6l-0.4,1.2c-2,0.6-4.8,1.6-4.9,6.4l-0.7,26.4l12-20.3l0.1-5.8
					c0.1-5-1.8-6.2-3.1-6.7l0.4-1.2h19.5l-0.3,1.2c-2,0.6-5,1.9-5,6.7l-0.8,26.2L49.6,353c2.7-4.8,0.9-6-0.9-6.5l0.3-1.1h11.7
					l-0.4,1.2c-2,0.5-5.3,1.5-8.1,6.5L28,395.9h-4.5l0.5-32.5L5.1,395.9H0.6l0.7-42.9C1.4,348.3-0.3,347-1.7,346.6z"/>
				<path class="st4" d="M46.4,375.8c3.9-10.7,12.2-15.9,19.7-15.9c6.2,0,10.9,3.6,9.3,9.4c-1.8,6.5-9.9,9.3-18.9,10.4
					c-1.1,6.9,0.9,10.9,4.6,11.1c2.5,0.1,6.5-1.5,9.7-7.2l0.8,0.6c-4.2,9.3-10.9,12.6-15.9,12.6C47.1,396.7,42,387.7,46.4,375.8z
					 M66.6,367.4c0.8-2.5,1.3-5.4-0.6-5.4c-2.1,0-5.3,4.3-7.6,10.7c-0.7,1.9-1.2,3.6-1.5,5.3C62.8,376.4,65.3,371.6,66.6,367.4z"/>
				<path class="st4" d="M74.9,384.9L85,353.1c1.3-4.1-0.8-5-2.1-5.3l0.3-1.1l15.7-2.4L86,385.2c-1.4,4.3-0.9,6,0,6
					c0.8,0,2.6-1.3,5.5-6.5l0.8,0.6c-2.7,6.3-7.4,11.4-12.6,11.4C75.1,396.7,72.4,392.7,74.9,384.9z"/>
				<path class="st4" d="M110.5,388.5c-3,5.9-6.4,8.2-10,8.2c-6.8,0-8.8-8.8-5.3-19.2c4.3-12.9,13.5-18.4,19.4-17.6
					c2.2,0.3,3.4,1.3,4.1,2.4l3-9.2c1.1-4.2-0.8-5-2-5.3l0.2-1.1l15.8-2.4l-13.3,40.9c-1.3,4.3-0.9,6,0,6c0.9,0,2.7-1.5,5.5-6.5
					l0.8,0.6c-2.7,6.3-7.6,11.4-12.8,11.4C112.1,396.7,109.8,394,110.5,388.5z M112.8,380.6l5.4-16.4c-0.4-0.7-1-1-1.9-1
					c-2.5,0-5.4,3.2-8.8,13.3c-2.5,7.4-3.9,13.8-1.3,14.2C107.4,390.8,109.8,388.9,112.8,380.6z"/>
				<path class="st4" d="M130.9,384.9l5.6-18c1.1-4.2-0.7-5-2-5.5l0.3-1.1h15.1l-7.8,24.9c-1.4,4.3-0.9,6,0,6c0.8,0,2.6-1.3,5.5-6.5
					l0.7,0.6c-2.7,6.3-7.4,11.4-12.7,11.4C130.8,396.7,128.4,392.6,130.9,384.9z M145.8,344.6c3.4,0,6.1,2.9,6,6.5
					c-0.1,3.5-2.7,6.4-6.2,6.4c-3.4,0-6-2.7-6-6.3C139.6,347.6,142.4,344.6,145.8,344.6z"/>
				<path class="st4" d="M169.4,384.9l4.6-13.7c1.6-4.8,1-5.8,0.1-5.8c-1.8,0-7.9,7-12.3,21l-2.9,9.4h-11.3l8.8-28.3
					c1.3-4.4-0.3-5.8-1.8-6.2l0.4-1.1h14.8l-3.8,12.3c5-9.1,9.9-12.8,14.4-12.8c4.7,0,7.3,4.1,5.3,10.2l-5,15.2c-1.4,4.3-0.9,6,0,6
					c0.8,0,2.6-1.3,5.5-6.5l0.8,0.6c-2.7,6.3-7.6,11.4-12.8,11.4C169.4,396.7,166.8,392.6,169.4,384.9z"/>
			</g>
			<g class="st14">
				<path class="st3" d="M186.7,434.9l1.7-9.5h5.3l5.3-30.3h-5.2l1.6-9.3h27c9,0,15.2,3.4,15.2,11.7c0,4-1.3,8.9-7.9,12.1
					c4.4,2.1,6.5,6.1,5.5,11.5c-2.3,11.4-11.4,13.8-21.5,13.8H186.7z M203.9,425.5h11.6c2.9,0,7.9-0.3,8.8-5.8
					c0.8-4.5-2.7-5.7-6.9-5.7h-11.6L203.9,425.5z M207.5,404.8h11.6c7,0,7.9-3.6,7.9-5.8c0-2.7-1.9-3.9-6.2-3.9h-11.6L207.5,404.8z"
					/>
				<path class="st3" d="M273.1,430.4c-4.5,3.7-11,5.5-16.1,5.5c-11.6,0-16.3-6.6-16.3-15.1c0-12.8,9.3-21.7,22.3-21.7
					c10.9,0,17.8,6.1,13,21.8h-25.6c-0.1,3.5,2,6.1,8.4,6.1c2.8,0,7-1.1,9.7-3L273.1,430.4z M268.3,413.5c0.9-4.3-2.4-6-6.7-6
					c-4.5,0-8.4,2-10,6H268.3z"/>
				<path class="st3" d="M294.2,453.4c-10.8,0-17.1-5.1-15.3-14.5h9.8c-0.4,3.7,2.9,5.7,7.5,5.7c5.8,0,9.4-3.2,10.5-9.4l0.7-3.6
					c-3.3,3.7-7.5,4.3-11.4,4.5c-9.2,0-15.3-5.5-15.3-14.9c0-13.2,9.8-21.3,21.1-21.3c4.1,0,8.3,1.1,10.5,4.7l1.5-4.5h13.3l-1.5,8.5
					h-4.4l-4.7,26.7C314.2,448.5,306.5,453.4,294.2,453.4z M290.9,419.2c0,4.5,3,8.1,7.7,8.1c7.2,0,11.7-5.3,11.7-11
					c0-4.4-2.9-7.6-8.2-7.6C297.2,408.7,290.9,412.1,290.9,419.2z"/>
				<path class="st3" d="M346.5,400l-4.6,26.3h4l-1.5,8.6h-18.3l1.5-8.6h4.4l3.1-17.9h-4.3l1.5-8.4H346.5z M337.5,391.7
					c0-4.1,3.6-6.4,6.7-6.4c2.8,0,5,1.7,5,4.8c0,4-3.6,6.4-6.9,6.4C339.7,396.5,337.5,394.7,337.5,391.7z"/>
				<path class="st3" d="M365.7,426.2h5.1l-1.5,8.7h-19.8l1.5-8.7h5.1l3.1-17.7h-4.8l1.5-8.5h13.5l0.1,3.6c3.8-3.2,7.8-4,10.5-4
					c9.5,0,14,4.5,11.9,16.9l-1.7,9.7h5l-1.5,8.7h-18.6l1.5-8.7h3.9l1.7-9.6c0.6-3.7,0.8-7.9-5.4-7.9c-4.8-0.1-8.5,3.2-9.4,8.5
					L365.7,426.2z"/>
				<path class="st3" d="M413.9,426.2h5.1l-1.5,8.7h-19.8l1.5-8.7h5.1l3.1-17.7h-4.8l1.5-8.5h13.5l0.1,3.6c3.8-3.2,7.8-4,10.5-4
					c9.5,0,14,4.5,11.9,16.9l-1.7,9.7h5l-1.5,8.7h-18.6l1.5-8.7h3.9l1.7-9.6c0.6-3.7,0.8-7.9-5.4-7.9c-4.8-0.1-8.5,3.2-9.4,8.5
					L413.9,426.2z"/>
				<path class="st3" d="M480.5,430.4c-4.5,3.7-11,5.5-16.1,5.5c-11.6,0-16.3-6.6-16.3-15.1c0-12.8,9.3-21.7,22.3-21.7
					c10.9,0,17.8,6.1,13,21.8h-25.6c-0.1,3.5,2,6.1,8.4,6.1c2.8,0,7-1.1,9.7-3L480.5,430.4z M475.7,413.5c0.9-4.3-2.4-6-6.7-6
					c-4.5,0-8.4,2-10,6H475.7z"/>
				<path class="st3" d="M495.4,408.5h-4.5l1.5-8.5h12.8l0.3,3.3c3.2-3,6.8-4.2,10.5-4.2c3.1,0,6.6,1,8.8,3.4l-6,8.3
					c-1.5-1.5-3.8-2.2-6.1-2.2c-3.9,0-8.1,2.2-9.1,8.3l-1.7,9.5h4.8l-1.5,8.4h-19.9l1.5-8.4h5.3L495.4,408.5z"/>
				<path class="st3" d="M527.8,403l6.7-17.3h10.2l-9.1,17.3H527.8z"/>
				<path class="st3" d="M564.5,411.2l0.3-3.9c-0.9-0.6-3.2-1-5.2-1c-3.2,0-6.3,1.1-6.3,4.1c0,2.2,3.1,2.5,5,2.6
					c8.6,0.5,14.9,3.4,13.6,12.2c-1.4,6.8-6.7,10.9-17.5,10.9c-5.5,0-10.7-1.1-14.9-4.1l2-9.6h8.3l-0.3,3.9c1.1,0.6,3.5,1.2,6,1.3
					c3.4,0.1,6.8-0.6,6.8-3.4c0-1.6-1.9-2.9-6.1-3.1c-8.1-1-14.2-4-12.7-11.5c1.3-7.7,10.1-10.9,17.7-10.9c4.6,0,9.3,1,13,2.9
					l-1.8,9.5H564.5z"/>
			</g>
			<path class="st4" d="M183.7,402c1.2-4.2,7.1-4.8,11.6-2l0.2,0.6c-1.8,0.6-2.8,1.8-3.1,3.1c-0.9,3.4,2.3,5.3,6.7,5.4
				c3.3,0.1,7.2-1.3,8.2-4.3c0.9-2.6-0.5-4.8-4.2-5.6l-9-1.9c-7.7-1.6-7.9-6-7.1-8.4c1.1-3.1,3.8-4.6,6.9-5.6
				c-2.9-2.2-4.4-6.2-2.9-11.3c2.4-8.1,10.4-12.1,16.8-12.1c4.1,0.1,7.6,1.7,9.5,4.5c1.8-3.3,5-5.6,8.5-4.3l-2.5,6.4
				c-1.3-0.8-3.2-1.3-5.1-0.3c0.8,2.1,0.9,4.6,0.1,7.4c-2.5,8.6-11.6,12-17.4,12c-2,0-3.7-0.4-5.3-1.2c-0.6,0.4-0.8,0.8-1,1.2
				c-0.3,1.1,0.5,1.9,3.4,2.5l9,1.9c8.3,1.8,9.5,7.6,7.8,12.3c-2.2,5.9-8.9,9.3-16.8,9.1C190.5,411.3,181.9,408.1,183.7,402z
				 M207.5,372.8c1.3-4.5,2.9-10.8,0.4-10.8c-2.5,0-4.8,5.9-6.2,10.7c-1.4,4.7-3,10.7-0.4,10.7C203.7,383.5,206,377.9,207.5,372.8z"
				/>
		</g>
		<g id="Calque_2_-_copie" class="st0">
		</g>
		<g id="Calque_8">
			<g>
				<defs>
					<path id="SVGID_9_" d="M183.7,402c1.2-4.2,7.1-4.8,11.6-2l0.2,0.6c-1.8,0.6-2.8,1.8-3.1,3.1c-0.9,3.4,2.3,5.3,6.7,5.4
						c3.3,0.1,7.2-1.3,8.2-4.3c0.9-2.6-0.5-4.8-4.2-5.6l-9-1.9c-7.7-1.6-7.9-6-7.1-8.4c1.1-3.1,3.8-4.6,6.9-5.6
						c-2.9-2.2-4.4-6.2-2.9-11.3c2.4-8.1,10.4-12.1,16.8-12.1c4.1,0.1,7.6,1.7,9.5,4.5c1.8-3.3,5-5.6,8.5-4.3l-2.5,6.4
						c-1.3-0.8-3.2-1.3-5.1-0.3c0.8,2.1,0.9,4.6,0.1,7.4c-2.5,8.6-11.6,12-17.4,12c-2,0-3.7-0.4-5.3-1.2c-0.6,0.4-0.8,0.8-1,1.2
						c-0.3,1.1,0.5,1.9,3.4,2.5l9,1.9c8.3,1.8,9.5,7.6,7.8,12.3c-2.2,5.9-8.9,9.3-16.8,9.1C190.5,411.3,181.9,408.1,183.7,402z
						 M207.5,372.8c1.3-4.5,2.9-10.8,0.4-10.8c-2.5,0-4.8,5.9-6.2,10.7c-1.4,4.7-3,10.7-0.4,10.7C203.7,383.5,206,377.9,207.5,372.8
						z"/>
				</defs>
				<clipPath id="SVGID_10_">
					<use xlink:href="#SVGID_9_"  style="overflow:visible;"/>
				</clipPath>
				<path class="st15" d="M186.7,434.9l1.7-9.5h5.3l5.3-30.3h-5.2l1.6-9.3h27c9,0,15.2,3.4,15.2,11.7c0,4-1.3,8.9-7.9,12.1
					c4.4,2.1,6.5,6.1,5.5,11.5c-2.3,11.4-11.4,13.8-21.5,13.8H186.7z M203.9,425.5h11.6c2.9,0,7.9-0.3,8.8-5.8
					c0.8-4.5-2.7-5.7-6.9-5.7h-11.6L203.9,425.5z M207.5,404.8h11.6c7,0,7.9-3.6,7.9-5.8c0-2.7-1.9-3.9-6.2-3.9h-11.6L207.5,404.8z"
					/>
			</g>
		</g>
	</g>
</g>
<g id="Calque_3_2_" class="st0">
	<g id="Sauvegarde_2_" class="st1">
		<g id="Calque_5_2_">
			<rect x="197.8" y="379.5" class="st2" width="235.8" height="1.8"/>
			<rect x="-4.6" y="420.4" class="st2" width="188.8" height="1.8"/>
		</g>
		<g class="st14">
			<path class="st4" d="M12.2,395.9c-2,0.6-4.1,0.8-6,0.8C-5,396.3-11.1,385.9-7,370.1c4.3-16.3,16.4-25.9,27.2-25.6
				c11.1,0.4,17,10.8,12.8,26.6c-2.8,10.9-8.7,18.5-15.4,22.4c2,4.5,4.3,8.5,8.3,8.5c2.1,0,4.5-1.2,6.8-3.2l1,0.2
				c-4,5.9-8.7,10.2-14,10.2C13.3,409.3,12.7,402.4,12.2,395.9z M8.6,382c2.7,0,4.5,2,6,4.8c2.2-4.4,4.1-10.2,5.6-16.1
				c3.1-11.5,5.8-23.8-0.4-24.1c-6.3-0.2-11.3,12.4-14.2,23.7c-1.5,5.9-2.9,11.9-3.1,16.5C3.5,384.2,5.9,382,8.6,382z M6.4,394.5
				c2,0.1,3.8-1.1,5.4-3c-0.5-3.6-1.5-6.4-4.7-6.3c-2.8,0-4.8,4.3-3.4,8C4.4,394,5.2,394.4,6.4,394.5z"/>
			<path class="st4" d="M35.8,386.5l5.8-16.2c1.3-3.5,0.6-5-0.4-5c-0.8,0-2.5,1.2-5.4,6.2l-0.8-0.6c2.7-6.1,7.9-11.2,13.2-11.2
				c4.8,0,7.2,4,4.5,11l-5,13.4c-2.2,5.9-1.3,6.9-0.5,6.9c1.7,0,6.6-6.4,11.2-20l3.3-10.9h11.2l-7.8,25.4c-1.2,3.9-0.6,5.5,0.4,5.5
				c0.8,0,2.6-1.3,5.5-6.5l0.7,0.6c-2.7,6.3-7.6,11.4-12.8,11.4c-4.7,0-7.2-3.9-4.6-12.3l0.1-0.4c-4.7,9.1-8.9,12.8-13.5,12.8
				C36.6,396.7,33.6,392.6,35.8,386.5z"/>
			<path class="st4" d="M72.9,387c0-11.6,8.8-27.3,19.4-27.2c3.2,0,4.8,1.4,5.7,2.9l9.3-2.4h2.4l-8.1,24.9c-0.7,2.3-1.6,6,0,6
				c0.9,0,2.7-1.5,5.5-6.5l0.8,0.6c-2.7,6.3-7.6,11.4-12.8,11.4c-4.6,0-6.2-3.6-5.6-8.3c-3,6-6.3,8.3-9.9,8.3
				C75.3,396.7,72.9,392.9,72.9,387z M92.2,379.3l0.6-2l0.1-0.3l3.6-11.1c0.5-2.1-0.3-3.1-1.5-3.1c-2.3,0-5.2,3.5-8.5,13.6
				c-1.5,4.6-4.5,14.2-1.2,14.2C86.7,390.7,89.1,388.4,92.2,379.3z"/>
			<path class="st4" d="M110.4,384.9l10.1-31.8c1.3-4.1-0.8-5-2.1-5.3l0.3-1.1l15.7-2.4l-12.9,40.9c-1.4,4.3-0.9,6,0,6
				c0.8,0,2.6-1.3,5.5-6.5l0.8,0.6c-2.7,6.3-7.4,11.4-12.6,11.4C110.6,396.7,107.9,392.7,110.4,384.9z"/>
			<path class="st4" d="M130.5,384.9l5.6-18c1.1-4.2-0.7-5-2-5.5l0.3-1.1h15.1l-7.8,24.9c-1.4,4.3-0.9,6,0,6c0.8,0,2.6-1.3,5.5-6.5
				l0.7,0.6c-2.7,6.3-7.4,11.4-12.7,11.4C130.4,396.7,128.1,392.6,130.5,384.9z M145.5,344.6c3.4,0,6.1,2.9,6,6.5
				c-0.1,3.5-2.7,6.4-6.2,6.4c-3.4,0-6-2.7-6-6.3C139.2,347.6,142,344.6,145.5,344.6z"/>
			<path class="st4" d="M150.4,384.9l6.7-22.2h-4.2l0.2-1c5.6-2,12.6-6.1,17.7-12.1h1.4l-3.2,10.7h6.9l-0.7,2.3h-6.9l-6.8,22.7
				c-1.3,4.3-0.8,5.8,0.4,5.8c1.3,0,3.9-2,6.4-6.5l0.7,0.6c-3.2,6.3-8.1,11.5-13.3,11.5C150.6,396.7,148.1,392.6,150.4,384.9z"/>
			<path class="st4" d="M166.1,398.9l0.7-0.1c3.3,4.7,8.4,7.8,13.5,3.5l-3.9-33.7c-0.6-4.6-1.6-5.4-3.1-5.6l0.3-1.1l12.8-2.5
				l3.4,33.8c7.2-11.8,6.7-22.5,1.9-29.2l0.1-0.6l12.6-4.1c0.4,12.6-6.2,25.7-13.3,35.3c-6.7,9-16.3,17.6-29.9,14.4L166.1,398.9z"/>
		</g>
		<g class="st14">
			<path class="st3" d="M221,389.7c-0.7,3.7-1.6,7.9-2.3,11.4h-9.3l0.7-6.2c-2-0.5-3.7-0.7-5.8-0.7c-11.4,0-17.6,8.5-18.8,16.2
				c-1.3,7.4,0.3,15.6,13.2,15.6c3.7,0,9.6-1.9,12.9-4.8l4.9,7.6c-6.1,4.9-12.4,7-19.5,7c-18.7,0-24.3-12-22-25.6
				c2-12.6,13-25.5,30.9-25.5C211.6,384.7,216.8,386.4,221,389.7z"/>
			<path class="st3" d="M242.1,399.2c10.3,0,15.7,6.2,15.7,15c0,11.6-8.6,21.5-22.1,21.5c-10.1,0-15.6-6.3-15.6-15
				C220.2,408.6,229.3,399.2,242.1,399.2z M241.1,407.9c-6.9,0-10.9,5.3-11.1,11.3c-0.1,4,2,7.4,7,7.4c6.1,0,9.6-4.2,10.8-9
				C248.9,412,246.4,407.9,241.1,407.9z"/>
			<path class="st3" d="M275.6,426.2h5.1l-1.5,8.7h-19.8l1.5-8.7h5.1l3.1-17.7h-4.8l1.5-8.5h13.5l0.1,3.6c3.8-3.2,7.8-4,10.5-4
				c9.5,0,14,4.5,11.9,16.9l-1.7,9.7h5l-1.5,8.7H285l1.5-8.7h3.9l1.7-9.6c0.6-3.7,0.8-7.9-5.4-7.9c-4.8-0.1-8.5,3.2-9.4,8.5
				L275.6,426.2z"/>
			<path class="st3" d="M328.7,390.8l-1.7,9.6h9l-1.5,8.3h-9.1l-2.4,13.6c-0.7,4.3,2.9,5.3,7.4,3.6l0.8,8.1
				c-3.6,1.3-5.5,1.5-8.6,1.5c-6.3-0.1-10.9-3.7-9.2-13.1l2.4-13.6h-6l1.5-8.3h6l1.5-8.6L328.7,390.8z"/>
			<path class="st3" d="M344.3,408.5h-4.5l1.5-8.5h12.8l0.3,3.3c3.2-3,6.8-4.2,10.5-4.2c3.1,0,6.6,1,8.8,3.4l-6,8.3
				c-1.5-1.5-3.8-2.2-6.1-2.2c-3.9,0-8.1,2.2-9.1,8.3l-1.7,9.5h4.8l-1.5,8.4h-19.9l1.5-8.4h5.3L344.3,408.5z"/>
			<path class="st3" d="M394,399.2c10.3,0,15.7,6.2,15.7,15c0,11.6-8.6,21.5-22.1,21.5c-10.1,0-15.6-6.3-15.6-15
				C372,408.6,381.2,399.2,394,399.2z M392.9,407.9c-6.9,0-10.9,5.3-11.1,11.3c-0.1,4,2,7.4,7,7.4c6.1,0,9.6-4.2,10.8-9
				C400.8,412,398.3,407.9,392.9,407.9z"/>
			<path class="st3" d="M419.5,385.8h14.2l-7.1,40.5h4.2l-1.5,8.6h-18.7l1.5-8.6h4.8l5.6-32H418L419.5,385.8z"/>
		</g>
	</g>
</g>
<g id="Calque_4_1_" class="st0">
	<g class="st1">
		<defs>
			<path id="SVGID_11_" d="M166.1,398.9l0.7-0.1c3.3,4.7,8.4,7.8,13.5,3.5l-3.9-33.7c-0.6-4.6-1.6-5.4-3.1-5.6l0.3-1.1l12.8-2.5
				l3.4,33.8c7.2-11.8,6.7-22.5,1.9-29.2l0.1-0.6l12.6-4.1c0.4,12.6-6.2,25.7-13.3,35.3c-6.7,9-16.3,17.6-29.9,14.4L166.1,398.9z"/>
		</defs>
		<clipPath id="SVGID_12_">
			<use xlink:href="#SVGID_11_"  style="overflow:visible;"/>
		</clipPath>
		<path class="st16" d="M221,389.7c-0.7,3.7-1.6,7.9-2.3,11.4h-9.3l0.7-6.2c-2-0.5-3.7-0.7-5.8-0.7c-11.4,0-17.6,8.5-18.8,16.2
			c-1.3,7.4,0.3,15.6,13.2,15.6c3.7,0,9.6-1.9,12.9-4.8l4.9,7.6c-6.1,4.9-12.4,7-19.5,7c-18.7,0-24.3-12-22-25.6
			c2-12.6,13-25.5,30.9-25.5C211.6,384.7,216.8,386.4,221,389.7z"/>
	</g>
</g>
</svg>
