<?xml version="1.0" encoding="utf-8"?>
<!-- Generator: Adobe Illustrator 19.0.0, SVG Export Plug-In . SVG Version: 6.00 Build 0)  -->
<svg version="1.1" id="Calque_1" xmlns="http://www.w3.org/2000/svg" xmlns:xlink="http://www.w3.org/1999/xlink" x="0px" y="0px"
	 viewBox="-11 340 589 114" style="enable-background:new -11 340 589 114;" xml:space="preserve">
<style type="text/css">
	.st0{display:none;}
	.st1{display:inline;}
	.st2{fill:#EBFFAA;}
	.st3{fill:#3AF9BA;}
	.st4{fill:#E90052;}
	.st5{clip-path:url(#SVGID_2_);}
	.st6{display:none;fill:#E90052;}
	.st7{enable-background:new    ;}
	.st8{clip-path:url(#SVGID_4_);fill:#231F20;}
	.st9{clip-path:url(#SVGID_6_);fill:#231F20;}
	.st10{clip-path:url(#SVGID_8_);fill:#231F20;}
</style>
<g id="Calque_1_4_" class="st0">
	<g id="Calque_1_3_" class="st1">
		<g id="Calque_1_2_" class="st0">
			<g id="Calque_1_1_" class="st1">
				<g id="XMLID_783_">
					<g id="XMLID_849_">
						<path id="XMLID_850_" class="st2" d="M422,1814.2c1.8-3.6,5.7-3.7,8.4-2.3c2.8,1.4,4.9,4.5,3,8.2c-1.8,3.6-5.7,3.9-8.4,2.5
							C422.1,1821.1,420,1817.9,422,1814.2z M424.4,1782c4.8-9.1,15.6-9.5,25.4-4.4c8.9,4.6,15.1,13.9,9.9,23.3
							c-4.7,9.1-14.5,5.5-18.7,6.6c-1.6,0.5-2.9,0.7-4.3,3.7l-9.3-4.8c4.1-8,8.5-8,13.8-7.7c4.1,0.2,7.8,0.1,9.3-2.8
							c2.6-4.9-1.7-8.2-5.4-10.2c-6.3-3.3-10-2-11.6,1L424.4,1782z"/>
					</g>
				</g>
				<g id="XMLID_634_">
					<path id="XMLID_744_" class="st3" d="M156.1,1781.2v-1.2h24.5v1.2c-1.7,0.5-5.5,1.2-3.8,6.7l8.4,25.6l7.4-20l-1.7-5.5
						c-1.6-5-4.3-6.1-6.2-6.7v-1.2h24.6v1.2c-2.2,0.6-5.4,1.4-3.8,6.7l8.1,25.6l9.1-25.6c1.7-4.7-1.2-6.1-3.6-6.6v-1.2h14.5v1.2
						c-2.6,0.6-6.1,1.6-7.8,6.6l-15.3,43h-5.7l-10.8-33.3l-12.1,33.3h-5.7l-14-43C160.6,1782.9,158,1781.9,156.1,1781.2z"/>
					<path id="XMLID_746_" class="st3" d="M224,1813c0-11.9,7-18.6,17.8-18.6c12.7,0,17.2,9.8,17,18.1h-21.1
						c0.7,9.2,5.2,12.6,10,12.6c3.2,0,6.5-1.4,9.9-4.9l1,0.2c-1.4,4.5-7,11.5-16.3,11.5C233.8,1831.8,224,1826.2,224,1813z
						 M245.9,1810c0.1-4.4-0.2-13-4-13c-4,0-4.2,9.6-4.2,13H245.9z"/>
					<path id="XMLID_749_" class="st3" d="M262.7,1823.6v-35.4c0-4.8-2.9-5.3-4.6-5.5l-0.1-1.1l18.1-2.9v45c0,4.8,2.9,5.8,4.6,6.3
						v1.1h-22.5v-1.3C259.9,1829.3,262.7,1828.4,262.7,1823.6z"/>
					<path id="XMLID_751_" class="st3" d="M303,1826.8c-2.2,2.6-5.5,4.5-9.8,4.5c-7,0-13.5-5.3-13.5-18.1c0-12.8,7.7-19.2,16.5-19.2
						c2.2,0,4.4,0.4,6.5,1.2v-7.2c0-4.8-2.9-5.3-4.6-5.5l-0.1-1.1l18.3-2.9v45c0,4.8,2.9,5.8,4.6,6.3v1.1h-14.5
						C304.5,1829.7,303.4,1828.4,303,1826.8z M299.5,1825.8c1.2,0,2.4-0.6,3.3-1.5v-17.6c0-6.1-0.8-9.8-4.1-9.8
						c-2.7,0-4.9,2.5-4.9,11.8C293.8,1818.6,294.9,1825.8,299.5,1825.8z"/>
					<path id="XMLID_760_" class="st3" d="M325,1823.6v-21.4c0-4.8-2.9-5.8-4.6-6.3v-1.1h17.8v28.7c0,4.8,2.9,5.8,4.6,6.3v1.1h-22.4
						v-1.1C322.2,1829.3,325,1828.4,325,1823.6z M330.5,1776.7c4,0,7.4,3.2,7.4,7.2s-3.4,7.2-7.4,7.2c-3.9,0-7.4-3.2-7.4-7.2
						S326.4,1776.7,330.5,1776.7z"/>
					<path id="XMLID_763_" class="st3" d="M369.1,1823.6v-15.5c0-4.2-2-5.5-4.4-5.5c-1.7-0.1-3.4,0.5-4.8,1.2v19.8
						c0,4.8,2.2,5.8,3.5,6.3v1.1H342v-1.2c1.7-0.5,4.6-1.4,4.6-6.3v-21.4c0-4.8-2.9-5.8-4.6-6.3v-1h17.9v6.6c1.5-3.4,5.2-7,11.1-7
						c6.3,0,11.4,4.2,11.4,11.7v17.4c0,4.8,2.9,5.8,4.6,6.3v1.1h-21.4v-1.1C366.9,1829.3,369.1,1828.4,369.1,1823.6z"/>
					<path id="XMLID_765_" class="st3" d="M387.5,1839.6c0-3.3,3.2-5.3,6.3-6c-5.5-1.7-6.5-5.2-6.5-7.3c0-3.9,3.3-6.8,8.3-8.3
						c-4.1-2.2-7.2-5.8-7.2-10.8c0-8.7,8.8-12.8,16.4-12.8c2.9,0,6.1,0.6,8.8,2c2-5.3,7.2-7.3,11.6-6.3l-1.1,8h-0.5
						c-2.6-1.6-5.1-1.7-7.8-0.5c3.3,2.2,5.5,5.3,5.5,9.7c0,8.7-9,13-16.6,13c-2.4,0-4.7-0.4-7.1-1.2c-1.2,0.8-2.2,1.7-2.2,2.8
						c0,1.6,2.4,2.4,6.5,2.5l10.8,0.1c6.2,0.1,11.3,3.8,11.3,10.2c0,8-7.7,12.5-19.6,12.5C397.6,1847,387.5,1845.6,387.5,1839.6z
						 M407,1844c5.7,0,9.7-2.2,9.7-5.4c0-2.9-3.1-3.7-6.8-3.7l-8.7-0.1c-1.4,0-2.8-0.1-4-0.3c-1,0.8-1.2,2.1-1.2,2.9
						C395.8,1841.1,400.3,1844,407,1844z M404.7,1817.7c3.1,0,3.6-6.3,3.6-10.4c0-4.2-0.5-10.4-3.6-10.4s-3.5,6.3-3.5,10.4
						C401.1,1811.3,401.6,1817.7,404.7,1817.7z"/>
				</g>
				<g>
					<path class="st4" d="M104.9,1779.2l-3.3,18.8H90l0.8-7.2h-4.6l-4.6,26.1h5.7l-1.9,10.8H60.1l1.9-10.8h5.8l4.6-26.1h-4.7
						L66,1798H54.4l3.3-18.8H104.9L104.9,1779.2z"/>
					<path class="st4" d="M107.6,1802.9h-4.8l1.7-9.5H122l-3.7,21.1c-0.7,4.2,2,4,5.1,3.4l-1.7,9.4c-11.4,3.1-18.7,0.8-16.3-12.6
						L107.6,1802.9z M118.7,1777.3c3.1,0,6,1.9,6,5.6c0,4.9-4.5,7.6-8.3,7.6c-3.4,0-6.3-1.9-6.3-5.6
						C110.1,1780,114.5,1777.3,118.7,1777.3z"/>
					<path class="st4" d="M172.7,1802.7H168l-4.4,24.8c-2.1,11.8-9.9,17.4-21.9,17.4c-10.7,0-18.2-4.6-16.9-14.7l12.7,0.1
						c0,2.9,2.4,4.2,5.4,4.2c4.2,0,7.4-2.6,8.2-6.7l0.8-4.5c-3.4,3.7-8.5,4.6-12.3,4.4c-8.5-0.5-13-5.9-13-13.9
						c0-11.9,8.7-21.2,20.2-21.2c4.9,0,8.1,1.7,9.3,4.4l1.3-3.7c5.6,0,11.1,0,16.7,0L172.7,1802.7z M139.7,1811.7c0,3.7,2.4,6,5.7,6
						c4.9,0,8.6-4,8.6-8.7c0-3.7-2-6-6-6C143.7,1802.9,139.7,1806.2,139.7,1811.7z"/>
				</g>
			</g>
			<g id="Calque_2" class="st1">
				<g>
					<g>
						<g>
							<g>
								<g>
									<defs>
										<path id="SVGID_1_" d="M156.1,1781.2v-1.2h24.5v1.2c-1.7,0.5-5.5,1.2-3.8,6.7l8.4,25.6l7.4-20l-1.7-5.5
											c-1.6-5-4.3-6.1-6.2-6.7v-1.2h24.6v1.2c-2.2,0.6-5.4,1.4-3.8,6.7l8.1,25.6l9.1-25.6c1.7-4.7-1.2-6.1-3.6-6.6v-1.2h14.5
											v1.2c-2.6,0.6-6.1,1.6-7.8,6.6l-15.3,43h-5.7l-10.8-33.3l-12.1,33.3h-5.7l-14-43C160.6,1782.9,158,1781.9,156.1,1781.2z"
											/>
									</defs>
									<clipPath id="SVGID_2_">
										<use xlink:href="#SVGID_1_"  style="overflow:visible;"/>
									</clipPath>
									<path class="st5" d="M172.7,1802.7H168l-4.4,24.8c-2.1,11.8-9.9,17.4-21.9,17.4c-10.7,0-18.2-4.6-16.9-14.7l12.7,0.1
										c0,2.9,2.4,4.2,5.4,4.2c4.2,0,7.4-2.6,8.2-6.7l0.8-4.5c-3.4,3.7-8.5,4.6-12.3,4.4c-8.5-0.5-13-5.9-13-13.9
										c0-11.9,8.7-21.2,20.2-21.2c4.9,0,8.1,1.7,9.3,4.4l1.3-3.7c5.6,0,11.1,0,16.7,0L172.7,1802.7z M139.7,1811.7
										c0,3.7,2.4,6,5.7,6c4.9,0,8.6-4,8.6-8.7c0-3.7-2-6-6-6C143.7,1802.9,139.7,1806.2,139.7,1811.7z"/>
								</g>
							</g>
						</g>
					</g>
				</g>
			</g>
		</g>
		<g id="Calque_3">
			<path class="st6" d="M214.6,1459.1l5.3-15.7c1.9-5.6,1.1-6.7,0.2-6.7c-2.1,0-9,8.1-14.2,24.2l-3.3,10.8h-13l10.2-32.5
				c1.5-5.1-0.3-6.6-2.1-7.1l0.4-1.3h17l-4.4,14.1c5.8-10.5,11.4-14.7,16.5-14.7c5.4,0,8.4,4.8,6,11.7l-5.8,17.5c-1.6,5-1,6.9,0,6.9
				s3-1.5,6.4-7.5l0.9,0.7c-3.1,7.3-8.7,13.1-14.7,13.1C214.5,1472.7,211.6,1468,214.6,1459.1z"/>
		</g>
	</g>
	<g id="Sauvegarde" class="st1">
		<g id="Calque_5">
			<rect x="199" y="719.5" class="st2" width="360.1" height="1.8"/>
			<rect x="-15.6" y="760.4" class="st2" width="201.4" height="1.8"/>
		</g>
		
			<text transform="matrix(1 0 0 1 -22.0001 735.8652)" class="st4" style="font-family:'DentonCondensedTest-BlackItalic'; font-size:70.1261px;">Welding</text>
		
			<text transform="matrix(1 0 0 1 175.4373 774.8652)" class="st3" style="font-family:'NexaSlabHeavyOblique'; font-size:70.1261px;">Safety</text>
	</g>
	<g id="Sauvegarde_1_" class="st1">
		<g id="Calque_5_1_">
			<rect x="199" y="719.5" class="st2" width="208.3" height="1.8"/>
			<rect x="-15.6" y="760.4" class="st2" width="201.4" height="1.8"/>
		</g>
		<g class="st7">
			<path class="st4" d="M-12.7,686.6l0.3-1.2H7.2l-0.4,1.2c-2,0.6-4.8,1.6-4.9,6.4l-0.7,26.4l12-20.3l0.1-5.8c0.1-5-1.8-6.2-3.1-6.7
				l0.4-1.2h19.5l-0.3,1.2c-2,0.6-5,1.9-5,6.7L24,719.5L38.6,693c2.7-4.8,0.9-6-0.9-6.5l0.3-1.1h11.7l-0.4,1.2
				c-2,0.5-5.3,1.5-8.1,6.5L17,735.9h-4.5l0.5-32.5l-18.9,32.5h-4.5l0.7-42.9C-9.6,688.3-11.3,687-12.7,686.6z"/>
			<path class="st4" d="M35.4,715.8c3.9-10.7,12.2-15.9,19.7-15.9c6.2,0,10.9,3.6,9.3,9.4c-1.8,6.5-9.9,9.3-18.9,10.4
				c-1.1,6.9,0.9,10.9,4.6,11.1c2.5,0.1,6.5-1.5,9.7-7.2l0.8,0.6c-4.2,9.3-10.9,12.6-15.9,12.6C36.1,736.7,31,727.7,35.4,715.8z
				 M55.6,707.4c0.8-2.5,1.3-5.4-0.6-5.4c-2.1,0-5.3,4.3-7.6,10.7c-0.7,1.9-1.2,3.6-1.5,5.3C51.8,716.4,54.3,711.6,55.6,707.4z"/>
			<path class="st4" d="M63.9,724.9L74,693.1c1.3-4.1-0.8-5-2.1-5.3l0.3-1.1l15.7-2.4L75,725.2c-1.4,4.3-0.9,6,0,6
				c0.8,0,2.6-1.3,5.5-6.5l0.8,0.6c-2.7,6.3-7.4,11.4-12.6,11.4C64.1,736.7,61.4,732.7,63.9,724.9z"/>
			<path class="st4" d="M99.5,728.5c-3,5.9-6.4,8.2-10,8.2c-6.8,0-8.8-8.8-5.3-19.2c4.3-12.9,13.5-18.4,19.4-17.6
				c2.2,0.3,3.4,1.3,4.1,2.4l3-9.2c1.1-4.2-0.8-5-2-5.3l0.2-1.1l15.8-2.4l-13.3,40.9c-1.3,4.3-0.9,6,0,6s2.7-1.5,5.5-6.5l0.8,0.6
				c-2.7,6.3-7.6,11.4-12.8,11.4C101.1,736.7,98.8,734,99.5,728.5z M101.8,720.6l5.4-16.4c-0.4-0.7-1-1-1.9-1
				c-2.5,0-5.4,3.2-8.8,13.3c-2.5,7.4-3.9,13.8-1.3,14.2C96.4,730.8,98.8,728.9,101.8,720.6z"/>
			<path class="st4" d="M119.9,724.9l5.6-18c1.1-4.2-0.7-5-2-5.5l0.3-1.1h15.1l-7.8,24.9c-1.4,4.3-0.9,6,0,6c0.8,0,2.6-1.3,5.5-6.5
				l0.7,0.6c-2.7,6.3-7.4,11.4-12.7,11.4C119.8,736.7,117.4,732.6,119.9,724.9z M134.8,684.6c3.4,0,6.1,2.9,6,6.5
				c-0.1,3.5-2.7,6.4-6.2,6.4c-3.4,0-6-2.7-6-6.3C128.6,687.6,131.4,684.6,134.8,684.6z"/>
			<path class="st4" d="M158.4,724.9l4.6-13.7c1.6-4.8,1-5.8,0.1-5.8c-1.8,0-7.9,7-12.3,21l-2.9,9.4h-11.3l8.8-28.3
				c1.3-4.4-0.3-5.8-1.8-6.2l0.4-1.1h14.8l-3.8,12.3c5-9.1,9.9-12.8,14.4-12.8c4.7,0,7.3,4.1,5.3,10.2l-5,15.2c-1.4,4.3-0.9,6,0,6
				c0.8,0,2.6-1.3,5.5-6.5l0.8,0.6c-2.7,6.3-7.6,11.4-12.8,11.4C158.4,736.7,155.8,732.6,158.4,724.9z"/>
			<path class="st4" d="M172.7,742c1.2-4.2,7.1-4.8,11.6-2l0.2,0.6c-1.8,0.6-2.8,1.8-3.1,3.1c-0.9,3.4,2.3,5.3,6.7,5.4
				c3.3,0.1,7.2-1.3,8.2-4.3c0.9-2.6-0.5-4.8-4.2-5.6l-9-1.9c-7.7-1.6-7.9-6-7.1-8.4c1.1-3.1,3.8-4.6,6.9-5.6
				c-2.9-2.2-4.4-6.2-2.9-11.3c2.4-8.1,10.4-12.1,16.8-12.1c4.1,0.1,7.6,1.7,9.5,4.5c1.8-3.3,5-5.6,8.5-4.3l-2.5,6.4
				c-1.3-0.8-3.2-1.3-5.1-0.3c0.8,2.1,0.9,4.6,0.1,7.4c-2.5,8.6-11.6,12-17.4,12c-2,0-3.7-0.4-5.3-1.2c-0.6,0.4-0.8,0.8-1,1.2
				c-0.3,1.1,0.5,1.9,3.4,2.5l9,1.9c8.3,1.8,9.5,7.6,7.8,12.3c-2.2,5.9-8.9,9.3-16.8,9.1C179.5,751.3,170.9,748.1,172.7,742z
				 M196.5,712.8c1.3-4.5,2.9-10.8,0.4-10.8s-4.8,5.9-6.2,10.7c-1.4,4.7-3,10.7-0.4,10.7C192.7,723.5,195,717.9,196.5,712.8z"/>
		</g>
		<g class="st7">
			<path class="st3" d="M175.9,770l2.2-12.1h9.3l-0.6,7c1.8,0.8,5.2,1.7,9,1.7c5.8,0,11.9-1.4,11.9-7c0-4.7-6.9-4.8-10-5.4
				c-9.8-1.1-17.5-4.6-15.8-15.3c1.8-9.7,11.5-14.2,22.6-14.2c8.9,0,13.4,2.6,16.1,5.6c-0.8,4.1-1.3,6.4-2,10.4h-9l0.5-5.8
				c-1.9-0.9-3.9-1.3-7.4-1.3c-4.9,0-9.5,1.5-10.2,5.6c-0.7,3.5,2.2,4.9,8,5.6c10.4,1.3,19.6,4.6,18.1,15.8
				c-1,9.7-8.3,15.4-24.1,15.4C185.2,775.8,179.7,773.8,175.9,770z"/>
			<path class="st3" d="M265.1,766.4l-1.5,8.5h-13.3l0.1-3.9c-5.3,4.6-8.6,4.8-13.6,4.8c-8.5,0-13.7-5.9-13.7-14.9
				c0-11.2,8-21,20.5-21.6c4.8,0,8.9,0.6,11.6,4.4l1.1-3.6h13.2l-1.5,8.7h-4.4l-3.1,17.6H265.1z M233.1,759.5c0,4.5,2.6,7.7,7.6,7.7
				c6.1,0,10.9-4.1,11.9-9.3c1-5.5-1.8-9.5-7.9-9.5C238.1,748.4,233.1,753.5,233.1,759.5z"/>
			<path class="st3" d="M291.1,766.5l-1.5,8.3h-20l1.5-8.3h4.9l3.2-17.7h-6.3l1.3-7.8h6.3l0.4-1.9c2-10.8,9.2-14,16.1-14
				c2.4,0,4.5,0.4,6.7,1.7l-3.6,7.5c-1.1-0.6-2.5-0.8-3.6-0.8c-2.9,0-5.3,1.8-6,5.8l-0.3,1.8h7.3l-1.3,7.8h-7.4l-3.2,17.7
				L291.1,766.5L291.1,766.5z"/>
			<path class="st3" d="M330.8,770.4c-4.5,3.7-11,5.5-16.1,5.5c-11.6,0-16.3-6.6-16.3-15.1c0-12.8,9.3-21.7,22.3-21.7
				c10.9,0,17.8,6.1,13,21.8H308c-0.1,3.5,2,6.1,8.4,6.1c2.8,0,7-1.1,9.7-3L330.8,770.4z M325.9,753.5c0.9-4.3-2.4-6-6.7-6
				c-4.5,0-8.4,2-10,6H325.9z"/>
			<path class="st3" d="M357.3,730.8l-1.7,9.6h9l-1.5,8.3H354l-2.4,13.6c-0.7,4.3,2.9,5.3,7.4,3.6l0.8,8.1c-3.6,1.3-5.5,1.5-8.6,1.5
				c-6.3-0.1-10.9-3.7-9.2-13.1l2.4-13.6h-6l1.5-8.3h6l1.5-8.6L357.3,730.8z"/>
			<path class="st3" d="M381.6,775.2c-8.2,0-14.5-4.1-12.2-17.4l1.6-9.3h-5l1.5-8.5h14.7l-3.2,17.8c-0.8,4.2-0.9,8.6,6.5,8.6
				c5.1-0.1,8.1-4,9-9l1.6-9h-5.2l1.5-8.5h14.9l-6.1,34.7c-2.4,13.4-10.7,18-20.6,18c-9.5,0-16.2-4.1-14.7-14.5h9.6
				c-0.4,3.8,2.2,5.5,6.4,5.5c4.7,0,9.1-3.1,10.1-8.8l0.7-3.9C389.4,774.3,386.3,775.2,381.6,775.2z"/>
		</g>
	</g>
	<g id="Calque_2_1_" class="st1">
		<g>
			<g>
				<defs>
					<path id="SVGID_3_" d="M172.7,742c1.2-4.2,7.1-4.8,11.6-2l0.2,0.6c-1.8,0.6-2.8,1.8-3.1,3.1c-0.9,3.4,2.3,5.3,6.7,5.4
						c3.3,0.1,7.2-1.3,8.2-4.3c0.9-2.6-0.5-4.8-4.2-5.6l-9-1.9c-7.7-1.6-7.9-6-7.1-8.4c1.1-3.1,3.8-4.6,6.9-5.6
						c-2.9-2.2-4.4-6.2-2.9-11.3c2.4-8.1,10.4-12.1,16.8-12.1c4.1,0.1,7.6,1.7,9.5,4.5c1.8-3.3,5-5.6,8.5-4.3l-2.5,6.4
						c-1.3-0.8-3.2-1.3-5.1-0.3c0.8,2.1,0.9,4.6,0.1,7.4c-2.5,8.6-11.6,12-17.4,12c-2,0-3.7-0.4-5.3-1.2c-0.6,0.4-0.8,0.8-1,1.2
						c-0.3,1.1,0.5,1.9,3.4,2.5l9,1.9c8.3,1.8,9.5,7.6,7.8,12.3c-2.2,5.9-8.9,9.3-16.8,9.1C179.5,751.3,170.9,748.1,172.7,742z
						 M196.5,712.8c1.3-4.5,2.9-10.8,0.4-10.8s-4.8,5.9-6.2,10.7c-1.4,4.7-3,10.7-0.4,10.7C192.7,723.5,195,717.9,196.5,712.8z"/>
				</defs>
				<clipPath id="SVGID_4_">
					<use xlink:href="#SVGID_3_"  style="overflow:visible;"/>
				</clipPath>
				<path class="st8" d="M175.9,770l2.2-12.1h9.3l-0.6,7c1.8,0.8,5.2,1.7,9,1.7c5.8,0,11.9-1.4,11.9-7c0-4.7-6.9-4.8-10-5.4
					c-9.8-1.1-17.5-4.6-15.8-15.3c1.8-9.7,11.5-14.2,22.6-14.2c8.9,0,13.4,2.6,16.1,5.6c-0.8,4.1-1.3,6.4-2,10.4h-9l0.5-5.8
					c-1.9-0.9-3.9-1.3-7.4-1.3c-4.9,0-9.5,1.5-10.2,5.6c-0.7,3.5,2.2,4.9,8,5.6c10.4,1.3,19.6,4.6,18.1,15.8
					c-1,9.7-8.3,15.4-24.1,15.4C185.2,775.8,179.7,773.8,175.9,770z"/>
			</g>
		</g>
	</g>
	<g id="Calque_3_1_" class="st1">
		<g id="Calque_5_-_copie">
			<rect x="189.9" y="1080.8" class="st2" width="360.1" height="1.8"/>
			<rect x="-20.2" y="1117.5" class="st2" width="201.4" height="1.8"/>
		</g>
		<g>
			<path class="st4" d="M-21.8,1047.9l0.3-1.2H-2l-0.4,1.2c-2,0.6-4.8,1.6-4.9,6.4l-0.7,26.3l12-20.3l0.1-5.8c0.1-5-1.8-6.2-3.1-6.7
				l0.4-1.2h19.5l-0.3,1.2c-2,0.6-5,1.9-5,6.7l-0.8,26.2l14.9-26.4c2.7-4.8,0.9-6-0.9-6.5l0.3-1.1h11.7l-0.4,1.2
				c-2,0.5-5.3,1.5-8.1,6.5l-24.1,42.8H3.7l0.5-32.5l-19.2,32.5h-4.5l0.7-42.9C-18.7,1049.6-20.4,1048.3-21.8,1047.9z"/>
			<path class="st4" d="M26.3,1077.1c3.9-10.7,12.2-15.9,19.7-15.9c6.2,0,10.9,3.6,9.3,9.4c-1.8,6.5-9.9,9.3-18.9,10.4
				c-1.1,6.9,0.9,10.9,4.6,11.1c2.5,0.1,6.5-1.5,9.7-7.2l0.8,0.6c-4.2,9.3-10.9,12.6-15.9,12.6C27,1098,21.9,1089,26.3,1077.1z
				 M46.5,1068.7c0.8-2.5,1.3-5.4-0.6-5.4c-2.1,0-5.3,4.3-7.6,10.7c-0.7,1.9-1.2,3.6-1.5,5.3C42.7,1077.8,45.2,1072.9,46.5,1068.7z"
				/>
			<path class="st4" d="M54.8,1086.2l10.1-31.8c1.3-4.1-0.8-5-2.1-5.3l0.3-1.1l15.7-2.4l-12.9,40.9c-1.4,4.3-0.9,6,0,6
				c0.8,0,2.6-1.3,5.5-6.5l0.8,0.6c-2.7,6.3-7.4,11.4-12.6,11.4C55,1098,52.3,1094,54.8,1086.2z"/>
			<path class="st4" d="M90.4,1089.8c-3,5.9-6.4,8.2-10,8.2c-6.8,0-8.8-8.8-5.3-19.2c4.3-12.9,13.5-18.4,19.4-17.6
				c2.2,0.3,3.4,1.3,4.1,2.4l3-9.2c1.1-4.2-0.8-5-2-5.3l0.2-1.1l15.8-2.4l-13.3,40.9c-1.3,4.3-0.9,6,0,6s2.7-1.5,5.5-6.5l0.8,0.6
				c-2.7,6.3-7.6,11.4-12.8,11.4C92,1098,89.7,1095.3,90.4,1089.8z M92.7,1081.9l5.4-16.4c-0.4-0.7-1-1-1.9-1
				c-2.5,0-5.4,3.2-8.8,13.3c-2.5,7.4-3.9,13.8-1.3,14.2C87.3,1092.1,89.7,1090.2,92.7,1081.9z"/>
			<path class="st4" d="M110.8,1086.2l5.6-18c1.1-4.2-0.7-5-2-5.5l0.3-1.1h15.1l-7.8,24.9c-1.4,4.3-0.9,6,0,6c0.8,0,2.6-1.3,5.5-6.5
				l0.7,0.6c-2.7,6.3-7.4,11.4-12.7,11.4C110.7,1098,108.3,1094,110.8,1086.2z M125.7,1045.9c3.4,0,6.1,2.9,6,6.5
				c-0.1,3.5-2.7,6.4-6.2,6.4c-3.4,0-6-2.7-6-6.3C119.5,1048.9,122.3,1045.9,125.7,1045.9z"/>
			<path class="st4" d="M149.3,1086.2l4.6-13.7c1.6-4.8,1-5.8,0.1-5.8c-1.8,0-7.9,7-12.3,21l-2.9,9.4h-11.3l8.8-28.3
				c1.3-4.4-0.3-5.8-1.8-6.2l0.4-1.1h14.8l-3.8,12.3c5-9.1,9.9-12.8,14.4-12.8c4.7,0,7.3,4.1,5.3,10.2l-5,15.2c-1.4,4.3-0.9,6,0,6
				c0.8,0,2.6-1.3,5.5-6.5l0.8,0.6c-2.7,6.3-7.6,11.4-12.8,11.4C149.3,1098,146.7,1094,149.3,1086.2z"/>
			<path class="st4" d="M163.6,1103.3c1.2-4.2,7.1-4.8,11.6-2l0.2,0.6c-1.8,0.6-2.8,1.8-3.1,3.1c-0.9,3.4,2.3,5.3,6.7,5.4
				c3.3,0.1,7.2-1.3,8.2-4.3c0.9-2.6-0.5-4.8-4.2-5.6l-9-1.9c-7.7-1.6-7.9-6-7.1-8.4c1.1-3.1,3.8-4.6,6.9-5.6
				c-2.9-2.2-4.4-6.2-2.9-11.3c2.4-8.1,10.4-12.1,16.8-12.1c4.1,0.1,7.6,1.7,9.5,4.5c1.8-3.3,5-5.6,8.5-4.3l-2.5,6.4
				c-1.3-0.8-3.2-1.3-5.1-0.3c0.8,2.1,0.9,4.6,0.1,7.4c-2.5,8.6-11.6,12-17.4,12c-2,0-3.7-0.4-5.3-1.2c-0.6,0.4-0.8,0.8-1,1.2
				c-0.3,1.1,0.5,1.9,3.4,2.5l9,1.9c8.3,1.8,9.5,7.6,7.8,12.3c-2.2,5.9-8.9,9.3-16.8,9.1C170.4,1112.6,161.8,1109.4,163.6,1103.3z
				 M187.4,1074.1c1.3-4.5,2.9-10.8,0.4-10.8s-4.8,5.9-6.2,10.7c-1.4,4.7-3,10.7-0.4,10.7C183.6,1084.8,185.9,1079.2,187.4,1074.1z"
				/>
		</g>
		<g>
			<path class="st3" d="M200.8,1126.5l1.8-7.3h9.1l-3,17h-42.3l1.7-9.5h5.5l5.3-30.3h-5.1l1.6-9.3h40.8l-2.9,16.6h-8.8l0.8-7.2H189
				l-1.8,10.1h14.9l-1.6,9.3h-14.9l-1.9,10.6H200.8L200.8,1126.5z"/>
			<path class="st3" d="M258.3,1101.3l-7.4,42.1h4.1l-1.5,8.7h-18.6l1.5-8.7h5l1.9-10.6c-3.3,3-7.4,4.4-12.1,4.4
				c-9.6,0-14.6-6-14.6-14.7c0-12.3,8.3-21.5,20.8-21.6c5.3,0.1,8.4,1.6,10.4,5.1l1.3-4.7H258.3L258.3,1101.3z M244.9,1117
				c0-4.8-3.3-7.2-7.5-7.2c-6.2,0-10.5,5-10.5,10.7c0,4.5,2.7,7.3,7.5,7.3C238.4,1127.8,244.9,1124.5,244.9,1117z"/>
			<path class="st3" d="M299.4,1127.4h4.8l-1.5,8.8h-12.2l-0.2-4.3c-4.5,3.9-9,4.9-12.3,5c-12.7,0-14.4-7.8-12.6-17.6l1.7-9.5h-4.5
				l1.5-8.3h14.2l-3.2,17.7c-0.8,4.8-0.6,8.3,6.7,8.3c4.8-0.1,8.6-4.1,9.5-8.9l1.5-8.8h-5.2l1.5-8.3H304L299.4,1127.4z"/>
			<path class="st3" d="M328.1,1101.3l-4.6,26.3h4l-1.5,8.6h-18.3l1.5-8.6h4.4l3.1-17.9h-4.3l1.5-8.4L328.1,1101.3L328.1,1101.3z
				 M319.1,1093c0-4.1,3.6-6.4,6.7-6.4c2.8,0,5,1.7,5,4.8c0,4-3.6,6.4-6.9,6.4C321.3,1097.8,319.1,1096,319.1,1093z"/>
			<path class="st3" d="M334.8,1109.8l1.5-8.5h13.8l-0.3,5.2c3.5-3.4,7.6-5.6,13-5.6c8.9,0,14,5.3,14,14.3c0,13.3-8.2,22-21.8,22
				c-3.5,0-7.4-1.1-10.1-4.6l-1.9,10.7h5l-1.5,8.8h-18.8l1.5-8.8h4.3l5.9-33.4L334.8,1109.8L334.8,1109.8z M366.4,1117.4
				c0-4.5-2.6-7-7.2-7c-6.7,0-10.6,5.5-10.6,10.4c0,3.7,2.1,7.6,7.1,7.6C362,1128.4,366.4,1123.9,366.4,1117.4z"/>
			<path class="st3" d="M378.6,1136.2l1.5-8.7h5l3.1-17.5h-4.6l1.5-8.6h13.7l0.4,3.7c2.5-3.2,6-4.3,9.3-4.3c4.8,0,7.9,2,8.6,6
				c3.4-4,7.4-5.9,12.6-5.9c11,0,13.2,5.9,11.4,16.1l-1.8,10.4h4.9l-1.5,8.7h-18.9l1.5-8.7h4.4l1.8-10.2c0.6-3.6,0.5-7.2-4.3-7.2
				c-4.7,0-7.2,3.9-7.9,7.6l-1.7,9.7h4.8l-1.5,8.7h-19.2l1.5-8.7h4.8l1.7-9.7c0.8-5-1-7.7-4.7-7.7c-4.1,0-7.1,2.6-8,7.7l-1.7,9.7
				h4.8l-1.5,8.7h-20L378.6,1136.2L378.6,1136.2z"/>
			<path class="st3" d="M481.4,1131.7c-4.5,3.7-11,5.5-16.1,5.5c-11.6,0-16.3-6.6-16.3-15.1c0-12.8,9.3-21.7,22.3-21.7
				c10.9,0,17.8,6.1,13,21.8h-25.6c-0.1,3.5,2,6.1,8.4,6.1c2.8,0,7-1.1,9.7-3L481.4,1131.7z M476.6,1114.8c0.9-4.3-2.4-6-6.7-6
				c-4.5,0-8.4,2-10,6H476.6z"/>
			<path class="st3" d="M503.1,1127.5h5.1l-1.5,8.7h-19.8l1.5-8.7h5.1l3.1-17.7h-4.8l1.5-8.5h13.5l0.1,3.6c3.8-3.2,7.8-4,10.5-4
				c9.5,0,14,4.5,11.9,16.9l-1.7,9.7h5l-1.5,8.7h-18.6l1.5-8.7h3.9l1.7-9.6c0.6-3.7,0.8-7.9-5.4-7.9c-4.8-0.1-8.5,3.2-9.4,8.5
				L503.1,1127.5z"/>
			<path class="st3" d="M556.2,1092.1l-1.7,9.6h9l-1.5,8.3h-9.1l-2.4,13.6c-0.7,4.3,2.9,5.3,7.4,3.6l0.8,8.1
				c-3.6,1.3-5.5,1.5-8.6,1.5c-6.3-0.1-10.9-3.7-9.2-13.1l2.4-13.6h-6l1.5-8.3h6l1.5-8.6L556.2,1092.1z"/>
		</g>
		<g id="Calque_4">
			<g>
				<g>
					<g>
						<defs>
							<path id="SVGID_5_" d="M163.6,1103.3c1.2-4.2,7.1-4.8,11.6-2l0.2,0.6c-1.8,0.6-2.8,1.8-3.1,3.1c-0.9,3.4,2.3,5.3,6.7,5.4
								c3.3,0.1,7.2-1.3,8.2-4.3c0.9-2.6-0.5-4.8-4.2-5.6l-9-1.9c-7.7-1.6-7.9-6-7.1-8.4c1.1-3.1,3.8-4.6,6.9-5.6
								c-2.9-2.2-4.4-6.2-2.9-11.3c2.4-8.1,10.4-12.1,16.8-12.1c4.1,0.1,7.6,1.7,9.5,4.5c1.8-3.3,5-5.6,8.5-4.3l-2.5,6.4
								c-1.3-0.8-3.2-1.3-5.1-0.3c0.8,2.1,0.9,4.6,0.1,7.4c-2.5,8.6-11.6,12-17.4,12c-2,0-3.7-0.4-5.3-1.2c-0.6,0.4-0.8,0.8-1,1.2
								c-0.3,1.1,0.5,1.9,3.4,2.5l9,1.9c8.3,1.8,9.5,7.6,7.8,12.3c-2.2,5.9-8.9,9.3-16.8,9.1
								C170.4,1112.6,161.8,1109.4,163.6,1103.3z M187.4,1074.1c1.3-4.5,2.9-10.8,0.4-10.8s-4.8,5.9-6.2,10.7
								c-1.4,4.7-3,10.7-0.4,10.7C183.6,1084.8,185.9,1079.2,187.4,1074.1z"/>
						</defs>
						<clipPath id="SVGID_6_">
							<use xlink:href="#SVGID_5_"  style="overflow:visible;"/>
						</clipPath>
						<path class="st9" d="M200.8,1126.5l1.8-7.3h9.1l-3,17h-42.3l1.7-9.5h5.5l5.3-30.3h-5.1l1.6-9.3h40.8l-2.9,16.6h-8.8l0.8-7.2
							H189l-1.8,10.1h14.9l-1.6,9.3h-14.9l-1.9,10.6H200.8L200.8,1126.5z"/>
					</g>
				</g>
			</g>
		</g>
	</g>
</g>
<g id="Calque_3_2_">
	<g id="Sauvegarde_2_">
		<g id="Calque_5_2_">
			<rect x="198.3" y="386.4" class="st2" width="376.2" height="1.8"/>
			<rect x="-4.1" y="427.3" class="st2" width="188.8" height="1.8"/>
		</g>
		<g class="st7">
			<path class="st4" d="M12.7,402.8c-2,0.6-4.1,0.8-6,0.8c-11.2-0.4-17.3-10.8-13.2-26.6c4.3-16.3,16.4-25.9,27.2-25.6
				c11.1,0.4,17,10.8,12.8,26.6c-2.8,10.9-8.7,18.5-15.4,22.4c2,4.5,4.3,8.5,8.3,8.5c2.1,0,4.5-1.2,6.8-3.2l1,0.2
				c-4,5.9-8.7,10.2-14,10.2C13.8,416.2,13.2,409.3,12.7,402.8z M9.1,388.9c2.7,0,4.5,2,6,4.8c2.2-4.4,4.1-10.2,5.6-16.1
				c3.1-11.5,5.8-23.8-0.4-24.1C14,353.3,9,365.9,6.1,377.2c-1.5,5.9-2.9,11.9-3.1,16.5C4,391.1,6.4,388.9,9.1,388.9z M6.9,401.4
				c2,0.1,3.8-1.1,5.4-3c-0.5-3.6-1.5-6.4-4.7-6.3c-2.8,0-4.8,4.3-3.4,8C4.9,400.9,5.7,401.3,6.9,401.4z"/>
			<path class="st4" d="M36.3,393.4l5.8-16.2c1.3-3.5,0.6-5-0.4-5c-0.8,0-2.5,1.2-5.4,6.2l-0.8-0.6c2.7-6.1,7.9-11.2,13.2-11.2
				c4.8,0,7.2,4,4.5,11l-5,13.4c-2.2,5.9-1.3,6.9-0.5,6.9c1.7,0,6.6-6.4,11.2-20l3.3-10.9h11.2l-7.8,25.4c-1.2,3.9-0.6,5.5,0.4,5.5
				c0.8,0,2.6-1.3,5.5-6.5l0.7,0.6c-2.7,6.3-7.6,11.4-12.8,11.4c-4.7,0-7.2-3.9-4.6-12.3l0.1-0.4c-4.7,9.1-8.9,12.8-13.5,12.8
				C37.1,403.6,34.1,399.5,36.3,393.4z"/>
			<path class="st4" d="M73.4,393.9c0-11.6,8.8-27.3,19.4-27.2c3.2,0,4.8,1.4,5.7,2.9l9.3-2.4h2.4l-8.1,24.9c-0.7,2.3-1.6,6,0,6
				c0.9,0,2.7-1.5,5.5-6.5l0.8,0.6c-2.7,6.3-7.6,11.4-12.8,11.4c-4.6,0-6.2-3.6-5.6-8.3c-3,6-6.3,8.3-9.9,8.3
				C75.8,403.6,73.4,399.8,73.4,393.9z M92.7,386.2l0.6-2l0.1-0.3l3.6-11.1c0.5-2.1-0.3-3.1-1.5-3.1c-2.3,0-5.2,3.5-8.5,13.6
				c-1.5,4.6-4.5,14.2-1.2,14.2C87.2,397.6,89.6,395.3,92.7,386.2z"/>
			<path class="st4" d="M110.9,391.8L121,360c1.3-4.1-0.8-5-2.1-5.3l0.3-1.1l15.7-2.4L122,392.1c-1.4,4.3-0.9,6,0,6
				c0.8,0,2.6-1.3,5.5-6.5l0.8,0.6c-2.7,6.3-7.4,11.4-12.6,11.4C111.1,403.6,108.4,399.6,110.9,391.8z"/>
			<path class="st4" d="M131,391.8l5.6-18c1.1-4.2-0.7-5-2-5.5l0.3-1.1H150l-7.8,24.9c-1.4,4.3-0.9,6,0,6c0.8,0,2.6-1.3,5.5-6.5
				l0.7,0.6c-2.7,6.3-7.4,11.4-12.7,11.4C130.9,403.6,128.6,399.5,131,391.8z M146,351.5c3.4,0,6.1,2.9,6,6.5
				c-0.1,3.5-2.7,6.4-6.2,6.4c-3.4,0-6-2.7-6-6.3C139.7,354.5,142.5,351.5,146,351.5z"/>
			<path class="st4" d="M150.9,391.8l6.7-22.2h-4.2l0.2-1c5.6-2,12.6-6.1,17.7-12.1h1.4l-3.2,10.7h6.9l-0.7,2.3h-6.9l-6.8,22.7
				c-1.3,4.3-0.8,5.8,0.4,5.8c1.3,0,3.9-2,6.4-6.5l0.7,0.6c-3.2,6.3-8.1,11.5-13.3,11.5C151.1,403.6,148.6,399.5,150.9,391.8z"/>
			<path class="st4" d="M166.6,405.8l0.7-0.1c3.3,4.7,8.4,7.8,13.5,3.5l-3.9-33.7c-0.6-4.6-1.6-5.4-3.1-5.6l0.3-1.1l12.8-2.5
				l3.4,33.8c7.2-11.8,6.7-22.5,1.9-29.2l0.1-0.6l12.6-4.1c0.4,12.6-6.2,25.7-13.3,35.3c-6.7,9-16.3,17.6-29.9,14.4L166.6,405.8z"/>
		</g>
		<g class="st7">
			<path class="st3" d="M221.5,396.6c-0.7,3.7-1.6,7.9-2.3,11.4h-9.3l0.7-6.2c-2-0.5-3.7-0.7-5.8-0.7c-11.4,0-17.6,8.5-18.8,16.2
				c-1.3,7.4,0.3,15.6,13.2,15.6c3.7,0,9.6-1.9,12.9-4.8l4.9,7.6c-6.1,4.9-12.4,7-19.5,7c-18.7,0-24.3-12-22-25.6
				c2-12.6,13-25.5,30.9-25.5C212.1,391.6,217.3,393.3,221.5,396.6z"/>
			<path class="st3" d="M242.6,406.1c10.3,0,15.7,6.2,15.7,15c0,11.6-8.6,21.5-22.1,21.5c-10.1,0-15.6-6.3-15.6-15
				C220.7,415.5,229.8,406.1,242.6,406.1z M241.6,414.8c-6.9,0-10.9,5.3-11.1,11.3c-0.1,4,2,7.4,7,7.4c6.1,0,9.6-4.2,10.8-9
				C249.4,418.9,246.9,414.8,241.6,414.8z"/>
			<path class="st3" d="M276.1,433.1h5.1l-1.5,8.7h-19.8l1.5-8.7h5.1l3.1-17.7h-4.8l1.5-8.5h13.5l0.1,3.6c3.8-3.2,7.8-4,10.5-4
				c9.5,0,14,4.5,11.9,16.9l-1.7,9.7h5l-1.5,8.7h-18.6l1.5-8.7h3.9l1.7-9.6c0.6-3.7,0.8-7.9-5.4-7.9c-4.8-0.1-8.5,3.2-9.4,8.5
				L276.1,433.1z"/>
			<path class="st3" d="M329.2,397.7l-1.7,9.6h9l-1.5,8.3h-9.1l-2.4,13.6c-0.7,4.3,2.9,5.3,7.4,3.6l0.8,8.1
				c-3.6,1.3-5.5,1.5-8.6,1.5c-6.3-0.1-10.9-3.7-9.2-13.1l2.4-13.6h-6l1.5-8.3h6l1.5-8.6L329.2,397.7z"/>
			<path class="st3" d="M344.8,415.4h-4.5l1.5-8.5h12.8l0.3,3.3c3.2-3,6.8-4.2,10.5-4.2c3.1,0,6.6,1,8.8,3.4l-6,8.3
				c-1.5-1.5-3.8-2.2-6.1-2.2c-3.9,0-8.1,2.2-9.1,8.3l-1.7,9.5h4.8l-1.5,8.4h-19.9l1.5-8.4h5.3L344.8,415.4z"/>
			<path class="st3" d="M394.5,406.1c10.3,0,15.7,6.2,15.7,15c0,11.6-8.6,21.5-22.1,21.5c-10.1,0-15.6-6.3-15.6-15
				C372.5,415.5,381.7,406.1,394.5,406.1z M393.4,414.8c-6.9,0-10.9,5.3-11.1,11.3c-0.1,4,2,7.4,7,7.4c6.1,0,9.6-4.2,10.8-9
				C401.3,418.9,398.8,414.8,393.4,414.8z"/>
			<path class="st3" d="M420,392.7h14.2l-7.1,40.5h4.2l-1.5,8.6h-18.7l1.5-8.6h4.8l5.6-32h-4.5L420,392.7z"/>
		</g>
	</g>
</g>
<g id="Calque_4_1_">
	<g>
		<g>
			<defs>
				<path id="SVGID_7_" d="M166.6,405.8l0.7-0.1c3.3,4.7,8.4,7.8,13.5,3.5l-3.9-33.7c-0.6-4.6-1.6-5.4-3.1-5.6l0.3-1.1l12.8-2.5
					l3.4,33.8c7.2-11.8,6.7-22.5,1.9-29.2l0.1-0.6l12.6-4.1c0.4,12.6-6.2,25.7-13.3,35.3c-6.7,9-16.3,17.6-29.9,14.4L166.6,405.8z"
					/>
			</defs>
			<clipPath id="SVGID_8_">
				<use xlink:href="#SVGID_7_"  style="overflow:visible;"/>
			</clipPath>
			<path class="st10" d="M221.5,396.6c-0.7,3.7-1.6,7.9-2.3,11.4h-9.3l0.7-6.2c-2-0.5-3.7-0.7-5.8-0.7c-11.4,0-17.6,8.5-18.8,16.2
				c-1.3,7.4,0.3,15.6,13.2,15.6c3.7,0,9.6-1.9,12.9-4.8l4.9,7.6c-6.1,4.9-12.4,7-19.5,7c-18.7,0-24.3-12-22-25.6
				c2-12.6,13-25.5,30.9-25.5C212.1,391.6,217.3,393.3,221.5,396.6z"/>
		</g>
	</g>
</g>
</svg>
