<?xml version="1.0" encoding="utf-8"?>
<!-- Generator: Adobe Illustrator 19.0.0, SVG Export Plug-In . SVG Version: 6.00 Build 0)  -->
<svg version="1.1" id="Calque_1" xmlns="http://www.w3.org/2000/svg" xmlns:xlink="http://www.w3.org/1999/xlink" x="0px" y="0px"
	 viewBox="194 147 1000 500" style="enable-background:new 194 147 1000 500;" xml:space="preserve">
<style type="text/css">
	.st0{display:none;}
	.st1{display:inline;fill:#161616;}
	.st2{fill:#FFFFFF;}
	.st3{fill:#3AF9BA;}
	.st4{fill:#F2DBC2;}
	.st5{fill:#C1272D;}
	.st6{clip-path:url(#SVGID_2_);}
	.st7{clip-path:url(#SVGID_4_);}
	.st8{clip-path:url(#SVGID_6_);}
	.st9{fill:#FF5F5F;}
	.st10{fill:#E20707;}
	.st11{fill:#C10000;}
	.st12{fill:#EDBF00;}
	.st13{clip-path:url(#SVGID_8_);fill:#FFCE00;}
	.st14{clip-path:url(#SVGID_10_);}
	.st15{opacity:0.7;fill:#FFFFFF;enable-background:new    ;}
	.st16{opacity:0.7;}
	.st17{fill:#4C4C4A;}
	.st18{fill:#C1C1C1;}
	.st19{fill:#939393;}
	.st20{fill:#969696;}
	.st21{clip-path:url(#SVGID_12_);}
	.st22{fill:#E5E5E5;}
</style>
<g id="Calque_2" class="st0">
	<rect id="XMLID_1_" x="194" y="147" class="st1" width="1000" height="500"/>
</g>
<g id="Calque_1_1_">
	<g id="XMLID_88_">
		<path id="XMLID_916_" class="st2" d="M695.6,314.8h-44.3l-5.2,11.8h10.8v20.2h-43.4v-20.2h9.3l30.1-64.7H643V242h43.7l36.8,84.6
			h9.1v20.2H689v-20.2h11.5L695.6,314.8z M666.7,280.7l-6.9,15.3h27.9l-6.4-15.3l-6.9-18.6L666.7,280.7z"/>
		<path id="XMLID_919_" class="st2" d="M738.1,346.9v-18.6h10.3v-68h-9.9v-18.1h30.7v38.6c4.9-6.1,14.4-10.2,24.4-10.2
			c21.6,0,36.2,12.6,36.2,39.2c0,25.6-15.9,38.6-38.3,38.3c-7.8,0-17.7-2.8-22.3-9.7l-1.5,8.4h-29.6V346.9z M770.8,309.3
			c0,15.1,11.5,19.6,19,19.6c10.3,0,18.7-7.2,18.7-19c0-13.8-8.7-19.8-19.3-19.8C783.2,290.1,770.9,294.3,770.8,309.3z"/>
		<path id="XMLID_922_" class="st2" d="M878.9,270.6c25.3,0,39.5,16.3,39.5,39.2c0,21.1-14.7,38.8-39.4,38.8s-39.4-16.5-39.4-38.8
			C839.7,287,854.8,270.6,878.9,270.6z M879.4,289.4c-12.6,0-18.9,8.7-18.9,20.5c0,10.3,6,19.3,18.6,19.3s18.6-9,18.9-19.3
			C897.9,298,890.7,289.4,879.4,289.4z"/>
		<path id="XMLID_925_" class="st2" d="M1011.8,328.1h10.3v18.7H996l-2.1-9.4c-8.2,8.2-17.4,10.6-24.4,10.8
			c-27.1,0-33.6-16.6-33.6-37.6v-20.4h-9.6v-17.7h30.3v37.9c0,10.3,3.6,17.7,17.8,17.7c10-0.3,16.5-8.7,16.5-19v-18.9h-11.1v-17.7
			h31.9L1011.8,328.1L1011.8,328.1z"/>
		<path id="XMLID_927_" class="st2" d="M1061.6,252.7v20.5h19.2V291h-19.5v29.1c0,9.1,8.1,11.4,16.8,7.6l5.1,17.2
			c-7.2,2.7-11.2,3.1-17.8,3.1c-17.1-0.1-24.6-7.9-24.6-28v-29h-12.9v-17.8h12.9v-18.3L1061.6,252.7z"/>
		<path id="XMLID_906_" class="st3" d="M761.5,405.9l22.9-75.1h-2.7c-17.7-0.3-25.8,10.4-30.5,19.4l-2.2-0.1l6.9-19.4l1.6-4.3H834
			l-1.2,4.3l-5,19.4l-2.2,0.1c0.8-9-1.2-19.7-19.2-19.4h-2.3L781,405.9c-3,9.5,1.4,11.5,6,12.3l-0.5,2.1H747l0.7-2.1
			C752.1,417.4,758.6,415.6,761.5,405.9z"/>
		<path id="XMLID_860_" class="st4" d="M836.2,330.6l0.5-2l28.4-5l-17.3,57.2c11.2-20.9,22.6-27.1,31-27.1c9.4,0,14.7,7.3,11.1,18.1
			l-9.8,29.2c-2.9,8.5-1.7,11.7,0.8,11.7c2.3,0,6.6-3,12.4-12.4l1.4,1c-5.1,11.1-14.3,20.3-24.1,20.3c-7.8,0-13.8-7-9-20.6l9.4-27
			c3-8.9,0.9-11.1-1.4-11.1c-5,0-18.9,12.1-29.3,42.8l-4.4,14.6h-18.4l24.2-79.1C844.4,332.1,840.2,330.8,836.2,330.6z"/>
		<path id="XMLID_910_" class="st3" d="M899.4,401.2l10.7-34.3c2.1-8.1-1.7-9.6-5.6-10.3l0.5-2.1h27.4L917.8,401
			c-2.7,8.5-1.7,11.7,0.8,11.7c2.3,0,6.8-3,12.4-12.4l1.4,1c-5.1,11.1-14.2,20.3-24,20.3C899.6,421.8,895.1,414.7,899.4,401.2z
			 M926,326.8c5.9,0,10.6,4.7,10.6,10.6c0,6-4.7,10.7-10.6,10.7c-6,0-10.7-4.7-10.7-10.7C915.3,331.5,920,326.8,926,326.8z"/>
		<path id="XMLID_913_" class="st3" d="M930.9,415.2l5.9-17.7h1.4c1.4,5.9,3.7,10.7,6.5,14.2c3.4,4.4,7.2,6.5,11.3,6.5
			c4.3,0,8.3-2.5,8.9-6.8c0.7-7-8.7-16-14.7-22.4c-6-6-8.3-9.9-7.8-15.8c0.5-11.9,10.8-19.4,25-19.6c7.4,0,14.2,2,20.7,5.2
			l-5.7,17.3H981c-0.8-4.2-2.1-8.5-3.8-11.2c-2.9-5-6.9-7.7-11.2-7.6c-4.2,0-8.2,2.6-8.6,7c-0.3,5.7,7,12.1,14.6,20.9
			c5.7,6,8.2,11,7.6,17.3c-0.9,10.2-9,19.2-24.4,19.3C946.3,422.1,937.6,419,930.9,415.2z"/>
		<path id="XMLID_887_" class="st5" d="M695.5,501h-22.2l-13.6-33.6l-8.8-24.3l-8.4,24.4l-13,33.4h-22.9l-28.5-84.8h-10.6V396H614
			v20.1h-10.9l16.3,53.2l24.3-68.9h15l24.9,68.9l15.4-53.2h-11.1V396h45.5v20.1h-9.6L695.5,501z"/>
		<path id="XMLID_889_" class="st5" d="M804.5,491.4c-8.1,7.9-21.4,11.7-32.4,11.7c-28.9,0-41-17.7-41-39.8
			c0-23.2,15.6-38.6,40-38.6c24.7,0,40.3,13,35.9,46.6h-54.7c1,7.5,7.8,13,20.2,13c6,0,14.5-2.2,19.6-6.4L804.5,491.4z M787.9,455.3
			c0.3-9.1-7.3-12.9-16.6-12.9c-9.1,0-17.2,4.2-19,12.9H787.9z"/>
		<path id="XMLID_862_" class="st5" d="M816.5,501v-18.6h10.3v-68H817v-18.1h30.7v38.6c4.9-6.1,14.4-10.2,24.4-10.2
			c21.6,0,36.2,12.6,36.2,39.2c0,25.6-15.9,38.6-38.3,38.3c-7.8,0-17.7-2.8-22.3-9.7l-1.5,8.4h-29.7V501z M849.2,463.4
			c0,15.1,11.5,19.6,19,19.6c10.3,0,18.7-7.2,18.7-19c0-13.8-8.7-19.8-19.3-19.8C861.6,444.2,849.3,448.4,849.2,463.4z"/>
		<path id="XMLID_895_" class="st5" d="M964.5,450.5l-0.9-8.5c-2.2-1.2-7-2.1-11.4-2.1c-6.1,0-12,2.2-12,8.2c0,5.4,7.3,5.8,11.8,6.1
			c18.4,1,33.6,6,33.6,25.2c-0.4,14.1-12.4,24.3-33.1,24.3c-11.7,0-23.1-2.2-33.3-8.7l0.6-20.7h17.7l0.7,8.2c2.8,1.6,7.6,2.8,14.7,3
			c7.6,0.1,12-2.1,12-6.9c0-3.7-4.5-6.7-14.2-7.2c-17.5-2.1-31.2-5.7-31.2-23.1c-0.3-17.8,17.2-24.7,33.4-24.7
			c9.7,0,20.4,2.1,28.9,6.3l-0.1,20.5h-17.2V450.5z"/>
		<path id="XMLID_897_" class="st5" d="M1027.6,426.5v56.2h8.5V501H997v-18.3h9.4v-38.2h-9.3v-18H1027.6z M1005.1,407.1
			c0-7.6,6-11.8,12.1-11.8c6.6,0,12.6,4.3,12.6,12.1c0,7.3-6,11.7-12.3,11.7C1011.1,418.9,1005.1,414.5,1005.1,407.1z"/>
		<path id="XMLID_900_" class="st5" d="M1076.4,406.8v20.5h19.2v17.8h-19.5v29.1c0,9.1,8.1,11.4,16.8,7.6l5.1,17.2
			c-7.2,2.7-11.2,3.1-17.8,3.1c-17.1-0.2-24.6-7.9-24.6-28V445h-12.9v-17.8h12.9V409L1076.4,406.8z"/>
		<path id="XMLID_902_" class="st5" d="M1178.5,491.4c-8.1,7.9-21.4,11.7-32.4,11.7c-28.9,0-41-17.7-41-39.8
			c0-23.2,15.6-38.6,40-38.6c24.7,0,40.3,13,35.9,46.6h-54.7c1,7.5,7.8,13,20.2,13c6,0,14.5-2.2,19.6-6.4L1178.5,491.4z
			 M1161.9,455.3c0.3-9.1-7.3-12.9-16.6-12.9c-9.1,0-17.2,4.2-19,12.9H1161.9z"/>
		<path id="XMLID_854_" class="st4" d="M761.5,405.9l22.9-75.1h-2.7c-17.7-0.3-25.8,10.4-30.5,19.4l-2.2-0.1l6.9-19.4l1.6-4.3H834
			l-1.2,4.3l-5,19.4l-2.2,0.1c0.8-9-1.2-19.7-19.2-19.4h-2.3L781,405.9c-3,9.5,1.4,11.5,6,12.3l-0.5,2.1H747l0.7-2.1
			C752.1,417.4,758.6,415.6,761.5,405.9z"/>
		<path id="XMLID_867_" class="st4" d="M899.4,401.2l10.7-34.3c2.1-8.1-1.7-9.6-5.6-10.3l0.5-2.1h27.4L917.8,401
			c-2.7,8.5-1.7,11.7,0.8,11.7c2.3,0,6.8-3,12.4-12.4l1.4,1c-5.1,11.1-14.2,20.3-24,20.3C899.6,421.8,895.1,414.7,899.4,401.2z
			 M926,326.8c5.9,0,10.6,4.7,10.6,10.6c0,6-4.7,10.7-10.6,10.7c-6,0-10.7-4.7-10.7-10.7C915.3,331.5,920,326.8,926,326.8z"/>
		<path id="XMLID_870_" class="st4" d="M930.9,415.2l5.9-17.7h1.4c1.4,5.9,3.7,10.7,6.5,14.2c3.4,4.4,7.2,6.5,11.3,6.5
			c4.3,0,8.3-2.5,8.9-6.8c0.7-7-8.7-16-14.7-22.4c-6-6-8.3-9.9-7.8-15.8c0.5-11.9,10.8-19.4,25-19.6c7.4,0,14.2,2,20.7,5.2
			l-5.7,17.3H981c-0.8-4.2-2.1-8.5-3.8-11.2c-2.9-5-6.9-7.7-11.2-7.6c-4.2,0-8.2,2.6-8.6,7c-0.3,5.7,7,12.1,14.6,20.9
			c5.7,6,8.2,11,7.6,17.3c-0.9,10.2-9,19.2-24.4,19.3C946.3,422.1,937.6,419,930.9,415.2z"/>
		<path id="XMLID_872_" class="st2" d="M695.6,314.8h-44.3l-5.2,11.8h10.8v20.2h-43.4v-20.2h9.3l30.1-64.7H643V242h43.7l36.8,84.6
			h9.1v20.2H689v-20.2h11.5L695.6,314.8z M666.7,280.7l-6.9,15.3h27.9l-6.4-15.3l-6.9-18.6L666.7,280.7z"/>
		<g id="XMLID_915_">
			<g>
				<defs>
					<path id="SVGID_1_" d="M816.5,501v-18.6h10.3v-68H817v-18.1h30.7v38.6c4.9-6.1,14.4-10.2,24.4-10.2c21.6,0,36.2,12.6,36.2,39.2
						c0,25.6-15.9,38.6-38.3,38.3c-7.8,0-17.7-2.8-22.3-9.7l-1.5,8.4h-29.7V501z M849.2,463.4c0,15.1,11.5,19.6,19,19.6
						c10.3,0,18.7-7.2,18.7-19c0-13.8-8.7-19.8-19.3-19.8C861.6,444.2,849.3,448.4,849.2,463.4z"/>
				</defs>
				<use xlink:href="#SVGID_1_"  style="overflow:visible;fill:#C1272D;"/>
				<clipPath id="SVGID_2_">
					<use xlink:href="#SVGID_1_"  style="overflow:visible;"/>
				</clipPath>
				<path id="XMLID_908_" class="st6" d="M836.2,330.6l0.5-2l28.4-5l-17.3,57.2c11.2-20.9,22.6-27.1,31-27.1
					c9.4,0,14.7,7.3,11.1,18.1l-9.8,29.2c-2.9,8.5-1.7,11.7,0.8,11.7c2.3,0,6.6-3,12.4-12.4l1.4,1c-5.1,11.1-14.3,20.3-24.1,20.3
					c-7.8,0-13.8-7-9-20.6l9.4-27c3-8.9,0.9-11.1-1.4-11.1c-5,0-18.9,12.1-29.3,42.8l-4.4,14.6h-18.4l24.2-79.1
					C844.4,332.1,840.2,330.8,836.2,330.6z"/>
			</g>
		</g>
		<g id="XMLID_856_">
			<g>
				<defs>
					<path id="SVGID_3_" d="M738.1,346.9v-18.6h10.3v-68h-9.9v-18.1h30.7v38.6c4.9-6.1,14.4-10.2,24.4-10.2
						c21.6,0,36.2,12.6,36.2,39.2c0,25.6-15.9,38.6-38.3,38.3c-7.8,0-17.7-2.8-22.3-9.7l-1.5,8.4h-29.6V346.9z M770.8,309.3
						c0,15.1,11.5,19.6,19,19.6c10.3,0,18.7-7.2,18.7-19c0-13.8-8.7-19.8-19.3-19.8C783.2,290.1,770.9,294.3,770.8,309.3z"/>
				</defs>
				<clipPath id="SVGID_4_">
					<use xlink:href="#SVGID_3_"  style="overflow:visible;"/>
				</clipPath>
				<path id="XMLID_863_" class="st7" d="M761.5,405.9l22.9-75.1h-2.7c-17.7-0.3-25.8,10.4-30.5,19.4l-2.2-0.1l6.9-19.4l1.6-4.3H834
					l-1.2,4.3l-5,19.4l-2.2,0.1c0.8-9-1.2-19.7-19.2-19.4h-2.3L781,405.9c-3,9.5,1.4,11.5,6,12.3l-0.5,2.1H747l0.7-2.1
					C752.1,417.4,758.6,415.6,761.5,405.9z"/>
			</g>
		</g>
		<g id="XMLID_885_">
			<g>
				<defs>
					<path id="SVGID_5_" d="M878.9,270.6c25.3,0,39.5,16.3,39.5,39.2c0,21.1-14.7,38.8-39.4,38.8s-39.4-16.5-39.4-38.8
						C839.7,287,854.8,270.6,878.9,270.6z M879.4,289.4c-12.6,0-18.9,8.7-18.9,20.5c0,10.3,6,19.3,18.6,19.3s18.6-9,18.9-19.3
						C897.9,298,890.7,289.4,879.4,289.4z"/>
				</defs>
				<clipPath id="SVGID_6_">
					<use xlink:href="#SVGID_5_"  style="overflow:visible;"/>
				</clipPath>
				<path id="XMLID_865_" class="st8" d="M836.2,330.6l0.5-2l28.4-5l-17.3,57.2c11.2-20.9,22.6-27.1,31-27.1
					c9.4,0,14.7,7.3,11.1,18.1l-9.8,29.2c-2.9,8.5-1.7,11.7,0.8,11.7c2.3,0,6.6-3,12.4-12.4l1.4,1c-5.1,11.1-14.3,20.3-24.1,20.3
					c-7.8,0-13.8-7-9-20.6l9.4-27c3-8.9,0.9-11.1-1.4-11.1c-5,0-18.9,12.1-29.3,42.8l-4.4,14.6h-18.4l24.2-79.1
					C844.4,332.1,840.2,330.8,836.2,330.6z"/>
			</g>
		</g>
		<path id="XMLID_881_" class="st2" d="M1011.8,328.1h10.3v18.7H996l-2.1-9.4c-8.2,8.2-17.4,10.6-24.4,10.8
			c-27.1,0-33.6-16.6-33.6-37.6v-20.4h-9.6v-17.7h30.3v37.9c0,10.3,3.6,17.7,17.8,17.7c10-0.3,16.5-8.7,16.5-19v-18.9h-11.1v-17.7
			h31.9L1011.8,328.1L1011.8,328.1z"/>
		<path id="XMLID_883_" class="st2" d="M1061.6,252.7v20.5h19.2V291h-19.5v29.1c0,9.1,8.1,11.4,16.8,7.6l5.1,17.2
			c-7.2,2.7-11.2,3.1-17.8,3.1c-17.1-0.1-24.6-7.9-24.6-28v-29h-12.9v-17.8h12.9v-18.3L1061.6,252.7z"/>
	</g>
	<g id="XMLID_87_">
		<path id="XMLID_86_" class="st9" d="M360,549.4c0,0-25.4-20.8-28.9-29.4C331.1,520.1,334.2,540.9,360,549.4z"/>
		<path id="XMLID_85_" class="st10" d="M337,602.7c0,0-19.3-34.4-17.1-71.4c0,0,16.9,21,32.6,23.7c0,0-33.1-33.3-34-41
			c0,0-1.1-36.6,3.1-45.3c0,0,7.2,14.2,17.6,18.3c0,0-5.3-13.2-7.7-21.8c0,0,40.1,31.5,110,13.6c0,0-35.5,27.6-65.3,30.9
			c0,0,56.5-6.8,72.3-18C448.5,491.6,399,576.6,337,602.7z"/>
		<g id="XMLID_79_">
			<path id="XMLID_84_" class="st11" d="M340.3,612.3c0,0,67-48.2,94.2-110.8c0,0-41.6,16.6-61.3,7.9c0,0,45.6,1.8,87.2-29.8
				C460.4,479.5,439.8,570.7,340.3,612.3z"/>
			<path id="XMLID_83_" class="st11" d="M490.4,517.7c0,0-1-14.9-5-19.1c0,0,8.9,12.1,10.2,16.8c0,0,4.4-3.2,3.9-8
				c0,0-18.1-30.7-30.7-33.7c0,0,2.5,8.9,0.7,12.9C469.7,486.4,485,502.8,490.4,517.7z"/>
			<path id="XMLID_82_" class="st11" d="M397.1,493.9c0,0-38.3,11.4-55.6-15C341.5,478.8,374.3,495.5,397.1,493.9z"/>
			<path id="XMLID_81_" class="st11" d="M351.2,535.2c0,0-24.2-42.4-23.7-54.8c0,0,6.4,6.1,11.8,6.4c0,0-12.6-8.8-14.3-19.7
				c0,0-9.4,22.7-4.6,49.4c0,0-1.3-15.1,2.6-23.4C323,493.1,334.5,523.6,351.2,535.2z"/>
			<path id="XMLID_80_" class="st11" d="M337,602.7c0,0-13.1-45.8-11.4-64.6c0,0-5-3.9-6.1-9.9C319.5,528.2,321.7,581.2,337,602.7z"
				/>
		</g>
		<path id="XMLID_78_" class="st9" d="M346,581.6c0,0,51.5-22.1,60.9-55.2C406.9,526.4,365.3,571.8,346,581.6z"/>
		<g id="XMLID_73_">
			<path id="XMLID_77_" class="st12" d="M490,415.4c0,20.4-15.4,36.6-35.8,36.6H331.7c-20.4,0-36.7-16.2-36.7-36.6V280.7
				c0-20.4,16.3-37.7,36.7-37.7h122.4c20.4,0,35.8,17.3,35.8,37.7v134.7H490z"/>
			<g id="XMLID_74_">
				<g>
					<defs>
						<path id="SVGID_7_" d="M518,402.3c0,18.1-17.3,31.7-38.9,31.7H349.9c-21.6,0-38.9-13.6-38.9-31.7V283.2
							c0-18.1,17.3-33.2,38.9-33.2h129.2c21.6,0,38.9,15.1,38.9,33.2V402.3L518,402.3z"/>
					</defs>
					<clipPath id="SVGID_8_">
						<use xlink:href="#SVGID_7_"  style="overflow:visible;"/>
					</clipPath>
					<path id="XMLID_76_" class="st13" d="M490,415.8c0,20.4-16.3,36.2-36.7,36.2H331.6c-20.3,0-36.6-15.8-36.6-36.2V281.2
						c0-20.4,16.2-38.2,36.6-38.2h121.8c20.3,0,36.7,17.8,36.7,38.2v134.6H490z"/>
				</g>
			</g>
		</g>
		<g id="XMLID_70_">
			<g>
				<defs>
					<path id="SVGID_9_" d="M490,415.4c0,20.4-15.4,36.6-35.8,36.6H331.7c-20.4,0-36.7-16.2-36.7-36.6V280.7
						c0-20.4,16.3-37.7,36.7-37.7h122.4c20.4,0,35.8,17.3,35.8,37.7v134.7H490z"/>
				</defs>
				<clipPath id="SVGID_10_">
					<use xlink:href="#SVGID_9_"  style="overflow:visible;"/>
				</clipPath>
				<path id="XMLID_72_" class="st14" d="M493.5,322.2c0,0-12.1-5.7-30.8,1c-18.7,6.7-36.1,6.3-41,6.7c-5,0.4-53,3.1-73.6-1
					s-35.9-5.7-44.1-8.2c-8.3-2.5-10.6,0-15.1,3.7l7.1-9.6l194.7-1.2L493.5,322.2z"/>
			</g>
		</g>
		<g id="Reflet">
			<path id="XMLID_69_" class="st15" d="M325,427.1c0,0-10.3-6-9.7-11.8v-86.7l-3.5-3.4l-0.1,89.9
				C311.7,415.1,312.1,424.4,325,427.1z"/>
			<polygon id="XMLID_68_" class="st15" points="470,349.4 474,345.7 474,427.2 470.2,421.9 			"/>
		</g>
		<g id="Gauche_2_">
			<circle id="XMLID_67_" cx="368.6" cy="358" r="11.6"/>
			<circle id="XMLID_66_" class="st2" cx="371.9" cy="353.4" r="5.5"/>
		</g>
		<g id="Droite_2_">
			<circle id="XMLID_65_" cx="425.3" cy="358" r="11.6"/>
			<circle id="XMLID_64_" class="st2" cx="428.6" cy="353.4" r="5.5"/>
		</g>
		<g id="Sourcils">
			<path id="XMLID_63_" d="M451.1,340.1c-14.1-16.2-37.8-5.8-41.5-4.1c-0.1,0.1-0.3,0.1-0.4,0.2h-0.1l0,0c-1.2,0.7-2,2-2,3.5
				c0,2.3,1.8,4.1,4.1,4.1c1,0,1.9-0.4,2.7-1C424.4,336,451.1,340.1,451.1,340.1z"/>
			<path id="XMLID_62_" d="M342,340.3c14.1-16.2,37.8-5.8,41.5-4.1c0.1,0.1,0.3,0.1,0.4,0.2h0.1l0,0c1.2,0.7,2,2,2,3.5
				c0,2.3-1.8,4.1-4.1,4.1c-1,0-1.9-0.4-2.7-1C368.7,336.2,342,340.3,342,340.3z"/>
		</g>
		<g id="Bouche">
			<path id="XMLID_61_" d="M430.9,395.6c-3.8-0.5-5.4,2.4-5.9,2.4h-10.5h-0.3h-34.8h-0.3h-12.9c-0.4,0-1.9-3.1-6-2.6
				c-5.1,0.6-4.9,8.3-3.2,10.7c0,0,3.3-3.4,7.3-1c1.8,8.8,7.6,15.8,14.6,16l0,0h36l0,0c7-0.2,12.8-7.3,14.5-16.4
				c2.9-0.2,4.8,1.6,4.8,1.6C436,403.9,436.1,396.2,430.9,395.6z"/>
			<path id="Dent" class="st2" d="M422.9,404h-12h-0.2H383h-0.2h-12.1c0,8,5.3,12.7,12.3,12.8v1.2h27v-1.2
				C417,416.7,422.9,412,422.9,404z"/>
		</g>
		<g id="Ombres" class="st16">
			<polygon id="XMLID_60_" points="299,315 302.2,315 302.3,409.3 299,412.1 			"/>
			<path id="XMLID_59_" d="M320.2,444.8c0,0-18.4-7.3-18.3-26.7l-3.3,3.2v5.8C298.6,427.1,304.8,443.1,320.2,444.8z"/>
			<path id="XMLID_58_" d="M335.7,445.4l2.6-4.4H473c0,0-6.4,4-15.8,4C447.8,445,335.7,445.4,335.7,445.4z"/>
		</g>
		<g id="XMLID_54_">
			<path id="XMLID_57_" class="st12" d="M338,465.6c7,3.5,65.1,23.1,119-1.4c0,0,0.9-6.4-14.7-6c-15.6,0.4-81.9,0-81.9,0s4-6-21-6.3
				c-1,0-1.3,0-1.3,0L338,465.6L338,465.6z"/>
			<path id="XMLID_56_" class="st12" d="M338.4,452c16.6,0.1,98.6,0.3,118.6,0.4V435H338v16.9C338,451.9,337.7,451.9,338.4,452z"/>
			<path id="XMLID_55_" d="M365.9,462.2c0,0,64.4-1,75.2,2.5l1.8-4.5C442.8,460.1,387.9,459.8,365.9,462.2z"/>
		</g>
		<path id="XMLID_53_" d="M356.1,461.6c0,0-4.5-4.2-11.6-4.9l7.7-1.1c0,0,2.6,4.1,5,2.5C357.2,458.1,356,460.4,356.1,461.6z"/>
		<path id="XMLID_52_" class="st17" d="M273.8,316.7c0,0,26.3-1.6,34,0.5c7.7,2.2,27.3,8.8,35.3,8.8s81.2,4.8,106.6-2.2
			c25.4-7,49.3-7.9,57.2-6.1c0,0,1.4,0.3,1.2-1.6c-0.2-2-10.9-12.7-12.5-14.9c-1.6-2.1-3-20-2.8-27.2s-4.1-87-79.4-91
			c-75.4-4-96.4,10.5-111.5,37.1s-10.6,37.6-10.9,47.5s-3.7,30.1-13.9,38.1C266.7,313.7,271.9,317.3,273.8,316.7z"/>
		<path id="XMLID_45_" class="st18" d="M486.4,274.4c0,0-1.5-13.6-0.5-19.5l-2.2-3.3l-6,7.5c0,0,9.7-32.6-43.3-39.8
			c0,0-85.1-3.4-98,0.7l0,0l0,0c0,0-3.9,1.1-5.7,1.8c0,0-32.3,6.1-27.5,37.1l-4.4-1.1c0,0-1.5-3.7-0.4-5.1l-6.1,0.2
			c0,0,4.4,0.9,4.4,4.4c0,0,1.1,19.4-3.3,21.7c0,0-0.9,2.1,0.3,3.3c0,0,0.4-2.5,3.1-2.2c0,0,0.5-10.1,7.3-8.2c0,0-5.4,4.9-1.5,14.2
			c0,0,16,27.5,53.2,9.1c0,0,27.2-10.7,32-39.6c0,0,2.6-15.6-8.3-21.4h20.4c0,0-11,6.9-6.7,26.2c4.3,19.3,27.7,35.3,43.1,40.5
			c15.3,5.3,34.3-1.5,39.6-10.2c5.3-8.8,2.7-18.2,1.8-19.5c0,0,5.9,4.2,7,6.9c0,0-1.2,4.5,0.4,5.3c0,0,0.3-2.3,2.5-1.5
			C487.7,281.7,486.2,279.5,486.4,274.4z M305.1,276.1C305,276,305,276,305.1,276.1c0,0,0.1,0.1,0.2,0.1
			C305.2,276.1,305.2,276.1,305.1,276.1z M305.8,276.5c0.1,0.1,0.3,0.2,0.4,0.3C306,276.6,305.9,276.5,305.8,276.5z M312.1,280.5
			c0.2,0.1,0.4,0.3,0.6,0.4C312.5,280.8,312.3,280.7,312.1,280.5z M368.1,269.4c-6.1,5.8-33.5,25.6-54,12.5l0,0l0,0
			c0,0-13.9-21.7,5.7-39c0,0,7.3-6.8,24.9-7.3c0,0,24.6-1.3,29.8,7.8C379.8,252.5,374.3,263.6,368.1,269.4z M471.8,268.8
			c-0.9,5.5-3.9,13.6-7.3,15.6s-23.2,3.8-41.2-5.5c-18-9.3-23.8-25.1-15.2-38.7c0,0,15.9-7.3,39.7-2.2
			C471.6,243.1,472.6,263.3,471.8,268.8z"/>
		<path id="XMLID_44_" class="st19" d="M411.1,233.6c0,0-0.6-1.1,1.2-1.5c1.8-0.4,6.2-0.9,6.9-0.6c0,0-0.8-2.5,6.8-2
			c0,0-4.3-1.5-4.9-2.9l-2.1-0.5c0,0-0.6-1.2-0.1-1.9c0,0,3.6-0.6,5.8-0.2c0,0-1.8-1.5,1.8-1.9c3.6-0.3,5.2-1.8,7.8-1.5
			c2.6,0.3,6-0.3,7.6,0.2c1.7,0.4,0,0,0,0s-17.2-3.6-25.5-2.4c0,0,7.7,2.9,3.4,4.1c0,0-6,0.4-6.5-2c0,0-4.2,0.8-3.7-2l-2.1-0.1
			c0,0-11.6-0.7-13.4-0.5c-1.8,0.2-13.7-0.2-14-0.2s-2,3.3-4.5,3.3s-1.2-3.1-1.2-3.1l-2.8,0.1c0,0,0.2,2.6-3.4,2.5
			c-3.6-0.1-1.8-2.3-1.5-2.3c0,0-20.5-0.3-28.6,2.5c0,0,12.7-0.7,17.8,2.5c0,0,1.5,1.7,5.3,1.2c3.8-0.4,1.1,1.2-0.4,1.9
			c-1.5,0.7-4.6,1.5-5.8,3c0,0,6.3-0.1,7,1.8c0,0-24.6,1.2-30.7,5.9c0,0,16.6-3.3,31,0.1c0,0,5.5-3.2,8.9-0.7c0,0-1.2-2.7,1.8-2.8
			c2.9-0.1-0.9-2.5,4-1.5l2.5,2.1h21.1c0,0,1.2,3.1-1.1,6.7c0,0,5.1-2.2,5.3,2.7c0,0,5.3-5.8,8.7-6.5c3.4-0.7,0,0,0,0
			S409.8,235.5,411.1,233.6z"/>
		<path id="XMLID_43_" class="st20" d="M303.5,257.2c0,0,7.2-26.1,31.5-32.6c0,0-18.3,2.8-32,24.8l-2.5-0.2c0,0,0.1,3.4,0.1,4.2
			c0,0.8,1.9,4.6,1.9,4.6L303.5,257.2z"/>
		<g id="XMLID_40_">
			<g>
				<defs>
					<path id="SVGID_11_" d="M312,307.9c0,0,23.7,4,27.8,12.9c4.2,9-2,4.1-4.8,4.3c0,0,8,0.8,11.5,1.8s101.8,3.6,111.7-4.9
						c0,0-9.6,2-10.5-2.3c-0.9-4.3,1.3-13.3,47-13.7c0,0-32.5-3.4-51,7.8c0,0-19.9,9.2-40.9-11.9c0,0,52.5,18.9,70.8-10.2
						c0,0-6.7,14.5-37.2,9.2c-30.5-5.3-43.5-37.4-43.5-47.6c0-10.2,3.4-16.8,7.6-19.6l-20.9,0.4c0,0,16.1,7,5.3,32.6
						S348.2,300,342,301.3c-6.3,1.3-42.6,2.1-40.3-26.9l3.2-3.3h-4.2l-7.5,11.9c0,0,5-23.6,1.1-30.6l4.2,0.2c0,0,0.4,6.5,5.7,7
						c0,0-2.5-9.7,2-18.1c0,0,10.7-13.9,16.8-15.8c0,0-14.7,9.1-18.3,14.5c0,0,4.5-10.5,8.1-18.8c0,0-12.3,10-14.3,27.6
						c0,0,0,2.2-1.5,2.3l-2.7,0.9l-3.9,1.8c0,0,4.7,14-3.4,28.5c0,0-5.8,23.5-10.1,25.1c0,0,3.9-1.5,17.8-0.6l-7.9-3.4
						c0,0,4.2-11.1,4.4-19l1.3-4.8c0,0,0.7,3.5,0.3,4.8c0,0,4.5-6.6,7.6-8.1c0,0,1.9,26.3,34.9,31.7c0,0,25,2.6,43.6-6.6
						c0,0-10.6,5.6-16.6,6.2c0,0,6.1,2.5,9,2.2c0,0-17.9,6-35.7,1.4C317.5,306.8,315.6,307.3,312,307.9z"/>
				</defs>
				<clipPath id="SVGID_12_">
					<use xlink:href="#SVGID_11_"  style="overflow:visible;"/>
				</clipPath>
				<path id="XMLID_42_" class="st21" d="M273.8,316.7c0,0,26.3-1.6,34,0.5c7.7,2.2,27.3,8.8,35.3,8.8s81.2,4.8,106.6-2.2
					c25.4-7,49.3-7.9,57.2-6.1c0,0,1.4,0.3,1.2-1.6c-0.2-2-10.9-12.7-12.5-14.9c-1.6-2.1-3-20-2.8-27.2s-4.1-87-79.4-91
					c-75.4-4-96.4,10.5-111.5,37.1s-10.6,37.6-10.9,47.5s-3.7,30.1-13.9,38.1C266.7,313.7,271.9,317.3,273.8,316.7z"/>
			</g>
		</g>
		<path id="XMLID_39_" class="st20" d="M300.5,265.2c0,0-0.1,2.2,1.9,2.2s3.7-0.4,3.7-0.4s0.7-2.5,1.6-2.8c0.9-0.3,1.8-1.5,1.8-1.5
			l1.6-9.5c0,0,6-14.7,20.9-20.3c0,0-22.2,4.8-25.3,24.4C306.6,257.3,307.9,268.4,300.5,265.2z"/>
		<path id="XMLID_38_" d="M486.7,305.9c0,0,9.2-1.6,7.9-4.2c-1.3-2.6-5.1-12.7-4.8-17.1c0,0,6.3,19.9,10.4,22.3
			C500.1,306.9,494.7,305.5,486.7,305.9z"/>
		<g id="XMLID_33_">
			<path id="XMLID_37_" d="M472,317.2c0,0,0.9-6.4-2.6-10.1c0,0,4.5,4.4,5.2,9.8C474.6,316.9,473.2,319.3,472,317.2z"/>
			<path id="XMLID_36_" d="M479.9,316.8c0,0,0.9-6.4-2.6-10.1c0,0,4.5,4.4,5.2,9.8C482.5,316.5,481.1,318.8,479.9,316.8z"/>
			<path id="XMLID_35_" d="M488.6,316.2c0,0-2.6-8.1-6.3-10.2c0,0,6.6,3.7,8.2,9.8C490.5,315.8,489.7,317.6,488.6,316.2z"/>
			<path id="XMLID_34_" d="M496.9,315.6c0,0-1.6-7.2-5.1-9.8c0,0,6,5,7.1,9.3C499,315.1,498.1,317.1,496.9,315.6z"/>
		</g>
		<g id="XMLID_28_">
			<path id="XMLID_32_" d="M315.9,318.5c0,0-0.9-6.4,2.6-10.1c0,0-4.5,4.4-5.2,9.8C313.3,318.2,314.7,320.6,315.9,318.5z"/>
			<path id="XMLID_31_" d="M305.1,316.2c0,0,0.5-5.8,4.1-8.5c0,0-4.6,3.1-6.2,7.8C303,315.5,303.7,317.8,305.1,316.2z"/>
			<path id="XMLID_30_" d="M295.2,315.6c0,0,2.3-7.4,5.6-9.3c0,0-5.9,3.3-7.3,8.9C293.5,315.2,294.2,316.8,295.2,315.6z"/>
			<path id="XMLID_29_" d="M286.5,315.9c0,0,1.5-6.7,4.8-9.1c0,0-5.7,4.7-6.8,8.6C284.5,315.4,285.4,317.3,286.5,315.9z"/>
		</g>
		<path id="XMLID_27_" d="M494.1,296.1c0.4,0.6-3.4-8.2-3.8-20.7c-0.4-12.6,0.8-34-16.4-60.2c0,0,15.6,25.3,11.1,40.7l-1.2,4.1
			c0,0,3.9,2.3-1,9.6c0,0,4.4,7.3,5.7,11.7c1.3,4.4,3.2,3.3,0.9,11.4C489.5,292.8,491.1,291,494.1,296.1z"/>
		<g id="XMLID_8_">
			<path id="XMLID_26_" d="M338,219.9c0,0-0.8-25.5,7.4-30.7c0,0-9.3,1.9-8.9,30.8L338,219.9z"/>
			<path id="XMLID_25_" d="M332.3,221.6c0,0-0.5-27.6,10.2-34c0,0-12.7,3.4-11.7,34.1L332.3,221.6z"/>
			<path id="XMLID_24_" d="M442.9,219.9c0,0,0.8-25.5-7.4-30.7c0,0,9.3,1.9,8.9,30.8L442.9,219.9z"/>
			<path id="XMLID_23_" d="M448.6,221.6c0,0,0.5-27.6-10.2-34c0,0,12.7,3.4,11.7,34.1L448.6,221.6z"/>
			<path id="XMLID_22_" d="M477.8,259.1l6-7.5c0,0-6.6-24.5-15.8-31c0,0,8.8,13.1,7.7,19.1c0,0-4.8-10-16.5-13.5
				C459.2,226.2,481.1,240.6,477.8,259.1z"/>
			<path id="XMLID_21_" d="M340.5,284.8c0,0,15.1-3.9,22.6-10.3c7.4-6.4,14.3-13.4,15.3-25c1-11.5-8-14-9.2-14.2c0,0,6,1.6,6.7,11.2
				C376.6,256.2,370.6,275.4,340.5,284.8z"/>
			<path id="XMLID_20_" d="M362.7,236.8c0,0-41.5-7.2-51.1,20c0,0-5.4,23.9,8.5,28.1c0,0-7.7-1.1-10.1-10.3s-2.5-19.1-0.3-23.3
				c2.2-4.2,3.9-6.1,3.9-6.1s-1.6,2.4-1.6,5.8C312,251.1,317.8,229.1,362.7,236.8z"/>
			<path id="XMLID_19_" d="M408.6,233.7c0,0-10.8,3-13.1,11.7c-2.3,8.8,2.7,35.2,25.7,45.1c0,0-6.8-5.5-9.3-12.8
				c0,0,21.4,13.4,36.5,12.2c0,0-26.8-2-41.4-20.7C392.3,250.4,400.6,240.2,408.6,233.7z"/>
			<path id="XMLID_18_" d="M445.3,298.9c0,0,10.1-1.9,6.3-5.4c0,0-2.1-1.5-4.8-1.8c0,0,5.7-0.3,7.7,0.7c0,0,12.2,7.6,20.4-16.5
				C474.9,275.8,476.2,300.6,445.3,298.9z"/>
			<path id="XMLID_17_" d="M451.1,285.9c0,0-37.6-2.8-44.7-27.8c0,0-4.4-15,7-21.2c0,0-8.1,1.1-10.8,9.3
				C399.8,254.4,407.4,284,451.1,285.9z"/>
			<path id="XMLID_16_" d="M419.5,237.4c0,0,46.5-7,50.6,24.4c0,0,2,15.5-5.7,22.6c0,0,9.1-3.8,7.7-25.7l1.9-0.1
				c0,0-3.4-21.5-21.8-25c0,0,11.7,3.8,15,14.2C467.4,247.8,452.7,229.9,419.5,237.4z"/>
			<path id="XMLID_15_" d="M353.6,218.2c0,0,34.8-1.8,54-1.2c19.2,0.5,31.3,2.7,34.3,3.7c0,0-15.3-3-24.6-1.9c0,0,0.1,1.2-0.7,1.7
				c0,0-0.1-2.1-2.8-2c-2.6,0-9-0.4-12.6,2c0,0-0.7-2.1-3-2.1c-2.3,0-2.2,1.7-1.9,1.9c0,0-11.1-0.3-13.3,0c0,0,0.1-1.9-1.8-2
				c-1.9,0-1.9,1.4-1.9,1.9c0,0-1.9-2.1-7.6-1.8c0,0-2,0.5-1.6,1.8c0,0-1.4-1-1.3-1.7C368.9,218.7,361.2,218,353.6,218.2z"/>
			<g id="Lunette">
				<path id="XMLID_14_" d="M334.5,298.7c0,0-5.7-0.4-5.8-2c-0.1-1.5,2.4-2.8,2.7-4.1c0,0-1.5,0.7-3-1c0,0,0.4,3.1-2.4,2.5
					c-2.8-0.6-16.4-6.7-21-17.1c0,0,0.3,7.7,3.6,12C311.9,293.3,322.5,301.5,334.5,298.7z"/>
				<path id="XMLID_13_" d="M356.9,291.5c0,0,9.6-9.3,10.8-13.7c0,0-18.7,13.5-34.4,11.6c0,0,25.4-1.8,40.4-20.9s5.2-30.5-1.8-34
					c0,0,3-2,0-2c-2,0-5-0.1-5.8-1.5c0,0,7.4-0.1,7.8-4.7c0,0,2.1,0.1,2.7,4.4c0.6,4.2,9.9,7.2,8.5,22.5
					C383.7,268.5,372.8,282.3,356.9,291.5z"/>
				<path id="XMLID_12_" d="M362.9,231.8c0,0-0.2-2.3-7.1-2.7c0,0,7.5-0.5,4.3-3.8c0,0,4.5,1,5.3,3.4
					C365.4,228.7,362.4,228.7,362.9,231.8z"/>
				<path id="XMLID_11_" d="M417.7,231.1c0,0,0.2-2.3,7.1-2.7c0,0-7.5-0.5-4.3-3.8c0,0-4.5,1-5.3,3.4
					C415.1,228,418.1,228,417.7,231.1z"/>
				<polygon id="XMLID_10_" points="388,225 385,225 385,222 383,222 383,230 385,230 385,228 388,228 				"/>
				<polygon id="XMLID_9_" points="392,225 395,225 395,222 400,222 400,230 395,230 395,228 392,228 				"/>
			</g>
		</g>
		<g id="Reflet_Lunettes">
			<g id="XMLID_5_">
				<path id="XMLID_7_" class="st22" d="M453.1,283.7c0,0,4.8-26.7-5.9-42.5c0,0,11.4,1.5,15.6,7c0,0,5.7,12,2,33.3
					C464.7,281.5,456.6,284.4,453.1,283.7z"/>
				<path id="XMLID_6_" class="st22" d="M449.9,273.6c0,0-1.5-30.4-6.4-34c0,0-4.4-1.5-8.4,1.4C435.1,241.1,446,250.1,449.9,273.6z"
					/>
			</g>
			<g id="XMLID_2_">
				<path id="XMLID_4_" class="st22" d="M329.2,283.1c0,0-4.8-26.7,5.9-42.5c0,0-11.4,1.5-15.6,7c0,0-5.7,12-2,33.3
					C317.6,280.9,325.7,283.7,329.2,283.1z"/>
				<path id="XMLID_3_" class="st22" d="M332.5,273c0,0,1.5-30.4,6.4-34c0,0,4.4-1.5,8.4,1.4C347.3,240.4,336.3,249.4,332.5,273z"/>
			</g>
		</g>
	</g>
</g>
</svg>
