<?xml version="1.0" encoding="utf-8"?>
<!-- Generator: Adobe Illustrator 19.0.0, SVG Export Plug-In . SVG Version: 6.00 Build 0)  -->
<svg version="1.1" id="Calque_1" xmlns="http://www.w3.org/2000/svg" xmlns:xlink="http://www.w3.org/1999/xlink" x="0px" y="0px"
	 viewBox="0 0 589 114" style="enable-background:new 0 0 589 114;" xml:space="preserve">
<style type="text/css">
	.st0{fill:#EBFFAA;}
	.st1{fill:#E90052;}
	.st2{fill:#3AF9BA;}
	.st3{clip-path:url(#XMLID_2_);}
	.st4{clip-path:url(#XMLID_3_);}
	.st5{clip-path:url(#XMLID_4_);}
	.st6{clip-path:url(#XMLID_5_);}
	.st7{clip-path:url(#XMLID_6_);}
	.st8{clip-path:url(#XMLID_7_);}
	.st9{clip-path:url(#XMLID_8_);}
	.st10{clip-path:url(#XMLID_9_);}
	.st11{clip-path:url(#XMLID_10_);}
	.st12{clip-path:url(#XMLID_11_);}
	.st13{clip-path:url(#XMLID_12_);}
</style>
<g id="XMLID_783_">
	<g id="XMLID_849_">
		<path id="XMLID_850_" class="st0" d="M469.7,84.7c1.8-3.5,5.5-3.6,8.2-2.2c2.7,1.4,4.8,4.4,2.9,8c-1.8,3.5-5.5,3.8-8.2,2.4
			C469.8,91.4,467.8,88.3,469.7,84.7z M472.1,53.4c4.7-8.9,15.2-9.2,24.7-4.3c8.7,4.5,14.7,13.5,9.6,22.7
			c-4.6,8.9-14.1,5.4-18.2,6.4c-1.6,0.5-2.8,0.7-4.2,3.6l-9.1-4.7c4-7.8,8.3-7.8,13.4-7.5c4,0.2,7.6,0.1,9.1-2.7
			c2.5-4.8-1.7-8-5.3-9.9c-6.1-3.2-9.7-1.9-11.3,1L472.1,53.4z"/>
	</g>
	<path id="XMLID_795_" class="st1" d="M166.1,70.5h-14.8l-9.1-22.4L136.4,32l-5.6,16.3l-8.7,22.3h-15.3L87.8,14h-7.1V0.6h31.1V14
		h-7.3l10.9,35.5l16.2-45.9h10l16.6,45.9L168.4,14H161V0.6h30.4V14H185L166.1,70.5z"/>
	<path id="XMLID_793_" class="st1" d="M202.5,12.3h-6.7V0.5h20.6v26.4c3.7-4.6,9.4-6.3,14.5-6.3c14.3,0,21.7,8.1,21.7,24.1v14.1h6.9
		v11.8h-24.9V58.8h4.4V44.7c0-8.6-4.4-11.3-10.8-11c-8,0.3-11.6,5.8-11.6,12.8v12.3h7v11.8h-28V58.8h6.9V12.3z"/>
	<path id="XMLID_790_" class="st1" d="M325.6,58.5v12.1h-18.9l-0.9-5.6c-5.7,5.6-11.8,6.9-18.1,6.9c-14,0-23.5-9.2-23.5-25.4
		c0-13.4,9.1-25.9,24-26.7c6.9,0,12.9,0.8,17.6,6.3l0.6-5.1h18.8v12.4h-6.3v25.1H325.6z M278.2,46.5c0,7.6,5.2,13.2,13.4,13.2
		c8.7,0,14.1-5.8,14.1-13.3c0.1-7.8-4.5-13.2-13.5-13.2C283.9,33.2,278.2,39,278.2,46.5z"/>
	<path id="XMLID_788_" class="st1" d="M353.1,7.7v13.7h12.8v11.9h-13v19.4c0,6.1,5.4,7.6,11.2,5.1l3.4,11.5
		c-4.8,1.8-7.5,2.1-11.9,2.1c-11.4-0.1-16.4-5.3-16.4-18.7V33.3h-8.6V21.4h8.6V9.2L353.1,7.7z"/>
	<path id="XMLID_786_" class="st1" d="M427.4,57.1v13.5h-30.8V57.1h8V14.1h-7.7V0.6h30.4v13.5h-8v42.9H427.4z"/>
	<path id="XMLID_784_" class="st1" d="M465.5,36.9l-0.6-5.7c-1.5-0.8-4.7-1.4-7.6-1.4c-4.1,0-8,1.5-8,5.5c0,3.6,4.9,3.9,7.9,4.1
		c12.3,0.7,22.4,4,22.4,16.8c-0.3,9.4-8.3,16.2-22.1,16.2c-7.8,0-15.4-1.5-22.2-5.8l0.4-13.8h11.8l0.5,5.5c1.9,1.1,5.1,1.9,9.8,2
		c5.1,0.1,8-1.4,8-4.6c0-2.5-3-4.5-9.5-4.8c-11.7-1.4-20.8-3.8-20.8-15.4C435.3,23.6,447,19,457.8,19c6.5,0,13.6,1.4,19.3,4.2
		L477,36.9H465.5z"/>
</g>
<g id="XMLID_634_">
	<path id="XMLID_636_" class="st2" d="M117.1,90.3l-3.3-8.2H98.7l-3.2,8.2c-1.9,4.9,1.2,5.8,3.4,6.3v1.2H84.7v-1.2
		c2.1-0.6,5.9-1.4,7.8-6.3l16.6-42h5.4l17.2,42c2,4.9,4.9,5.8,6.5,6.3v1.2h-24.4v-1.2C115.8,96,119.1,95.1,117.1,90.3z M112.7,79.5
		l-6.6-16.2l-6.4,16.2H112.7z"/>
	<path id="XMLID_740_" class="st2" d="M139.9,90.7V69.9c0-4.7-2.8-5.6-4.5-6.1v-1.1h17.4v11.1c1.8-7.5,7.4-12.6,14.3-11.3l-2,11.6
		h-0.8c-5.9-2.9-11,0.3-11.5,7.3v9.3c0,4.7,2.8,5.6,4.5,6.1v1.1h-21.9v-1.1C137.2,96.3,139.9,95.4,139.9,90.7z"/>
	<path id="XMLID_742_" class="st2" d="M167,80.4c0-11.4,8.1-18.1,18.7-18.1c3.8,0,8.4,0.8,12.3,2.3v10.9h-1.2
		c-3.9-8.3-6.5-10.2-9.3-10.2c-5,0-6.9,6-6.8,12.8c0.1,8.4,3.5,14.2,9.5,14.2c4.2,0,7.3-3,8.9-5.1l1,0.2
		c-1.4,4.5-6.5,11.2-15.6,11.2C176.5,98.7,167,93.3,167,80.4z"/>
	<path id="XMLID_744_" class="st2" d="M210.9,49.5v-1.2h23.8v1.2c-1.7,0.5-5.4,1.2-3.7,6.5l8.2,24.9l7.2-19.5l-1.7-5.4
		c-1.6-4.9-4.2-5.9-6-6.5v-1.2h23.9v1.2c-2.1,0.6-5.3,1.4-3.7,6.5l7.9,24.9l8.9-24.9c1.7-4.6-1.2-5.9-3.5-6.4v-1.2h14.1v1.2
		c-2.5,0.6-5.9,1.6-7.6,6.4l-14.9,41.9h-5.5l-10.5-32.4l-11.8,32.4h-5.5L216.9,56C215.3,51.1,212.7,50.1,210.9,49.5z"/>
	<path id="XMLID_746_" class="st2" d="M277,80.4c0-11.6,6.8-18.1,17.3-18.1c12.4,0,16.7,9.5,16.5,17.6h-20.5
		c0.7,9,5.1,12.3,9.7,12.3c3.1,0,6.3-1.4,9.6-4.8l1,0.2c-1.4,4.4-6.8,11.2-15.9,11.2C286.5,98.7,277,93.3,277,80.4z M298.3,77.5
		c0.1-4.3-0.2-12.7-3.9-12.7c-3.9,0-4.1,9.3-4.1,12.7H298.3z"/>
	<path id="XMLID_749_" class="st2" d="M314.6,90.7V56.2c0-4.7-2.8-5.2-4.5-5.4l-0.1-1.1l17.6-2.8v43.8c0,4.7,2.8,5.6,4.5,6.1v1.1
		h-21.9v-1.1C311.9,96.3,314.6,95.4,314.6,90.7z"/>
	<path id="XMLID_751_" class="st2" d="M353.9,93.8c-2.1,2.5-5.4,4.4-9.5,4.4c-6.8,0-13.1-5.2-13.1-17.6c0-12.4,7.5-18.7,16.1-18.7
		c2.1,0,4.3,0.4,6.3,1.2v-7c0-4.7-2.8-5.2-4.5-5.4l-0.1-1.1l17.8-2.8v43.8c0,4.7,2.8,5.6,4.5,6.1v1.1h-14.1
		C355.3,96.7,354.3,95.4,353.9,93.8z M350.5,92.9c1.2,0,2.3-0.6,3.2-1.5V74.3c0-5.9-0.8-9.5-4-9.5c-2.6,0-4.8,2.4-4.8,11.5
		C344.9,85.9,346,92.9,350.5,92.9z"/>
	<path id="XMLID_760_" class="st2" d="M375.3,90.7V69.9c0-4.7-2.8-5.6-4.5-6.1v-1.1h17.3v27.9c0,4.7,2.8,5.6,4.5,6.1v1.1h-21.8v-1.1
		C372.6,96.3,375.3,95.4,375.3,90.7z M380.6,45.1c3.9,0,7.2,3.1,7.2,7c0,3.9-3.3,7-7.2,7c-3.8,0-7.2-3.1-7.2-7
		C373.4,48.2,376.6,45.1,380.6,45.1z"/>
	<path id="XMLID_763_" class="st2" d="M418.2,90.7V75.6c0-4.1-1.9-5.4-4.3-5.4c-1.7-0.1-3.3,0.5-4.7,1.2v19.3c0,4.7,2.1,5.6,3.4,6.1
		v1.1h-20.8v-1.1c1.7-0.5,4.5-1.4,4.5-6.1V69.9c0-4.7-2.8-5.6-4.5-6.1v-1.1h17.4v6.4c1.5-3.3,5.1-6.8,10.8-6.8
		c6.1,0,11.1,4.1,11.1,11.4v16.9c0,4.7,2.8,5.6,4.5,6.1v1.1h-20.8v-1.1C416.1,96.3,418.2,95.4,418.2,90.7z"/>
	<path id="XMLID_765_" class="st2" d="M436.1,106.3c0-3.2,3.1-5.2,6.1-5.8c-5.4-1.7-6.3-5.1-6.3-7.1c0-3.8,3.2-6.6,8.1-8.1
		c-4-2.1-7-5.6-7-10.5c0-8.5,8.6-12.5,16-12.5c2.8,0,5.9,0.6,8.6,1.9c1.9-5.2,7-7.1,11.3-6.1l-1.1,7.8h-0.5c-2.5-1.6-5-1.7-7.6-0.5
		c3.2,2.1,5.4,5.2,5.4,9.4c0,8.5-8.8,12.7-16.2,12.7c-2.3,0-4.6-0.4-6.9-1.2c-1.2,0.8-2.1,1.7-2.1,2.7c0,1.6,2.3,2.3,6.3,2.4
		l10.5,0.1c6,0.1,11,3.7,11,9.9c0,7.8-7.5,12.2-19.1,12.2C446,113.5,436.1,112.1,436.1,106.3z M455.1,110.6c5.5,0,9.4-2.1,9.4-5.3
		c0-2.8-3-3.6-6.6-3.6l-8.5-0.1c-1.4,0-2.7-0.1-3.9-0.3c-1,0.8-1.2,2-1.2,2.8C444.2,107.8,448.6,110.6,455.1,110.6z M452.9,85
		c3,0,3.5-6.1,3.5-10.1c0-4.1-0.5-10.1-3.5-10.1c-3,0-3.4,6.1-3.4,10.1C449.4,78.8,449.8,85,452.9,85z"/>
</g>
<g id="XMLID_825_">
	<defs>
		<path id="XMLID_769_" d="M166.1,70.5h-14.8l-9.1-22.4L136.4,32l-5.6,16.3l-8.7,22.3h-15.3L87.8,14h-7.1V0.6h31.1V14h-7.3
			l10.9,35.5l16.2-45.9h10l16.6,45.9L168.4,14H161V0.6h30.4V14H185L166.1,70.5z"/>
	</defs>
	<clipPath id="XMLID_2_">
		<use xlink:href="#XMLID_769_"  style="overflow:visible;"/>
	</clipPath>
	<path id="XMLID_819_" class="st3" d="M139.9,90.7V69.9c0-4.7-2.8-5.6-4.5-6.1v-1.1h17.4v11.1c1.8-7.5,7.4-12.6,14.3-11.3l-2,11.6
		h-0.8c-5.9-2.9-11,0.3-11.5,7.3v9.3c0,4.7,2.8,5.6,4.5,6.1v1.1h-21.9v-1.1C137.2,96.3,139.9,95.4,139.9,90.7z"/>
	<g id="XMLID_824_" class="st3">
		<defs>
			<path id="XMLID_770_" d="M166.1,70.5h-14.8l-9.1-22.4L136.4,32l-5.6,16.3l-8.7,22.3h-15.3L87.8,14h-7.1V0.6h31.1V14h-7.3
				l10.9,35.5l16.2-45.9h10l16.6,45.9L168.4,14H161V0.6h30.4V14H185L166.1,70.5z"/>
		</defs>
		<clipPath id="XMLID_3_">
			<use xlink:href="#XMLID_770_"  style="overflow:visible;"/>
		</clipPath>
		<path id="XMLID_821_" class="st4" d="M117.1,90.3l-3.3-8.2H98.7l-3.2,8.2c-1.9,4.9,1.2,5.8,3.4,6.3v1.2H84.7v-1.2
			c2.1-0.6,5.9-1.4,7.8-6.3l16.6-42h5.4l17.2,42c2,4.9,4.9,5.8,6.5,6.3v1.2h-24.4v-1.2C115.8,96,119.1,95.1,117.1,90.3z M112.7,79.5
			l-6.6-16.2l-6.4,16.2H112.7z"/>
	</g>
</g>
<g id="XMLID_831_">
	<defs>
		<path id="XMLID_826_" d="M202.5,12.3h-6.7V0.5h20.6v26.4c3.7-4.6,9.4-6.3,14.5-6.3c14.3,0,21.7,8.1,21.7,24.1v14.1h6.9v11.8h-24.9
			V58.8h4.4V44.7c0-8.6-4.4-11.3-10.8-11c-8,0.3-11.6,5.8-11.6,12.8v12.3h7v11.8h-28V58.8h6.9V12.3z"/>
	</defs>
	<clipPath id="XMLID_4_">
		<use xlink:href="#XMLID_826_"  style="overflow:visible;"/>
	</clipPath>
	<path id="XMLID_815_" class="st5" d="M210.9,49.5v-1.2h23.8v1.2c-1.7,0.5-5.4,1.2-3.7,6.5l8.2,24.9l7.2-19.5l-1.7-5.4
		c-1.6-4.9-4.2-5.9-6-6.5v-1.2h23.9v1.2c-2.1,0.6-5.3,1.4-3.7,6.5l7.9,24.9l8.9-24.9c1.7-4.6-1.2-5.9-3.5-6.4v-1.2h14.1v1.2
		c-2.5,0.6-5.9,1.6-7.6,6.4l-14.9,41.9h-5.5l-10.5-32.4l-11.8,32.4h-5.5L216.9,56C215.3,51.1,212.7,50.1,210.9,49.5z"/>
	<g id="XMLID_828_" class="st5">
		<defs>
			<path id="XMLID_772_" d="M202.5,12.3h-6.7V0.5h20.6v26.4c3.7-4.6,9.4-6.3,14.5-6.3c14.3,0,21.7,8.1,21.7,24.1v14.1h6.9v11.8
				h-24.9V58.8h4.4V44.7c0-8.6-4.4-11.3-10.8-11c-8,0.3-11.6,5.8-11.6,12.8v12.3h7v11.8h-28V58.8h6.9V12.3z"/>
		</defs>
		<clipPath id="XMLID_5_">
			<use xlink:href="#XMLID_772_"  style="overflow:visible;"/>
		</clipPath>
		<path id="XMLID_817_" class="st6" d="M167,80.4c0-11.4,8.1-18.1,18.7-18.1c3.8,0,8.4,0.8,12.3,2.3v10.9h-1.2
			c-3.9-8.3-6.5-10.2-9.3-10.2c-5,0-6.9,6-6.8,12.8c0.1,8.4,3.5,14.2,9.5,14.2c4.2,0,7.3-3,8.9-5.1l1,0.2
			c-1.4,4.5-6.5,11.2-15.6,11.2C176.5,98.7,167,93.3,167,80.4z"/>
	</g>
</g>
<g id="XMLID_840_">
	<defs>
		<path id="XMLID_835_" d="M325.6,58.5v12.1h-18.9l-0.9-5.6c-5.7,5.6-11.8,6.9-18.1,6.9c-14,0-23.5-9.2-23.5-25.4
			c0-13.4,9.1-25.9,24-26.7c6.9,0,12.9,0.8,17.6,6.3l0.6-5.1h18.8v12.4h-6.3v25.1H325.6z M278.2,46.5c0,7.6,5.2,13.2,13.4,13.2
			c8.7,0,14.1-5.8,14.1-13.3c0.1-7.8-4.5-13.2-13.5-13.2C283.9,33.2,278.2,39,278.2,46.5z"/>
	</defs>
	<clipPath id="XMLID_6_">
		<use xlink:href="#XMLID_835_"  style="overflow:visible;"/>
	</clipPath>
	<path id="XMLID_810_" class="st7" d="M314.6,90.7V56.2c0-4.7-2.8-5.2-4.5-5.4l-0.1-1.1l17.6-2.8v43.8c0,4.7,2.8,5.6,4.5,6.1v1.1
		h-21.9v-1.1C311.9,96.3,314.6,95.4,314.6,90.7z"/>
	<g id="XMLID_838_" class="st7">
		<defs>
			<path id="XMLID_774_" d="M325.6,58.5v12.1h-18.9l-0.9-5.6c-5.7,5.6-11.8,6.9-18.1,6.9c-14,0-23.5-9.2-23.5-25.4
				c0-13.4,9.1-25.9,24-26.7c6.9,0,12.9,0.8,17.6,6.3l0.6-5.1h18.8v12.4h-6.3v25.1H325.6z M278.2,46.5c0,7.6,5.2,13.2,13.4,13.2
				c8.7,0,14.1-5.8,14.1-13.3c0.1-7.8-4.5-13.2-13.5-13.2C283.9,33.2,278.2,39,278.2,46.5z"/>
		</defs>
		<clipPath id="XMLID_7_">
			<use xlink:href="#XMLID_774_"  style="overflow:visible;"/>
		</clipPath>
		<path id="XMLID_829_" class="st8" d="M210.9,49.5v-1.2h23.8v1.2c-1.7,0.5-5.4,1.2-3.7,6.5l8.2,24.9l7.2-19.5l-1.7-5.4
			c-1.6-4.9-4.2-5.9-6-6.5v-1.2h23.9v1.2c-2.1,0.6-5.3,1.4-3.7,6.5l7.9,24.9l8.9-24.9c1.7-4.6-1.2-5.9-3.5-6.4v-1.2h14.1v1.2
			c-2.5,0.6-5.9,1.6-7.6,6.4l-14.9,41.9h-5.5l-10.5-32.4l-11.8,32.4h-5.5L216.9,56C215.3,51.1,212.7,50.1,210.9,49.5z"/>
	</g>
	<g id="XMLID_839_" class="st7">
		<defs>
			<path id="XMLID_832_" d="M325.6,58.5v12.1h-18.9l-0.9-5.6c-5.7,5.6-11.8,6.9-18.1,6.9c-14,0-23.5-9.2-23.5-25.4
				c0-13.4,9.1-25.9,24-26.7c6.9,0,12.9,0.8,17.6,6.3l0.6-5.1h18.8v12.4h-6.3v25.1H325.6z M278.2,46.5c0,7.6,5.2,13.2,13.4,13.2
				c8.7,0,14.1-5.8,14.1-13.3c0.1-7.8-4.5-13.2-13.5-13.2C283.9,33.2,278.2,39,278.2,46.5z"/>
		</defs>
		<clipPath id="XMLID_8_">
			<use xlink:href="#XMLID_832_"  style="overflow:visible;"/>
		</clipPath>
		<path id="XMLID_812_" class="st9" d="M277,80.4c0-11.6,6.8-18.1,17.3-18.1c12.4,0,16.7,9.5,16.5,17.6h-20.5
			c0.7,9,5.1,12.3,9.7,12.3c3.1,0,6.3-1.4,9.6-4.8l1,0.2c-1.4,4.4-6.8,11.2-15.9,11.2C286.5,98.7,277,93.3,277,80.4z M298.3,77.5
			c0.1-4.3-0.2-12.7-3.9-12.7c-3.9,0-4.1,9.3-4.1,12.7H298.3z"/>
	</g>
</g>
<g id="XMLID_841_">
	<defs>
		<path id="XMLID_777_" d="M353.1,7.7v13.7h12.8v11.9h-13v19.4c0,6.1,5.4,7.6,11.2,5.1l3.4,11.5c-4.8,1.8-7.5,2.1-11.9,2.1
			c-11.4-0.1-16.4-5.3-16.4-18.7V33.3h-8.6V21.4h8.6V9.2L353.1,7.7z"/>
	</defs>
	<clipPath id="XMLID_9_">
		<use xlink:href="#XMLID_777_"  style="overflow:visible;"/>
	</clipPath>
	<path id="XMLID_807_" class="st10" d="M353.9,93.8c-2.1,2.5-5.4,4.4-9.5,4.4c-6.8,0-13.1-5.2-13.1-17.6c0-12.4,7.5-18.7,16.1-18.7
		c2.1,0,4.3,0.4,6.3,1.2v-7c0-4.7-2.8-5.2-4.5-5.4l-0.1-1.1l17.8-2.8v43.8c0,4.7,2.8,5.6,4.5,6.1v1.1h-14.1
		C355.3,96.7,354.3,95.4,353.9,93.8z M350.5,92.9c1.2,0,2.3-0.6,3.2-1.5V74.3c0-5.9-0.8-9.5-4-9.5c-2.6,0-4.8,2.4-4.8,11.5
		C344.9,85.9,346,92.9,350.5,92.9z"/>
</g>
<g id="XMLID_804_">
	<defs>
		<path id="XMLID_779_" d="M427.4,57.1v13.5h-30.8V57.1h8V14.1h-7.7V0.6h30.4v13.5h-8v42.9H427.4z"/>
	</defs>
	<clipPath id="XMLID_10_">
		<use xlink:href="#XMLID_779_"  style="overflow:visible;"/>
	</clipPath>
	<path id="XMLID_802_" class="st11" d="M418.2,90.7V75.6c0-4.1-1.9-5.4-4.3-5.4c-1.7-0.1-3.3,0.5-4.7,1.2v19.3
		c0,4.7,2.1,5.6,3.4,6.1v1.1h-20.8v-1.1c1.7-0.5,4.5-1.4,4.5-6.1V69.9c0-4.7-2.8-5.6-4.5-6.1v-1.1h17.4v6.4
		c1.5-3.3,5.1-6.8,10.8-6.8c6.1,0,11.1,4.1,11.1,11.4v16.9c0,4.7,2.8,5.6,4.5,6.1v1.1h-20.8v-1.1C416.1,96.3,418.2,95.4,418.2,90.7z
		"/>
</g>
<g id="XMLID_805_">
	<defs>
		<path id="XMLID_781_" d="M465.5,36.9l-0.6-5.7c-1.5-0.8-4.7-1.4-7.6-1.4c-4.1,0-8,1.5-8,5.5c0,3.6,4.9,3.9,7.9,4.1
			c12.3,0.7,22.4,4,22.4,16.8c-0.3,9.4-8.3,16.2-22.1,16.2c-7.8,0-15.4-1.5-22.2-5.8l0.4-13.8h11.8l0.5,5.5c1.9,1.1,5.1,1.9,9.8,2
			c5.1,0.1,8-1.4,8-4.6c0-2.5-3-4.5-9.5-4.8c-11.7-1.4-20.8-3.8-20.8-15.4C435.3,23.6,447,19,457.8,19c6.5,0,13.6,1.4,19.3,4.2
			L477,36.9H465.5z"/>
	</defs>
	<clipPath id="XMLID_11_">
		<use xlink:href="#XMLID_781_"  style="overflow:visible;"/>
	</clipPath>
	<path id="XMLID_798_" class="st12" d="M436.1,106.3c0-3.2,3.1-5.2,6.1-5.8c-5.4-1.7-6.3-5.1-6.3-7.1c0-3.8,3.2-6.6,8.1-8.1
		c-4-2.1-7-5.6-7-10.5c0-8.5,8.6-12.5,16-12.5c2.8,0,5.9,0.6,8.6,1.9c1.9-5.2,7-7.1,11.3-6.1l-1.1,7.8h-0.5c-2.5-1.6-5-1.7-7.6-0.5
		c3.2,2.1,5.4,5.2,5.4,9.4c0,8.5-8.8,12.7-16.2,12.7c-2.3,0-4.6-0.4-6.9-1.2c-1.2,0.8-2.1,1.7-2.1,2.7c0,1.6,2.3,2.3,6.3,2.4
		l10.5,0.1c6,0.1,11,3.7,11,9.9c0,7.8-7.5,12.2-19.1,12.2C446,113.5,436.1,112.1,436.1,106.3z M455.1,110.6c5.5,0,9.4-2.1,9.4-5.3
		c0-2.8-3-3.6-6.6-3.6l-8.5-0.1c-1.4,0-2.7-0.1-3.9-0.3c-1,0.8-1.2,2-1.2,2.8C444.2,107.8,448.6,110.6,455.1,110.6z M452.9,85
		c3,0,3.5-6.1,3.5-10.1c0-4.1-0.5-10.1-3.5-10.1c-3,0-3.4,6.1-3.4,10.1C449.4,78.8,449.8,85,452.9,85z"/>
</g>
<g id="XMLID_853_">
	<defs>
		<path id="XMLID_806_" d="M465.5,36.9l-0.6-5.7c-1.5-0.8-4.7-1.4-7.6-1.4c-4.1,0-8,1.5-8,5.5c0,3.6,4.9,3.9,7.9,4.1
			c12.3,0.7,22.4,4,22.4,16.8c-0.3,9.4-8.3,16.2-22.1,16.2c-7.8,0-15.4-1.5-22.2-5.8l0.4-13.8h11.8l0.5,5.5c1.9,1.1,5.1,1.9,9.8,2
			c5.1,0.1,8-1.4,8-4.6c0-2.5-3-4.5-9.5-4.8c-11.7-1.4-20.8-3.8-20.8-15.4C435.3,23.6,447,19,457.8,19c6.5,0,13.6,1.4,19.3,4.2
			L477,36.9H465.5z"/>
	</defs>
	<clipPath id="XMLID_12_">
		<use xlink:href="#XMLID_806_"  style="overflow:visible;"/>
	</clipPath>
	<g id="XMLID_842_" class="st13">
		<path id="XMLID_843_" class="st0" d="M469.7,84.7c1.8-3.5,5.5-3.6,8.2-2.2c2.7,1.4,4.8,4.4,2.9,8c-1.8,3.5-5.5,3.8-8.2,2.4
			C469.8,91.4,467.8,88.3,469.7,84.7z M472.1,53.4c4.7-8.9,15.2-9.2,24.7-4.3c8.7,4.5,14.7,13.5,9.6,22.7
			c-4.6,8.9-14.1,5.4-18.2,6.4c-1.6,0.5-2.8,0.7-4.2,3.6l-9.1-4.7c4-7.8,8.3-7.8,13.4-7.5c4,0.2,7.6,0.1,9.1-2.7
			c2.5-4.8-1.7-8-5.3-9.9c-6.1-3.2-9.7-1.9-11.3,1L472.1,53.4z"/>
	</g>
</g>
</svg>
