<?xml version="1.0" encoding="utf-8"?>
<!-- Generator: Adobe Illustrator 19.0.0, SVG Export Plug-In . SVG Version: 6.00 Build 0)  -->
<svg version="1.1" xmlns="http://www.w3.org/2000/svg" xmlns:xlink="http://www.w3.org/1999/xlink" x="0px" y="0px"
	 viewBox="194 147 1000 500" style="enable-background:new 194 147 1000 500;" xml:space="preserve">
<style type="text/css">
	.st0{display:none;}
	.st1{display:inline;fill:#161616;}
	.st2{display:inline;}
	.st3{fill:#FFFFFF;}
	.st4{fill:#C1272D;}
	.st5{fill:#F2DBC2;}
	.st6{display:inline;opacity:0.5;}
	.st7{clip-path:url(#SVGID_2_);fill:#1D1D1B;}
	.st8{clip-path:url(#SVGID_4_);fill:#1D1D1B;}
	.st9{opacity:0.5;}
	.st10{fill:#C1282D;}
	.st11{opacity:0.75;}
</style>
<g id="Calque_1" class="st0">
	<g id="Calque_2">
		<rect id="XMLID_1_" x="194" y="147" class="st1" width="1000" height="500"/>
	</g>
</g>
<g id="Calque_2_1_" class="st0">
	<rect x="194" y="147" width="1000" height="500"/>
	<g class="st2">
		<path class="st3" d="M686.7,273.5v71.2c0,11.2,7.9,13.3,13.8,14.4v2.5h-33.1V359c5.8-1,13.6-3.1,13.6-14.4v-73.9
			c0-11.2-7.9-13.3-13.8-14.4v-2.5h39.6l27.2,66.7l23.8-66.7h38.8v2.5c-5.1,1-12.3,3.1-12.3,14.4v73.9c0,11.2,7.2,13.3,12.3,14.4
			v2.5h-50.9V359c5.1-1,12.1-3.1,12.1-14.4v-73.5l-32.6,90.4h-3.7L686.7,273.5z"/>
		<path class="st3" d="M795.1,342c0-15.7,15.4-26.3,40.2-22v-8.8c0-9.7-7-14.2-15.4-14.2c-6.4,0-14.1,2.8-19.9,11.7l-2.5-0.4
			c3.1-11.4,14.1-22.9,32.2-23.3c18.7-0.3,30.4,11.8,30.4,25.9v32.2c0,4,0.6,7.6,3.3,7.6c0.6,0,1.5-0.1,2.1-0.6l1,0.9
			c-2.1,6-8.1,12.1-16.5,12.1c-7.3,0-12.7-4.3-14.2-10.3c-4,5.5-10.3,10.3-19.2,10.3C804.8,362.9,795.1,354.1,795.1,342z
			 M826.8,352.3c3.6,0,6.6-2.1,8.5-4.2v-23.9c-11.1-0.7-17.8,5.1-17.8,15C817.6,346.2,820.8,352.3,826.8,352.3z"/>
		<path class="st3" d="M869.8,357.1l0.1-22.3h2.5c10.3,17.7,17.7,22.9,26.3,22.9c7.2,0,9.9-3.6,9.9-8.2c0-9-10.8-11.4-22-16.8
			c-13.2-6.3-19-13.6-19-23.6c0-13.9,10.8-24.2,30.5-24.2c5.8,0,14.7,1,25.4,5.2l-0.1,20.8h-2.7c-8.2-17.7-16-20.6-22.6-20.6
			c-7.5,0-11.5,3.7-11.5,8.4c0,7.5,11.2,9.9,25.7,17.4c7,3.4,15.9,8.7,15.9,22.1c0,15.7-12,25.1-29.8,25.1
			C892.8,363.2,882.5,362,869.8,357.1z"/>
		<path class="st3" d="M937.1,338.2v-46.8h-10.9V289c12.4-4.6,24.7-13.5,32.6-26.3h3.3v23h20v5.7h-20v44.4c0,7.8,3.4,13.6,9.4,13.6
			c2.7,0,5.7-1.3,9-3.7l1.9,0.4c-3.9,9-11.5,17.1-24.2,17.1C945.2,363.2,937.1,354.4,937.1,338.2z"/>
		<path class="st3" d="M981.4,323.9c0-24.7,14.5-39,36.5-39c25.1,0,34.9,19.5,34.6,37.6h-45.3c1.2,19.9,11.1,27.8,21.7,27.8
			c7.2,0,14.4-3.1,21.2-10.8l1.9,0.4c-3.3,9.9-14.7,23.3-33.4,23.3C1001,363.2,981.4,351,981.4,323.9z M1028.2,317.4
			c0-10.5-1.8-27.5-10.3-27.5c-8.8,0-10.8,18.3-10.9,27.5H1028.2z"/>
		<path class="st3" d="M1060.7,346.2v-45c0-10.2-5.8-12.1-10.2-13v-2.4h35.2v23.6c3.9-15.6,15.7-26.9,30.7-24.1l-3.7,22.7h-1.6
			c-12.6-6-24.1,1.3-25.3,17.2v20.9c0,10.2,5.7,12.1,10.2,13v2.4h-45.3v-2.4C1054.8,358.3,1060.7,356.3,1060.7,346.2z"/>
	</g>
	<g class="st2">
		<path class="st4" d="M580.7,331.7l-1.2,8.1l-12.6,1.6l12,35.3l3.4,10.8l4.6-8.8l22-37.3l-12-1.6l0.7-8.1h38.6l-1,8.1l-9.6,1.6
			l-37.6,57.3l-4.5,34.4l17.8,2.1l-0.7,7.6h-60l0.9-7.6l16.9-2.1l4.2-34.4l-24.4-57.3l-9.4-1.6l0.7-8.1H580.7z"/>
		<path class="st4" d="M698.7,366.8c5.6,6,8.5,14.9,8.5,26.6c0,9.5-1.9,18.2-5.8,26c-3.9,7.9-9.4,14.1-16.5,18.7
			c-7.1,4.6-15.3,6.9-24.7,6.9c-11,0-19.2-3.1-24.8-9.2c-5.6-6.1-8.4-15-8.4-26.7c0-9.5,1.9-18.1,5.8-26c3.9-7.8,9.4-14,16.5-18.6
			c7.1-4.5,15.3-6.8,24.5-6.8C684.7,357.8,693,360.8,698.7,366.8z M660.4,374.6c-2.8,4.4-4.8,10-6.1,16.7
			c-1.2,6.7-1.8,13.4-1.6,20.2c0.3,8.7,1.3,14.9,2.9,18.5c1.6,3.7,4.3,5.5,7.9,5.5c5.9,0,10.2-4.1,13.1-12.3
			c2.8-8.2,4.3-17.8,4.3-28.7c0-9.9-0.8-16.8-2.3-20.7c-1.5-3.9-4.1-5.9-7.6-5.9C666.8,367.9,663.2,370.1,660.4,374.6z"/>
		<path class="st4" d="M746.9,405c-1.3,8.7-1.9,14.4-1.9,17.2c0,3.6,0.5,6.2,1.6,7.7c1.1,1.5,2.9,2.3,5.4,2.3c2.7,0,5.3-0.7,7.9-2.2
			c2.5-1.4,4.8-3.3,6.7-5.5l9-66.1H799l-9.4,67.9c-0.4,3.7,0.6,5.5,3,5.5c0.8,0,1.6-0.2,2.5-0.7c0.8-0.4,2.2-1.3,4.1-2.6l2.1,5.1
			c-0.7,1.2-1.9,2.6-3.7,4.3c-1.8,1.6-4.1,3.1-7,4.4c-2.9,1.3-6.1,1.9-9.6,1.9c-3.9,0-6.9-0.7-9.1-2c-2.2-1.3-3.5-3.3-4-5.8
			c-0.1-0.3-0.1-0.8-0.1-1.6c0-1.2,0-2.1,0.1-2.7l-0.1-0.1c-3.2,3.6-6.8,6.5-10.8,8.8c-4,2.3-8.9,3.4-14.7,3.4
			c-5.3,0-10.1-1.5-14.5-4.6c-4.4-3-6.6-7.8-6.7-14.1c0-4.1,0.8-11.4,2.4-22c0.4-2,0.6-3.5,0.7-4.5l3.9-26.8l-9.3-5.7l1.2-6.4
			l29-2.4l3.7,1.8l-4.9,40.1L746.9,405z"/>
		<path class="st4" d="M850,364.2c4.3-4.2,9.2-6.3,14.8-6.3c2.2,0,3.9,0.5,5.1,1.5l-4.9,25.6c-0.4-0.5-1.3-1-2.8-1.6
			c-1.5-0.6-3.3-0.9-5.4-0.9c-3.1,0-6,0.3-8.6,1c-2.6,0.6-4.7,1.6-6.1,2.8l-7.8,56.7h-23l9.4-70.5l-7.8-4.2l1.2-6.4l23.9-3.9
			l3.9,2.5l-0.7,13.8l-0.3,5.4C842.7,373.5,845.7,368.4,850,364.2z"/>
	</g>
	<g class="st2">
		<path class="st5" d="M778.2,518.9l0.4-28.6h2.7c7.5,21.8,20.8,31.6,33.8,31.6c9.3,0,17.2-5.2,16.9-15.6
			c-0.6-13.3-15.6-19.7-30.2-26.8c-14.5-6.9-25.6-16-25-31.9c0.4-17.2,14.1-31.3,40.4-31.3c13.6,0,24.4,4,33.2,7.5l-0.3,28.1h-2.5
			c-6.9-20.6-16.8-30.1-30.4-30.1c-11.1,0-17.8,5.8-18,13.6c-0.1,11.8,16,17.1,31.4,24.7c18.9,9.6,24.5,20.2,24.1,34.1
			c-0.7,23.3-18.3,33.1-38.8,33.1C806.6,527.5,793.2,525.4,778.2,518.9z"/>
		<path class="st5" d="M889.8,415v95.3c0,10.2,5.8,12.1,10.2,13v2.4h-45.3v-2.4c4.5-0.9,10.2-2.8,10.2-13v-75.7
			c0-10.3-5.8-11.2-10.2-11.4l-0.4-2.4L889.8,415z M891.9,486.3l-0.1-0.3l20.6-17.8c4-3.4,5.5-6.1,5.5-8.2c0-5.2-9.6-6.6-14.7-7.2
			v-3h39.8v0.7L913.1,476l21.1,35.9c4.2,6.9,8.8,10,14.7,11.4v2.4h-36.4L891.9,486.3z"/>
		<path class="st5" d="M955.9,510.3v-45c0-10.2-5.8-12.1-10.3-13v-2.4h35v60.4c0,10.2,5.8,12.1,10.3,13v2.4h-45.3v-2.4
			C949.9,522.4,955.9,520.4,955.9,510.3z M965.8,413.3c7.8,0,14.2,6.1,14.2,13.9s-6.6,13.9-14.2,13.9c-7.6,0-14.2-6.1-14.2-13.9
			S958,413.3,965.8,413.3z"/>
		<path class="st5" d="M998,510.3v-75.7c0-10.3-5.8-11.2-10.3-11.4l-0.4-2.4l35.8-5.8v95.3c0,10.2,5.8,12.1,10.2,13v2.4h-45.3v-2.4
			C992.1,522.4,998,520.4,998,510.3z"/>
		<path class="st5" d="M1040.2,510.3v-75.7c0-10.3-5.8-11.2-10.3-11.4l-0.4-2.4l35.8-5.8v95.3c0,10.2,5.8,12.1,10.2,13v2.4H1030
			v-2.4C1034.3,522.4,1040.2,520.4,1040.2,510.3z"/>
		<path class="st5" d="M1078,521.2l0.1-22.3h2.5c10.3,17.7,17.7,22.9,26.3,22.9c7.2,0,9.9-3.6,9.9-8.2c0-9-10.8-11.4-22-16.8
			c-13.2-6.3-19-13.6-19-23.6c0-13.9,10.8-24.2,30.5-24.2c5.8,0,14.7,1,25.4,5.2l-0.1,20.8h-2.7c-8.2-17.7-16-20.6-22.6-20.6
			c-7.5,0-11.5,3.7-11.5,8.4c0,7.5,11.2,9.9,25.7,17.4c7,3.4,15.9,8.7,15.9,22.1c0,15.7-12,25.1-29.8,25.1
			C1101,527.3,1090.7,526.1,1078,521.2z"/>
	</g>
	<g class="st6">
		<image style="overflow:visible;" width="338" height="303" xlink:href="B649B7D6.png"  transform="matrix(1 0 0 1 201 236)">
		</image>
	</g>
	<g class="st2">
		<path class="st3" d="M502.6,334.2c0-20.6-11.4-39.6-29.5-49.3v47.4l-9.7,6.7h-38.5l-9.7-6.7v-47.4c-10.3,5.5-18.7,14.2-23.8,24.7
			c6.2,12.2,9.4,25.8,9.3,39.5c0,6.9-0.9,13.7-2.6,20.3c6.9,8.6,16.3,14.9,26.8,18.2c-0.1,0.7-0.1,1.5-0.1,2.2v112.3h12.2v-71.9
			c0.6-0.3,1.1-0.5,1.7-0.7c1.7-0.6,3.4-0.9,5.2-0.8c0.1,0,0.2,0,0.3,0c0.1,0,0.2,0,0.3,0c1.8,0,3.5,0.3,5.2,0.8
			c0.6,0.2,1.2,0.4,1.7,0.7v71.9h12.2V389.8c0-0.8,0-1.5-0.1-2.2C486.7,380.3,502.6,358.7,502.6,334.2z"/>
		<path class="st3" d="M313.7,432.4h-44.2l-0.2,34.4c0,3.6,1.8,6.9,4.7,8.8c7.2,4.7,20.1,13.1,20.8,13.2c1.1,7.3,9,13.1,18.8,13.3
			c9.8-0.3,17.8-6,18.8-13.3c0.8-0.2,13.6-8.5,20.8-13.2c3-2,4.8-5.3,4.7-8.8l-0.2-34.4H313.7z"/>
		<path class="st3" d="M313.8,272.4h-0.2c-42,0.4-75.9,34.6-75.8,76.6c0,14.8,4.6,28.7,14,42.4c7.3,10.5,13.3,21.9,17.6,34
			c0.1,0.1,0.1,0.3,0.1,0.4h15c0-0.1-0.1-0.3-0.1-0.4c-4.8-15-11.8-29.1-20.9-42c-7.3-10-11.3-22-11.5-34.4
			c0-34.2,27.5-62,61.6-62.4h0.2c34.2,0.4,61.7,28.2,61.7,62.4c-0.2,12.4-4.2,24.4-11.5,34.4c-9,12.9-16.1,27-20.9,42
			c0,0.1-0.1,0.3-0.1,0.4h15c0-0.1,0.1-0.3,0.1-0.4c4.3-12.1,10.2-23.5,17.6-34c9.4-13.7,14-27.6,14-42.4
			C389.7,307,355.8,272.8,313.8,272.4z"/>
	</g>
	<g id="Calque_3" class="st2">
		<g>
			<defs>
				<path id="SVGID_1_" d="M778.2,518.9l0.4-28.6h2.7c7.5,21.8,20.8,31.6,33.8,31.6c9.3,0,17.2-5.2,16.9-15.6
					c-0.6-13.3-15.6-19.7-30.2-26.8c-14.5-6.9-25.6-16-25-31.9c0.4-17.2,14.1-31.3,40.4-31.3c13.6,0,24.4,4,33.2,7.5l-0.3,28.1h-2.5
					c-6.9-20.6-16.8-30.1-30.4-30.1c-11.1,0-17.8,5.8-18,13.6c-0.1,11.8,16,17.1,31.4,24.7c18.9,9.6,24.5,20.2,24.1,34.1
					c-0.7,23.3-18.3,33.1-38.8,33.1C806.6,527.5,793.2,525.4,778.2,518.9z"/>
			</defs>
			<clipPath id="SVGID_2_">
				<use xlink:href="#SVGID_1_"  style="overflow:visible;"/>
			</clipPath>
			<path class="st7" d="M746.9,405c-1.3,8.7-1.9,14.4-1.9,17.2c0,3.6,0.5,6.2,1.6,7.7c1.1,1.5,2.9,2.3,5.4,2.3
				c2.7,0,5.3-0.7,7.9-2.2c2.5-1.4,4.8-3.3,6.7-5.5l9-66.1H799l-9.4,67.9c-0.4,3.7,0.6,5.5,3,5.5c0.8,0,1.6-0.2,2.5-0.7
				c0.8-0.4,2.2-1.3,4.1-2.6l2.1,5.1c-0.7,1.2-1.9,2.6-3.7,4.3c-1.8,1.6-4.1,3.1-7,4.4c-2.9,1.3-6.1,1.9-9.6,1.9
				c-3.9,0-6.9-0.7-9.1-2c-2.2-1.3-3.5-3.3-4-5.8c-0.1-0.3-0.1-0.8-0.1-1.6c0-1.2,0-2.1,0.1-2.7l-0.1-0.1c-3.2,3.6-6.8,6.5-10.8,8.8
				c-4,2.3-8.9,3.4-14.7,3.4c-5.3,0-10.1-1.5-14.5-4.6c-4.4-3-6.6-7.8-6.7-14.1c0-4.1,0.8-11.4,2.4-22c0.4-2,0.6-3.5,0.7-4.5
				l3.9-26.8l-9.3-5.7l1.2-6.4l29-2.4l3.7,1.8l-4.9,40.1L746.9,405z"/>
		</g>
		<g>
			<defs>
				<path id="SVGID_3_" d="M778.2,518.9l0.4-28.6h2.7c7.5,21.8,20.8,31.6,33.8,31.6c9.3,0,17.2-5.2,16.9-15.6
					c-0.6-13.3-15.6-19.7-30.2-26.8c-14.5-6.9-25.6-16-25-31.9c0.4-17.2,14.1-31.3,40.4-31.3c13.6,0,24.4,4,33.2,7.5l-0.3,28.1h-2.5
					c-6.9-20.6-16.8-30.1-30.4-30.1c-11.1,0-17.8,5.8-18,13.6c-0.1,11.8,16,17.1,31.4,24.7c18.9,9.6,24.5,20.2,24.1,34.1
					c-0.7,23.3-18.3,33.1-38.8,33.1C806.6,527.5,793.2,525.4,778.2,518.9z"/>
			</defs>
			<clipPath id="SVGID_4_">
				<use xlink:href="#SVGID_3_"  style="overflow:visible;"/>
			</clipPath>
			<path class="st8" d="M850,364.2c4.3-4.2,9.2-6.3,14.8-6.3c2.2,0,3.9,0.5,5.1,1.5l-4.9,25.6c-0.4-0.5-1.3-1-2.8-1.6
				c-1.5-0.6-3.3-0.9-5.4-0.9c-3.1,0-6,0.3-8.6,1c-2.6,0.6-4.7,1.6-6.1,2.8l-7.8,56.7h-23l9.4-70.5l-7.8-4.2l1.2-6.4l23.9-3.9
				l3.9,2.5l-0.7,13.8l-0.3,5.4C842.7,373.5,845.7,368.4,850,364.2z"/>
		</g>
	</g>
</g>
<g id="Calque_4">
	<g id="XMLID_2_" class="st9">
		<image style="overflow:visible;" width="298" height="299" xlink:href="B649B7D0.png"  transform="matrix(1 0 0 1 224 252)">
		</image>
	</g>
	<g id="XMLID_8_">
		<g id="XMLID_11_">
			<path id="XMLID_12_" class="st10" d="M485.8,432.7V288.5H260.1v225.8h225.8v-56.4H385.5v-25.1H485.8z M310.2,457.8l-18.1-18
				l38.1-38.1l-38.8-38.8l18-18l56.8,56.8L310.2,457.8z"/>
		</g>
	</g>
	<g>
		<path class="st5" d="M529.3,334.2c0-28.5,18.8-49,47.7-49c7.3,0,15.6,1.4,28.5,5.4v28.5h-3.6c-4-12-11.4-27.6-24.5-27.6
			c-14.5,0-20.9,17-20.9,40.6c0,24.1,11.7,34.9,24.5,34.9c11.9,0,20.4-8.2,24.6-14.6l2.8,2.9c-4.2,10.8-15.6,25.1-36,25.1
			C549.9,380.5,529.3,362.9,529.3,334.2z"/>
		<path class="st5" d="M610,345.9c0-22,17.6-33.5,34.5-33.5c16.8,0,34.5,11.4,34.5,33.5c0,22.2-17.7,34.5-34.5,34.5
			C627.6,380.4,610,368.1,610,345.9z M644.5,374.2c7.8,0,9.1-16.8,9.1-28.3c0-11.4-1.3-27.4-9.1-27.4c-8.1,0-9.1,16-9.1,27.4
			C635.4,357.7,636.4,374.2,644.5,374.2z"/>
		<path class="st5" d="M728.7,372.4c-4.1,4.5-10,7.8-17.3,7.8c-13.1,0-24.7-10.1-24.7-32.8c0-23.1,14.1-35,30-35
			c3.8,0,7.4,0.6,11,2.2v-13.2c0-8.3-4.5-8.5-8.3-8.8l-0.5-3.3l32.9-5.3v81.1c0,8.3,4.9,9.5,8.6,10.3v3.6h-26.1
			C731.7,377.2,729.7,374.9,728.7,372.4z M721.8,369.1c2.1,0,4.1-1,5.9-2.8V331c-0.5-7.9-2.8-11.8-7.3-11.8c-5.1,0-8.7,4.7-8.7,20.8
			C711.7,357,714,369.1,721.8,369.1z"/>
		<path class="st5" d="M762.4,346.3c0-21.4,12.7-33.8,32-33.8c22.7,0,30.9,18.1,30.4,33.7h-38.1c1.3,15.4,8.8,21.3,17.3,21.3
			c5.6,0,11.7-2.7,17.4-9.4l3.2,0.8c-2.3,8.2-12.3,21.5-29.6,21.5C780,380.4,762.4,370,762.4,346.3z M801.8,339.9
			c0.1-8.5-1.3-21.4-7.3-21.4c-6.2,0-7.6,13.8-7.8,21.4H801.8z"/>
	</g>
	<g>
		<path class="st5" d="M851.4,290.4v-3.8h47v3.8c-4.5,1-9.5,2.2-5.5,10l15.9,31.9l16.5-32c4-7.9-1-8.8-5.4-9.9v-3.8h28.8v3.8
			c-4.2,1-10.9,2.1-15.5,10.5l-20.4,37.7v25.1c0,9.5,6.2,10.5,10.4,11.4v3.8h-46v-3.8c4.4-0.9,10.3-2.2,10.3-11.4v-25.1L867,300.8
			C862.4,292.3,855.5,291.4,851.4,290.4z"/>
		<path class="st5" d="M932.4,345.9c0-22,17.6-33.5,34.5-33.5c16.8,0,34.5,11.4,34.5,33.5c0,22.2-17.7,34.5-34.5,34.5
			C950,380.4,932.4,368.1,932.4,345.9z M966.9,374.2c7.8,0,9.1-16.8,9.1-28.3c0-11.4-1.3-27.4-9.1-27.4c-8.1,0-9.1,16-9.1,27.4
			C957.8,357.7,958.8,374.2,966.9,374.2z"/>
		<path class="st5" d="M1010.3,358.1v-31c0-8.5-5.3-9.6-8.5-10.4v-3.5h32V355c0,7.2,3.2,9.4,7.7,9.5c3.1,0.1,6.2-0.9,8.6-2.4v-35
			c0-8.5-3.7-9.6-6.5-10.4v-3.5h30.3v51.9c0,8.3,4.9,9.5,8.5,10.3v3.6H1057c-2.8-2.9-4.7-6.2-6-9.4c-4.2,5.4-10.8,10.1-19.7,10.1
			C1019.9,379.7,1010.3,371.8,1010.3,358.1z"/>
		<path class="st5" d="M1091.6,365.1V327c0-7.9-4.4-9.5-8.5-10.4v-3.5h32.2V330c4.5-11.5,14.4-19.7,26.1-17l-3.7,21.5h-2.3
			c-10.3-5.3-20.1,2.1-20.1,19.7v10.9c0,8.5,5,9.5,8.5,10.3v3.6h-40.6v-3.6C1086.6,374.6,1091.6,373.4,1091.6,365.1z"/>
	</g>
	<g class="st11">
		<image style="overflow:visible;" width="642" height="190" xlink:href="B649B7D1.png"  transform="matrix(1 0 0 1 493 358)">
		</image>
	</g>
	<g>
		<path class="st3" d="M530.9,502.8l0.5-31.9h4.9c7.9,22.8,21.3,32.7,34.3,32.7c9.5,0,16.3-4.9,15.8-14.5c-0.5-12.6-16-19.6-31-26.9
			c-13.6-6.6-26.7-16.1-26.1-34.1c0.6-18.5,15.2-33.7,43.6-33.7c14.4,0,25.8,4.4,35.7,7.9l-0.5,31.5h-4.6
			c-7.4-21-16.4-31.1-30.8-31.1c-10.4,0-16.8,5.1-16.9,12.3c-0.2,11.7,16.9,16.9,31.9,24.7c20.2,10.4,26.1,22.3,25.6,36.5
			c-0.8,25.1-19.9,35.7-42.1,35.7C560.8,511.8,546.7,509.3,530.9,502.8z"/>
		<path class="st3" d="M627,484.2v-38.3c0-10.4-6.5-11.9-10.4-12.8v-4.3h39.5v51.5c0,8.9,4,11.5,9.5,11.7c3.8,0.2,7.6-1.1,10.6-3
			v-43.2c0-10.4-4.6-11.9-8.1-12.8v-4.3h37.3v64c0,10.3,6,11.7,10.4,12.6v4.4h-31.3c-3.5-3.6-5.8-7.6-7.4-11.5
			c-5.2,6.6-13.3,12.5-24.3,12.5C638.9,510.9,627,501.1,627,484.2z"/>
		<path class="st3" d="M716.2,469.6c0-26.1,18.3-41.7,42.5-41.7c9.2,0,20.2,2.4,28.6,6v25.8h-4.6c-8.2-18.5-14.1-23.1-20.7-23.1
			c-10.9,0-15.3,12.8-15.2,28.3c0.2,17.9,7.4,31.3,20.9,31.3c9.3,0,16.3-6.6,20.1-12l4,0.9c-2.8,11.1-15.2,26.6-35.7,26.6
			C737.5,511.7,716.2,498.9,716.2,469.6z"/>
		<path class="st3" d="M796,469.6c0-26.1,18.3-41.7,42.5-41.7c9.2,0,20.2,2.4,28.6,6v25.8h-4.6c-8.2-18.5-14.1-23.1-20.7-23.1
			c-10.9,0-15.3,12.8-15.2,28.3c0.2,17.9,7.4,31.3,20.9,31.3c9.3,0,16.3-6.6,20.1-12l4,0.9c-2.8,11.1-15.2,26.6-35.7,26.6
			C817.3,511.7,796,498.9,796,469.6z"/>
		<path class="st3" d="M876,469.6c0-26.4,15.7-41.7,39.5-41.7c28,0,38.1,22.3,37.5,41.6h-47c1.6,19,10.9,26.2,21.3,26.2
			c7,0,14.4-3.3,21.5-11.5l4,0.9c-2.8,10.1-15.2,26.6-36.5,26.6C897.7,511.7,876,498.9,876,469.6z M924.5,461.7
			c0.2-10.4-1.6-26.4-9-26.4c-7.6,0-9.3,17.1-9.6,26.4H924.5z"/>
		<path class="st3" d="M963.6,505.2l0.2-25.5h4.7c11.2,18.5,17.7,23.9,26.7,23.9c6.6,0,8.7-3,8.7-7c0-7.7-9.2-10-22.4-16.6
			c-13.8-6.8-20.1-15-20.1-25.6c0-15,12-26.6,33.4-26.6c7,0,15.8,1.1,27.7,5.7v23.7h-4.9c-8.5-18-15.8-21.5-22.8-21.5
			c-7.1,0-10.6,3.2-10.6,7.1c0,6.3,9.6,8.7,26.4,17.4c7,3.8,16.8,9.2,16.8,24c0,16.8-13.1,27.3-32.4,27.3
			C988.7,511.7,977.5,510.6,963.6,505.2z"/>
		<path class="st3" d="M1035,505.2l0.2-25.5h4.7c11.2,18.5,17.7,23.9,26.7,23.9c6.6,0,8.7-3,8.7-7c0-7.7-9.2-10-22.4-16.6
			c-13.8-6.8-20.1-15-20.1-25.6c0-15,12-26.6,33.4-26.6c7,0,15.8,1.1,27.7,5.7v23.7h-4.9c-8.5-18-15.8-21.5-22.8-21.5
			c-7.1,0-10.6,3.2-10.6,7.1c0,6.3,9.6,8.7,26.4,17.4c7,3.8,16.8,9.2,16.8,24c0,16.8-13.1,27.3-32.4,27.3
			C1060.2,511.7,1048.9,510.6,1035,505.2z"/>
	</g>
</g>
</svg>
