<?xml version="1.0" encoding="utf-8"?>
<!-- Generator: Adobe Illustrator 19.0.0, SVG Export Plug-In . SVG Version: 6.00 Build 0)  -->
<svg version="1.1" id="Calque_1" xmlns="http://www.w3.org/2000/svg" xmlns:xlink="http://www.w3.org/1999/xlink" x="0px" y="0px"
	 viewBox="194 147 1000 500" style="enable-background:new 194 147 1000 500;" xml:space="preserve">
<style type="text/css">
	.st0{display:none;}
	.st1{display:inline;fill:#161616;}
	.st2{display:inline;}
	.st3{fill:#F2DBC2;}
	.st4{display:inline;fill:#F2DBC2;}
	.st5{display:inline;fill:url(#XMLID_9_);}
	.st6{clip-path:url(#SVGID_2_);fill:#C1272D;}
	.st7{clip-path:url(#SVGID_4_);fill:#C1272D;}
	.st8{clip-path:url(#SVGID_6_);fill:#C1272D;}
	.st9{clip-path:url(#SVGID_8_);fill:#C1272D;}
	.st10{clip-path:url(#SVGID_10_);fill:#C1272D;}
	.st11{clip-path:url(#SVGID_12_);fill:#C1272D;}
	.st12{clip-path:url(#SVGID_14_);fill:#C1272D;}
	.st13{clip-path:url(#SVGID_16_);fill:#C1272D;}
	.st14{clip-path:url(#SVGID_18_);fill:#C1272D;}
	.st15{clip-path:url(#SVGID_20_);fill:#C1272D;}
	.st16{clip-path:url(#SVGID_22_);fill:#C1272D;}
	.st17{clip-path:url(#SVGID_24_);fill:#C1272D;}
	.st18{display:inline;fill:#C1272D;}
	.st19{display:none;fill:url(#XMLID_11_);}
	.st20{clip-path:url(#SVGID_26_);}
	.st21{fill:#C1272D;}
	.st22{clip-path:url(#SVGID_28_);fill:#C1272D;}
	.st23{clip-path:url(#SVGID_30_);fill:#C1272D;}
	.st24{clip-path:url(#SVGID_32_);}
	.st25{clip-path:url(#SVGID_34_);}
	.st26{clip-path:url(#SVGID_36_);}
	.st27{clip-path:url(#SVGID_38_);}
	.st28{clip-path:url(#SVGID_40_);}
	.st29{clip-path:url(#SVGID_42_);}
	.st30{clip-path:url(#SVGID_44_);}
	.st31{clip-path:url(#SVGID_46_);fill:#C1272D;}
	.st32{clip-path:url(#SVGID_48_);fill:#C1272D;}
	.st33{clip-path:url(#SVGID_50_);fill:#C1272D;}
</style>
<g id="Logo">
	<g id="Calque_2" class="st0">
		<rect id="XMLID_1_" x="643.3" y="295.5" class="st1" width="1000" height="500"/>
	</g>
</g>
<g id="Search" class="st0">
	<text transform="matrix(1 0 0 1 556.6946 860.5191)" class="st4" style="font-family:'NexaSlab-Bold'; font-size:20.7076px;">Search</text>
	<g class="st2">
		<path class="st3" d="M579.4,842.2h-5.7c-3.3,0-5.2-1.7-7.6-4.1l0,0l0,0l-8.6-10.6c-1.3-1.6-1-4,0.6-5.3s4-1,5.3,0.6l1.2,1.5v-20.1
			c0-2.1,1.6-3.8,3.7-3.8c2.1-0.1,3.8,1.6,3.9,3.7v0.1v9.1c0.6-0.3,1.3-0.5,2-0.4c1.6,0.1,2.9,1.2,3.3,2.7c0.6-0.3,1.2-0.5,1.8-0.5
			l0,0c1,0,1.9,0.4,2.6,1.1c0.3,0.3,0.6,0.7,0.7,1c0.6-0.4,1.4-0.7,2.2-0.7c2,0,3.7,1.8,3.7,3.8v3.6v1v8.1
			C588.5,838.1,584.4,842.2,579.4,842.2z M567.6,836.8c2.4,2.4,3.8,3.4,6.1,3.4h5.7c3.9,0,7.1-3.2,7.1-7.1V826v-1v-4.6
			c0-1-0.8-1.8-1.7-1.8s-1.6,0.6-1.8,1.5l0,0c-0.1,0.5-0.5,0.9-1.1,0.9l0,0c-0.5,0-1-0.5-1-1v-1c0-0.5-0.2-1-0.5-1.3
			s-0.8-0.5-1.2-0.5c-0.8,0-1.5,0.6-1.7,1.4l0,0c-0.1,0.5-0.6,0.9-1.1,0.8l0,0c-0.5,0-0.9-0.5-0.9-1v-1.7c0-0.9-0.7-1.7-1.6-1.8
			c-0.9-0.1-1.7,0.6-1.9,1.5l0,0c-0.1,0.5-0.5,0.9-1.1,0.9l0,0c-0.5,0-0.9-0.5-0.9-1v-12c0-0.4-0.2-0.9-0.5-1.2
			c-0.3-0.4-0.8-0.6-1.3-0.6c-0.9,0-1.7,0.8-1.7,1.8v21.8l0,0v1.2c0,0.4-0.3,0.8-0.7,1l0,0c-0.4,0.1-0.9,0-1.1-0.3l0,0l-3-3.7
			c-0.3-0.4-0.9-0.7-1.4-0.6c-0.3,0-0.5,0.1-0.8,0.2c-0.8,0.5-1.1,1.5-0.7,2.4c0,0.1,0.1,0.2,0.2,0.3L567.6,836.8z"/>
	</g>
	<path class="st4" d="M600.1,806.3c-7,5.8-7.9,16.3-2.1,23.3c5.6,6.6,15.1,7.8,22,3l1.4,1.6c-0.8,1-0.8,2.3,0,3.3l9.1,11
		c0.9,1.1,2.5,1.2,3.5,0.3l1.8-1.5c1-0.9,1.2-2.5,0.3-3.5l-9.2-11c-0.8-1-2.2-1.2-3.2-0.6l-1.4-1.6c5.9-6,6.4-15.6,0.9-22.2
		C617.5,801.3,607.1,800.4,600.1,806.3z M599.7,824.1c-2.8-6.1-0.2-13.3,5.9-16.1c6.1-2.8,13.3-0.2,16.1,5.9
		c2.8,6.1,0.2,13.3-5.9,16.1C609.7,832.8,602.5,830.1,599.7,824.1z"/>
</g>
<g id="Repères" class="st0">
	<g id="Exterieurs" class="st2">
	</g>
	<g id="Interieurs" class="st2">
	</g>
</g>
<g id="XMLID_34_" class="st0">
	
		<linearGradient id="XMLID_9_" gradientUnits="userSpaceOnUse" x1="1010" y1="-16620.9492" x2="1133" y2="-16620.9492" gradientTransform="matrix(1 0 0 -1 0 -15872)">
		<stop  offset="0" style="stop-color:#FFFFFF"/>
		<stop  offset="1" style="stop-color:#000000"/>
	</linearGradient>
	<rect id="XMLID_14_" x="1010" y="687.2" class="st5" width="123" height="123.5"/>
	<g id="XMLID_25_" class="st2">
		<g>
			<g>
				<defs>
					<rect id="SVGID_1_" x="1010" y="687.2" width="123" height="123.5"/>
				</defs>
				<clipPath id="SVGID_2_">
					<use xlink:href="#SVGID_1_"  style="overflow:visible;"/>
				</clipPath>
				<path id="_x32__2_" class="st6" d="M1057.5,833.4c0,0,8.3-4,13.6-8.5c10.3-9,18.1-11.8,35.6-8.5s22.1,1.9,23,1.4l5.7-6.7
					c0,0,15.5,4.5,3.4-3.3c-24.6-15.8-47.8-6.4-58.6,1.3c-13.9,9.8-10.5,23.6-30.3,23.9L1057.5,833.4z"/>
			</g>
		</g>
	</g>
	<g id="XMLID_24_" class="st2">
		<g>
			<g>
				<defs>
					<rect id="SVGID_3_" x="1010" y="687.2" width="123" height="123.5"/>
				</defs>
				<clipPath id="SVGID_4_">
					<use xlink:href="#SVGID_3_"  style="overflow:visible;"/>
				</clipPath>
				<path id="_x33__2_" class="st7" d="M1036.8,828.9c0,0,12.7,8.3,41.4-20.1c28.6-28.4,68.8-6.6,81.7-1l2.8-15.7
					c0,0-43.4-18.7-85.2,6.8c-41.8,25.4-55.3,14.9-71.2,7.7l19.9,14.4c0,0,29.1,0.7,43.3-11.2c0,0-16.8,17.1-39.4,16.4L1036.8,828.9
					z"/>
			</g>
		</g>
	</g>
	<g id="XMLID_23_" class="st2">
		<g>
			<g>
				<defs>
					<rect id="SVGID_5_" x="1010" y="687.2" width="123" height="123.5"/>
				</defs>
				<clipPath id="SVGID_6_">
					<use xlink:href="#SVGID_5_"  style="overflow:visible;"/>
				</clipPath>
				<path id="_x34__2_" class="st8" d="M1006.4,805.9c0,0,40.6,5.4,73.1-24.1s70.6-41.4,97.8-30.9l-11.5,37.5c0,0-31.8-25-78.8-0.7
					C1039.8,812,1031.1,811.3,1006.4,805.9z"/>
			</g>
		</g>
	</g>
	<g id="XMLID_22_" class="st2">
		<g>
			<g>
				<defs>
					<rect id="SVGID_7_" x="1010" y="687.2" width="123" height="123.5"/>
				</defs>
				<clipPath id="SVGID_8_">
					<use xlink:href="#SVGID_7_"  style="overflow:visible;"/>
				</clipPath>
				<path id="_x35__2_" class="st9" d="M1000.3,802.7c0,0,41.9,5.7,59-14.3c17.2-19.9,39.4-86.9,106-74.1l8.8,32.8
					c0,0-44.8-24.4-86.9,24.9C1087.2,772,1050.1,813.5,1000.3,802.7z"/>
			</g>
		</g>
	</g>
	<g id="XMLID_21_" class="st2">
		<g>
			<g>
				<defs>
					<rect id="SVGID_9_" x="1010" y="687.2" width="123" height="123.5"/>
				</defs>
				<clipPath id="SVGID_10_">
					<use xlink:href="#SVGID_9_"  style="overflow:visible;"/>
				</clipPath>
				<path id="_x36__2_" class="st10" d="M999.2,800.5c0,0,31.5,6,40.3-7.4s15-19.6,13.6-25.5c-1.5-5.9-14.2-17.5-17.3-22.1
					c-3.1-4.6-14.9-17-38.9,0s-25.3,25.2-30.2,24.7l6.9,5.1c0,0,26-18.6,30.5-20.7c4.5-2.1,18-10.6,26.1-0.3
					c8.2,10.2,14.4,11.9,9.4,21.2c-5,9.4-13.8,20-48,16.3L999.2,800.5z"/>
			</g>
		</g>
	</g>
	<g id="XMLID_20_" class="st2">
		<g>
			<g>
				<defs>
					<rect id="SVGID_11_" x="1010" y="687.2" width="123" height="123.5"/>
				</defs>
				<clipPath id="SVGID_12_">
					<use xlink:href="#SVGID_11_"  style="overflow:visible;"/>
				</clipPath>
				<path id="_x37__2_" class="st11" d="M974.2,775.9c0,0,29.8-22.3,40.8-25.4c0,0,12-4.4,15.7,7.9c0,0,2.5,5.4,5.6,7.8
					c0,0,11.8,8.9-10.3,21.6c0,0-10.9,6.7-35.6,3.4l-4-3.9c0,0,34.1,8.9,45.2-11.8c0,0,2.4-6.8-1.5-8.2c-3.8-1.4-6.9-6.2-7.2-6.9
					s-2.9-8.5-10.7-2.8C1004.5,763.2,992.7,768.6,974.2,775.9z"/>
			</g>
		</g>
	</g>
	<g id="XMLID_19_" class="st2">
		<g>
			<g>
				<defs>
					<rect id="SVGID_13_" x="1010" y="687.2" width="123" height="123.5"/>
				</defs>
				<clipPath id="SVGID_14_">
					<use xlink:href="#SVGID_13_"  style="overflow:visible;"/>
				</clipPath>
				<path id="_x38__2_" class="st12" d="M985.6,749.7c0,0,14.7-18.3,78.2-26c63.5-7.6,80.3-9.1,102.8-24.7c0,0-20.7-0.7-30.3-12.2
					c0,0-20,28.5-72.7,34.4C1010.8,727.1,1004.3,732.9,985.6,749.7z"/>
			</g>
		</g>
	</g>
	<g id="XMLID_18_" class="st2">
		<g>
			<g>
				<defs>
					<rect id="SVGID_15_" x="1010" y="687.2" width="123" height="123.5"/>
				</defs>
				<clipPath id="SVGID_16_">
					<use xlink:href="#SVGID_15_"  style="overflow:visible;"/>
				</clipPath>
				<path id="_x39__2_" class="st13" d="M987.2,745.8c0,0,20.2-19.8,46.8-23.1s74-10.6,99-39.9c0,0-5.3,0-9.3-2.5
					c0,0-19.6,28.7-55.2,35c-35.6,6.2-48.8,2.6-82,30.5C956.1,771.3,987.2,745.8,987.2,745.8z"/>
			</g>
		</g>
	</g>
	<g id="XMLID_17_" class="st2">
		<g>
			<g>
				<defs>
					<rect id="SVGID_17_" x="1010" y="687.2" width="123" height="123.5"/>
				</defs>
				<clipPath id="SVGID_18_">
					<use xlink:href="#SVGID_17_"  style="overflow:visible;"/>
				</clipPath>
				<path id="_x31_0_2_" class="st14" d="M987.4,736.9c0,0,23-20.3,65.6-20.8c42.7-0.5,68-36.1,64.9-50.1h-19.3
					c0,0,2,49.3-46.9,48.2C1003,713.1,992,730,987.4,736.9z"/>
			</g>
		</g>
	</g>
	<g id="XMLID_16_" class="st2">
		<g>
			<g>
				<defs>
					<rect id="SVGID_19_" x="1010" y="687.2" width="123" height="123.5"/>
				</defs>
				<clipPath id="SVGID_20_">
					<use xlink:href="#SVGID_19_"  style="overflow:visible;"/>
				</clipPath>
				<path id="_x31_1_2_" class="st15" d="M983.2,740.8c0,0,16-29,54.3-28.7c38.3,0.3,51.3-16.1,53.2-24.7c2-8.6,3.7-20.4-4.5-36.6
					l-6.2,12.1c0,0,20,26.9-16.5,41.3C1033.3,716.2,1011,696.6,983.2,740.8z"/>
			</g>
		</g>
	</g>
	<g id="XMLID_15_" class="st2">
		<g>
			<g>
				<defs>
					<rect id="SVGID_21_" x="1010" y="687.2" width="123" height="123.5"/>
				</defs>
				<clipPath id="SVGID_22_">
					<use xlink:href="#SVGID_21_"  style="overflow:visible;"/>
				</clipPath>
				<path id="_x31_2_2_" class="st16" d="M990.3,718.2c0,0,11.4-10.9,37.4-11.7c26-0.8,51.5-9.6,49.5-28.3
					c-2-18.6-12.6-22.2-12.6-22.2l-14.7,7.7c0,0,37.5,16.2,3.5,30.9C1019.3,709.3,1009.3,698.9,990.3,718.2z"/>
			</g>
		</g>
	</g>
	<g id="XMLID_2_" class="st2">
		<g>
			<g>
				<defs>
					<rect id="SVGID_23_" x="1010" y="687.2" width="123" height="123.5"/>
				</defs>
				<clipPath id="SVGID_24_">
					<use xlink:href="#SVGID_23_"  style="overflow:visible;"/>
				</clipPath>
				<path id="_x31_3_2_" class="st17" d="M997.1,703.6c0,0,38.9-2.3,50.3-14.5c11.4-12.3,3.6-22.4-2.9-25.2c0,0-2.5,6.9-15.4,8.8
					C1029.1,672.7,1068,688.9,997.1,703.6z"/>
			</g>
		</g>
	</g>
	<path id="XMLID_27_" class="st18" d="M1112.3,720.5c0,0-19.7,8.9-27.9,21.7c-8.2,12.8-15.2,20.6-21,33.3
		c-5.8,12.7-11.6,19.2-21.9,22.9S1018,803,1010,803v-0.8c0,0,17.2,1.3,31.3-4.8c14-6.1,20.2-28.9,16.4-39.7
		C1053.9,747.1,1072.9,723.8,1112.3,720.5z"/>
</g>
<g id="XMLID_40_">
	<g id="XMLID_3_">
		
			<linearGradient id="XMLID_11_" gradientUnits="userSpaceOnUse" x1="401.179" y1="-16282.2402" x2="722.7581" y2="-16282.2402" gradientTransform="matrix(1 0 0 -1 0 -15872)">
			<stop  offset="0" style="stop-color:#FFFFFF"/>
			<stop  offset="1" style="stop-color:#000000"/>
		</linearGradient>
		<rect id="XMLID_53_" x="401.2" y="248.8" class="st19" width="321.6" height="322.9"/>
		<g id="XMLID_50_">
			<g>
				<defs>
					<path id="SVGID_25_" d="M702.4,359.1L666,372.8v-21.3c0-2.9-2-5.6-5.2-6.7c-3.1-1.1-6.7-0.2-9,1.8l-47.1,46l22.9-96l0,0
						c0.7-2.7-0.4-5.4-2.9-7c-2.5-1.8-5.6-2-8.3-0.9l-27.6,10.5l-20.4-28.7c-1.6-2-4-3.4-7-3.4c-2.9,0-5.4,1.3-7,3.4l-20.4,28.7
						l-27.6-10.5l0,0c-2.7-1.1-6.1-0.7-8.3,0.9c-2.5,1.8-3.4,4.5-2.9,7l22.9,96l-47.1-46c-2.2-2.2-5.8-2.9-9-1.8
						c-3.1,1.1-5.2,3.8-5.2,6.7v22.9l-37.5-8.5c-3.1-0.7-6.7,0.4-8.5,2.7c-2,2.5-2,5.6-0.2,8.1l21.5,30.5l-17,9.4
						c-2.2,1.3-3.6,3.4-3.8,5.8c-0.2,2.2,1.1,4.5,3.1,6.1l68.8,46.4l-20.4,32.7l0,0c-1.3,2.2-1.3,5.2,0.4,7.4
						c1.6,2.2,4.5,3.4,7.6,3.1l82.3-7v34.8c0,4,3.6,7.2,8.1,7.2c4.5,0,8.1-3.1,8.1-7.2v-34.8l82.3,7c0.2,0,0.4,0,0.7,0
						c2.9,0,5.6-1.3,7-3.6c1.6-2.2,1.6-4.9,0.2-7.2l-20.4-32.7l68.8-46.4c2-1.3,3.4-3.6,3.1-6.1c-0.2-2.2-1.6-4.5-3.8-5.8l-17.5-9.9
						l22.4-37.9c1.6-2.7,1.1-5.8-1.3-8.1C709.3,358.7,705.7,358,702.4,359.1L702.4,359.1z"/>
				</defs>
				<clipPath id="SVGID_26_">
					<use xlink:href="#SVGID_25_"  style="overflow:visible;"/>
				</clipPath>
				<g class="st20">
					<path class="st21" d="M705.5,505.7v27.1c38.2,7.2,71.2,24.2,87.4,31.2l7.4-41C800.3,523,760.6,505.9,705.5,505.7z"/>
					<path class="st21" d="M619.6,520.5c-13.9,5.1-27.9,11.7-41.9,20.2c-109.2,66.4-144.6,39-186.1,20.2l52,37.7
						c0,0,76,1.8,113.2-29.4c0,0-44,44.6-102.9,42.8l17.3,7.2c0,0,33.2,21.8,108.3-52.5c12.7-12.6,26.2-21.4,40.1-27.3V520.5z"/>
				</g>
			</g>
		</g>
		<g id="XMLID_47_">
			<g>
				<defs>
					<path id="SVGID_27_" d="M702.4,359.1L666,372.8v-21.3c0-2.9-2-5.6-5.2-6.7c-3.1-1.1-6.7-0.2-9,1.8l-47.1,46l22.9-96l0,0
						c0.7-2.7-0.4-5.4-2.9-7c-2.5-1.8-5.6-2-8.3-0.9l-27.6,10.5l-20.4-28.7c-1.6-2-4-3.4-7-3.4c-2.9,0-5.4,1.3-7,3.4l-20.4,28.7
						l-27.6-10.5l0,0c-2.7-1.1-6.1-0.7-8.3,0.9c-2.5,1.8-3.4,4.5-2.9,7l22.9,96l-47.1-46c-2.2-2.2-5.8-2.9-9-1.8
						c-3.1,1.1-5.2,3.8-5.2,6.7v22.9l-37.5-8.5c-3.1-0.7-6.7,0.4-8.5,2.7c-2,2.5-2,5.6-0.2,8.1l21.5,30.5l-17,9.4
						c-2.2,1.3-3.6,3.4-3.8,5.8c-0.2,2.2,1.1,4.5,3.1,6.1l68.8,46.4l-20.4,32.7l0,0c-1.3,2.2-1.3,5.2,0.4,7.4
						c1.6,2.2,4.5,3.4,7.6,3.1l82.3-7v34.8c0,4,3.6,7.2,8.1,7.2c4.5,0,8.1-3.1,8.1-7.2v-34.8l82.3,7c0.2,0,0.4,0,0.7,0
						c2.9,0,5.6-1.3,7-3.6c1.6-2.2,1.6-4.9,0.2-7.2l-20.4-32.7l68.8-46.4c2-1.3,3.4-3.6,3.1-6.1c-0.2-2.2-1.6-4.5-3.8-5.8l-17.5-9.9
						l22.4-37.9c1.6-2.7,1.1-5.8-1.3-8.1C709.3,358.7,705.7,358,702.4,359.1L702.4,359.1z"/>
				</defs>
				<clipPath id="SVGID_28_">
					<use xlink:href="#SVGID_27_"  style="overflow:visible;"/>
				</clipPath>
				<path class="st22" d="M590.1,489.7c-2.4,2.1-4.8,4.2-7.2,6.4c-85,77.1-191.1,63-191.1,63c62.4,13.6,85.6,15.8,198.3-41.3V489.7z
					"/>
			</g>
		</g>
		<g id="XMLID_44_">
			<g>
				<defs>
					<path id="SVGID_29_" d="M702.4,359.1L666,372.8v-21.3c0-2.9-2-5.6-5.2-6.7c-3.1-1.1-6.7-0.2-9,1.8l-47.1,46l22.9-96l0,0
						c0.7-2.7-0.4-5.4-2.9-7c-2.5-1.8-5.6-2-8.3-0.9l-27.6,10.5l-20.4-28.7c-1.6-2-4-3.4-7-3.4c-2.9,0-5.4,1.3-7,3.4l-20.4,28.7
						l-27.6-10.5l0,0c-2.7-1.1-6.1-0.7-8.3,0.9c-2.5,1.8-3.4,4.5-2.9,7l22.9,96l-47.1-46c-2.2-2.2-5.8-2.9-9-1.8
						c-3.1,1.1-5.2,3.8-5.2,6.7v22.9l-37.5-8.5c-3.1-0.7-6.7,0.4-8.5,2.7c-2,2.5-2,5.6-0.2,8.1l21.5,30.5l-17,9.4
						c-2.2,1.3-3.6,3.4-3.8,5.8c-0.2,2.2,1.1,4.5,3.1,6.1l68.8,46.4l-20.4,32.7l0,0c-1.3,2.2-1.3,5.2,0.4,7.4
						c1.6,2.2,4.5,3.4,7.6,3.1l82.3-7v34.8c0,4,3.6,7.2,8.1,7.2c4.5,0,8.1-3.1,8.1-7.2v-34.8l82.3,7c0.2,0,0.4,0,0.7,0
						c2.9,0,5.6-1.3,7-3.6c1.6-2.2,1.6-4.9,0.2-7.2l-20.4-32.7l68.8-46.4c2-1.3,3.4-3.6,3.1-6.1c-0.2-2.2-1.6-4.5-3.8-5.8l-17.5-9.9
						l22.4-37.9c1.6-2.7,1.1-5.8-1.3-8.1C709.3,358.7,705.7,358,702.4,359.1L702.4,359.1z"/>
				</defs>
				<clipPath id="SVGID_30_">
					<use xlink:href="#SVGID_29_"  style="overflow:visible;"/>
				</clipPath>
				<path class="st23" d="M590.1,422.7c-25.1,35.9-43.4,71.6-59.9,90.7c-44.9,52.3-154.3,37.5-154.3,37.5
					c102,22.1,183.5-39.6,214.2-67.5V422.7z"/>
			</g>
		</g>
		<g id="XMLID_41_">
			<g>
				<defs>
					<path id="SVGID_31_" d="M702.4,359.1L666,372.8v-21.3c0-2.9-2-5.6-5.2-6.7c-3.1-1.1-6.7-0.2-9,1.8l-47.1,46l22.9-96l0,0
						c0.7-2.7-0.4-5.4-2.9-7c-2.5-1.8-5.6-2-8.3-0.9l-27.6,10.5l-20.4-28.7c-1.6-2-4-3.4-7-3.4c-2.9,0-5.4,1.3-7,3.4l-20.4,28.7
						l-27.6-10.5l0,0c-2.7-1.1-6.1-0.7-8.3,0.9c-2.5,1.8-3.4,4.5-2.9,7l22.9,96l-47.1-46c-2.2-2.2-5.8-2.9-9-1.8
						c-3.1,1.1-5.2,3.8-5.2,6.7v22.9l-37.5-8.5c-3.1-0.7-6.7,0.4-8.5,2.7c-2,2.5-2,5.6-0.2,8.1l21.5,30.5l-17,9.4
						c-2.2,1.3-3.6,3.4-3.8,5.8c-0.2,2.2,1.1,4.5,3.1,6.1l68.8,46.4l-20.4,32.7l0,0c-1.3,2.2-1.3,5.2,0.4,7.4
						c1.6,2.2,4.5,3.4,7.6,3.1l82.3-7v34.8c0,4,3.6,7.2,8.1,7.2c4.5,0,8.1-3.1,8.1-7.2v-34.8l82.3,7c0.2,0,0.4,0,0.7,0
						c2.9,0,5.6-1.3,7-3.6c1.6-2.2,1.6-4.9,0.2-7.2l-20.4-32.7l68.8-46.4c2-1.3,3.4-3.6,3.1-6.1c-0.2-2.2-1.6-4.5-3.8-5.8l-17.5-9.9
						l22.4-37.9c1.6-2.7,1.1-5.8-1.3-8.1C709.3,358.7,705.7,358,702.4,359.1L702.4,359.1z"/>
				</defs>
				<clipPath id="SVGID_32_">
					<use xlink:href="#SVGID_31_"  style="overflow:visible;"/>
				</clipPath>
				<g id="XMLID_61_" class="st24">
					<path id="_x36__1_" class="st21" d="M372.9,545c0,0,82.3,15.7,105.4-19.3c23.1-35,39.2-51.1,35.7-66.6
						c-3.8-15.5-37.2-45.7-45.3-57.9c-8.1-12.1-39-44.4-101.8,0s-66.2,65.9-78.9,64.6l17.9,13.2c0,0,67.9-48.7,79.8-54
						c11.9-5.4,47.1-27.8,68.2-0.7c21.5,26.7,37.7,31.2,24.7,55.4c-13,24.7-36.1,52.3-125.6,42.6L372.9,545z"/>
				</g>
			</g>
		</g>
		<g id="XMLID_12_">
			<g>
				<defs>
					<path id="SVGID_33_" d="M702.4,359.1L666,372.8v-21.3c0-2.9-2-5.6-5.2-6.7c-3.1-1.1-6.7-0.2-9,1.8l-47.1,46l22.9-96l0,0
						c0.7-2.7-0.4-5.4-2.9-7c-2.5-1.8-5.6-2-8.3-0.9l-27.6,10.5l-20.4-28.7c-1.6-2-4-3.4-7-3.4c-2.9,0-5.4,1.3-7,3.4l-20.4,28.7
						l-27.6-10.5l0,0c-2.7-1.1-6.1-0.7-8.3,0.9c-2.5,1.8-3.4,4.5-2.9,7l22.9,96l-47.1-46c-2.2-2.2-5.8-2.9-9-1.8
						c-3.1,1.1-5.2,3.8-5.2,6.7v22.9l-37.5-8.5c-3.1-0.7-6.7,0.4-8.5,2.7c-2,2.5-2,5.6-0.2,8.1l21.5,30.5l-17,9.4
						c-2.2,1.3-3.6,3.4-3.8,5.8c-0.2,2.2,1.1,4.5,3.1,6.1l68.8,46.4l-20.4,32.7l0,0c-1.3,2.2-1.3,5.2,0.4,7.4
						c1.6,2.2,4.5,3.4,7.6,3.1l82.3-7v34.8c0,4,3.6,7.2,8.1,7.2c4.5,0,8.1-3.1,8.1-7.2v-34.8l82.3,7c0.2,0,0.4,0,0.7,0
						c2.9,0,5.6-1.3,7-3.6c1.6-2.2,1.6-4.9,0.2-7.2l-20.4-32.7l68.8-46.4c2-1.3,3.4-3.6,3.1-6.1c-0.2-2.2-1.6-4.5-3.8-5.8l-17.5-9.9
						l22.4-37.9c1.6-2.7,1.1-5.8-1.3-8.1C709.3,358.7,705.7,358,702.4,359.1L702.4,359.1z"/>
				</defs>
				<clipPath id="SVGID_34_">
					<use xlink:href="#SVGID_33_"  style="overflow:visible;"/>
				</clipPath>
				<g id="XMLID_58_" class="st25">
					<path id="_x37__1_" class="st21" d="M307.7,480.7c0,0,77.8-58.3,106.7-66.4c0,0,31.4-11.4,41,20.6c0,0,6.5,14.1,14.6,20.4
						c0,0,30.9,23.3-26.9,56.5c0,0-28.5,17.5-93.1,9l-10.5-10.1c0,0,89.3,23.3,118.2-30.9c0,0,6.3-17.7-3.8-21.5
						c-9.9-3.6-17.9-16.1-18.8-17.9c-0.7-1.8-7.6-22.2-28-7.4C386.8,447.5,355.9,461.6,307.7,480.7z"/>
				</g>
			</g>
		</g>
		<g id="XMLID_10_">
			<g>
				<defs>
					<path id="SVGID_35_" d="M702.4,359.1L666,372.8v-21.3c0-2.9-2-5.6-5.2-6.7c-3.1-1.1-6.7-0.2-9,1.8l-47.1,46l22.9-96l0,0
						c0.7-2.7-0.4-5.4-2.9-7c-2.5-1.8-5.6-2-8.3-0.9l-27.6,10.5l-20.4-28.7c-1.6-2-4-3.4-7-3.4c-2.9,0-5.4,1.3-7,3.4l-20.4,28.7
						l-27.6-10.5l0,0c-2.7-1.1-6.1-0.7-8.3,0.9c-2.5,1.8-3.4,4.5-2.9,7l22.9,96l-47.1-46c-2.2-2.2-5.8-2.9-9-1.8
						c-3.1,1.1-5.2,3.8-5.2,6.7v22.9l-37.5-8.5c-3.1-0.7-6.7,0.4-8.5,2.7c-2,2.5-2,5.6-0.2,8.1l21.5,30.5l-17,9.4
						c-2.2,1.3-3.6,3.4-3.8,5.8c-0.2,2.2,1.1,4.5,3.1,6.1l68.8,46.4l-20.4,32.7l0,0c-1.3,2.2-1.3,5.2,0.4,7.4
						c1.6,2.2,4.5,3.4,7.6,3.1l82.3-7v34.8c0,4,3.6,7.2,8.1,7.2c4.5,0,8.1-3.1,8.1-7.2v-34.8l82.3,7c0.2,0,0.4,0,0.7,0
						c2.9,0,5.6-1.3,7-3.6c1.6-2.2,1.6-4.9,0.2-7.2l-20.4-32.7l68.8-46.4c2-1.3,3.4-3.6,3.1-6.1c-0.2-2.2-1.6-4.5-3.8-5.8l-17.5-9.9
						l22.4-37.9c1.6-2.7,1.1-5.8-1.3-8.1C709.3,358.7,705.7,358,702.4,359.1L702.4,359.1z"/>
				</defs>
				<clipPath id="SVGID_36_">
					<use xlink:href="#SVGID_35_"  style="overflow:visible;"/>
				</clipPath>
				<g class="st26">
					<path class="st21" d="M744.2,312.6c24.8-7.7,44.6-17.7,66.5-32.9c0,0-54-1.8-79.2-31.8c0,0-26.3,37.5-90.8,64.8H744.2z"/>
					<path class="st21" d="M590.1,338.5v-9.3c-14.9,3.6-31.1,6.6-48.7,8.5c-129.1,14.3-152.2,28.5-194.6,66.2
						c19.1-14.6,72-44.7,195.3-59.7C559.3,342.2,575.3,340.3,590.1,338.5z"/>
					<path class="st21" d="M337.5,412.3c3.2-2.9,6.3-5.6,9.2-8.3C340.1,409.1,337.5,412.3,337.5,412.3z"/>
				</g>
			</g>
		</g>
		<g id="XMLID_8_">
			<g>
				<defs>
					<path id="SVGID_37_" d="M702.4,359.1L666,372.8v-21.3c0-2.9-2-5.6-5.2-6.7c-3.1-1.1-6.7-0.2-9,1.8l-47.1,46l22.9-96l0,0
						c0.7-2.7-0.4-5.4-2.9-7c-2.5-1.8-5.6-2-8.3-0.9l-27.6,10.5l-20.4-28.7c-1.6-2-4-3.4-7-3.4c-2.9,0-5.4,1.3-7,3.4l-20.4,28.7
						l-27.6-10.5l0,0c-2.7-1.1-6.1-0.7-8.3,0.9c-2.5,1.8-3.4,4.5-2.9,7l22.9,96l-47.1-46c-2.2-2.2-5.8-2.9-9-1.8
						c-3.1,1.1-5.2,3.8-5.2,6.7v22.9l-37.5-8.5c-3.1-0.7-6.7,0.4-8.5,2.7c-2,2.5-2,5.6-0.2,8.1l21.5,30.5l-17,9.4
						c-2.2,1.3-3.6,3.4-3.8,5.8c-0.2,2.2,1.1,4.5,3.1,6.1l68.8,46.4l-20.4,32.7l0,0c-1.3,2.2-1.3,5.2,0.4,7.4
						c1.6,2.2,4.5,3.4,7.6,3.1l82.3-7v34.8c0,4,3.6,7.2,8.1,7.2c4.5,0,8.1-3.1,8.1-7.2v-34.8l82.3,7c0.2,0,0.4,0,0.7,0
						c2.9,0,5.6-1.3,7-3.6c1.6-2.2,1.6-4.9,0.2-7.2l-20.4-32.7l68.8-46.4c2-1.3,3.4-3.6,3.1-6.1c-0.2-2.2-1.6-4.5-3.8-5.8l-17.5-9.9
						l22.4-37.9c1.6-2.7,1.1-5.8-1.3-8.1C709.3,358.7,705.7,358,702.4,359.1L702.4,359.1z"/>
				</defs>
				<clipPath id="SVGID_38_">
					<use xlink:href="#SVGID_37_"  style="overflow:visible;"/>
				</clipPath>
				<g id="XMLID_52_" class="st27">
					<path id="_x39__1_" class="st21" d="M341.5,401.9c0,0,52.7-51.8,122.4-60.3c69.5-8.5,193.5-27.8,258.8-104.3
						c0,0-13.9,0-24.2-6.5c0,0-51.1,75.1-144.4,91.5c-93.1,16.1-127.6,6.7-214.4,79.8C260.3,468.8,341.5,401.9,341.5,401.9z"/>
				</g>
			</g>
		</g>
		<g id="XMLID_7_">
			<g>
				<defs>
					<path id="SVGID_39_" d="M702.4,359.1L666,372.8v-21.3c0-2.9-2-5.6-5.2-6.7c-3.1-1.1-6.7-0.2-9,1.8l-47.1,46l22.9-96l0,0
						c0.7-2.7-0.4-5.4-2.9-7c-2.5-1.8-5.6-2-8.3-0.9l-27.6,10.5l-20.4-28.7c-1.6-2-4-3.4-7-3.4c-2.9,0-5.4,1.3-7,3.4l-20.4,28.7
						l-27.6-10.5l0,0c-2.7-1.1-6.1-0.7-8.3,0.9c-2.5,1.8-3.4,4.5-2.9,7l22.9,96l-47.1-46c-2.2-2.2-5.8-2.9-9-1.8
						c-3.1,1.1-5.2,3.8-5.2,6.7v22.9l-37.5-8.5c-3.1-0.7-6.7,0.4-8.5,2.7c-2,2.5-2,5.6-0.2,8.1l21.5,30.5l-17,9.4
						c-2.2,1.3-3.6,3.4-3.8,5.8c-0.2,2.2,1.1,4.5,3.1,6.1l68.8,46.4l-20.4,32.7l0,0c-1.3,2.2-1.3,5.2,0.4,7.4
						c1.6,2.2,4.5,3.4,7.6,3.1l82.3-7v34.8c0,4,3.6,7.2,8.1,7.2c4.5,0,8.1-3.1,8.1-7.2v-34.8l82.3,7c0.2,0,0.4,0,0.7,0
						c2.9,0,5.6-1.3,7-3.6c1.6-2.2,1.6-4.9,0.2-7.2l-20.4-32.7l68.8-46.4c2-1.3,3.4-3.6,3.1-6.1c-0.2-2.2-1.6-4.5-3.8-5.8l-17.5-9.9
						l22.4-37.9c1.6-2.7,1.1-5.8-1.3-8.1C709.3,358.7,705.7,358,702.4,359.1L702.4,359.1z"/>
				</defs>
				<clipPath id="SVGID_40_">
					<use xlink:href="#SVGID_39_"  style="overflow:visible;"/>
				</clipPath>
				<g id="XMLID_49_" class="st28">
					<path id="_x31_0_1_" class="st21" d="M342.2,378.8c0,0,60.1-53.1,171.6-54.3c111.7-1.3,177.8-94.4,169.8-131h-50.5
						c0,0,5.2,128.9-122.7,126C382.8,316.5,354.1,360.7,342.2,378.8z"/>
				</g>
			</g>
		</g>
		<g id="XMLID_6_">
			<g>
				<defs>
					<path id="SVGID_41_" d="M702.4,359.1L666,372.8v-21.3c0-2.9-2-5.6-5.2-6.7c-3.1-1.1-6.7-0.2-9,1.8l-47.1,46l22.9-96l0,0
						c0.7-2.7-0.4-5.4-2.9-7c-2.5-1.8-5.6-2-8.3-0.9l-27.6,10.5l-20.4-28.7c-1.6-2-4-3.4-7-3.4c-2.9,0-5.4,1.3-7,3.4l-20.4,28.7
						l-27.6-10.5l0,0c-2.7-1.1-6.1-0.7-8.3,0.9c-2.5,1.8-3.4,4.5-2.9,7l22.9,96l-47.1-46c-2.2-2.2-5.8-2.9-9-1.8
						c-3.1,1.1-5.2,3.8-5.2,6.7v22.9l-37.5-8.5c-3.1-0.7-6.7,0.4-8.5,2.7c-2,2.5-2,5.6-0.2,8.1l21.5,30.5l-17,9.4
						c-2.2,1.3-3.6,3.4-3.8,5.8c-0.2,2.2,1.1,4.5,3.1,6.1l68.8,46.4l-20.4,32.7l0,0c-1.3,2.2-1.3,5.2,0.4,7.4
						c1.6,2.2,4.5,3.4,7.6,3.1l82.3-7v34.8c0,4,3.6,7.2,8.1,7.2c4.5,0,8.1-3.1,8.1-7.2v-34.8l82.3,7c0.2,0,0.4,0,0.7,0
						c2.9,0,5.6-1.3,7-3.6c1.6-2.2,1.6-4.9,0.2-7.2l-20.4-32.7l68.8-46.4c2-1.3,3.4-3.6,3.1-6.1c-0.2-2.2-1.6-4.5-3.8-5.8l-17.5-9.9
						l22.4-37.9c1.6-2.7,1.1-5.8-1.3-8.1C709.3,358.7,705.7,358,702.4,359.1L702.4,359.1z"/>
				</defs>
				<clipPath id="SVGID_42_">
					<use xlink:href="#SVGID_41_"  style="overflow:visible;"/>
				</clipPath>
				<g id="XMLID_46_" class="st29">
					<path id="_x31_1_1_" class="st21" d="M331.2,388.9c0,0,41.9-75.8,142-75.1c100.2,0.7,134.1-42.2,139-64.6
						c5.2-22.4,9.6-53.4-11.7-95.8l-16.1,31.6c0,0,52.3,70.4-43.1,107.9C462.2,324.6,403.9,273.4,331.2,388.9z"/>
				</g>
			</g>
		</g>
		<g id="XMLID_33_">
			<g>
				<defs>
					<path id="SVGID_43_" d="M702.4,359.1L666,372.8v-21.3c0-2.9-2-5.6-5.2-6.7c-3.1-1.1-6.7-0.2-9,1.8l-47.1,46l22.9-96l0,0
						c0.7-2.7-0.4-5.4-2.9-7c-2.5-1.8-5.6-2-8.3-0.9l-27.6,10.5l-20.4-28.7c-1.6-2-4-3.4-7-3.4c-2.9,0-5.4,1.3-7,3.4l-20.4,28.7
						l-27.6-10.5l0,0c-2.7-1.1-6.1-0.7-8.3,0.9c-2.5,1.8-3.4,4.5-2.9,7l22.9,96l-47.1-46c-2.2-2.2-5.8-2.9-9-1.8
						c-3.1,1.1-5.2,3.8-5.2,6.7v22.9l-37.5-8.5c-3.1-0.7-6.7,0.4-8.5,2.7c-2,2.5-2,5.6-0.2,8.1l21.5,30.5l-17,9.4
						c-2.2,1.3-3.6,3.4-3.8,5.8c-0.2,2.2,1.1,4.5,3.1,6.1l68.8,46.4l-20.4,32.7l0,0c-1.3,2.2-1.3,5.2,0.4,7.4
						c1.6,2.2,4.5,3.4,7.6,3.1l82.3-7v34.8c0,4,3.6,7.2,8.1,7.2c4.5,0,8.1-3.1,8.1-7.2v-34.8l82.3,7c0.2,0,0.4,0,0.7,0
						c2.9,0,5.6-1.3,7-3.6c1.6-2.2,1.6-4.9,0.2-7.2l-20.4-32.7l68.8-46.4c2-1.3,3.4-3.6,3.1-6.1c-0.2-2.2-1.6-4.5-3.8-5.8l-17.5-9.9
						l22.4-37.9c1.6-2.7,1.1-5.8-1.3-8.1C709.3,358.7,705.7,358,702.4,359.1L702.4,359.1z"/>
				</defs>
				<clipPath id="SVGID_44_">
					<use xlink:href="#SVGID_43_"  style="overflow:visible;"/>
				</clipPath>
				<g id="XMLID_5_" class="st30">
					<g id="XMLID_43_">
						<path id="_x31_2_1_" class="st21" d="M349.6,330c0,0,29.8-28.5,97.8-30.5c67.9-2,134.6-25.1,129.4-74
							c-5.2-48.7-33-58.1-33-58.1l-38.3,20.2c0,0,98,42.4,9.2,80.7C425.4,306.6,399.4,279.5,349.6,330z"/>
					</g>
				</g>
			</g>
		</g>
		<g id="XMLID_32_">
			<g>
				<defs>
					<path id="SVGID_45_" d="M702.4,359.1L666,372.8v-21.3c0-2.9-2-5.6-5.2-6.7c-3.1-1.1-6.7-0.2-9,1.8l-47.1,46l22.9-96l0,0
						c0.7-2.7-0.4-5.4-2.9-7c-2.5-1.8-5.6-2-8.3-0.9l-27.6,10.5l-20.4-28.7c-1.6-2-4-3.4-7-3.4c-2.9,0-5.4,1.3-7,3.4l-20.4,28.7
						l-27.6-10.5l0,0c-2.7-1.1-6.1-0.7-8.3,0.9c-2.5,1.8-3.4,4.5-2.9,7l22.9,96l-47.1-46c-2.2-2.2-5.8-2.9-9-1.8
						c-3.1,1.1-5.2,3.8-5.2,6.7v22.9l-37.5-8.5c-3.1-0.7-6.7,0.4-8.5,2.7c-2,2.5-2,5.6-0.2,8.1l21.5,30.5l-17,9.4
						c-2.2,1.3-3.6,3.4-3.8,5.8c-0.2,2.2,1.1,4.5,3.1,6.1l68.8,46.4l-20.4,32.7l0,0c-1.3,2.2-1.3,5.2,0.4,7.4
						c1.6,2.2,4.5,3.4,7.6,3.1l82.3-7v34.8c0,4,3.6,7.2,8.1,7.2c4.5,0,8.1-3.1,8.1-7.2v-34.8l82.3,7c0.2,0,0.4,0,0.7,0
						c2.9,0,5.6-1.3,7-3.6c1.6-2.2,1.6-4.9,0.2-7.2l-20.4-32.7l68.8-46.4c2-1.3,3.4-3.6,3.1-6.1c-0.2-2.2-1.6-4.5-3.8-5.8l-17.5-9.9
						l22.4-37.9c1.6-2.7,1.1-5.8-1.3-8.1C709.3,358.7,705.7,358,702.4,359.1L702.4,359.1z"/>
				</defs>
				<clipPath id="SVGID_46_">
					<use xlink:href="#SVGID_45_"  style="overflow:visible;"/>
				</clipPath>
				<path class="st31" d="M590.1,355.6c-49,22.6-71,58.1-64,77.5c9.9,28.3-6.3,87.9-42.8,103.8c-36.8,15.9-81.9,12.6-81.9,12.6v2
					c20.9,0,55.4-2.5,82.3-12.1c26.9-9.6,41.9-26.7,57.2-59.9c13.9-30.2,30.3-49.8,49.2-78.1V355.6z"/>
			</g>
		</g>
	</g>
	<g id="XMLID_39_">
		<g>
			<defs>
				<path id="SVGID_47_" d="M702.4,359.1L666,372.8v-21.3c0-2.9-2-5.6-5.2-6.7c-3.1-1.1-6.7-0.2-9,1.8l-47.1,46l22.9-96l0,0
					c0.7-2.7-0.4-5.4-2.9-7c-2.5-1.8-5.6-2-8.3-0.9l-27.6,10.5l-20.4-28.7c-1.6-2-4-3.4-7-3.4c-2.9,0-5.4,1.3-7,3.4l-20.4,28.7
					l-27.6-10.5l0,0c-2.7-1.1-6.1-0.7-8.3,0.9c-2.5,1.8-3.4,4.5-2.9,7l22.9,96l-47.1-46c-2.2-2.2-5.8-2.9-9-1.8
					c-3.1,1.1-5.2,3.8-5.2,6.7v22.9l-37.5-8.5c-3.1-0.7-6.7,0.4-8.5,2.7c-2,2.5-2,5.6-0.2,8.1l21.5,30.5l-17,9.4
					c-2.2,1.3-3.6,3.4-3.8,5.8c-0.2,2.2,1.1,4.5,3.1,6.1l68.8,46.4l-20.4,32.7l0,0c-1.3,2.2-1.3,5.2,0.4,7.4
					c1.6,2.2,4.5,3.4,7.6,3.1l82.3-7v34.8c0,4,3.6,7.2,8.1,7.2c4.5,0,8.1-3.1,8.1-7.2v-34.8l82.3,7c0.2,0,0.4,0,0.7,0
					c2.9,0,5.6-1.3,7-3.6c1.6-2.2,1.6-4.9,0.2-7.2l-20.4-32.7l68.8-46.4c2-1.3,3.4-3.6,3.1-6.1c-0.2-2.2-1.6-4.5-3.8-5.8l-17.5-9.9
					l22.4-37.9c1.6-2.7,1.1-5.8-1.3-8.1C709.3,358.7,705.7,358,702.4,359.1L702.4,359.1z"/>
			</defs>
			<clipPath id="SVGID_48_">
				<use xlink:href="#SVGID_47_"  style="overflow:visible;"/>
			</clipPath>
			<path id="XMLID_36_" class="st32" d="M502.8,530.9c0,0-3.4-22.4,7-36.6s8.7-24,8.7-24s-5.6,18.2-12.1,22.6
				c-6.5,4.3-21.1,27.8-18.6,39.7L502.8,530.9z"/>
		</g>
	</g>
	<g id="XMLID_38_">
		<g>
			<defs>
				<path id="SVGID_49_" d="M702.4,359.1L666,372.8v-21.3c0-2.9-2-5.6-5.2-6.7c-3.1-1.1-6.7-0.2-9,1.8l-47.1,46l22.9-96l0,0
					c0.7-2.7-0.4-5.4-2.9-7c-2.5-1.8-5.6-2-8.3-0.9l-27.6,10.5l-20.4-28.7c-1.6-2-4-3.4-7-3.4c-2.9,0-5.4,1.3-7,3.4l-20.4,28.7
					l-27.6-10.5l0,0c-2.7-1.1-6.1-0.7-8.3,0.9c-2.5,1.8-3.4,4.5-2.9,7l22.9,96l-47.1-46c-2.2-2.2-5.8-2.9-9-1.8
					c-3.1,1.1-5.2,3.8-5.2,6.7v22.9l-37.5-8.5c-3.1-0.7-6.7,0.4-8.5,2.7c-2,2.5-2,5.6-0.2,8.1l21.5,30.5l-17,9.4
					c-2.2,1.3-3.6,3.4-3.8,5.8c-0.2,2.2,1.1,4.5,3.1,6.1l68.8,46.4l-20.4,32.7l0,0c-1.3,2.2-1.3,5.2,0.4,7.4
					c1.6,2.2,4.5,3.4,7.6,3.1l82.3-7v34.8c0,4,3.6,7.2,8.1,7.2c4.5,0,8.1-3.1,8.1-7.2v-34.8l82.3,7c0.2,0,0.4,0,0.7,0
					c2.9,0,5.6-1.3,7-3.6c1.6-2.2,1.6-4.9,0.2-7.2l-20.4-32.7l68.8-46.4c2-1.3,3.4-3.6,3.1-6.1c-0.2-2.2-1.6-4.5-3.8-5.8l-17.5-9.9
					l22.4-37.9c1.6-2.7,1.1-5.8-1.3-8.1C709.3,358.7,705.7,358,702.4,359.1L702.4,359.1z"/>
			</defs>
			<clipPath id="SVGID_50_">
				<use xlink:href="#SVGID_49_"  style="overflow:visible;"/>
			</clipPath>
			<path class="st33" d="M590.1,349.2v-6.1c-40.9,2.3-116.6,9.7-181.2,33.7c0,0,46.6-10.1,65.3,19.7c18.4,29.8,27.1,36.1,34.3,39
				c7,2.9,11.2,10.3,12.6,23.5c0,0,5.2-10.8-5.4-37.2C507.1,400.7,548.8,364.6,590.1,349.2z"/>
		</g>
	</g>
</g>
<g>
	<path class="st3" d="M608.7,383.1l-14.8-65.1h18.5l9.1,45.6l9.7-45.6h20.8l9.5,45.6l8.6-45.6h17.5L673,383.1h-22.3l-9.5-44l-9.4,44
		H608.7z"/>
	<path class="st3" d="M714.9,370.2c1.9,0.1,3.5-0.3,4.8-1.1c1.3-0.8,2.1-1.6,2.4-2.4H738c-0.7,3.1-1.7,5.7-3.2,7.8
		c-1.5,2.1-3.3,3.9-5.3,5.3c-2.1,1.4-4.4,2.4-6.9,3.1c-2.5,0.6-5.1,1-7.8,1c-3.7,0-7.1-0.6-10.2-1.7c-3-1.1-5.6-2.8-7.8-5
		c-2.1-2.2-3.8-4.8-5-7.9c-1.2-3.1-1.8-6.6-1.8-10.6c0-3.8,0.6-7.3,1.9-10.4c1.3-3.2,3.1-5.9,5.4-8.1c2.1-2,4.6-3.6,7.5-4.7
		c2.9-1.1,6.1-1.7,9.8-1.7c3.8,0,7,0.5,9.7,1.6c2.7,1,5.1,2.6,7.3,4.8c2.1,2.1,3.7,4.7,4.7,7.7c1.1,3,1.6,6.2,1.6,9.7
		c0,1.2,0,2.2-0.1,3.2c-0.1,1-0.3,1.9-0.5,3h-31.3c0.2,1.8,1,3.3,2.3,4.6C709.8,369.4,712,370.1,714.9,370.2z M714.7,346.5
		c-1.4,0-2.7,0.2-3.7,0.6c-1.1,0.4-1.9,0.9-2.6,1.6c-0.6,0.6-1.1,1.3-1.5,2.1c-0.3,0.8-0.5,1.5-0.5,2.2h16.4c0-0.7-0.1-1.4-0.4-2.2
		c-0.3-0.8-0.8-1.5-1.4-2.1c-0.7-0.6-1.5-1.2-2.5-1.6C717.4,346.7,716.1,346.5,714.7,346.5z"/>
	<path class="st3" d="M761.1,383.1h-16.3v-65.1h16.3V383.1z"/>
	<path class="st3" d="M804.1,383.1v-4.2c-3.5,3.3-8.2,5-14.3,5c-2.8,0-5.5-0.5-8.1-1.4c-2.6-0.9-4.8-2.3-6.5-4.1
		c-2.3-2.2-4-5-5.3-8.4c-1.3-3.4-1.9-7.1-1.9-11.2c0-4.2,0.7-8,2-11.4c1.3-3.4,3.3-6.2,5.9-8.5c2-1.6,4.2-2.9,6.8-3.8
		c2.5-0.9,5.5-1.4,8.9-1.4c2.5-0.1,4.8,0.3,6.9,1.1c2.1,0.8,3.9,1.9,5.2,3.3v-20.1H820v65.1H804.1z M794,348.5c-1.8,0-3.4,0.3-4.7,1
		c-1.3,0.6-2.3,1.5-3.1,2.5c-0.8,1-1.3,2.2-1.6,3.4c-0.3,1.2-0.5,2.5-0.5,3.7c0,1.3,0.2,2.5,0.5,3.7c0.3,1.2,0.9,2.2,1.7,3.1
		c0.8,0.9,1.8,1.7,3,2.3c1.2,0.6,2.7,0.9,4.4,0.9c1.8,0,3.3-0.3,4.6-0.9c1.3-0.6,2.3-1.4,3.1-2.4c0.8-1,1.3-2.1,1.7-3.3
		c0.4-1.2,0.6-2.5,0.6-3.9c0-1.2-0.2-2.3-0.6-3.5c-0.4-1.2-0.9-2.3-1.7-3.3c-0.8-1-1.8-1.8-3-2.3C797.2,348.8,795.8,348.5,794,348.5
		z"/>
	<path class="st3" d="M837.7,311.6c1.3,0,2.6,0.2,3.8,0.6c1.2,0.4,2.2,1.1,3.1,1.9c0.9,0.9,1.6,1.9,2.2,3c0.6,1.2,0.8,2.5,0.8,4
		c0,3.2-1,5.6-2.9,7.2c-2,1.6-4.3,2.4-6.9,2.4c-1.3,0-2.5-0.2-3.7-0.6c-1.2-0.4-2.2-1-3.1-1.8c-0.9-0.8-1.7-1.8-2.2-3
		c-0.6-1.2-0.8-2.6-0.8-4.3c0-1.5,0.3-2.9,0.9-4c0.6-1.2,1.3-2.2,2.3-3c0.9-0.9,2-1.5,3.1-1.9C835.3,311.8,836.5,311.6,837.7,311.6z
		 M845.9,383.1h-16.2v-48.5h16.2V383.1z"/>
	<path class="st3" d="M871.4,339c1.1-1.2,2.3-2.1,3.6-2.9c1.3-0.7,2.6-1.3,3.8-1.7c1.3-0.4,2.5-0.6,3.6-0.7c1.2-0.1,2.1-0.2,2.9-0.2
		c2.9,0,5.5,0.5,7.7,1.4c2.2,1,4.1,2.3,5.7,4.1c1.8,2.1,3,4.6,3.7,7.6c0.7,3,1.1,6.2,1.1,9.6v26.8h-16.3v-25.4c0-1-0.1-2-0.3-3.1
		c-0.2-1.1-0.6-2.1-1.2-3c-0.6-0.9-1.3-1.7-2.3-2.3c-1-0.6-2.2-0.9-3.8-0.9c-1.3,0-2.6,0.3-3.8,1c-1.2,0.6-2,1.4-2.6,2.4
		c-0.6,1-1,2-1.2,3.1c-0.2,1.1-0.4,2.1-0.4,3.1v25h-16.3v-48.5h15L871.4,339z"/>
	<path class="st3" d="M962.1,373c0,2.2,0,4.4-0.1,6.5c-0.1,2.1-0.3,4.2-0.6,6.3c-0.3,2-0.8,4-1.5,5.8c-0.6,1.9-1.6,3.7-2.8,5.4
		c-1.2,1.7-2.6,3.1-4.1,4.3c-1.5,1.1-3.2,2.1-5,2.8c-1.8,0.7-3.7,1.2-5.6,1.5c-1.9,0.3-3.8,0.4-5.7,0.4c-2.9,0-5.8-0.4-8.5-1.1
		c-2.7-0.7-5.2-1.9-7.4-3.4c-2.2-1.6-4.1-3.6-5.6-6c-1.5-2.5-2.6-5.4-3.2-8.7h16.6c0.4,1.3,1.3,2.3,2.7,3.1c1.4,0.8,3.1,1.2,5.3,1.2
		c2.1,0,3.7-0.4,5-1.1c1.2-0.7,2.1-1.7,2.7-2.9c0.6-1.2,1-2.6,1.1-4.2c0.2-1.6,0.2-3.2,0.2-4.8c-0.9,1.3-1.9,2.3-3.1,3
		c-1.1,0.7-2.3,1.3-3.6,1.7c-1.3,0.4-2.5,0.7-3.7,0.8c-1.2,0.1-2.3,0.2-3.4,0.2c-3.9,0-7.3-0.7-10-2c-2.8-1.3-5-3.2-6.7-5.5
		c-1.7-2.3-2.9-5-3.8-8c-0.8-3-1.2-6.2-1.2-9.5c0-3.3,0.5-6.5,1.5-9.5c1-3,2.4-5.7,4.3-8c1.9-2.3,4.2-4.1,7.1-5.5
		c2.9-1.3,6.1-2,9.6-2c3.3,0,6,0.5,8,1.4c2,0.9,3.8,2.1,5.3,3.7l1.5-4.1h14.7V373z M936,348.3c-1.8,0-3.4,0.4-4.7,1.1
		c-1.3,0.7-2.3,1.6-3,2.7c-0.7,1.1-1.3,2.3-1.6,3.6c-0.3,1.3-0.5,2.5-0.5,3.7c0,1.2,0.2,2.3,0.5,3.5c0.3,1.2,0.9,2.2,1.6,3.1
		c0.7,0.9,1.7,1.7,2.9,2.3c1.2,0.6,2.7,0.9,4.4,0.9c1.8,0,3.3-0.3,4.6-0.8c1.3-0.6,2.3-1.3,3.1-2.3c0.8-1,1.4-2.1,1.7-3.4
		c0.4-1.3,0.6-2.6,0.6-4.1c0-1.3-0.2-2.6-0.6-3.9c-0.4-1.2-1-2.3-1.7-3.3c-0.8-1-1.8-1.7-3-2.3C939.2,348.6,937.8,348.3,936,348.3z"
		/>
</g>
<g>
	<path class="st3" d="M643,391.7v15.5h-32.5v9.9h26.8v14.7h-26.8v9.7H643v15.4h-49.1v-65.1H643z"/>
	<path class="st3" d="M665.8,412.8c1.1-1.2,2.3-2.1,3.6-2.9c1.3-0.7,2.6-1.3,3.8-1.7c1.3-0.4,2.5-0.6,3.6-0.7
		c1.2-0.1,2.1-0.2,2.9-0.2c2.9,0,5.5,0.5,7.7,1.4c2.2,1,4.1,2.3,5.7,4.1c1.8,2.1,3,4.6,3.7,7.6c0.7,3,1.1,6.2,1.1,9.6v26.8h-16.3
		v-25.4c0-1-0.1-2-0.3-3.1c-0.2-1.1-0.6-2.1-1.2-3c-0.6-0.9-1.3-1.7-2.3-2.3c-1-0.6-2.2-0.9-3.8-0.9c-1.3,0-2.6,0.3-3.8,1
		c-1.2,0.6-2,1.4-2.6,2.4c-0.6,1-1,2-1.2,3.1c-0.2,1.1-0.4,2.1-0.4,3.1v25h-16.3v-48.5h15L665.8,412.8z"/>
	<path class="st3" d="M756.5,446.8c0,2.2,0,4.4-0.1,6.5c-0.1,2.1-0.3,4.2-0.6,6.3c-0.3,2-0.8,4-1.5,5.8c-0.6,1.9-1.6,3.7-2.8,5.4
		c-1.2,1.7-2.6,3.1-4.1,4.3c-1.5,1.1-3.2,2.1-5,2.8c-1.8,0.7-3.7,1.2-5.6,1.5c-1.9,0.3-3.8,0.4-5.7,0.4c-2.9,0-5.8-0.4-8.5-1.1
		c-2.7-0.7-5.2-1.9-7.4-3.4c-2.2-1.6-4.1-3.6-5.6-6c-1.5-2.5-2.6-5.4-3.2-8.7h16.6c0.4,1.3,1.3,2.3,2.7,3.1c1.4,0.8,3.1,1.2,5.3,1.2
		c2.1,0,3.7-0.4,5-1.1c1.2-0.7,2.1-1.7,2.7-2.9c0.6-1.2,0.9-2.6,1.1-4.2c0.2-1.6,0.2-3.2,0.2-4.8c-0.9,1.3-1.9,2.3-3.1,3
		c-1.1,0.7-2.3,1.3-3.6,1.7c-1.3,0.4-2.5,0.7-3.7,0.8c-1.2,0.1-2.3,0.2-3.4,0.2c-3.9,0-7.3-0.7-10-2c-2.8-1.3-5-3.2-6.7-5.5
		c-1.7-2.3-2.9-5-3.8-8c-0.8-3-1.2-6.2-1.2-9.5c0-3.3,0.5-6.5,1.5-9.5c1-3,2.4-5.7,4.3-8c1.9-2.3,4.2-4.1,7.1-5.5
		c2.9-1.3,6.1-2,9.6-2c3.3,0,6,0.5,8,1.4c2,0.9,3.8,2.1,5.3,3.7l1.5-4.1h14.7V446.8z M730.5,422.1c-1.8,0-3.4,0.4-4.7,1.1
		c-1.3,0.7-2.3,1.6-3,2.7c-0.7,1.1-1.3,2.3-1.6,3.6c-0.3,1.3-0.5,2.5-0.5,3.7c0,1.2,0.2,2.3,0.5,3.5c0.3,1.2,0.9,2.2,1.6,3.1
		c0.7,0.9,1.7,1.7,2.9,2.3c1.2,0.6,2.7,0.9,4.4,0.9c1.8,0,3.3-0.3,4.6-0.8c1.3-0.6,2.3-1.3,3.1-2.3c0.8-1,1.4-2.1,1.7-3.4
		c0.4-1.3,0.6-2.6,0.6-4.1c0-1.3-0.2-2.6-0.6-3.9c-0.4-1.2-1-2.3-1.7-3.3c-0.8-1-1.8-1.7-3-2.3C733.7,422.3,732.2,422.1,730.5,422.1
		z"/>
	<path class="st3" d="M774.3,385.4c1.3,0,2.6,0.2,3.8,0.6c1.2,0.4,2.2,1.1,3.1,1.9c0.9,0.9,1.6,1.9,2.2,3c0.6,1.2,0.8,2.5,0.8,4
		c0,3.2-1,5.6-2.9,7.2c-2,1.6-4.3,2.4-6.9,2.4c-1.3,0-2.5-0.2-3.7-0.6c-1.2-0.4-2.2-1-3.1-1.8c-0.9-0.8-1.7-1.8-2.2-3
		c-0.6-1.2-0.8-2.6-0.8-4.3c0-1.5,0.3-2.9,0.9-4c0.6-1.2,1.3-2.2,2.3-3c0.9-0.9,2-1.5,3.1-1.9C771.8,385.6,773,385.4,774.3,385.4z
		 M782.5,456.8h-16.2v-48.5h16.2V456.8z"/>
	<path class="st3" d="M807.9,412.8c1.1-1.2,2.3-2.1,3.6-2.9c1.3-0.7,2.6-1.3,3.8-1.7c1.3-0.4,2.5-0.6,3.6-0.7
		c1.2-0.1,2.1-0.2,2.9-0.2c2.9,0,5.5,0.5,7.7,1.4c2.2,1,4.1,2.3,5.7,4.1c1.8,2.1,3,4.6,3.7,7.6c0.7,3,1.1,6.2,1.1,9.6v26.8h-16.3
		v-25.4c0-1-0.1-2-0.3-3.1c-0.2-1.1-0.6-2.1-1.2-3c-0.6-0.9-1.3-1.7-2.3-2.3c-1-0.6-2.2-0.9-3.8-0.9c-1.3,0-2.6,0.3-3.8,1
		c-1.2,0.6-2,1.4-2.6,2.4c-0.6,1-1,2-1.2,3.1c-0.2,1.1-0.4,2.1-0.4,3.1v25H792v-48.5h15L807.9,412.8z"/>
	<path class="st3" d="M871.6,443.9c1.9,0.1,3.5-0.3,4.8-1.1c1.3-0.8,2.1-1.6,2.4-2.4h15.9c-0.7,3.1-1.7,5.7-3.2,7.8
		c-1.5,2.1-3.3,3.9-5.3,5.3c-2.1,1.4-4.4,2.4-6.9,3.1c-2.5,0.6-5.1,1-7.8,1c-3.7,0-7.1-0.6-10.2-1.7c-3-1.1-5.6-2.8-7.8-5
		c-2.1-2.2-3.8-4.8-5-7.9c-1.2-3.1-1.8-6.6-1.8-10.6c0-3.8,0.6-7.3,1.9-10.4c1.3-3.2,3.1-5.9,5.4-8.1c2.1-2,4.6-3.6,7.5-4.7
		c2.9-1.1,6.1-1.7,9.8-1.7c3.8,0,7,0.5,9.7,1.6c2.7,1,5.1,2.6,7.3,4.8c2.1,2.1,3.7,4.7,4.7,7.7c1.1,3,1.6,6.2,1.6,9.7
		c0,1.2,0,2.2-0.1,3.2c-0.1,1-0.3,1.9-0.5,3h-31.3c0.2,1.8,1,3.3,2.3,4.6C866.5,443.2,868.6,443.9,871.6,443.9z M871.3,420.2
		c-1.4,0-2.7,0.2-3.7,0.6c-1.1,0.4-1.9,0.9-2.6,1.6c-0.6,0.6-1.1,1.3-1.5,2.1c-0.3,0.8-0.5,1.5-0.5,2.2h16.4c0-0.7-0.1-1.4-0.4-2.2
		c-0.3-0.8-0.8-1.5-1.4-2.1c-0.7-0.6-1.5-1.2-2.5-1.6C874,420.4,872.8,420.2,871.3,420.2z"/>
	<path class="st3" d="M924.6,443.9c1.9,0.1,3.5-0.3,4.8-1.1c1.3-0.8,2.1-1.6,2.4-2.4h15.9c-0.7,3.1-1.7,5.7-3.2,7.8
		c-1.5,2.1-3.3,3.9-5.3,5.3c-2.1,1.4-4.4,2.4-6.9,3.1c-2.5,0.6-5.1,1-7.8,1c-3.7,0-7.1-0.6-10.2-1.7c-3-1.1-5.6-2.8-7.8-5
		c-2.1-2.2-3.8-4.8-5-7.9c-1.2-3.1-1.8-6.6-1.8-10.6c0-3.8,0.6-7.3,1.9-10.4c1.3-3.2,3.1-5.9,5.4-8.1c2.1-2,4.6-3.6,7.5-4.7
		c2.9-1.1,6.1-1.7,9.8-1.7c3.8,0,7,0.5,9.7,1.6c2.7,1,5.1,2.6,7.3,4.8c2.1,2.1,3.7,4.7,4.7,7.7c1.1,3,1.6,6.2,1.6,9.7
		c0,1.2,0,2.2-0.1,3.2c-0.1,1-0.3,1.9-0.5,3h-31.3c0.2,1.8,1,3.3,2.3,4.6C919.4,443.2,921.6,443.9,924.6,443.9z M924.3,420.2
		c-1.4,0-2.7,0.2-3.7,0.6c-1.1,0.4-1.9,0.9-2.6,1.6c-0.6,0.6-1.1,1.3-1.5,2.1c-0.3,0.8-0.5,1.5-0.5,2.2h16.4c0-0.7-0.1-1.4-0.4-2.2
		c-0.3-0.8-0.8-1.5-1.4-2.1c-0.7-0.6-1.5-1.2-2.5-1.6C927,420.4,925.7,420.2,924.3,420.2z"/>
	<path class="st3" d="M969.8,413c0.9-1.3,1.9-2.4,3-3.1c1.1-0.7,2.2-1.3,3.3-1.7c1.1-0.4,2.2-0.6,3.4-0.7c1.1-0.1,2.3-0.1,3.4-0.1
		c0.8,0,1.6,0,2.4,0c0.8,0,1.3,0.1,1.6,0.1v15.7h-3.1c-1.7,0-3.4,0.2-4.9,0.5c-1.6,0.3-2.9,0.9-4.1,1.7c-1.2,0.8-2.1,2-2.9,3.4
		c-0.7,1.5-1.1,3.4-1.1,5.9v22.1h-16.3v-48.5h14.3L969.8,413z"/>
</g>
<g>
	<path class="st3" d="M603.4,518.9c2.6,0,4.8,0.9,6.6,2.6c1.8,1.7,2.8,4.1,2.8,7.2c0,3.3-0.9,5.7-2.8,7.3c-1.8,1.6-4,2.4-6.6,2.4
		c-2.6,0-4.8-0.8-6.7-2.4c-1.9-1.6-2.8-4.1-2.8-7.3c0-1.5,0.3-2.9,0.8-4.1c0.5-1.2,1.2-2.2,2.1-3c0.9-0.8,1.9-1.5,3-1.9
		C601,519.1,602.1,518.9,603.4,518.9z"/>
	<path class="st3" d="M644.8,537.5c-3.6,0-6.9-0.5-9.9-1.6c-3-1.1-5.7-2.7-8-4.8c-2.3-2.1-4.1-4.8-5.4-7.9c-1.3-3.1-2-6.7-2-10.9
		c0-3.9,0.7-7.5,2-10.6c1.3-3.1,3.2-5.8,5.4-7.9c2.3-2.1,4.9-3.8,8-4.9c3-1.1,6.3-1.7,9.8-1.7c3.6,0,6.9,0.6,9.9,1.7
		c3,1.1,5.7,2.8,7.9,4.9c2.2,2.1,4,4.8,5.3,7.9c1.3,3.1,2,6.6,2,10.5c0,4.1-0.6,7.7-1.9,10.9c-1.3,3.2-3,5.8-5.2,7.9
		c-2.2,2.1-4.9,3.7-7.9,4.8C651.8,537,648.4,537.5,644.8,537.5z M644.8,502.5c-1.8,0-3.3,0.3-4.5,1c-1.2,0.7-2.1,1.5-2.9,2.4
		c-0.7,1-1.2,2-1.5,3.2c-0.3,1.2-0.5,2.3-0.5,3.3c0,1.3,0.2,2.5,0.5,3.7c0.3,1.2,0.8,2.3,1.6,3.2s1.7,1.7,2.9,2.3
		c1.2,0.6,2.6,0.9,4.4,0.9c1.7,0,3.2-0.3,4.4-0.9c1.2-0.6,2.1-1.3,2.9-2.3c0.7-1,1.2-2,1.5-3.2c0.3-1.2,0.5-2.4,0.5-3.6
		c0-1-0.2-2.1-0.5-3.2c-0.3-1.2-0.8-2.2-1.5-3.2c-0.7-1-1.6-1.8-2.9-2.5C648,502.8,646.5,502.5,644.8,502.5z"/>
	<path class="st3" d="M692,492.9c0.9-1.3,1.9-2.4,3-3.1c1.1-0.7,2.2-1.3,3.3-1.7c1.1-0.4,2.2-0.6,3.4-0.7c1.1-0.1,2.3-0.1,3.4-0.1
		c0.8,0,1.6,0,2.4,0c0.8,0,1.3,0.1,1.6,0.1v15.7h-3.1c-1.7,0-3.4,0.2-4.9,0.5c-1.6,0.3-2.9,0.9-4.1,1.7c-1.2,0.8-2.1,2-2.9,3.4
		c-0.7,1.5-1.1,3.4-1.1,5.9v22.1h-16.3v-48.5h14.3L692,492.9z"/>
	<path class="st3" d="M763.2,526.8c0,2.2,0,4.4-0.1,6.5c-0.1,2.1-0.3,4.2-0.6,6.3c-0.3,2-0.8,4-1.5,5.8c-0.6,1.9-1.6,3.7-2.8,5.4
		c-1.2,1.7-2.6,3.1-4.1,4.3c-1.5,1.1-3.2,2.1-5,2.8c-1.8,0.7-3.7,1.2-5.6,1.5c-1.9,0.3-3.8,0.4-5.7,0.4c-2.9,0-5.8-0.4-8.5-1.1
		c-2.7-0.7-5.2-1.9-7.4-3.4c-2.2-1.6-4.1-3.6-5.6-6c-1.5-2.5-2.6-5.4-3.2-8.7h16.6c0.4,1.3,1.3,2.3,2.7,3.1c1.4,0.8,3.1,1.2,5.3,1.2
		c2.1,0,3.7-0.4,5-1.1c1.2-0.7,2.1-1.7,2.7-2.9c0.6-1.2,0.9-2.6,1.1-4.2c0.2-1.6,0.2-3.2,0.2-4.8c-0.9,1.3-1.9,2.3-3.1,3
		c-1.1,0.7-2.3,1.3-3.6,1.7c-1.3,0.4-2.5,0.7-3.7,0.8c-1.2,0.1-2.3,0.2-3.4,0.2c-3.9,0-7.3-0.7-10-2c-2.8-1.3-5-3.2-6.7-5.5
		c-1.7-2.3-2.9-5-3.8-8c-0.8-3-1.2-6.2-1.2-9.5c0-3.3,0.5-6.5,1.5-9.5c1-3,2.4-5.7,4.3-8c1.9-2.3,4.2-4.1,7.1-5.5
		c2.9-1.3,6.1-2,9.6-2c3.3,0,6,0.5,8,1.4c2,0.9,3.8,2.1,5.3,3.7l1.5-4.1h14.7V526.8z M737.2,502c-1.8,0-3.4,0.4-4.7,1.1
		c-1.3,0.7-2.3,1.6-3,2.7c-0.7,1.1-1.3,2.3-1.6,3.6c-0.3,1.3-0.5,2.5-0.5,3.7c0,1.2,0.2,2.3,0.5,3.5c0.3,1.2,0.9,2.2,1.6,3.1
		c0.7,0.9,1.7,1.7,2.9,2.3c1.2,0.6,2.7,0.9,4.4,0.9c1.8,0,3.3-0.3,4.6-0.8c1.3-0.6,2.3-1.3,3.1-2.3c0.8-1,1.4-2.1,1.7-3.4
		c0.4-1.3,0.6-2.6,0.6-4.1c0-1.3-0.2-2.6-0.6-3.9c-0.4-1.2-1-2.3-1.7-3.3c-0.8-1-1.8-1.7-3-2.3C740.4,502.3,738.9,502,737.2,502z"/>
</g>
</svg>
