<?xml version="1.0" encoding="utf-8"?>
<!-- Generator: Adobe Illustrator 19.0.0, SVG Export Plug-In . SVG Version: 6.00 Build 0)  -->
<svg version="1.1" id="Calque_1" xmlns="http://www.w3.org/2000/svg" xmlns:xlink="http://www.w3.org/1999/xlink" x="0px" y="0px"
	 viewBox="-39 291 1000 500" style="enable-background:new -39 291 1000 500;" xml:space="preserve">
<style type="text/css">
	.st0{display:none;}
	.st1{display:inline;fill:#161616;}
	.st2{display:inline;fill:#F2DBC2;}
	.st3{font-family:'NexaSlab-Bold';}
	.st4{font-size:20.7076px;}
	.st5{display:inline;}
	.st6{fill:#F2DBC2;}
	.st7{fill:url(#XMLID_56_);}
	.st8{clip-path:url(#SVGID_2_);fill:#C1272D;}
	.st9{clip-path:url(#SVGID_4_);fill:#C1272D;}
	.st10{clip-path:url(#SVGID_6_);fill:#C1272D;}
	.st11{clip-path:url(#SVGID_8_);fill:#C1272D;}
	.st12{clip-path:url(#SVGID_10_);fill:#C1272D;}
	.st13{clip-path:url(#SVGID_12_);fill:#C1272D;}
	.st14{clip-path:url(#SVGID_14_);fill:#C1272D;}
	.st15{clip-path:url(#SVGID_16_);fill:#C1272D;}
	.st16{clip-path:url(#SVGID_18_);fill:#C1272D;}
	.st17{clip-path:url(#SVGID_20_);fill:#C1272D;}
	.st18{clip-path:url(#SVGID_22_);fill:#C1272D;}
	.st19{clip-path:url(#SVGID_24_);fill:#C1272D;}
	.st20{display:inline;fill:#C1272D;}
	.st21{display:none;fill:url(#XMLID_57_);}
	.st22{clip-path:url(#XMLID_59_);}
	.st23{fill:#C1272D;}
	.st24{clip-path:url(#XMLID_60_);}
	.st25{clip-path:url(#XMLID_62_);}
	.st26{clip-path:url(#XMLID_63_);}
	.st27{clip-path:url(#XMLID_65_);}
	.st28{clip-path:url(#XMLID_66_);}
	.st29{clip-path:url(#XMLID_68_);}
	.st30{clip-path:url(#XMLID_69_);}
	.st31{clip-path:url(#XMLID_71_);}
	.st32{clip-path:url(#XMLID_72_);}
	.st33{clip-path:url(#XMLID_73_);fill:#C1272D;}
	.st34{clip-path:url(#XMLID_74_);fill:#C1272D;}
	.st35{clip-path:url(#XMLID_75_);fill:#C1272D;}
</style>
<g id="Logo">
	<g id="Calque_2" class="st0">
		<rect id="XMLID_1_" x="449.3" y="148.5" class="st1" width="1000" height="500"/>
	</g>
</g>
<g id="Search" class="st0">
	<text transform="matrix(1 0 0 1 362.6946 713.5191)" class="st2 st3 st4">Search</text>
	<g class="st5">
		<path class="st6" d="M385.4,695.2h-5.7c-3.3,0-5.2-1.7-7.6-4.1l0,0l0,0l-8.6-10.6c-1.3-1.6-1-4,0.6-5.3s4-1,5.3,0.6l1.2,1.5v-20.1
			c0-2.1,1.6-3.8,3.7-3.8c2.1-0.1,3.8,1.6,3.9,3.7v0.1v9.1c0.6-0.3,1.3-0.5,2-0.4c1.6,0.1,2.9,1.2,3.3,2.7c0.6-0.3,1.2-0.5,1.8-0.5
			l0,0c1,0,1.9,0.4,2.6,1.1c0.3,0.3,0.6,0.7,0.7,1c0.6-0.4,1.4-0.7,2.2-0.7c2,0,3.7,1.8,3.7,3.8v3.6v1v8.1
			C394.5,691.1,390.4,695.2,385.4,695.2z M373.6,689.8c2.4,2.4,3.8,3.4,6.1,3.4h5.7c3.9,0,7.1-3.2,7.1-7.1V679v-1v-4.6
			c0-1-0.8-1.8-1.7-1.8s-1.6,0.6-1.8,1.5l0,0c-0.1,0.5-0.5,0.9-1.1,0.9l0,0c-0.5,0-1-0.5-1-1v-1c0-0.5-0.2-1-0.5-1.3
			s-0.8-0.5-1.2-0.5c-0.8,0-1.5,0.6-1.7,1.4l0,0c-0.1,0.5-0.6,0.9-1.1,0.8l0,0c-0.5,0-0.9-0.5-0.9-1v-1.7c0-0.9-0.7-1.7-1.6-1.8
			c-0.9-0.1-1.7,0.6-1.9,1.5l0,0c-0.1,0.5-0.5,0.9-1.1,0.9l0,0c-0.5,0-0.9-0.5-0.9-1v-12c0-0.4-0.2-0.9-0.5-1.2
			c-0.3-0.4-0.8-0.6-1.3-0.6c-0.9,0-1.7,0.8-1.7,1.8v21.8l0,0v1.2c0,0.4-0.3,0.8-0.7,1l0,0c-0.4,0.1-0.9,0-1.1-0.3l0,0l-3-3.7
			c-0.3-0.4-0.9-0.7-1.4-0.6c-0.3,0-0.5,0.1-0.8,0.2c-0.8,0.5-1.1,1.5-0.7,2.4c0,0.1,0.1,0.2,0.2,0.3L373.6,689.8z"/>
	</g>
	<path class="st2" d="M406.1,659.3c-7,5.8-7.9,16.3-2.1,23.3c5.6,6.6,15.1,7.8,22,3l1.4,1.6c-0.8,1-0.8,2.3,0,3.3l9.1,11
		c0.9,1.1,2.5,1.2,3.5,0.3l1.8-1.5c1-0.9,1.2-2.5,0.3-3.5l-9.2-11c-0.8-1-2.2-1.2-3.2-0.6l-1.4-1.6c5.9-6,6.4-15.6,0.9-22.2
		C423.5,654.3,413.1,653.4,406.1,659.3z M405.7,677.1c-2.8-6.1-0.2-13.3,5.9-16.1s13.3-0.2,16.1,5.9c2.8,6.1,0.2,13.3-5.9,16.1
		S408.5,683.1,405.7,677.1z"/>
</g>
<g id="Phrase">
	<g>
		<path class="st6" d="M129.1,658.8v4.2h-12.3v-4.2h3.8v-8.5l-9.2-14h-3V632h11.9v4.2H117l2.4,3.7l3.7,5.9l4-6l2.3-3.5h-3.3v-4.2
			H138v4.2h-3l-9.5,14v8.4L129.1,658.8L129.1,658.8z"/>
		<path class="st6" d="M146.7,640.5c6.9,0,11.4,4.8,11.4,11.5c0,6.4-4.6,11.3-11.4,11.3c-6.7,0-11.4-4.8-11.4-11.3
			C135.3,645.5,140,640.5,146.7,640.5z M146.7,644.5c-4.2,0-7.1,3.1-7.1,7.5c0,4.1,2.8,7.2,7,7.2c4.3,0,7.1-3.1,7.1-7.2
			C153.8,647.6,150.8,644.5,146.7,644.5z"/>
		<path class="st6" d="M184.9,659h3.5v3.9h-6.9l-0.8-3c-2.1,2.3-4.5,3.2-7.3,3.3c-6.7,0-9.6-4.1-9.6-10.3v-8h-3.3v-3.8h7.6v11.8
			c0,4.1,1.7,6.3,6.2,6.3c3.7,0,6.2-2.9,6.2-6.5V645H177v-3.8h7.9V659L184.9,659z"/>
		<path class="st6" d="M194.9,645h-3.3v-3.9h7.1l0.5,2.3c1.5-2.1,4.1-2.7,6.5-2.7c2.2,0,4,0.7,5.5,1.8l-2,3.7
			c-1.2-0.8-2.3-1.3-3.8-1.3c-4.1,0.1-6,1.9-6,6.1v8.1h3.3v3.8h-11.3v-3.8h3.6V645H194.9z"/>
		<path class="st6" d="M227.1,666.3c0.1,4.1,3.5,5.6,7.2,5.6c3.5,0,7.1-1.1,7.1-4.7c0-3-3-4.9-7-4.9c-7,0-11.6-4.1-11.6-10.8
			c0-7.2,5.9-10.9,11.6-10.9c1.9,0,4.4,0.4,5.9,1.5l2.4-2.9l3.1,2.5l-2.6,3c1.8,2.1,2.7,4,2.7,6.8c0,3.8-1.8,7.1-5.7,8.6
			c4.4,1.4,5.6,4.4,5.6,7.1c0,5.8-5.6,8.8-11.5,8.8c-7,0-11.5-3.7-11.4-9.6L227.1,666.3L227.1,666.3z M234.4,658.5
			c4.1,0,7.2-3,7.2-7c0-4.5-3.4-7-7.3-7c-3.6,0-7.3,2.3-7.3,6.9C227.2,656,230.4,658.5,234.4,658.5z"/>
		<path class="st6" d="M261,640.5c6.9,0,11.4,4.8,11.4,11.5c0,6.4-4.6,11.3-11.4,11.3c-6.7,0-11.4-4.8-11.4-11.3
			S254.3,640.5,261,640.5z M261,644.5c-4.2,0-7.1,3.1-7.1,7.5c0,4.1,2.8,7.2,7,7.2c4.3,0,7.1-3.1,7.1-7.2
			C268,647.6,265,644.5,261,644.5z"/>
		<path class="st6" d="M277,648.1h16v4.1h-16V648.1z"/>
		<path class="st6" d="M304.9,635v6.3h6.4v3.7h-6.4v10.6c0,2.3,0.9,3.7,3.1,3.7c0.9,0,1.9-0.3,2.7-0.7l1.2,3.6c-1.5,0.7-2.7,1-4.2,1
			c-4.7,0.1-7.2-2.7-7.2-7.7v-10.6h-4.2v-3.7h4.2v-5.8L304.9,635z"/>
		<path class="st6" d="M325.7,640.5c6.9,0,11.4,4.8,11.4,11.5c0,6.4-4.6,11.3-11.4,11.3c-6.7,0-11.4-4.8-11.4-11.3
			C314.4,645.5,319.1,640.5,325.7,640.5z M325.8,644.5c-4.2,0-7.1,3.1-7.1,7.5c0,4.1,2.8,7.2,7,7.2c4.3,0,7.1-3.1,7.1-7.2
			C332.8,647.6,329.8,644.5,325.8,644.5z"/>
		<path class="st6" d="M369.3,648h-3.7l-0.3-3.2c-0.9-0.5-3.3-0.7-4.4-0.7c-2.7-0.1-4.9,1.1-4.9,3.1c0,1.9,2.5,2.4,4.9,2.6
			c4.1,0.5,9.6,1.3,9.5,6.9c-0.1,4.4-4.1,6.7-9.4,6.7c-3.6,0-6.3-0.8-9.3-2.6l0.1-5.7h3.8l0.2,3.1c1.7,0.8,3.5,1.2,5.3,1.2
			c1.9,0,4.9-0.3,5.1-2.9c0-2-2.2-2.7-5.5-3c-4.5-0.6-8.9-1.7-8.9-6.3c0-4.8,5-6.9,9-6.8c2.8,0,6,0.7,8.5,1.9L369.3,648z"/>
		<path class="st6" d="M385.4,640.5c6.9,0,11.4,4.8,11.4,11.5c0,6.4-4.6,11.3-11.4,11.3c-6.7,0-11.4-4.8-11.4-11.3
			S378.7,640.5,385.4,640.5z M385.4,644.5c-4.2,0-7.1,3.1-7.1,7.5c0,4.1,2.8,7.2,7,7.2c4.3,0,7.1-3.1,7.1-7.2
			C392.5,647.6,389.5,644.5,385.4,644.5z"/>
		<path class="st6" d="M423.5,659h3.5v3.9h-6.9l-0.8-3c-2.1,2.3-4.5,3.2-7.3,3.3c-6.7,0-9.6-4.1-9.6-10.3v-8h-3.3v-3.8h7.6v11.8
			c0,4.1,1.7,6.3,6.2,6.3c3.7,0,6.2-2.9,6.2-6.5V645h-3.5v-3.8h7.9L423.5,659L423.5,659z"/>
		<path class="st6" d="M433.5,645h-3.3v-3.9h7.1l0.5,2.3c1.5-2.1,4.1-2.7,6.5-2.7c2.2,0,4,0.7,5.5,1.8l-2,3.7
			c-1.2-0.8-2.3-1.3-3.8-1.3c-4.1,0.1-6,1.9-6,6.1v8.1h3.3v3.8H430v-3.8h3.6L433.5,645L433.5,645z"/>
		<path class="st6" d="M471.3,659.9c-2.3,2.4-5.3,3.4-8.4,3.4c-6,0-11.8-4-11.8-11.3c0-8.2,5.6-11.3,11.5-11.3
			c2.8,0,5.4,0.7,7.8,1.9l-0.3,5.9h-3.7V645c-1-0.4-2.7-0.5-3.6-0.5c-4.5,0.1-7.3,3.3-7.3,7.4c0,4.6,3.9,7.1,7.5,7.1
			c1.9,0,4.1-0.6,5.5-2.2L471.3,659.9z"/>
		<path class="st6" d="M495.2,659.6c-2.2,2.5-6,3.7-9.4,3.7c-7.1,0-11.7-4.6-11.7-11.5c0-6.5,4.8-11.3,11.5-11.3
			c6.9,0,11.7,4.4,10.9,13.1h-17.9c0.4,3.3,3.3,5.6,7.4,5.6c2.2,0,5-0.8,6.4-2.4L495.2,659.6z M492.3,650c-0.3-3.6-2.9-5.6-6.6-5.6
			c-3.3,0-6.4,2-7.1,5.6H492.3z"/>
		<path class="st6" d="M522.4,659v3.8h-11.5V659h3.4v-14h-4.2v-3.6h4.2v-1.5c0-5.3,3.3-8.2,7.9-8.2c1.3,0,2.8,0.4,4.1,1l-1.3,3.6
			c-1-0.5-1.7-0.8-2.7-0.8c-2.2,0-3.7,1.6-3.7,4.4v1.5h5.4v3.6h-5.4v14H522.4z"/>
		<path class="st6" d="M538.1,640.5c6.9,0,11.4,4.8,11.4,11.5c0,6.4-4.6,11.3-11.4,11.3c-6.7,0-11.4-4.8-11.4-11.3
			C526.8,645.5,531.5,640.5,538.1,640.5z M538.2,644.5c-4.2,0-7.1,3.1-7.1,7.5c0,4.1,2.8,7.2,7,7.2c4.3,0,7.1-3.1,7.1-7.2
			C545.2,647.6,542.2,644.5,538.2,644.5z"/>
		<path class="st6" d="M556.6,645h-3.3v-3.9h7.1l0.5,2.3c1.5-2.1,4.1-2.7,6.5-2.7c2.2,0,4,0.7,5.5,1.8l-2,3.7
			c-1.2-0.8-2.3-1.3-3.8-1.3c-4.1,0.1-6,1.9-6,6.1v8.1h3.3v3.8h-11.3v-3.8h3.6L556.6,645L556.6,645z"/>
		<path class="st6" d="M605.4,659.6c-2.2,2.5-6,3.7-9.4,3.7c-7.1,0-11.7-4.6-11.7-11.5c0-6.5,4.8-11.3,11.5-11.3
			c6.9,0,11.7,4.4,10.9,13.1h-17.9c0.4,3.3,3.3,5.6,7.4,5.6c2.2,0,5-0.8,6.4-2.4L605.4,659.6z M602.5,650c-0.3-3.6-2.9-5.6-6.6-5.6
			c-3.3,0-6.4,2-7.1,5.6H602.5z"/>
		<path class="st6" d="M611.3,644.9h-3.2v-3.8h10.2v3.8h-2.5l3.4,7.2l2.4,6.4l2.3-6.3l3.3-7.2h-2.4v-3.8h10.3v3.8h-3.2l-7.9,18.2
			h-4.8L611.3,644.9z"/>
		<path class="st6" d="M657.8,659.6c-2.2,2.5-6,3.7-9.4,3.7c-7.1,0-11.7-4.6-11.7-11.5c0-6.5,4.8-11.3,11.5-11.3
			c6.9,0,11.7,4.4,10.9,13.1h-17.9c0.4,3.3,3.3,5.6,7.4,5.6c2.2,0,5-0.8,6.4-2.4L657.8,659.6z M654.9,650c-0.3-3.6-2.9-5.6-6.6-5.6
			c-3.3,0-6.4,2-7.1,5.6H654.9z"/>
		<path class="st6" d="M665.9,645h-3.3v-3.9h7.1l0.5,2.3c1.5-2.1,4.1-2.7,6.5-2.7c2.2,0,4,0.7,5.5,1.8l-2,3.7
			c-1.2-0.8-2.3-1.3-3.8-1.3c-4.1,0.1-6,1.9-6,6.1v8.1h3.3v3.8h-11.3v-3.8h3.6L665.9,645L665.9,645z"/>
		<path class="st6" d="M697.6,645v-3.9h10.8v3.9h-2.8l-9.7,23.6c-2.2,5.3-6.7,5.4-11.1,3.2l1.6-3.6c1.9,0.9,4.1,1.6,5.3-0.8l1.7-4.6
			l-7.5-17.7H683v-3.9h10.3v3.8h-2.5l3,6.7l2.2,6.2l2.1-6l2.7-6.9L697.6,645L697.6,645z"/>
		<path class="st6" d="M718.3,635v6.3h6.4v3.7h-6.4v10.6c0,2.3,0.9,3.7,3.1,3.7c0.9,0,1.9-0.3,2.7-0.7l1.2,3.6c-1.5,0.7-2.7,1-4.2,1
			c-4.7,0.1-7.2-2.7-7.2-7.7v-10.6h-4.2v-3.7h4.2v-5.8L718.3,635z"/>
		<path class="st6" d="M731,635.8h-3.3V632h7.7v12.3c1.9-2.4,4.6-3.4,7.2-3.4c6.2,0,9.3,4.3,9.3,10.4v7.9h3.4v3.8h-10.4v-3.8h2.6
			v-7.9c0-4-2.2-6.4-5.7-6.3c-3.9,0-6.4,3-6.4,6.7v7.5h3.4v3.8h-11.4v-3.8h3.5L731,635.8L731,635.8z"/>
		<path class="st6" d="M765,641v17.9h3.2v3.9h-11v-3.9h3.4v-14.1h-3.2V641H765z M760.2,634.6c0-1.8,1.3-2.7,2.7-2.7s2.7,1,2.7,2.8
			c0,1.7-1.3,2.7-2.7,2.7S760.2,636.5,760.2,634.6z"/>
		<path class="st6" d="M779.3,659h3.4v3.9h-11.3V659h3.5v-14.1h-3.4V641h7.4l0.3,3c2.1-2.4,4-3.3,6.8-3.3c6.5,0,9.6,3.8,9.6,10.4
			v7.9h3.5v3.9h-10.8V659h3v-7.8c0-4.4-1.4-6.3-5.6-6.3c-3.7,0-6.3,2.4-6.3,6.5L779.3,659L779.3,659z"/>
		<path class="st6" d="M805.7,666.3c0.1,4.1,3.5,5.6,7.2,5.6c3.5,0,7.1-1.1,7.1-4.7c0-3-3-4.9-7-4.9c-7,0-11.6-4.1-11.6-10.8
			c0-7.2,5.9-10.9,11.6-10.9c1.9,0,4.4,0.4,5.9,1.5l2.4-2.9l3.1,2.5l-2.6,3c1.8,2.1,2.7,4,2.7,6.8c0,3.8-1.8,7.1-5.7,8.6
			c4.4,1.4,5.6,4.4,5.6,7.1c0,5.8-5.6,8.8-11.5,8.8c-7,0-11.5-3.7-11.4-9.6L805.7,666.3L805.7,666.3z M813.1,658.5
			c4.1,0,7.2-3,7.2-7c0-4.5-3.4-7-7.3-7c-3.6,0-7.3,2.3-7.3,6.9C805.8,656,809,658.5,813.1,658.5z"/>
		<path class="st6" d="M116.9,694v17.9h3.2v3.9h-11v-3.9h3.4v-14.1h-3.3V694H116.9L116.9,694z M112.1,687.5c0-1.8,1.3-2.7,2.7-2.7
			s2.7,1,2.7,2.8c0,1.7-1.3,2.7-2.7,2.7S112.1,689.3,112.1,687.5z"/>
		<path class="st6" d="M131.1,711.8h3.4v3.9h-11.3v-3.9h3.5v-14.1h-3.3v-3.9h7.4l0.3,3c2.1-2.4,4-3.3,6.8-3.3
			c6.5,0,9.6,3.8,9.6,10.4v7.9h3.5v3.9h-10.8v-3.9h3V704c0-4.4-1.4-6.3-5.6-6.3c-3.7,0-6.3,2.4-6.3,6.5v7.6L131.1,711.8L131.1,711.8
			z"/>
		<path class="st6" d="M179.7,711.8v3.9h-7.1c0,0.6-0.6-4.2-0.6-3.6c-1.8,2.7-4.6,4-7.7,4c-6.2,0-11-4-11-11.2
			c0-7.5,4.8-11.3,11-11.3c2.9,0,6.1,1.2,7.7,3.9v-8.7h-3.3V685h7.7v27h3.3V711.8z M157.6,704.8c0,4.5,3.2,7.1,7.1,7.1
			c3.5,0,7.1-2.6,7.1-7.1c0-4.6-3.3-7.3-7.1-7.3S157.6,700,157.6,704.8z"/>
		<path class="st6" d="M205.8,711.8h3.5v3.9h-6.9l-0.8-3c-2.1,2.3-4.5,3.2-7.3,3.3c-6.7,0-9.6-4.1-9.6-10.3v-8h-3.3V694h7.6v11.8
			c0,4.1,1.7,6.3,6.2,6.3c3.7,0,6.2-2.9,6.2-6.5v-7.7h-3.5V694h7.9L205.8,711.8L205.8,711.8z"/>
		<path class="st6" d="M230.3,700.8h-3.7l-0.3-3.2c-0.9-0.5-3.3-0.7-4.4-0.7c-2.7-0.1-4.9,1.1-4.9,3.1c0,1.9,2.5,2.4,4.9,2.6
			c4.1,0.5,9.6,1.3,9.5,6.9c-0.1,4.4-4.1,6.7-9.4,6.7c-3.6,0-6.3-0.8-9.3-2.6l0.1-5.7h3.8l0.2,3.1c1.7,0.8,3.5,1.2,5.3,1.2
			c1.9,0,4.9-0.3,5.1-2.9c0-2-2.2-2.7-5.5-3c-4.5-0.6-8.9-1.7-8.9-6.3c0-4.8,5-6.9,9-6.8c2.8,0,6,0.7,8.5,1.9L230.3,700.8z"/>
		<path class="st6" d="M242.3,687.8v6.3h6.4v3.7h-6.4v10.6c0,2.3,0.9,3.7,3.1,3.7c0.9,0,1.9-0.3,2.7-0.7l1.2,3.6
			c-1.5,0.7-2.7,1-4.2,1c-4.7,0.1-7.2-2.7-7.2-7.7v-10.6h-4.2V694h4.2v-5.7L242.3,687.8z"/>
		<path class="st6" d="M255.5,697.8h-3.3v-3.9h7.1l0.5,2.3c1.5-2.1,4.1-2.7,6.5-2.7c2.2,0,4,0.7,5.5,1.8l-2,3.7
			c-1.2-0.8-2.3-1.3-3.8-1.3c-4.1,0.1-6,1.9-6,6.1v8.1h3.3v3.8H252v-3.8h3.6v-14.1L255.5,697.8L255.5,697.8z"/>
		<path class="st6" d="M287.3,697.8v-3.9h10.8v3.9h-2.8l-9.7,23.6c-2.2,5.3-6.7,5.4-11.1,3.2l1.6-3.6c1.9,0.9,4.1,1.6,5.3-0.8
			l1.7-4.6l-7.5-17.7h-2.9V694H283v3.8h-2.5l3,6.7l2.2,6.2l2.1-6l2.7-6.9H287.3z"/>
		<path class="st6" d="M301.1,701h16v4.1h-16V701z"/>
		<path class="st6" d="M324.8,697.8h-3.4v-3.9h7.1l0.5,2.3c1.5-2.1,4.1-2.7,6.5-2.7c2.2,0,4,0.7,5.5,1.8l-2,3.7
			c-1.2-0.8-2.3-1.3-3.8-1.3c-4.1,0.1-6,1.9-6,6.1v8.1h3.3v3.8h-11.3v-3.8h3.6L324.8,697.8L324.8,697.8z"/>
		<path class="st6" d="M363.3,712.5c-2.2,2.5-6,3.7-9.4,3.7c-7.1,0-11.7-4.6-11.7-11.5c0-6.5,4.8-11.3,11.5-11.3
			c6.9,0,11.7,4.4,10.9,13.1h-17.9c0.4,3.3,3.3,5.6,7.4,5.6c2.2,0,5-0.8,6.4-2.4L363.3,712.5z M360.4,703c-0.3-3.6-2.9-5.6-6.6-5.6
			c-3.3,0-6.4,2-7.1,5.6H360.4z"/>
		<path class="st6" d="M367.6,685h7.7v26.9h3.3v3.9h-11.1v-3.9h3.5v-23h-3.3V685H367.6z"/>
		<path class="st6" d="M408.4,711.8v3.9h-7.3c0,0.6-0.5-3.6-0.5-3c-1.7,2.7-4.8,3.5-7.5,3.6c-6.4,0-11.3-4.3-11.3-11.5
			c0-7.1,5-11.3,11.4-11.3c3.1,0,5.9,1.3,7.6,3.7V694h7.5v4H405v14h3.4V711.8z M386.1,705c0,4.4,3.1,7.4,7.2,7.4
			c4.7,0,7.4-3.3,7.6-7.1c0.2-4.1-2.5-7.6-7.6-7.6C389.3,697.8,386.1,700.7,386.1,705z"/>
		<path class="st6" d="M419.1,687.8v6.3h6.4v3.7h-6.4v10.6c0,2.3,0.9,3.7,3.1,3.7c0.9,0,1.9-0.3,2.7-0.7l1.2,3.6
			c-1.5,0.7-2.7,1-4.2,1c-4.7,0.1-7.2-2.7-7.2-7.7v-10.6h-4.2V694h4.2v-5.7L419.1,687.8z"/>
		<path class="st6" d="M449.7,712.5c-2.2,2.5-6,3.7-9.4,3.7c-7.1,0-11.7-4.6-11.7-11.5c0-6.5,4.8-11.3,11.5-11.3
			c6.9,0,11.7,4.4,10.9,13.1h-17.9c0.4,3.3,3.3,5.6,7.4,5.6c2.2,0,5-0.8,6.4-2.4L449.7,712.5z M446.8,703c-0.3-3.6-2.9-5.6-6.6-5.6
			c-3.3,0-6.4,2-7.1,5.6H446.8z"/>
		<path class="st6" d="M480.8,711.8v3.9h-7.1c0,0.6-0.6-4.2-0.6-3.6c-1.8,2.7-4.6,4-7.7,4c-6.2,0-11-4-11-11.2
			c0-7.5,4.8-11.3,11-11.3c2.9,0,6.1,1.2,7.7,3.9v-8.7h-3.3V685h7.7v27h3.3L480.8,711.8L480.8,711.8z M458.7,704.8
			c0,4.5,3.2,7.1,7.1,7.1c3.5,0,7.1-2.6,7.1-7.1c0-4.6-3.3-7.3-7.1-7.3S458.7,700,458.7,704.8z"/>
		<path class="st6" d="M484.4,713.5c0-1.9,1.4-2.7,2.7-2.7c1.4,0,2.8,0.9,2.8,2.8c0,1.8-1.4,2.7-2.8,2.7
			C485.8,716.3,484.4,715.3,484.4,713.5z"/>
	</g>
</g>
<g id="Repères" class="st0">
	<g id="Exterieurs" class="st5">
	</g>
	<g id="Interieurs" class="st5">
	</g>
</g>
<g>
	<path class="st6" d="M293.5,417.7L269,484.9h-20l-15.3-41.3L219,484.9h-19.7l-25-67.2h-9.2v-19.1c14.9,0,29.6,0,44.4,0v19.1h-8.6
		l4.1,11.2c2.1,6.5,3.3,13.7,4.6,20.1l15.4-49h17.6l16,49c1.2-6.5,3-13.6,4.8-20.7l3.8-10.6h-8.9v-19.1c14.9,0,29.6,0,44.4,0v19.1
		H293.5z"/>
	<path class="st6" d="M346.1,423.7c10,0,19,0,28.8,0v16.8h-8.3v27.6h8.3v16.8c-9.7,0-18.6,0-28.5,0l-1-6.8c-5.2,6-13.3,8.1-20.1,7.8
		c-17.9-1-28-13.8-28-31.7c0-18,11.8-31.8,29.7-31.8c8.7,0,14.7,2.8,17.9,7.9L346.1,423.7z M320.1,454.2c0,8.5,5.4,13.3,12.2,13.3
		c7.6,0,12.6-6.2,12.6-13.3c0-8.1-4.6-13.4-12.6-13.4C324.5,440.7,320.1,446.8,320.1,454.2z"/>
	<path class="st6" d="M381.2,468.2h8.6v-52.7h-8.3v-17h31.1v69.8h8.6v16.6c-13.3,0-26.7,0-40.1,0v-16.7H381.2z"/>
	<path class="st6" d="M426.4,468.2h8.6v-52.7h-8.3v-17h31.1v69.8h8.6v16.6c-13.3,0-26.7,0-40.1,0v-16.7H426.4z"/>
	<path class="st6" d="M472.7,467.9h8.6v-27.2h-8.4v-16.9h31.3v44.1h8.6v17c-13.6,0-26.6,0-40.2,0v-17H472.7z M479.9,407
		c0,7.5,6.4,11.6,13.1,11.6c6.2,0,12.6-4.1,12.6-11.6c0-7.8-6.4-11.7-12.6-11.7C486.3,395.3,479.9,399.2,479.9,407z"/>
	<path class="st6" d="M564.6,415.2h-8.4v-16.6h30.9v69.5h8.4v16.8h-28.6l-0.9-6.7c-5.2,5.9-13.3,8-20.1,7.6
		c-18-1-27.9-12.3-27.9-31.5c0-18.5,11.8-31.7,29.6-31.7c7.6,0,13.6,2.3,16.9,6.4L564.6,415.2L564.6,415.2z M540.7,454.3
		c0,8.5,5.4,13.4,12.2,13.4c7.6,0,12.2-6.4,12.2-12.8c0-7.4-4.2-14-12.2-14C546.1,440.9,540.7,445.8,540.7,454.3z"/>
</g>
<g>
	<path class="st6" d="M210.6,519.9c-12.7,0-21.9,7.9-21.9,23.3c0,14.8,10.2,22.9,22,22.9c4.9,0,10-1.2,14.1-4.3v-7.1h-19.6v-15.5
		h38.4v30c-4.9,10-18.7,15.6-33.9,15.6c-25.7,0-43-14.9-43-41.6c0-26.4,19-41.8,43.9-41.8c12.9,0,22.1,3.5,31.3,12.6l-0.1,18.3
		h-18.6l-0.7-9.8C218.5,520.4,214.1,519.9,210.6,519.9z"/>
	<path class="st6" d="M249.3,542.1v-15.3h28v30.7c0,7,4,9.3,7.9,9.3c5,0,9.6-3.1,9.6-10.4V542h-7.7v-15.3h28.2v40.4h7.5v15.3h-25.9
		l-0.8-6.1c-4.7,5.6-11.8,7.5-17.6,7.4c-11.7-0.1-21.8-6.3-21.8-26.1V542L249.3,542.1L249.3,542.1z"/>
	<path class="st6" d="M387.4,560.6h-38.9c1.5,4.9,7.9,7.1,12.3,7.1c6.1,0,10.9-1.8,14.5-4.5l10.1,11.3c-6.6,6.2-15.9,9.2-25.5,9.2
		c-17.5,0-32.3-8.6-32.3-28.8c0-20.2,15.8-29.5,30.8-29.5C378.1,525.4,392.1,538.7,387.4,560.6z M368.7,547.4
		c-0.6-9-18.7-9.2-20.1,0H368.7z"/>
	<path class="st6" d="M394.1,542v-15.1H420l1.5,6.2c3.4-4.8,8.4-7.4,14.4-7.4c6.2,0,11.2,2.2,14.6,5.9l-8.1,15.8
		c-2.7-2.1-6.3-3-9.5-3c-7.3,0.1-10.4,4.3-10.4,11.2v11.7h7.9v15.3c-12,0-24.1,0-36.1,0v-15.3h7.6V542H394.1z"/>
	<path class="st6" d="M471.2,586.4c-0.2,8.7,5.2,10.8,10.8,10.8s10.5-2.7,10.5-8.2c0-3.9-2.6-7.2-10.3-7.2
		c-19,0-31.6-10.9-31.6-28.3c0-17.7,14.1-28.7,31.6-28.7c4,0,8,0.9,11.9,2.2c2-2.6,4.3-5.3,6.1-7.9l15.3,10.8l-7.2,8.5
		c3.9,4.7,5.6,10.2,5.3,15.1c-0.1,7-3.8,14-10.4,18.6c10.7,5.8,11.2,13.7,11.2,16.7c0,18.2-15.9,25-32.3,25
		c-20.2,0-31.7-10.5-30.6-27.6h19.7V586.4z M471.2,553.5c0,6.6,4.8,10.9,11,10.9c5.7,0,10.9-3.5,10.9-10.9c0-6.4-4.5-11.8-10.9-11.8
		C476,541.8,471.2,545.9,471.2,553.5z"/>
	<path class="st6" d="M583.4,554.9c0,20.2-16,28.9-31.6,28.9c-15.9,0-31.6-8.7-31.6-28.9c0-20.5,15.6-29.1,31.6-29.1
		C568.1,525.8,583.4,534.7,583.4,554.9z M563.2,554.9c0-6.4-4.1-12.1-11.4-12.1c-7.3,0-11.4,5.7-11.4,12.1c0,6.4,4.2,12,11.4,12
		C558.7,566.9,563.2,561.6,563.2,554.9z"/>
	<path class="st6" d="M587.2,542.1v-15.3h28v30.7c0,7,4,9.3,7.9,9.3c5,0,9.6-3.1,9.6-10.4V542H625v-15.3h28.2v40.4h7.5v15.3h-25.9
		l-0.8-6.1c-4.7,5.6-11.8,7.5-17.6,7.4c-11.7-0.1-21.8-6.3-21.8-26.1V542L587.2,542.1L587.2,542.1z"/>
	<path class="st6" d="M666.5,542v-15.1h25.9l1.5,6.2c3.4-4.8,8.4-7.4,14.4-7.4c6.2,0,11.2,2.2,14.6,5.9l-8.1,15.8
		c-2.7-2.1-6.3-3-9.5-3c-7.3,0.1-10.4,4.3-10.4,11.2v11.7h7.9v15.3c-12,0-24.1,0-36.1,0v-15.3h7.6V542H666.5z"/>
</g>
<g id="XMLID_34_" class="st0">
	
		<linearGradient id="XMLID_56_" gradientUnits="userSpaceOnUse" x1="816" y1="17269.9492" x2="939" y2="17269.9492" gradientTransform="matrix(1 0 0 1 0 -16668)">
		<stop  offset="0" style="stop-color:#FFFFFF"/>
		<stop  offset="1" style="stop-color:#000000"/>
	</linearGradient>
	<rect id="XMLID_14_" x="816" y="540.2" class="st7" width="123" height="123.5"/>
	<g id="XMLID_25_" class="st5">
		<g>
			<defs>
				<rect id="SVGID_1_" x="816" y="540.2" width="123" height="123.5"/>
			</defs>
			<clipPath id="SVGID_2_">
				<use xlink:href="#SVGID_1_"  style="overflow:visible;"/>
			</clipPath>
			<path id="_x32__2_" class="st8" d="M863.5,686.4c0,0,8.3-4,13.6-8.5c10.3-9,18.1-11.8,35.6-8.5c17.5,3.3,22.1,1.9,23,1.4l5.7-6.7
				c0,0,15.5,4.5,3.4-3.3c-24.6-15.8-47.8-6.4-58.6,1.3c-13.9,9.8-10.5,23.6-30.3,23.9L863.5,686.4z"/>
		</g>
	</g>
	<g id="XMLID_24_" class="st5">
		<g>
			<defs>
				<rect id="SVGID_3_" x="816" y="540.2" width="123" height="123.5"/>
			</defs>
			<clipPath id="SVGID_4_">
				<use xlink:href="#SVGID_3_"  style="overflow:visible;"/>
			</clipPath>
			<path id="_x33__2_" class="st9" d="M842.8,681.9c0,0,12.7,8.3,41.4-20.1c28.6-28.4,68.8-6.6,81.7-1l2.8-15.7
				c0,0-43.4-18.7-85.2,6.8c-41.8,25.4-55.3,14.9-71.2,7.7l19.9,14.4c0,0,29.1,0.7,43.3-11.2c0,0-16.8,17.1-39.4,16.4L842.8,681.9z"
				/>
		</g>
	</g>
	<g id="XMLID_23_" class="st5">
		<g>
			<defs>
				<rect id="SVGID_5_" x="816" y="540.2" width="123" height="123.5"/>
			</defs>
			<clipPath id="SVGID_6_">
				<use xlink:href="#SVGID_5_"  style="overflow:visible;"/>
			</clipPath>
			<path id="_x34__2_" class="st10" d="M812.4,658.9c0,0,40.6,5.4,73.1-24.1s70.6-41.4,97.8-30.9l-11.5,37.5c0,0-31.8-25-78.8-0.7
				C845.8,665,837.1,664.3,812.4,658.9z"/>
		</g>
	</g>
	<g id="XMLID_22_" class="st5">
		<g>
			<defs>
				<rect id="SVGID_7_" x="816" y="540.2" width="123" height="123.5"/>
			</defs>
			<clipPath id="SVGID_8_">
				<use xlink:href="#SVGID_7_"  style="overflow:visible;"/>
			</clipPath>
			<path id="_x35__2_" class="st11" d="M806.3,655.7c0,0,41.9,5.7,59-14.3c17.2-19.9,39.4-86.9,106-74.1l8.8,32.8
				c0,0-44.8-24.4-86.9,24.9C893.2,625,856.1,666.5,806.3,655.7z"/>
		</g>
	</g>
	<g id="XMLID_21_" class="st5">
		<g>
			<defs>
				<rect id="SVGID_9_" x="816" y="540.2" width="123" height="123.5"/>
			</defs>
			<clipPath id="SVGID_10_">
				<use xlink:href="#SVGID_9_"  style="overflow:visible;"/>
			</clipPath>
			<path id="_x36__2_" class="st12" d="M805.2,653.5c0,0,31.5,6,40.3-7.4c8.8-13.4,15-19.6,13.6-25.5c-1.5-5.9-14.2-17.5-17.3-22.1
				s-14.9-17-38.9,0s-25.3,25.2-30.2,24.7l6.9,5.1c0,0,26-18.6,30.5-20.7c4.5-2.1,18-10.6,26.1-0.3c8.2,10.2,14.4,11.9,9.4,21.2
				c-5,9.4-13.8,20-48,16.3L805.2,653.5z"/>
		</g>
	</g>
	<g id="XMLID_20_" class="st5">
		<g>
			<defs>
				<rect id="SVGID_11_" x="816" y="540.2" width="123" height="123.5"/>
			</defs>
			<clipPath id="SVGID_12_">
				<use xlink:href="#SVGID_11_"  style="overflow:visible;"/>
			</clipPath>
			<path id="_x37__2_" class="st13" d="M780.2,628.9c0,0,29.8-22.3,40.8-25.4c0,0,12-4.4,15.7,7.9c0,0,2.5,5.4,5.6,7.8
				c0,0,11.8,8.9-10.3,21.6c0,0-10.9,6.7-35.6,3.4l-4-3.9c0,0,34.1,8.9,45.2-11.8c0,0,2.4-6.8-1.5-8.2c-3.8-1.4-6.9-6.2-7.2-6.9
				c-0.3-0.7-2.9-8.5-10.7-2.8C810.5,616.2,798.7,621.6,780.2,628.9z"/>
		</g>
	</g>
	<g id="XMLID_19_" class="st5">
		<g>
			<defs>
				<rect id="SVGID_13_" x="816" y="540.2" width="123" height="123.5"/>
			</defs>
			<clipPath id="SVGID_14_">
				<use xlink:href="#SVGID_13_"  style="overflow:visible;"/>
			</clipPath>
			<path id="_x38__2_" class="st14" d="M791.6,602.7c0,0,14.7-18.3,78.2-26c63.5-7.6,80.3-9.1,102.8-24.7c0,0-20.7-0.7-30.3-12.2
				c0,0-20,28.5-72.7,34.4C816.8,580.1,810.3,585.9,791.6,602.7z"/>
		</g>
	</g>
	<g id="XMLID_18_" class="st5">
		<g>
			<defs>
				<rect id="SVGID_15_" x="816" y="540.2" width="123" height="123.5"/>
			</defs>
			<clipPath id="SVGID_16_">
				<use xlink:href="#SVGID_15_"  style="overflow:visible;"/>
			</clipPath>
			<path id="_x39__2_" class="st15" d="M793.2,598.8c0,0,20.2-19.8,46.8-23.1c26.6-3.3,74-10.6,99-39.9c0,0-5.3,0-9.3-2.5
				c0,0-19.6,28.7-55.2,35c-35.6,6.2-48.8,2.6-82,30.5C762.1,624.3,793.2,598.8,793.2,598.8z"/>
		</g>
	</g>
	<g id="XMLID_17_" class="st5">
		<g>
			<defs>
				<rect id="SVGID_17_" x="816" y="540.2" width="123" height="123.5"/>
			</defs>
			<clipPath id="SVGID_18_">
				<use xlink:href="#SVGID_17_"  style="overflow:visible;"/>
			</clipPath>
			<path id="_x31_0_2_" class="st16" d="M793.4,589.9c0,0,23-20.3,65.6-20.8c42.7-0.5,68-36.1,64.9-50.1h-19.3c0,0,2,49.3-46.9,48.2
				C809,566.1,798,583,793.4,589.9z"/>
		</g>
	</g>
	<g id="XMLID_16_" class="st5">
		<g>
			<defs>
				<rect id="SVGID_19_" x="816" y="540.2" width="123" height="123.5"/>
			</defs>
			<clipPath id="SVGID_20_">
				<use xlink:href="#SVGID_19_"  style="overflow:visible;"/>
			</clipPath>
			<path id="_x31_1_2_" class="st17" d="M789.2,593.8c0,0,16-29,54.3-28.7s51.3-16.1,53.2-24.7c2-8.6,3.7-20.4-4.5-36.6l-6.2,12.1
				c0,0,20,26.9-16.5,41.3C839.3,569.2,817,549.6,789.2,593.8z"/>
		</g>
	</g>
	<g id="XMLID_15_" class="st5">
		<g>
			<defs>
				<rect id="SVGID_21_" x="816" y="540.2" width="123" height="123.5"/>
			</defs>
			<clipPath id="SVGID_22_">
				<use xlink:href="#SVGID_21_"  style="overflow:visible;"/>
			</clipPath>
			<path id="_x31_2_2_" class="st18" d="M796.3,571.2c0,0,11.4-10.9,37.4-11.7c26-0.8,51.5-9.6,49.5-28.3
				c-2-18.6-12.6-22.2-12.6-22.2l-14.7,7.7c0,0,37.5,16.2,3.5,30.9C825.3,562.3,815.3,551.9,796.3,571.2z"/>
		</g>
	</g>
	<g id="XMLID_2_" class="st5">
		<g>
			<defs>
				<rect id="SVGID_23_" x="816" y="540.2" width="123" height="123.5"/>
			</defs>
			<clipPath id="SVGID_24_">
				<use xlink:href="#SVGID_23_"  style="overflow:visible;"/>
			</clipPath>
			<path id="_x31_3_2_" class="st19" d="M803.1,556.6c0,0,38.9-2.3,50.3-14.5c11.4-12.3,3.6-22.4-2.9-25.2c0,0-2.5,6.9-15.4,8.8
				C835.1,525.7,874,541.9,803.1,556.6z"/>
		</g>
	</g>
	<path id="XMLID_27_" class="st20" d="M918.3,573.5c0,0-19.7,8.9-27.9,21.7s-15.2,20.6-21,33.3c-5.8,12.7-11.6,19.2-21.9,22.9
		c-10.3,3.7-23.5,4.6-31.5,4.6v-0.8c0,0,17.2,1.3,31.3-4.8c14-6.1,20.2-28.9,16.4-39.7C859.9,600.1,878.9,576.8,918.3,573.5z"/>
</g>
<g id="XMLID_40_">
	<g id="XMLID_3_">
		
			<linearGradient id="XMLID_57_" gradientUnits="userSpaceOnUse" x1="592.8026" y1="17124.5" x2="736.1974" y2="17124.5" gradientTransform="matrix(1 0 0 1 0 -16668)">
			<stop  offset="0" style="stop-color:#FFFFFF"/>
			<stop  offset="1" style="stop-color:#000000"/>
		</linearGradient>
		<rect id="XMLID_53_" x="592.8" y="384.5" class="st21" width="143.4" height="144"/>
		<g id="XMLID_50_">
			<defs>
				<path id="XMLID_51_" d="M727.1,433.7l-16.2,6.1l0-9.5c0-1.3-0.9-2.5-2.3-3c-1.4-0.5-3-0.1-4,0.8l-21,20.5l10.2-42.8v0
					c0.3-1.2-0.2-2.4-1.3-3.1c-1.1-0.8-2.5-0.9-3.7-0.4l-12.3,4.7l-9.1-12.8c-0.7-0.9-1.8-1.5-3.1-1.5s-2.4,0.6-3.1,1.5l-9.1,12.8
					l-12.3-4.7h0c-1.2-0.5-2.7-0.3-3.7,0.4c-1.1,0.8-1.5,2-1.3,3.1l10.2,42.8l-21-20.5c-1-1-2.6-1.3-4-0.8c-1.4,0.5-2.3,1.7-2.3,3
					v10.2l-16.7-3.8c-1.4-0.3-3,0.2-3.8,1.2c-0.9,1.1-0.9,2.5-0.1,3.6l9.6,13.6l-7.6,4.2c-1,0.6-1.6,1.5-1.7,2.6
					c-0.1,1,0.5,2,1.4,2.7l30.7,20.7l-9.1,14.6h0c-0.6,1-0.6,2.3,0.2,3.3c0.7,1,2,1.5,3.4,1.4l36.7-3.1V517c0,1.8,1.6,3.2,3.6,3.2
					s3.6-1.4,3.6-3.2v-15.5l36.7,3.1c0.1,0,0.2,0,0.3,0c1.3,0,2.5-0.6,3.1-1.6c0.7-1,0.7-2.2,0.1-3.2l-9.1-14.6l30.7-20.7
					c0.9-0.6,1.5-1.6,1.4-2.7c-0.1-1-0.7-2-1.7-2.6l-7.8-4.4l10-16.9c0.7-1.2,0.5-2.6-0.6-3.6C730.2,433.5,728.6,433.2,727.1,433.7
					L727.1,433.7z"/>
			</defs>
			<clipPath id="XMLID_59_">
				<use xlink:href="#XMLID_51_"  style="overflow:visible;"/>
			</clipPath>
			<g id="XMLID_70_" class="st22">
				<path id="_x33__1_" class="st23" d="M624,549.7c0,0,14.8,9.7,48.3-23.4c33.3-33.1,80.2-7.7,95.2-1.2l3.3-18.3
					c0,0-50.6-21.8-99.3,7.9c-48.7,29.6-64.5,17.4-83,9l23.2,16.8c0,0,33.9,0.8,50.5-13.1c0,0-19.6,19.9-45.9,19.1L624,549.7z"/>
			</g>
		</g>
		<g id="XMLID_47_">
			<defs>
				<path id="XMLID_48_" d="M727.1,433.7l-16.2,6.1l0-9.5c0-1.3-0.9-2.5-2.3-3c-1.4-0.5-3-0.1-4,0.8l-21,20.5l10.2-42.8v0
					c0.3-1.2-0.2-2.4-1.3-3.1c-1.1-0.8-2.5-0.9-3.7-0.4l-12.3,4.7l-9.1-12.8c-0.7-0.9-1.8-1.5-3.1-1.5s-2.4,0.6-3.1,1.5l-9.1,12.8
					l-12.3-4.7h0c-1.2-0.5-2.7-0.3-3.7,0.4c-1.1,0.8-1.5,2-1.3,3.1l10.2,42.8l-21-20.5c-1-1-2.6-1.3-4-0.8c-1.4,0.5-2.3,1.7-2.3,3
					v10.2l-16.7-3.8c-1.4-0.3-3,0.2-3.8,1.2c-0.9,1.1-0.9,2.5-0.1,3.6l9.6,13.6l-7.6,4.2c-1,0.6-1.6,1.5-1.7,2.6
					c-0.1,1,0.5,2,1.4,2.7l30.7,20.7l-9.1,14.6h0c-0.6,1-0.6,2.3,0.2,3.3c0.7,1,2,1.5,3.4,1.4l36.7-3.1V517c0,1.8,1.6,3.2,3.6,3.2
					s3.6-1.4,3.6-3.2v-15.5l36.7,3.1c0.1,0,0.2,0,0.3,0c1.3,0,2.5-0.6,3.1-1.6c0.7-1,0.7-2.2,0.1-3.2l-9.1-14.6l30.7-20.7
					c0.9-0.6,1.5-1.6,1.4-2.7c-0.1-1-0.7-2-1.7-2.6l-7.8-4.4l10-16.9c0.7-1.2,0.5-2.6-0.6-3.6C730.2,433.5,728.6,433.2,727.1,433.7
					L727.1,433.7z"/>
			</defs>
			<clipPath id="XMLID_60_">
				<use xlink:href="#XMLID_48_"  style="overflow:visible;"/>
			</clipPath>
			<g id="XMLID_67_" class="st24">
				<path id="_x34__1_" class="st23" d="M588.6,522.9c0,0,47.3,6.3,85.2-28.1c37.9-34.4,82.3-48.3,114-36l-13.4,43.7
					c0,0-37.1-29.1-91.9-0.8C627.5,530,617.4,529.2,588.6,522.9z"/>
			</g>
		</g>
		<g id="XMLID_44_">
			<defs>
				<path id="XMLID_45_" d="M727.1,433.7l-16.2,6.1l0-9.5c0-1.3-0.9-2.5-2.3-3c-1.4-0.5-3-0.1-4,0.8l-21,20.5l10.2-42.8v0
					c0.3-1.2-0.2-2.4-1.3-3.1c-1.1-0.8-2.5-0.9-3.7-0.4l-12.3,4.7l-9.1-12.8c-0.7-0.9-1.8-1.5-3.1-1.5s-2.4,0.6-3.1,1.5l-9.1,12.8
					l-12.3-4.7h0c-1.2-0.5-2.7-0.3-3.7,0.4c-1.1,0.8-1.5,2-1.3,3.1l10.2,42.8l-21-20.5c-1-1-2.6-1.3-4-0.8c-1.4,0.5-2.3,1.7-2.3,3
					v10.2l-16.7-3.8c-1.4-0.3-3,0.2-3.8,1.2c-0.9,1.1-0.9,2.5-0.1,3.6l9.6,13.6l-7.6,4.2c-1,0.6-1.6,1.5-1.7,2.6
					c-0.1,1,0.5,2,1.4,2.7l30.7,20.7l-9.1,14.6h0c-0.6,1-0.6,2.3,0.2,3.3c0.7,1,2,1.5,3.4,1.4l36.7-3.1V517c0,1.8,1.6,3.2,3.6,3.2
					s3.6-1.4,3.6-3.2v-15.5l36.7,3.1c0.1,0,0.2,0,0.3,0c1.3,0,2.5-0.6,3.1-1.6c0.7-1,0.7-2.2,0.1-3.2l-9.1-14.6l30.7-20.7
					c0.9-0.6,1.5-1.6,1.4-2.7c-0.1-1-0.7-2-1.7-2.6l-7.8-4.4l10-16.9c0.7-1.2,0.5-2.6-0.6-3.6C730.2,433.5,728.6,433.2,727.1,433.7
					L727.1,433.7z"/>
			</defs>
			<clipPath id="XMLID_62_">
				<use xlink:href="#XMLID_45_"  style="overflow:visible;"/>
			</clipPath>
			<g id="XMLID_64_" class="st25">
				<path id="_x35__1_" class="st23" d="M581.5,519.2c0,0,48.8,6.6,68.8-16.7c20.1-23.2,45.9-101.3,123.6-86.4l10.3,38.2
					c0,0-52.2-28.4-101.3,29C682.8,483.4,639.6,531.8,581.5,519.2z"/>
			</g>
		</g>
		<g id="XMLID_41_">
			<defs>
				<path id="XMLID_42_" d="M727.1,433.7l-16.2,6.1l0-9.5c0-1.3-0.9-2.5-2.3-3c-1.4-0.5-3-0.1-4,0.8l-21,20.5l10.2-42.8v0
					c0.3-1.2-0.2-2.4-1.3-3.1c-1.1-0.8-2.5-0.9-3.7-0.4l-12.3,4.7l-9.1-12.8c-0.7-0.9-1.8-1.5-3.1-1.5s-2.4,0.6-3.1,1.5l-9.1,12.8
					l-12.3-4.7h0c-1.2-0.5-2.7-0.3-3.7,0.4c-1.1,0.8-1.5,2-1.3,3.1l10.2,42.8l-21-20.5c-1-1-2.6-1.3-4-0.8c-1.4,0.5-2.3,1.7-2.3,3
					v10.2l-16.7-3.8c-1.4-0.3-3,0.2-3.8,1.2c-0.9,1.1-0.9,2.5-0.1,3.6l9.6,13.6l-7.6,4.2c-1,0.6-1.6,1.5-1.7,2.6
					c-0.1,1,0.5,2,1.4,2.7l30.7,20.7l-9.1,14.6h0c-0.6,1-0.6,2.3,0.2,3.3c0.7,1,2,1.5,3.4,1.4l36.7-3.1V517c0,1.8,1.6,3.2,3.6,3.2
					s3.6-1.4,3.6-3.2v-15.5l36.7,3.1c0.1,0,0.2,0,0.3,0c1.3,0,2.5-0.6,3.1-1.6c0.7-1,0.7-2.2,0.1-3.2l-9.1-14.6l30.7-20.7
					c0.9-0.6,1.5-1.6,1.4-2.7c-0.1-1-0.7-2-1.7-2.6l-7.8-4.4l10-16.9c0.7-1.2,0.5-2.6-0.6-3.6C730.2,433.5,728.6,433.2,727.1,433.7
					L727.1,433.7z"/>
			</defs>
			<clipPath id="XMLID_63_">
				<use xlink:href="#XMLID_42_"  style="overflow:visible;"/>
			</clipPath>
			<g id="XMLID_61_" class="st26">
				<path id="_x36__1_" class="st23" d="M580.2,516.6c0,0,36.7,7,47-8.6c10.3-15.6,17.5-22.8,15.9-29.7
					c-1.7-6.9-16.6-20.4-20.2-25.8c-3.6-5.4-17.4-19.8-45.4,0c-28,19.8-29.5,29.4-35.2,28.8l8,5.9c0,0,30.3-21.7,35.6-24.1
					s21-12.4,30.4-0.3c9.6,11.9,16.8,13.9,11,24.7c-5.8,11-16.1,23.3-56,19L580.2,516.6z"/>
			</g>
		</g>
		<g id="XMLID_12_">
			<defs>
				<path id="XMLID_13_" d="M727.1,433.7l-16.2,6.1l0-9.5c0-1.3-0.9-2.5-2.3-3c-1.4-0.5-3-0.1-4,0.8l-21,20.5l10.2-42.8v0
					c0.3-1.2-0.2-2.4-1.3-3.1c-1.1-0.8-2.5-0.9-3.7-0.4l-12.3,4.7l-9.1-12.8c-0.7-0.9-1.8-1.5-3.1-1.5s-2.4,0.6-3.1,1.5l-9.1,12.8
					l-12.3-4.7h0c-1.2-0.5-2.7-0.3-3.7,0.4c-1.1,0.8-1.5,2-1.3,3.1l10.2,42.8l-21-20.5c-1-1-2.6-1.3-4-0.8c-1.4,0.5-2.3,1.7-2.3,3
					v10.2l-16.7-3.8c-1.4-0.3-3,0.2-3.8,1.2c-0.9,1.1-0.9,2.5-0.1,3.6l9.6,13.6l-7.6,4.2c-1,0.6-1.6,1.5-1.7,2.6
					c-0.1,1,0.5,2,1.4,2.7l30.7,20.7l-9.1,14.6h0c-0.6,1-0.6,2.3,0.2,3.3c0.7,1,2,1.5,3.4,1.4l36.7-3.1V517c0,1.8,1.6,3.2,3.6,3.2
					s3.6-1.4,3.6-3.2v-15.5l36.7,3.1c0.1,0,0.2,0,0.3,0c1.3,0,2.5-0.6,3.1-1.6c0.7-1,0.7-2.2,0.1-3.2l-9.1-14.6l30.7-20.7
					c0.9-0.6,1.5-1.6,1.4-2.7c-0.1-1-0.7-2-1.7-2.6l-7.8-4.4l10-16.9c0.7-1.2,0.5-2.6-0.6-3.6C730.2,433.5,728.6,433.2,727.1,433.7
					L727.1,433.7z"/>
			</defs>
			<clipPath id="XMLID_65_">
				<use xlink:href="#XMLID_13_"  style="overflow:visible;"/>
			</clipPath>
			<g id="XMLID_58_" class="st27">
				<path id="_x37__1_" class="st23" d="M551.1,487.9c0,0,34.7-26,47.6-29.6c0,0,14-5.1,18.3,9.2c0,0,2.9,6.3,6.5,9.1
					c0,0,13.8,10.4-12,25.2c0,0-12.7,7.8-41.5,4l-4.7-4.5c0,0,39.8,10.4,52.7-13.8c0,0,2.8-7.9-1.7-9.6c-4.4-1.6-8-7.2-8.4-8
					c-0.3-0.8-3.4-9.9-12.5-3.3C586.4,473.1,572.6,479.4,551.1,487.9z"/>
			</g>
		</g>
		<g id="XMLID_10_">
			<defs>
				<path id="XMLID_11_" d="M727.1,433.7l-16.2,6.1l0-9.5c0-1.3-0.9-2.5-2.3-3c-1.4-0.5-3-0.1-4,0.8l-21,20.5l10.2-42.8v0
					c0.3-1.2-0.2-2.4-1.3-3.1c-1.1-0.8-2.5-0.9-3.7-0.4l-12.3,4.7l-9.1-12.8c-0.7-0.9-1.8-1.5-3.1-1.5s-2.4,0.6-3.1,1.5l-9.1,12.8
					l-12.3-4.7h0c-1.2-0.5-2.7-0.3-3.7,0.4c-1.1,0.8-1.5,2-1.3,3.1l10.2,42.8l-21-20.5c-1-1-2.6-1.3-4-0.8c-1.4,0.5-2.3,1.7-2.3,3
					v10.2l-16.7-3.8c-1.4-0.3-3,0.2-3.8,1.2c-0.9,1.1-0.9,2.5-0.1,3.6l9.6,13.6l-7.6,4.2c-1,0.6-1.6,1.5-1.7,2.6
					c-0.1,1,0.5,2,1.4,2.7l30.7,20.7l-9.1,14.6h0c-0.6,1-0.6,2.3,0.2,3.3c0.7,1,2,1.5,3.4,1.4l36.7-3.1V517c0,1.8,1.6,3.2,3.6,3.2
					s3.6-1.4,3.6-3.2v-15.5l36.7,3.1c0.1,0,0.2,0,0.3,0c1.3,0,2.5-0.6,3.1-1.6c0.7-1,0.7-2.2,0.1-3.2l-9.1-14.6l30.7-20.7
					c0.9-0.6,1.5-1.6,1.4-2.7c-0.1-1-0.7-2-1.7-2.6l-7.8-4.4l10-16.9c0.7-1.2,0.5-2.6-0.6-3.6C730.2,433.5,728.6,433.2,727.1,433.7
					L727.1,433.7z"/>
			</defs>
			<clipPath id="XMLID_66_">
				<use xlink:href="#XMLID_11_"  style="overflow:visible;"/>
			</clipPath>
			<g id="XMLID_55_" class="st28">
				<path id="_x38__1_" class="st23" d="M564.4,457.4c0,0,17.1-21.3,91.2-30.3c74-8.9,93.6-10.6,119.8-28.8c0,0-24.1-0.8-35.3-14.2
					c0,0-23.3,33.2-84.8,40.1C593.7,431,586.2,437.8,564.4,457.4z"/>
			</g>
		</g>
		<g id="XMLID_8_">
			<defs>
				<path id="XMLID_26_" d="M727.1,433.7l-16.2,6.1l0-9.5c0-1.3-0.9-2.5-2.3-3c-1.4-0.5-3-0.1-4,0.8l-21,20.5l10.2-42.8v0
					c0.3-1.2-0.2-2.4-1.3-3.1c-1.1-0.8-2.5-0.9-3.7-0.4l-12.3,4.7l-9.1-12.8c-0.7-0.9-1.8-1.5-3.1-1.5s-2.4,0.6-3.1,1.5l-9.1,12.8
					l-12.3-4.7h0c-1.2-0.5-2.7-0.3-3.7,0.4c-1.1,0.8-1.5,2-1.3,3.1l10.2,42.8l-21-20.5c-1-1-2.6-1.3-4-0.8c-1.4,0.5-2.3,1.7-2.3,3
					v10.2l-16.7-3.8c-1.4-0.3-3,0.2-3.8,1.2c-0.9,1.1-0.9,2.5-0.1,3.6l9.6,13.6l-7.6,4.2c-1,0.6-1.6,1.5-1.7,2.6
					c-0.1,1,0.5,2,1.4,2.7l30.7,20.7l-9.1,14.6h0c-0.6,1-0.6,2.3,0.2,3.3c0.7,1,2,1.5,3.4,1.4l36.7-3.1V517c0,1.8,1.6,3.2,3.6,3.2
					s3.6-1.4,3.6-3.2v-15.5l36.7,3.1c0.1,0,0.2,0,0.3,0c1.3,0,2.5-0.6,3.1-1.6c0.7-1,0.7-2.2,0.1-3.2l-9.1-14.6l30.7-20.7
					c0.9-0.6,1.5-1.6,1.4-2.7c-0.1-1-0.7-2-1.7-2.6l-7.8-4.4l10-16.9c0.7-1.2,0.5-2.6-0.6-3.6C730.2,433.5,728.6,433.2,727.1,433.7
					L727.1,433.7z"/>
			</defs>
			<clipPath id="XMLID_68_">
				<use xlink:href="#XMLID_26_"  style="overflow:visible;"/>
			</clipPath>
			<g id="XMLID_52_" class="st29">
				<path id="_x39__1_" class="st23" d="M566.2,452.8c0,0,23.5-23.1,54.6-26.9c31-3.8,86.3-12.4,115.4-46.5c0,0-6.2,0-10.8-2.9
					c0,0-22.8,33.5-64.4,40.8c-41.5,7.2-56.9,3-95.6,35.6C530,482.6,566.2,452.8,566.2,452.8z"/>
			</g>
		</g>
		<g id="XMLID_7_">
			<defs>
				<path id="XMLID_28_" d="M727.1,433.7l-16.2,6.1l0-9.5c0-1.3-0.9-2.5-2.3-3c-1.4-0.5-3-0.1-4,0.8l-21,20.5l10.2-42.8v0
					c0.3-1.2-0.2-2.4-1.3-3.1c-1.1-0.8-2.5-0.9-3.7-0.4l-12.3,4.7l-9.1-12.8c-0.7-0.9-1.8-1.5-3.1-1.5s-2.4,0.6-3.1,1.5l-9.1,12.8
					l-12.3-4.7h0c-1.2-0.5-2.7-0.3-3.7,0.4c-1.1,0.8-1.5,2-1.3,3.1l10.2,42.8l-21-20.5c-1-1-2.6-1.3-4-0.8c-1.4,0.5-2.3,1.7-2.3,3
					v10.2l-16.7-3.8c-1.4-0.3-3,0.2-3.8,1.2c-0.9,1.1-0.9,2.5-0.1,3.6l9.6,13.6l-7.6,4.2c-1,0.6-1.6,1.5-1.7,2.6
					c-0.1,1,0.5,2,1.4,2.7l30.7,20.7l-9.1,14.6h0c-0.6,1-0.6,2.3,0.2,3.3c0.7,1,2,1.5,3.4,1.4l36.7-3.1V517c0,1.8,1.6,3.2,3.6,3.2
					s3.6-1.4,3.6-3.2v-15.5l36.7,3.1c0.1,0,0.2,0,0.3,0c1.3,0,2.5-0.6,3.1-1.6c0.7-1,0.7-2.2,0.1-3.2l-9.1-14.6l30.7-20.7
					c0.9-0.6,1.5-1.6,1.4-2.7c-0.1-1-0.7-2-1.7-2.6l-7.8-4.4l10-16.9c0.7-1.2,0.5-2.6-0.6-3.6C730.2,433.5,728.6,433.2,727.1,433.7
					L727.1,433.7z"/>
			</defs>
			<clipPath id="XMLID_69_">
				<use xlink:href="#XMLID_28_"  style="overflow:visible;"/>
			</clipPath>
			<g id="XMLID_49_" class="st30">
				<path id="_x31_0_1_" class="st23" d="M566.5,442.5c0,0,26.8-23.7,76.5-24.2c49.8-0.6,79.3-42.1,75.7-58.4h-22.5
					c0,0,2.3,57.5-54.7,56.2C584.6,414.7,571.8,434.4,566.5,442.5z"/>
			</g>
		</g>
		<g id="XMLID_6_">
			<defs>
				<path id="XMLID_29_" d="M727.1,433.7l-16.2,6.1l0-9.5c0-1.3-0.9-2.5-2.3-3c-1.4-0.5-3-0.1-4,0.8l-21,20.5l10.2-42.8v0
					c0.3-1.2-0.2-2.4-1.3-3.1c-1.1-0.8-2.5-0.9-3.7-0.4l-12.3,4.7l-9.1-12.8c-0.7-0.9-1.8-1.5-3.1-1.5s-2.4,0.6-3.1,1.5l-9.1,12.8
					l-12.3-4.7h0c-1.2-0.5-2.7-0.3-3.7,0.4c-1.1,0.8-1.5,2-1.3,3.1l10.2,42.8l-21-20.5c-1-1-2.6-1.3-4-0.8c-1.4,0.5-2.3,1.7-2.3,3
					v10.2l-16.7-3.8c-1.4-0.3-3,0.2-3.8,1.2c-0.9,1.1-0.9,2.5-0.1,3.6l9.6,13.6l-7.6,4.2c-1,0.6-1.6,1.5-1.7,2.6
					c-0.1,1,0.5,2,1.4,2.7l30.7,20.7l-9.1,14.6h0c-0.6,1-0.6,2.3,0.2,3.3c0.7,1,2,1.5,3.4,1.4l36.7-3.1V517c0,1.8,1.6,3.2,3.6,3.2
					s3.6-1.4,3.6-3.2v-15.5l36.7,3.1c0.1,0,0.2,0,0.3,0c1.3,0,2.5-0.6,3.1-1.6c0.7-1,0.7-2.2,0.1-3.2l-9.1-14.6l30.7-20.7
					c0.9-0.6,1.5-1.6,1.4-2.7c-0.1-1-0.7-2-1.7-2.6l-7.8-4.4l10-16.9c0.7-1.2,0.5-2.6-0.6-3.6C730.2,433.5,728.6,433.2,727.1,433.7
					L727.1,433.7z"/>
			</defs>
			<clipPath id="XMLID_71_">
				<use xlink:href="#XMLID_29_"  style="overflow:visible;"/>
			</clipPath>
			<g id="XMLID_46_" class="st31">
				<path id="_x31_1_1_" class="st23" d="M561.6,447c0,0,18.7-33.8,63.3-33.5c44.7,0.3,59.8-18.8,62-28.8c2.3-10,4.3-23.8-5.2-42.7
					l-7.2,14.1c0,0,23.3,31.4-19.2,48.1C620,418.3,594,395.5,561.6,447z"/>
			</g>
		</g>
		<g id="XMLID_33_">
			<defs>
				<path id="XMLID_31_" d="M727.1,433.7l-16.2,6.1l0-9.5c0-1.3-0.9-2.5-2.3-3c-1.4-0.5-3-0.1-4,0.8l-21,20.5l10.2-42.8v0
					c0.3-1.2-0.2-2.4-1.3-3.1c-1.1-0.8-2.5-0.9-3.7-0.4l-12.3,4.7l-9.1-12.8c-0.7-0.9-1.8-1.5-3.1-1.5s-2.4,0.6-3.1,1.5l-9.1,12.8
					l-12.3-4.7h0c-1.2-0.5-2.7-0.3-3.7,0.4c-1.1,0.8-1.5,2-1.3,3.1l10.2,42.8l-21-20.5c-1-1-2.6-1.3-4-0.8c-1.4,0.5-2.3,1.7-2.3,3
					v10.2l-16.7-3.8c-1.4-0.3-3,0.2-3.8,1.2c-0.9,1.1-0.9,2.5-0.1,3.6l9.6,13.6l-7.6,4.2c-1,0.6-1.6,1.5-1.7,2.6
					c-0.1,1,0.5,2,1.4,2.7l30.7,20.7l-9.1,14.6h0c-0.6,1-0.6,2.3,0.2,3.3c0.7,1,2,1.5,3.4,1.4l36.7-3.1V517c0,1.8,1.6,3.2,3.6,3.2
					s3.6-1.4,3.6-3.2v-15.5l36.7,3.1c0.1,0,0.2,0,0.3,0c1.3,0,2.5-0.6,3.1-1.6c0.7-1,0.7-2.2,0.1-3.2l-9.1-14.6l30.7-20.7
					c0.9-0.6,1.5-1.6,1.4-2.7c-0.1-1-0.7-2-1.7-2.6l-7.8-4.4l10-16.9c0.7-1.2,0.5-2.6-0.6-3.6C730.2,433.5,728.6,433.2,727.1,433.7
					L727.1,433.7z"/>
			</defs>
			<clipPath id="XMLID_72_">
				<use xlink:href="#XMLID_31_"  style="overflow:visible;"/>
			</clipPath>
			<g id="XMLID_5_" class="st32">
				<g id="XMLID_43_">
					<path id="_x31_2_1_" class="st23" d="M569.8,420.7c0,0,13.3-12.7,43.6-13.6c30.3-0.9,60-11.2,57.7-33
						c-2.3-21.7-14.7-25.9-14.7-25.9l-17.1,9c0,0,43.7,18.9,4.1,36C603.6,410.3,592,398.2,569.8,420.7z"/>
				</g>
			</g>
		</g>
		<g id="XMLID_32_">
			<defs>
				<path id="XMLID_30_" d="M727.1,433.7l-16.2,6.1l0-9.5c0-1.3-0.9-2.5-2.3-3c-1.4-0.5-3-0.1-4,0.8l-21,20.5l10.2-42.8v0
					c0.3-1.2-0.2-2.4-1.3-3.1c-1.1-0.8-2.5-0.9-3.7-0.4l-12.3,4.7l-9.1-12.8c-0.7-0.9-1.8-1.5-3.1-1.5s-2.4,0.6-3.1,1.5l-9.1,12.8
					l-12.3-4.7h0c-1.2-0.5-2.7-0.3-3.7,0.4c-1.1,0.8-1.5,2-1.3,3.1l10.2,42.8l-21-20.5c-1-1-2.6-1.3-4-0.8c-1.4,0.5-2.3,1.7-2.3,3
					v10.2l-16.7-3.8c-1.4-0.3-3,0.2-3.8,1.2c-0.9,1.1-0.9,2.5-0.1,3.6l9.6,13.6l-7.6,4.2c-1,0.6-1.6,1.5-1.7,2.6
					c-0.1,1,0.5,2,1.4,2.7l30.7,20.7l-9.1,14.6h0c-0.6,1-0.6,2.3,0.2,3.3c0.7,1,2,1.5,3.4,1.4l36.7-3.1V517c0,1.8,1.6,3.2,3.6,3.2
					s3.6-1.4,3.6-3.2v-15.5l36.7,3.1c0.1,0,0.2,0,0.3,0c1.3,0,2.5-0.6,3.1-1.6c0.7-1,0.7-2.2,0.1-3.2l-9.1-14.6l30.7-20.7
					c0.9-0.6,1.5-1.6,1.4-2.7c-0.1-1-0.7-2-1.7-2.6l-7.8-4.4l10-16.9c0.7-1.2,0.5-2.6-0.6-3.6C730.2,433.5,728.6,433.2,727.1,433.7
					L727.1,433.7z"/>
			</defs>
			<clipPath id="XMLID_73_">
				<use xlink:href="#XMLID_30_"  style="overflow:visible;"/>
			</clipPath>
			<path id="XMLID_4_" class="st33" d="M712.1,423.3c0,0-23,10.4-32.5,25.3s-17.7,24-24.5,38.8c-6.8,14.8-13.5,22.4-25.5,26.7
				c-12,4.3-27.4,5.4-36.7,5.4v-0.9c0,0,20.1,1.5,36.5-5.6c16.3-7.1,23.5-33.7,19.1-46.3C644,454.3,666.1,427.2,712.1,423.3z"/>
		</g>
	</g>
	<g id="XMLID_39_">
		<defs>
			<path id="XMLID_9_" d="M727.1,433.7l-16.2,6.1l0-9.5c0-1.3-0.9-2.5-2.3-3c-1.4-0.5-3-0.1-4,0.8l-21,20.5l10.2-42.8v0
				c0.3-1.2-0.2-2.4-1.3-3.1c-1.1-0.8-2.5-0.9-3.7-0.4l-12.3,4.7l-9.1-12.8c-0.7-0.9-1.8-1.5-3.1-1.5s-2.4,0.6-3.1,1.5l-9.1,12.8
				l-12.3-4.7h0c-1.2-0.5-2.7-0.3-3.7,0.4c-1.1,0.8-1.5,2-1.3,3.1l10.2,42.8l-21-20.5c-1-1-2.6-1.3-4-0.8c-1.4,0.5-2.3,1.7-2.3,3
				v10.2l-16.7-3.8c-1.4-0.3-3,0.2-3.8,1.2c-0.9,1.1-0.9,2.5-0.1,3.6l9.6,13.6l-7.6,4.2c-1,0.6-1.6,1.5-1.7,2.6
				c-0.1,1,0.5,2,1.4,2.7l30.7,20.7l-9.1,14.6h0c-0.6,1-0.6,2.3,0.2,3.3c0.7,1,2,1.5,3.4,1.4l36.7-3.1V517c0,1.8,1.6,3.2,3.6,3.2
				s3.6-1.4,3.6-3.2v-15.5l36.7,3.1c0.1,0,0.2,0,0.3,0c1.3,0,2.5-0.6,3.1-1.6c0.7-1,0.7-2.2,0.1-3.2l-9.1-14.6l30.7-20.7
				c0.9-0.6,1.5-1.6,1.4-2.7c-0.1-1-0.7-2-1.7-2.6l-7.8-4.4l10-16.9c0.7-1.2,0.5-2.6-0.6-3.6C730.2,433.5,728.6,433.2,727.1,433.7
				L727.1,433.7z"/>
		</defs>
		<clipPath id="XMLID_74_">
			<use xlink:href="#XMLID_9_"  style="overflow:visible;"/>
		</clipPath>
		<path id="XMLID_36_" class="st34" d="M638.1,510.3c0,0-1.5-10,3.1-16.3c4.6-6.3,3.9-10.7,3.9-10.7s-2.5,8.1-5.4,10.1
			c-2.9,1.9-9.4,12.4-8.3,17.7L638.1,510.3z"/>
	</g>
	<g id="XMLID_38_">
		<defs>
			<path id="XMLID_37_" d="M727.1,433.7l-16.2,6.1l0-9.5c0-1.3-0.9-2.5-2.3-3c-1.4-0.5-3-0.1-4,0.8l-21,20.5l10.2-42.8v0
				c0.3-1.2-0.2-2.4-1.3-3.1c-1.1-0.8-2.5-0.9-3.7-0.4l-12.3,4.7l-9.1-12.8c-0.7-0.9-1.8-1.5-3.1-1.5s-2.4,0.6-3.1,1.5l-9.1,12.8
				l-12.3-4.7h0c-1.2-0.5-2.7-0.3-3.7,0.4c-1.1,0.8-1.5,2-1.3,3.1l10.2,42.8l-21-20.5c-1-1-2.6-1.3-4-0.8c-1.4,0.5-2.3,1.7-2.3,3
				v10.2l-16.7-3.8c-1.4-0.3-3,0.2-3.8,1.2c-0.9,1.1-0.9,2.5-0.1,3.6l9.6,13.6l-7.6,4.2c-1,0.6-1.6,1.5-1.7,2.6
				c-0.1,1,0.5,2,1.4,2.7l30.7,20.7l-9.1,14.6h0c-0.6,1-0.6,2.3,0.2,3.3c0.7,1,2,1.5,3.4,1.4l36.7-3.1V517c0,1.8,1.6,3.2,3.6,3.2
				s3.6-1.4,3.6-3.2v-15.5l36.7,3.1c0.1,0,0.2,0,0.3,0c1.3,0,2.5-0.6,3.1-1.6c0.7-1,0.7-2.2,0.1-3.2l-9.1-14.6l30.7-20.7
				c0.9-0.6,1.5-1.6,1.4-2.7c-0.1-1-0.7-2-1.7-2.6l-7.8-4.4l10-16.9c0.7-1.2,0.5-2.6-0.6-3.6C730.2,433.5,728.6,433.2,727.1,433.7
				L727.1,433.7z"/>
		</defs>
		<clipPath id="XMLID_75_">
			<use xlink:href="#XMLID_37_"  style="overflow:visible;"/>
		</clipPath>
		<path id="XMLID_35_" class="st35" d="M646.2,478.3c0,0,2.3-4.8-2.4-16.6c-4.7-11.8,25.5-34,46.6-35.6c0,0-52.3-0.1-94.2,15.5
			c0,0,20.8-4.5,29.1,8.8c8.2,13.3,12.1,16.1,15.3,17.4C643.7,469.1,645.6,472.4,646.2,478.3z"/>
	</g>
</g>
</svg>
