<?xml version="1.0" encoding="utf-8"?>
<!-- Generator: Adobe Illustrator 19.0.0, SVG Export Plug-In . SVG Version: 6.00 Build 0)  -->
<svg version="1.1" xmlns="http://www.w3.org/2000/svg" xmlns:xlink="http://www.w3.org/1999/xlink" x="0px" y="0px"
	 viewBox="194 147 1000 500" style="enable-background:new 194 147 1000 500;" xml:space="preserve">
<style type="text/css">
	.st0{display:none;}
	.st1{display:inline;fill:#161616;}
	.st2{fill:#FFFFFF;}
	.st3{fill:#C1272D;}
	.st4{fill:#F2DBC2;}
	.st5{opacity:0.5;}
	.st6{clip-path:url(#SVGID_2_);fill:#1D1D1B;}
	.st7{clip-path:url(#SVGID_4_);fill:#1D1D1B;}
</style>
<g id="Calque_1">
	<g id="Calque_2" class="st0">
		<rect id="XMLID_1_" x="194" y="147" class="st1" width="1000" height="500"/>
	</g>
</g>
<g id="Calque_2_1_">
	<rect x="194" y="147" class="st0" width="1000" height="500"/>
	<g>
		<path class="st2" d="M686.7,273.5v71.2c0,11.2,7.9,13.3,13.8,14.4v2.5h-33.1V359c5.8-1,13.6-3.1,13.6-14.4v-73.9
			c0-11.2-7.9-13.3-13.8-14.4v-2.5h39.6l27.2,66.7l23.8-66.7h38.8v2.5c-5.1,1-12.3,3.1-12.3,14.4v73.9c0,11.2,7.2,13.3,12.3,14.4
			v2.5h-50.9V359c5.1-1,12.1-3.1,12.1-14.4v-73.5l-32.6,90.4h-3.7L686.7,273.5z"/>
		<path class="st2" d="M795.1,342c0-15.7,15.4-26.3,40.2-22v-8.8c0-9.7-7-14.2-15.4-14.2c-6.4,0-14.1,2.8-19.9,11.7l-2.5-0.4
			c3.1-11.4,14.1-22.9,32.2-23.3c18.7-0.3,30.4,11.8,30.4,25.9v32.2c0,4,0.6,7.6,3.3,7.6c0.6,0,1.5-0.1,2.1-0.6l1,0.9
			c-2.1,6-8.1,12.1-16.5,12.1c-7.3,0-12.7-4.3-14.2-10.3c-4,5.5-10.3,10.3-19.2,10.3C804.8,362.9,795.1,354.1,795.1,342z
			 M826.8,352.3c3.6,0,6.6-2.1,8.5-4.2v-23.9c-11.1-0.7-17.8,5.1-17.8,15C817.6,346.2,820.8,352.3,826.8,352.3z"/>
		<path class="st2" d="M869.8,357.1l0.1-22.3h2.5c10.3,17.7,17.7,22.9,26.3,22.9c7.2,0,9.9-3.6,9.9-8.2c0-9-10.8-11.4-22-16.8
			c-13.2-6.3-19-13.6-19-23.6c0-13.9,10.8-24.2,30.5-24.2c5.8,0,14.7,1,25.4,5.2l-0.1,20.8h-2.7c-8.2-17.7-16-20.6-22.6-20.6
			c-7.5,0-11.5,3.7-11.5,8.4c0,7.5,11.2,9.9,25.7,17.4c7,3.4,15.9,8.7,15.9,22.1c0,15.7-12,25.1-29.8,25.1
			C892.8,363.2,882.5,362,869.8,357.1z"/>
		<path class="st2" d="M937.1,338.2v-46.8h-10.9V289c12.4-4.6,24.7-13.5,32.6-26.3h3.3v23h20v5.7h-20v44.4c0,7.8,3.4,13.6,9.4,13.6
			c2.7,0,5.7-1.3,9-3.7l1.9,0.4c-3.9,9-11.5,17.1-24.2,17.1C945.2,363.2,937.1,354.4,937.1,338.2z"/>
		<path class="st2" d="M981.4,323.9c0-24.7,14.5-39,36.5-39c25.1,0,34.9,19.5,34.6,37.6h-45.3c1.2,19.9,11.1,27.8,21.7,27.8
			c7.2,0,14.4-3.1,21.2-10.8l1.9,0.4c-3.3,9.9-14.7,23.3-33.4,23.3C1001,363.2,981.4,351,981.4,323.9z M1028.2,317.4
			c0-10.5-1.8-27.5-10.3-27.5c-8.8,0-10.8,18.3-10.9,27.5H1028.2z"/>
		<path class="st2" d="M1060.7,346.2v-45c0-10.2-5.8-12.1-10.2-13v-2.4h35.2v23.6c3.9-15.6,15.7-26.9,30.7-24.1l-3.7,22.7h-1.6
			c-12.6-6-24.1,1.3-25.3,17.2v20.9c0,10.2,5.7,12.1,10.2,13v2.4h-45.3v-2.4C1054.8,358.3,1060.7,356.3,1060.7,346.2z"/>
	</g>
	<g>
		<path class="st3" d="M580.7,331.7l-1.2,8.1l-12.6,1.6l12,35.3l3.4,10.8l4.6-8.8l22-37.3l-12-1.6l0.7-8.1h38.6l-1,8.1l-9.6,1.6
			l-37.6,57.3l-4.5,34.4l17.8,2.1l-0.7,7.6h-60l0.9-7.6l16.9-2.1l4.2-34.4l-24.4-57.3l-9.4-1.6l0.7-8.1H580.7z"/>
		<path class="st3" d="M698.7,366.8c5.6,6,8.5,14.9,8.5,26.6c0,9.5-1.9,18.2-5.8,26c-3.9,7.9-9.4,14.1-16.5,18.7
			c-7.1,4.6-15.3,6.9-24.7,6.9c-11,0-19.2-3.1-24.8-9.2c-5.6-6.1-8.4-15-8.4-26.7c0-9.5,1.9-18.1,5.8-26c3.9-7.8,9.4-14,16.5-18.6
			c7.1-4.5,15.3-6.8,24.5-6.8C684.7,357.8,693,360.8,698.7,366.8z M660.4,374.6c-2.8,4.4-4.8,10-6.1,16.7
			c-1.2,6.7-1.8,13.4-1.6,20.2c0.3,8.7,1.3,14.9,2.9,18.5c1.6,3.7,4.3,5.5,7.9,5.5c5.9,0,10.2-4.1,13.1-12.3
			c2.8-8.2,4.3-17.8,4.3-28.7c0-9.9-0.8-16.8-2.3-20.7c-1.5-3.9-4.1-5.9-7.6-5.9C666.8,367.9,663.2,370.1,660.4,374.6z"/>
		<path class="st3" d="M746.9,405c-1.3,8.7-1.9,14.4-1.9,17.2c0,3.6,0.5,6.2,1.6,7.7c1.1,1.5,2.9,2.3,5.4,2.3c2.7,0,5.3-0.7,7.9-2.2
			c2.5-1.4,4.8-3.3,6.7-5.5l9-66.1H799l-9.4,67.9c-0.4,3.7,0.6,5.5,3,5.5c0.8,0,1.6-0.2,2.5-0.7c0.8-0.4,2.2-1.3,4.1-2.6l2.1,5.1
			c-0.7,1.2-1.9,2.6-3.7,4.3c-1.8,1.6-4.1,3.1-7,4.4c-2.9,1.3-6.1,1.9-9.6,1.9c-3.9,0-6.9-0.7-9.1-2c-2.2-1.3-3.5-3.3-4-5.8
			c-0.1-0.3-0.1-0.8-0.1-1.6c0-1.2,0-2.1,0.1-2.7l-0.1-0.1c-3.2,3.6-6.8,6.5-10.8,8.8c-4,2.3-8.9,3.4-14.7,3.4
			c-5.3,0-10.1-1.5-14.5-4.6c-4.4-3-6.6-7.8-6.7-14.1c0-4.1,0.8-11.4,2.4-22c0.4-2,0.6-3.5,0.7-4.5l3.9-26.8l-9.3-5.7l1.2-6.4
			l29-2.4l3.7,1.8l-4.9,40.1L746.9,405z"/>
		<path class="st3" d="M850,364.2c4.3-4.2,9.2-6.3,14.8-6.3c2.2,0,3.9,0.5,5.1,1.5l-4.9,25.6c-0.4-0.5-1.3-1-2.8-1.6
			c-1.5-0.6-3.3-0.9-5.4-0.9c-3.1,0-6,0.3-8.6,1c-2.6,0.6-4.7,1.6-6.1,2.8l-7.8,56.7h-23l9.4-70.5l-7.8-4.2l1.2-6.4l23.9-3.9
			l3.9,2.5l-0.7,13.8l-0.3,5.4C842.7,373.5,845.7,368.4,850,364.2z"/>
	</g>
	<g>
		<path class="st4" d="M778.2,518.9l0.4-28.6h2.7c7.5,21.8,20.8,31.6,33.8,31.6c9.3,0,17.2-5.2,16.9-15.6
			c-0.6-13.3-15.6-19.7-30.2-26.8c-14.5-6.9-25.6-16-25-31.9c0.4-17.2,14.1-31.3,40.4-31.3c13.6,0,24.4,4,33.2,7.5l-0.3,28.1h-2.5
			c-6.9-20.6-16.8-30.1-30.4-30.1c-11.1,0-17.8,5.8-18,13.6c-0.1,11.8,16,17.1,31.4,24.7c18.9,9.6,24.5,20.2,24.1,34.1
			c-0.7,23.3-18.3,33.1-38.8,33.1C806.6,527.5,793.2,525.4,778.2,518.9z"/>
		<path class="st4" d="M889.8,415v95.3c0,10.2,5.8,12.1,10.2,13v2.4h-45.3v-2.4c4.5-0.9,10.2-2.8,10.2-13v-75.7
			c0-10.3-5.8-11.2-10.2-11.4l-0.4-2.4L889.8,415z M891.9,486.3l-0.1-0.3l20.6-17.8c4-3.4,5.5-6.1,5.5-8.2c0-5.2-9.6-6.6-14.7-7.2
			v-3h39.8v0.7L913.1,476l21.1,35.9c4.2,6.9,8.8,10,14.7,11.4v2.4h-36.4L891.9,486.3z"/>
		<path class="st4" d="M955.9,510.3v-45c0-10.2-5.8-12.1-10.3-13v-2.4h35v60.4c0,10.2,5.8,12.1,10.3,13v2.4h-45.3v-2.4
			C949.9,522.4,955.9,520.4,955.9,510.3z M965.8,413.3c7.8,0,14.2,6.1,14.2,13.9s-6.6,13.9-14.2,13.9c-7.6,0-14.2-6.1-14.2-13.9
			S958,413.3,965.8,413.3z"/>
		<path class="st4" d="M998,510.3v-75.7c0-10.3-5.8-11.2-10.3-11.4l-0.4-2.4l35.8-5.8v95.3c0,10.2,5.8,12.1,10.2,13v2.4h-45.3v-2.4
			C992.1,522.4,998,520.4,998,510.3z"/>
		<path class="st4" d="M1040.2,510.3v-75.7c0-10.3-5.8-11.2-10.3-11.4l-0.4-2.4l35.8-5.8v95.3c0,10.2,5.8,12.1,10.2,13v2.4H1030
			v-2.4C1034.3,522.4,1040.2,520.4,1040.2,510.3z"/>
		<path class="st4" d="M1078,521.2l0.1-22.3h2.5c10.3,17.7,17.7,22.9,26.3,22.9c7.2,0,9.9-3.6,9.9-8.2c0-9-10.8-11.4-22-16.8
			c-13.2-6.3-19-13.6-19-23.6c0-13.9,10.8-24.2,30.5-24.2c5.8,0,14.7,1,25.4,5.2l-0.1,20.8h-2.7c-8.2-17.7-16-20.6-22.6-20.6
			c-7.5,0-11.5,3.7-11.5,8.4c0,7.5,11.2,9.9,25.7,17.4c7,3.4,15.9,8.7,15.9,22.1c0,15.7-12,25.1-29.8,25.1
			C1101,527.3,1090.7,526.1,1078,521.2z"/>
	</g>
	<g class="st5">
		<image style="overflow:visible;" width="338" height="303" xlink:href="6942C779.png"  transform="matrix(1 0 0 1 201 236)">
		</image>
	</g>
	<g>
		<path class="st2" d="M502.6,334.2c0-20.6-11.4-39.6-29.5-49.3v47.4l-9.7,6.7h-38.5l-9.7-6.7v-47.4c-10.3,5.5-18.7,14.2-23.8,24.7
			c6.2,12.2,9.4,25.8,9.3,39.5c0,6.9-0.9,13.7-2.6,20.3c6.9,8.6,16.3,14.9,26.8,18.2c-0.1,0.7-0.1,1.5-0.1,2.2v112.3h12.2v-71.9
			c0.6-0.3,1.1-0.5,1.7-0.7c1.7-0.6,3.4-0.9,5.2-0.8c0.1,0,0.2,0,0.3,0c0.1,0,0.2,0,0.3,0c1.8,0,3.5,0.3,5.2,0.8
			c0.6,0.2,1.2,0.4,1.7,0.7v71.9h12.2V389.8c0-0.8,0-1.5-0.1-2.2C486.7,380.3,502.6,358.7,502.6,334.2z"/>
		<path class="st2" d="M313.7,432.4h-44.2l-0.2,34.4c0,3.6,1.8,6.9,4.7,8.8c7.2,4.7,20.1,13.1,20.8,13.2c1.1,7.3,9,13.1,18.8,13.3
			c9.8-0.3,17.8-6,18.8-13.3c0.8-0.2,13.6-8.5,20.8-13.2c3-2,4.8-5.3,4.7-8.8l-0.2-34.4H313.7z"/>
		<path class="st2" d="M313.8,272.4h-0.2c-42,0.4-75.9,34.6-75.8,76.6c0,14.8,4.6,28.7,14,42.4c7.3,10.5,13.3,21.9,17.6,34
			c0.1,0.1,0.1,0.3,0.1,0.4h15c0-0.1-0.1-0.3-0.1-0.4c-4.8-15-11.8-29.1-20.9-42c-7.3-10-11.3-22-11.5-34.4
			c0-34.2,27.5-62,61.6-62.4h0.2c34.2,0.4,61.7,28.2,61.7,62.4c-0.2,12.4-4.2,24.4-11.5,34.4c-9,12.9-16.1,27-20.9,42
			c0,0.1-0.1,0.3-0.1,0.4h15c0-0.1,0.1-0.3,0.1-0.4c4.3-12.1,10.2-23.5,17.6-34c9.4-13.7,14-27.6,14-42.4
			C389.7,307,355.8,272.8,313.8,272.4z"/>
	</g>
</g>
<g id="Calque_3">
	<g>
		<defs>
			<path id="SVGID_1_" d="M778.2,518.9l0.4-28.6h2.7c7.5,21.8,20.8,31.6,33.8,31.6c9.3,0,17.2-5.2,16.9-15.6
				c-0.6-13.3-15.6-19.7-30.2-26.8c-14.5-6.9-25.6-16-25-31.9c0.4-17.2,14.1-31.3,40.4-31.3c13.6,0,24.4,4,33.2,7.5l-0.3,28.1h-2.5
				c-6.9-20.6-16.8-30.1-30.4-30.1c-11.1,0-17.8,5.8-18,13.6c-0.1,11.8,16,17.1,31.4,24.7c18.9,9.6,24.5,20.2,24.1,34.1
				c-0.7,23.3-18.3,33.1-38.8,33.1C806.6,527.5,793.2,525.4,778.2,518.9z"/>
		</defs>
		<clipPath id="SVGID_2_">
			<use xlink:href="#SVGID_1_"  style="overflow:visible;"/>
		</clipPath>
		<path class="st6" d="M746.9,405c-1.3,8.7-1.9,14.4-1.9,17.2c0,3.6,0.5,6.2,1.6,7.7c1.1,1.5,2.9,2.3,5.4,2.3c2.7,0,5.3-0.7,7.9-2.2
			c2.5-1.4,4.8-3.3,6.7-5.5l9-66.1H799l-9.4,67.9c-0.4,3.7,0.6,5.5,3,5.5c0.8,0,1.6-0.2,2.5-0.7c0.8-0.4,2.2-1.3,4.1-2.6l2.1,5.1
			c-0.7,1.2-1.9,2.6-3.7,4.3c-1.8,1.6-4.1,3.1-7,4.4c-2.9,1.3-6.1,1.9-9.6,1.9c-3.9,0-6.9-0.7-9.1-2c-2.2-1.3-3.5-3.3-4-5.8
			c-0.1-0.3-0.1-0.8-0.1-1.6c0-1.2,0-2.1,0.1-2.7l-0.1-0.1c-3.2,3.6-6.8,6.5-10.8,8.8c-4,2.3-8.9,3.4-14.7,3.4
			c-5.3,0-10.1-1.5-14.5-4.6c-4.4-3-6.6-7.8-6.7-14.1c0-4.1,0.8-11.4,2.4-22c0.4-2,0.6-3.5,0.7-4.5l3.9-26.8l-9.3-5.7l1.2-6.4
			l29-2.4l3.7,1.8l-4.9,40.1L746.9,405z"/>
	</g>
	<g>
		<defs>
			<path id="SVGID_3_" d="M778.2,518.9l0.4-28.6h2.7c7.5,21.8,20.8,31.6,33.8,31.6c9.3,0,17.2-5.2,16.9-15.6
				c-0.6-13.3-15.6-19.7-30.2-26.8c-14.5-6.9-25.6-16-25-31.9c0.4-17.2,14.1-31.3,40.4-31.3c13.6,0,24.4,4,33.2,7.5l-0.3,28.1h-2.5
				c-6.9-20.6-16.8-30.1-30.4-30.1c-11.1,0-17.8,5.8-18,13.6c-0.1,11.8,16,17.1,31.4,24.7c18.9,9.6,24.5,20.2,24.1,34.1
				c-0.7,23.3-18.3,33.1-38.8,33.1C806.6,527.5,793.2,525.4,778.2,518.9z"/>
		</defs>
		<clipPath id="SVGID_4_">
			<use xlink:href="#SVGID_3_"  style="overflow:visible;"/>
		</clipPath>
		<path class="st7" d="M850,364.2c4.3-4.2,9.2-6.3,14.8-6.3c2.2,0,3.9,0.5,5.1,1.5l-4.9,25.6c-0.4-0.5-1.3-1-2.8-1.6
			c-1.5-0.6-3.3-0.9-5.4-0.9c-3.1,0-6,0.3-8.6,1c-2.6,0.6-4.7,1.6-6.1,2.8l-7.8,56.7h-23l9.4-70.5l-7.8-4.2l1.2-6.4l23.9-3.9
			l3.9,2.5l-0.7,13.8l-0.3,5.4C842.7,373.5,845.7,368.4,850,364.2z"/>
	</g>
</g>
</svg>
