<?xml version="1.0" encoding="utf-8"?>
<!-- Generator: Adobe Illustrator 19.0.0, SVG Export Plug-In . SVG Version: 6.00 Build 0)  -->
<svg version="1.1" id="Calque_1" xmlns="http://www.w3.org/2000/svg" xmlns:xlink="http://www.w3.org/1999/xlink" x="0px" y="0px"
	 viewBox="0 0 960 560" style="enable-background:new 0 0 960 560;" xml:space="preserve">
<style type="text/css">
	.st0{opacity:0.5;}
	.st1{fill:#EBFFAA;}
	.st2{fill:#E90052;}
	.st3{fill:#3AF9BA;}
</style>
<g id="XMLID_43_" class="st0">
	
		<image style="overflow:visible;" width="230" height="362" id="XMLID_186_" xlink:href="D8222BD8.png"  transform="matrix(1 0 0 1 116.6811 115.3322)">
	</image>
</g>
<g id="XMLID_2_">
	<path id="XMLID_13_" class="st1" d="M183.8,280.7h-2.6l-2.3-9.6h4.9V280.7z"/>
	<path id="XMLID_12_" class="st1" d="M184.5,280.7h2.6l2.3-9.6h-5V280.7z"/>
	<path id="XMLID_11_" class="st1" d="M186.7,253.4c0,3.3-5,3.3-5,0C181.7,250,186.7,250,186.7,253.4"/>
	<path id="XMLID_8_" class="st1" d="M310.5,227v-56.9h-93.7l-3.8,24.6c3.8,1.2,6.6,4.7,6.7,8.9l31.5,4.8c1-2,3.1-3.4,5.6-3.4
		c3.4,0,6.2,2.8,6.2,6.2c0,3.4-2.8,6.2-6.2,6.2c-3.3,0-6.1-2.6-6.2-5.9l-31.3-4.8c-1.2,3.8-4.8,6.6-9.1,6.6c-5.3,0-9.5-4.3-9.5-9.5
		c0,0,0,0,0,0l-31.7-4.9c-1,2-3.1,3.4-5.6,3.4c-3.4,0-6.2-2.8-6.2-6.2c0-3.4,2.8-6.2,6.2-6.2c3.3,0,6.1,2.6,6.2,5.9l31.5,4.8
		c1.3-3.6,4.7-6.2,8.7-6.4l3.7-24.2l-60.6,0V227h11.1v5.5h15.6V247h-5.3v22.7H194V247h-5.3v-14.5h15.6V227h44.2v87.9h-92.9v7.1h88.1
		v6.3h4.8v99h-77.8v10H165v3.4h112.4v-3.4H272v-10h-9.1v-99h9.2l17.2,29.4c-0.3,0.5-0.5,1.2-0.4,1.8c0.2,1.5,1.6,2.6,3.1,2.3
		c1.5-0.2,2.6-1.6,2.3-3.1c-0.2-1.5-1.6-2.6-3.1-2.3c-0.2,0-0.3,0.1-0.5,0.1l-16.5-28.2h1.4v-13.3h-12.8l0-87.9L310.5,227z
		 M269.7,319.4c1.9,0,3.4,1.5,3.4,3.4c0,1.9-1.5,3.4-3.4,3.4c-1.9,0-3.4-1.5-3.4-3.4C266.3,320.9,267.8,319.4,269.7,319.4z"/>
	<path id="XMLID_7_" class="st1" d="M301.8,285.7h-29.7c-2.9-2.4-3.4-11.6-3.4-11.6h36.4C305.2,274.1,304.7,283.3,301.8,285.7
		L301.8,285.7z"/>
	<path id="XMLID_6_" class="st1" d="M268.7,228.8h36.4v43.9h-36.4V228.8z"/>
	<path id="XMLID_5_" class="st1" d="M223.8,157.2c0,3.3-2.6,6.1-5.9,6.2l-0.6,4h93.3c0,0-1.9-12.3-14.6-15.5h-75.2
		C222.6,152.9,223.8,154.9,223.8,157.2L223.8,157.2z"/>
	<path id="XMLID_4_" class="st1" d="M214.1,167.4l0.7-4.6c-2-1-3.4-3.1-3.4-5.6c0-2.3,1.2-4.3,3-5.3h-46.7
		c-12.6,3.2-14.6,15.5-14.6,15.5L214.1,167.4z"/>
	<path id="XMLID_3_" class="st1" d="M216.1,203.7c0,3.2-2.6,5.9-5.9,5.9s-5.9-2.6-5.9-5.9c0-3.2,2.6-5.9,5.9-5.9
		S216.1,200.5,216.1,203.7"/>
</g>
<g id="XMLID_1_">
	<path id="XMLID_15_" class="st2" d="M427.1,178.4h48.2v26.3h-13.7v64.8h13.7v26.1c-19.9,0-40.2,0-60.5,0v-26.1h13.9v-45.6l-30,35.7
		h-3.3l-29.3-35.5v45.4h14.1v26.1c-20.4,0-40.4,0-60.5,0v-26.1h13.7v-64.8h-13.7v-26.3H368l29.3,38L427.1,178.4z"/>
	<path id="XMLID_17_" class="st2" d="M572,263h-58.1c2.2,7.4,11.7,10.6,18.4,10.6c9,0,16.2-2.7,21.6-6.7l15.1,16.9
		c-9.9,9.2-23.8,13.7-38,13.7c-26.1,0-48.2-12.9-48.2-43c0-30.1,23.6-44,46.1-44C558.1,210.4,579,230.3,572,263z M544,243.2
		c-0.8-13.4-28-13.7-30,0H544z"/>
	<path id="XMLID_20_" class="st2" d="M622.2,189.4v23.9h18.6V237h-18.8v27.1c0.2,5.9,3.5,8,8.2,8c3,0,6.5-1.2,9-2.8l6.7,22.8
		c-7,4-15.2,5.5-23.8,5.5c-16.4,0-31.2-7.5-30.6-33.5V237h-13.2v-23.6h13.2v-20.6L622.2,189.4z"/>
	<path id="XMLID_22_" class="st2" d="M716.9,212.5c13.6,0,25.8,0,39.2,0v22.8h-11.2v37.5H756v22.8c-13.2,0-25.3,0-38.7,0l-1.3-9.2
		c-7,8.2-18.1,11.1-27.3,10.6c-24.3-1.3-38-18.8-38-43c0-24.5,16.1-43.2,40.4-43.2c11.9,0,19.9,3.9,24.3,10.7L716.9,212.5z
		 M681.5,253.9c0,11.6,7.4,18.1,16.6,18.1c10.4,0,17.1-8.4,17.1-18.1c0-11.1-6.2-18.3-17.1-18.3
		C687.5,235.7,681.5,243.9,681.5,253.9z"/>
	<path id="XMLID_25_" class="st2" d="M764.6,273h11.7v-71.7h-11.2v-23.1h42.2V273H819v22.6c-18.1,0-36.3,0-54.4,0V273z"/>
</g>
<g id="XMLID_14_">
	<path id="XMLID_27_" class="st3" d="M494.3,351.3l-33.3,91.3h-27.1L413,386.4l-19.9,56.1h-26.8l-34-91.3h-12.6v-26
		c20.3,0,40.2,0,60.3,0v26h-11.7l5.5,15.2c2.8,8.9,4.5,18.6,6.2,27.3l20.9-66.7h23.9l21.8,66.7c1.7-8.9,4-18.4,6.5-28.1l5.2-14.4
		h-12.1v-26c20.3,0,40.2,0,60.3,0v26H494.3z"/>
	<path id="XMLID_29_" class="st3" d="M593.6,401.3c0,30.1-23.9,43.2-47.2,43.2c-23.8,0-47.2-13.1-47.2-43.2
		c0-30.6,23.3-43.4,47.2-43.4C570.8,358,593.6,371.2,593.6,401.3z M563.4,401.3c0-9.5-6.2-18.1-17.1-18.1s-17.1,8.5-17.1,18.1
		c0,9.5,6.2,17.9,17.1,17.9C556.7,419.3,563.4,411.4,563.4,401.3z"/>
	<path id="XMLID_32_" class="st3" d="M602.5,382.1v-22.6h38.7l2.2,9.2c5-7.2,12.6-11.1,21.4-11.1c9.2,0,16.7,3.3,21.8,8.9
		l-12.1,23.6c-4-3.2-9.4-4.5-14.2-4.5c-10.9,0.2-15.6,6.4-15.6,16.7v17.4h11.7v22.8c-17.9,0-36,0-53.9,0v-22.8h11.4v-37.7H602.5z"/>
	<path id="XMLID_34_" class="st3" d="M728.1,419.9h6.4v22.6c-18.1,0-30.8,0-48.9,0v-22.6h11.6v-71.7h-11.4v-23.1h42.4v64l16.6-10.4
		l-7.4-1v-18.3c17.1,0,33.8,0,50.9,0v22.3h-13.4l-16.7,10.6l19.9,27.6h12.6c0,7.7,0,15.1,0,22.6h-41V431l-16.1-23.1l-5.4,3.7V419.9z
		"/>
</g>
<g id="XMLID_40_" class="st0">
	
		<image style="overflow:visible;" width="165" height="166" id="XMLID_94_" xlink:href="D8222BDB.png"  transform="matrix(1 0 0 1 480.6811 57.3322)">
	</image>
</g>
<g id="XMLID_39_">
	<path id="XMLID_37_" class="st1" d="M523,175.1l-5.8,11.5l11.5-5.8l23.7-23.7l-5.8-5.8L523,175.1z"/>
	<path id="XMLID_36_" class="st1" d="M580.9,94.2c-4.5,4.5-6.4,10.5-5.9,16.3l-15.8,13.2c-8.6-1.8-18,0.6-24.7,7.3l38.3,38.3
		c6.7-6.7,9.1-16.1,7.3-24.7l13.2-15.8c5.8,0.6,11.8-1.4,16.3-5.9L580.9,94.2z"/>
</g>
</svg>
