<?xml version="1.0" encoding="utf-8"?>
<!-- Generator: Adobe Illustrator 19.0.0, SVG Export Plug-In . SVG Version: 6.00 Build 0)  -->
<svg version="1.1" id="Calque_1" xmlns="http://www.w3.org/2000/svg" xmlns:xlink="http://www.w3.org/1999/xlink" x="0px" y="0px"
	 viewBox="0 0 300 114" style="enable-background:new 0 0 300 114;" xml:space="preserve">
<style type="text/css">
	.st0{display:none;fill:#E90052;}
	.st1{fill:#E90052;}
	.st2{fill:#EBFFAA;}
	.st3{fill:#3AF9BA;}
	.st4{clip-path:url(#XMLID_8_);}
	.st5{clip-path:url(#XMLID_9_);}
	.st6{clip-path:url(#XMLID_10_);}
	.st7{clip-path:url(#XMLID_157_);}
	.st8{clip-path:url(#XMLID_158_);}
	.st9{clip-path:url(#XMLID_159_);}
	.st10{clip-path:url(#XMLID_160_);}
	.st11{clip-path:url(#XMLID_161_);}
	.st12{clip-path:url(#XMLID_162_);}
	.st13{clip-path:url(#XMLID_163_);}
	.st14{clip-path:url(#XMLID_164_);}
	.st15{clip-path:url(#XMLID_165_);}
	.st16{clip-path:url(#XMLID_166_);}
</style>
<path id="XMLID_1_" class="st0" d="M132.9,43.6h-4.4V37h16.2v6.6h-3.3l4,13.6L151,37h6.8l5.6,20.3l3.7-13.6h-3V37h15.7v6.6h-4
	l-7.4,21.3h-9.3l-2-5.5l-2.7-10.1l-2.7,10.2l-1.9,5.4h-9.4L132.9,43.6z"/>
<g id="XMLID_6_">
	<g id="XMLID_143_">
		<path id="XMLID_144_" class="st1" d="M62.9,33.1h-4.4v-7.5h22.3c19.6,0,19.7,25.9,0,26.1h-9.8v5.6h4.4v7.4H59.1v-7.4h3.9V33.1z
			 M80.9,44.4c8.6,0,8.8-11.3,0-11.3h-9.8v11.3H80.9z"/>
		<path id="XMLID_147_" class="st1" d="M112.3,36.3c9.4,0,14.7,6.1,14.7,14.6c0,7.9-5.5,14.5-14.7,14.5s-14.7-6.1-14.7-14.5
			C97.7,42.3,103.3,36.3,112.3,36.3z M112.5,43.2c-4.7,0-7,3.2-7,7.6c0,3.9,2.2,7.2,6.9,7.2s6.9-3.3,7-7.2
			C119.4,46.5,116.7,43.2,112.5,43.2z"/>
		<path id="XMLID_150_" class="st1" d="M132.9,43.6h-4.4V37h16.2v6.6h-3.3l4,13.6L151,37h6.8l5.6,20.3l3.7-13.6h-3V37h15.7v6.6h-4
			l-7.4,21.3h-9.3l-2-5.5l-2.7-10.1l-2.7,10.2l-1.9,5.4h-9.4L132.9,43.6z"/>
		<path id="XMLID_152_" class="st1" d="M208.9,61.1c-3,3-8,4.4-12.1,4.4c-10.8,0-15.3-6.6-15.3-14.8c0-8.6,5.8-14.4,14.9-14.4
			c9.2,0,15,4.9,13.4,17.4h-20.4c0.4,2.8,2.9,4.9,7.5,4.9c2.2,0,5.4-0.8,7.3-2.4L208.9,61.1z M202.7,47.6c0.1-3.4-2.7-4.8-6.2-4.8
			c-3.4,0-6.4,1.6-7.1,4.8H202.7z"/>
		<path id="XMLID_155_" class="st1" d="M217.9,43.7h-3.6v-6.8h10.2l0.7,2.6c2.1-2.4,4.8-3.3,7.8-3.3c2.5,0,5.4,0.8,7.5,2.7l-3.6,6.6
			c-1.4-1.2-3.3-1.7-5.2-1.7c-3.1,0-6.1,1.7-6.1,6.6V58h3.9v6.7h-15.8V58h4.2V43.7z"/>
	</g>
	<g id="XMLID_137_">
		<path id="XMLID_138_" class="st2" d="M242.4,62c-2.2-2.2-3.4-5-3.4-8.5c0-4.7,1.7-8.6,5-11.8c3.3-3.2,7.5-4.8,12.6-4.8
			c3.9,0,7,1.1,9.3,3.3c2.3,2.2,3.4,5.1,3.4,8.6c0,4.7-1.6,8.6-4.9,11.7c-3.3,3.1-7.5,4.7-12.7,4.7C247.7,65.3,244.6,64.2,242.4,62z
			 M259,55.7c1.4-1.7,2.2-3.6,2.2-5.8c0-1.6-0.5-3.1-1.4-4.2s-2.4-1.7-4.3-1.7c-2.5,0-4.5,0.9-6,2.6c-1.5,1.7-2.2,3.7-2.2,5.7
			c0,1.6,0.5,3,1.4,4.2c1,1.1,2.4,1.7,4.3,1.7C255.5,58.2,257.5,57.4,259,55.7z"/>
		<path id="XMLID_141_" class="st2" d="M295.5,33.3c-1.1-0.7-2.3-1.1-3.8-1.1c-2.6,0-4.1,1.4-4.6,4.2l-0.3,1.6h7.5l-1.2,6.7h-7.5
			l-3.5,20h-7.9l3.5-20h-4.8l1.2-6.7h4.8l0.3-1.6c1.2-7.3,5.6-10.9,13-10.9c2.3,0,4.5,0.6,6.4,1.9L295.5,33.3z"/>
	</g>
	<g id="XMLID_129_">
		<path id="XMLID_130_" class="st2" d="M13.1,52.9l7-22.9h-2.3c-4.7,0-6.8,2.7-8.3,5.9l-0.6-0.1l2.2-5.9l0.4-1.1h22.1L33.3,30
			l-1.4,5.9l-0.6,0.1c0.5-3.2,0-6-4.7-5.9h-2.3l-7,22.9c-0.9,2.8,0.4,3.3,2,3.5L19.1,57H8.7l0.2-0.6C10.4,56.3,12.2,55.7,13.1,52.9z
			"/>
		<path id="XMLID_132_" class="st2" d="M34.3,29.9l0.1-0.6l7.2-1.3L36,46.3c3.9-7.6,7.6-9,9.7-9c2.6,0,4.1,2,3.1,5.1l-3.1,9.3
			c-0.9,2.7-0.6,3.9,0.2,3.9c0.9,0,2.5-1.3,4.1-3.9l0.4,0.2c-1.4,3-4,5.6-6.5,5.6c-2,0-3.4-1.8-2.2-5.4l3.1-9.3
			c0.9-2.6,0.1-3.4-0.8-3.4c-1.8,0-6.1,3.2-9.9,13.4L32.7,57h-3.9l7.4-24.2C37.1,30.1,35.9,29.8,34.3,29.9z"/>
		<path id="XMLID_134_" class="st2" d="M51.9,46.4c1.9-5.9,6.6-9.1,10.9-9.1c3.6,0,5.6,2.3,4.7,5c-1,3.3-5.5,5.6-12.2,5.9
			c-0.6,4.2,0.8,7.1,3.8,7.2c2.2,0.1,4.5-1.4,6.4-4.1l0.5,0.2c-2.2,3.9-5.4,6.1-8.7,6C52.5,57.4,49.9,52.5,51.9,46.4z M64.1,41.8
			c0.6-1.7,0.4-3.5-1.5-3.5c-2.3,0-5.1,2.7-6.5,6.9c-0.2,0.7-0.4,1.4-0.5,2.1C60.8,47,63.3,44.2,64.1,41.8z"/>
	</g>
	<g id="XMLID_13_">
		<path id="XMLID_14_" class="st3" d="M10.1,83c-1.7-1.5-2.8-3.5-3.2-6.1c-0.5-2.6-0.2-5.5,0.8-8.6c0.9-2.9,2.2-5.4,3.9-7.5
			c1.7-2.1,3.8-3.6,6.1-4.7c2.4-1.1,5-1.6,7.9-1.6c1.3,0,2.6,0.1,3.9,0.4c1.3,0.2,2.9,0.7,4.6,1.2l-2.8,9.1h-0.6
			c-0.1-2.6-0.4-4.8-1.1-6.6c-0.7-1.8-2-2.7-3.9-2.7c-1.4,0-2.6,0.5-3.7,1.5c-1.1,1-2.1,2.3-3,4c-0.9,1.7-1.7,3.7-2.3,5.9
			c-0.9,3-1.3,5.6-1.2,7.6c0.1,2,0.6,3.5,1.4,4.5c0.9,1,2,1.5,3.3,1.6c1.5,0.1,3.1-0.4,4.9-1.4c1.7-1,3.2-2.1,4.4-3.3l0.3,0.6
			c-1.1,1.6-2.3,2.9-3.6,4.2c-1.3,1.2-2.7,2.2-4.3,3c-1.6,0.8-3.4,1.2-5.3,1.2C13.9,85.2,11.8,84.5,10.1,83z"/>
		<path id="XMLID_94_" class="st3" d="M35,65.9c-0.1-0.5-0.2-0.8-0.5-1.1s-0.6-0.4-0.9-0.6c-0.1,0-0.2-0.1-0.2-0.1l0.2-0.7h10.1
			l-6.5,21.2h-7.7l5.3-16.9C35,67,35,66.4,35,65.9z M43.7,67c1.1-1.4,2.3-2.5,3.7-3.2c1.4-0.7,2.9-0.8,4.4-0.4l-3.2,7h-0.5
			c-0.9-0.6-2-0.7-3.1-0.3c-1.1,0.4-2.3,1.4-3.4,3c-1.1,1.6-2,3.7-2.8,6.4l2.1-7.4C41.6,70.1,42.6,68.4,43.7,67z"/>
		<path id="XMLID_97_" class="st3" d="M49.6,83.5c-0.8-1.1-1.3-2.7-1.3-4.6c0-2.2,0.5-4.5,1.6-6.9c1.1-2.5,2.6-4.5,4.5-6.2
			c1.9-1.7,4-2.5,6.4-2.5c1.4,0,2.4,0.3,3.1,0.9c0.7,0.6,1.1,1.3,1.4,2.1l-1.6,1c0.2-0.7,0.2-1.2,0-1.5c-0.2-0.3-0.5-0.5-1-0.5
			c-0.8,0-1.7,0.6-2.5,1.7c-0.9,1.2-1.8,3.2-2.7,6c-0.4,1.2-0.7,2.4-1,3.5c-0.3,1.2-0.5,2.2-0.4,3.2c0,1,0.4,1.5,1,1.5
			c0.4,0,0.8-0.2,1.2-0.6c0.5-0.4,0.9-1.1,1.5-2.1c0.5-1,1-2.2,1.5-3.8v1.5c-0.9,3-2,5.3-3.4,6.8c-1.4,1.5-2.9,2.2-4.7,2.2
			C51.6,85.2,50.4,84.6,49.6,83.5z M60.8,84.1c-0.7-0.7-1-1.6-1.1-2.8s0.1-2.3,0.5-3.6l4.3-13l6.5-1.2h1.7l-4.8,14.6
			c-0.2,0.8-0.4,1.5-0.4,2.3c0,0.7,0.2,1.1,0.6,1.1c0.4,0,0.8-0.3,1.4-0.8c0.6-0.5,1.3-1.5,2.1-3l0.5,0.4c-0.9,2.1-2.1,3.8-3.6,5.1
			c-1.5,1.3-3.1,2-4.8,2C62.4,85.2,61.5,84.8,60.8,84.1z"/>
		<path id="XMLID_100_" class="st3" d="M68,90c1.1-1.2,2-2.6,2.7-4.1s1.4-3.5,2.2-6l5-16.2c1-3.2,2.5-5.5,4.5-7.1
			c2-1.6,4.3-2.3,6.8-2.3c1.1,0,2.1,0.1,3.1,0.4c1,0.2,2,0.5,2.9,0.9l-2.7,6.3h-0.5c-0.5-2-1-3.5-1.6-4.6c-0.6-1-1.1-1.6-1.5-1.6
			c-0.3,0-0.5,0.2-0.8,0.6c-0.2,0.4-0.6,1.2-0.9,2.3c-0.4,1.1-0.8,2.4-1.2,3.9C86,62.8,86,63,85.9,63.2l-5.1,16.7
			c-1,3.2-2.4,5.8-4.3,7.8c-1.9,2-3.9,3.6-6.2,4.5c-2.3,1-4.5,1.5-6.8,1.6v-0.3C65.4,92.3,66.9,91.2,68,90z M75.2,63.5H90l-0.5,1.4
			H74.7L75.2,63.5z"/>
		<path id="XMLID_103_" class="st3" d="M90.2,84.3c-0.7-0.6-1.2-1.4-1.4-2.5c-0.2-1.1,0-2.5,0.4-4.1l3.8-12.8h-2.9l0.1-0.6
			c2.1-0.7,4.2-1.7,6.4-3c2.1-1.3,4-2.8,5.6-4.5h0.9l-6.4,21.4c-0.4,1.1-0.5,2-0.4,2.5c0.1,0.5,0.4,0.8,0.8,0.8c0.5,0,1.1-0.3,1.9-1
			c0.7-0.6,1.5-1.6,2.2-2.8l0.5,0.4c-1.1,2.1-2.4,3.8-3.9,5.1c-1.6,1.3-3.2,2-4.9,2C91.8,85.2,90.9,84.9,90.2,84.3z M90.3,64.3
			l4.2-0.8h11.4l-0.4,1.4H90.2L90.3,64.3z"/>
		<path id="XMLID_106_" class="st3" d="M105.5,84.6c-1.4-0.4-2.8-0.9-4.1-1.5l2.1-6.2h0.5c0.4,0.9,0.9,1.8,1.3,2.6
			c0.4,0.8,0.9,1.5,1.3,2c0.6,0.8,1.2,1.4,1.7,1.7c0.6,0.4,1.1,0.6,1.7,0.6c0.5,0,0.9-0.1,1.4-0.4c0.4-0.3,0.6-0.7,0.6-1.2
			c0-0.7-0.4-1.6-1.1-2.6c-0.7-1-1.7-2.2-2.9-3.6l-1.2-1.4c-0.5-0.6-0.9-1.2-1.2-1.7s-0.5-1-0.6-1.5c-0.1-0.5-0.2-1-0.2-1.5
			c0-1.4,0.4-2.5,1.1-3.6c0.7-1,1.8-1.8,3.1-2.4c1.3-0.6,2.8-0.9,4.5-0.9c1,0,2,0.1,3.1,0.3c1.1,0.2,2.2,0.5,3.2,1l0.9,0.4l-2.1,6
			h-0.5c-0.2-0.7-0.4-1.3-0.7-1.9c-0.3-0.6-0.6-1.1-0.8-1.6c-0.6-0.9-1.1-1.6-1.7-2.1c-0.6-0.5-1.2-0.7-1.9-0.7
			c-0.5,0-0.9,0.1-1.3,0.4c-0.4,0.3-0.6,0.7-0.6,1.2s0.2,1.1,0.7,1.7c0.4,0.7,1.1,1.5,2,2.5c0.4,0.5,0.9,1,1.3,1.6
			c0.5,0.6,0.8,1.1,1.1,1.5c0.6,0.9,1.1,1.8,1.4,2.6c0.3,0.8,0.4,1.6,0.4,2.6c-0.1,1.2-0.4,2.3-1.1,3.3c-0.7,1-1.6,1.8-2.8,2.3
			c-1.2,0.6-2.7,0.9-4.4,0.9C108.3,85.2,106.9,85,105.5,84.6z"/>
		<path id="XMLID_108_" class="st3" d="M123.5,67.6c0.2-0.8,0.3-1.4,0.1-1.9c-0.1-0.5-0.3-0.8-0.6-1c-0.3-0.2-0.6-0.4-1-0.5l0.2-0.7
			h10.1l-6.5,21.2h-7.7l5.3-16.9L123.5,67.6z M135.8,67.6c-0.1-0.5-0.3-0.7-0.7-0.7c-0.4,0-1.1,0.5-2,1.5c-0.9,1-1.9,2.5-2.9,4.4
			c-1,1.9-1.9,4.1-2.7,6.5l1.1-6.1c1.7-3.4,3.4-5.9,5.2-7.6c1.8-1.7,3.6-2.5,5.5-2.5c1,0,1.9,0.3,2.7,0.9c0.8,0.6,1.3,1.4,1.5,2.4
			c0.3,1,0.2,2.1-0.2,3.4l-4.9,14.9h-7.8l4.8-14.4C135.8,69,135.9,68.1,135.8,67.6z M145.5,84.4c-0.7-0.6-1.2-1.4-1.4-2.4
			c-0.2-1-0.1-2.2,0.4-3.5l3-8.2c0.4-1.2,0.6-2.1,0.6-2.6c-0.1-0.5-0.3-0.7-0.6-0.7c-0.4,0-1.1,0.5-2,1.5c-0.9,1-1.8,2.5-2.8,4.4
			c-1,1.9-1.9,4.1-2.6,6.5l1.1-5.7c1.1-2.5,2.2-4.6,3.3-6.1c1.1-1.6,2.3-2.7,3.4-3.4c1.2-0.7,2.3-1,3.6-1c1.1,0,2.1,0.3,2.9,0.8
			c0.8,0.5,1.3,1.3,1.6,2.2s0.2,2-0.3,3.2l-3.2,8.7c-0.4,1.2-0.6,2.1-0.5,2.6c0.1,0.5,0.3,0.7,0.7,0.7c0.4,0,0.8-0.3,1.4-0.8
			c0.6-0.5,1.3-1.5,2.1-3l0.5,0.4c-0.9,2.1-2.1,3.8-3.6,5.1s-3.1,2-4.8,2C147.2,85.3,146.3,85,145.5,84.4z"/>
		<path id="XMLID_112_" class="st3" d="M158.6,83.5c-0.8-1.1-1.3-2.7-1.3-4.6c0-2.2,0.5-4.5,1.6-6.9c1.1-2.5,2.6-4.5,4.5-6.2
			c1.9-1.7,4-2.5,6.4-2.5c1.4,0,2.4,0.3,3.1,0.9s1.1,1.3,1.4,2.1l-1.6,1c0.2-0.7,0.2-1.2,0-1.5c-0.2-0.3-0.5-0.5-1-0.5
			c-0.8,0-1.7,0.6-2.5,1.7c-0.9,1.2-1.8,3.2-2.7,6c-0.4,1.2-0.7,2.4-1,3.5c-0.3,1.2-0.5,2.2-0.4,3.2c0,1,0.4,1.5,1,1.5
			c0.4,0,0.8-0.2,1.2-0.6c0.5-0.4,0.9-1.1,1.5-2.1c0.5-1,1-2.2,1.5-3.8v1.5c-0.9,3-2,5.3-3.4,6.8c-1.4,1.5-2.9,2.2-4.7,2.2
			C160.7,85.2,159.5,84.6,158.6,83.5z M169.9,84.1c-0.7-0.7-1-1.6-1.1-2.8c-0.1-1.1,0.1-2.3,0.5-3.6l4.3-13l6.5-1.2h1.7l-4.8,14.6
			c-0.3,0.8-0.4,1.5-0.4,2.3c0,0.7,0.2,1.1,0.6,1.1c0.4,0,0.8-0.3,1.4-0.8c0.6-0.5,1.3-1.5,2.1-3l0.5,0.4c-0.9,2.1-2.1,3.8-3.6,5.1
			c-1.5,1.3-3.1,2-4.8,2C171.5,85.2,170.5,84.8,169.9,84.1z"/>
		<path id="XMLID_115_" class="st3" d="M186.1,65.9c-0.1-0.5-0.2-0.8-0.5-1.1s-0.6-0.4-0.9-0.6c-0.1,0-0.2-0.1-0.2-0.1l0.2-0.7h10.1
			l-6.5,21.2h-7.8l5.3-16.9C186,67,186.1,66.4,186.1,65.9z M195.8,84.3c-0.7-0.6-1.1-1.4-1.3-2.5s0.1-2.5,0.6-4.1l2.6-7.5
			c0.4-1.3,0.6-2.2,0.6-2.6c-0.1-0.5-0.3-0.7-0.6-0.7c-0.4,0-1.1,0.5-2.1,1.6c-0.9,1-1.9,2.5-3,4.4c-1,1.9-1.9,4.1-2.7,6.5l1-5.7
			c1.1-2.3,2.3-4.2,3.5-5.8c1.2-1.6,2.5-2.7,3.7-3.5c1.3-0.8,2.5-1.2,3.8-1.2c1.1,0,2,0.3,2.7,0.8c0.7,0.5,1.2,1.3,1.4,2.2
			c0.2,0.9,0.1,2-0.3,3.2l-3,8.7c-0.4,1.1-0.5,2-0.5,2.5s0.3,0.8,0.7,0.8s0.8-0.3,1.4-0.8c0.6-0.5,1.3-1.5,2.1-3l0.5,0.4
			c-0.9,2.1-2.1,3.8-3.6,5.1c-1.5,1.3-3.1,2-4.8,2C197.4,85.2,196.5,84.9,195.8,84.3z"/>
		<path id="XMLID_118_" class="st3" d="M209.9,84.6c-1.4-0.4-2.8-0.9-4.1-1.5l2.1-6.2h0.5c0.4,0.9,0.9,1.8,1.3,2.6
			c0.4,0.8,0.9,1.5,1.3,2c0.6,0.8,1.2,1.4,1.7,1.7c0.6,0.4,1.1,0.6,1.7,0.6c0.5,0,0.9-0.1,1.4-0.4c0.4-0.3,0.6-0.7,0.6-1.2
			c0-0.7-0.4-1.6-1.1-2.6c-0.7-1-1.7-2.2-2.9-3.6l-1.2-1.4c-0.5-0.6-0.9-1.2-1.2-1.7c-0.3-0.5-0.5-1-0.6-1.5c-0.1-0.5-0.2-1-0.2-1.5
			c0-1.4,0.4-2.5,1.1-3.6c0.7-1,1.8-1.8,3.1-2.4c1.3-0.6,2.8-0.9,4.5-0.9c1,0,2,0.1,3.1,0.3c1.1,0.2,2.2,0.5,3.2,1l0.9,0.4l-2.1,6
			h-0.5c-0.2-0.7-0.4-1.3-0.7-1.9c-0.3-0.6-0.6-1.1-0.8-1.6c-0.6-0.9-1.1-1.6-1.7-2.1c-0.6-0.5-1.2-0.7-1.9-0.7
			c-0.5,0-0.9,0.1-1.3,0.4c-0.4,0.3-0.6,0.7-0.6,1.2s0.2,1.1,0.7,1.7c0.4,0.7,1.1,1.5,2,2.5c0.4,0.5,0.9,1,1.3,1.6
			c0.5,0.6,0.8,1.1,1.1,1.5c0.6,0.9,1.1,1.8,1.4,2.6c0.3,0.8,0.4,1.6,0.4,2.6c-0.1,1.2-0.4,2.3-1.1,3.3c-0.7,1-1.6,1.8-2.8,2.3
			c-1.2,0.6-2.7,0.9-4.4,0.9C212.7,85.2,211.3,85,209.9,84.6z"/>
		<path id="XMLID_120_" class="st3" d="M230.4,57.9c-0.1-0.5-0.3-0.9-0.6-1.1c-0.3-0.2-0.6-0.4-1-0.5l0.2-0.7l10.7-1.7l-9.3,30.8
			h-7.7l7.6-24.7C230.4,59.1,230.5,58.4,230.4,57.9z M238,84.3c-0.7-0.6-1.2-1.4-1.4-2.6c-0.2-1.1,0-2.5,0.5-4l2.7-7.5
			c0.4-1.3,0.6-2.2,0.6-2.6c-0.1-0.5-0.2-0.7-0.5-0.7c-0.5,0-1.2,0.5-2.1,1.5c-1,1-2,2.5-3,4.4c-1.1,1.9-2,4.1-2.7,6.6l1-5.7
			c1.7-3.5,3.4-6.1,5.3-7.9s3.8-2.7,5.7-2.7c1.1,0,2,0.3,2.7,0.8c0.7,0.5,1.2,1.3,1.4,2.2s0.1,2-0.3,3.2l-3,8.7
			c-0.4,1.1-0.5,2-0.5,2.5c0.1,0.6,0.3,0.8,0.7,0.8s0.8-0.3,1.4-0.8c0.6-0.5,1.3-1.5,2.1-3l0.5,0.4c-0.9,2.1-2.1,3.8-3.6,5.1
			c-1.5,1.3-3.1,2-4.8,2C239.6,85.2,238.7,84.9,238,84.3z"/>
		<path id="XMLID_123_" class="st3" d="M251.3,84.3c-0.7-0.6-1.1-1.4-1.3-2.5s0-2.5,0.5-4.1l3.3-10.4c0.2-0.7,0.2-1.2,0.1-1.7
			c-0.1-0.4-0.3-0.7-0.5-1s-0.5-0.4-0.9-0.5c-0.1,0-0.1-0.1-0.2-0.1l0.2-0.7h10.3l-4.6,14.6c-0.4,1.1-0.5,2-0.4,2.5s0.3,0.8,0.6,0.8
			c0.4,0,0.8-0.3,1.4-0.8c0.6-0.5,1.3-1.5,2.1-3l0.5,0.4c-0.9,2.1-2.1,3.8-3.6,5.1c-1.5,1.3-3.1,2-4.8,2
			C252.9,85.2,252,84.9,251.3,84.3z M256.8,61c-0.8-0.8-1.2-1.8-1.2-3c0-1.2,0.4-2.1,1.2-3c0.8-0.8,1.8-1.2,3-1.2
			c1.1,0,2.1,0.4,2.9,1.2c0.8,0.8,1.2,1.8,1.2,3c0,1.2-0.4,2.1-1.2,3c-0.8,0.8-1.8,1.2-3,1.2C258.6,62.2,257.6,61.8,256.8,61z"/>
		<path id="XMLID_126_" class="st3" d="M258.3,92.1c0.5-0.2,1-0.7,1.5-1.2c0.5-0.6,0.9-1.3,1.2-2.3l6-18.3c0.4-1.1,0.5-2,0.4-2.5
			c-0.1-0.6-0.3-0.8-0.6-0.8c-0.4,0-0.8,0.3-1.4,0.8s-1.3,1.5-2.1,3l-0.5-0.4c0.9-2.1,2.1-3.8,3.6-5.1c1.5-1.3,3.1-2,4.8-2
			c1.1,0,2,0.3,2.7,0.9c0.7,0.6,1.1,1.4,1.3,2.5c0.2,1.1,0,2.5-0.6,4.1l-6.2,18.9c-0.2,0.6-0.3,1-0.2,1.4c0.1,0.4,0.3,0.7,0.7,1
			c0.4,0.3,0.9,0.5,1.6,0.7l-0.2,0.7h-13.9l0.2-0.7C257.2,92.5,257.8,92.3,258.3,92.1z M271.1,84.3c-0.7-0.6-1.2-1.3-1.4-2.1
			l0.2-0.5c0.1,0.1,0.1,0.1,0.2,0.2c0.4,0.4,0.7,0.8,1,1c0.3,0.2,0.7,0.3,1.1,0.3c0.9,0,1.8-0.6,2.6-1.7c0.8-1.1,1.8-3.2,2.7-6
			c0.4-1.2,0.7-2.4,1-3.5c0.3-1.2,0.5-2.2,0.4-3.2c0-1-0.4-1.5-1-1.5c-0.4,0-0.8,0.2-1.2,0.6c-0.5,0.4-1,1.1-1.5,2.1
			c-0.5,1-1,2.2-1.5,3.8v-1.5c0.9-3,2-5.3,3.4-6.8c1.4-1.5,3-2.2,4.7-2.2c1.7,0,3,0.6,3.8,1.8c0.8,1.2,1.2,2.7,1.1,4.6
			c0,1.8-0.4,3.6-1,5.4c-0.8,2.3-1.9,4.2-3.2,5.7c-1.3,1.5-2.7,2.7-4.2,3.4c-1.5,0.7-2.9,1.1-4.2,1.1
			C272.8,85.2,271.7,84.9,271.1,84.3z"/>
	</g>
</g>
<g id="XMLID_93_">
	<g id="XMLID_91_">
		<defs>
			<path id="XMLID_42_" d="M251.3,84.3c-0.7-0.6-1.1-1.4-1.3-2.5s0-2.5,0.5-4.1l3.3-10.4c0.2-0.7,0.2-1.2,0.1-1.7
				c-0.1-0.4-0.3-0.7-0.5-1s-0.5-0.4-0.9-0.5c-0.1,0-0.1-0.1-0.2-0.1l0.2-0.7h10.3l-4.6,14.6c-0.4,1.1-0.5,2-0.4,2.5
				s0.3,0.8,0.6,0.8c0.4,0,0.8-0.3,1.4-0.8c0.6-0.5,1.3-1.5,2.1-3l0.5,0.4c-0.9,2.1-2.1,3.8-3.6,5.1c-1.5,1.3-3.1,2-4.8,2
				C252.9,85.2,252,84.9,251.3,84.3z M256.8,61c-0.8-0.8-1.2-1.8-1.2-3c0-1.2,0.4-2.1,1.2-3c0.8-0.8,1.8-1.2,3-1.2
				c1.1,0,2.1,0.4,2.9,1.2c0.8,0.8,1.2,1.8,1.2,3c0,1.2-0.4,2.1-1.2,3c-0.8,0.8-1.8,1.2-3,1.2C258.6,62.2,257.6,61.8,256.8,61z"/>
		</defs>
		<clipPath id="XMLID_8_">
			<use xlink:href="#XMLID_42_"  style="overflow:visible;"/>
		</clipPath>
		<path id="XMLID_57_" class="st4" d="M242.4,62c-2.2-2.2-3.4-5-3.4-8.5c0-4.7,1.7-8.6,5-11.8c3.3-3.2,7.5-4.8,12.6-4.8
			c3.9,0,7,1.1,9.3,3.3c2.3,2.2,3.4,5.1,3.4,8.6c0,4.7-1.6,8.6-4.9,11.7c-3.3,3.1-7.5,4.7-12.7,4.7C247.7,65.3,244.6,64.2,242.4,62z
			 M259,55.7c1.4-1.7,2.2-3.6,2.2-5.8c0-1.6-0.5-3.1-1.4-4.2s-2.4-1.7-4.3-1.7c-2.5,0-4.5,0.9-6,2.6c-1.5,1.7-2.2,3.7-2.2,5.7
			c0,1.6,0.5,3,1.4,4.2c1,1.1,2.4,1.7,4.3,1.7C255.5,58.2,257.5,57.4,259,55.7z"/>
	</g>
	<g id="XMLID_92_">
		<defs>
			<path id="XMLID_45_" d="M258.3,92.1c0.5-0.2,1-0.7,1.5-1.2c0.5-0.6,0.9-1.3,1.2-2.3l6-18.3c0.4-1.1,0.5-2,0.4-2.5
				c-0.1-0.6-0.3-0.8-0.6-0.8c-0.4,0-0.8,0.3-1.4,0.8s-1.3,1.5-2.1,3l-0.5-0.4c0.9-2.1,2.1-3.8,3.6-5.1c1.5-1.3,3.1-2,4.8-2
				c1.1,0,2,0.3,2.7,0.9c0.7,0.6,1.1,1.4,1.3,2.5c0.2,1.1,0,2.5-0.6,4.1l-6.2,18.9c-0.2,0.6-0.3,1-0.2,1.4c0.1,0.4,0.3,0.7,0.7,1
				c0.4,0.3,0.9,0.5,1.6,0.7l-0.2,0.7h-13.9l0.2-0.7C257.2,92.5,257.8,92.3,258.3,92.1z M271.1,84.3c-0.7-0.6-1.2-1.3-1.4-2.1
				l0.2-0.5c0.1,0.1,0.1,0.1,0.2,0.2c0.4,0.4,0.7,0.8,1,1c0.3,0.2,0.7,0.3,1.1,0.3c0.9,0,1.8-0.6,2.6-1.7c0.8-1.1,1.8-3.2,2.7-6
				c0.4-1.2,0.7-2.4,1-3.5c0.3-1.2,0.5-2.2,0.4-3.2c0-1-0.4-1.5-1-1.5c-0.4,0-0.8,0.2-1.2,0.6c-0.5,0.4-1,1.1-1.5,2.1
				c-0.5,1-1,2.2-1.5,3.8v-1.5c0.9-3,2-5.3,3.4-6.8c1.4-1.5,3-2.2,4.7-2.2c1.7,0,3,0.6,3.8,1.8c0.8,1.2,1.2,2.7,1.1,4.6
				c0,1.8-0.4,3.6-1,5.4c-0.8,2.3-1.9,4.2-3.2,5.7c-1.3,1.5-2.7,2.7-4.2,3.4c-1.5,0.7-2.9,1.1-4.2,1.1
				C272.8,85.2,271.7,84.9,271.1,84.3z"/>
		</defs>
		<clipPath id="XMLID_9_">
			<use xlink:href="#XMLID_45_"  style="overflow:visible;"/>
		</clipPath>
		<path id="XMLID_60_" class="st5" d="M295.5,33.3c-1.1-0.7-2.3-1.1-3.8-1.1c-2.6,0-4.1,1.4-4.6,4.2l-0.3,1.6h7.5l-1.2,6.7h-7.5
			l-3.5,20h-7.9l3.5-20h-4.8l1.2-6.7h4.8l0.3-1.6c1.2-7.3,5.6-10.9,13-10.9c2.3,0,4.5,0.6,6.4,1.9L295.5,33.3z"/>
	</g>
	<g id="XMLID_85_">
		<defs>
			<path id="XMLID_78_" d="M62.9,33.1h-4.4v-7.5h22.3c19.6,0,19.7,25.9,0,26.1h-9.8v5.6h4.4v7.4H59.1v-7.4h3.9V33.1z M80.9,44.4
				c8.6,0,8.8-11.3,0-11.3h-9.8v11.3H80.9z"/>
		</defs>
		<clipPath id="XMLID_10_">
			<use xlink:href="#XMLID_78_"  style="overflow:visible;"/>
		</clipPath>
		<path id="XMLID_19_" class="st6" d="M68,90c1.1-1.2,2-2.6,2.7-4.1s1.4-3.5,2.2-6l5-16.2c1-3.2,2.5-5.5,4.5-7.1
			c2-1.6,4.3-2.3,6.8-2.3c1.1,0,2.1,0.1,3.1,0.4c1,0.2,2,0.5,2.9,0.9l-2.7,6.3h-0.5c-0.5-2-1-3.5-1.6-4.6c-0.6-1-1.1-1.6-1.5-1.6
			c-0.3,0-0.5,0.2-0.8,0.6c-0.2,0.4-0.6,1.2-0.9,2.3c-0.4,1.1-0.8,2.4-1.2,3.9C86,62.8,86,63,85.9,63.2l-5.1,16.7
			c-1,3.2-2.4,5.8-4.3,7.8c-1.9,2-3.9,3.6-6.2,4.5c-2.3,1-4.5,1.5-6.8,1.6v-0.3C65.4,92.3,66.9,91.2,68,90z M75.2,63.5H90l-0.5,1.4
			H74.7L75.2,63.5z"/>
		<g id="XMLID_81_" class="st6">
			<defs>
				<path id="XMLID_63_" d="M62.9,33.1h-4.4v-7.5h22.3c19.6,0,19.7,25.9,0,26.1h-9.8v5.6h4.4v7.4H59.1v-7.4h3.9V33.1z M80.9,44.4
					c8.6,0,8.8-11.3,0-11.3h-9.8v11.3H80.9z"/>
			</defs>
			<clipPath id="XMLID_157_">
				<use xlink:href="#XMLID_63_"  style="overflow:visible;"/>
			</clipPath>
			<path id="XMLID_16_" class="st7" d="M49.6,83.5c-0.8-1.1-1.3-2.7-1.3-4.6c0-2.2,0.5-4.5,1.6-6.9c1.1-2.5,2.6-4.5,4.5-6.2
				c1.9-1.7,4-2.5,6.4-2.5c1.4,0,2.4,0.3,3.1,0.9c0.7,0.6,1.1,1.3,1.4,2.1l-1.6,1c0.2-0.7,0.2-1.2,0-1.5c-0.2-0.3-0.5-0.5-1-0.5
				c-0.8,0-1.7,0.6-2.5,1.7c-0.9,1.2-1.8,3.2-2.7,6c-0.4,1.2-0.7,2.4-1,3.5c-0.3,1.2-0.5,2.2-0.4,3.2c0,1,0.4,1.5,1,1.5
				c0.4,0,0.8-0.2,1.2-0.6c0.5-0.4,0.9-1.1,1.5-2.1c0.5-1,1-2.2,1.5-3.8v1.5c-0.9,3-2,5.3-3.4,6.8c-1.4,1.5-2.9,2.2-4.7,2.2
				C51.6,85.2,50.4,84.6,49.6,83.5z M60.8,84.1c-0.7-0.7-1-1.6-1.1-2.8s0.1-2.3,0.5-3.6l4.3-13l6.5-1.2h1.7l-4.8,14.6
				c-0.2,0.8-0.4,1.5-0.4,2.3c0,0.7,0.2,1.1,0.6,1.1c0.4,0,0.8-0.3,1.4-0.8c0.6-0.5,1.3-1.5,2.1-3l0.5,0.4c-0.9,2.1-2.1,3.8-3.6,5.1
				c-1.5,1.3-3.1,2-4.8,2C62.4,85.2,61.5,84.8,60.8,84.1z"/>
		</g>
	</g>
	<g id="XMLID_90_">
		<defs>
			<path id="XMLID_82_" d="M62.9,33.1h-4.4v-7.5h22.3c19.6,0,19.7,25.9,0,26.1h-9.8v5.6h4.4v7.4H59.1v-7.4h3.9V33.1z M80.9,44.4
				c8.6,0,8.8-11.3,0-11.3h-9.8v11.3H80.9z"/>
		</defs>
		<clipPath id="XMLID_158_">
			<use xlink:href="#XMLID_82_"  style="overflow:visible;"/>
		</clipPath>
		<path id="XMLID_53_" class="st8" d="M51.9,46.4c1.9-5.9,6.6-9.1,10.9-9.1c3.6,0,5.6,2.3,4.7,5c-1,3.3-5.5,5.6-12.2,5.9
			c-0.6,4.2,0.8,7.1,3.8,7.2c2.2,0.1,4.5-1.4,6.4-4.1l0.5,0.2c-2.2,3.9-5.4,6.1-8.7,6C52.5,57.4,49.9,52.5,51.9,46.4z M64.1,41.8
			c0.6-1.7,0.4-3.5-1.5-3.5c-2.3,0-5.1,2.7-6.5,6.9c-0.2,0.7-0.4,1.4-0.5,2.1C60.8,47,63.3,44.2,64.1,41.8z"/>
	</g>
	<g id="XMLID_77_">
		<defs>
			<path id="XMLID_48_" d="M112.3,36.3c9.4,0,14.7,6.1,14.7,14.6c0,7.9-5.5,14.5-14.7,14.5s-14.7-6.1-14.7-14.5
				C97.7,42.3,103.3,36.3,112.3,36.3z M112.5,43.2c-4.7,0-7,3.2-7,7.6c0,3.9,2.2,7.2,6.9,7.2s6.9-3.3,7-7.2
				C119.4,46.5,116.7,43.2,112.5,43.2z"/>
		</defs>
		<clipPath id="XMLID_159_">
			<use xlink:href="#XMLID_48_"  style="overflow:visible;"/>
		</clipPath>
		<path id="XMLID_22_" class="st9" d="M90.2,84.3c-0.7-0.6-1.2-1.4-1.4-2.5c-0.2-1.1,0-2.5,0.4-4.1l3.8-12.8h-2.9l0.1-0.6
			c2.1-0.7,4.2-1.7,6.4-3c2.1-1.3,4-2.8,5.6-4.5h0.9l-6.4,21.4c-0.4,1.1-0.5,2-0.4,2.5c0.1,0.5,0.4,0.8,0.8,0.8c0.5,0,1.1-0.3,1.9-1
			c0.7-0.6,1.5-1.6,2.2-2.8l0.5,0.4c-1.1,2.1-2.4,3.8-3.9,5.1c-1.6,1.3-3.2,2-4.9,2C91.8,85.2,90.9,84.9,90.2,84.3z M90.3,64.3
			l4.2-0.8h11.4l-0.4,1.4H90.2L90.3,64.3z"/>
		<g id="XMLID_76_" class="st9">
			<defs>
				<path id="XMLID_66_" d="M112.3,36.3c9.4,0,14.7,6.1,14.7,14.6c0,7.9-5.5,14.5-14.7,14.5s-14.7-6.1-14.7-14.5
					C97.7,42.3,103.3,36.3,112.3,36.3z M112.5,43.2c-4.7,0-7,3.2-7,7.6c0,3.9,2.2,7.2,6.9,7.2s6.9-3.3,7-7.2
					C119.4,46.5,116.7,43.2,112.5,43.2z"/>
			</defs>
			<clipPath id="XMLID_160_">
				<use xlink:href="#XMLID_66_"  style="overflow:visible;"/>
			</clipPath>
			<path id="XMLID_25_" class="st10" d="M105.5,84.6c-1.4-0.4-2.8-0.9-4.1-1.5l2.1-6.2h0.5c0.4,0.9,0.9,1.8,1.3,2.6
				c0.4,0.8,0.9,1.5,1.3,2c0.6,0.8,1.2,1.4,1.7,1.7c0.6,0.4,1.1,0.6,1.7,0.6c0.5,0,0.9-0.1,1.4-0.4c0.4-0.3,0.6-0.7,0.6-1.2
				c0-0.7-0.4-1.6-1.1-2.6c-0.7-1-1.7-2.2-2.9-3.6l-1.2-1.4c-0.5-0.6-0.9-1.2-1.2-1.7s-0.5-1-0.6-1.5c-0.1-0.5-0.2-1-0.2-1.5
				c0-1.4,0.4-2.5,1.1-3.6c0.7-1,1.8-1.8,3.1-2.4c1.3-0.6,2.8-0.9,4.5-0.9c1,0,2,0.1,3.1,0.3c1.1,0.2,2.2,0.5,3.2,1l0.9,0.4l-2.1,6
				h-0.5c-0.2-0.7-0.4-1.3-0.7-1.9c-0.3-0.6-0.6-1.1-0.8-1.6c-0.6-0.9-1.1-1.6-1.7-2.1c-0.6-0.5-1.2-0.7-1.9-0.7
				c-0.5,0-0.9,0.1-1.3,0.4c-0.4,0.3-0.6,0.7-0.6,1.2s0.2,1.1,0.7,1.7c0.4,0.7,1.1,1.5,2,2.5c0.4,0.5,0.9,1,1.3,1.6
				c0.5,0.6,0.8,1.1,1.1,1.5c0.6,0.9,1.1,1.8,1.4,2.6c0.3,0.8,0.4,1.6,0.4,2.6c-0.1,1.2-0.4,2.3-1.1,3.3c-0.7,1-1.6,1.8-2.8,2.3
				c-1.2,0.6-2.7,0.9-4.4,0.9C108.3,85.2,106.9,85,105.5,84.6z"/>
		</g>
	</g>
	<g id="XMLID_29_">
		<defs>
			<path id="XMLID_69_" d="M132.9,43.6h-4.4V37h16.2v6.6h-3.3l4,13.6L151,37h6.8l5.6,20.3l3.7-13.6h-3V37h15.7v6.6h-4l-7.4,21.3
				h-9.3l-2-5.5l-2.7-10.1l-2.7,10.2l-1.9,5.4h-9.4L132.9,43.6z"/>
		</defs>
		<clipPath id="XMLID_161_">
			<use xlink:href="#XMLID_69_"  style="overflow:visible;"/>
		</clipPath>
		<path id="XMLID_5_" class="st11" d="M178.5,80.7c-0.6,0.5-1,0.8-1.4,0.8c-0.5,0-0.7-0.4-0.6-1.1c0-0.7,0.2-1.2,0.4-2l4.8-14.4
			h-1.7l-6.5,1l0-0.1c-0.2-0.2-0.4-0.5-0.6-0.7c-0.7-0.6-1.7-1-3.1-1c-2.3,0-4.4,0.8-6.4,2.5c-1.9,1.7-3.4,3.7-4.5,6.2
			c-1.1,2.5-1.6,4.8-1.6,6.9c0,1.9,0.4,3.5,1.3,4.6c0.8,1.1,2,1.7,3.6,1.7c1.7,0,3.3-0.7,4.7-2.2c0.7-0.8,1.3-1.7,1.9-2.9
			c0,0.4-0.1,0.9,0,1.3c0.1,1.1,0.5,2.1,1.1,2.8c0.7,0.7,1.6,1.1,2.8,1.1c1.7,0,3.3-0.7,4.8-2c1.5-1.3,2.7-3,3.6-5.1l-0.5-0.4
			C179.8,79.2,179.1,80.2,178.5,80.7z M169.7,76.3c-0.3,0.8-0.6,1.6-1,2.2c-0.5,1-1,1.6-1.5,2.1c-0.5,0.4-0.9,0.6-1.2,0.6
			c-0.7,0-1-0.5-1-1.5c0-1,0.1-2.1,0.4-3.2c0.3-1.2,0.7-2.3,1-3.5c0.9-2.9,1.8-4.9,2.7-6c0.9-1.2,1.7-1.7,2.5-1.7
			c0.5,0,0.8,0.2,1,0.5c0.2,0.3,0.2,0.8,0,1.4L169.7,76.3z"/>
		<path id="XMLID_2_" class="st11" d="M156.2,77.8c-0.9,1.4-1.6,2.4-2.1,3c-0.6,0.5-1,0.8-1.4,0.8c-0.4,0-0.6-0.3-0.7-0.7
			c-0.1-0.5,0.1-1.4,0.5-2.6l3.2-8.7c0.4-1.2,0.5-2.2,0.3-3.2s-0.8-1.7-1.6-2.2c-0.8-0.5-1.8-0.8-2.9-0.8c-1.2,0-2.4,0.3-3.6,1
			c-1.1,0.7-2.3,1.8-3.4,3.4c-0.4,0.5-0.8,1.1-1.2,1.8c0.3-1.1,0.4-2.1,0.1-3c-0.3-1-0.8-1.8-1.5-2.4c-0.8-0.6-1.7-0.9-2.7-0.9
			c-1.9,0-3.7,0.8-5.5,2.5c-1.1,1.1-2.3,2.8-3.4,4.6l2-6.3h-10.1l-0.2,0.4c0.4,0.1,0.7,0.2,1,0.4c0.3,0.2,0.5,0.5,0.6,0.9
			c0.1,0.5,0.1,1.1-0.1,1.9l-0.1,0.4l-5.3,17h7.7l1.7-5.8c0.7-2.3,1.6-4.5,2.6-6.3c1-1.9,2-3.4,2.9-4.4c0.9-1,1.6-1.6,2-1.6
			c0.4,0,0.6,0.2,0.7,0.7c0.1,0.5,0,1.5-0.5,2.8L130.5,85h7.8l2.4-7.4c0.6-1.7,1.2-3.2,2-4.6c1-1.9,1.9-3.4,2.8-4.4
			c0.9-1,1.5-1.6,2-1.6c0.3,0,0.5,0.2,0.6,0.7c0.1,0.5-0.1,1.4-0.6,2.6l-3,8.2c-0.5,1.3-0.6,2.5-0.4,3.5c0.2,1,0.7,1.8,1.4,2.4
			s1.7,0.9,2.8,0.9c1.7,0,3.3-0.7,4.8-2s2.7-3,3.6-5.1L156.2,77.8z"/>
	</g>
	<g id="XMLID_28_">
		<defs>
			<path id="XMLID_71_" d="M208.9,61.1c-3,3-8,4.4-12.1,4.4c-10.8,0-15.3-6.6-15.3-14.8c0-8.6,5.8-14.4,14.9-14.4
				c9.2,0,15,4.9,13.4,17.4h-20.4c0.4,2.8,2.9,4.9,7.5,4.9c2.2,0,5.4-0.8,7.3-2.4L208.9,61.1z M202.7,47.6c0.1-3.4-2.7-4.8-6.2-4.8
				c-3.4,0-6.4,1.6-7.1,4.8H202.7z"/>
		</defs>
		<clipPath id="XMLID_162_">
			<use xlink:href="#XMLID_71_"  style="overflow:visible;"/>
		</clipPath>
		<path id="XMLID_34_" class="st12" d="M186.1,65.9c-0.1-0.5-0.2-0.8-0.5-1.1s-0.6-0.4-0.9-0.6c-0.1,0-0.2-0.1-0.2-0.1l0.2-0.7h10.1
			l-6.5,21.2h-7.8l5.3-16.9C186,67,186.1,66.4,186.1,65.9z M195.8,84.3c-0.7-0.6-1.1-1.4-1.3-2.5s0.1-2.5,0.6-4.1l2.6-7.5
			c0.4-1.3,0.6-2.2,0.6-2.6c-0.1-0.5-0.3-0.7-0.6-0.7c-0.4,0-1.1,0.5-2.1,1.6c-0.9,1-1.9,2.5-3,4.4c-1,1.9-1.9,4.1-2.7,6.5l1-5.7
			c1.1-2.3,2.3-4.2,3.5-5.8c1.2-1.6,2.5-2.7,3.7-3.5c1.3-0.8,2.5-1.2,3.8-1.2c1.1,0,2,0.3,2.7,0.8c0.7,0.5,1.2,1.3,1.4,2.2
			c0.2,0.9,0.1,2-0.3,3.2l-3,8.7c-0.4,1.1-0.5,2-0.5,2.5s0.3,0.8,0.7,0.8s0.8-0.3,1.4-0.8c0.6-0.5,1.3-1.5,2.1-3l0.5,0.4
			c-0.9,2.1-2.1,3.8-3.6,5.1c-1.5,1.3-3.1,2-4.8,2C197.4,85.2,196.5,84.9,195.8,84.3z"/>
	</g>
	<g id="XMLID_33_">
		<defs>
			<path id="XMLID_30_" d="M217.9,43.7h-3.6v-6.8h10.2l0.7,2.6c2.1-2.4,4.8-3.3,7.8-3.3c2.5,0,5.4,0.8,7.5,2.7l-3.6,6.6
				c-1.4-1.2-3.3-1.7-5.2-1.7c-3.1,0-6.1,1.7-6.1,6.6V58h3.9v6.7h-15.8V58h4.2V43.7z"/>
		</defs>
		<clipPath id="XMLID_163_">
			<use xlink:href="#XMLID_30_"  style="overflow:visible;"/>
		</clipPath>
		<path id="XMLID_39_" class="st13" d="M230.4,57.9c-0.1-0.5-0.3-0.9-0.6-1.1c-0.3-0.2-0.6-0.4-1-0.5l0.2-0.7l10.7-1.7l-9.3,30.8
			h-7.7l7.6-24.7C230.4,59.1,230.5,58.4,230.4,57.9z M238,84.3c-0.7-0.6-1.2-1.4-1.4-2.6c-0.2-1.1,0-2.5,0.5-4l2.7-7.5
			c0.4-1.3,0.6-2.2,0.6-2.6c-0.1-0.5-0.2-0.7-0.5-0.7c-0.5,0-1.2,0.5-2.1,1.5c-1,1-2,2.5-3,4.4c-1.1,1.9-2,4.1-2.7,6.6l1-5.7
			c1.7-3.5,3.4-6.1,5.3-7.9s3.8-2.7,5.7-2.7c1.1,0,2,0.3,2.7,0.8c0.7,0.5,1.2,1.3,1.4,2.2s0.1,2-0.3,3.2l-3,8.7
			c-0.4,1.1-0.5,2-0.5,2.5c0.1,0.6,0.3,0.8,0.7,0.8s0.8-0.3,1.4-0.8c0.6-0.5,1.3-1.5,2.1-3l0.5,0.4c-0.9,2.1-2.1,3.8-3.6,5.1
			c-1.5,1.3-3.1,2-4.8,2C239.6,85.2,238.7,84.9,238,84.3z"/>
		<g id="XMLID_32_" class="st13">
			<defs>
				<path id="XMLID_74_" d="M217.9,43.7h-3.6v-6.8h10.2l0.7,2.6c2.1-2.4,4.8-3.3,7.8-3.3c2.5,0,5.4,0.8,7.5,2.7l-3.6,6.6
					c-1.4-1.2-3.3-1.7-5.2-1.7c-3.1,0-6.1,1.7-6.1,6.6V58h3.9v6.7h-15.8V58h4.2V43.7z"/>
			</defs>
			<clipPath id="XMLID_164_">
				<use xlink:href="#XMLID_74_"  style="overflow:visible;"/>
			</clipPath>
			<path id="XMLID_37_" class="st14" d="M209.9,84.6c-1.4-0.4-2.8-0.9-4.1-1.5l2.1-6.2h0.5c0.4,0.9,0.9,1.8,1.3,2.6
				c0.4,0.8,0.9,1.5,1.3,2c0.6,0.8,1.2,1.4,1.7,1.7c0.6,0.4,1.1,0.6,1.7,0.6c0.5,0,0.9-0.1,1.4-0.4c0.4-0.3,0.6-0.7,0.6-1.2
				c0-0.7-0.4-1.6-1.1-2.6c-0.7-1-1.7-2.2-2.9-3.6l-1.2-1.4c-0.5-0.6-0.9-1.2-1.2-1.7c-0.3-0.5-0.5-1-0.6-1.5
				c-0.1-0.5-0.2-1-0.2-1.5c0-1.4,0.4-2.5,1.1-3.6c0.7-1,1.8-1.8,3.1-2.4c1.3-0.6,2.8-0.9,4.5-0.9c1,0,2,0.1,3.1,0.3
				c1.1,0.2,2.2,0.5,3.2,1l0.9,0.4l-2.1,6h-0.5c-0.2-0.7-0.4-1.3-0.7-1.9c-0.3-0.6-0.6-1.1-0.8-1.6c-0.6-0.9-1.1-1.6-1.7-2.1
				c-0.6-0.5-1.2-0.7-1.9-0.7c-0.5,0-0.9,0.1-1.3,0.4c-0.4,0.3-0.6,0.7-0.6,1.2s0.2,1.1,0.7,1.7c0.4,0.7,1.1,1.5,2,2.5
				c0.4,0.5,0.9,1,1.3,1.6c0.5,0.6,0.8,1.1,1.1,1.5c0.6,0.9,1.1,1.8,1.4,2.6c0.3,0.8,0.4,1.6,0.4,2.6c-0.1,1.2-0.4,2.3-1.1,3.3
				c-0.7,1-1.6,1.8-2.8,2.3c-1.2,0.6-2.7,0.9-4.4,0.9C212.7,85.2,211.3,85,209.9,84.6z"/>
		</g>
	</g>
	<g id="XMLID_88_">
		<defs>
			<path id="XMLID_49_" d="M13.1,52.9l7-22.9h-2.3c-4.7,0-6.8,2.7-8.3,5.9l-0.6-0.1l2.2-5.9l0.4-1.1h22.1L33.3,30l-1.4,5.9l-0.6,0.1
				c0.5-3.2,0-6-4.7-5.9h-2.3l-7,22.9c-0.9,2.8,0.4,3.3,2,3.5L19.1,57H8.7l0.2-0.6C10.4,56.3,12.2,55.7,13.1,52.9z"/>
		</defs>
		<clipPath id="XMLID_165_">
			<use xlink:href="#XMLID_49_"  style="overflow:visible;"/>
		</clipPath>
		<path id="XMLID_11_" class="st15" d="M10.1,83c-1.7-1.5-2.8-3.5-3.2-6.1c-0.5-2.6-0.2-5.5,0.8-8.6c0.9-2.9,2.2-5.4,3.9-7.5
			c1.7-2.1,3.8-3.6,6.1-4.7c2.4-1.1,5-1.6,7.9-1.6c1.3,0,2.6,0.1,3.9,0.4c1.3,0.2,2.9,0.7,4.6,1.2l-2.8,9.1h-0.6
			c-0.1-2.6-0.4-4.8-1.1-6.6c-0.7-1.8-2-2.7-3.9-2.7c-1.4,0-2.6,0.5-3.7,1.5c-1.1,1-2.1,2.3-3,4c-0.9,1.7-1.7,3.7-2.3,5.9
			c-0.9,3-1.3,5.6-1.2,7.6c0.1,2,0.6,3.5,1.4,4.5c0.9,1,2,1.5,3.3,1.6c1.5,0.1,3.1-0.4,4.9-1.4c1.7-1,3.2-2.1,4.4-3.3l0.3,0.6
			c-1.1,1.6-2.3,2.9-3.6,4.2c-1.3,1.2-2.7,2.2-4.3,3c-1.6,0.8-3.4,1.2-5.3,1.2C13.9,85.2,11.8,84.5,10.1,83z"/>
	</g>
	<g id="XMLID_89_">
		<defs>
			<path id="XMLID_51_" d="M34.3,29.9l0.1-0.6l7.2-1.3L36,46.3c3.9-7.6,7.6-9,9.7-9c2.6,0,4.1,2,3.1,5.1l-3.1,9.3
				c-0.9,2.7-0.6,3.9,0.2,3.9c0.9,0,2.5-1.3,4.1-3.9l0.4,0.2c-1.4,3-4,5.6-6.5,5.6c-2,0-3.4-1.8-2.2-5.4l3.1-9.3
				c0.9-2.6,0.1-3.4-0.8-3.4c-1.8,0-6.1,3.2-9.9,13.4L32.7,57h-3.9l7.4-24.2C37.1,30.1,35.9,29.8,34.3,29.9z"/>
		</defs>
		<clipPath id="XMLID_166_">
			<use xlink:href="#XMLID_51_"  style="overflow:visible;"/>
		</clipPath>
		<path id="XMLID_86_" class="st16" d="M10.1,83c-1.7-1.5-2.8-3.5-3.2-6.1c-0.5-2.6-0.2-5.5,0.8-8.6c0.9-2.9,2.2-5.4,3.9-7.5
			c1.7-2.1,3.8-3.6,6.1-4.7c2.4-1.1,5-1.6,7.9-1.6c1.3,0,2.6,0.1,3.9,0.4c1.3,0.2,2.9,0.7,4.6,1.2l-2.8,9.1h-0.6
			c-0.1-2.6-0.4-4.8-1.1-6.6c-0.7-1.8-2-2.7-3.9-2.7c-1.4,0-2.6,0.5-3.7,1.5c-1.1,1-2.1,2.3-3,4c-0.9,1.7-1.7,3.7-2.3,5.9
			c-0.9,3-1.3,5.6-1.2,7.6c0.1,2,0.6,3.5,1.4,4.5c0.9,1,2,1.5,3.3,1.6c1.5,0.1,3.1-0.4,4.9-1.4c1.7-1,3.2-2.1,4.4-3.3l0.3,0.6
			c-1.1,1.6-2.3,2.9-3.6,4.2c-1.3,1.2-2.7,2.2-4.3,3c-1.6,0.8-3.4,1.2-5.3,1.2C13.9,85.2,11.8,84.5,10.1,83z"/>
	</g>
</g>
</svg>
