<?xml version="1.0" encoding="utf-8"?>
<!-- Generator: Adobe Illustrator 19.0.0, SVG Export Plug-In . SVG Version: 6.00 Build 0)  -->
<svg version="1.1" id="Calque_1" xmlns="http://www.w3.org/2000/svg" xmlns:xlink="http://www.w3.org/1999/xlink" x="0px" y="0px"
	 viewBox="0 0 300 100" style="enable-background:new 0 0 300 100;" xml:space="preserve">
<style type="text/css">
	.st0{fill:#F2DBC2;}
</style>
<g id="XMLID_1_">
	<path id="XMLID_2_" class="st0" d="M66.8,67.4c0,0.9,0-8.2,0-8.9c0-0.1,0-0.1,0,0h6.1l0.3,5.7c2.8,1.9,7.2,2.9,10.7,2.9
		c5.6,0,12.1-1.5,12.1-7.5c0-5.8-8.8-6.9-12.4-7.3c-8.8-1.2-17-3.5-17-13.2c-0.1-9.6,9.5-12.6,17.1-12.7c6,0,11,1,16.2,5.3
		c0,3.4,0,5.7,0,9.1h-6l-0.3-6.1c-2.9-1.6-6.7-2.2-9.6-2.2c-5.1,0-10.7,2-10.7,6.9c0,4.4,4.8,5.8,11,6.9c9.4,1.3,18.6,3.4,18.6,13.6
		c-0.1,10.8-10.4,13.7-19.1,13.7C77.1,73.4,72,71.9,66.8,67.4z"/>
	<path id="XMLID_12_" class="st0" d="M138.8,67.7c-3.4,3.7-8.8,5.6-13.7,5.6c-10.4,0-17.1-6.7-17.1-16.8c0-9.5,7-16.5,16.8-16.5
		c10.1,0,17.1,6.4,15.9,19.3h-26.3c0.6,4.8,4.8,8.2,10.8,8.2c3.4,0,7.3-1.2,9.4-3.5L138.8,67.7z M134.6,53.7
		c-0.4-5.3-4.2-8.2-9.6-8.2c-5,0-9.4,2.9-10.4,8.2H134.6z"/>
	<path id="XMLID_15_" class="st0" d="M184.5,66.8v5.7h-10.7c0,0.9-0.7-5.3-0.7-4.4c-2.5,3.9-7,5.1-11,5.3c-9.4,0-16.5-6.3-16.5-16.8
		c0-10.4,7.3-16.5,16.7-16.5c4.5,0,8.8,1.9,11.1,5.6v-5h11v5.8h-4.8V67h5V66.8z M152,56.7c0,6.4,4.5,10.8,10.5,10.8
		c6.9,0,10.8-4.8,11.1-10.4c0.3-6-3.7-11.1-11.1-11.1C156.6,46.2,152,50.4,152,56.7z"/>
	<path id="XMLID_18_" class="st0" d="M194.6,46.2h-5v-5.7H200l0.7,3.4c2.2-3.1,6-3.9,9.5-3.9c3.2,0,5.8,1,8,2.6l-2.9,5.6
		c-1.8-1.2-3.4-1.9-5.6-1.9c-6,0.1-8.8,2.8-8.8,8.9V67h5v5.6h-16.5V67h5.3V46.2H194.6z"/>
	<path id="XMLID_20_" class="st0" d="M249.9,68.1c-3.4,3.5-7.7,5-12.3,5c-8.8,0-17.2-5.8-17.2-16.5c0-12,8.2-16.5,17-16.5
		c4.1,0,7.9,1,11.5,2.8l-0.4,8.8h-5.7v-5.1c-1.5-0.6-3.9-0.7-5.3-0.7c-6.6,0.1-10.7,5-10.7,11c0,6.7,5.7,10.4,11,10.4
		c2.8,0,6-0.9,8-3.2L249.9,68.1z"/>
	<path id="XMLID_22_" class="st0" d="M258.6,32.8h-5v-5.6h11.3v18c2.8-3.5,6.7-5,10.5-5c9.1,0,13.6,6.3,13.6,15.2V67h5v5.6h-15.2V67
		h3.8V55.6c0-5.8-3.2-9.4-8.3-9.4c-5.7,0-9.4,4.4-9.4,9.8v11h5v5.6h-16.4V67h5.1V32.8z"/>
</g>
<path id="XMLID_4_" class="st0" d="M12.3,23.8c-10.6,8.8-12,24.7-3.2,35.4c8.5,10,23,11.8,33.5,4.6l2.1,2.5c-1.1,1.5-1.3,3.5,0.1,5
	L58.6,88c1.4,1.6,3.8,1.8,5.3,0.4l2.8-2.2c1.5-1.4,1.9-3.8,0.4-5.3l-14-16.7c-1.2-1.6-3.4-1.8-4.9-0.9l-2.1-2.5
	c9.1-9.1,9.8-23.7,1.4-33.7C38.7,16.4,23,14.9,12.3,23.8z M11.7,50.9c-4.3-9.2-0.3-20.2,9-24.5c9.2-4.3,20.2-0.3,24.5,9
	s0.3,20.2-9,24.5C26.9,64.1,16,60.1,11.7,50.9z"/>
</svg>
