<?xml version="1.0" encoding="utf-8"?>
<!-- Generator: Adobe Illustrator 19.0.0, SVG Export Plug-In . SVG Version: 6.00 Build 0)  -->
<svg version="1.1" xmlns="http://www.w3.org/2000/svg" xmlns:xlink="http://www.w3.org/1999/xlink" x="0px" y="0px"
	 viewBox="0 0 300 114" style="enable-background:new 0 0 300 114;" xml:space="preserve">
<style type="text/css">
	.st0{fill:#E90052;}
	.st1{fill:#3AF9BA;}
	.st2{clip-path:url(#XMLID_105_);}
	.st3{clip-path:url(#XMLID_106_);}
	.st4{clip-path:url(#XMLID_108_);}
	.st5{clip-path:url(#XMLID_109_);}
	.st6{clip-path:url(#XMLID_110_);}
	.st7{clip-path:url(#XMLID_111_);}
	.st8{clip-path:url(#XMLID_112_);}
	.st9{clip-path:url(#XMLID_113_);}
	.st10{clip-path:url(#XMLID_114_);}
	.st11{clip-path:url(#XMLID_115_);}
	.st12{clip-path:url(#XMLID_116_);}
</style>
<g id="Calque_1_-_copie">
	<g id="XMLID_75_">
		<path id="XMLID_87_" class="st0" d="M74.6,61.1l0.1-8.9h7.4l0.4,4.7c1.6,0.7,4.4,1.5,7.5,1.5c4.2,0,8.5-1,8.5-5.1
			c0-4.3-6.1-4.3-8.8-4.8c-7.9-0.9-14.8-2.8-14.6-11.9c0.1-7.8,7.5-11.6,16-11.6c7.1,0,10.9,2.1,13.5,4.5c-0.1,3.3-0.2,5.1-0.2,8.3
			h-7.2l-0.4-4.6c-1.6-0.7-3.3-1.1-6.1-1.1c-3.9,0-7.3,1.2-7.3,4.5c-0.1,2.8,2.5,3.9,7.1,4.5c8.5,1,16.5,2.5,16.3,12.3
			c0,7.6-5.9,12.6-16.7,12.6C82,65.7,78.4,64.3,74.6,61.1z"/>
		<path id="XMLID_85_" class="st0" d="M110.6,32.9v-6.9h11.1v22.8l6.6-5.2l-3.3-0.3v-5.9h15.8v6.3h-3.2l-7.9,6.1l7.4,8.5h4.1V65
			h-11.6v-3.9l-5.8-7.2l-2.2,1.7v2.6h2.7V65h-14v-6.8h3.6V32.9H110.6z"/>
		<path id="XMLID_82_" class="st0" d="M156.7,37.3v20.9h3.2V65h-14.6v-6.8h3.5V44h-3.5v-6.7H156.7z M148.4,30c0-2.8,2.2-4.4,4.5-4.4
			c2.5,0,4.7,1.6,4.7,4.5c0,2.7-2.2,4.4-4.6,4.4C150.6,34.4,148.4,32.8,148.4,30z"/>
		<path id="XMLID_80_" class="st0" d="M163.7,25.9H175v32.3h3.3V65h-14.8v-6.8h3.8V32.7h-3.6V25.9z"/>
		<path id="XMLID_78_" class="st0" d="M182.1,25.9h11.3v32.3h3.3V65h-14.8v-6.8h3.8V32.7h-3.6V25.9z"/>
		<path id="XMLID_76_" class="st0" d="M217.7,46.2l-0.3-3.2c-0.8-0.4-2.6-0.8-4.2-0.8c-2.3,0-4.5,0.8-4.5,3.1c0,2,2.7,2.2,4.4,2.3
			c6.9,0.4,12.5,2.2,12.5,9.4c-0.2,5.2-4.6,9-12.3,9c-4.4,0-8.6-0.8-12.4-3.2l0.2-7.7h6.6l0.3,3.1c1.1,0.6,2.8,1.1,5.5,1.1
			c2.8,0.1,4.5-0.8,4.5-2.6c0-1.4-1.7-2.5-5.3-2.7c-6.5-0.8-11.6-2.1-11.6-8.6c-0.1-6.6,6.4-9.2,12.4-9.2c3.6,0,7.6,0.8,10.8,2.3
			l-0.1,7.6H217.7z"/>
	</g>
	<g id="XMLID_6_">
		<path id="XMLID_71_" class="st1" d="M46,81.2c0.9-0.4,1.7-0.8,2.4-1.4c0.7-0.5,1.2-1.4,1.6-2.7l6.2-20.3c0.3-0.9,0.4-1.7,0.2-2.2
			c-0.1-0.6-0.3-1-0.6-1.2c-0.3-0.2-0.7-0.4-1.2-0.6c0,0-0.1,0-0.1,0l0.2-0.7h14.2l-0.2,0.7c-0.1,0-0.1,0-0.1,0c0,0-0.1,0-0.1,0
			c-0.9,0.2-1.6,0.6-2.3,1.2c-0.7,0.6-1.3,1.5-1.6,2.8l-6.2,20.3c-0.3,0.9-0.4,1.6-0.2,2.2c0.1,0.6,0.3,1,0.6,1.2
			c0.3,0.3,0.7,0.4,1.1,0.6c0.1,0,0.2,0.1,0.2,0.1L59.8,82H45.6l0.2-0.7L46,81.2z M61.9,66.6l6.7-4.9l5.9,16
			c0.4,1.1,0.9,1.9,1.5,2.4c0.6,0.5,1.2,0.9,1.9,1.1l0.1,0L77.8,82H67L61.9,66.6z M62,66.6l12.7-10c0.8-0.6,1.3-1.2,1.4-1.8
			c0.1-0.6,0-1-0.4-1.4c-0.4-0.3-0.9-0.6-1.6-0.6l0.2-0.7h10l-0.2,0.8c-1.1,0.1-2.2,0.5-3.2,1c-1,0.6-2.5,1.6-4.3,3l-14,11.2
			L62,66.6z"/>
		<path id="XMLID_68_" class="st1" d="M83.8,63.2c-0.1-0.5-0.2-0.8-0.5-1.1s-0.6-0.4-0.9-0.6c-0.1,0-0.2-0.1-0.2-0.1l0.2-0.7h10.1
			L86,82h-7.8l5.3-16.9C83.8,64.4,83.9,63.7,83.8,63.2z M93.5,81.7c-0.7-0.6-1.1-1.4-1.3-2.5c-0.1-1.1,0.1-2.5,0.6-4.1l2.6-7.5
			c0.4-1.3,0.6-2.2,0.6-2.6c-0.1-0.5-0.3-0.7-0.6-0.7c-0.4,0-1.1,0.5-2.1,1.6c-0.9,1-1.9,2.5-3,4.4c-1,1.9-1.9,4.1-2.7,6.5l1-5.7
			c1.1-2.3,2.3-4.2,3.5-5.8c1.2-1.6,2.5-2.7,3.7-3.5c1.3-0.8,2.5-1.2,3.8-1.2c1.1,0,2,0.3,2.7,0.8c0.7,0.5,1.2,1.3,1.4,2.2
			c0.2,0.9,0.1,2-0.3,3.2l-3,8.7c-0.4,1.1-0.5,2-0.5,2.5s0.3,0.8,0.7,0.8c0.4,0,0.8-0.3,1.4-0.8c0.6-0.5,1.3-1.5,2.1-3l0.5,0.4
			c-0.9,2.1-2.1,3.8-3.6,5.1c-1.5,1.3-3.1,2-4.8,2C95.2,82.5,94.2,82.2,93.5,81.7z"/>
		<path id="XMLID_65_" class="st1" d="M108.9,81.3c-1.4-0.8-2.3-2-2.9-3.7c-0.6-1.7-0.5-3.8,0.1-6.4c0.7-2.6,1.7-4.7,3.2-6.3
			c1.5-1.6,3.1-2.7,4.9-3.4s3.6-1,5.3-0.9c1.7,0.1,3.3,0.5,4.6,1.2c1.4,0.7,2.3,1.9,2.9,3.6c0.6,1.6,0.5,3.8-0.1,6.3
			c-0.6,2.6-1.7,4.7-3.2,6.3c-1.5,1.6-3.2,2.8-5,3.6c-1.8,0.7-3.6,1.1-5.3,1C111.8,82.5,110.2,82.1,108.9,81.3z M116.5,78.3
			c0.9-1.9,1.7-4.2,2.4-6.9l0.2-0.7c0.7-2.6,1.1-4.7,1.3-6.3c0.2-1.6-0.2-2.5-1.1-2.5c-0.7,0-1.3,0.4-1.9,1.4
			c-0.6,1-1.2,2.1-1.7,3.5s-1,2.9-1.4,4.5c-0.1,0.5-0.3,1-0.4,1.5c-0.7,2.7-1.1,4.8-1.2,6.2c-0.1,1.4,0.2,2.1,1,2.2
			C114.7,81.2,115.6,80.3,116.5,78.3z"/>
		<path id="XMLID_60_" class="st1" d="M129,64c-0.2-0.5-0.4-0.8-0.6-1c-0.3-0.2-0.6-0.3-1-0.4h-0.2l0.2-0.7l8.9-1.7l1.9,14.3
			l-4.5,7.4h-1.9l-2.2-16C129.3,65.1,129.2,64.5,129,64z M132.3,81.5l12.8-20.7h1.5l-13,21.2L132.3,81.5z M140.7,68.2l5.1-7.3h1.2
			l2.9,15.5l-4.8,5.7h-1.9L140.7,68.2z M150.5,74.4c1-1.1,1.7-2.1,2.1-2.8c0.9-1.7,1.2-3.2,0.9-4.7s-1.1-2.6-2.2-3.5l0.1-0.3
			l7.9-3.2l0.1,0.5c0.2,1.3,0.2,2.5-0.1,3.7c-0.3,1.2-0.8,2.3-1.5,3.3s-1.6,2.3-2.8,3.8c-0.9,1.1-1.9,2.3-3.1,3.6
			c-1.2,1.3-3.4,3.7-6.6,7.1l2.3-4.4C148.5,76.6,149.5,75.5,150.5,74.4z"/>
		<path id="XMLID_58_" class="st1" d="M158.7,81.7c-0.7-0.6-1.1-1.4-1.3-2.5c-0.2-1.1,0-2.5,0.5-4.1l5.8-18.2
			c0.2-0.7,0.3-1.3,0.2-1.7c-0.1-0.4-0.3-0.7-0.6-1c-0.3-0.2-0.6-0.4-1-0.5c0,0,0,0-0.1,0c0,0,0,0-0.1,0l0.2-0.7l10.7-1.5l-7.6,23.9
			c-0.4,1.1-0.5,2-0.4,2.5c0.1,0.6,0.3,0.8,0.6,0.8s0.8-0.3,1.4-0.8c0.6-0.5,1.3-1.5,2.1-3l0.5,0.4c-0.9,2.1-2.1,3.8-3.6,5.1
			c-1.5,1.3-3.1,2-4.8,2C160.3,82.5,159.4,82.2,158.7,81.7z"/>
		<path id="XMLID_56_" class="st1" d="M173.2,80.8c-1.4-1.1-2.2-2.7-2.6-4.6c-0.4-1.9-0.1-4.1,0.8-6.4c0.8-2,1.8-3.7,3.2-5.1
			c1.4-1.4,2.9-2.4,4.6-3.1c1.7-0.7,3.4-1,5.2-1c1.4,0,2.7,0.2,3.8,0.7s1.9,1.1,2.5,2c0.5,0.9,0.6,1.9,0.3,3
			c-0.4,1.3-1.2,2.4-2.4,3.2c-1.2,0.8-2.7,1.4-4.4,1.9c-1.7,0.4-3.8,0.8-6.2,1.1l-1-1c1.6-0.2,3-0.6,4-1.2s1.9-1.4,2.5-2.3
			s1.1-1.9,1.4-2.9c0.3-0.9,0.4-1.6,0.3-2.2s-0.3-0.9-0.9-0.9c-0.4,0-0.9,0.2-1.5,0.7c-0.6,0.5-1.1,1.2-1.7,2.1
			c-0.5,0.9-1,1.9-1.5,3.1c-0.8,2.2-1.2,4.1-1.2,5.7c0,1.6,0.3,2.8,0.9,3.7c0.7,0.8,1.5,1.3,2.6,1.4c1,0.1,2.1-0.2,3.2-0.9
			c1.1-0.7,2.2-1.8,3.2-3.4l0.5,0.4c-1.3,2.7-2.9,4.7-4.8,6c-1.9,1.2-3.8,1.9-5.8,1.9C176.3,82.5,174.6,82,173.2,80.8z"/>
		<path id="XMLID_53_" class="st1" d="M191.7,81c-0.9-1-1.4-2.4-1.5-4.2c-0.1-1.8,0.2-3.8,1-6c0.8-2.4,2-4.4,3.4-6
			c1.4-1.6,2.9-2.7,4.5-3.4c1.6-0.7,3.1-0.9,4.4-0.7c1.3,0.2,2.2,0.6,2.7,1.2c0.5,0.7,0.8,1.4,0.9,2.2l-0.2,0.5
			c0-0.1-0.1-0.2-0.1-0.3c-0.3-0.5-0.6-0.9-0.9-1.1c-0.3-0.2-0.7-0.3-1.1-0.3c-0.9,0-1.8,0.5-2.6,1.6c-0.8,1.1-1.7,3-2.7,5.9
			c-0.5,1.6-0.9,2.9-1.2,4.1c-0.3,1.2-0.4,2.2-0.3,2.9c0.1,0.7,0.4,1.1,0.9,1.2c0.3,0.1,0.7-0.1,1.2-0.5c0.5-0.4,1-1,1.5-2
			s1.1-2.2,1.6-3.7c0-0.1,0.1-0.2,0.1-0.3v1.5c-0.6,2-1.3,3.7-2.1,5c-0.8,1.3-1.7,2.3-2.7,3s-2.1,1-3.2,1
			C193.7,82.5,192.5,82,191.7,81z M204,82.5c0,0-0.4-0.3-1.1-0.9s-1.1-1.4-1.3-2.5s0-2.5,0.6-4.1l6.1-18.2c0.2-0.7,0.2-1.3,0.1-1.7
			c-0.1-0.4-0.3-0.8-0.6-1c-0.3-0.2-0.6-0.4-1-0.5h0l0.2-0.7l10.8-1.5l-7.9,23.9c-0.4,1.1-0.5,2-0.4,2.5s0.3,0.8,0.6,0.8
			c0.4,0,0.8-0.3,1.4-0.8s1.3-1.5,2.1-3l0.5,0.4c-0.9,2.1-2.1,3.8-3.6,5.1c-1.5,1.3-3.1,2-4.8,2C204.5,82.5,204,82.5,204,82.5z"/>
		<path id="XMLID_48_" class="st1" d="M216.8,90.7c-1.7-0.4-3-1-4-1.8c-1-0.8-1.3-1.8-1-3c0.2-0.8,0.8-1.4,1.6-1.7
			c0.8-0.3,1.8-0.4,3-0.2c1.1,0.2,2.3,0.6,3.3,1.2l0.1,0.3c-0.6,0.2-1,0.4-1.3,0.7c-0.3,0.3-0.5,0.6-0.6,1c-0.1,0.6,0,1.1,0.4,1.5
			s0.9,0.7,1.7,0.9c0.8,0.2,1.6,0.3,2.6,0.3c1.2,0,2.3-0.2,3.3-0.6s1.6-1,1.9-1.8c0.3-0.7,0.1-1.3-0.3-1.9c-0.5-0.5-1.3-0.9-2.5-1.1
			l-6.2-1c-1.6-0.3-2.9-0.7-3.7-1.3c-0.8-0.6-1.3-1.3-1.4-2c-0.2-0.7-0.1-1.3,0.1-2c0.3-0.9,0.7-1.6,1.4-2.1
			c0.7-0.5,1.4-0.9,2.1-1.1c0.8-0.2,1.8-0.5,3.1-0.8c0.2-0.1,0.4-0.1,0.5-0.1c0.1,0,0.3,0,0.5-0.1l0.2,0.5c-0.3,0.1-0.6,0.3-0.9,0.4
			c-0.5,0.2-0.8,0.4-1,0.5c-0.2,0.1-0.3,0.3-0.4,0.5c-0.1,0.2,0,0.4,0.1,0.6c0.1,0.2,0.3,0.3,0.7,0.4c0.4,0.1,0.9,0.2,1.5,0.4l6,1
			c1.8,0.3,3.2,0.9,4.1,1.7c0.9,0.8,1.5,1.7,1.6,2.7s0,2-0.4,3.1c-0.7,1.7-2,3.1-4,4c-2,1-4.3,1.5-7,1.5
			C220.2,91.3,218.5,91.1,216.8,90.7z M218.9,75c-1.3-0.7-2.2-1.6-2.7-2.9c-0.5-1.2-0.6-2.7-0.1-4.3c0.5-1.6,1.3-2.9,2.5-4
			c1.2-1.1,2.6-1.9,4.1-2.5s3.1-0.8,4.6-0.8c1.7,0,3.3,0.4,4.6,1.1c1.3,0.7,2.2,1.7,2.8,3s0.6,2.7,0.1,4.3c-0.5,1.6-1.4,3-2.6,4.1
			s-2.7,1.9-4.3,2.4c-1.6,0.5-3.1,0.7-4.6,0.7C221.6,76,220.2,75.7,218.9,75z M225.7,72.7c0.7-1.3,1.3-2.8,1.7-4.4
			c0.6-1.9,0.9-3.5,1-4.7c0.1-1.2-0.2-1.8-1-1.8c-0.7,0-1.5,0.7-2.1,2s-1.3,2.8-1.7,4.5c-0.6,2-0.9,3.6-1.1,4.7
			c-0.1,1.1,0.2,1.7,1,1.7C224.3,74.7,225,74,225.7,72.7z M234.7,62.2c0.6-0.7,1.4-1.3,2.2-1.6c0.9-0.3,1.7-0.3,2.6,0l-1.6,4.2
			c-0.6-0.4-1.4-0.6-2.3-0.5c-0.9,0.1-1.7,0.5-2.6,1.4l0.2-0.8C233.6,63.8,234.1,62.9,234.7,62.2z"/>
		<path id="XMLID_7_" class="st1" d="M238.8,80.8c-1.4-1.1-2.2-2.7-2.6-4.6c-0.4-1.9-0.1-4.1,0.8-6.4c0.8-2,1.8-3.7,3.2-5.1
			c1.4-1.4,2.9-2.4,4.6-3.1s3.4-1,5.2-1c1.4,0,2.7,0.2,3.8,0.7s1.9,1.1,2.5,2c0.5,0.9,0.6,1.9,0.3,3c-0.4,1.3-1.2,2.4-2.4,3.2
			c-1.2,0.8-2.7,1.4-4.4,1.9c-1.7,0.4-3.8,0.8-6.2,1.1l-1-1c1.6-0.2,3-0.6,4-1.2c1.1-0.7,1.9-1.4,2.5-2.3c0.6-0.9,1.1-1.9,1.4-2.9
			c0.2-0.9,0.4-1.6,0.3-2.2c0-0.6-0.3-0.9-0.9-0.9c-0.4,0-0.9,0.2-1.5,0.7c-0.6,0.5-1.1,1.2-1.7,2.1c-0.5,0.9-1,1.9-1.5,3.1
			c-0.8,2.2-1.2,4.1-1.2,5.7s0.3,2.8,0.9,3.7c0.7,0.8,1.5,1.3,2.6,1.4c1,0.1,2.1-0.2,3.2-0.9c1.1-0.7,2.2-1.8,3.2-3.4l0.5,0.4
			c-1.3,2.7-2.9,4.7-4.8,6c-1.9,1.2-3.8,1.9-5.8,1.9C241.9,82.5,240.2,82,238.8,80.8z"/>
	</g>
</g>
<g id="Calque_1">
	<g id="XMLID_89_">
		<defs>
			<path id="XMLID_2_" d="M46,81.2c0.9-0.4,1.7-0.8,2.4-1.4c0.7-0.5,1.2-1.4,1.6-2.7l6.2-20.3c0.3-0.9,0.4-1.7,0.2-2.2
				c-0.1-0.6-0.3-1-0.6-1.2c-0.3-0.2-0.7-0.4-1.2-0.6c0,0-0.1,0-0.1,0l0.2-0.7h14.2l-0.2,0.7c-0.1,0-0.1,0-0.1,0c0,0-0.1,0-0.1,0
				c-0.9,0.2-1.6,0.6-2.3,1.2c-0.7,0.6-1.3,1.5-1.6,2.8l-6.2,20.3c-0.3,0.9-0.4,1.6-0.2,2.2c0.1,0.6,0.3,1,0.6,1.2
				c0.3,0.3,0.7,0.4,1.1,0.6c0.1,0,0.2,0.1,0.2,0.1L59.8,82H45.6l0.2-0.7L46,81.2z M61.9,66.6l6.7-4.9l5.9,16
				c0.4,1.1,0.9,1.9,1.5,2.4c0.6,0.5,1.2,0.9,1.9,1.1l0.1,0L77.8,82H67L61.9,66.6z M62,66.6l12.7-10c0.8-0.6,1.3-1.2,1.4-1.8
				c0.1-0.6,0-1-0.4-1.4c-0.4-0.3-0.9-0.6-1.6-0.6l0.2-0.7h10l-0.2,0.8c-1.1,0.1-2.2,0.5-3.2,1c-1,0.6-2.5,1.6-4.3,3l-14,11.2
				L62,66.6z"/>
		</defs>
		<clipPath id="XMLID_105_">
			<use xlink:href="#XMLID_2_"  style="overflow:visible;"/>
		</clipPath>
		<path id="XMLID_35_" class="st2" d="M74.6,61.1l0.1-8.9h7.4l0.4,4.7c1.6,0.7,4.4,1.5,7.5,1.5c4.2,0,8.5-1,8.5-5.1
			c0-4.3-6.1-4.3-8.8-4.8c-7.9-0.9-14.8-2.8-14.6-11.9c0.1-7.8,7.5-11.6,16-11.6c7.1,0,10.9,2.1,13.5,4.5c-0.1,3.3-0.2,5.1-0.2,8.3
			h-7.2l-0.4-4.6c-1.6-0.7-3.3-1.1-6.1-1.1c-3.9,0-7.3,1.2-7.3,4.5c-0.1,2.8,2.5,3.9,7.1,4.5c8.5,1,16.5,2.5,16.3,12.3
			c0,7.6-5.9,12.6-16.7,12.6C82,65.7,78.4,64.3,74.6,61.1z"/>
	</g>
	<g id="XMLID_8_">
		<defs>
			<path id="XMLID_9_" d="M102.1,78c-0.6,0.5-1,0.8-1.4,0.8c-0.4,0-0.6-0.3-0.7-0.8s0.1-1.4,0.5-2.5l3-8.7c0.4-1.2,0.5-2.3,0.3-3.2
				c-0.2-0.9-0.7-1.7-1.4-2.2c-0.7-0.5-1.6-0.8-2.7-0.8c-1.2,0-2.5,0.4-3.8,1.2c-1.3,0.8-2.5,2-3.7,3.5c-0.6,0.8-1.3,1.8-1.9,2.8
				l2.2-7.1H82.4l-0.2,0.6c0.1,0,0.2,0,0.2,0c0.4,0.1,0.7,0.3,0.9,0.5s0.4,0.6,0.5,1.1c0.1,0.5,0,1.1-0.3,1.9L78.3,82H86l1.7-5.6
				c0.7-2.3,1.6-4.4,2.6-6.2c1-1.9,2-3.3,3-4.4c0.9-1,1.6-1.6,2.1-1.6c0.3,0,0.5,0.2,0.6,0.7c0.1,0.5-0.1,1.4-0.6,2.6l-2.6,7.5
				c-0.5,1.6-0.7,2.9-0.6,4.1c0.1,1.1,0.6,2,1.3,2.5s1.6,0.9,2.8,0.9c1.7,0,3.3-0.7,4.8-2c1.5-1.3,2.7-3,3.6-5.1l-0.5-0.4
				C103.4,76.5,102.7,77.5,102.1,78z"/>
		</defs>
		<clipPath id="XMLID_106_">
			<use xlink:href="#XMLID_9_"  style="overflow:visible;"/>
		</clipPath>
		<path id="XMLID_1_" class="st3" d="M74.6,61.1l0.1-8.9h7.4l0.4,4.7c1.6,0.7,4.4,1.5,7.5,1.5c4.2,0,8.5-1,8.5-5.1
			c0-4.3-6.1-4.3-8.8-4.8c-7.9-0.9-14.8-2.8-14.6-11.9c0.1-7.8,7.5-11.6,16-11.6c7.1,0,10.9,2.1,13.5,4.5c-0.1,3.3-0.2,5.1-0.2,8.3
			h-7.2l-0.4-4.6c-1.6-0.7-3.3-1.1-6.1-1.1c-3.9,0-7.3,1.2-7.3,4.5c-0.1,2.8,2.5,3.9,7.1,4.5c8.5,1,16.5,2.5,16.3,12.3
			c0,7.6-5.9,12.6-16.7,12.6C82,65.7,78.4,64.3,74.6,61.1z"/>
	</g>
	<g id="XMLID_13_">
		<defs>
			<path id="XMLID_92_" d="M124.2,61.7c-1.4-0.7-2.9-1.1-4.6-1.2c-1.7-0.1-3.5,0.3-5.3,0.9s-3.4,1.8-4.9,3.4
				c-1.5,1.6-2.6,3.7-3.2,6.3c-0.7,2.6-0.7,4.7-0.1,6.4c0.6,1.7,1.6,2.9,2.9,3.7c1.4,0.8,2.9,1.2,4.6,1.3c1.7,0.1,3.5-0.3,5.3-1
				c1.8-0.7,3.5-1.9,5-3.6c1.5-1.6,2.6-3.8,3.2-6.3c0.7-2.6,0.7-4.7,0.1-6.3C126.5,63.7,125.6,62.5,124.2,61.7z M120.4,64.4
				c-0.2,1.6-0.6,3.7-1.3,6.3l-0.2,0.7c-0.7,2.7-1.5,5-2.4,6.9c-0.9,1.9-1.8,2.9-2.8,2.9c-0.8,0-1.1-0.7-1-2.2
				c0.1-1.4,0.5-3.5,1.2-6.2c0.1-0.5,0.3-1,0.4-1.5c0.4-1.6,0.9-3.1,1.4-4.5s1.1-2.6,1.7-3.5c0.6-1,1.3-1.4,1.9-1.4
				C120.2,61.9,120.6,62.8,120.4,64.4z"/>
		</defs>
		<clipPath id="XMLID_108_">
			<use xlink:href="#XMLID_92_"  style="overflow:visible;"/>
		</clipPath>
		<path id="XMLID_37_" class="st4" d="M110.6,32.9v-6.9h11.1v22.8l6.6-5.2l-3.3-0.3v-5.9h15.8v6.3h-3.2l-7.9,6.1l7.4,8.5h4.1V65
			h-11.6v-3.9l-5.8-7.2l-2.2,1.7v2.6h2.7V65h-14v-6.8h3.6V32.9H110.6z"/>
	</g>
	<g id="XMLID_16_">
		<defs>
			<path id="XMLID_14_" d="M159.1,64.1c0.3-1.2,0.4-2.4,0.1-3.7l-0.1-0.5l-7.9,3.2l-0.1,0.3c1.2,0.9,1.9,2.1,2.2,3.5s0,3-0.9,4.7
				c-0.4,0.7-1.1,1.6-2.1,2.8c-0.3,0.3-0.5,0.7-0.8,1L146.9,61h-0.3h-0.9h-0.6l-7.3,11.6l-1.6-12.3l-8.9,1.9l-0.2,0.8h0.2
				c0.4,0,0.8,0,1,0.2c0.3,0.2,0.5,0.4,0.6,0.9c0.2,0.5,0.3,1.1,0.5,1.9l2.2,16h1.9l7.4-12l2.2,12h1.9c3.2-3,5.4-5.8,6.6-7.1
				c1.2-1.3,2.2-2.5,3.1-3.6c1.2-1.5,2.1-2.8,2.8-3.8S158.7,65.2,159.1,64.1z"/>
		</defs>
		<clipPath id="XMLID_109_">
			<use xlink:href="#XMLID_14_"  style="overflow:visible;"/>
		</clipPath>
		<path id="XMLID_39_" class="st5" d="M156.7,37.3v20.9h3.2V65h-14.6v-6.8h3.5V44h-3.5v-6.7H156.7z M148.4,30c0-2.8,2.2-4.4,4.5-4.4
			c2.5,0,4.7,1.6,4.7,4.5c0,2.7-2.2,4.4-4.6,4.4C150.6,34.4,148.4,32.8,148.4,30z"/>
		<g id="XMLID_15_" class="st5">
			<defs>
				<path id="XMLID_93_" d="M159.1,64.1c0.3-1.2,0.4-2.4,0.1-3.7l-0.1-0.5l-7.9,3.2l-0.1,0.3c1.2,0.9,1.9,2.1,2.2,3.5s0,3-0.9,4.7
					c-0.4,0.7-1.1,1.6-2.1,2.8c-0.3,0.3-0.5,0.7-0.8,1L146.9,61h-0.3h-0.9h-0.6l-7.3,11.6l-1.6-12.3l-8.9,1.9l-0.2,0.8h0.2
					c0.4,0,0.8,0,1,0.2c0.3,0.2,0.5,0.4,0.6,0.9c0.2,0.5,0.3,1.1,0.5,1.9l2.2,16h1.9l7.4-12l2.2,12h1.9c3.2-3,5.4-5.8,6.6-7.1
					c1.2-1.3,2.2-2.5,3.1-3.6c1.2-1.5,2.1-2.8,2.8-3.8S158.7,65.2,159.1,64.1z"/>
			</defs>
			<clipPath id="XMLID_110_">
				<use xlink:href="#XMLID_93_"  style="overflow:visible;"/>
			</clipPath>
			<path id="XMLID_11_" class="st6" d="M110.6,32.9v-6.9h11.1v22.8l6.6-5.2l-3.3-0.3v-5.9h15.8v6.3h-3.2l-7.9,6.1l7.4,8.5h4.1V65
				h-11.6v-3.9l-5.8-7.2l-2.2,1.7v2.6h2.7V65h-14v-6.8h3.6V32.9H110.6z"/>
		</g>
	</g>
	<g id="XMLID_19_">
		<defs>
			<path id="XMLID_94_" d="M167.1,78c-0.6,0.5-1,0.8-1.4,0.8s-0.6-0.3-0.6-0.8c-0.1-0.6,0.1-1.4,0.4-2.5l7.6-23.9L162.4,53l-0.2,0.7
				c0,0,0,0,0.1,0c0,0,0,0,0.1,0c0.4,0.1,0.7,0.3,1,0.5c0.3,0.2,0.4,0.5,0.6,1c0.1,0.4,0.1,1-0.2,1.7l-5.8,18.2
				c-0.5,1.6-0.7,2.9-0.5,4.1c0.2,1.1,0.6,2,1.3,2.5s1.6,0.9,2.6,0.9c1.7,0,3.3-0.7,4.8-2c1.5-1.3,2.7-3,3.6-5.1l-0.5-0.4
				C168.4,76.5,167.7,77.5,167.1,78z"/>
		</defs>
		<clipPath id="XMLID_111_">
			<use xlink:href="#XMLID_94_"  style="overflow:visible;"/>
		</clipPath>
		<path id="XMLID_42_" class="st7" d="M163.7,25.9H175v32.3h3.3V65h-14.8v-6.8h3.8V32.7h-3.6V25.9z"/>
	</g>
	<g id="XMLID_23_">
		<defs>
			<path id="XMLID_97_" d="M184.1,71.3c1.7-0.4,3.2-1.1,4.4-1.9c1.2-0.8,2-1.9,2.4-3.2c0.3-1.2,0.2-2.2-0.3-3
				c-0.5-0.9-1.3-1.5-2.5-2s-2.4-0.7-3.8-0.7c-1.7,0-3.5,0.3-5.2,1c-1.7,0.7-3.2,1.7-4.6,3.1c-1.4,1.4-2.4,3.1-3.2,5.1
				c-0.9,2.3-1.1,4.4-0.8,6.4c0.4,1.9,1.2,3.5,2.6,4.6s3.1,1.7,5,1.7c1.9,0,3.9-0.6,5.8-1.9c1.9-1.2,3.5-3.2,4.8-6l-0.5-0.4
				c-1,1.6-2,2.7-3.2,3.4c-1.2,0.7-2.2,0.9-3.2,0.9c-1.1-0.1-2-0.5-2.6-1.4c-0.7-0.8-1-2.1-0.9-3.7c0-0.4,0-0.8,0.1-1.2
				C180.6,72.1,182.5,71.7,184.1,71.3z M179.6,67.9c0.4-1.2,0.9-2.2,1.5-3.1c0.5-0.9,1.1-1.6,1.7-2.1c0.6-0.5,1.1-0.7,1.5-0.7
				c0.6,0,0.9,0.3,0.9,0.9s-0.1,1.3-0.3,2.2c-0.3,1.1-0.8,2-1.4,2.9s-1.4,1.7-2.5,2.3c-0.7,0.4-1.4,0.7-2.3,0.9
				C178.9,70.1,179.2,69.1,179.6,67.9z"/>
		</defs>
		<clipPath id="XMLID_112_">
			<use xlink:href="#XMLID_97_"  style="overflow:visible;"/>
		</clipPath>
		<path id="XMLID_17_" class="st8" d="M163.7,25.9H175v32.3h3.3V65h-14.8v-6.8h3.8V32.7h-3.6V25.9z"/>
	</g>
	<g id="XMLID_26_">
		<defs>
			<path id="XMLID_20_" d="M184.1,71.3c1.7-0.4,3.2-1.1,4.4-1.9c1.2-0.8,2-1.9,2.4-3.2c0.3-1.2,0.2-2.2-0.3-3
				c-0.5-0.9-1.3-1.5-2.5-2s-2.4-0.7-3.8-0.7c-1.7,0-3.5,0.3-5.2,1c-1.7,0.7-3.2,1.7-4.6,3.1c-1.4,1.4-2.4,3.1-3.2,5.1
				c-0.9,2.3-1.1,4.4-0.8,6.4c0.4,1.9,1.2,3.5,2.6,4.6s3.1,1.7,5,1.7c1.9,0,3.9-0.6,5.8-1.9c1.9-1.2,3.5-3.2,4.8-6l-0.5-0.4
				c-1,1.6-2,2.7-3.2,3.4c-1.2,0.7-2.2,0.9-3.2,0.9c-1.1-0.1-2-0.5-2.6-1.4c-0.7-0.8-1-2.1-0.9-3.7c0-0.4,0-0.8,0.1-1.2
				C180.6,72.1,182.5,71.7,184.1,71.3z M179.6,67.9c0.4-1.2,0.9-2.2,1.5-3.1c0.5-0.9,1.1-1.6,1.7-2.1c0.6-0.5,1.1-0.7,1.5-0.7
				c0.6,0,0.9,0.3,0.9,0.9s-0.1,1.3-0.3,2.2c-0.3,1.1-0.8,2-1.4,2.9s-1.4,1.7-2.5,2.3c-0.7,0.4-1.4,0.7-2.3,0.9
				C178.9,70.1,179.2,69.1,179.6,67.9z"/>
		</defs>
		<clipPath id="XMLID_113_">
			<use xlink:href="#XMLID_20_"  style="overflow:visible;"/>
		</clipPath>
		<path id="XMLID_44_" class="st9" d="M182.1,25.9h11.3v32.3h3.3V65h-14.8v-6.8h3.8V32.7h-3.6V25.9z"/>
	</g>
	<g id="XMLID_30_">
		<defs>
			<path id="XMLID_100_" d="M213.6,75.1c-0.9,1.4-1.6,2.4-2.1,3s-1,0.8-1.4,0.8c-0.4,0-0.6-0.3-0.6-0.8s0.1-1.4,0.4-2.5l7.9-23.9
				l-10.8,1.6l-0.2,0.8h0c0.4,0,0.7,0.1,1,0.3c0.3,0.2,0.5,0.4,0.6,0.9c0.1,0.4,0.1,1-0.1,1.7l-1.8,5.3c-0.1-0.1-0.2-0.3-0.3-0.4
				c-0.5-0.7-1.4-1.1-2.7-1.2c-1.3-0.2-2.8,0.1-4.4,0.7c-1.6,0.7-3.1,1.8-4.5,3.4c-1.4,1.6-2.6,3.6-3.4,6c-0.8,2.2-1.1,4.3-1,6
				c0.1,1.8,0.6,3.2,1.5,4.2c0.9,1,2,1.5,3.5,1.5c1.2,0,2.2-0.3,3.2-1s1.9-1.6,2.7-3c0.2-0.3,0.4-0.7,0.6-1.1
				c-0.1,0.6-0.1,1.1,0,1.6c0.2,1.1,0.6,2.2,1.3,2.8S204,83,204,83s0.6,0,1.7,0c1.7,0,3.3-0.9,4.8-2.2c1.5-1.3,2.7-3.1,3.6-5.2
				L213.6,75.1z M202.7,73.6c-0.4,1-0.7,1.8-1.1,2.5c-0.5,0.9-1,1.6-1.5,2c-0.5,0.4-0.9,0.5-1.2,0.5c-0.5-0.1-0.8-0.5-0.9-1.2
				c-0.1-0.7,0-1.7,0.3-2.9c0.3-1.2,0.7-2.6,1.2-4.1c0.9-2.9,1.8-4.8,2.7-5.9c0.8-1.1,1.7-1.6,2.6-1.6c0.5,0,0.9,0.1,1.1,0.3
				c0.1,0,0.1,0.1,0.2,0.2L202.7,73.6z"/>
		</defs>
		<clipPath id="XMLID_114_">
			<use xlink:href="#XMLID_100_"  style="overflow:visible;"/>
		</clipPath>
		<path id="XMLID_24_" class="st10" d="M182.1,25.9h11.3v32.3h3.3V65h-14.8v-6.8h3.8V32.7h-3.6V25.9z"/>
	</g>
	<g id="XMLID_33_">
		<defs>
			<path id="XMLID_27_" d="M213.6,75.1c-0.9,1.4-1.6,2.4-2.1,3s-1,0.8-1.4,0.8c-0.4,0-0.6-0.3-0.6-0.8s0.1-1.4,0.4-2.5l7.9-23.9
				l-10.8,1.6l-0.2,0.8h0c0.4,0,0.7,0.1,1,0.3c0.3,0.2,0.5,0.4,0.6,0.9c0.1,0.4,0.1,1-0.1,1.7l-1.8,5.3c-0.1-0.1-0.2-0.3-0.3-0.4
				c-0.5-0.7-1.4-1.1-2.7-1.2c-1.3-0.2-2.8,0.1-4.4,0.7c-1.6,0.7-3.1,1.8-4.5,3.4c-1.4,1.6-2.6,3.6-3.4,6c-0.8,2.2-1.1,4.3-1,6
				c0.1,1.8,0.6,3.2,1.5,4.2c0.9,1,2,1.5,3.5,1.5c1.2,0,2.2-0.3,3.2-1s1.9-1.6,2.7-3c0.2-0.3,0.4-0.7,0.6-1.1
				c-0.1,0.6-0.1,1.1,0,1.6c0.2,1.1,0.6,2.2,1.3,2.8S204,83,204,83s0.6,0,1.7,0c1.7,0,3.3-0.9,4.8-2.2c1.5-1.3,2.7-3.1,3.6-5.2
				L213.6,75.1z M202.7,73.6c-0.4,1-0.7,1.8-1.1,2.5c-0.5,0.9-1,1.6-1.5,2c-0.5,0.4-0.9,0.5-1.2,0.5c-0.5-0.1-0.8-0.5-0.9-1.2
				c-0.1-0.7,0-1.7,0.3-2.9c0.3-1.2,0.7-2.6,1.2-4.1c0.9-2.9,1.8-4.8,2.7-5.9c0.8-1.1,1.7-1.6,2.6-1.6c0.5,0,0.9,0.1,1.1,0.3
				c0.1,0,0.1,0.1,0.2,0.2L202.7,73.6z"/>
		</defs>
		<clipPath id="XMLID_115_">
			<use xlink:href="#XMLID_27_"  style="overflow:visible;"/>
		</clipPath>
		<path id="XMLID_31_" class="st11" d="M217.7,46.2l-0.3-3.2c-0.8-0.4-2.6-0.8-4.2-0.8c-2.3,0-4.5,0.8-4.5,3.1c0,2,2.7,2.2,4.4,2.3
			c6.9,0.4,12.5,2.2,12.5,9.4c-0.2,5.2-4.6,9-12.3,9c-4.4,0-8.6-0.8-12.4-3.2l0.2-7.7h6.6l0.3,3.1c1.1,0.6,2.8,1.1,5.5,1.1
			c2.8,0.1,4.5-0.8,4.5-2.6c0-1.4-1.7-2.5-5.3-2.7c-6.5-0.8-11.6-2.1-11.6-8.6c-0.1-6.6,6.4-9.2,12.4-9.2c3.6,0,7.6,0.8,10.8,2.3
			l-0.1,7.6H217.7z"/>
	</g>
	<g id="XMLID_107_">
		<defs>
			<path id="XMLID_103_" d="M238,64.7l1.6-4.2c-0.9-0.3-1.8-0.3-2.6,0c-0.9,0.3-1.6,0.8-2.2,1.6c-0.3,0.3-0.6,0.7-0.8,1.1
				c-0.5-0.7-1.2-1.3-2-1.7c-1.3-0.7-2.8-1.1-4.6-1.1c-1.6,0-3.1,0.3-4.6,0.8s-2.9,1.4-4.1,2.5c-1.2,1.1-2,2.4-2.5,4
				c-0.5,1.6-0.4,3,0.1,4.3c0.5,1.1,1.2,1.9,2.2,2.6c-0.5,0.1-0.9,0.2-1.2,0.3c-0.8,0.2-1.5,0.6-2.1,1.1c-0.7,0.5-1.1,1.2-1.4,2.1
				c-0.2,0.6-0.2,1.3-0.1,2c0.2,0.7,0.6,1.3,1.4,2c0.8,0.6,2,1.1,3.7,1.3l6.2,1c1.2,0.2,2.1,0.6,2.5,1.1c0.5,0.5,0.6,1.1,0.3,1.9
				c-0.3,0.8-0.9,1.4-1.9,1.8s-2.1,0.6-3.3,0.6c-1,0-1.9-0.1-2.6-0.3c-0.8-0.2-1.3-0.5-1.7-0.9s-0.5-0.9-0.4-1.5
				c0.1-0.4,0.3-0.7,0.6-1c0.3-0.3,0.8-0.5,1.3-0.7l-0.1-0.3c-1.1-0.6-2.2-1-3.3-1.2c-1.2-0.2-2.1-0.1-3,0.2
				c-0.8,0.3-1.4,0.9-1.6,1.7c-0.3,1.2,0,2.2,1,3c1,0.8,2.3,1.4,4,1.8c1.7,0.4,3.4,0.6,5.2,0.6c2.7,0,5-0.5,7-1.5c2-1,3.3-2.3,4-4
				c0.4-1,0.5-2,0.4-3.1s-0.7-1.9-1.6-2.7c-0.9-0.8-2.3-1.4-4.1-1.7l-6-1c-0.6-0.1-1.1-0.2-1.5-0.4c-0.4-0.1-0.6-0.3-0.7-0.4
				c-0.1-0.2-0.1-0.3-0.1-0.6c0.1-0.2,0.2-0.4,0.4-0.5c0.1,0,0.1-0.1,0.2-0.1c1,0.4,2.2,0.6,3.4,0.6c1.5,0,3-0.2,4.6-0.7
				c1.6-0.5,3.1-1.3,4.3-2.4s2.2-2.4,2.6-4.1c0.4-1.6,0.4-3-0.1-4.3c0,0,0,0,0,0c0.4-0.2,0.7-0.3,1.1-0.3
				C236.6,64.2,237.3,64.3,238,64.7z M228.4,63.6c-0.1,1.2-0.5,2.7-1,4.7c-0.5,1.6-1.1,3.1-1.7,4.4c-0.7,1.3-1.4,2-2.2,2
				c-0.8,0-1.1-0.6-1-1.7c0.1-1.1,0.5-2.7,1.1-4.7c0.5-1.7,1-3.2,1.7-4.5s1.4-2,2.1-2C228.2,61.8,228.6,62.4,228.4,63.6z"/>
		</defs>
		<clipPath id="XMLID_116_">
			<use xlink:href="#XMLID_103_"  style="overflow:visible;"/>
		</clipPath>
		<path id="XMLID_46_" class="st12" d="M217.7,46.2l-0.3-3.2c-0.8-0.4-2.6-0.8-4.2-0.8c-2.3,0-4.5,0.8-4.5,3.1c0,2,2.7,2.2,4.4,2.3
			c6.9,0.4,12.5,2.2,12.5,9.4c-0.2,5.2-4.6,9-12.3,9c-4.4,0-8.6-0.8-12.4-3.2l0.2-7.7h6.6l0.3,3.1c1.1,0.6,2.8,1.1,5.5,1.1
			c2.8,0.1,4.5-0.8,4.5-2.6c0-1.4-1.7-2.5-5.3-2.7c-6.5-0.8-11.6-2.1-11.6-8.6c-0.1-6.6,6.4-9.2,12.4-9.2c3.6,0,7.6,0.8,10.8,2.3
			l-0.1,7.6H217.7z"/>
	</g>
</g>
</svg>
