<?xml version="1.0" encoding="utf-8"?>
<!-- Generator: Adobe Illustrator 19.0.0, SVG Export Plug-In . SVG Version: 6.00 Build 0)  -->
<svg version="1.1" id="Calque_1" xmlns="http://www.w3.org/2000/svg" xmlns:xlink="http://www.w3.org/1999/xlink" x="0px" y="0px"
	 viewBox="0 0 640 300" style="enable-background:new 0 0 640 300;" xml:space="preserve">
<style type="text/css">
	.st0{fill:#E90052;}
	.st1{fill:#3AF9BA;}
	.st2{fill:#EBFFAA;}
</style>
<g id="XMLID_1_">
	<g id="XMLID_56_">
		<path id="XMLID_64_" class="st0" d="M195.6,209.2c-2.9,0-5.8-1.1-8-3.4c-4.3-4.4-4.2-11.5,0.2-15.8c8.5-8.2,9.8-18.5,9.8-18.6
			c0.6-6.1,6-10.6,12.1-10.1c6.1,0.6,10.6,6,10.1,12.1c-0.2,1.9-2.1,18.6-16.4,32.5C201.2,208.1,198.4,209.2,195.6,209.2
			L195.6,209.2z"/>
		<path id="XMLID_63_" class="st0" d="M285.4,239.3c-1.3,0-2.5-0.2-3.8-0.7c-5.8-2.1-8.8-8.5-6.7-14.3c6.5-18,4-30.3,3.9-30.4
			c-1.4-6,2.3-12,8.3-13.4c6-1.4,12,2.3,13.4,8.3c0.4,1.9,4.1,19-4.7,43.1C294.3,236.5,290,239.3,285.4,239.3L285.4,239.3z"/>
		<path id="XMLID_62_" class="st0" d="M384.5,251.8c-0.2,0-0.3,0-0.5,0c-6.2-0.3-10.9-5.5-10.7-11.6c0.6-13.6-1.8-27.6-1.8-27.8
			c-1-6.1,3-11.8,9.1-12.9c6.1-1.1,11.8,3,12.9,9.1c0.1,0.7,2.8,16.5,2.1,32.6C395.3,247.1,390.4,251.8,384.5,251.8L384.5,251.8z"/>
		<path id="XMLID_61_" class="st0" d="M484.1,222.9c-2.3,0-4.5-0.7-6.5-2.1c-14.8-10.7-27.4-26.8-27.9-27.5
			c-3.8-4.9-2.9-11.9,2-15.6c4.9-3.8,11.9-2.9,15.6,2c0.1,0.1,11.1,14.3,23.2,23c5,3.6,6.1,10.6,2.5,15.6
			C491,221.3,487.6,222.9,484.1,222.9L484.1,222.9z"/>
		<path id="XMLID_57_" class="st0" d="M570.9,125.9c-21.3-24.1-46.8-45-75.6-59.6c-26.9-13.7-56-21.8-86-25.4
			c-52.3-6.3-106.6,2.9-156.1,20C217.9,73,183.9,88.6,151.9,108c-3.4,2.1-6.8,4.2-10.1,6.4c-3.8,2.6-7.8,6.4-8.7,11.2
			c-0.8,4.3,1.6,8,5.3,10.1c10,5.8,24.9,2.5,33.8-3.7c4.7-3.2,9.6-6.2,14.6-9.1c2.6-1.5,5.2-3,7.8-4.5c0.1-0.1,0.2-0.1,0.3-0.2
			c0.5-0.3,1-0.5,1.4-0.8c11.4,10.7,43.2,37.5,89.8,53.1c23.1,7.8,46.7,11.6,70.3,11.6c11.3,0,22.7-0.9,34-2.7
			c40.2-6.3,80.1-23.9,119-52.3c6.2,5.8,12.1,11.9,17.7,18.3c7.5,8.5,22.8,5.9,31.8,1.9C565.8,144.4,578.6,134.5,570.9,125.9
			L570.9,125.9z M332.9,73.3c0.6-0.7,1.1-1.4,1.6-2.1c1.7-0.2,3.3-0.4,5-0.5c4.5-0.4,9.1-0.8,13.6-1c1.9-0.1,3.8-0.2,5.8-0.2
			c1.2,0,2.3,0,3.5,0c9.8,0,19.7,0.6,29.5,1.8c0.3,0,0.7,0.1,1,0.1c2.3,2.2,4.3,4.6,5.8,7.2c2.1,3.8,3.2,7.8,3.2,12
			c0,3-0.5,5.9-1.6,8.7c-1.8,4.6-5.1,8.9-9.5,12.4c-7.2,5.7-16.7,8.9-26.9,8.9c-8.2,0-16-2-22.5-5.9c-6-3.6-10.6-8.4-13.2-13.9
			c-1.5-3.3-2.3-6.7-2.3-10.2C325.8,82.8,329.7,76.9,332.9,73.3L332.9,73.3z M294.4,148.6c-35.6-11.7-62-31.1-75.5-42.5
			c0.8-0.4,1.7-0.8,2.5-1.2c9-4.2,18-8.1,27.2-11.7c2.4-0.9,4.8-1.8,7.1-2.7c1.2-0.4,2.4-0.9,3.7-1.3c0.2-0.1,0.4-0.1,0.6-0.2
			c4.7-1.6,9.4-3.2,14.2-4.7c7.4-2.3,14.8-4.3,22.3-6.2c-1,4.1-1.5,8.4-1.5,12.6c0,8,1.7,15.9,5.2,23.2c5.2,11.2,14,20.7,25.5,27.4
			c11.3,6.6,24.5,10.2,38.2,10.2c17.1,0,33.4-5.5,46.1-15.6c8.7-6.9,15.2-15.7,19-25.4c2.5-6.4,3.7-13,3.7-19.8c0-3.5-0.3-7-1-10.4
			c4.1,1.3,8.1,2.8,12.1,4.4c16.8,7.1,32.5,16.2,47.1,27C425.7,157.7,359.7,170.1,294.4,148.6L294.4,148.6z"/>
	</g>
	<g id="XMLID_216_">
		<path id="XMLID_237_" d="M88.9,198.8c-0.2,22.4-14,44.8-44.4,44.8S0,221.6,0,198.9c0-22.7,14.6-45.6,44.5-45.6
			C74.3,153.3,89.1,176.2,88.9,198.8z M16.1,199.1c0.4,14.2,8,29.4,28.4,29.4s28.1-15.3,28.3-29.5c0.2-14.6-7.9-30.9-28.3-30.9
			S15.7,184.6,16.1,199.1z"/>
		<path id="XMLID_235_" d="M104.7,241.6v-46.9H93.3v-13.2h11.4v-4.1c0-16.3,11-23.9,23.2-23.9c5.3,0,10.9,1.7,15.8,4.9l-5.6,11.3
			c-3.2-2.1-6.2-3.2-9.3-3.2c-5.2,0-9.1,3.5-9.1,10.9v4.1h17.9v13.2h-17.9v46.9H104.7z"/>
		<path id="XMLID_233_" d="M269.1,241.6h-13.8l-10.8-27.2l-9.1-27.3l-9,27.6l-10.5,27H202L170.2,155h18.3l20.4,62.4l21-62.4h10.6
			l21.6,62.4L282,155h18.3L269.1,241.6z"/>
		<path id="XMLID_230_" d="M311.8,216.5c1,7.5,7.5,13,18.2,13c5.6,0,12.9-2.1,16.3-5.7l9.6,9.5c-6.4,6.7-16.9,9.9-26.2,9.9
			c-21,0-33.5-13-33.5-32.5c0-18.5,12.6-31.9,32.4-31.9c20.4,0,33.1,12.6,30.8,37.7H311.8z M344.9,204c-1-7.9-7.2-11.9-15.8-11.9
			c-8.2,0-14.8,4-17.1,11.9H344.9z"/>
		<path id="XMLID_228_" d="M386,155.1v86.4h-15v-86.4H386z"/>
		<path id="XMLID_225_" d="M462.5,155.1v86.4h-14.1l-1-8.4c-4.7,7.3-12.2,9.8-19.7,9.8c-17.9,0-31.4-11.9-31.4-31.9
			c0-21,13.2-31.9,31-31.9c6.4,0,16.4,3.5,20,9.8v-33.8H462.5z M411.4,211c0,10.6,7.7,17.9,17.3,17.9c9.5,0,17.7-6.9,17.7-17.9
			c0-10.6-8.2-17.8-17.7-17.8C419.1,193.2,411.4,200,411.4,211z"/>
		<path id="XMLID_222_" d="M492,163.4c0,11.7-17.8,11.7-17.8,0C474.2,151.7,492,151.7,492,163.4z M475.6,180.4v61.2h15.1v-61.2
			H475.6z"/>
		<path id="XMLID_220_" d="M549.2,241.6v-31.9c0-9.3-5.1-16.3-14.7-16.3c-9.3,0-15.6,7.8-15.6,17.1v31.2h-15v-61.1h13.5l1,8.3
			c6.2-6.1,12.4-9.1,20-9.1c14.3,0,25.8,10.8,25.8,29.9v32H549.2z"/>
		<path id="XMLID_217_" d="M625.1,174.4l11.1,8.4l-6.8,8.7c4.7,5.3,6.4,11.4,6.4,18.1c0,7.5-2.8,18.2-12.9,22.7
			c10.1,5.1,12.6,12.4,12.6,20.2c0,16.8-12.9,27.2-30.5,27.2c-17.7,0-30.9-10.8-30.9-27.2h15c0,7.9,7.3,13.1,15.9,13.1
			c8.7,0,15.5-4.7,15.5-13.1c0-8.4-7.9-12.2-15.5-12.2c-19,0-30.9-11.6-30.9-30.7s13.8-30.9,30.9-30.9c4.8,0,9.8,0.6,14,3.5
			L625.1,174.4z M589.1,209.5c0,10.6,7.2,16.9,15.9,16.9c8.7,0,15.8-6.4,15.8-16.9c0-10.5-7.2-17.2-15.8-17.2
			C596.3,192.3,589.1,198.9,589.1,209.5z"/>
	</g>
	<g id="XMLID_96_">
		<path id="XMLID_97_" class="st1" d="M92.7,194.7c-0.2,22.4-14,44.8-44.4,44.8S3.8,217.5,3.8,194.8c0-22.7,14.6-45.6,44.5-45.6
			C78.1,149.2,92.9,172,92.7,194.7z M19.9,195c0.4,14.2,8,29.4,28.4,29.4s28.1-15.3,28.3-29.5c0.2-14.6-7.9-30.9-28.3-30.9
			S19.5,180.4,19.9,195z"/>
		<path id="XMLID_100_" class="st1" d="M108.5,237.4v-46.9H97.1v-13.2h11.4v-4.1c0-16.3,11-23.9,23.2-23.9c5.3,0,10.9,1.7,15.8,4.9
			l-5.6,11.3c-3.2-2.1-6.2-3.2-9.3-3.2c-5.2,0-9.1,3.5-9.1,10.9v4.1h17.9v13.2h-17.9v46.9H108.5z"/>
		<path id="XMLID_102_" class="st1" d="M272.9,237.4h-13.8l-10.8-27.2l-9.1-27.3l-9,27.6l-10.5,27h-13.8L174,150.9h18.3l20.4,62.4
			l21-62.4h10.6l21.6,62.4l19.8-62.4h18.3L272.9,237.4z"/>
		<path id="XMLID_104_" class="st1" d="M315.6,212.3c1,7.5,7.5,13,18.2,13c5.6,0,12.9-2.1,16.3-5.7l9.6,9.5
			c-6.4,6.7-16.9,9.9-26.2,9.9c-21,0-33.5-13-33.5-32.5c0-18.5,12.6-31.9,32.4-31.9c20.4,0,33.1,12.6,30.8,37.7H315.6z M348.7,199.8
			c-1-7.9-7.2-11.9-15.8-11.9c-8.2,0-14.8,4-17.1,11.9H348.7z"/>
		<path id="XMLID_107_" class="st1" d="M389.8,151v86.4h-15V151H389.8z"/>
		<path id="XMLID_109_" class="st1" d="M466.3,151v86.4h-14.1l-1-8.4c-4.7,7.3-12.2,9.8-19.7,9.8c-17.9,0-31.4-11.9-31.4-31.9
			c0-21,13.2-31.9,31-31.9c6.4,0,16.4,3.5,20,9.8V151H466.3z M415.2,206.9c0,10.6,7.7,17.9,17.3,17.9c9.5,0,17.7-6.9,17.7-17.9
			c0-10.6-8.2-17.8-17.7-17.8C422.9,189.1,415.2,195.9,415.2,206.9z"/>
		<path id="XMLID_112_" class="st1" d="M495.8,159.3c0,11.7-17.8,11.7-17.8,0C478,147.5,495.8,147.5,495.8,159.3z M479.4,176.2v61.2
			h15.1v-61.2H479.4z"/>
		<path id="XMLID_115_" class="st1" d="M553,237.4v-31.9c0-9.3-5.1-16.3-14.7-16.3c-9.3,0-15.6,7.8-15.6,17.1v31.2h-15v-61.1h13.5
			l1,8.3c6.2-6.1,12.4-9.1,20-9.1c14.3,0,25.8,10.8,25.8,29.9v32H553z"/>
		<path id="XMLID_117_" class="st1" d="M628.9,170.3l11.1,8.4l-6.8,8.7c4.7,5.3,6.4,11.4,6.4,18.1c0,7.5-2.8,18.2-12.9,22.7
			c10.1,5.1,12.6,12.4,12.6,20.2c0,16.8-12.9,27.2-30.5,27.2c-17.7,0-30.9-10.8-30.9-27.2h15c0,7.9,7.3,13.1,15.9,13.1
			s15.5-4.7,15.5-13.1c0-8.4-7.9-12.2-15.5-12.2c-19,0-30.9-11.6-30.9-30.7s13.8-30.9,30.9-30.9c4.8,0,9.8,0.6,14,3.5L628.9,170.3z
			 M592.9,205.4c0,10.6,7.2,16.9,15.9,16.9c8.7,0,15.8-6.4,15.8-16.9c0-10.5-7.2-17.2-15.8-17.2
			C600.1,188.2,592.9,194.8,592.9,205.4z"/>
	</g>
	<g id="XMLID_188_">
		<path id="XMLID_212_" d="M6,127.8c2.8-0.7,5.3-1.9,7.5-3.6c2.2-1.6,3.9-4.5,5-8.4l22.7-74.7h24.6L43,115.8c-0.8,2.8-1.1,5-0.7,6.7
			c0.3,1.6,1,2.8,2,3.6c1,0.7,2.2,1.3,3.6,1.7l0.2,0.1l-0.6,2.2H4.9l0.7-2.2L6,127.8z M53.9,46.1l-11.5-0.2
			c-8.3-0.2-15,1.5-19.9,5.1c-4.9,3.6-9,7.9-12.2,12.9L8,63.8l6.3-18.1l1.6-4.6h39.4L53.9,46.1z M91.3,41.2l-1.2,4.6l-4.7,18.1
			L83,63.9c0-3-0.5-5.8-1.5-8.5c-1-2.7-3.2-5-6.4-6.9c-3.2-1.9-7.8-2.8-13.7-2.7l-11.5,0.2l1.5-4.9H91.3z"/>
		<path id="XMLID_209_" d="M98.2,50.4c-0.3-1.5-0.9-2.5-1.7-3.2c-0.8-0.6-1.9-1.1-3.1-1.5l0.6-2l31.8-5.2L98,130.2H75l22.5-73.6
			C98.3,54,98.6,51.9,98.2,50.4z M120.8,129.1c-2.2-1.7-3.6-4.3-4.1-7.6c-0.6-3.3,0-7.3,1.6-11.9l7.9-22.3c1.3-3.8,1.9-6.4,1.7-7.9
			c-0.2-1.4-0.7-2.2-1.5-2.2c-1.4,0-3.5,1.5-6.4,4.5c-2.8,3-5.8,7.3-9,13c-3.1,5.6-5.9,12.2-8.2,19.6l3.1-16.8
			c4.9-10.3,10.2-18.1,15.8-23.4c5.6-5.3,11.2-7.9,16.8-7.9c3.2,0,5.9,0.8,8,2.4c2.1,1.6,3.5,3.8,4.2,6.6c0.7,2.8,0.4,6-0.9,9.5
			l-8.8,25.8c-1.2,3.4-1.6,5.9-1.4,7.5c0.2,1.6,0.9,2.5,2,2.5c1.1,0,2.5-0.8,4.1-2.4c1.7-1.6,3.8-4.6,6.4-8.8l1.5,1.2
			c-2.7,6.2-6.3,11.2-10.8,15.1c-4.5,3.9-9.3,5.9-14.4,5.9C125.6,131.7,123,130.8,120.8,129.1z"/>
		<path id="XMLID_207_" d="M164.3,126.6c-4.1-3.3-6.7-7.9-7.8-13.7c-1.1-5.8-0.4-12.1,2.3-18.9c2.3-6,5.5-11.1,9.6-15.3
			c4.1-4.2,8.6-7.3,13.7-9.3c5-2.1,10.1-3.1,15.3-3.1c4.3,0,8.1,0.7,11.4,2c3.3,1.3,5.8,3.3,7.3,5.8c1.5,2.6,1.8,5.6,0.8,9
			c-1.2,3.9-3.5,7-7.1,9.5c-3.6,2.4-7.9,4.3-13,5.6c-5.1,1.3-11.3,2.4-18.4,3.3l-3.1-2.8c4.8-0.5,8.8-1.7,12-3.7
			c3.2-2,5.7-4.3,7.5-7c1.8-2.7,3.2-5.6,4.1-8.7c0.7-2.6,1.1-4.7,0.9-6.4c-0.1-1.7-1-2.6-2.7-2.6c-1.3,0-2.8,0.7-4.5,2.2
			c-1.7,1.5-3.3,3.6-4.9,6.2c-1.6,2.7-3.1,5.7-4.4,9.2c-2.4,6.5-3.6,12.2-3.7,16.9c-0.1,4.8,0.8,8.4,2.8,10.9c1.9,2.5,4.6,3.9,7.9,4
			c3,0.2,6.2-0.7,9.6-2.7c3.4-1.9,6.6-5.3,9.5-10.1l1.5,1.1c-3.8,8.2-8.5,14.1-14.2,17.8c-5.7,3.7-11.4,5.6-17.2,5.6
			C173.4,131.7,168.4,130,164.3,126.6z"/>
		<path id="XMLID_203_" d="M230.2,127.8c2.4-0.7,4.6-1.9,6.5-3.5c1.9-1.6,3.5-4.3,4.6-8L260.1,55c0.8-2.7,1.1-4.9,0.7-6.5
			c-0.4-1.6-1.1-2.8-2.1-3.5c-1-0.7-2.3-1.3-3.9-1.7l0.6-2.2h31.8l-23,75.2c-0.8,2.6-1,4.8-0.6,6.4c0.4,1.6,1.1,2.8,2.2,3.5
			c1,0.7,2.3,1.3,3.9,1.7c0.1,0.1,0.1,0.1,0.2,0.1c0,0,0.1,0,0.2,0l-0.6,2.2H229l0.6-2.2L230.2,127.8z M289.5,96.5
			c0.1-1.8,0-3.4-0.3-4.7c-0.3-1.3-1.1-2.5-2.5-3.4c-1.4-0.9-3.5-1.4-6.3-1.4h-11l1.4-4.5h11c2.9,0,5.3-0.5,7.2-1.4
			c1.9-0.9,3.4-2,4.5-3.3c1.1-1.3,2.1-2.7,3.1-4.4h2.3l-7.5,23.2h-1.9V96.5z M311.6,56c-1-2.7-3-5.1-5.9-7.3
			c-2.9-2.1-6.9-3.3-12.1-3.5l-11.9-0.4l1.6-3.7h37.3l-5.2,23l-2.2-0.1C313.2,61.4,312.6,58.7,311.6,56z"/>
		<path id="XMLID_200_" d="M306.4,129.2c-2.2-1.6-3.7-3.8-4.4-6.7c-0.7-2.8-0.4-6,0.9-9.5l10-27c1.1-2.8,1.4-5,1.1-6.6
			c-0.4-1.6-1.1-2.3-2.2-2.3c-1.1,0-2.5,0.8-4.1,2.4c-1.7,1.6-3.8,4.6-6.4,8.8l-1.5-1.2c2.6-6,6.4-11,11.2-15c4.8-4,9.8-6,15-6
			c3.3,0,6,0.8,8,2.5c2.1,1.7,3.3,4.1,3.6,7.3c0.3,3.2-0.3,6.9-2,11.2l-8.3,21.1c-1.3,3.3-2.1,5.9-2.3,7.7c-0.2,1.8-0.2,3,0.2,3.6
			c0.4,0.6,0.9,0.9,1.5,0.9c1.3,0,3.2-1.5,5.7-4.6c2.5-3,5.1-7.4,7.9-13c2.8-5.6,5.4-12.1,7.7-19.5l-3.1,16.8
			c-5.1,10.6-10.1,18.4-15.1,23.6c-4.9,5.2-10.1,7.7-15.6,7.7C311.3,131.7,308.7,130.8,306.4,129.2z M361.6,118.4
			c0.3,1.5,1,2.3,2.1,2.3c1.1,0,2.5-0.8,4.1-2.4c1.7-1.6,3.8-4.6,6.4-8.8l1.5,1.2c-2.7,6.2-6.3,11.2-10.8,15.1
			c-4.5,3.9-9.3,5.9-14.4,5.9c-3.3,0-6-0.9-8-2.6c-2-1.7-3.2-4.3-3.6-7.8c-0.4-3.5,0.2-7.7,1.7-12.9L353,67.1h23.1l-13.7,44.6
			C361.5,114.6,361.2,116.8,361.6,118.4z"/>
		<path id="XMLID_197_" d="M382.6,129.1c-2.1-1.7-3.5-4.2-4-7.5c-0.5-3.3-0.1-7.4,1.3-12.1l11.4-38.2h-8.5l0.4-1.7
			c6.3-2.1,12.6-5.1,18.9-9c6.3-3.8,11.9-8.3,16.6-13.3h2.7l-18.9,63.5c-1.1,3.4-1.4,5.9-1.1,7.4c0.3,1.6,1.1,2.3,2.3,2.3
			c1.5,0,3.3-0.9,5.6-2.8c2.2-1.9,4.5-4.7,6.7-8.4l1.4,1.1c-3.1,6.2-7,11.3-11.7,15.2c-4.7,4-9.5,5.9-14.7,5.9
			C387.5,131.7,384.7,130.8,382.6,129.1z M383.1,69.6l12.4-2.5h33.9l-1.2,4.2h-45.4L383.1,69.6z"/>
		<path id="XMLID_194_" d="M426,129.2c-2.2-1.6-3.7-3.8-4.4-6.7c-0.7-2.8-0.4-6,0.9-9.5l10-27c1.1-2.8,1.4-5,1.1-6.6
			c-0.4-1.6-1.1-2.3-2.2-2.3c-1.1,0-2.5,0.8-4.1,2.4c-1.7,1.6-3.8,4.6-6.4,8.8l-1.5-1.2c2.6-6,6.4-11,11.2-15c4.8-4,9.8-6,15-6
			c3.3,0,6,0.8,8,2.5c2.1,1.7,3.3,4.1,3.6,7.3c0.3,3.2-0.3,6.9-2,11.2l-8.3,21.1c-1.3,3.3-2.1,5.9-2.3,7.7c-0.2,1.8-0.2,3,0.2,3.6
			c0.4,0.6,0.9,0.9,1.5,0.9c1.3,0,3.2-1.5,5.7-4.6c2.5-3,5.1-7.4,7.9-13c2.8-5.6,5.4-12.1,7.7-19.5l-3.1,16.8
			c-5.1,10.6-10.1,18.4-15.1,23.6c-4.9,5.2-10.1,7.7-15.6,7.7C430.8,131.7,428.2,130.8,426,129.2z M481.1,118.4
			c0.3,1.5,1,2.3,2.1,2.3c1.1,0,2.5-0.8,4.1-2.4c1.7-1.6,3.8-4.6,6.4-8.8l1.5,1.2c-2.7,6.2-6.3,11.2-10.8,15.1
			c-4.5,3.9-9.3,5.9-14.4,5.9c-3.3,0-6-0.9-8-2.6c-2-1.7-3.2-4.3-3.6-7.8c-0.4-3.5,0.2-7.7,1.7-12.9l12.5-41.3h23.1L482,111.7
			C481.1,114.6,480.8,116.8,481.1,118.4z"/>
		<path id="XMLID_191_" d="M510.2,74.2c-0.2-1.4-0.7-2.5-1.4-3.2c-0.7-0.7-1.6-1.3-2.7-1.7c-0.2-0.1-0.5-0.2-0.7-0.2l0.6-2h30
			l-19.3,63.1h-23L509.4,80C510.2,77.6,510.4,75.7,510.2,74.2z M536.1,77.4c3.3-4.3,6.9-7.4,11.1-9.5c4.1-2,8.5-2.4,13.2-1.2
			l-9.6,20.8h-1.4c-2.8-1.8-5.9-2.1-9.3-0.9c-3.4,1.2-6.8,4.2-10,8.8c-3.3,4.6-6.1,10.9-8.5,18.9l6.3-21.9
			C530.1,86.7,532.8,81.7,536.1,77.4z"/>
		<path id="XMLID_189_" d="M558.6,126.6c-4.1-3.3-6.7-7.9-7.8-13.7c-1.1-5.8-0.4-12.1,2.3-18.9c2.3-6,5.5-11.1,9.6-15.3
			c4.1-4.2,8.6-7.3,13.7-9.3c5-2.1,10.1-3.1,15.3-3.1c4.3,0,8.1,0.7,11.4,2c3.3,1.3,5.8,3.3,7.3,5.8c1.5,2.6,1.8,5.6,0.8,9
			c-1.2,3.9-3.5,7-7.1,9.5c-3.6,2.4-7.9,4.3-13,5.6c-5.1,1.3-11.3,2.4-18.4,3.3l-3.1-2.8c4.8-0.5,8.8-1.7,12-3.7s5.7-4.3,7.5-7
			c1.8-2.7,3.2-5.6,4.1-8.7c0.7-2.6,1.1-4.7,0.9-6.4c-0.1-1.7-1-2.6-2.7-2.6c-1.3,0-2.8,0.7-4.5,2.2c-1.7,1.5-3.3,3.6-4.9,6.2
			c-1.6,2.7-3.1,5.7-4.4,9.2c-2.4,6.5-3.6,12.2-3.7,16.9c-0.1,4.8,0.8,8.4,2.8,10.9c1.9,2.5,4.6,3.9,7.9,4c3,0.2,6.2-0.7,9.6-2.7
			c3.4-1.9,6.6-5.3,9.5-10.1l1.5,1.1c-3.8,8.2-8.5,14.1-14.2,17.8c-5.7,3.7-11.4,5.6-17.2,5.6C567.7,131.7,562.7,130,558.6,126.6z"
			/>
	</g>
	<g id="XMLID_65_">
		<path id="XMLID_67_" class="st2" d="M10.8,121.8c2.8-0.7,5.3-1.9,7.5-3.6c2.2-1.6,3.9-4.5,5-8.4l22.7-74.7h24.6l-22.9,74.7
			c-0.8,2.8-1.1,5-0.7,6.7c0.3,1.6,1,2.8,2,3.6c1,0.7,2.2,1.3,3.6,1.7l0.2,0.1l-0.6,2.2H9.7l0.7-2.2L10.8,121.8z M58.7,40.1
			l-11.5-0.2c-8.3-0.2-15,1.5-19.9,5.1c-4.9,3.6-9,7.9-12.2,12.9l-2.2-0.1l6.3-18.1l1.6-4.6h39.4L58.7,40.1z M96.2,35.1l-1.2,4.6
			l-4.7,18.1l-2.3,0.1c0-3-0.5-5.8-1.5-8.5c-1-2.7-3.2-5-6.4-6.9c-3.2-1.9-7.8-2.8-13.7-2.7l-11.5,0.2l1.5-4.9H96.2z"/>
		<path id="XMLID_71_" class="st2" d="M103.1,44.4c-0.3-1.5-0.9-2.5-1.7-3.2c-0.8-0.6-1.9-1.1-3.1-1.5l0.6-2l31.8-5.2l-27.8,91.6
			h-23l22.5-73.6C103.2,48,103.4,45.9,103.1,44.4z M125.6,123c-2.2-1.7-3.6-4.3-4.1-7.6c-0.6-3.3,0-7.3,1.6-11.9l7.9-22.3
			c1.3-3.8,1.9-6.4,1.7-7.9c-0.2-1.4-0.7-2.2-1.5-2.2c-1.4,0-3.5,1.5-6.4,4.5c-2.8,3-5.8,7.3-9,13c-3.1,5.6-5.9,12.2-8.2,19.6
			l3.1-16.8c4.9-10.3,10.2-18.1,15.8-23.4c5.6-5.3,11.2-7.9,16.8-7.9c3.2,0,5.9,0.8,8,2.4c2.1,1.6,3.5,3.8,4.2,6.6
			c0.7,2.8,0.4,6-0.9,9.5l-8.8,25.8c-1.2,3.4-1.6,5.9-1.4,7.5c0.2,1.6,0.9,2.5,2,2.5c1.1,0,2.5-0.8,4.1-2.4c1.7-1.6,3.8-4.6,6.4-8.8
			l1.5,1.2c-2.7,6.2-6.3,11.2-10.8,15.1c-4.5,3.9-9.3,5.9-14.4,5.9C130.4,125.6,127.8,124.8,125.6,123z"/>
		<path id="XMLID_74_" class="st2" d="M169.2,120.6c-4.1-3.3-6.7-7.9-7.8-13.7c-1.1-5.8-0.4-12.1,2.3-18.9c2.3-6,5.5-11.1,9.6-15.3
			c4.1-4.2,8.6-7.3,13.7-9.3c5-2.1,10.1-3.1,15.3-3.1c4.3,0,8.1,0.7,11.4,2c3.3,1.3,5.8,3.3,7.3,5.8c1.5,2.6,1.8,5.6,0.8,9
			c-1.2,3.9-3.5,7-7.1,9.5c-3.6,2.4-7.9,4.3-13,5.6c-5.1,1.3-11.3,2.4-18.4,3.3l-3.1-2.8c4.8-0.5,8.8-1.7,12-3.7
			c3.2-2,5.7-4.3,7.5-7c1.8-2.7,3.2-5.6,4.1-8.7c0.7-2.6,1.1-4.7,0.9-6.4c-0.1-1.7-1-2.6-2.7-2.6c-1.3,0-2.8,0.7-4.5,2.2
			c-1.7,1.5-3.3,3.6-4.9,6.2c-1.6,2.7-3.1,5.7-4.4,9.2c-2.4,6.5-3.6,12.2-3.7,16.9c-0.1,4.8,0.8,8.4,2.8,10.9c1.9,2.5,4.6,3.9,7.9,4
			c3,0.2,6.2-0.7,9.6-2.7c3.4-1.9,6.6-5.3,9.5-10.1l1.5,1.1c-3.8,8.2-8.5,14.1-14.2,17.8c-5.7,3.7-11.4,5.6-17.2,5.6
			C178.2,125.6,173.2,124,169.2,120.6z"/>
		<path id="XMLID_76_" class="st2" d="M235,121.8c2.4-0.7,4.6-1.9,6.5-3.5c1.9-1.6,3.5-4.3,4.6-8L264.9,49c0.8-2.7,1.1-4.9,0.7-6.5
			c-0.4-1.6-1.1-2.8-2.1-3.5c-1-0.7-2.3-1.3-3.9-1.7l0.6-2.2H292l-23,75.2c-0.8,2.6-1,4.8-0.6,6.4c0.4,1.6,1.1,2.8,2.2,3.5
			c1,0.7,2.3,1.3,3.9,1.7c0.1,0.1,0.1,0.1,0.2,0.1c0,0,0.1,0,0.2,0l-0.6,2.2h-40.3l0.6-2.2L235,121.8z M294.3,90.5
			c0.1-1.8,0-3.4-0.3-4.7c-0.3-1.3-1.1-2.5-2.5-3.4c-1.4-0.9-3.5-1.4-6.3-1.4h-11l1.4-4.5h11c2.9,0,5.3-0.5,7.2-1.4
			c1.9-0.9,3.4-2,4.5-3.3c1.1-1.3,2.1-2.7,3.1-4.4h2.3l-7.5,23.2h-1.9V90.5z M316.4,50c-1-2.7-3-5.1-5.9-7.3
			c-2.9-2.1-6.9-3.3-12.1-3.5l-11.9-0.4l1.6-3.7h37.3l-5.2,23l-2.2-0.1C318,55.4,317.4,52.7,316.4,50z"/>
		<path id="XMLID_80_" class="st2" d="M311.3,123.2c-2.2-1.6-3.7-3.8-4.4-6.7c-0.7-2.8-0.4-6,0.9-9.5l10-27c1.1-2.8,1.4-5,1.1-6.6
			c-0.4-1.6-1.1-2.3-2.2-2.3c-1.1,0-2.5,0.8-4.1,2.4c-1.7,1.6-3.8,4.6-6.4,8.8l-1.5-1.2c2.6-6,6.4-11,11.2-15c4.8-4,9.8-6,15-6
			c3.3,0,6,0.8,8,2.5c2.1,1.7,3.3,4.1,3.6,7.3c0.3,3.2-0.3,6.9-2,11.2l-8.3,21.1c-1.3,3.3-2.1,5.9-2.3,7.7c-0.2,1.8-0.2,3,0.2,3.6
			c0.4,0.6,0.9,0.9,1.5,0.9c1.3,0,3.2-1.5,5.7-4.6c2.5-3,5.1-7.4,7.9-13c2.8-5.6,5.4-12.1,7.7-19.5l-3.1,16.8
			c-5.1,10.6-10.1,18.4-15.1,23.6c-4.9,5.2-10.1,7.7-15.6,7.7C316.1,125.6,313.5,124.8,311.3,123.2z M366.4,112.3
			c0.3,1.5,1,2.3,2.1,2.3c1.1,0,2.5-0.8,4.1-2.4c1.7-1.6,3.8-4.6,6.4-8.8l1.5,1.2c-2.7,6.2-6.3,11.2-10.8,15.1
			c-4.5,3.9-9.3,5.9-14.4,5.9c-3.3,0-6-0.9-8-2.6c-2-1.7-3.2-4.3-3.6-7.8c-0.4-3.5,0.2-7.7,1.7-12.9l12.5-41.3H381l-13.7,44.6
			C366.4,108.6,366.1,110.8,366.4,112.3z"/>
		<path id="XMLID_85_" class="st2" d="M387.4,123.1c-2.1-1.7-3.5-4.2-4-7.5c-0.5-3.3-0.1-7.4,1.3-12.1l11.4-38.2h-8.5l0.4-1.7
			c6.3-2.1,12.6-5.1,18.9-9c6.3-3.8,11.9-8.3,16.6-13.3h2.7l-18.9,63.5c-1.1,3.4-1.4,5.9-1.1,7.4c0.3,1.6,1.1,2.3,2.3,2.3
			c1.5,0,3.3-0.9,5.6-2.8c2.2-1.9,4.5-4.7,6.7-8.4l1.4,1.1c-3.1,6.2-7,11.3-11.7,15.2c-4.7,4-9.5,5.9-14.7,5.9
			C392.3,125.6,389.6,124.8,387.4,123.1z M387.9,63.6l12.4-2.5h33.9l-1.2,4.2h-45.4L387.9,63.6z"/>
		<path id="XMLID_88_" class="st2" d="M430.8,123.2c-2.2-1.6-3.7-3.8-4.4-6.7c-0.7-2.8-0.4-6,0.9-9.5l10-27c1.1-2.8,1.4-5,1.1-6.6
			c-0.4-1.6-1.1-2.3-2.2-2.3c-1.1,0-2.5,0.8-4.1,2.4c-1.7,1.6-3.8,4.6-6.4,8.8l-1.5-1.2c2.6-6,6.4-11,11.2-15c4.8-4,9.8-6,15-6
			c3.3,0,6,0.8,8,2.5c2.1,1.7,3.3,4.1,3.6,7.3c0.3,3.2-0.3,6.9-2,11.2l-8.3,21.1c-1.3,3.3-2.1,5.9-2.3,7.7c-0.2,1.8-0.2,3,0.2,3.6
			c0.4,0.6,0.9,0.9,1.5,0.9c1.3,0,3.2-1.5,5.7-4.6c2.5-3,5.1-7.4,7.9-13c2.8-5.6,5.4-12.1,7.7-19.5l-3.1,16.8
			c-5.1,10.6-10.1,18.4-15.1,23.6c-4.9,5.2-10.1,7.7-15.6,7.7C435.7,125.6,433,124.8,430.8,123.2z M486,112.3c0.3,1.5,1,2.3,2.1,2.3
			c1.1,0,2.5-0.8,4.1-2.4c1.7-1.6,3.8-4.6,6.4-8.8l1.5,1.2c-2.7,6.2-6.3,11.2-10.8,15.1c-4.5,3.9-9.3,5.9-14.4,5.9
			c-3.3,0-6-0.9-8-2.6c-2-1.7-3.2-4.3-3.6-7.8c-0.4-3.5,0.2-7.7,1.7-12.9l12.5-41.3h23.1l-13.7,44.6
			C485.9,108.6,485.6,110.8,486,112.3z"/>
		<path id="XMLID_91_" class="st2" d="M515.1,68.2c-0.2-1.4-0.7-2.5-1.4-3.2c-0.7-0.7-1.6-1.3-2.7-1.7c-0.2-0.1-0.5-0.2-0.7-0.2
			l0.6-2h30l-19.3,63.1h-23L514.3,74C515,71.6,515.3,69.7,515.1,68.2z M540.9,71.4c3.3-4.3,6.9-7.4,11.1-9.5c4.1-2,8.5-2.4,13.2-1.2
			l-9.6,20.8h-1.4c-2.8-1.8-5.9-2.1-9.3-0.9c-3.4,1.2-6.8,4.2-10,8.8c-3.3,4.6-6.1,10.9-8.5,18.9l6.3-21.9
			C534.9,80.7,537.7,75.6,540.9,71.4z"/>
		<path id="XMLID_94_" class="st2" d="M563.4,120.6c-4.1-3.3-6.7-7.9-7.8-13.7c-1.1-5.8-0.4-12.1,2.3-18.9c2.3-6,5.5-11.1,9.6-15.3
			c4.1-4.2,8.6-7.3,13.7-9.3c5-2.1,10.1-3.1,15.3-3.1c4.3,0,8.1,0.7,11.4,2c3.3,1.3,5.8,3.3,7.3,5.8c1.5,2.6,1.8,5.6,0.8,9
			c-1.2,3.9-3.5,7-7.1,9.5c-3.6,2.4-7.9,4.3-13,5.6c-5.1,1.3-11.3,2.4-18.4,3.3l-3.1-2.8c4.8-0.5,8.8-1.7,12-3.7s5.7-4.3,7.5-7
			c1.8-2.7,3.2-5.6,4.1-8.7c0.7-2.6,1.1-4.7,0.9-6.4c-0.1-1.7-1-2.6-2.7-2.6c-1.3,0-2.8,0.7-4.5,2.2c-1.7,1.5-3.3,3.6-4.9,6.2
			c-1.6,2.7-3.1,5.7-4.4,9.2c-2.4,6.5-3.6,12.2-3.7,16.9c-0.1,4.8,0.8,8.4,2.8,10.9c1.9,2.5,4.6,3.9,7.9,4c3,0.2,6.2-0.7,9.6-2.7
			c3.4-1.9,6.6-5.3,9.5-10.1l1.5,1.1c-3.8,8.2-8.5,14.1-14.2,17.8c-5.7,3.7-11.4,5.6-17.2,5.6C572.5,125.6,567.5,124,563.4,120.6z"
			/>
	</g>
</g>
</svg>
