<?xml version="1.0" encoding="utf-8"?>
<!-- Generator: Adobe Illustrator 19.0.0, SVG Export Plug-In . SVG Version: 6.00 Build 0)  -->
<svg version="1.1" xmlns="http://www.w3.org/2000/svg" xmlns:xlink="http://www.w3.org/1999/xlink" x="0px" y="0px"
	 viewBox="-11 340 589 114" style="enable-background:new -11 340 589 114;" xml:space="preserve">
<style type="text/css">
	.st0{fill:#EBFFAA;}
	.st1{fill:#3AF9BA;}
	.st2{fill:#E90052;}
	.st3{clip-path:url(#XMLID_3_);}
</style>
<g id="Calque_1">
	<g id="XMLID_783_">
		<g id="XMLID_849_">
			<path id="XMLID_850_" class="st0" d="M450,406.4c1.8-3.6,5.7-3.7,8.4-2.3c2.8,1.4,4.9,4.5,3,8.2c-1.8,3.6-5.7,3.9-8.4,2.5
				C450.1,413.3,448,410.1,450,406.4z M452.4,374.2c4.8-9.1,15.6-9.5,25.4-4.4c8.9,4.6,15.1,13.9,9.9,23.3
				c-4.7,9.1-14.5,5.5-18.7,6.6c-1.6,0.5-2.9,0.7-4.3,3.7l-9.3-4.8c4.1-8,8.5-8,13.8-7.7c4.1,0.2,7.8,0.1,9.3-2.8
				c2.6-4.9-1.7-8.2-5.4-10.2c-6.3-3.3-10-2-11.6,1L452.4,374.2z"/>
		</g>
	</g>
	<g id="XMLID_634_">
		<path id="XMLID_744_" class="st1" d="M184.1,373.4v-1.2h24.5v1.2c-1.7,0.5-5.5,1.2-3.8,6.7l8.4,25.6l7.4-20l-1.7-5.5
			c-1.6-5-4.3-6.1-6.2-6.7v-1.2h24.6v1.2c-2.2,0.6-5.4,1.4-3.8,6.7l8.1,25.6l9.1-25.6c1.7-4.7-1.2-6.1-3.6-6.6v-1.2h14.5v1.2
			c-2.6,0.6-6.1,1.6-7.8,6.6l-15.3,43h-5.7L222,389.9l-12.1,33.3h-5.7l-14-43C188.6,375.1,186,374.1,184.1,373.4z"/>
		<path id="XMLID_746_" class="st1" d="M252,405.2c0-11.9,7-18.6,17.8-18.6c12.7,0,17.2,9.8,17,18.1h-21.1c0.7,9.2,5.2,12.6,10,12.6
			c3.2,0,6.5-1.4,9.9-4.9l1,0.2c-1.4,4.5-7,11.5-16.3,11.5C261.8,424,252,418.4,252,405.2z M273.9,402.2c0.1-4.4-0.2-13-4-13
			c-4,0-4.2,9.6-4.2,13H273.9z"/>
		<path id="XMLID_749_" class="st1" d="M290.7,415.8v-35.4c0-4.8-2.9-5.3-4.6-5.5l-0.1-1.1l18.1-2.9v45c0,4.8,2.9,5.8,4.6,6.3v1.1
			h-22.5V422C287.9,421.5,290.7,420.6,290.7,415.8z"/>
		<path id="XMLID_751_" class="st1" d="M331,419c-2.2,2.6-5.5,4.5-9.8,4.5c-7,0-13.5-5.3-13.5-18.1s7.7-19.2,16.5-19.2
			c2.2,0,4.4,0.4,6.5,1.2v-7.2c0-4.8-2.9-5.3-4.6-5.5l-0.1-1.1l18.3-2.9v45c0,4.8,2.9,5.8,4.6,6.3v1.1h-14.5
			C332.5,421.9,331.4,420.6,331,419z M327.5,418c1.2,0,2.4-0.6,3.3-1.5v-17.6c0-6.1-0.8-9.8-4.1-9.8c-2.7,0-4.9,2.5-4.9,11.8
			C321.8,410.8,322.9,418,327.5,418z"/>
		<path id="XMLID_760_" class="st1" d="M353,415.8v-21.4c0-4.8-2.9-5.8-4.6-6.3V387h17.8v28.7c0,4.8,2.9,5.8,4.6,6.3v1.1h-22.4v-1.1
			C350.2,421.5,353,420.6,353,415.8z M358.5,368.9c4,0,7.4,3.2,7.4,7.2s-3.4,7.2-7.4,7.2c-3.9,0-7.4-3.2-7.4-7.2
			S354.4,368.9,358.5,368.9z"/>
		<path id="XMLID_763_" class="st1" d="M397.1,415.8v-15.5c0-4.2-2-5.5-4.4-5.5c-1.7-0.1-3.4,0.5-4.8,1.2v19.8
			c0,4.8,2.2,5.8,3.5,6.3v1.1H370V422c1.7-0.5,4.6-1.4,4.6-6.3v-21.4c0-4.8-2.9-5.8-4.6-6.3V387h17.9v6.6c1.5-3.4,5.2-7,11.1-7
			c6.3,0,11.4,4.2,11.4,11.7v17.4c0,4.8,2.9,5.8,4.6,6.3v1.1h-21.4v-1.1C394.9,421.5,397.1,420.6,397.1,415.8z"/>
		<path id="XMLID_765_" class="st1" d="M415.5,431.8c0-3.3,3.2-5.3,6.3-6c-5.5-1.7-6.5-5.2-6.5-7.3c0-3.9,3.3-6.8,8.3-8.3
			c-4.1-2.2-7.2-5.8-7.2-10.8c0-8.7,8.8-12.8,16.4-12.8c2.9,0,6.1,0.6,8.8,2c2-5.3,7.2-7.3,11.6-6.3l-1.1,8h-0.5
			c-2.6-1.6-5.1-1.7-7.8-0.5c3.3,2.2,5.5,5.3,5.5,9.7c0,8.7-9,13-16.6,13c-2.4,0-4.7-0.4-7.1-1.2c-1.2,0.8-2.2,1.7-2.2,2.8
			c0,1.6,2.4,2.4,6.5,2.5l10.8,0.1c6.2,0.1,11.3,3.8,11.3,10.2c0,8-7.7,12.5-19.6,12.5C425.6,439.2,415.5,437.8,415.5,431.8z
			 M435,436.2c5.7,0,9.7-2.2,9.7-5.4c0-2.9-3.1-3.7-6.8-3.7l-8.7-0.1c-1.4,0-2.8-0.1-4-0.3c-1,0.8-1.2,2.1-1.2,2.9
			C423.8,433.3,428.3,436.2,435,436.2z M432.7,409.9c3.1,0,3.6-6.3,3.6-10.4c0-4.2-0.5-10.4-3.6-10.4s-3.5,6.3-3.5,10.4
			C429.1,403.5,429.6,409.9,432.7,409.9z"/>
	</g>
	<g>
		<path class="st2" d="M132.9,371.4l-3.3,18.8H118l0.8-7.2h-4.6l-4.6,26.1h5.7l-1.9,10.8H88.1l1.9-10.8h5.8l4.6-26.1h-4.7l-1.7,7.2
			H82.4l3.3-18.8H132.9z"/>
		<path class="st2" d="M135.6,395.1h-4.8l1.7-9.5h17.5l-3.7,21.1c-0.7,4.2,2,4,5.1,3.4l-1.7,9.4c-11.4,3.1-18.7,0.8-16.3-12.6
			L135.6,395.1z M146.7,369.5c3.1,0,6,1.9,6,5.6c0,4.9-4.5,7.6-8.3,7.6c-3.4,0-6.3-1.9-6.3-5.6C138.1,372.2,142.5,369.5,146.7,369.5
			z"/>
		<path class="st2" d="M200.7,394.9H196l-4.4,24.8c-2.1,11.8-9.9,17.4-21.9,17.4c-10.7,0-18.2-4.6-16.9-14.7l12.7,0.1
			c0,2.9,2.4,4.2,5.4,4.2c4.2,0,7.4-2.6,8.2-6.7l0.8-4.5c-3.4,3.7-8.5,4.6-12.3,4.4c-8.5-0.5-13-5.9-13-13.9
			c0-11.9,8.7-21.2,20.2-21.2c4.9,0,8.1,1.7,9.3,4.4l1.3-3.7c5.6,0,11.1,0,16.7,0L200.7,394.9z M167.7,403.9c0,3.7,2.4,6,5.7,6
			c4.9,0,8.6-4,8.6-8.7c0-3.7-2-6-6-6C171.7,395.1,167.7,398.4,167.7,403.9z"/>
	</g>
</g>
<g id="Calque_2">
	<g>
		<defs>
			<path id="XMLID_1_" d="M184.1,373.4v-1.2h24.5v1.2c-1.7,0.5-5.5,1.2-3.8,6.7l8.4,25.6l7.4-20l-1.7-5.5c-1.6-5-4.3-6.1-6.2-6.7
				v-1.2h24.6v1.2c-2.2,0.6-5.4,1.4-3.8,6.7l8.1,25.6l9.1-25.6c1.7-4.7-1.2-6.1-3.6-6.6v-1.2h14.5v1.2c-2.6,0.6-6.1,1.6-7.8,6.6
				l-15.3,43h-5.7L222,389.9l-12.1,33.3h-5.7l-14-43C188.6,375.1,186,374.1,184.1,373.4z"/>
		</defs>
		<clipPath id="XMLID_3_">
			<use xlink:href="#XMLID_1_"  style="overflow:visible;"/>
		</clipPath>
		<path class="st3" d="M200.7,394.9H196l-4.4,24.8c-2.1,11.8-9.9,17.4-21.9,17.4c-10.7,0-18.2-4.6-16.9-14.7l12.7,0.1
			c0,2.9,2.4,4.2,5.4,4.2c4.2,0,7.4-2.6,8.2-6.7l0.8-4.5c-3.4,3.7-8.5,4.6-12.3,4.4c-8.5-0.5-13-5.9-13-13.9
			c0-11.9,8.7-21.2,20.2-21.2c4.9,0,8.1,1.7,9.3,4.4l1.3-3.7c5.6,0,11.1,0,16.7,0L200.7,394.9z M167.7,403.9c0,3.7,2.4,6,5.7,6
			c4.9,0,8.6-4,8.6-8.7c0-3.7-2-6-6-6C171.7,395.1,167.7,398.4,167.7,403.9z"/>
	</g>
</g>
</svg>
