<?xml version="1.0" encoding="utf-8"?>
<!-- Generator: Adobe Illustrator 19.0.0, SVG Export Plug-In . SVG Version: 6.00 Build 0)  -->
<svg version="1.1" xmlns="http://www.w3.org/2000/svg" xmlns:xlink="http://www.w3.org/1999/xlink" x="0px" y="0px"
	 viewBox="0 0 589 114" style="enable-background:new 0 0 589 114;" xml:space="preserve">
<style type="text/css">
	.st0{display:none;}
	.st1{display:inline;}
	.st2{fill:#EBFFAA;}
	.st3{fill:#E90052;}
	.st4{fill:#3AF9BA;}
	.st5{clip-path:url(#XMLID_136_);}
	.st6{clip-path:url(#XMLID_137_);}
	.st7{clip-path:url(#XMLID_138_);}
	.st8{clip-path:url(#XMLID_139_);}
	.st9{clip-path:url(#XMLID_140_);}
	.st10{clip-path:url(#XMLID_141_);}
	.st11{clip-path:url(#XMLID_142_);}
	.st12{clip-path:url(#XMLID_143_);}
	.st13{clip-path:url(#XMLID_144_);}
	.st14{clip-path:url(#XMLID_145_);}
	.st15{clip-path:url(#XMLID_146_);}
	.st16{clip-path:url(#XMLID_147_);}
	.st17{clip-path:url(#XMLID_148_);}
	.st18{clip-path:url(#XMLID_149_);}
	.st19{clip-path:url(#XMLID_150_);}
	.st20{clip-path:url(#XMLID_151_);}
	.st21{clip-path:url(#XMLID_152_);}
	.st22{clip-path:url(#XMLID_153_);}
	.st23{clip-path:url(#XMLID_154_);}
	.st24{clip-path:url(#XMLID_155_);}
	.st25{clip-path:url(#XMLID_156_);}
	.st26{clip-path:url(#XMLID_157_);}
	.st27{clip-path:url(#XMLID_158_);}
	.st28{clip-path:url(#XMLID_159_);}
</style>
<g id="Calque_1" class="st0">
	<g id="XMLID_783_" class="st1">
		<g id="XMLID_849_">
			<path id="XMLID_850_" class="st2" d="M474.2,85c1.8-3.5,5.5-3.6,8.2-2.2c2.7,1.4,4.8,4.4,2.9,8c-1.8,3.5-5.5,3.8-8.2,2.4
				C474.4,91.8,472.3,88.6,474.2,85z M476.7,53.8c4.7-8.9,15.2-9.2,24.7-4.3c8.7,4.5,14.7,13.5,9.6,22.7c-4.6,8.9-14.1,5.4-18.2,6.4
				c-1.6,0.5-2.8,0.7-4.2,3.6l-9.1-4.7c4-7.8,8.3-7.8,13.4-7.5c4,0.2,7.6,0.1,9.1-2.7c2.5-4.8-1.7-8-5.3-9.9
				c-6.1-3.2-9.7-1.9-11.3,1L476.7,53.8z"/>
		</g>
		<path id="XMLID_795_" class="st3" d="M170.7,70.9h-14.8l-9.1-22.4l-5.9-16.2l-5.6,16.3l-8.7,22.3h-15.3l-19-56.5h-7.1V1h31.1v13.4
			h-7.3L120,49.8l16.2-45.9h10l16.6,45.9L173,14.4h-7.4V1H196v13.4h-6.4L170.7,70.9z"/>
		<path id="XMLID_793_" class="st3" d="M207,12.7h-6.7V0.9h20.6v26.4c3.7-4.6,9.4-6.3,14.5-6.3c14.3,0,21.7,8.1,21.7,24.1v14.1h6.9
			v11.8h-24.9V59.1h4.4V45c0-8.6-4.4-11.3-10.8-11c-8,0.3-11.6,5.8-11.6,12.8v12.3h7v11.8h-28V59.1h6.9V12.7z"/>
		<path id="XMLID_790_" class="st3" d="M330.2,58.8v12.1h-18.9l-0.9-5.6c-5.7,5.6-11.8,6.9-18.1,6.9c-14,0-23.5-9.2-23.5-25.4
			c0-13.4,9.1-25.9,24-26.7c6.9,0,12.9,0.8,17.6,6.3l0.6-5.1h18.8v12.4h-6.3v25.1H330.2z M282.7,46.8c0,7.6,5.2,13.2,13.4,13.2
			c8.7,0,14.1-5.8,14.1-13.3c0.1-7.8-4.5-13.2-13.5-13.2C288.4,33.6,282.7,39.4,282.7,46.8z"/>
		<path id="XMLID_788_" class="st3" d="M357.6,8.1v13.7h12.8v11.9h-13V53c0,6.1,5.4,7.6,11.2,5.1l3.4,11.5
			c-4.8,1.8-7.5,2.1-11.9,2.1c-11.4-0.1-16.4-5.3-16.4-18.7V33.7h-8.6V21.8h8.6V9.6L357.6,8.1z"/>
		<path id="XMLID_786_" class="st3" d="M431.9,57.4v13.5h-30.8V57.4h8V14.5h-7.7V1h30.4v13.5h-8v42.9H431.9z"/>
		<path id="XMLID_784_" class="st3" d="M470.1,37.3l-0.6-5.7c-1.5-0.8-4.7-1.4-7.6-1.4c-4.1,0-8,1.5-8,5.5c0,3.6,4.9,3.9,7.9,4.1
			c12.3,0.7,22.4,4,22.4,16.8c-0.3,9.4-8.3,16.2-22.1,16.2c-7.8,0-15.4-1.5-22.2-5.8l0.4-13.8h11.8l0.5,5.5c1.9,1.1,5.1,1.9,9.8,2
			c5.1,0.1,8-1.4,8-4.6c0-2.5-3-4.5-9.5-4.8c-11.7-1.4-20.8-3.8-20.8-15.4c-0.2-11.9,11.5-16.5,22.3-16.5c6.5,0,13.6,1.4,19.3,4.2
			l-0.1,13.7H470.1z"/>
	</g>
	<g id="XMLID_634_" class="st1">
		<path id="XMLID_636_" class="st4" d="M121.7,90.6l-3.3-8.2h-15.1l-3.2,8.2c-1.9,4.9,1.2,5.8,3.4,6.3v1.2H89.2V97
			c2.1-0.6,5.9-1.4,7.8-6.3l16.6-42h5.4l17.2,42c2,4.9,4.9,5.8,6.5,6.3v1.2h-24.4V97C120.4,96.4,123.7,95.5,121.7,90.6z M117.3,79.8
			l-6.6-16.2l-6.4,16.2H117.3z"/>
		<path id="XMLID_740_" class="st4" d="M144.5,91V70.3c0-4.7-2.8-5.6-4.5-6.1v-1.1h17.4v11.1c1.8-7.5,7.4-12.6,14.3-11.3l-2,11.6
			h-0.8c-5.9-2.9-11,0.3-11.5,7.3V91c0,4.7,2.8,5.6,4.5,6.1v1.1H140v-1.1C141.7,96.6,144.5,95.7,144.5,91z"/>
		<path id="XMLID_742_" class="st4" d="M171.6,80.8c0-11.4,8.1-18.1,18.7-18.1c3.8,0,8.4,0.8,12.3,2.3v10.9h-1.2
			c-3.9-8.3-6.5-10.2-9.3-10.2c-5,0-6.9,6-6.8,12.8c0.1,8.4,3.5,14.2,9.5,14.2c4.2,0,7.3-3,8.9-5.1l1,0.2
			c-1.4,4.5-6.5,11.2-15.6,11.2C181,99,171.6,93.7,171.6,80.8z"/>
		<path id="XMLID_744_" class="st4" d="M215.4,49.9v-1.2h23.8v1.2c-1.7,0.5-5.4,1.2-3.7,6.5l8.2,24.9l7.2-19.5l-1.7-5.4
			c-1.6-4.9-4.2-5.9-6-6.5v-1.2h23.9v1.2c-2.1,0.6-5.3,1.4-3.7,6.5l7.9,24.9l8.9-24.9c1.7-4.6-1.2-5.9-3.5-6.4v-1.2h14.1v1.2
			c-2.5,0.6-5.9,1.6-7.6,6.4l-14.9,41.9h-5.5l-10.5-32.4l-11.8,32.4h-5.5l-13.5-41.9C219.8,51.5,217.2,50.5,215.4,49.9z"/>
		<path id="XMLID_746_" class="st4" d="M281.5,80.8c0-11.6,6.8-18.1,17.3-18.1c12.4,0,16.7,9.5,16.5,17.6h-20.5
			c0.7,9,5.1,12.3,9.7,12.3c3.1,0,6.3-1.4,9.6-4.8l1,0.2c-1.4,4.4-6.8,11.2-15.9,11.2C291.1,99,281.5,93.7,281.5,80.8z M302.9,77.8
			c0.1-4.3-0.2-12.7-3.9-12.7c-3.9,0-4.1,9.3-4.1,12.7H302.9z"/>
		<path id="XMLID_749_" class="st4" d="M319.2,91V56.6c0-4.7-2.8-5.2-4.5-5.4l-0.1-1.1l17.6-2.8V91c0,4.7,2.8,5.6,4.5,6.1v1.1h-21.9
			v-1.1C316.4,96.6,319.2,95.7,319.2,91z"/>
		<path id="XMLID_751_" class="st4" d="M358.4,94.2c-2.1,2.5-5.4,4.4-9.5,4.4c-6.8,0-13.1-5.2-13.1-17.6c0-12.4,7.5-18.7,16.1-18.7
			c2.1,0,4.3,0.4,6.3,1.2v-7c0-4.7-2.8-5.2-4.5-5.4l-0.1-1.1l17.8-2.8V91c0,4.7,2.8,5.6,4.5,6.1v1.1h-14.1
			C359.9,97.1,358.8,95.7,358.4,94.2z M355,93.2c1.2,0,2.3-0.6,3.2-1.5V74.7c0-5.9-0.8-9.5-4-9.5c-2.6,0-4.8,2.4-4.8,11.5
			C349.5,86.3,350.6,93.2,355,93.2z"/>
		<path id="XMLID_760_" class="st4" d="M379.9,91V70.3c0-4.7-2.8-5.6-4.5-6.1v-1.1h17.3V91c0,4.7,2.8,5.6,4.5,6.1v1.1h-21.8v-1.1
			C377.1,96.6,379.9,95.7,379.9,91z M385.1,45.5c3.9,0,7.2,3.1,7.2,7c0,3.9-3.3,7-7.2,7c-3.8,0-7.2-3.1-7.2-7
			C378,48.6,381.2,45.5,385.1,45.5z"/>
		<path id="XMLID_763_" class="st4" d="M422.7,91V76c0-4.1-1.9-5.4-4.3-5.4c-1.7-0.1-3.3,0.5-4.7,1.2V91c0,4.7,2.1,5.6,3.4,6.1v1.1
			h-20.8v-1.1c1.7-0.5,4.5-1.4,4.5-6.1V70.3c0-4.7-2.8-5.6-4.5-6.1v-1.1h17.4v6.4c1.5-3.3,5.1-6.8,10.8-6.8
			c6.1,0,11.1,4.1,11.1,11.4V91c0,4.7,2.8,5.6,4.5,6.1v1.1h-20.8v-1.1C420.6,96.6,422.7,95.7,422.7,91z"/>
		<path id="XMLID_765_" class="st4" d="M440.6,106.7c0-3.2,3.1-5.2,6.1-5.8c-5.4-1.7-6.3-5.1-6.3-7.1c0-3.8,3.2-6.6,8.1-8.1
			c-4-2.1-7-5.6-7-10.5c0-8.5,8.6-12.5,16-12.5c2.8,0,5.9,0.6,8.6,1.9c1.9-5.2,7-7.1,11.3-6.1l-1.1,7.8h-0.5c-2.5-1.6-5-1.7-7.6-0.5
			c3.2,2.1,5.4,5.2,5.4,9.4c0,8.5-8.8,12.7-16.2,12.7c-2.3,0-4.6-0.4-6.9-1.2c-1.2,0.8-2.1,1.7-2.1,2.7c0,1.6,2.3,2.3,6.3,2.4
			l10.5,0.1c6,0.1,11,3.7,11,9.9c0,7.8-7.5,12.2-19.1,12.2C450.6,113.8,440.6,112.5,440.6,106.7z M459.6,111c5.5,0,9.4-2.1,9.4-5.3
			c0-2.8-3-3.6-6.6-3.6l-8.5-0.1c-1.4,0-2.7-0.1-3.9-0.3c-1,0.8-1.2,2-1.2,2.8C448.8,108.2,453.1,111,459.6,111z M457.4,85.3
			c3,0,3.5-6.1,3.5-10.1c0-4.1-0.5-10.1-3.5-10.1c-3,0-3.4,6.1-3.4,10.1C454,79.2,454.4,85.3,457.4,85.3z"/>
	</g>
	<g id="XMLID_825_" class="st1">
		<defs>
			<path id="XMLID_769_" d="M170.7,70.9h-14.8l-9.1-22.4l-5.9-16.2l-5.6,16.3l-8.7,22.3h-15.3l-19-56.5h-7.1V1h31.1v13.4h-7.3
				L120,49.8l16.2-45.9h10l16.6,45.9L173,14.4h-7.4V1H196v13.4h-6.4L170.7,70.9z"/>
		</defs>
		<clipPath id="XMLID_136_">
			<use xlink:href="#XMLID_769_"  style="overflow:visible;"/>
		</clipPath>
		<path id="XMLID_819_" class="st5" d="M144.5,91V70.3c0-4.7-2.8-5.6-4.5-6.1v-1.1h17.4v11.1c1.8-7.5,7.4-12.6,14.3-11.3l-2,11.6
			h-0.8c-5.9-2.9-11,0.3-11.5,7.3V91c0,4.7,2.8,5.6,4.5,6.1v1.1H140v-1.1C141.7,96.6,144.5,95.7,144.5,91z"/>
		<g id="XMLID_824_" class="st5">
			<defs>
				<path id="XMLID_770_" d="M170.7,70.9h-14.8l-9.1-22.4l-5.9-16.2l-5.6,16.3l-8.7,22.3h-15.3l-19-56.5h-7.1V1h31.1v13.4h-7.3
					L120,49.8l16.2-45.9h10l16.6,45.9L173,14.4h-7.4V1H196v13.4h-6.4L170.7,70.9z"/>
			</defs>
			<clipPath id="XMLID_137_">
				<use xlink:href="#XMLID_770_"  style="overflow:visible;"/>
			</clipPath>
			<path id="XMLID_821_" class="st6" d="M121.7,90.6l-3.3-8.2h-15.1l-3.2,8.2c-1.9,4.9,1.2,5.8,3.4,6.3v1.2H89.2V97
				c2.1-0.6,5.9-1.4,7.8-6.3l16.6-42h5.4l17.2,42c2,4.9,4.9,5.8,6.5,6.3v1.2h-24.4V97C120.4,96.4,123.7,95.5,121.7,90.6z
				 M117.3,79.8l-6.6-16.2l-6.4,16.2H117.3z"/>
		</g>
	</g>
	<g id="XMLID_831_" class="st1">
		<defs>
			<path id="XMLID_826_" d="M207,12.7h-6.7V0.9h20.6v26.4c3.7-4.6,9.4-6.3,14.5-6.3c14.3,0,21.7,8.1,21.7,24.1v14.1h6.9v11.8h-24.9
				V59.1h4.4V45c0-8.6-4.4-11.3-10.8-11c-8,0.3-11.6,5.8-11.6,12.8v12.3h7v11.8h-28V59.1h6.9V12.7z"/>
		</defs>
		<clipPath id="XMLID_138_">
			<use xlink:href="#XMLID_826_"  style="overflow:visible;"/>
		</clipPath>
		<path id="XMLID_815_" class="st7" d="M215.4,49.9v-1.2h23.8v1.2c-1.7,0.5-5.4,1.2-3.7,6.5l8.2,24.9l7.2-19.5l-1.7-5.4
			c-1.6-4.9-4.2-5.9-6-6.5v-1.2h23.9v1.2c-2.1,0.6-5.3,1.4-3.7,6.5l7.9,24.9l8.9-24.9c1.7-4.6-1.2-5.9-3.5-6.4v-1.2h14.1v1.2
			c-2.5,0.6-5.9,1.6-7.6,6.4l-14.9,41.9h-5.5l-10.5-32.4l-11.8,32.4h-5.5l-13.5-41.9C219.8,51.5,217.2,50.5,215.4,49.9z"/>
		<g id="XMLID_828_" class="st7">
			<defs>
				<path id="XMLID_772_" d="M207,12.7h-6.7V0.9h20.6v26.4c3.7-4.6,9.4-6.3,14.5-6.3c14.3,0,21.7,8.1,21.7,24.1v14.1h6.9v11.8h-24.9
					V59.1h4.4V45c0-8.6-4.4-11.3-10.8-11c-8,0.3-11.6,5.8-11.6,12.8v12.3h7v11.8h-28V59.1h6.9V12.7z"/>
			</defs>
			<clipPath id="XMLID_139_">
				<use xlink:href="#XMLID_772_"  style="overflow:visible;"/>
			</clipPath>
			<path id="XMLID_817_" class="st8" d="M171.6,80.8c0-11.4,8.1-18.1,18.7-18.1c3.8,0,8.4,0.8,12.3,2.3v10.9h-1.2
				c-3.9-8.3-6.5-10.2-9.3-10.2c-5,0-6.9,6-6.8,12.8c0.1,8.4,3.5,14.2,9.5,14.2c4.2,0,7.3-3,8.9-5.1l1,0.2
				c-1.4,4.5-6.5,11.2-15.6,11.2C181,99,171.6,93.7,171.6,80.8z"/>
		</g>
	</g>
	<g id="XMLID_840_" class="st1">
		<defs>
			<path id="XMLID_835_" d="M330.2,58.8v12.1h-18.9l-0.9-5.6c-5.7,5.6-11.8,6.9-18.1,6.9c-14,0-23.5-9.2-23.5-25.4
				c0-13.4,9.1-25.9,24-26.7c6.9,0,12.9,0.8,17.6,6.3l0.6-5.1h18.8v12.4h-6.3v25.1H330.2z M282.7,46.8c0,7.6,5.2,13.2,13.4,13.2
				c8.7,0,14.1-5.8,14.1-13.3c0.1-7.8-4.5-13.2-13.5-13.2C288.4,33.6,282.7,39.4,282.7,46.8z"/>
		</defs>
		<clipPath id="XMLID_140_">
			<use xlink:href="#XMLID_835_"  style="overflow:visible;"/>
		</clipPath>
		<path id="XMLID_810_" class="st9" d="M319.2,91V56.6c0-4.7-2.8-5.2-4.5-5.4l-0.1-1.1l17.6-2.8V91c0,4.7,2.8,5.6,4.5,6.1v1.1h-21.9
			v-1.1C316.4,96.6,319.2,95.7,319.2,91z"/>
		<g id="XMLID_838_" class="st9">
			<defs>
				<path id="XMLID_774_" d="M330.2,58.8v12.1h-18.9l-0.9-5.6c-5.7,5.6-11.8,6.9-18.1,6.9c-14,0-23.5-9.2-23.5-25.4
					c0-13.4,9.1-25.9,24-26.7c6.9,0,12.9,0.8,17.6,6.3l0.6-5.1h18.8v12.4h-6.3v25.1H330.2z M282.7,46.8c0,7.6,5.2,13.2,13.4,13.2
					c8.7,0,14.1-5.8,14.1-13.3c0.1-7.8-4.5-13.2-13.5-13.2C288.4,33.6,282.7,39.4,282.7,46.8z"/>
			</defs>
			<clipPath id="XMLID_141_">
				<use xlink:href="#XMLID_774_"  style="overflow:visible;"/>
			</clipPath>
			<path id="XMLID_829_" class="st10" d="M215.4,49.9v-1.2h23.8v1.2c-1.7,0.5-5.4,1.2-3.7,6.5l8.2,24.9l7.2-19.5l-1.7-5.4
				c-1.6-4.9-4.2-5.9-6-6.5v-1.2h23.9v1.2c-2.1,0.6-5.3,1.4-3.7,6.5l7.9,24.9l8.9-24.9c1.7-4.6-1.2-5.9-3.5-6.4v-1.2h14.1v1.2
				c-2.5,0.6-5.9,1.6-7.6,6.4l-14.9,41.9h-5.5l-10.5-32.4l-11.8,32.4h-5.5l-13.5-41.9C219.8,51.5,217.2,50.5,215.4,49.9z"/>
		</g>
		<g id="XMLID_839_" class="st9">
			<defs>
				<path id="XMLID_832_" d="M330.2,58.8v12.1h-18.9l-0.9-5.6c-5.7,5.6-11.8,6.9-18.1,6.9c-14,0-23.5-9.2-23.5-25.4
					c0-13.4,9.1-25.9,24-26.7c6.9,0,12.9,0.8,17.6,6.3l0.6-5.1h18.8v12.4h-6.3v25.1H330.2z M282.7,46.8c0,7.6,5.2,13.2,13.4,13.2
					c8.7,0,14.1-5.8,14.1-13.3c0.1-7.8-4.5-13.2-13.5-13.2C288.4,33.6,282.7,39.4,282.7,46.8z"/>
			</defs>
			<clipPath id="XMLID_142_">
				<use xlink:href="#XMLID_832_"  style="overflow:visible;"/>
			</clipPath>
			<path id="XMLID_812_" class="st11" d="M281.5,80.8c0-11.6,6.8-18.1,17.3-18.1c12.4,0,16.7,9.5,16.5,17.6h-20.5
				c0.7,9,5.1,12.3,9.7,12.3c3.1,0,6.3-1.4,9.6-4.8l1,0.2c-1.4,4.4-6.8,11.2-15.9,11.2C291.1,99,281.5,93.7,281.5,80.8z M302.9,77.8
				c0.1-4.3-0.2-12.7-3.9-12.7c-3.9,0-4.1,9.3-4.1,12.7H302.9z"/>
		</g>
	</g>
	<g id="XMLID_841_" class="st1">
		<defs>
			<path id="XMLID_777_" d="M357.6,8.1v13.7h12.8v11.9h-13V53c0,6.1,5.4,7.6,11.2,5.1l3.4,11.5c-4.8,1.8-7.5,2.1-11.9,2.1
				c-11.4-0.1-16.4-5.3-16.4-18.7V33.7h-8.6V21.8h8.6V9.6L357.6,8.1z"/>
		</defs>
		<clipPath id="XMLID_143_">
			<use xlink:href="#XMLID_777_"  style="overflow:visible;"/>
		</clipPath>
		<path id="XMLID_807_" class="st12" d="M358.4,94.2c-2.1,2.5-5.4,4.4-9.5,4.4c-6.8,0-13.1-5.2-13.1-17.6c0-12.4,7.5-18.7,16.1-18.7
			c2.1,0,4.3,0.4,6.3,1.2v-7c0-4.7-2.8-5.2-4.5-5.4l-0.1-1.1l17.8-2.8V91c0,4.7,2.8,5.6,4.5,6.1v1.1h-14.1
			C359.9,97.1,358.8,95.7,358.4,94.2z M355,93.2c1.2,0,2.3-0.6,3.2-1.5V74.7c0-5.9-0.8-9.5-4-9.5c-2.6,0-4.8,2.4-4.8,11.5
			C349.5,86.3,350.6,93.2,355,93.2z"/>
	</g>
	<g id="XMLID_804_" class="st1">
		<defs>
			<path id="XMLID_779_" d="M431.9,57.4v13.5h-30.8V57.4h8V14.5h-7.7V1h30.4v13.5h-8v42.9H431.9z"/>
		</defs>
		<clipPath id="XMLID_144_">
			<use xlink:href="#XMLID_779_"  style="overflow:visible;"/>
		</clipPath>
		<path id="XMLID_802_" class="st13" d="M422.7,91V76c0-4.1-1.9-5.4-4.3-5.4c-1.7-0.1-3.3,0.5-4.7,1.2V91c0,4.7,2.1,5.6,3.4,6.1v1.1
			h-20.8v-1.1c1.7-0.5,4.5-1.4,4.5-6.1V70.3c0-4.7-2.8-5.6-4.5-6.1v-1.1h17.4v6.4c1.5-3.3,5.1-6.8,10.8-6.8
			c6.1,0,11.1,4.1,11.1,11.4V91c0,4.7,2.8,5.6,4.5,6.1v1.1h-20.8v-1.1C420.6,96.6,422.7,95.7,422.7,91z"/>
	</g>
	<g id="XMLID_805_" class="st1">
		<defs>
			<path id="XMLID_781_" d="M470.1,37.3l-0.6-5.7c-1.5-0.8-4.7-1.4-7.6-1.4c-4.1,0-8,1.5-8,5.5c0,3.6,4.9,3.9,7.9,4.1
				c12.3,0.7,22.4,4,22.4,16.8c-0.3,9.4-8.3,16.2-22.1,16.2c-7.8,0-15.4-1.5-22.2-5.8l0.4-13.8h11.8l0.5,5.5c1.9,1.1,5.1,1.9,9.8,2
				c5.1,0.1,8-1.4,8-4.6c0-2.5-3-4.5-9.5-4.8c-11.7-1.4-20.8-3.8-20.8-15.4c-0.2-11.9,11.5-16.5,22.3-16.5c6.5,0,13.6,1.4,19.3,4.2
				l-0.1,13.7H470.1z"/>
		</defs>
		<clipPath id="XMLID_145_">
			<use xlink:href="#XMLID_781_"  style="overflow:visible;"/>
		</clipPath>
		<path id="XMLID_798_" class="st14" d="M440.6,106.7c0-3.2,3.1-5.2,6.1-5.8c-5.4-1.7-6.3-5.1-6.3-7.1c0-3.8,3.2-6.6,8.1-8.1
			c-4-2.1-7-5.6-7-10.5c0-8.5,8.6-12.5,16-12.5c2.8,0,5.9,0.6,8.6,1.9c1.9-5.2,7-7.1,11.3-6.1l-1.1,7.8h-0.5c-2.5-1.6-5-1.7-7.6-0.5
			c3.2,2.1,5.4,5.2,5.4,9.4c0,8.5-8.8,12.7-16.2,12.7c-2.3,0-4.6-0.4-6.9-1.2c-1.2,0.8-2.1,1.7-2.1,2.7c0,1.6,2.3,2.3,6.3,2.4
			l10.5,0.1c6,0.1,11,3.7,11,9.9c0,7.8-7.5,12.2-19.1,12.2C450.6,113.8,440.6,112.5,440.6,106.7z M459.6,111c5.5,0,9.4-2.1,9.4-5.3
			c0-2.8-3-3.6-6.6-3.6l-8.5-0.1c-1.4,0-2.7-0.1-3.9-0.3c-1,0.8-1.2,2-1.2,2.8C448.8,108.2,453.1,111,459.6,111z M457.4,85.3
			c3,0,3.5-6.1,3.5-10.1c0-4.1-0.5-10.1-3.5-10.1c-3,0-3.4,6.1-3.4,10.1C454,79.2,454.4,85.3,457.4,85.3z"/>
	</g>
	<g id="XMLID_853_" class="st1">
		<defs>
			<path id="XMLID_806_" d="M470.1,37.3l-0.6-5.7c-1.5-0.8-4.7-1.4-7.6-1.4c-4.1,0-8,1.5-8,5.5c0,3.6,4.9,3.9,7.9,4.1
				c12.3,0.7,22.4,4,22.4,16.8c-0.3,9.4-8.3,16.2-22.1,16.2c-7.8,0-15.4-1.5-22.2-5.8l0.4-13.8h11.8l0.5,5.5c1.9,1.1,5.1,1.9,9.8,2
				c5.1,0.1,8-1.4,8-4.6c0-2.5-3-4.5-9.5-4.8c-11.7-1.4-20.8-3.8-20.8-15.4c-0.2-11.9,11.5-16.5,22.3-16.5c6.5,0,13.6,1.4,19.3,4.2
				l-0.1,13.7H470.1z"/>
		</defs>
		<clipPath id="XMLID_146_">
			<use xlink:href="#XMLID_806_"  style="overflow:visible;"/>
		</clipPath>
		<g id="XMLID_842_" class="st15">
			<path id="XMLID_843_" class="st2" d="M474.2,85c1.8-3.5,5.5-3.6,8.2-2.2c2.7,1.4,4.8,4.4,2.9,8c-1.8,3.5-5.5,3.8-8.2,2.4
				C474.4,91.8,472.3,88.6,474.2,85z M476.7,53.8c4.7-8.9,15.2-9.2,24.7-4.3c8.7,4.5,14.7,13.5,9.6,22.7c-4.6,8.9-14.1,5.4-18.2,6.4
				c-1.6,0.5-2.8,0.7-4.2,3.6l-9.1-4.7c4-7.8,8.3-7.8,13.4-7.5c4,0.2,7.6,0.1,9.1-2.7c2.5-4.8-1.7-8-5.3-9.9
				c-6.1-3.2-9.7-1.9-11.3,1L476.7,53.8z"/>
		</g>
	</g>
</g>
<g id="Calque_2">
	<g id="XMLID_2_">
		<path id="XMLID_23_" class="st3" d="M182.2,71.3c3.9-13.6,12.8-21.3,23.1-21.1c3.8,0.1,6.6,1.2,10.4,3.3l-3.6,12.3h-1.6
			c0.7-8.1-1-12.8-5.5-12.8c-5.9-0.1-11.1,7.5-14.1,17.8c-3.6,12.8-0.8,19.1,3.9,19.3c4.8,0.2,9.3-3.3,12.8-7.9l1,1.5
			c-3.8,6.2-9.5,11.8-16.8,11.6C183.2,95,178,85.8,182.2,71.3z"/>
		<path id="XMLID_25_" class="st3" d="M212,78.6c2.8-10.8,10.9-15.5,16.9-15.3c6.1,0.1,11,5.5,8.2,16.2
			c-2.7,10.4-10.4,15.7-16.8,15.6C213.8,95,209.2,89,212,78.6z M220.7,92.6c3.4,0.1,6.4-6.5,8.2-13.4c1.6-5.8,2.6-13.2-0.6-13.3
			c-3.2-0.1-6.4,6.3-8.2,13.1C218.3,85.7,217.7,92.5,220.7,92.6z"/>
		<path id="XMLID_28_" class="st3" d="M269.7,86.4l4.7-14c1.3-3.8,0.7-4.4-0.1-4.4c-1.9,0-6.4,4.8-11.1,17.4l-3,9h-7.8l7.2-22
			c1.2-3.8,0.5-4.5-0.3-4.5c-1.9,0-7.1,5.1-12.1,19.5l-2.1,7h-7.8l7.5-24.3c1.3-4,0.3-4.7-1.7-4.7l0.5-1.7h10.9l-2.3,7.6
			c4.1-6.4,7.8-8,10.7-8c3.7,0,5.9,2.8,5,7.3c3.7-5.6,7-7.3,9.8-7.3c4.1,0,6.7,3.5,4.8,8.6l-4.7,13.8c-1.4,4.1-1.2,5-0.4,5
			c0.9,0,2.8-1.8,5.3-6l1.3,1c-2.2,5.1-6.2,9.5-10.4,9.5C270.2,95.2,267.8,91.8,269.7,86.4z"/>
		<path id="XMLID_30_" class="st3" d="M283.5,99.9l8.5-27c1.3-4.1,1-5.1,0.4-5.1c-1,0-3,2-5.2,6.1l-1.3-1c2.2-5.1,6.2-9.5,10.3-9.5
			c2.8,0,4.7,2,4.5,5.8c2.8-4.5,5.7-6.1,8.5-6c5.9,0.1,6.9,7.4,5.2,14.2c-2.5,10-9.6,18-16.8,17.6c-1.8-0.1-3.1-0.7-4.2-1.7
			l-2.4,7.6c-1,3.2-0.1,3.8,2.8,4.2l-0.5,1.8h-16.1l0.6-1.8C280.3,104.7,282.2,104.1,283.5,99.9z M296.7,92
			c3.1,0.1,6.2-3.8,8.9-12.1c1.6-5.1,2.9-11.8,0.4-11.9c-1.8-0.1-5.2,2.8-9.3,15.3l-2.3,7.3C294.8,91.6,295.6,92,296.7,92z"/>
		<path id="XMLID_33_" class="st3" d="M317.3,86.2c0.2-9.5,7.5-23.2,17.1-23c2.7,0.1,4.4,1.3,5.3,2.8l5-2.4h2.3l-7,21.9
			c-1,3.1-1.2,5.1-0.4,5.1c1.2,0,3.2-2.2,5.3-6l1.3,1c-2.1,5-6.2,9.5-10.3,9.5c-3.3,0-4.7-2.5-4.4-6c-2.9,4.5-5.8,6-8.4,5.9
			C319.5,95,317.2,91.5,317.3,86.2z M335.8,74.9l1.5-4.5c0.8-3,0.1-4.2-1.6-4.2c-3.2,0-6.2,4-8.8,12.1c-1.6,4.9-3,11.9-0.4,12
			C328.4,90.5,332,86.7,335.8,74.9z"/>
		<path id="XMLID_36_" class="st3" d="M364.7,85.8l4.5-13.4c1.3-3.8,0.7-4.5-0.2-4.5c-1.9,0-7.3,5.1-12.2,18.9l-2.3,7.6h-7.9
			l7.5-24.2c1.3-4,0.2-4.6-1.7-4.7l0.5-1.7h11l-2.5,8.4c4.2-6.6,8.2-8.8,11.3-8.8c3.9,0,6.4,3.3,4.6,8.6l-4.5,13.7
			c-1.3,4-1,5.1-0.4,5.1c0.8,0,2.7-1.6,5.3-6l1.3,1c-2.2,4.9-6.2,9.5-10.4,9.5C364.8,95.2,362.7,91.8,364.7,85.8z"/>
		<path id="XMLID_38_" class="st3" d="M382,85.8l5-16.1c1.1-3.8-0.4-4-2.3-4.2l0.5-1.7h11.6l-6.8,21.9c-1.3,4-1.1,5.1-0.4,5.1
			c0.9,0,2.8-1.6,5.3-6l1.3,1c-2.2,5-6.2,9.5-10.4,9.5C382.2,95.2,380.1,91.9,382,85.8z M394.6,50.4c2.5,0,4.6,2.2,4.5,4.8
			c0,2.5-2.1,4.8-4.7,4.8c-2.5,0-4.6-2.1-4.6-4.7C389.9,52.6,392,50.4,394.6,50.4z"/>
		<path id="XMLID_41_" class="st3" d="M400,77.4c3-9,9.8-14.1,16.3-14.1c5.2,0.1,8.7,3.6,7.3,8.3c-1.6,5.2-8.1,8.6-16.7,9.1
			c-0.9,5.9,0.8,9.5,4.1,9.6c2.7,0.1,5.8-1.8,8.6-6.4l1.3,0.9c-3.4,7-8.7,10.3-13.2,10.2C400.5,95,396.7,87.2,400,77.4z M417,70.3
			c0.8-2.2,0.7-4.4-1.1-4.4c-2.4-0.1-5.8,3.8-7.8,9.8c-0.4,1-0.6,2-0.8,3C412.8,77.8,415.7,74.4,417,70.3z"/>
		<path id="XMLID_44_" class="st3" d="M422.2,91.7l2.7-8.2h1.4c0.4,2.8,1.1,5,2.2,6.6c1.2,1.6,2.6,2.5,4.3,2.5c1.7-0.1,3.1-1,3.5-3
			c0.4-2.8-2.4-5.9-5.1-9.3c-2.9-3.6-3.9-5.7-3.7-8.3c0.3-5.1,4.8-8.7,10.5-8.7c3,0,6.1,0.8,8.8,2.5l-2.7,8.2h-1.4
			c-0.2-2.3-0.5-4.1-1.2-5.5c-1-1.9-2.4-2.8-4.1-2.8c-1.7,0.1-3.2,1.1-3.3,3c-0.2,2.4,2.1,5,4.9,8.4c3,3.7,4.1,6.4,3.6,9.5
			c-0.6,4.5-4.1,8.5-10.3,8.6C428.6,95.2,425,93.8,422.2,91.7z"/>
	</g>
	<path id="XMLID_70_" class="st4" d="M471.9,79.1c0.5,7.3,6,10.1,12.4,10.2c5.9-0.1,12.2-1.7,12.2-7.9c0-4.5-3.3-8.5-11.8-8.5
		c-16.8,0-25.8-8.7-25.8-23c0-15.9,13.3-23.7,25.8-23.7c2.8,0,9.2,0.7,11.8,2.5l5.4-6.5l9.1,7.4l-6,6.5c4.5,5,5.4,9.6,5.4,13.5
		c0,7.8-3.2,13.2-9.7,16.9c8.8,5,9,11.8,9,14.7c0,14.4-12.6,19.8-25.8,19.9c-16.6,0.1-25-9-24.8-21.9H471.9z M472.1,49.8
		c0,6.3,3.9,11.8,12.5,11.8c7.5,0,12.7-4.4,12.7-11.8c0-6.8-4.8-11.8-12.6-11.8C476.2,38,472.1,43.9,472.1,49.8z"/>
	<g id="XMLID_3_">
		<path id="XMLID_4_" class="st4" d="M193.9,73.5h-13.8l-8.5-20.9l-5.5-15.1l-5.2,15.2l-8.1,20.8h-14.3l-17.7-52.8h-6.6V8.2h29v12.5
			h-6.8l10.2,33.1l15.1-42.9h9.3l15.5,42.9l9.6-33.1h-6.9V8.2h28.4v12.5h-6L193.9,73.5z"/>
		<path id="XMLID_6_" class="st4" d="M261.8,67.6c-5,4.9-13.3,7.3-20.2,7.3c-18,0-25.6-11-25.6-24.8c0-14.5,9.7-24.1,24.9-24.1
			c15.4,0,25.1,8.1,22.4,29h-34.1c0.7,4.7,4.9,8.1,12.6,8.1c3.7,0,9-1.4,12.2-4L261.8,67.6z M251.5,45.1c0.2-5.7-4.6-8-10.4-8
			c-5.7,0-10.7,2.6-11.8,8H251.5z"/>
		<path id="XMLID_9_" class="st4" d="M269.8,8.2h18.8v53.9h5.6v11.4h-24.8V62.1h6.3V19.5h-6V8.2z"/>
		<path id="XMLID_11_" class="st4" d="M357.4,62v11.6h-17.2l-1.9-6.1c-3.9,4.6-8.7,6.9-15.5,6.9c-13.1,0-22.4-8.3-22.4-23.9
			c0-16.2,10.4-24.2,23.4-24.2c5.2,0,10.7,1.3,14.2,5.6V19.4h-6.4V8.3h19.5V62H357.4z M313.7,50.3c0,7.7,5,11.8,11.6,11.8
			c6,0,12.4-3.4,12.4-11.9c0-10.3-7.3-12.2-11.8-12.2C319.5,38,313.7,41.5,313.7,50.3z"/>
		<path id="XMLID_14_" class="st4" d="M383.1,27.2v35h5.3v11.4h-24.4V62.1h5.9V38.4h-5.8V27.2H383.1z M369.1,15
			c0-4.8,3.7-7.4,7.6-7.4c4.1,0,7.8,2.7,7.8,7.6c0,4.6-3.7,7.3-7.7,7.3C372.8,22.4,369.1,19.7,369.1,15z"/>
		<path id="XMLID_17_" class="st4" d="M414.9,62h6.7v11.6h-26.3V62h6.8V38.4h-6.4V27.2h17.9l0.9,4.8c4.3-4.3,9.4-5.3,13.1-5.3
			c12.6,0,19.8,6,19.8,22.5V62h6.6v11.6h-24.7V62h5.1V49.2c0-4.9-0.7-10.4-9-10.4c-6.3-0.1-10.4,4.2-10.4,11.3V62z"/>
		<path id="XMLID_19_" class="st4" d="M471.9,79.1c0.5,7.3,6,10.1,12.4,10.2c5.9-0.1,12.2-1.7,12.2-7.9c0-4.5-3.3-8.5-11.8-8.5
			c-16.8,0-25.8-8.7-25.8-23c0-15.9,13.3-23.7,25.8-23.7c2.8,0,9.2,0.7,11.8,2.5l5.4-6.5l9.1,7.4l-6,6.5c4.5,5,5.4,9.6,5.4,13.5
			c0,7.8-3.2,13.2-9.7,16.9c8.8,5,9,11.8,9,14.7c0,14.4-12.6,19.8-25.8,19.9c-16.6,0.1-25-9-24.8-21.9H471.9z M472.1,49.8
			c0,6.3,3.9,11.8,12.5,11.8c7.5,0,12.7-4.4,12.7-11.8c0-6.8-4.8-11.8-12.6-11.8C476.2,38,472.1,43.9,472.1,49.8z"/>
	</g>
	<g id="XMLID_127_">
		<g id="XMLID_22_">
			<defs>
				<path id="XMLID_86_" d="M193.9,73.5h-13.8l-8.5-20.9l-5.5-15.1l-5.2,15.2l-8.1,20.8h-14.3l-17.7-52.8h-6.6V8.2h29v12.5h-6.8
					l10.2,33.1l15.1-42.9h9.3l15.5,42.9l9.6-33.1h-6.9V8.2h28.4v12.5h-6L193.9,73.5z"/>
			</defs>
			<clipPath id="XMLID_147_">
				<use xlink:href="#XMLID_86_"  style="overflow:visible;"/>
			</clipPath>
			<path id="XMLID_67_" class="st16" d="M182.2,71.3c3.9-13.6,12.8-21.3,23.1-21.1c3.8,0.1,6.6,1.2,10.4,3.3l-3.6,12.3h-1.6
				c0.7-8.1-1-12.8-5.5-12.8c-5.9-0.1-11.1,7.5-14.1,17.8c-3.6,12.8-0.8,19.1,3.9,19.3c4.8,0.2,9.3-3.3,12.8-7.9l1,1.5
				c-3.8,6.2-9.5,11.8-16.8,11.6C183.2,95,178,85.8,182.2,71.3z"/>
		</g>
		<g id="XMLID_90_">
			<defs>
				<path id="XMLID_83_" d="M261.8,67.6c-5,4.9-13.3,7.3-20.2,7.3c-18,0-25.6-11-25.6-24.8c0-14.5,9.7-24.1,24.9-24.1
					c15.4,0,25.1,8.1,22.4,29h-34.1c0.7,4.7,4.9,8.1,12.6,8.1c3.7,0,9-1.4,12.2-4L261.8,67.6z M251.5,45.1c0.2-5.7-4.6-8-10.4-8
					c-5.7,0-10.7,2.6-11.8,8H251.5z"/>
			</defs>
			<clipPath id="XMLID_148_">
				<use xlink:href="#XMLID_83_"  style="overflow:visible;"/>
			</clipPath>
			<path id="XMLID_64_" class="st17" d="M212,78.6c2.8-10.8,10.9-15.5,16.9-15.3c6.1,0.1,11,5.5,8.2,16.2
				c-2.7,10.4-10.4,15.7-16.8,15.6C213.8,95,209.2,89,212,78.6z M220.7,92.6c3.4,0.1,6.4-6.5,8.2-13.4c1.6-5.8,2.6-13.2-0.6-13.3
				c-3.2-0.1-6.4,6.3-8.2,13.1C218.3,85.7,217.7,92.5,220.7,92.6z"/>
		</g>
		<g id="XMLID_93_">
			<defs>
				<path id="XMLID_69_" d="M261.8,67.6c-5,4.9-13.3,7.3-20.2,7.3c-18,0-25.6-11-25.6-24.8c0-14.5,9.7-24.1,24.9-24.1
					c15.4,0,25.1,8.1,22.4,29h-34.1c0.7,4.7,4.9,8.1,12.6,8.1c3.7,0,9-1.4,12.2-4L261.8,67.6z M251.5,45.1c0.2-5.7-4.6-8-10.4-8
					c-5.7,0-10.7,2.6-11.8,8H251.5z"/>
			</defs>
			<clipPath id="XMLID_149_">
				<use xlink:href="#XMLID_69_"  style="overflow:visible;"/>
			</clipPath>
			<path id="XMLID_91_" class="st18" d="M269.7,86.4l4.7-14c1.3-3.8,0.7-4.4-0.1-4.4c-1.9,0-6.4,4.8-11.1,17.4l-3,9h-7.8l7.2-22
				c1.2-3.8,0.5-4.5-0.3-4.5c-1.9,0-7.1,5.1-12.1,19.5l-2.1,7h-7.8l7.5-24.3c1.3-4,0.3-4.7-1.7-4.7l0.5-1.7h10.9l-2.3,7.6
				c4.1-6.4,7.8-8,10.7-8c3.7,0,5.9,2.8,5,7.3c3.7-5.6,7-7.3,9.8-7.3c4.1,0,6.7,3.5,4.8,8.6l-4.7,13.8c-1.4,4.1-1.2,5-0.4,5
				c0.9,0,2.8-1.8,5.3-6l1.3,1c-2.2,5.1-6.2,9.5-10.4,9.5C270.2,95.2,267.8,91.8,269.7,86.4z"/>
		</g>
		<g id="XMLID_96_">
			<defs>
				<path id="XMLID_81_" d="M269.8,8.2h18.8v53.9h5.6v11.4h-24.8V62.1h6.3V19.5h-6V8.2z"/>
			</defs>
			<clipPath id="XMLID_150_">
				<use xlink:href="#XMLID_81_"  style="overflow:visible;"/>
			</clipPath>
			<path id="XMLID_62_" class="st19" d="M269.7,86.4l4.7-14c1.3-3.8,0.7-4.4-0.1-4.4c-1.9,0-6.4,4.8-11.1,17.4l-3,9h-7.8l7.2-22
				c1.2-3.8,0.5-4.5-0.3-4.5c-1.9,0-7.1,5.1-12.1,19.5l-2.1,7h-7.8l7.5-24.3c1.3-4,0.3-4.7-1.7-4.7l0.5-1.7h10.9l-2.3,7.6
				c4.1-6.4,7.8-8,10.7-8c3.7,0,5.9,2.8,5,7.3c3.7-5.6,7-7.3,9.8-7.3c4.1,0,6.7,3.5,4.8,8.6l-4.7,13.8c-1.4,4.1-1.2,5-0.4,5
				c0.9,0,2.8-1.8,5.3-6l1.3,1c-2.2,5.1-6.2,9.5-10.4,9.5C270.2,95.2,267.8,91.8,269.7,86.4z"/>
		</g>
		<g id="XMLID_100_">
			<defs>
				<path id="XMLID_94_" d="M269.8,8.2h18.8v53.9h5.6v11.4h-24.8V62.1h6.3V19.5h-6V8.2z"/>
			</defs>
			<clipPath id="XMLID_151_">
				<use xlink:href="#XMLID_94_"  style="overflow:visible;"/>
			</clipPath>
			<path id="XMLID_97_" class="st20" d="M283.5,99.9l8.5-27c1.3-4.1,1-5.1,0.4-5.1c-1,0-3,2-5.2,6.1l-1.3-1
				c2.2-5.1,6.2-9.5,10.3-9.5c2.8,0,4.7,2,4.5,5.8c2.8-4.5,5.7-6.1,8.5-6c5.9,0.1,6.9,7.4,5.2,14.2c-2.5,10-9.6,18-16.8,17.6
				c-1.8-0.1-3.1-0.7-4.2-1.7l-2.4,7.6c-1,3.2-0.1,3.8,2.8,4.2l-0.5,1.8h-16.1l0.6-1.8C280.3,104.7,282.2,104.1,283.5,99.9z
				 M296.7,92c3.1,0.1,6.2-3.8,8.9-12.1c1.6-5.1,2.9-11.8,0.4-11.9c-1.8-0.1-5.2,2.8-9.3,15.3l-2.3,7.3
				C294.8,91.6,295.6,92,296.7,92z"/>
		</g>
		<g id="XMLID_104_">
			<defs>
				<path id="XMLID_78_" d="M357.4,62v11.6h-17.2l-1.9-6.1c-3.9,4.6-8.7,6.9-15.5,6.9c-13.1,0-22.4-8.3-22.4-23.9
					c0-16.2,10.4-24.2,23.4-24.2c5.2,0,10.7,1.3,14.2,5.6V19.4h-6.4V8.3h19.5V62H357.4z M313.7,50.3c0,7.7,5,11.8,11.6,11.8
					c6,0,12.4-3.4,12.4-11.9c0-10.3-7.3-12.2-11.8-12.2C319.5,38,313.7,41.5,313.7,50.3z"/>
			</defs>
			<clipPath id="XMLID_152_">
				<use xlink:href="#XMLID_78_"  style="overflow:visible;"/>
			</clipPath>
			<path id="XMLID_59_" class="st21" d="M283.5,99.9l8.5-27c1.3-4.1,1-5.1,0.4-5.1c-1,0-3,2-5.2,6.1l-1.3-1
				c2.2-5.1,6.2-9.5,10.3-9.5c2.8,0,4.7,2,4.5,5.8c2.8-4.5,5.7-6.1,8.5-6c5.9,0.1,6.9,7.4,5.2,14.2c-2.5,10-9.6,18-16.8,17.6
				c-1.8-0.1-3.1-0.7-4.2-1.7l-2.4,7.6c-1,3.2-0.1,3.8,2.8,4.2l-0.5,1.8h-16.1l0.6-1.8C280.3,104.7,282.2,104.1,283.5,99.9z
				 M296.7,92c3.1,0.1,6.2-3.8,8.9-12.1c1.6-5.1,2.9-11.8,0.4-11.9c-1.8-0.1-5.2,2.8-9.3,15.3l-2.3,7.3
				C294.8,91.6,295.6,92,296.7,92z"/>
		</g>
		<g id="XMLID_108_">
			<defs>
				<path id="XMLID_101_" d="M357.4,62v11.6h-17.2l-1.9-6.1c-3.9,4.6-8.7,6.9-15.5,6.9c-13.1,0-22.4-8.3-22.4-23.9
					c0-16.2,10.4-24.2,23.4-24.2c5.2,0,10.7,1.3,14.2,5.6V19.4h-6.4V8.3h19.5V62H357.4z M313.7,50.3c0,7.7,5,11.8,11.6,11.8
					c6,0,12.4-3.4,12.4-11.9c0-10.3-7.3-12.2-11.8-12.2C319.5,38,313.7,41.5,313.7,50.3z"/>
			</defs>
			<clipPath id="XMLID_153_">
				<use xlink:href="#XMLID_101_"  style="overflow:visible;"/>
			</clipPath>
			<path id="XMLID_56_" class="st22" d="M317.3,86.2c0.2-9.5,7.5-23.2,17.1-23c2.7,0.1,4.4,1.3,5.3,2.8l5-2.4h2.3l-7,21.9
				c-1,3.1-1.2,5.1-0.4,5.1c1.2,0,3.2-2.2,5.3-6l1.3,1c-2.1,5-6.2,9.5-10.3,9.5c-3.3,0-4.7-2.5-4.4-6c-2.9,4.5-5.8,6-8.4,5.9
				C319.5,95,317.2,91.5,317.3,86.2z M335.8,74.9l1.5-4.5c0.8-3,0.1-4.2-1.6-4.2c-3.2,0-6.2,4-8.8,12.1c-1.6,4.9-3,11.9-0.4,12
				C328.4,90.5,332,86.7,335.8,74.9z"/>
		</g>
		<g id="XMLID_111_">
			<defs>
				<path id="XMLID_105_" d="M357.4,62v11.6h-17.2l-1.9-6.1c-3.9,4.6-8.7,6.9-15.5,6.9c-13.1,0-22.4-8.3-22.4-23.9
					c0-16.2,10.4-24.2,23.4-24.2c5.2,0,10.7,1.3,14.2,5.6V19.4h-6.4V8.3h19.5V62H357.4z M313.7,50.3c0,7.7,5,11.8,11.6,11.8
					c6,0,12.4-3.4,12.4-11.9c0-10.3-7.3-12.2-11.8-12.2C319.5,38,313.7,41.5,313.7,50.3z"/>
			</defs>
			<clipPath id="XMLID_154_">
				<use xlink:href="#XMLID_105_"  style="overflow:visible;"/>
			</clipPath>
			<path id="XMLID_109_" class="st23" d="M364.7,85.8l4.5-13.4c1.3-3.8,0.7-4.5-0.2-4.5c-1.9,0-7.3,5.1-12.2,18.9l-2.3,7.6h-7.9
				l7.5-24.2c1.3-4,0.2-4.6-1.7-4.7l0.5-1.7h11l-2.5,8.4c4.2-6.6,8.2-8.8,11.3-8.8c3.9,0,6.4,3.3,4.6,8.6l-4.5,13.7
				c-1.3,4-1,5.1-0.4,5.1c0.8,0,2.7-1.6,5.3-6l1.3,1c-2.2,4.9-6.2,9.5-10.4,9.5C364.8,95.2,362.7,91.8,364.7,85.8z"/>
		</g>
		<g id="XMLID_115_">
			<defs>
				<path id="XMLID_75_" d="M383.1,27.2v35h5.3v11.4h-24.4V62.1h5.9V38.4h-5.8V27.2H383.1z M369.1,15c0-4.8,3.7-7.4,7.6-7.4
					c4.1,0,7.8,2.7,7.8,7.6c0,4.6-3.7,7.3-7.7,7.3C372.8,22.4,369.1,19.7,369.1,15z"/>
			</defs>
			<clipPath id="XMLID_155_">
				<use xlink:href="#XMLID_75_"  style="overflow:visible;"/>
			</clipPath>
			<path id="XMLID_54_" class="st24" d="M364.7,85.8l4.5-13.4c1.3-3.8,0.7-4.5-0.2-4.5c-1.9,0-7.3,5.1-12.2,18.9l-2.3,7.6h-7.9
				l7.5-24.2c1.3-4,0.2-4.6-1.7-4.7l0.5-1.7h11l-2.5,8.4c4.2-6.6,8.2-8.8,11.3-8.8c3.9,0,6.4,3.3,4.6,8.6l-4.5,13.7
				c-1.3,4-1,5.1-0.4,5.1c0.8,0,2.7-1.6,5.3-6l1.3,1c-2.2,4.9-6.2,9.5-10.4,9.5C364.8,95.2,362.7,91.8,364.7,85.8z"/>
		</g>
		<g id="XMLID_119_">
			<defs>
				<path id="XMLID_112_" d="M383.1,27.2v35h5.3v11.4h-24.4V62.1h5.9V38.4h-5.8V27.2H383.1z M369.1,15c0-4.8,3.7-7.4,7.6-7.4
					c4.1,0,7.8,2.7,7.8,7.6c0,4.6-3.7,7.3-7.7,7.3C372.8,22.4,369.1,19.7,369.1,15z"/>
			</defs>
			<clipPath id="XMLID_156_">
				<use xlink:href="#XMLID_112_"  style="overflow:visible;"/>
			</clipPath>
			<path id="XMLID_116_" class="st25" d="M382,85.8l5-16.1c1.1-3.8-0.4-4-2.3-4.2l0.5-1.7h11.6l-6.8,21.9c-1.3,4-1.1,5.1-0.4,5.1
				c0.9,0,2.8-1.6,5.3-6l1.3,1c-2.2,5-6.2,9.5-10.4,9.5C382.2,95.2,380.1,91.9,382,85.8z M394.6,50.4c2.5,0,4.6,2.2,4.5,4.8
				c0,2.5-2.1,4.8-4.7,4.8c-2.5,0-4.6-2.1-4.6-4.7C389.9,52.6,392,50.4,394.6,50.4z"/>
		</g>
		<g id="XMLID_124_">
			<defs>
				<path id="XMLID_73_" d="M414.9,62h6.7v11.6h-26.3V62h6.8V38.4h-6.4V27.2h17.9l0.9,4.8c4.3-4.3,9.4-5.3,13.1-5.3
					c12.6,0,19.8,6,19.8,22.5V62h6.6v11.6h-24.7V62h5.1V49.2c0-4.9-0.7-10.4-9-10.4c-6.3-0.1-10.4,4.2-10.4,11.3V62z"/>
			</defs>
			<clipPath id="XMLID_157_">
				<use xlink:href="#XMLID_73_"  style="overflow:visible;"/>
			</clipPath>
			<path id="XMLID_51_" class="st26" d="M382,85.8l5-16.1c1.1-3.8-0.4-4-2.3-4.2l0.5-1.7h11.6l-6.8,21.9c-1.3,4-1.1,5.1-0.4,5.1
				c0.9,0,2.8-1.6,5.3-6l1.3,1c-2.2,5-6.2,9.5-10.4,9.5C382.2,95.2,380.1,91.9,382,85.8z M394.6,50.4c2.5,0,4.6,2.2,4.5,4.8
				c0,2.5-2.1,4.8-4.7,4.8c-2.5,0-4.6-2.1-4.6-4.7C389.9,52.6,392,50.4,394.6,50.4z"/>
		</g>
		<g id="XMLID_125_">
			<defs>
				<path id="XMLID_120_" d="M414.9,62h6.7v11.6h-26.3V62h6.8V38.4h-6.4V27.2h17.9l0.9,4.8c4.3-4.3,9.4-5.3,13.1-5.3
					c12.6,0,19.8,6,19.8,22.5V62h6.6v11.6h-24.7V62h5.1V49.2c0-4.9-0.7-10.4-9-10.4c-6.3-0.1-10.4,4.2-10.4,11.3V62z"/>
			</defs>
			<clipPath id="XMLID_158_">
				<use xlink:href="#XMLID_120_"  style="overflow:visible;"/>
			</clipPath>
			<path id="XMLID_48_" class="st27" d="M400,77.4c3-9,9.8-14.1,16.3-14.1c5.2,0.1,8.7,3.6,7.3,8.3c-1.6,5.2-8.1,8.6-16.7,9.1
				c-0.9,5.9,0.8,9.5,4.1,9.6c2.7,0.1,5.8-1.8,8.6-6.4l1.3,0.9c-3.4,7-8.7,10.3-13.2,10.2C400.5,95,396.7,87.2,400,77.4z M417,70.3
				c0.8-2.2,0.7-4.4-1.1-4.4c-2.4-0.1-5.8,3.8-7.8,9.8c-0.4,1-0.6,2-0.8,3C412.8,77.8,415.7,74.4,417,70.3z"/>
		</g>
		<g id="XMLID_126_">
			<defs>
				<path id="XMLID_122_" d="M414.9,62h6.7v11.6h-26.3V62h6.8V38.4h-6.4V27.2h17.9l0.9,4.8c4.3-4.3,9.4-5.3,13.1-5.3
					c12.6,0,19.8,6,19.8,22.5V62h6.6v11.6h-24.7V62h5.1V49.2c0-4.9-0.7-10.4-9-10.4c-6.3-0.1-10.4,4.2-10.4,11.3V62z"/>
			</defs>
			<clipPath id="XMLID_159_">
				<use xlink:href="#XMLID_122_"  style="overflow:visible;"/>
			</clipPath>
			<path id="XMLID_46_" class="st28" d="M422.2,91.7l2.7-8.2h1.4c0.4,2.8,1.1,5,2.2,6.6c1.2,1.6,2.6,2.5,4.3,2.5
				c1.7-0.1,3.1-1,3.5-3c0.4-2.8-2.4-5.9-5.1-9.3c-2.9-3.6-3.9-5.7-3.7-8.3c0.3-5.1,4.8-8.7,10.5-8.7c3,0,6.1,0.8,8.8,2.5l-2.7,8.2
				h-1.4c-0.2-2.3-0.5-4.1-1.2-5.5c-1-1.9-2.4-2.8-4.1-2.8c-1.7,0.1-3.2,1.1-3.3,3c-0.2,2.4,2.1,5,4.9,8.4c3,3.7,4.1,6.4,3.6,9.5
				c-0.6,4.5-4.1,8.5-10.3,8.6C428.6,95.2,425,93.8,422.2,91.7z"/>
		</g>
	</g>
	<rect id="XMLID_128_" x="447.3" y="47.6" class="st2" width="92.5" height="2.5"/>
	<rect id="XMLID_130_" x="383.1" y="47.6" class="st2" width="51.3" height="2.5"/>
	<polygon id="XMLID_131_" class="st2" points="313.9,47.6 369.9,47.6 369.9,50.1 313.7,50.1 	"/>
	<polygon id="XMLID_132_" class="st2" points="263.8,47.6 300.6,47.6 300.6,50.1 263.8,50.1 	"/>
	<polygon id="XMLID_133_" class="st2" points="184.2,47.6 216.2,47.6 216.1,50.1 185.1,50.1 	"/>
	<polygon id="XMLID_134_" class="st2" points="144.6,47.6 169.8,47.6 170.7,50.1 145.3,50.1 	"/>
	<polygon id="XMLID_135_" class="st2" points="104.5,47.6 129.8,47.6 130.6,50.1 105.3,50.1 	"/>
</g>
<g id="Calque_3" class="st0">
</g>
</svg>
