<?xml version="1.0" encoding="utf-8"?>
<!-- Generator: Adobe Illustrator 19.0.0, SVG Export Plug-In . SVG Version: 6.00 Build 0)  -->
<svg version="1.1" xmlns="http://www.w3.org/2000/svg" xmlns:xlink="http://www.w3.org/1999/xlink" x="0px" y="0px"
	 viewBox="-3 363.9 589 114" style="enable-background:new -3 363.9 589 114;" xml:space="preserve">
<style type="text/css">
	.st0{display:none;}
	.st1{display:inline;}
	.st2{fill:#EBFFAA;}
	.st3{fill:#3AF9BA;}
	.st4{fill:#E90052;}
	.st5{clip-path:url(#SVGID_2_);}
	.st6{display:none;fill:#E90052;}
	.st7{clip-path:url(#SVGID_4_);fill:#231F20;}
	.st8{clip-path:url(#SVGID_6_);fill:#231F20;}
	.st9{clip-path:url(#SVGID_8_);fill:#231F20;}
</style>
<g id="Calque_1" class="st0">
	<g id="Calque_1_1_" class="st1">
		<g id="XMLID_783_">
			<g id="XMLID_849_">
				<path id="XMLID_850_" class="st2" d="M447,770.3c1.8-3.6,5.7-3.7,8.4-2.3c2.8,1.4,4.9,4.5,3,8.2c-1.8,3.6-5.7,3.9-8.4,2.5
					C447.1,777.2,445,774,447,770.3z M449.4,738.1c4.8-9.1,15.6-9.5,25.4-4.4c8.9,4.6,15.1,13.9,9.9,23.3
					c-4.7,9.1-14.5,5.5-18.7,6.6c-1.6,0.5-2.9,0.7-4.3,3.7l-9.3-4.8c4.1-8,8.5-8,13.8-7.7c4.1,0.2,7.8,0.1,9.3-2.8
					c2.6-4.9-1.7-8.2-5.4-10.2c-6.3-3.3-10-2-11.6,1L449.4,738.1z"/>
			</g>
		</g>
		<g id="XMLID_634_">
			<path id="XMLID_744_" class="st3" d="M181.1,737.3v-1.2h24.5v1.2c-1.7,0.5-5.5,1.2-3.8,6.7l8.4,25.6l7.4-20l-1.7-5.5
				c-1.6-5-4.3-6.1-6.2-6.7v-1.2h24.6v1.2c-2.2,0.6-5.4,1.4-3.8,6.7l8.1,25.6l9.1-25.6c1.7-4.7-1.2-6.1-3.6-6.6v-1.2h14.5v1.2
				c-2.6,0.6-6.1,1.6-7.8,6.6l-15.3,43h-5.7L219,753.8l-12.1,33.3h-5.7l-14-43C185.6,739,183,738,181.1,737.3z"/>
			<path id="XMLID_746_" class="st3" d="M249,769.1c0-11.9,7-18.6,17.8-18.6c12.7,0,17.2,9.8,17,18.1h-21.1
				c0.7,9.2,5.2,12.6,10,12.6c3.2,0,6.5-1.4,9.9-4.9l1,0.2c-1.4,4.5-7,11.5-16.3,11.5C258.8,787.9,249,782.3,249,769.1z
				 M270.9,766.1c0.1-4.4-0.2-13-4-13c-4,0-4.2,9.6-4.2,13H270.9z"/>
			<path id="XMLID_749_" class="st3" d="M287.7,779.7v-35.4c0-4.8-2.9-5.3-4.6-5.5l-0.1-1.1l18.1-2.9v45c0,4.8,2.9,5.8,4.6,6.3v1.1
				h-22.5v-1.3C284.9,785.4,287.7,784.5,287.7,779.7z"/>
			<path id="XMLID_751_" class="st3" d="M328,782.9c-2.2,2.6-5.5,4.5-9.8,4.5c-7,0-13.5-5.3-13.5-18.1c0-12.8,7.7-19.2,16.5-19.2
				c2.2,0,4.4,0.4,6.5,1.2v-7.2c0-4.8-2.9-5.3-4.6-5.5l-0.1-1.1l18.3-2.9v45c0,4.8,2.9,5.8,4.6,6.3v1.1h-14.5
				C329.5,785.8,328.4,784.5,328,782.9z M324.5,781.9c1.2,0,2.4-0.6,3.3-1.5v-17.6c0-6.1-0.8-9.8-4.1-9.8c-2.7,0-4.9,2.5-4.9,11.8
				C318.8,774.7,319.9,781.9,324.5,781.9z"/>
			<path id="XMLID_760_" class="st3" d="M350,779.7v-21.4c0-4.8-2.9-5.8-4.6-6.3v-1.1h17.8v28.7c0,4.8,2.9,5.8,4.6,6.3v1.1h-22.4
				v-1.1C347.2,785.4,350,784.5,350,779.7z M355.5,732.8c4,0,7.4,3.2,7.4,7.2s-3.4,7.2-7.4,7.2c-3.9,0-7.4-3.2-7.4-7.2
				S351.4,732.8,355.5,732.8z"/>
			<path id="XMLID_763_" class="st3" d="M394.1,779.7v-15.5c0-4.2-2-5.5-4.4-5.5c-1.7-0.1-3.4,0.5-4.8,1.2v19.8
				c0,4.8,2.2,5.8,3.5,6.3v1.1H367v-1.2c1.7-0.5,4.6-1.4,4.6-6.3v-21.4c0-4.8-2.9-5.8-4.6-6.3v-1h17.9v6.6c1.5-3.4,5.2-7,11.1-7
				c6.3,0,11.4,4.2,11.4,11.7v17.4c0,4.8,2.9,5.8,4.6,6.3v1.1h-21.4v-1.1C391.9,785.4,394.1,784.5,394.1,779.7z"/>
			<path id="XMLID_765_" class="st3" d="M412.5,795.7c0-3.3,3.2-5.3,6.3-6c-5.5-1.7-6.5-5.2-6.5-7.3c0-3.9,3.3-6.8,8.3-8.3
				c-4.1-2.2-7.2-5.8-7.2-10.8c0-8.7,8.8-12.8,16.4-12.8c2.9,0,6.1,0.6,8.8,2c2-5.3,7.2-7.3,11.6-6.3l-1.1,8h-0.5
				c-2.6-1.6-5.1-1.7-7.8-0.5c3.3,2.2,5.5,5.3,5.5,9.7c0,8.7-9,13-16.6,13c-2.4,0-4.7-0.4-7.1-1.2c-1.2,0.8-2.2,1.7-2.2,2.8
				c0,1.6,2.4,2.4,6.5,2.5l10.8,0.1c6.2,0.1,11.3,3.8,11.3,10.2c0,8-7.7,12.5-19.6,12.5C422.6,803.1,412.5,801.7,412.5,795.7z
				 M432,800.1c5.7,0,9.7-2.2,9.7-5.4c0-2.9-3.1-3.7-6.8-3.7l-8.7-0.1c-1.4,0-2.8-0.1-4-0.3c-1,0.8-1.2,2.1-1.2,2.9
				C420.8,797.2,425.3,800.1,432,800.1z M429.7,773.8c3.1,0,3.6-6.3,3.6-10.4c0-4.2-0.5-10.4-3.6-10.4s-3.5,6.3-3.5,10.4
				C426.1,767.4,426.6,773.8,429.7,773.8z"/>
		</g>
		<g>
			<path class="st4" d="M129.9,735.3l-3.3,18.8H115l0.8-7.2h-4.6l-4.6,26.1h5.7l-1.9,10.8H85.1L87,773h5.8l4.6-26.1h-4.7l-1.7,7.2
				H79.4l3.3-18.8H129.9z"/>
			<path class="st4" d="M132.6,759h-4.8l1.7-9.5H147l-3.7,21.1c-0.7,4.2,2,4,5.1,3.4l-1.7,9.4c-11.4,3.1-18.7,0.8-16.3-12.6
				L132.6,759z M143.7,733.4c3.1,0,6,1.9,6,5.6c0,4.9-4.5,7.6-8.3,7.6c-3.4,0-6.3-1.9-6.3-5.6C135.1,736.1,139.5,733.4,143.7,733.4z
				"/>
			<path class="st4" d="M197.7,758.8H193l-4.4,24.8c-2.1,11.8-9.9,17.4-21.9,17.4c-10.7,0-18.2-4.6-16.9-14.7l12.7,0.1
				c0,2.9,2.4,4.2,5.4,4.2c4.2,0,7.4-2.6,8.2-6.7l0.8-4.5c-3.4,3.7-8.5,4.6-12.3,4.4c-8.5-0.5-13-5.9-13-13.9
				c0-11.9,8.7-21.2,20.2-21.2c4.9,0,8.1,1.7,9.3,4.4l1.3-3.7c5.6,0,11.1,0,16.7,0L197.7,758.8z M164.7,767.8c0,3.7,2.4,6,5.7,6
				c4.9,0,8.6-4,8.6-8.7c0-3.7-2-6-6-6C168.7,759,164.7,762.3,164.7,767.8z"/>
		</g>
	</g>
	<g id="Calque_2" class="st1">
		<g>
			<g>
				<defs>
					<path id="SVGID_1_" d="M181.1,737.3v-1.2h24.5v1.2c-1.7,0.5-5.5,1.2-3.8,6.7l8.4,25.6l7.4-20l-1.7-5.5c-1.6-5-4.3-6.1-6.2-6.7
						v-1.2h24.6v1.2c-2.2,0.6-5.4,1.4-3.8,6.7l8.1,25.6l9.1-25.6c1.7-4.7-1.2-6.1-3.6-6.6v-1.2h14.5v1.2c-2.6,0.6-6.1,1.6-7.8,6.6
						l-15.3,43h-5.7L219,753.8l-12.1,33.3h-5.7l-14-43C185.6,739,183,738,181.1,737.3z"/>
				</defs>
				<clipPath id="SVGID_2_">
					<use xlink:href="#SVGID_1_"  style="overflow:visible;"/>
				</clipPath>
				<path class="st5" d="M197.7,758.8H193l-4.4,24.8c-2.1,11.8-9.9,17.4-21.9,17.4c-10.7,0-18.2-4.6-16.9-14.7l12.7,0.1
					c0,2.9,2.4,4.2,5.4,4.2c4.2,0,7.4-2.6,8.2-6.7l0.8-4.5c-3.4,3.7-8.5,4.6-12.3,4.4c-8.5-0.5-13-5.9-13-13.9
					c0-11.9,8.7-21.2,20.2-21.2c4.9,0,8.1,1.7,9.3,4.4l1.3-3.7c5.6,0,11.1,0,16.7,0L197.7,758.8z M164.7,767.8c0,3.7,2.4,6,5.7,6
					c4.9,0,8.6-4,8.6-8.7c0-3.7-2-6-6-6C168.7,759,164.7,762.3,164.7,767.8z"/>
			</g>
		</g>
	</g>
</g>
<g id="Calque_2_1_">
	<g>
		<path class="st4" d="M42.7,371.1l0.3-1.4h22.5l-0.5,1.4c-2.3,0.6-5.5,1.9-5.6,7.3l-0.8,30.3l13.8-23.4l0.1-6.6
			c0.1-5.8-2-7.2-3.5-7.7l0.4-1.4h22.4l-0.3,1.4c-2.3,0.6-5.7,2.2-5.8,7.7l-1,30.2l17.1-30.4c3.1-5.5,1-6.9-1-7.5l0.3-1.3h13.5
			l-0.5,1.4c-2.3,0.6-6,1.7-9.4,7.4l-27.7,49.3h-5.2l0.6-37.4l-21.7,37.4h-5.2l0.8-49.4C46.3,373.1,44.3,371.6,42.7,371.1z"/>
		<path class="st4" d="M98.1,404.7c4.5-12.3,14-18.3,22.7-18.3c7.1,0,12.6,4.2,10.6,10.8c-2.1,7.5-11.4,10.6-21.7,11.9
			c-1.3,8,1,12.6,5.3,12.7c2.8,0.2,7.4-1.7,11.2-8.3l0.9,0.6c-4.8,10.7-12.5,14.5-18.3,14.5C98.8,428.8,93,418.3,98.1,404.7z
			 M121.2,395c0.9-2.8,1.5-6.2-0.7-6.2c-2.4,0-6,4.9-8.7,12.3c-0.8,2.2-1.4,4.2-1.8,6C116.9,405.4,119.8,399.9,121.2,395z"/>
		<path class="st4" d="M130.8,415.1l11.6-36.5c1.5-4.8-0.9-5.7-2.4-6l0.3-1.3l18.1-2.7l-14.8,47c-1.6,5-1,6.9,0,6.9
			c1,0,3-1.5,6.4-7.5l0.9,0.7c-3.1,7.3-8.5,13.1-14.5,13.1C131.1,428.8,127.9,424.2,130.8,415.1z"/>
		<path class="st4" d="M171.8,419.3c-3.5,6.8-7.3,9.4-11.5,9.4c-7.8,0-10.1-10.2-6.1-22.1c5-14.8,15.6-21.1,22.3-20.2
			c2.5,0.3,4,1.5,4.8,2.7l3.5-10.6c1.2-4.8-0.9-5.7-2.3-6l0.2-1.3l18.2-2.7l-15.2,47c-1.5,5-1,6.9,0,6.9s3.1-1.8,6.4-7.5l0.9,0.7
			c-3.1,7.3-8.7,13.1-14.7,13.1C173.7,428.8,170.9,425.6,171.8,419.3z M174.4,410.2l6.2-18.9c-0.5-0.8-1.1-1.1-2.2-1.1
			c-2.9,0-6.2,3.6-10.1,15.3c-2.8,8.5-4.5,15.9-1.5,16.3C168.2,422,170.9,419.7,174.4,410.2z"/>
		<path class="st4" d="M195.2,415.2l6.5-20.7c1.2-4.8-0.8-5.8-2.3-6.3l0.3-1.3H217l-9,28.6c-1.6,5-1,6.9,0,6.9c1,0,3-1.5,6.4-7.5
			l0.8,0.7c-3.1,7.3-8.5,13.1-14.6,13.1C195.1,428.8,192.4,424.1,195.2,415.2z M212.4,368.8c3.9,0,7,3.3,6.9,7.5
			c-0.1,4-3.1,7.3-7.2,7.3c-3.9,0-6.9-3.1-6.9-7.3S208.4,368.8,212.4,368.8z"/>
		<path class="st4" d="M239.6,415.2l5.3-15.7c1.9-5.6,1.1-6.7,0.2-6.7c-2.1,0-9,8.1-14.2,24.2l-3.3,10.8h-13l10.2-32.5
			c1.5-5.1-0.3-6.6-2.1-7.1l0.4-1.3h17l-4.4,14.1c5.8-10.5,11.4-14.7,16.5-14.7c5.4,0,8.4,4.8,6,11.7l-5.8,17.5c-1.6,5-1,6.9,0,6.9
			c1,0,3-1.5,6.4-7.5l0.9,0.7c-3.1,7.3-8.7,13.1-14.7,13.1C239.5,428.8,236.6,424.1,239.6,415.2z"/>
		<path class="st4" d="M255.9,434.9c1.4-4.8,8.1-5.5,13.3-2.3l0.2,0.7c-2.1,0.7-3.2,2.1-3.5,3.5c-1,3.9,2.7,6.1,7.7,6.2
			c3.8,0.1,8.3-1.5,9.4-5c1-3-0.6-5.6-4.8-6.5l-10.4-2.2c-8.9-1.9-9.1-6.9-8.1-9.7c1.2-3.5,4.4-5.2,7.9-6.5c-3.4-2.6-5.1-7.2-3.4-13
			c2.7-9.4,11.9-14,19.4-14c4.8,0.1,8.8,1.9,11,5.2c2-3.8,5.8-6.5,9.8-5l-2.8,7.3c-1.5-0.9-3.6-1.5-5.9-0.3c0.9,2.4,1,5.3,0.1,8.5
			c-2.9,9.8-13.3,13.8-20,13.8c-2.3,0-4.3-0.5-6-1.4c-0.6,0.4-1,0.9-1.1,1.4c-0.3,1.2,0.6,2.2,3.9,2.9l10.3,2.2
			c9.6,2.1,10.9,8.8,9,14.1c-2.5,6.8-10.2,10.6-19.3,10.5C263.8,445.5,253.9,441.8,255.9,434.9z M283.3,401.2
			c1.5-5.2,3.4-12.4,0.4-12.4c-2.9,0-5.5,6.8-7.1,12.3c-1.6,5.4-3.5,12.3-0.5,12.3C279,413.5,281.6,407.1,283.3,401.2z"/>
	</g>
	<g>
		<path class="st3" d="M211.3,474l1.6-9.2h6.5l6.8-38.5h-6.3l1.5-9.1h30.9c9.7,0,16.8,3.8,16.8,13.3c0,6.3-2.9,11.3-9.6,14.5
			c5.8,1.8,7.9,7.8,7.1,13.5c-1.7,12.3-12.4,15.4-24.2,15.4H211.3z M229.1,464.9h14.7c4.3,0,11-1.1,12.2-7.7c1-5.3-4.9-7.9-9.5-7.9
			h-14.7L229.1,464.9z M233.5,440.3h14.7c7.2,0,10.8-4.2,10.8-7.9c0-4.3-3-6-8.3-6H236L233.5,440.3z"/>
		<path class="st3" d="M315.4,465.5h6.1l-1.5,8.5h-13.3l-0.6-5c-4.9,4.5-9.2,5.5-14.1,5.5c-13,0-16.4-8-14.4-19.5l2.3-13h-5.6
			l1.5-8.1h15l-3.7,21.1c-1.1,6.6-0.2,10.7,7.9,10.7c6.9,0,12-4.5,13-10.4l2.3-13.4h-6.3l1.5-8.1H321L315.4,465.5z"/>
		<path class="st3" d="M362.4,446.8h-7.7l0.5-5.4c-2.3-1.1-5.5-1.4-6.8-1.4c-5.2-0.1-8.7,1.9-8.8,5.1c-0.1,3.6,4.3,4,7.7,4.5
			c7,0.8,16,2.3,16,11.5s-7.4,14.3-20,14.3c-6.3,0-11.7-1.4-16.8-4.9l2.3-11h7.9l-0.6,5.8c2.8,1.4,5.7,1.9,9,1.9
			c2.9,0,9.1-0.9,9.1-5.4c0-3.4-5.3-4-9.4-4.5c-9-1.1-15-4-14.1-12.6c1.1-8.7,10.5-12.2,19.7-12.2c4.9,0,10.4,1.3,14.3,3.5
			L362.4,446.8z"/>
		<path class="st3" d="M389.2,433.8l-5.7,31.9h5.3l-1.5,8.3h-20.6l1.5-8.3h5.7l4.2-23.6h-5.6l1.5-8.3H389.2z M380.8,423.6
			c0-4.1,3.5-6.6,6.6-6.6c2.7,0,4.9,1.8,4.9,4.8c0,4.1-3.6,6.7-6.7,6.6C382.9,428.4,380.8,426.6,380.8,423.6z"/>
		<path class="st3" d="M409.9,465.6h6l-1.5,8.4h-21.6l1.5-8.4h6.3l4.1-23.5h-6l1.5-8.3h14.3l-0.2,5c4-3.7,8-5.6,13.4-5.6
			c11.4,0.2,15.8,6.6,13.5,19.5l-2.3,12.8h6.2l-1.5,8.4h-20.7l1.5-8.4h5l2.3-12.7c1.3-7.3-0.2-10.8-7.4-10.8
			c-5.7,0-11.1,3.8-12.5,11.6L409.9,465.6z"/>
		<path class="st3" d="M487.5,468.5c-4.9,4.5-12.3,6.5-18.4,6.5c-11.8,0-18.5-6.7-18.5-17.4c0-14.3,11.2-24.7,25.4-24.7
			c12.2,0,20.2,8.3,15.7,24.6h-31.8c0,5.2,3.9,8.8,10.9,8.8c3.8,0,8.8-1.5,11.7-4.1L487.5,468.5z M484.1,449.9
			c0.6-5.7-2.8-8.6-9.2-8.6c-5.3,0-11.2,3-13.5,8.6H484.1z"/>
		<path class="st3" d="M531.7,446.8H524l0.5-5.4c-2.3-1.1-5.5-1.4-6.8-1.4c-5.2-0.1-8.7,1.9-8.8,5.1c-0.1,3.6,4.3,4,7.7,4.5
			c7,0.8,16,2.3,16,11.5s-7.4,14.3-20,14.3c-6.3,0-11.7-1.4-16.8-4.9l2.3-11h7.9l-0.6,5.8c2.8,1.4,5.7,1.9,9,1.9
			c2.9,0,9.1-0.9,9.1-5.4c0-3.4-5.3-4-9.4-4.5c-9-1.1-15-4-14.1-12.6c1.1-8.7,10.5-12.2,19.7-12.2c4.9,0,10.4,1.3,14.3,3.5
			L531.7,446.8z"/>
		<path class="st3" d="M573.5,446.8h-7.7l0.5-5.4c-2.3-1.1-5.5-1.4-6.8-1.4c-5.2-0.1-8.7,1.9-8.8,5.1c-0.1,3.6,4.3,4,7.7,4.5
			c7,0.8,16,2.3,16,11.5s-7.4,14.3-20,14.3c-6.3,0-11.7-1.4-16.8-4.9l2.3-11h7.9l-0.6,5.8c2.8,1.4,5.7,1.9,9,1.9
			c2.9,0,9.1-0.9,9.1-5.4c0-3.4-5.3-4-9.4-4.5c-9-1.1-15-4-14.1-12.6c1.1-8.7,10.5-12.2,19.7-12.2c4.9,0,10.4,1.3,14.3,3.5
			L573.5,446.8z"/>
	</g>
</g>
<g id="Calque_3">
	<path class="st6" d="M239.6,415.2l5.3-15.7c1.9-5.6,1.1-6.7,0.2-6.7c-2.1,0-9,8.1-14.2,24.2l-3.3,10.8h-13l10.2-32.5
		c1.5-5.1-0.3-6.6-2.1-7.1l0.4-1.3h17l-4.4,14.1c5.8-10.5,11.4-14.7,16.5-14.7c5.4,0,8.4,4.8,6,11.7l-5.8,17.5c-1.6,5-1,6.9,0,6.9
		c1,0,3-1.5,6.4-7.5l0.9,0.7c-3.1,7.3-8.7,13.1-14.7,13.1C239.5,428.8,236.6,424.1,239.6,415.2z"/>
	<g>
		<defs>
			<path id="SVGID_3_" d="M255.9,434.9c1.4-4.8,8.1-5.5,13.3-2.3l0.2,0.7c-2.1,0.7-3.2,2.1-3.5,3.5c-1,3.9,2.7,6.1,7.7,6.2
				c3.8,0.1,8.3-1.5,9.4-5c1-3-0.6-5.6-4.8-6.5l-10.4-2.2c-8.9-1.9-9.1-6.9-8.1-9.7c1.2-3.5,4.4-5.2,7.9-6.5
				c-3.4-2.6-5.1-7.2-3.4-13c2.7-9.4,11.9-14,19.4-14c4.8,0.1,8.8,1.9,11,5.2c2-3.8,5.8-6.5,9.8-5l-2.8,7.3
				c-1.5-0.9-3.6-1.5-5.9-0.3c0.9,2.4,1,5.3,0.1,8.5c-2.9,9.8-13.3,13.8-20,13.8c-2.3,0-4.3-0.5-6-1.4c-0.6,0.4-1,0.9-1.1,1.4
				c-0.3,1.2,0.6,2.2,3.9,2.9l10.3,2.2c9.6,2.1,10.9,8.8,9,14.1c-2.5,6.8-10.2,10.6-19.3,10.5C263.8,445.5,253.9,441.8,255.9,434.9z
				 M283.3,401.2c1.5-5.2,3.4-12.4,0.4-12.4c-2.9,0-5.5,6.8-7.1,12.3c-1.6,5.4-3.5,12.3-0.5,12.3C279,413.5,281.6,407.1,283.3,401.2
				z"/>
		</defs>
		<clipPath id="SVGID_4_">
			<use xlink:href="#SVGID_3_"  style="overflow:visible;"/>
		</clipPath>
		<path class="st7" d="M315.4,465.5h6.1l-1.5,8.5h-13.3l-0.6-5c-4.9,4.5-9.2,5.5-14.1,5.5c-13,0-16.4-8-14.4-19.5l2.3-13h-5.6
			l1.5-8.1h15l-3.7,21.1c-1.1,6.6-0.2,10.7,7.9,10.7c6.9,0,12-4.5,13-10.4l2.3-13.4h-6.3l1.5-8.1H321L315.4,465.5z"/>
	</g>
	<g>
		<defs>
			<path id="SVGID_5_" d="M239.6,415.2l5.3-15.7c1.9-5.6,1.1-6.7,0.2-6.7c-2.1,0-9,8.1-14.2,24.2l-3.3,10.8h-13l10.2-32.5
				c1.5-5.1-0.3-6.6-2.1-7.1l0.4-1.3h17l-4.4,14.1c5.8-10.5,11.4-14.7,16.5-14.7c5.4,0,8.4,4.8,6,11.7l-5.8,17.5c-1.6,5-1,6.9,0,6.9
				c1,0,3-1.5,6.4-7.5l0.9,0.7c-3.1,7.3-8.7,13.1-14.7,13.1C239.5,428.8,236.6,424.1,239.6,415.2z"/>
		</defs>
		<clipPath id="SVGID_6_">
			<use xlink:href="#SVGID_5_"  style="overflow:visible;"/>
		</clipPath>
		<path class="st8" d="M211.3,474l1.6-9.2h6.5l6.8-38.5h-6.3l1.5-9.1h30.9c9.7,0,16.8,3.8,16.8,13.3c0,6.3-2.9,11.3-9.6,14.5
			c5.8,1.8,7.9,7.8,7.1,13.5c-1.7,12.3-12.4,15.4-24.2,15.4H211.3z M229.1,464.9h14.7c4.3,0,11-1.1,12.2-7.7c1-5.3-4.9-7.9-9.5-7.9
			h-14.7L229.1,464.9z M233.5,440.3h14.7c7.2,0,10.8-4.2,10.8-7.9c0-4.3-3-6-8.3-6H236L233.5,440.3z"/>
	</g>
	<g>
		<defs>
			<path id="SVGID_7_" d="M255.9,434.9c1.4-4.8,8.1-5.5,13.3-2.3l0.2,0.7c-2.1,0.7-3.2,2.1-3.5,3.5c-1,3.9,2.7,6.1,7.7,6.2
				c3.8,0.1,8.3-1.5,9.4-5c1-3-0.6-5.6-4.8-6.5l-10.4-2.2c-8.9-1.9-9.1-6.9-8.1-9.7c1.2-3.5,4.4-5.2,7.9-6.5
				c-3.4-2.6-5.1-7.2-3.4-13c2.7-9.4,11.9-14,19.4-14c4.8,0.1,8.8,1.9,11,5.2c2-3.8,5.8-6.5,9.8-5l-2.8,7.3
				c-1.5-0.9-3.6-1.5-5.9-0.3c0.9,2.4,1,5.3,0.1,8.5c-2.9,9.8-13.3,13.8-20,13.8c-2.3,0-4.3-0.5-6-1.4c-0.6,0.4-1,0.9-1.1,1.4
				c-0.3,1.2,0.6,2.2,3.9,2.9l10.3,2.2c9.6,2.1,10.9,8.8,9,14.1c-2.5,6.8-10.2,10.6-19.3,10.5C263.8,445.5,253.9,441.8,255.9,434.9z
				 M283.3,401.2c1.5-5.2,3.4-12.4,0.4-12.4c-2.9,0-5.5,6.8-7.1,12.3c-1.6,5.4-3.5,12.3-0.5,12.3C279,413.5,281.6,407.1,283.3,401.2
				z"/>
		</defs>
		<clipPath id="SVGID_8_">
			<use xlink:href="#SVGID_7_"  style="overflow:visible;"/>
		</clipPath>
		<path class="st9" d="M211.3,474l1.6-9.2h6.5l6.8-38.5h-6.3l1.5-9.1h30.9c9.7,0,16.8,3.8,16.8,13.3c0,6.3-2.9,11.3-9.6,14.5
			c5.8,1.8,7.9,7.8,7.1,13.5c-1.7,12.3-12.4,15.4-24.2,15.4H211.3z M229.1,464.9h14.7c4.3,0,11-1.1,12.2-7.7c1-5.3-4.9-7.9-9.5-7.9
			h-14.7L229.1,464.9z M233.5,440.3h14.7c7.2,0,10.8-4.2,10.8-7.9c0-4.3-3-6-8.3-6H236L233.5,440.3z"/>
	</g>
</g>
</svg>
